<svg xmlns="http://www.w3.org/2000/svg" xmlns:xlink="http://www.w3.org/1999/xlink" fill="none" version="1.1" width="20" height="20" viewBox="0 0 20 20"><g><g><g><g></g></g><g><path d="M10.833416746139527,1.66667L10.833416746139527,0.833333C10.833416746139527,0.373096,10.460316746139526,0,10.000086746139527,0C9.539846746139526,0,9.166746746139527,0.373096,9.166746746139527,0.833333L9.166746746139527,1.66667C9.166746746139527,2.1269,9.539846746139526,2.5,10.000086746139527,2.5C10.460316746139526,2.5,10.833416746139527,2.1269,10.833416746139527,1.66667ZM13.235566746139526,17.5L17.499966746139528,17.5C17.960266746139528,17.5,18.333366746139525,17.1269,18.333366746139525,16.6667C18.333366746139525,16.2064,17.960266746139528,15.8333,17.499966746139528,15.8333L2.4999997461395265,15.8333C2.0397627461395262,15.8333,1.6666667461395264,16.2064,1.6666667461395264,16.6667C1.6666667461395264,17.1269,2.0397627461395262,17.5,2.4999997461395265,17.5L6.764436746139526,17.5Q6.975616746139527,18.3563,7.642976746139526,19.0237Q8.619286746139526,20,9.999996746139526,20Q11.380716746139527,20,12.357066746139527,19.0237Q13.024366746139526,18.3563,13.235566746139526,17.5ZM11.448106746139526,17.5L8.551896746139526,17.5Q8.659976746139527,17.6837,8.821486746139527,17.8452Q9.309646746139526,18.3333,9.999996746139526,18.3333Q10.690356746139527,18.3333,11.178506746139526,17.8452Q11.340026746139527,17.6837,11.448106746139526,17.5Z" fill-rule="evenodd" fill="#1B2129" fill-opacity="1"/></g></g><g><path d="M4.16667,16.666666388511658L2.5,16.666666388511658L2.5,9.166666388511658Q2.5,7.641346388511658,3.089729,6.247076388511657Q3.65907,4.900986388511658,4.6967,3.8633663885116576Q5.73432,2.8257363885116575,7.08041,2.2563963885116576Q8.47468,1.6666665871936577,10,1.6666663885116577Q11.52532,1.6666667858756576,12.9196,2.2563963885116576Q14.2657,2.8257363885116575,15.3033,3.8633663885116576Q16.340899999999998,4.900996388511658,16.9103,6.247076388511657Q17.5,7.641346388511658,17.5,9.166666388511658L17.5,16.666666388511658L15.8333,16.666666388511658L15.8333,9.166666388511658Q15.8333,6.750416388511658,14.1248,5.041876388511658Q12.41625,3.3333363885116576,10,3.3333363885116576Q7.58375,3.3333363885116576,5.87521,5.041876388511658Q4.16667,6.750416388511658,4.16667,9.166666388511658L4.16667,16.666666388511658Z" fill-rule="evenodd" fill="#1B2129" fill-opacity="1"/></g></g></svg>