<?xml version="1.0" standalone="no"?><!DOCTYPE svg PUBLIC "-//W3C//DTD SVG 1.1//EN" "http://www.w3.org/Graphics/SVG/1.1/DTD/svg11.dtd"><svg class="icon" width="200px" height="200.00px" viewBox="0 0 1024 1024" version="1.1" xmlns="http://www.w3.org/2000/svg"><path fill="#1890FF" d="M611.6 618.7l18.6-27.9c111-46.3 189.1-155.8 189.1-283.6C819.2 137.5 681.7 0 512 0S204.8 137.5 204.8 307.2c0 127.8 78.1 237.3 189.1 283.6l18.6 27.9C177.5 637.2 0 719.8 0 819.2 0 932.3 229.2 1024 512 1024s512-91.7 512-204.8c0-99.4-177.5-182-412.4-200.5zM358.4 307.2c0-84.8 68.8-153.6 153.6-153.6s153.6 68.8 153.6 153.6S596.8 460.8 512 460.8 358.4 392 358.4 307.2z m153.6 512c-197.9 0-358.4-45.8-358.4-102.4 0-46.6 109.6-85.7 258.9-98L512 768l99.5-149.2c149.3 12.4 258.9 51.4 258.9 98 0 56.6-160.5 102.4-358.4 102.4z"  /></svg>