<?xml version="1.0" encoding="UTF-8"?>
<svg width="46px" height="46px" viewBox="0 0 46 46" version="1.1" xmlns="http://www.w3.org/2000/svg" xmlns:xlink="http://www.w3.org/1999/xlink">
    <title>快捷入口</title>
    <defs>
        <rect id="path-1" x="0" y="0" width="44" height="44" rx="3"></rect>
    </defs>
    <g id="图表器" stroke="none" stroke-width="1" fill="none" fill-rule="evenodd">
        <g id="统计图表/筛选" transform="translate(-126.000000, -508.000000)">
            <g id="快捷入口" transform="translate(127.000000, 509.000000)">
                <mask id="mask-2" fill="white">
                    <use xlink:href="#path-1"></use>
                </mask>
                <use id="组-457备份-25" stroke="#DCDEE0" stroke-dasharray="2" fill-rule="nonzero" xlink:href="#path-1"></use>
                <g mask="url(#mask-2)" fill-rule="nonzero">
                    <g transform="translate(10.000000, 12.000000)">
                        <polygon id="路径" fill="#FFFFFF" points="0.765 0.791666667 23.265 0.791666667 23.265 18.2083333 0.765 18.2083333"></polygon>
                        <path d="M22.5,1.58333333 L22.5,17.4166667 L1.5,17.4166667 L1.5,1.58333333 L22.5,1.58333333 M24,0 L0,0 L0,19 L24,19 L24,0 Z" id="形状" fill="#1890FF"></path>
                        <polygon id="路径" fill="#00B42A" points="3.045 3.19833333 11.295 3.19833333 11.295 8.74 3.045 8.74"></polygon>
                        <polygon id="路径" fill="#1890FF" points="12.78 3.19833333 21.03 3.19833333 21.03 8.74 12.78 8.74"></polygon>
                        <polygon id="路径" fill="#1890FF" points="3.045 10.3075 11.295 10.3075 11.295 15.8491667 3.045 15.8491667"></polygon>
                        <polygon id="路径" fill="#1890FF" points="12.78 10.3075 21.03 10.3075 21.03 15.8491667 12.78 15.8491667"></polygon>
                    </g>
                </g>
            </g>
        </g>
    </g>
</svg>