<?xml version="1.0" encoding="UTF-8"?>
<svg width="46px" height="46px" viewBox="0 0 46 46" version="1.1" xmlns="http://www.w3.org/2000/svg" xmlns:xlink="http://www.w3.org/1999/xlink">
    <title>编组 11</title>
    <defs>
        <rect id="path-1" x="0" y="0" width="44" height="44" rx="3"></rect>
    </defs>
    <g id="图表器" stroke="none" stroke-width="1" fill="none" fill-rule="evenodd">
        <g id="统计图表/筛选" transform="translate(-45.000000, -722.000000)">
            <g id="编组-11" transform="translate(46.000000, 723.000000)">
                <mask id="mask-2" fill="white">
                    <use xlink:href="#path-1"></use>
                </mask>
                <use id="组-457备份-33" stroke="#DCDEE0" stroke-dasharray="2" fill-rule="nonzero" xlink:href="#path-1"></use>
                <g id="编组-10" transform="translate(7.000000, 14.000000)" fill-rule="nonzero">
                    <path d="M21.4201389,14.4056225 L9.57986111,14.4056225 C9.28385417,14.4056225 9.04166667,14.9893574 9.04166667,15.7028112 C9.04166667,16.4162651 9.28385417,17 9.57986111,17 L21.4201389,17 C21.7161458,17 21.9583333,16.4162651 21.9583333,15.7028112 C21.9583333,14.9893574 21.7161458,14.4056225 21.4201389,14.4056225 Z" id="路径" fill="#00B42A"></path>
                    <path d="M29.7083333,5.18875502 L24.5416667,5.18875502 C23.83125,5.18875502 23.25,5.53899599 23.25,5.96706828 L23.25,12.1935743 C23.25,12.6216466 23.83125,12.9718876 24.5416667,12.9718876 L29.7083333,12.9718876 C30.41875,12.9718876 31,12.6216466 31,12.1935743 L31,5.96706828 C31,5.53899599 30.41875,5.18875502 29.7083333,5.18875502 Z" id="形状" fill="#1890FF"></path>
                    <path d="M6.45833333,5.18875502 L1.29166667,5.18875502 C0.58125001,5.18875502 0,5.53899599 0,5.96706828 L0,12.1935743 C0,12.6216466 0.58125001,12.9718876 1.29166667,12.9718876 L6.45833333,12.9718876 C7.16874999,12.9718876 7.75,12.6216466 7.75,12.1935743 L7.75,5.96706828 C7.75,5.53899599 7.16875001,5.18875502 6.45833333,5.18875502 Z" id="形状备份" fill="#1890FF"></path>
                    <path d="M10.3333333,12.9718876 L20.6666667,12.9718876 C21.3770833,12.9718876 21.9583333,12.6070532 21.9583333,12.1611446 L21.9583333,0.810742975 C21.9583333,0.364834344 21.3770833,0 20.6666666,0 L10.3333333,0 C9.62291668,0 9.04166667,0.364834344 9.04166667,0.810742975 L9.04166667,12.1611446 C9.04166667,12.6070532 9.62291665,12.9718876 10.3333333,12.9718876 Z" id="形状" fill="#00B42A"></path>
                </g>
            </g>
        </g>
    </g>
</svg>