<svg viewBox="0 0 24 24" fill="none" xmlns="http://www.w3.org/2000/svg"><defs><clipPath id="a"><rect rx="0" height="24" width="24"/></clipPath></defs><g clip-path="url(#a)"><path fill="#333" d="M3 6V3q0-.098.02-.195.018-.097.056-.188.038-.09.093-.173.054-.081.124-.151.07-.07.151-.124.082-.055.173-.093.091-.038.188-.057Q3.902 2 4 2h16q.099 0 .195.02.097.018.188.056.09.038.173.093.081.054.151.124.07.07.124.151.055.082.093.173.038.091.057.188Q21 2.902 21 3v3q0 .098-.02.195-.018.097-.056.188-.038.09-.093.173-.054.081-.124.151-.07.07-.151.124-.082.055-.173.093-.091.038-.188.057Q20.1 7 20 7H4q-.098 0-.195-.02-.097-.018-.188-.056-.09-.038-.173-.093-.081-.054-.151-.124-.07-.07-.124-.151-.055-.082-.093-.173-.038-.091-.057-.188Q3 6.098 3 6Zm2-2v1h14V4H5ZM3 13v-3q0-.098.02-.195.018-.097.056-.188.038-.09.093-.173.054-.081.124-.151.07-.07.151-.124.082-.055.173-.093.091-.038.188-.057Q3.902 9 4 9h16q.099 0 .195.02.097.018.188.056.09.038.173.093.081.054.151.124.07.07.124.151.055.082.093.173.038.091.057.188Q21 9.902 21 10v3q0 .098-.02.195-.018.097-.056.188-.038.09-.093.173-.054.081-.124.151-.07.07-.151.124-.082.055-.173.093-.091.038-.188.057Q20.1 14 20 14H4q-.098 0-.195-.02-.097-.018-.188-.056-.09-.038-.173-.093-.081-.054-.151-.124-.07-.07-.124-.151-.055-.082-.093-.173-.038-.091-.057-.188Q3 13.098 3 13Zm2-2v1h14v-1H5Z" data-follow-fill="#333"/><path fill="#333" fill-rule="evenodd" d="M14.293 21.293q-.14.14-.217.324Q14 21.801 14 22t.076.383q.076.183.217.324.14.14.324.217.184.076.383.076t.383-.076q.183-.076.324-.217l3-3q.07-.07.124-.151.055-.082.093-.173.038-.091.057-.188Q19 19.098 19 19t-.02-.195q-.018-.097-.056-.188-.038-.09-.093-.173-.054-.081-.124-.151l-3-3q-.14-.14-.324-.217Q15.199 15 15 15t-.383.076q-.183.076-.324.217-.14.14-.217.324Q14 15.801 14 16t.076.383q.076.183.217.324L16.586 19l-2.293 2.293Z" data-follow-fill="#333"/><path fill="#333" fill-rule="evenodd" d="M4 20h12q.099 0 .195-.02.097-.018.188-.056.09-.038.173-.093.081-.054.151-.124.07-.07.124-.151.055-.082.093-.173.038-.091.057-.188Q17 19.098 17 19t-.02-.195q-.018-.097-.056-.188-.038-.09-.093-.173-.054-.081-.124-.151-.07-.07-.151-.124-.082-.055-.173-.093-.091-.038-.188-.057Q16.1 18 16 18H4q-.098 0-.195.02-.097.018-.188.056-.09.038-.173.093-.081.054-.151.124-.07.07-.124.151-.055.082-.093.173-.038.091-.057.188Q3 18.902 3 19t.02.195q.018.097.056.188.038.09.093.173.054.081.124.151.07.07.151.124.082.055.173.093.091.038.188.057Q3.902 20 4 20Z" data-follow-fill="#333"/></g></svg>