<?xml version="1.0" encoding="UTF-8"?>
<svg width="46px" height="46px" viewBox="0 0 46 46" version="1.1" xmlns="http://www.w3.org/2000/svg" xmlns:xlink="http://www.w3.org/1999/xlink">
    <title>排行榜</title>
    <defs>
        <rect id="path-1" x="0" y="0" width="44" height="44" rx="3"></rect>
    </defs>
    <g id="图表器" stroke="none" stroke-width="1" fill="none" fill-rule="evenodd">
        <g id="统计图表/筛选" transform="translate(-202.000000, -385.000000)">
            <g id="排行榜" transform="translate(203.000000, 386.000000)">
                <mask id="mask-2" fill="white">
                    <use xlink:href="#path-1"></use>
                </mask>
                <use id="组-457备份-33" stroke="#DCDEE0" stroke-dasharray="2" fill-rule="nonzero" xlink:href="#path-1"></use>
                <g id="paixingbang-2" transform="translate(10.000000, 13.000000)" fill-rule="nonzero">
                    <path d="M23,16.1052632 L1,16.1052632 C0.450000008,16.1052632 0,16.5315789 0,17.0526316 C0,17.5736842 0.450000008,18 1,18 L23,18 C23.55,18 24,17.5736842 24,17.0526316 C24,16.5315789 23.55,16.1052632 23,16.1052632 Z" id="路径" fill="#1890FF"></path>
                    <path d="M23,5.68421053 L19,5.68421053 C18.45,5.68421053 18,6.11052632 18,6.63157895 L18,14.2105263 C18,14.7315789 18.45,15.1578947 19,15.1578947 L23,15.1578947 C23.55,15.1578947 24,14.7315789 24,14.2105263 L24,6.63157895 C24,6.11052632 23.55,5.68421053 23,5.68421053 Z M21,13.2631579 C20.3,13.2631579 19.8,13.1210526 19.45,12.8842105 C19.1,12.6 18.95,12.0315789 18.95,11.3684211 L20.45,11.3684211 C20.45,11.6526316 20.5,11.9842105 20.55,12.1263158 C20.6,12.2684211 20.75,12.3631579 20.9,12.3631579 C21.1,12.3631579 21.25,12.268421 21.3,12.0789474 C21.3,11.9842105 21.35,11.7947368 21.35,11.5105263 C21.35,11.2263158 21.3,11.0842105 21.2,10.9421053 C21.1,10.8473684 20.95,10.8 20.75,10.8 L20.35,10.8 L20.35,9.89999998 L20.6,9.89999998 C20.85,9.89999998 21.05,9.85263156 21.15,9.75789471 C21.25,9.66315786 21.3,9.42631576 21.3,9.14210524 C21.3,8.76315786 21.15,8.52631576 20.9,8.52631576 C20.75,8.52631576 20.65,8.57368419 20.55,8.71578944 C20.5,8.81052629 20.45,9.09473681 20.45,9.37894734 L19,9.37894734 C19.05,8.24210524 19.65,7.62631576 20.9,7.62631576 C21.6,7.62631576 22.15,7.76842103 22.45,8.00526313 C22.7,8.24210524 22.85,8.62105261 22.85,9.14210524 C22.85,9.42631576 22.8,9.61578944 22.65,9.80526313 C22.5,10.0421052 22.3,10.1842105 22,10.2315789 L22,10.2315789 C22.65,10.3263158 22.95,10.7526316 22.95,11.4631579 C23,12.6473684 22.35,13.2631579 21,13.2631579 Z" id="形状" fill="#1890FF"></path>
                    <path d="M8,15.1578947 L16,15.1578947 C16.55,15.1578947 17,14.7315789 17,14.2105263 L17,0.947368424 C17,0.426315797 16.55,0 16,0 L8,0 C7.45000001,0 7,0.426315797 7,0.947368424 L7,14.2105263 C7,14.7315789 7.44999999,15.1578947 8,15.1578947 Z M9.99999999,4.16842105 C10.65,4.16842105 11.1,4.0736842 11.4,3.93157895 C11.7,3.78947368 11.9,3.26842105 12.05,2.84210527 L13.5,2.84210527 L13.5,10.4210526 L11.4,10.4210526 L11.4,5.35263158 L9.99999999,5.35263158 L9.99999999,4.16842105 Z" id="形状" fill="#00B42A"></path>
                    <path d="M1,15.1578947 L5,15.1578947 C5.54999999,15.1578947 6,14.7315789 6,14.2105263 L6,4.7368421 C6,4.21578947 5.54999999,3.78947368 5,3.78947368 L1,3.78947368 C0.450000008,3.78947368 0,4.21578947 0,4.7368421 L0,14.2105263 C0,14.7315789 0.450000008,15.1578947 1,15.1578947 Z M1.9,9.6631579 L2.95,8.5263158 C3.25,8.19473685 3.40000001,7.8631579 3.40000001,7.48421053 C3.40000001,7.01052632 3.25,6.7736842 3,6.7736842 C2.70000001,6.7736842 2.55,7.05789473 2.55,7.62631578 L2.55,7.9105263 L1.05000001,7.9105263 C1.05000001,7.15263158 1.20000001,6.63157893 1.45000001,6.34736841 C1.74999999,5.8736842 2.25,5.68421053 3.04999999,5.68421053 C3.8,5.68421053 4.29999999,5.8736842 4.64999999,6.20526315 C4.89999999,6.48947368 5.05,6.91578947 5.05,7.4368421 C5.05,8.19473683 4.8,8.8105263 4.29999999,9.33157895 L3.34999999,10.3263158 C3.24999998,10.4210526 3.15,10.5157895 3.15,10.5631579 C3.04999999,10.6578947 3,10.5631579 3,10.6105263 L5,10.6105263 L5,12.3157895 L1,12.3157895 C1,11.3210526 1.3,10.3263158 1.9,9.6631579 Z" id="形状" fill="#1890FF"></path>
                </g>
            </g>
        </g>
    </g>
</svg>