<svg xmlns="http://www.w3.org/2000/svg" xmlns:xlink="http://www.w3.org/1999/xlink" fill="none" version="1.1" width="24" height="24" viewBox="0 0 24 24"><defs><clipPath id="master_svg0_1_120"><rect x="0" y="0" width="24" height="24" rx="0"/></clipPath></defs><g clip-path="url(#master_svg0_1_120)"><g><path d="M5.63603,18.3639Q6.88218,19.6101,8.497119999999999,20.2931Q10.16831,21,12,21Q13.8317,21,15.5029,20.2931Q17.117800000000003,19.6101,18.3639,18.3639Q19.6101,17.117800000000003,20.2931,15.5029Q21,13.8317,21,12Q21,10.16831,20.2931,8.497119999999999Q19.6101,6.88218,18.3639,5.63603Q17.117800000000003,4.38992,15.5029,3.70685Q13.8317,3,12,3Q10.16831,3,8.497119999999999,3.70685Q6.88218,4.38992,5.63603,5.6360399999999995Q4.38992,6.88218,3.70685,8.497119999999999Q3,10.16831,3,12Q3,13.8317,3.70685,15.5029Q4.38991,17.117800000000003,5.6360399999999995,18.3639L5.63603,18.3639ZM4.22182,19.7782Q2.6998670000000002,18.2562,1.864846,16.282Q1,14.2373,1,12Q1,9.76274,1.864846,7.71801Q2.699864,5.74381,4.221830000000001,4.22182Q5.74381,2.699865,7.71801,1.864846Q9.76274,1,12,1Q14.2373,1,16.282,1.864846Q18.2562,2.6998670000000002,19.7782,4.221830000000001Q21.3001,5.74381,22.1351,7.71801Q23,9.76274,23,12Q23,14.2373,22.1351,16.282Q21.3001,18.2562,19.7782,19.7782Q18.2562,21.3001,16.282,22.1351Q14.2373,23,12,23Q9.76274,23,7.71801,22.1351Q5.74381,21.3001,4.221830000000001,19.7782L4.22182,19.7782Z" fill="currentColor" fill-opacity="1"/></g><g><path d="M8,9.312399864196777Q8,7.655549864196777,9.171575,6.483973864196777Q10.34315,5.312399864196777,12,5.312399864196777Q13.65685,5.312399864196777,14.82843,6.483974864196777Q16,7.655549864196777,16,9.312399864196777Q16,10.969249864196778,14.82843,12.140829864196778Q13.65685,13.312399864196777,12,13.312399864196777L12,12.312399864196777L13,12.312399864196777L13,14.312399864196777Q13,14.410889864196777,12.98078,14.507489864196778Q12.96157,14.604089864196776,12.92388,14.695079864196778Q12.88619,14.786079864196777,12.83147,14.867969864196777Q12.77675,14.949859864196778,12.70711,15.019509864196777Q12.63746,15.089149864196777,12.55557,15.143869864196777Q12.47368,15.198589864196776,12.38268,15.236279864196778Q12.29169,15.273969864196777,12.19509,15.293179864196777Q12.09849,15.312399864196777,12,15.312399864196777Q11.90151,15.312399864196777,11.80491,15.293179864196777Q11.70831,15.273969864196777,11.61732,15.236279864196778Q11.52632,15.198589864196776,11.44443,15.143869864196777Q11.36254,15.089149864196777,11.29289,15.019509864196777Q11.22325,14.949859864196778,11.16853,14.867969864196777Q11.11381,14.786079864196777,11.07612,14.695079864196778Q11.03843,14.604089864196776,11.019210000000001,14.507489864196778Q11,14.410889864196777,11,14.312399864196777L11,12.312399864196777Q11,12.213909864196777,11.019210000000001,12.117309864196777Q11.03843,12.020709864196778,11.07612,11.929719864196777Q11.11381,11.838719864196777,11.16853,11.756829864196778Q11.22325,11.674939864196777,11.29289,11.605289864196777Q11.36254,11.535649864196778,11.44443,11.480929864196778Q11.52632,11.426209864196778,11.61732,11.388519864196777Q11.70831,11.350829864196777,11.80491,11.331609864196778Q11.90151,11.312399864196777,12,11.312399864196777Q12.82842,11.312399864196777,13.41421,10.726609864196778Q14,10.140819864196777,14,9.312399864196777Q14,8.483979864196778,13.41421,7.898189864196778Q12.82842,7.312399864196777,12,7.312399864196777Q11.17158,7.312399864196777,10.58579,7.898189864196778Q10,8.483979864196778,10,9.312399864196777Q10,9.410889864196777,9.980785000000001,9.507489864196778Q9.96157,9.604089864196776,9.923879,9.695079864196778Q9.886188,9.786079864196777,9.83147,9.867969864196777Q9.776751,9.949859864196778,9.707107,10.019509864196777Q9.637463,10.089149864196777,9.55557,10.143869864196777Q9.473678,10.198589864196776,9.382683,10.236279864196778Q9.291689,10.273969864196777,9.19509,10.293179864196777Q9.0984914,10.312399864196777,9,10.312399864196777Q8.9015086,10.312399864196777,8.80491,10.293179864196777Q8.708311,10.273969864196777,8.617317,10.236279864196778Q8.526322,10.198589864196776,8.44443,10.143869864196777Q8.362537,10.089149864196777,8.292893,10.019509864196777Q8.223249,9.949859864196778,8.16853,9.867969864196777Q8.113812,9.786079864196777,8.076121,9.695079864196778Q8.03843,9.604089864196776,8.019214999999999,9.507489864196778Q8,9.410889864196777,8,9.312399864196777ZM10,9.312399864196777Q10,9.410889864196777,9.980785000000001,9.507489864196778Q9.96157,9.604089864196776,9.923879,9.695079864196778Q9.886188,9.786079864196777,9.83147,9.867969864196777Q9.776751,9.949859864196778,9.707107,10.019509864196777Q9.637463,10.089149864196777,9.55557,10.143869864196777Q9.473678,10.198589864196776,9.382683,10.236279864196778Q9.291689,10.273969864196777,9.19509,10.293179864196777Q9.0984914,10.312399864196777,9,10.312399864196777Q8.9015086,10.312399864196777,8.80491,10.293179864196777Q8.708311,10.273969864196777,8.617317,10.236279864196778Q8.526322,10.198589864196776,8.44443,10.143869864196777Q8.362537,10.089149864196777,8.292893,10.019509864196777Q8.223249,9.949859864196778,8.16853,9.867969864196777Q8.113812,9.786079864196777,8.076121,9.695079864196778Q8.03843,9.604089864196776,8.019214999999999,9.507489864196778Q8,9.410889864196777,8,9.312399864196777Q8,9.213909864196777,8.019214999999999,9.117309864196777Q8.03843,9.020709864196778,8.076121,8.929719864196777Q8.113812,8.838719864196777,8.16853,8.756829864196778Q8.223249,8.674939864196777,8.292893,8.605289864196777Q8.362537,8.535649864196778,8.44443,8.480929864196778Q8.526322,8.426209864196778,8.617317,8.388519864196777Q8.708311,8.350829864196777,8.80491,8.331609864196778Q8.9015086,8.312399864196777,9,8.312399864196777Q9.0984914,8.312399864196777,9.19509,8.331609864196778Q9.291689,8.350829864196777,9.382683,8.388519864196777Q9.473678,8.426209864196778,9.55557,8.480929864196778Q9.637463,8.535649864196778,9.707107,8.605289864196777Q9.776751,8.674939864196777,9.83147,8.756829864196778Q9.886188,8.838719864196777,9.923879,8.929719864196777Q9.96157,9.020709864196778,9.980785000000001,9.117309864196777Q10,9.213909864196777,10,9.312399864196777ZM13,14.312399864196777Q13,14.410889864196777,12.98078,14.507489864196778Q12.96157,14.604089864196776,12.92388,14.695079864196778Q12.88619,14.786079864196777,12.83147,14.867969864196777Q12.77675,14.949859864196778,12.70711,15.019509864196777Q12.63746,15.089149864196777,12.55557,15.143869864196777Q12.47368,15.198589864196776,12.38268,15.236279864196778Q12.29169,15.273969864196777,12.19509,15.293179864196777Q12.09849,15.312399864196777,12,15.312399864196777Q11.90151,15.312399864196777,11.80491,15.293179864196777Q11.70831,15.273969864196777,11.61732,15.236279864196778Q11.52632,15.198589864196776,11.44443,15.143869864196777Q11.36254,15.089149864196777,11.29289,15.019509864196777Q11.22325,14.949859864196778,11.16853,14.867969864196777Q11.11381,14.786079864196777,11.07612,14.695079864196778Q11.03843,14.604089864196776,11.019210000000001,14.507489864196778Q11,14.410889864196777,11,14.312399864196777Q11,14.213909864196777,11.019210000000001,14.117309864196777Q11.03843,14.020709864196778,11.07612,13.929719864196777Q11.11381,13.838719864196777,11.16853,13.756829864196778Q11.22325,13.674939864196777,11.29289,13.605289864196777Q11.36254,13.535649864196778,11.44443,13.480929864196778Q11.52632,13.426209864196778,11.61732,13.388519864196777Q11.70831,13.350829864196777,11.80491,13.331609864196778Q11.90151,13.312399864196777,12,13.312399864196777Q12.09849,13.312399864196777,12.19509,13.331619864196778Q12.29169,13.350829864196777,12.38268,13.388519864196777Q12.47368,13.426209864196778,12.55557,13.480929864196778Q12.63746,13.535649864196778,12.70711,13.605289864196777Q12.77675,13.674939864196777,12.83147,13.756829864196778Q12.88619,13.838719864196777,12.92388,13.929719864196777Q12.96157,14.020709864196778,12.98078,14.117309864196777Q13,14.213909864196777,13,14.312399864196777Z" fill="currentColor" fill-opacity="1"/></g><g><path d="M13.25,17.562400817871094Q13.25,17.623810817871092,13.24398,17.684920817871095Q13.237960000000001,17.746030817871095,13.22598,17.806260817871095Q13.214,17.866490817871092,13.19618,17.925260817871095Q13.17835,17.984020817871095,13.15485,18.040750817871093Q13.13135,18.097490817871094,13.1024,18.151650817871094Q13.07345,18.205800817871093,13.03934,18.256860817871093Q13.00522,18.307920817871093,12.96626,18.355390817871093Q12.92731,18.402860817871094,12.88388,18.446280817871095Q12.84046,18.489710817871092,12.79299,18.528660817871092Q12.745519999999999,18.567620817871095,12.69446,18.601740817871093Q12.6434,18.635850817871095,12.58925,18.664800817871093Q12.53509,18.693750817871095,12.47835,18.717250817871093Q12.42162,18.740750817871096,12.36286,18.758580817871092Q12.30409,18.776400817871092,12.24386,18.788380817871094Q12.18363,18.800360817871095,12.12252,18.806380817871094Q12.06141,18.812400817871094,12,18.812400817871094Q11.93859,18.812400817871094,11.87748,18.806380817871094Q11.81637,18.800360817871095,11.75614,18.788380817871094Q11.695908,18.776400817871092,11.637144,18.758580817871092Q11.57838,18.740750817871096,11.521646,18.717250817871093Q11.464912,18.693750817871095,11.410754,18.664800817871093Q11.356597,18.635850817871095,11.305537,18.601740817871093Q11.254478,18.567620817871095,11.207008,18.528660817871092Q11.159539,18.489710817871092,11.116116,18.446280817871095Q11.072694,18.402860817871094,11.033737,18.355390817871093Q10.99478,18.307920817871093,10.960663,18.256860817871093Q10.926546,18.205800817871093,10.897598,18.151650817871094Q10.868651,18.097490817871094,10.8451506,18.040750817871093Q10.8216505,17.984020817871095,10.8038246,17.925260817871095Q10.7859986,17.866490817871092,10.7740184,17.806260817871095Q10.7620382,17.746030817871095,10.75601909,17.684920817871095Q10.75,17.623810817871092,10.75,17.562400817871094Q10.75,17.500990817871095,10.75601909,17.439880817871092Q10.7620382,17.378770817871093,10.7740184,17.318540817871092Q10.7859986,17.258308817871093,10.8038246,17.199544817871093Q10.8216505,17.140780817871093,10.8451506,17.084046817871094Q10.868651,17.027312817871092,10.897598,16.973154817871094Q10.926546,16.918997817871094,10.960663,16.867937817871095Q10.99478,16.816878817871093,11.033737,16.769408817871092Q11.072694,16.721939817871093,11.116116,16.678516817871095Q11.159539,16.635094817871092,11.207008,16.596137817871092Q11.254478,16.557180817871092,11.305537,16.523063817871094Q11.356597,16.488946817871092,11.410754,16.459998817871092Q11.464912,16.431051817871094,11.521646,16.407551417871094Q11.57838,16.384051317871094,11.637144,16.366225417871092Q11.695908,16.348399417871093,11.75614,16.336419217871093Q11.81637,16.324439017871093,11.87748,16.318419907871093Q11.93859,16.312400817871094,12,16.312400817871094Q12.06141,16.312400817871094,12.12252,16.318419907871093Q12.18363,16.324439017871093,12.24386,16.336419217871093Q12.30409,16.348399417871093,12.36286,16.366225417871092Q12.42162,16.384051317871094,12.47835,16.407551417871094Q12.53509,16.431051817871094,12.58925,16.459998817871092Q12.6434,16.488946817871092,12.69446,16.523063817871094Q12.745519999999999,16.557180817871092,12.79299,16.596137817871092Q12.84046,16.635094817871092,12.88388,16.678516817871095Q12.92731,16.721939817871093,12.96626,16.769408817871092Q13.00522,16.816878817871093,13.03934,16.867937817871095Q13.07345,16.918997817871094,13.1024,16.973154817871094Q13.13135,17.027312817871092,13.15485,17.084046817871094Q13.17835,17.140780817871093,13.19618,17.199544817871093Q13.214,17.258308817871093,13.22598,17.318540817871092Q13.237960000000001,17.378770817871093,13.24398,17.439880817871092Q13.25,17.500990817871095,13.25,17.562400817871094Z" fill="currentColor" fill-stroke-opacity="1"/></g></g></svg>