<svg xmlns="http://www.w3.org/2000/svg" xmlns:xlink="http://www.w3.org/1999/xlink" fill="none" version="1.1" width="40" height="40" viewBox="0 0 40 40"><defs><clipPath id="master_svg0_291_0694"><rect x="0" y="0" width="40" height="40" rx="0"/></clipPath></defs><g clip-path="url(#master_svg0_291_0694)"><g><path d="M1.5,33L1.5,9Q1.5,7.964466,2.232233,7.232233Q2.964466,6.5,4,6.5L36,6.5Q37.0355,6.5,37.7678,7.232233Q38.5,7.964467,38.5,9L38.5,33Q38.5,34.0355,37.7678,34.7678Q37.0355,35.5,36,35.5L4,35.5Q2.964467,35.5,2.232233,34.7678Q1.5,34.0355,1.5,33ZM2.5,33Q2.5,33.621300000000005,2.93934,34.0607Q3.37868,34.5,4,34.5L36,34.5Q36.6213,34.5,37.0607,34.0607Q37.5,33.621300000000005,37.5,33L37.5,9Q37.5,8.37868,37.0607,7.93934Q36.6213,7.5,36,7.5L4,7.5Q3.37868,7.5,2.93934,7.93934Q2.5,8.37868,2.5,9L2.5,33Z" fill="currentColor" fill-opacity="1"/></g><g><path d="M20,21.5L38,21.5Q38.0492,21.5,38.0975,21.490393Q38.1458,21.480785,38.1913,21.46194Q38.2368,21.443094,38.2778,21.415735Q38.3187,21.388375,38.3536,21.353553Q38.388400000000004,21.318731,38.4157,21.277785Q38.4431,21.236839,38.4619,21.191342Q38.4808,21.145845,38.4904,21.0975451Q38.5,21.0492457,38.5,21Q38.5,20.9507543,38.4904,20.9024549Q38.4808,20.854155,38.4619,20.808658Q38.4431,20.763161,38.4157,20.722215Q38.388400000000004,20.681269,38.3536,20.646447Q38.3187,20.611625,38.2778,20.584265Q38.2368,20.556906,38.1913,20.53806Q38.1458,20.519215,38.0975,20.509607Q38.0492,20.5,38,20.5L20,20.5Q19.9507543,20.5,19.9024549,20.509607Q19.854155,20.519215,19.808658,20.53806Q19.763161,20.556906,19.722215,20.584265Q19.681269,20.611625,19.646447,20.646447Q19.611625,20.681269,19.584265,20.722215Q19.556906,20.763161,19.53806,20.808658Q19.519215,20.854155,19.509607,20.9024549Q19.5,20.9507543,19.5,21Q19.5,21.0492457,19.509607,21.0975451Q19.519215,21.145845,19.53806,21.191342Q19.556906,21.236839,19.584265,21.277785Q19.611625,21.318731,19.646447,21.353553Q19.681269,21.388375,19.722215,21.415735Q19.763161,21.443094,19.808658,21.46194Q19.854155,21.480785,19.9024549,21.490393Q19.9507543,21.5,20,21.5Z" fill-rule="evenodd" fill="currentColor" fill-opacity="1"/></g><g transform="matrix(0,-1,1,0,-15.00048828125,54.99951171875)"><path d="M19.99951171875,35.5L47.99951171875,35.5Q48.04871171875,35.5,48.09701171875,35.490393Q48.14531171875,35.480785,48.19081171875,35.46194Q48.23631171875,35.443094,48.27731171875,35.415735Q48.31821171875,35.388375,48.35311171875,35.353553Q48.387911718750004,35.318731,48.41521171875,35.277785Q48.44261171875,35.236839,48.46141171875,35.191342Q48.48031171875,35.145845,48.48991171875,35.0975451Q48.49951171875,35.0492457,48.49951171875,35Q48.49951171875,34.9507543,48.48991171875,34.9024549Q48.48031171875,34.854155,48.46141171875,34.808658Q48.44261171875,34.763161,48.41521171875,34.722215Q48.387911718750004,34.681269,48.35311171875,34.646447Q48.31821171875,34.611625,48.27731171875,34.584265Q48.23631171875,34.556906,48.19081171875,34.53806Q48.14531171875,34.519215,48.09701171875,34.509607Q48.04871171875,34.5,47.99951171875,34.5L19.99951171875,34.5Q19.95026601875,34.5,19.90196661875,34.509607Q19.85366671875,34.519215,19.80816971875,34.53806Q19.76267271875,34.556906,19.72172671875,34.584265Q19.68078071875,34.611625,19.64595871875,34.646447Q19.61113671875,34.681269,19.58377671875,34.722215Q19.55641771875,34.763161,19.53757171875,34.808658Q19.51872671875,34.854155,19.50911871875,34.9024549Q19.49951171875,34.9507543,19.49951171875,35Q19.49951171875,35.0492457,19.50911871875,35.0975451Q19.51872671875,35.145845,19.53757171875,35.191342Q19.55641771875,35.236839,19.58377671875,35.277785Q19.61113671875,35.318731,19.64595871875,35.353553Q19.68078071875,35.388375,19.72172671875,35.415735Q19.76267271875,35.443094,19.80816971875,35.46194Q19.85366671875,35.480785,19.90196661875,35.490393Q19.95026601875,35.5,19.99951171875,35.5Z" fill-rule="evenodd" fill="currentColor" fill-opacity="1"/></g></g></svg>
