<svg viewBox="0 0 24 24" fill="none" xmlns="http://www.w3.org/2000/svg">
  <defs>
    <clipPath id="a">
      <rect rx="0" height="24" width="24" />
    </clipPath>
  </defs>
  <g clip-path="url(#a)">
    <path fill="currentColor" fill-rule="evenodd"
      d="m7.1 15.8 2-1.5q.093-.07.168-.16.074-.089.126-.193.053-.104.08-.217.026-.114.026-.23v-.013q-.002-.159-.053-.31-.052-.15-.147-.277-.12-.16-.29-.26-.172-.102-.369-.13-.07-.01-.141-.01h-.003q-.162 0-.315.052-.153.051-.282.148l-1.434 1.075L3 11.465v-4.43l3.552-2.368L11 7.094V17q0 .13.033.255t.097.238q.064.112.154.205.09.093.201.16l5 3q.117.07.248.106.131.036.267.036t.267-.036q.13-.037.247-.106l5-3q.112-.067.202-.16.09-.093.154-.205.064-.113.097-.238Q23 17.13 23 17v-5q0-.123-.03-.243t-.088-.229q-.059-.109-.142-.2-.083-.092-.185-.16l-4.5-3q-.064-.043-.134-.075-.07-.033-.145-.054-.074-.021-.15-.031-.077-.01-.154-.008-.077.003-.153.016-.076.014-.148.04-.073.025-.141.061-.068.037-.13.083l-2 1.5q-.16.12-.26.29-.102.172-.13.369-.01.07-.01.141v.003q0 .162.052.315.051.153.148.282.07.093.16.168.089.074.193.126.104.053.217.08.114.026.23.026h.013q.159-.002.31-.053.15-.052.277-.147l1.434-1.075L21 12.535v3.899l-4 2.4-4-2.4V6.5q0-.135-.036-.265-.035-.13-.104-.245-.069-.116-.166-.21-.097-.093-.215-.158l-5.5-3q-.12-.065-.253-.096-.134-.031-.27-.025-.137.006-.267.049-.13.042-.244.118l-4.5 3q-.102.068-.185.16-.083.091-.142.2-.058.109-.088.229Q1 6.377 1 6.5V12q0 .123.03.243t.088.229q.059.109.142.2.083.092.185.16l4.5 3q.064.043.134.075.07.033.145.054.074.021.15.031.077.01.154.008t.153-.017q.076-.013.148-.039.073-.025.141-.062.068-.036.13-.082Z"
      data-follow-fill="currentColor" />
  </g>
</svg>