<svg xmlns="http://www.w3.org/2000/svg" xmlns:xlink="http://www.w3.org/1999/xlink" fill="none" version="1.1" width="24" height="24" viewBox="0 0 24 24"><defs><clipPath id="master_svg0_1_043"><rect x="0" y="0" width="24" height="24" rx="0"/></clipPath></defs><g clip-path="url(#master_svg0_1_043)"><g><ellipse cx="12" cy="12" rx="10" ry="10" fill-opacity="0" stroke-stroke-opacity="1" stroke="currentColor" fill="none" stroke-width="2"/></g><g style="mix-blend-mode:passthrough"><g><path d="M10.999999523162842,18L10.999999523162842,6Q10.999999523162842,5.9015086,11.019214523162841,5.80491Q11.038429523162842,5.708311,11.076120523162842,5.617317Q11.113811523162841,5.526322,11.168529523162842,5.44443Q11.223248523162841,5.362537,11.292892523162841,5.292893Q11.362536523162841,5.223249,11.444429523162842,5.16853Q11.526321523162842,5.113812,11.617316523162842,5.076121Q11.708310523162842,5.03843,11.804909523162841,5.019215Q11.901508123162841,5,11.999999523162842,5Q12.098490923162842,5,12.195089523162842,5.019215Q12.291688523162842,5.03843,12.382682523162842,5.076121Q12.473677523162841,5.113812,12.555569523162841,5.16853Q12.637462523162842,5.223249,12.707106523162842,5.292893Q12.776750523162843,5.362537,12.831469523162841,5.44443Q12.886187523162842,5.526322,12.923878523162841,5.617317Q12.961569523162842,5.708311,12.980784523162843,5.80491Q12.999999523162842,5.9015086,12.999999523162842,6L12.999999523162842,18Q12.999999523162842,18.0985,12.980784523162843,18.1951Q12.961569523162842,18.2917,12.923878523162841,18.3827Q12.886187523162842,18.4737,12.831469523162841,18.5556Q12.776750523162843,18.6375,12.707106523162842,18.7071Q12.637462523162842,18.776699999999998,12.555569523162841,18.8315Q12.473677523162841,18.886200000000002,12.382682523162842,18.9239Q12.291688523162842,18.9616,12.195089523162842,18.980800000000002Q12.098490923162842,19,11.999999523162842,19Q11.901508123162841,19,11.804909523162841,18.980800000000002Q11.708310523162842,18.9616,11.617316523162842,18.9239Q11.526321523162842,18.886200000000002,11.444429523162842,18.8315Q11.362536523162841,18.776699999999998,11.292892523162841,18.7071Q11.223248523162841,18.6375,11.168529523162842,18.5556Q11.113811523162841,18.4737,11.076120523162842,18.3827Q11.038429523162842,18.2917,11.019214523162841,18.1951Q10.999999523162842,18.0985,10.999999523162842,18ZM12.999999523162842,18Q12.999999523162842,18.0985,12.980784523162843,18.1951Q12.961569523162842,18.2917,12.923878523162841,18.3827Q12.886187523162842,18.4737,12.831469523162841,18.5556Q12.776750523162843,18.6375,12.707106523162842,18.7071Q12.637462523162842,18.776699999999998,12.555569523162841,18.8315Q12.473677523162841,18.886200000000002,12.382682523162842,18.9239Q12.291688523162842,18.9616,12.195089523162842,18.980800000000002Q12.098490923162842,19,11.999999523162842,19Q11.901508123162841,19,11.804909523162841,18.980800000000002Q11.708310523162842,18.9616,11.617316523162842,18.9239Q11.526321523162842,18.886200000000002,11.444429523162842,18.8315Q11.362536523162841,18.776699999999998,11.292892523162841,18.7071Q11.223248523162841,18.6375,11.168529523162842,18.5556Q11.113811523162841,18.4737,11.076120523162842,18.3827Q11.038429523162842,18.2917,11.019214523162841,18.1951Q10.999999523162842,18.0985,10.999999523162842,18Q10.999999523162842,17.9015,11.019214523162841,17.8049Q11.038429523162842,17.7083,11.076120523162842,17.6173Q11.113811523162841,17.5263,11.168529523162842,17.4444Q11.223248523162841,17.3625,11.292892523162841,17.2929Q11.362536523162841,17.2232,11.444429523162842,17.1685Q11.526321523162842,17.113799999999998,11.617316523162842,17.0761Q11.708310523162842,17.0384,11.804909523162841,17.019199999999998Q11.901508123162841,17,11.999999523162842,17Q12.098490923162842,17,12.195089523162842,17.019199999999998Q12.291688523162842,17.0384,12.382682523162842,17.0761Q12.473677523162841,17.113799999999998,12.555569523162841,17.1685Q12.637462523162842,17.2232,12.707106523162842,17.2929Q12.776750523162843,17.3625,12.831469523162841,17.4444Q12.886187523162842,17.5263,12.923878523162841,17.6173Q12.961569523162842,17.7083,12.980784523162843,17.8049Q12.999999523162842,17.9015,12.999999523162842,18ZM12.999999523162842,6Q12.999999523162842,6.0984914,12.980784523162843,6.19509Q12.961569523162842,6.291689,12.923878523162841,6.382683Q12.886187523162842,6.473678,12.831469523162841,6.55557Q12.776750523162843,6.637463,12.707106523162842,6.707107Q12.637462523162842,6.776751,12.555569523162841,6.83147Q12.473677523162841,6.886188,12.382682523162842,6.923879Q12.291688523162842,6.96157,12.195089523162842,6.980785Q12.098490923162842,7,11.999999523162842,7Q11.901508123162841,7,11.804909523162841,6.980785Q11.708310523162842,6.96157,11.617316523162842,6.923879Q11.526321523162842,6.886188,11.444429523162842,6.83147Q11.362536523162841,6.776751,11.292892523162841,6.707107Q11.223248523162841,6.637463,11.168529523162842,6.55557Q11.113811523162841,6.473678,11.076120523162842,6.382683Q11.038429523162842,6.291689,11.019214523162841,6.19509Q10.999999523162842,6.0984914,10.999999523162842,6Q10.999999523162842,5.9015086,11.019214523162841,5.80491Q11.038429523162842,5.708311,11.076120523162842,5.617317Q11.113811523162841,5.526322,11.168529523162842,5.44443Q11.223248523162841,5.362537,11.292892523162841,5.292893Q11.362536523162841,5.223249,11.444429523162842,5.16853Q11.526321523162842,5.113812,11.617316523162842,5.076121Q11.708310523162842,5.03843,11.804909523162841,5.019215Q11.901508123162841,5,11.999999523162842,5Q12.098490923162842,5,12.195089523162842,5.019215Q12.291688523162842,5.03843,12.382682523162842,5.076121Q12.473677523162841,5.113812,12.555569523162841,5.16853Q12.637462523162842,5.223249,12.707106523162842,5.292893Q12.776750523162843,5.362537,12.831469523162841,5.44443Q12.886187523162842,5.526322,12.923878523162841,5.617317Q12.961569523162842,5.708311,12.980784523162843,5.80491Q12.999999523162842,5.9015086,12.999999523162842,6Z" fill="currentColor" fill-stroke-opacity="1"/></g><g><path d="M10.76923,12.999999123420714Q9.24278,12.999999123420714,8.147777,12.029429123420716Q7,11.012079123420715,7,9.545459123420715Q7,8.078826123420715,8.147777,7.061478323420715Q9.24278,6.090909123420715,10.76923,6.090909123420715L15.38461,6.090909123420715Q15.48311,6.090909123420715,15.579699999999999,6.110124123420715Q15.676300000000001,6.129339123420715,15.767299999999999,6.167030123420715Q15.85829,6.204721123420716,15.94018,6.259439123420715Q16.022080000000003,6.314158123420715,16.091720000000002,6.383802123420716Q16.161360000000002,6.453446123420715,16.216079999999998,6.535339123420715Q16.2708,6.617231123420716,16.30849,6.708226123420715Q16.34618,6.7992201234207155,16.3654,6.895819123420715Q16.384610000000002,6.992417723420715,16.384610000000002,7.090909123420715Q16.384610000000002,7.189400523420716,16.3654,7.285999123420716Q16.34618,7.382598123420715,16.30849,7.473592123420715Q16.2708,7.564587123420715,16.216079999999998,7.646479123420716Q16.161360000000002,7.728372123420716,16.091720000000002,7.798016123420715Q16.022080000000003,7.867660123420715,15.94018,7.922379123420716Q15.85829,7.977097123420715,15.767299999999999,8.014788123420715Q15.676300000000001,8.052479123420715,15.579699999999999,8.071694123420716Q15.48311,8.090909123420715,15.38461,8.090909123420715L10.76923,8.090909123420715Q10.00156,8.090909123420715,9.47439,8.558169123420715Q9,8.978659123420716,9,9.545459123420715Q9,10.112249123420716,9.47439,10.532739123420715Q10.00156,10.999999123420714,10.76923,10.999999123420714Q10.86772,10.999999123420714,10.96432,11.019219123420715Q11.06092,11.038429123420716,11.15191,11.076119123420716Q11.24291,11.113809123420715,11.3248,11.168529123420715Q11.406690000000001,11.223249123420715,11.47634,11.292889123420714Q11.54598,11.362539123420715,11.6007,11.444429123420715Q11.65542,11.526319123420716,11.69311,11.617319123420716Q11.7308,11.708309123420715,11.75002,11.804909123420716Q11.76923,11.901509123420716,11.76923,11.999999123420714Q11.76923,12.098489123420716,11.75002,12.195089123420715Q11.7308,12.291689123420715,11.69311,12.382679123420715Q11.65542,12.473679123420716,11.6007,12.555569123420716Q11.54598,12.637459123420715,11.47634,12.707109123420715Q11.406690000000001,12.776749123420714,11.3248,12.831469123420716Q11.24291,12.886189123420715,11.15191,12.923879123420715Q11.06092,12.961569123420716,10.96432,12.980789123420715Q10.86772,12.999999123420714,10.76923,12.999999123420714ZM11.76923,11.999999123420714Q11.76923,12.098489123420716,11.75002,12.195089123420715Q11.7308,12.291689123420715,11.69311,12.382679123420715Q11.65542,12.473679123420716,11.6007,12.555569123420716Q11.54598,12.637459123420715,11.47634,12.707109123420715Q11.406690000000001,12.776749123420714,11.3248,12.831469123420716Q11.24291,12.886189123420715,11.15191,12.923879123420715Q11.06092,12.961569123420716,10.96432,12.980789123420715Q10.86772,12.999999123420714,10.76923,12.999999123420714Q10.67074,12.999999123420714,10.57414,12.980789123420715Q10.47754,12.961569123420716,10.38655,12.923879123420715Q10.29555,12.886189123420715,10.21366,12.831469123420716Q10.13177,12.776749123420714,10.06212,12.707109123420715Q9.99248,12.637459123420715,9.93776,12.555569123420716Q9.88304,12.473679123420716,9.84535,12.382679123420715Q9.80766,12.291689123420715,9.788450000000001,12.195089123420715Q9.76923,12.098489123420716,9.76923,11.999999123420714Q9.76923,11.901509123420716,9.788450000000001,11.804909123420716Q9.80766,11.708309123420715,9.84535,11.617319123420716Q9.88304,11.526319123420716,9.93776,11.444429123420715Q9.99248,11.362539123420715,10.06212,11.292889123420714Q10.13177,11.223249123420715,10.21366,11.168529123420715Q10.29555,11.113809123420715,10.38655,11.076119123420716Q10.47754,11.038429123420716,10.57414,11.019219123420715Q10.67074,10.999999123420714,10.76923,10.999999123420714Q10.86772,10.999999123420714,10.96432,11.019219123420715Q11.06092,11.038429123420716,11.15191,11.076119123420716Q11.24291,11.113809123420715,11.3248,11.168529123420715Q11.406690000000001,11.223249123420715,11.47634,11.292889123420714Q11.54598,11.362539123420715,11.6007,11.444429123420715Q11.65542,11.526319123420716,11.69311,11.617319123420716Q11.7308,11.708309123420715,11.75002,11.804909123420716Q11.76923,11.901509123420716,11.76923,11.999999123420714ZM16.384610000000002,7.090909123420715Q16.384610000000002,7.189400523420716,16.3654,7.285999123420716Q16.34618,7.382598123420715,16.30849,7.473592123420715Q16.2708,7.564587123420715,16.216079999999998,7.646479123420716Q16.161360000000002,7.728372123420716,16.091720000000002,7.798016123420715Q16.022080000000003,7.867660123420715,15.94018,7.922379123420716Q15.85829,7.977097123420715,15.767299999999999,8.014788123420715Q15.676300000000001,8.052479123420715,15.579699999999999,8.071694123420716Q15.48311,8.090909123420715,15.38461,8.090909123420715Q15.28612,8.090909123420715,15.18952,8.071694123420716Q15.092929999999999,8.052479123420715,15.00193,8.014788123420715Q14.91094,7.977097123420715,14.829039999999999,7.922379123420716Q14.747150000000001,7.867660123420715,14.67751,7.798016123420715Q14.607859999999999,7.728372123420716,14.553139999999999,7.646479123420716Q14.498429999999999,7.564587123420715,14.46073,7.473592123420715Q14.42304,7.382598123420715,14.40383,7.285999123420716Q14.38461,7.189400523420716,14.38461,7.090909123420715Q14.38461,6.992417723420715,14.40383,6.895819123420715Q14.42304,6.7992201234207155,14.46073,6.708226123420715Q14.498429999999999,6.617231123420716,14.553139999999999,6.535339123420715Q14.607859999999999,6.453446123420715,14.67751,6.383802123420716Q14.747150000000001,6.314158123420715,14.829039999999999,6.259439123420715Q14.91094,6.204721123420716,15.00193,6.167030123420715Q15.092929999999999,6.129339123420715,15.18952,6.110124123420715Q15.28612,6.090909123420715,15.38461,6.090909123420715Q15.48311,6.090909123420715,15.579699999999999,6.110124123420715Q15.676300000000001,6.129339123420715,15.767299999999999,6.167030123420715Q15.85829,6.204721123420716,15.94018,6.259439123420715Q16.022080000000003,6.314158123420715,16.091720000000002,6.383802123420716Q16.161360000000002,6.453446123420715,16.216079999999998,6.535339123420715Q16.2708,6.617231123420716,16.30849,6.708226123420715Q16.34618,6.7992201234207155,16.3654,6.895819123420715Q16.384610000000002,6.992417723420715,16.384610000000002,7.090909123420715Z" fill="currentColor" fill-stroke-opacity="1"/></g><g><path d="M10.769234578704834,11L13.230764578704834,11Q14.757224578704834,11,15.852224578704835,11.970569Q16.999994578704836,12.987917,16.999994578704836,14.45455Q16.999994578704836,15.92117,15.852224578704835,16.93852Q14.757224578704834,17.90909,13.230764578704834,17.90909L8.615384578704834,17.90909Q8.516893178704834,17.90909,8.420294578704834,17.889879999999998Q8.323695578704834,17.87066,8.232701578704834,17.83297Q8.141706578704834,17.795279999999998,8.059814578704835,17.740560000000002Q7.977921578704834,17.68584,7.908277578704834,17.6162Q7.838633578704834,17.54655,7.783914578704834,17.464660000000002Q7.729196578704834,17.38277,7.691505578704834,17.29177Q7.653814578704834,17.20078,7.634599578704834,17.10418Q7.615384578704834,17.00758,7.615384578704834,16.90909Q7.615384578704834,16.8106,7.634599578704834,16.714Q7.653814578704834,16.6174,7.691505578704834,16.52641Q7.729196578704834,16.43541,7.783914578704834,16.35352Q7.838633578704834,16.271630000000002,7.908277578704834,16.20198Q7.977921578704834,16.13234,8.059814578704835,16.07762Q8.141706578704834,16.0229,8.232701578704834,15.98521Q8.323695578704834,15.94752,8.420294578704834,15.92831Q8.516893178704834,15.909089999999999,8.615384578704834,15.909089999999999L13.230764578704834,15.909089999999999Q13.998434578704835,15.909089999999999,14.525604578704833,15.44183Q14.999994578704834,15.02134,14.999994578704834,14.45455Q14.999994578704834,13.88775,14.525604578704833,13.46726Q13.998434578704835,13,13.230764578704834,13L10.769234578704834,13Q10.670734578704835,13,10.574144578704834,12.980785000000001Q10.477544578704833,12.96157,10.386544578704834,12.923879Q10.295554578704834,12.886188,10.213664578704833,12.83147Q10.131764578704834,12.776751,10.062124578704834,12.707107Q9.992484578704834,12.637463,9.937764578704835,12.55557Q9.883044578704833,12.473678,9.845354578704834,12.382683Q9.807664578704834,12.291689,9.788444578704834,12.19509Q9.769234578704834,12.0984914,9.769234578704834,12Q9.769234578704834,11.9015086,9.788444578704834,11.80491Q9.807664578704834,11.708311,9.845354578704834,11.617317Q9.883044578704833,11.526322,9.937764578704835,11.44443Q9.992484578704834,11.362537,10.062124578704834,11.292893Q10.131764578704834,11.223249,10.213664578704833,11.16853Q10.295554578704834,11.113812,10.386544578704834,11.076121Q10.477544578704833,11.03843,10.574144578704834,11.019214999999999Q10.670734578704835,11,10.769234578704834,11ZM11.769234578704834,12Q11.769234578704834,12.0984914,11.750014578704834,12.19509Q11.730804578704834,12.291689,11.693114578704833,12.382683Q11.655414578704834,12.473678,11.600704578704834,12.55557Q11.545984578704834,12.637463,11.476334578704833,12.707107Q11.406694578704833,12.776751,11.324804578704834,12.83147Q11.242904578704835,12.886188,11.151914578704833,12.923879Q11.060924578704833,12.96157,10.964324578704833,12.980785000000001Q10.867724578704834,13,10.769234578704834,13Q10.670734578704835,13,10.574144578704834,12.980785000000001Q10.477544578704833,12.96157,10.386544578704834,12.923879Q10.295554578704834,12.886188,10.213664578704833,12.83147Q10.131764578704834,12.776751,10.062124578704834,12.707107Q9.992484578704834,12.637463,9.937764578704835,12.55557Q9.883044578704833,12.473678,9.845354578704834,12.382683Q9.807664578704834,12.291689,9.788444578704834,12.19509Q9.769234578704834,12.0984914,9.769234578704834,12Q9.769234578704834,11.9015086,9.788444578704834,11.80491Q9.807664578704834,11.708311,9.845354578704834,11.617317Q9.883044578704833,11.526322,9.937764578704835,11.44443Q9.992484578704834,11.362537,10.062124578704834,11.292893Q10.131764578704834,11.223249,10.213664578704833,11.16853Q10.295554578704834,11.113812,10.386544578704834,11.076121Q10.477544578704833,11.03843,10.574144578704834,11.019214999999999Q10.670734578704835,11,10.769234578704834,11Q10.867724578704834,11,10.964324578704833,11.019214999999999Q11.060924578704833,11.03843,11.151914578704833,11.076121Q11.242904578704835,11.113812,11.324804578704834,11.16853Q11.406694578704833,11.223249,11.476334578704833,11.292893Q11.545984578704834,11.362537,11.600704578704834,11.44443Q11.655414578704834,11.526322,11.693104578704833,11.617317Q11.730804578704834,11.708311,11.750014578704834,11.80491Q11.769234578704834,11.9015086,11.769234578704834,12ZM9.615384578704834,16.90909Q9.615384578704834,17.00758,9.596169578704835,17.10418Q9.576954578704834,17.20078,9.539263578704833,17.29177Q9.501572578704835,17.38277,9.446854578704833,17.464660000000002Q9.392135578704835,17.54655,9.322491578704835,17.6162Q9.252847578704834,17.68584,9.170954578704833,17.740560000000002Q9.089062578704834,17.795279999999998,8.998067578704834,17.83297Q8.907073578704834,17.87066,8.810474578704834,17.889879999999998Q8.713875978704834,17.90909,8.615384578704834,17.90909Q8.516893178704834,17.90909,8.420294578704834,17.889879999999998Q8.323695578704834,17.87066,8.232701578704834,17.83297Q8.141706578704834,17.795279999999998,8.059814578704835,17.740560000000002Q7.977921578704834,17.68584,7.908277578704834,17.6162Q7.838633578704834,17.54655,7.783914578704834,17.464660000000002Q7.729196578704834,17.38277,7.691505578704834,17.29177Q7.653814578704834,17.20078,7.634599578704834,17.10418Q7.615384578704834,17.00758,7.615384578704834,16.90909Q7.615384578704834,16.8106,7.634599578704834,16.714Q7.653814578704834,16.6174,7.691505578704834,16.52641Q7.729196578704834,16.43541,7.783914578704834,16.35352Q7.838633578704834,16.271630000000002,7.908277578704834,16.20198Q7.977921578704834,16.13234,8.059814578704835,16.07762Q8.141706578704834,16.0229,8.232701578704834,15.98521Q8.323695578704834,15.94752,8.420294578704834,15.92831Q8.516893178704834,15.909089999999999,8.615384578704834,15.909089999999999Q8.713875978704834,15.909089999999999,8.810474578704834,15.92831Q8.907073578704834,15.94752,8.998067578704834,15.98521Q9.089062578704834,16.0229,9.170954578704833,16.07762Q9.252847578704834,16.13234,9.322491578704835,16.20198Q9.392135578704835,16.271630000000002,9.446854578704833,16.35352Q9.501572578704835,16.43541,9.539263578704833,16.52641Q9.576954578704834,16.6174,9.596169578704835,16.714Q9.615384578704834,16.8106,9.615384578704834,16.90909Z" fill="currentColor" fill-stroke-opacity="1"/></g></g></g></svg>