<svg xmlns="http://www.w3.org/2000/svg" xmlns:xlink="http://www.w3.org/1999/xlink" fill="none" version="1.1" width="10.999733805656433" height="10.999733805656433" viewBox="0 0 10.999733805656433 10.999733805656433"><g transform="matrix(0,0.9999758005142212,-0.9999758005142212,0,10.999733805656433,-10.999467617754632)"><path d="M20.39684380565643,6.75Q20.429623805656433,6.80676,20.454703805656433,6.86732Q20.47978380565643,6.92787,20.496753805656432,6.99118Q20.513713805656433,7.05449,20.522273805656432,7.11947Q20.530823805656432,7.18446,20.530823805656432,7.25Q20.530823805656432,7.31554,20.522273805656432,7.38053Q20.513713805656433,7.44551,20.496753805656432,7.50882Q20.47978380565643,7.57213,20.454703805656433,7.63268Q20.429623805656433,7.69324,20.396853805656434,7.75Q20.36407380565643,7.80676,20.324173805656432,7.85876Q20.284273805656433,7.91076,20.237933805656432,7.95711Q20.191583805656435,8.00345,20.139583805656432,8.04335Q20.087583805656433,8.08325,20.030823805656432,8.11602Q19.974063805656435,8.1488,19.913503805656433,8.17388Q19.852953805656433,8.19896,19.789643805656432,8.21593Q19.72633380565643,8.23289,19.661353805656432,8.24145Q19.59636380565643,8.25,19.530823805656432,8.25L13.468643805656434,8.25Q13.403103805656432,8.25,13.338123805656434,8.24145Q13.273133805656434,8.23289,13.209823805656434,8.21593Q13.146513805656433,8.19896,13.085963805656434,8.17388Q13.025403805656433,8.1488,12.968643805656432,8.11602Q12.911883805656434,8.08325,12.859883805656434,8.04335Q12.807883805656433,8.00345,12.761533805656434,7.95711Q12.715193805656433,7.91076,12.675293805656434,7.85876Q12.635393805656433,7.80676,12.602623805656433,7.75Q12.569843805656433,7.69324,12.544763805656434,7.63268Q12.519683805656433,7.57213,12.502723805656434,7.50882Q12.485753805656433,7.44551,12.477203805656433,7.38053Q12.468643805656432,7.31554,12.468643805656432,7.25Q12.468643805656432,7.18446,12.477203805656433,7.11947Q12.485753805656433,7.05449,12.502723805656434,6.99118Q12.519683805656433,6.92787,12.544763805656434,6.86732Q12.569843805656433,6.80676,12.602623805656433,6.75L15.633703805656433,1.5Q15.666483805656434,1.44324,15.706383805656433,1.39124Q15.746283805656432,1.33924,15.792623805656433,1.29289Q15.838973805656433,1.24655,15.890973805656433,1.20665Q15.942973805656433,1.16675,15.999733805656433,1.13397Q16.056493805656434,1.1012,16.117053805656433,1.07612Q16.17760380565643,1.05104,16.240913805656433,1.03407Q16.304223805656434,1.01711,16.369203805656433,1.00856Q16.434193805656435,1,16.499733805656433,1Q16.56527380565643,1,16.630263805656433,1.00856Q16.695243805656432,1.01711,16.758553805656433,1.03407Q16.821863805656434,1.05104,16.882413805656434,1.07612Q16.942973805656433,1.1012,16.999733805656433,1.13397Q17.056493805656434,1.16675,17.108493805656433,1.20665Q17.160493805656433,1.24655,17.206843805656433,1.29289Q17.253183805656434,1.33924,17.293083805656433,1.39124Q17.332983805656433,1.44324,17.365763805656435,1.5L20.39684380565643,6.75Z" fill="currentColor" fill-opacity="1"/></g></svg>
