<?xml version="1.0" encoding="UTF-8"?>
<svg width="32px" height="15px" viewBox="0 0 32 15" version="1.1" xmlns="http://www.w3.org/2000/svg" xmlns:xlink="http://www.w3.org/1999/xlink">
    <title>进度条</title>
    <g id="图表器" stroke="none" stroke-width="1" fill="none" fill-rule="evenodd">
        <g id="统计图表/筛选" transform="translate(-139.000000, -400.000000)" fill-rule="nonzero">
            <g id="编组-38备份" transform="translate(21.000000, 74.000000)">
                <g id="shuipingjindutiao" transform="translate(118.000000, 326.000000)">
                    <path d="M3.20000002,15 C1.44000004,15 0,13.7203791 0,12.1563981 C0,10.5924171 1.44,9.31279623 3.20000002,9.31279623 L28.8,9.31279623 C30.56,9.31279623 32,10.5924171 32,12.1563981 C32,13.7203791 30.56,15 28.8,15 L3.20000002,15 Z" id="路径" fill="#1890FF"></path>
                    <path d="M9.44000002,5.97156399 C9.20000002,5.82938388 8.96000002,5.68720381 8.87999999,5.40284359 C8.79999997,5.11848338 8.63999999,4.8341232 8.63999999,4.47867299 L9.83999999,4.47867299 C9.83999999,4.69194313 9.91999998,4.83412324 10,4.97630331 C10.08,5.11848338 10.16,5.04739335 10.4,5.04739338 C10.56,5.04739338 10.72,4.97630334 10.8,4.90521327 C10.88,4.8341232 10.96,4.69194313 10.96,4.47867299 L10.96,3.55450238 C10.96,3.41232228 10.88,3.2701422 10.8,3.19905214 C10.72,3.12796207 10.56,3.05687203 10.48,3.05687203 C10.32,3.05687203 10.24,3.05687203 10.16,3.1279621 C10.08,3.19905217 10,3.2701422 10,3.41232228 L8.80000001,3.41232228 L8.80000001,0 L12,0 L12,1.06635071 L9.92000002,1.06635071 L9.92000002,2.20379146 C10,2.13270142 10.16,2.06161135 10.24,1.99052132 C10.32,1.91943128 10.56,1.91943128 10.64,1.91943128 C10.96,1.91943128 11.2,1.99052132 11.36,2.13270142 C11.52,2.27488153 11.76,2.4170616 11.84,2.70142181 C11.92,2.91469196 12,3.19905214 12,3.55450238 L12,4.47867299 C12,4.83412324 11.92,5.11848342 11.76,5.33175356 C11.6,5.5450237 11.44,5.75829384 11.12,5.90047395 C10.8,6.04265406 10.56,6.11374409 10.16,6.11374409 C10,6.11374409 9.68000002,6.04265406 9.44000002,5.97156399 L9.44000002,5.97156399 Z M13.6,5.68720381 C13.28,5.40284363 13.12,5.04739338 13.12,4.54976303 L13.12,1.56398103 C13.12,1.06635071 13.28,0.639810427 13.6,0.426540285 C13.92,0.213270142 14.32,0 14.96,0 C15.6,0 16,0.142180106 16.32,0.426540285 C16.64,0.710900463 16.8,1.06635071 16.8,1.56398103 L16.8,4.54976303 C16.8,5.04739335 16.64,5.47393363 16.32,5.75829384 C16,6.04265406 15.6,6.18483413 14.96,6.18483413 C14.4,6.11374409 13.92,5.97156399 13.6,5.68720381 Z M15.44,4.90521327 C15.52,4.76303317 15.6,4.6208531 15.6,4.40758295 L15.6,1.70616114 C15.6,1.492891 15.52,1.35071089 15.44,1.20853082 C15.36,1.06635071 15.2,1.06635071 15.04,1.06635071 C14.88,1.06635071 14.72,1.13744075 14.56,1.20853082 C14.4,1.27962089 14.4,1.492891 14.4,1.70616114 L14.4,4.40758295 C14.4,4.6208531 14.48,4.7630332 14.56,4.90521327 C14.64,5.04739338 14.8,5.04739338 14.96,5.04739338 C15.12,5.04739338 15.28,5.04739338 15.44,4.90521327 Z M18.08,2.34597157 C17.92,2.13270142 17.76,1.91943128 17.76,1.56398103 L17.76,1.06635071 C17.76,0.710900463 17.84,0.497630321 18.08,0.284360179 C18.32,0.0710900363 18.56,0 18.88,0 C19.2,0 19.52,0.0710900363 19.68,0.284360179 C19.84,0.497630321 20,0.710900463 20,1.06635071 L20,1.56398103 C20,1.91943128 19.92,2.13270142 19.68,2.34597157 C19.44,2.55924171 19.2,2.63033174 18.88,2.63033174 C18.56,2.63033174 18.24,2.48815164 18.08,2.34597157 Z M19.28,1.99052132 C19.36,1.91943128 19.44,1.77725118 19.44,1.56398103 L19.44,0.924170606 C19.44,0.7819905 19.36,0.639810427 19.28,0.568720391 C19.2,0.497630354 19.04,0.426540285 18.88,0.426540285 C18.72,0.426540285 18.56,0.497630321 18.48,0.568720391 C18.4,0.63981046 18.32,0.781990533 18.32,0.924170606 L18.32,1.56398103 C18.32,1.70616114 18.4,1.84834121 18.48,1.99052132 C18.56,2.13270142 18.72,2.13270142 18.88,2.13270142 C19.04,2.13270142 19.2,2.06161139 19.28,1.99052132 Z M22,0 L22.64,0 L18.96,6.04265402 L18.4,6.04265402 L22,0 L22,0 Z M21.44,5.82938388 C21.28,5.61611374 21.12,5.40284359 21.12,5.04739338 L21.12,4.54976303 C21.12,4.19431278 21.2,3.98104263 21.44,3.76777253 C21.68,3.55450242 21.92,3.48341231 22.24,3.48341231 C22.56,3.48341231 22.88,3.55450235 23.04,3.76777253 C23.2,3.9810427 23.36,4.19431281 23.36,4.54976303 L23.36,5.04739338 C23.36,5.40284363 23.28,5.61611377 23.04,5.82938388 C22.7999999,6.04265399 22.56,6.11374409 22.24,6.11374409 C21.92,6.11374409 21.6,6.04265406 21.44,5.82938388 Z M22.64,5.47393366 C22.72,5.40284363 22.8,5.26066352 22.8,5.04739338 L22.8,4.40758295 C22.8,4.26540285 22.72,4.12322277 22.64,4.0521327 C22.56,3.98104263 22.4,3.9099526 22.24,3.9099526 C22.08,3.9099526 21.92,3.98104263 21.84,4.0521327 C21.76,4.12322277 21.68,4.26540285 21.68,4.40758295 L21.68,5.04739338 C21.68,5.18957349 21.76,5.33175356 21.84,5.47393366 C21.92,5.61611374 22.08,5.61611374 22.24,5.61611374 C22.4,5.61611374 22.56,5.61611374 22.64,5.47393366 Z M14.4,15 L3.20000002,15 C1.44000004,15 0,13.7203791 0,12.1563981 C0,10.5924171 1.44,9.31279623 3.20000002,9.31279623 L14.4,9.31279623 C16.16,9.31279623 17.6,10.5924171 17.6,12.1563981 C17.6,13.7203791 16.16,15 14.4,15 L14.4,15 Z" id="形状" fill="#00B42A"></path>
                </g>
            </g>
        </g>
    </g>
</svg>