<svg xmlns="http://www.w3.org/2000/svg" xmlns:xlink="http://www.w3.org/1999/xlink" fill="none" version="1.1" width="40" height="40" viewBox="0 0 40 40"><defs><clipPath id="master_svg0_291_0654"><rect x="0" y="0" width="40" height="40" rx="0"/></clipPath></defs><g clip-path="url(#master_svg0_291_0654)"><g><path d="M1.5,33L1.5,9Q1.5,7.964466,2.232233,7.232233Q2.964466,6.5,4,6.5L36,6.5Q37.0355,6.5,37.7678,7.232233Q38.5,7.964467,38.5,9L38.5,33Q38.5,34.0355,37.7678,34.7678Q37.0355,35.5,36,35.5L4,35.5Q2.964467,35.5,2.232233,34.7678Q1.5,34.0355,1.5,33ZM2.5,33Q2.5,33.621300000000005,2.93934,34.0607Q3.37868,34.5,4,34.5L36,34.5Q36.6213,34.5,37.0607,34.0607Q37.5,33.621300000000005,37.5,33L37.5,9Q37.5,8.37868,37.0607,7.93934Q36.6213,7.5,36,7.5L4,7.5Q3.37868,7.5,2.93934,7.93934Q2.5,8.37868,2.5,9L2.5,33Z" fill="currentColor" fill-opacity="1"/></g></g></svg>
