<?xml version="1.0" encoding="utf-8"?>
<!-- Generator: Adobe Illustrator 24.3.0, SVG Export Plug-In . SVG Version: 6.00 Build 0)  -->
<svg version="1.1" id="图层_1" xmlns="http://www.w3.org/2000/svg" xmlns:xlink="http://www.w3.org/1999/xlink" x="0px" y="0px"
	 viewBox="0 0 40 40" style="enable-background:new 0 0 40 40;" xml:space="preserve">
<style type="text/css">
	.st0{clip-path:url(#SVGID_2_);}
	.st1{fill-rule:evenodd;clip-rule:evenodd;}
</style>
<g>
	<defs>
		<rect id="SVGID_1_" width="40" height="40"/>
	</defs>
	<clipPath id="SVGID_2_">
		<use xlink:href="#SVGID_1_"  style="overflow:visible;"/>
	</clipPath>
	<g class="st0">
		<path d="M1.5,33V9c0-0.7,0.2-1.3,0.7-1.8S3.3,6.5,4,6.5h32c0.7,0,1.3,0.2,1.8,0.7c0.5,0.5,0.7,1.1,0.7,1.8v24
			c0,0.7-0.2,1.3-0.7,1.8c-0.5,0.5-1.1,0.7-1.8,0.7H4c-0.7,0-1.3-0.2-1.8-0.7C1.7,34.3,1.5,33.7,1.5,33z M2.5,33
			c0,0.4,0.1,0.8,0.4,1.1c0.3,0.3,0.6,0.4,1.1,0.4h32c0.4,0,0.8-0.1,1.1-0.4c0.3-0.3,0.4-0.6,0.4-1.1V9c0-0.4-0.1-0.8-0.4-1.1
			c-0.3-0.3-0.6-0.4-1.1-0.4H4c-0.4,0-0.8,0.1-1.1,0.4C2.6,8.2,2.5,8.6,2.5,9V33z"/>
		<g>
			<path class="st1" d="M14.5,35.1V6.9c0,0,0-0.1,0-0.1c0,0,0,0,0-0.1c0,0,0,0,0-0.1c0,0,0,0-0.1-0.1c0,0,0,0-0.1,0c0,0-0.1,0-0.1,0
				c0,0-0.1,0-0.1,0c0,0-0.1,0-0.1,0s-0.1,0-0.1,0c0,0-0.1,0-0.1,0c0,0-0.1,0-0.1,0c0,0-0.1,0-0.1,0c0,0,0,0-0.1,0.1c0,0,0,0,0,0.1
				c0,0,0,0,0,0.1c0,0,0,0.1,0,0.1v28.2c0,0,0,0.1,0,0.1s0,0,0,0.1s0,0,0,0.1c0,0,0,0,0.1,0.1s0,0,0.1,0c0,0,0.1,0,0.1,0
				c0,0,0.1,0,0.1,0s0.1,0,0.1,0s0.1,0,0.1,0s0.1,0,0.1,0c0,0,0.1,0,0.1,0c0,0,0.1,0,0.1,0s0,0,0.1-0.1c0,0,0,0,0-0.1
				C14.5,35.2,14.5,35.2,14.5,35.1C14.5,35.2,14.5,35.1,14.5,35.1z"/>
		</g>
	</g>
</g>
</svg>
