<svg viewBox="0 0 14 14.334" fill="none" xmlns="http://www.w3.org/2000/svg"><path fill="#1B2129" fill-rule="evenodd" d="M8.113 2.22q1.22 1.22 1.22 2.947h1q0-2.14-1.513-3.654Q7.307 0 5.167 0T1.513 1.513Q0 3.027 0 5.167q0 2.14 1.513 3.653 1.514 1.513 3.654 1.513v-1q-1.726 0-2.947-1.22Q1 6.893 1 5.167 1 3.44 2.22 2.22 3.44 1 5.167 1q1.726 0 2.946 1.22Z" data-follow-fill="#1B2129"/><path fill="#1B2129" fill-rule="evenodd" d="M4.333 13.833V5.167q0-.05.01-.098t.028-.094q.02-.045.047-.086.027-.041.062-.076.035-.035.076-.062.04-.027.086-.046.045-.02.094-.029.048-.01.097-.01H13.5q.05 0 .098.01t.093.029q.046.019.087.046.04.027.076.062.034.035.062.076.027.04.046.086.019.046.028.094.01.048.01.098v8.666q0 .05-.01.098t-.028.094q-.019.045-.046.086-.028.041-.062.076-.035.035-.076.062-.041.027-.087.046-.045.02-.093.029-.049.01-.098.01H4.833q-.049 0-.097-.01-.049-.01-.094-.029-.046-.019-.086-.046-.041-.027-.076-.062-.035-.035-.062-.076-.028-.04-.047-.086-.018-.046-.028-.094-.01-.048-.01-.098ZM13 5.667H5.333v7.666H13V5.667Z" data-follow-fill="#1B2129"/></svg>