<?xml version="1.0" encoding="UTF-8"?>
<svg width="46px" height="46px" viewBox="0 0 46 46" version="1.1" xmlns="http://www.w3.org/2000/svg" xmlns:xlink="http://www.w3.org/1999/xlink">
    <title>仪表盘</title>
    <defs>
        <rect id="path-1" x="0" y="0" width="44" height="44" rx="3"></rect>
    </defs>
    <g id="图表器" stroke="none" stroke-width="1" fill="none" fill-rule="evenodd">
        <g id="统计图表/筛选" transform="translate(-202.000000, -298.000000)">
            <g id="仪表盘" transform="translate(203.000000, 299.000000)">
                <mask id="mask-2" fill="white">
                    <use xlink:href="#path-1"></use>
                </mask>
                <use id="组-457备份-32" stroke="#DCDEE0" stroke-dasharray="2" fill-rule="nonzero" xlink:href="#path-1"></use>
                <g transform="translate(10.000000, 13.000000)" fill-rule="nonzero" id="fsux_tubiao_yibiaopan">
                    <g>
                        <path d="M7.41071639,15.5617438 C6.69641806,14.6107727 6.25,13.4004174 6.25,12.1035816 C6.25,8.73189994 9.01785084,6.05180507 12.5,6.05180507 C15.9821492,6.05180507 18.75,8.73189994 18.75,12.1035816 C18.75,13.4004174 18.3035819,14.6107727 17.5892836,15.5617438 L19.1964475,16.3398395 C20,15.1294842 20.5357017,13.6597731 20.5357017,12.1035816 C20.5357017,7.78090038 16.9642983,4.32273826 12.5,4.32273826 C8.03570167,4.32273826 4.4642689,7.78090038 4.4642689,12.1035532 C4.4642689,13.6597446 4.91068696,15.1294557 5.80355251,16.3398395 L7.41071639,15.5617153 L7.41071639,15.5617438 Z" id="路径" fill="#00B42A"></path>
                        <path d="M4.19641806,17.2043872 C3.2142689,15.7346476 2.6785378,14.0056093 2.6785378,12.1036101 C2.6785378,6.82990081 7.05355251,2.59364296 12.5,2.59364296 C17.9464475,2.59364296 22.3214328,6.82990081 22.3214328,12.1035816 C22.3214328,14.0055808 21.7857311,15.7346761 20.8035525,17.2043587 L23.1250147,18.4147425 C24.2857311,16.5991952 25,14.4378119 25,12.1035532 C25,5.44661317 19.3750147,0 12.5,0 C5.62498529,0 0,5.44664166 0,12.1035816 C0,14.4378404 0.714268898,16.5991952 1.87498529,18.4147425 L4.19641806,17.2043872 L4.19641806,17.2043872 Z" id="路径" fill="#1890FF"></path>
                        <path d="M14.1964181,17.7230986 C14.4642983,16.7720991 15,8.12670804 15,8.12670804 C15,8.12670804 10.9821492,15.9075799 10.7143278,16.8585795 C10.4464475,17.8095506 10.9821786,18.7605786 11.9643278,18.933454 C12.9464475,19.1928382 13.9286261,18.6740982 14.1964475,17.7230986 L14.1964181,17.7230986 Z" id="路径" fill="#00B42A"></path>
                    </g>
                </g>
            </g>
        </g>
    </g>
</svg>