<svg xmlns="http://www.w3.org/2000/svg" xmlns:xlink="http://www.w3.org/1999/xlink" fill="none" version="1.1" width="24" height="24" viewBox="0 0 24 24"><defs><linearGradient x1="0.5" y1="-0.7227672338485718" x2="0.5" y2="0.8914434313774109" id="master_svg0_0_118116"><stop offset="0%" stop-color="#FFD03E" stop-opacity="1"/><stop offset="100%" stop-color="#FAA209" stop-opacity="1"/></linearGradient><filter id="master_svg1_211_87669" filterUnits="objectBoundingBox" color-interpolation-filters="sRGB" x="-3.200000286102295" y="-2.800000250339508" width="18.40017032623291" height="19.599727630615234"><feFlood flood-opacity="0" result="BackgroundImageFix"/><feColorMatrix in="SourceAlpha" type="matrix" values="0 0 0 0 0 0 0 0 0 0 0 0 0 0 0 0 0 0 127 0"/><feOffset dy="0.40000003576278687" dx="0"/><feGaussianBlur stdDeviation="0.8000000715255737"/><feColorMatrix type="matrix" values="0 0 0 0 0.8941176533699036 0 0 0 0 0.48235294222831726 0 0 0 0 0 0 0 0 1 0"/><feBlend mode="normal" in2="BackgroundImageFix" result="effect1_dropShadow"/><feBlend mode="normal" in="SourceGraphic" in2="effect1_dropShadow" result="shape"/></filter><filter id="master_svg2_211_87670" filterUnits="objectBoundingBox" color-interpolation-filters="sRGB" x="-5.599999904632568" y="-5.1999998688697815" width="23.200169563293457" height="23.032933235168457"><feFlood flood-opacity="0" result="BackgroundImageFix"/><feColorMatrix in="SourceAlpha" type="matrix" values="0 0 0 0 0 0 0 0 0 0 0 0 0 0 0 0 0 0 127 0"/><feOffset dy="0.40000003576278687" dx="0"/><feGaussianBlur stdDeviation="1.399999976158142"/><feColorMatrix type="matrix" values="0 0 0 0 0.9523465633392334 0 0 0 0 0.5740108489990234 0 0 0 0 0.12718331813812256 0 0 0 1 0"/><feBlend mode="normal" in2="BackgroundImageFix" result="effect1_dropShadow"/><feBlend mode="normal" in="SourceGraphic" in2="effect1_dropShadow" result="shape"/></filter><mask id="master_svg3_211_87671"><g><path d="M14.44612263015747,6.788420229682923L14.44612263015747,7.595682729682922Q14.44612263015747,7.676136729682923,14.461812630157471,7.755044729682922Q14.47751263015747,7.833957729682922,14.508302630157472,7.908287729682923Q14.539092630157471,7.982617729682922,14.58378263015747,8.049507729682922Q14.628482630157471,8.116407729682923,14.68537263015747,8.173297729682922Q14.742262630157471,8.230187729682923,14.80916263015747,8.274877729682922Q14.87605263015747,8.319577729682923,14.95038263015747,8.350367729682922Q15.02471263015747,8.381157729682922,15.10362263015747,8.396857729682923Q15.182532630157471,8.412547729682922,15.26299263015747,8.412547729682922Q15.34344263015747,8.412547729682922,15.422352630157471,8.396857729682923Q15.50126263015747,8.381157729682922,15.575592630157471,8.350367729682922Q15.649922630157471,8.319577729682923,15.71681263015747,8.274877729682922Q15.78371263015747,8.230187729682923,15.84060263015747,8.173297729682922Q15.89749263015747,8.116407729682923,15.94218263015747,8.049507729682922Q15.98688263015747,7.982617729682922,16.017632630157472,7.908287729682923Q16.04843263015747,7.833957729682922,16.06413263015747,7.755044729682922Q16.07983263015747,7.676136729682923,16.07983263015747,7.595682729682922L16.07983263015747,6.799893829682922C16.47423263015747,6.802489629682922,16.777932630157473,6.804131829682922,16.955132630157472,6.804131829682922C18.13273263015747,6.804131829682922,18.00533263015747,8.135347729682923,17.98723263015747,8.324987729682922L17.98723263015747,8.324997729682922C17.98583263015747,8.339457729682923,17.98503263015747,8.347267729682923,17.98563263015747,8.347357729682923L17.98563263015747,9.137807729682923L6.00493116015747,9.137807729682923L6.00493116015747,8.347357729682923C6.004875980157471,8.347357729682923,5.87683763015747,6.888209729682923,6.907419630157471,6.804131829682922C7.108882630157471,6.787696029682922,7.56708263015747,6.777686129682922,8.183422630157471,6.772217759682922L8.183422630157471,7.595682729682922Q8.183422630157471,7.676136729682923,8.19912263015747,7.755044729682922Q8.214822630157471,7.833957729682922,8.245602630157471,7.908287729682923Q8.27639263015747,7.982617729682922,8.321092630157471,8.049507729682922Q8.36579263015747,8.116407729682923,8.422682630157471,8.173297729682922Q8.47957263015747,8.230187729682923,8.546462630157471,8.274877729682922Q8.613362630157472,8.319577729682923,8.687692630157471,8.350367729682922Q8.762022630157471,8.381157729682922,8.840932630157472,8.396857729682923Q8.91984263015747,8.412547729682922,9.000292630157471,8.412547729682922Q9.08074263015747,8.412547729682922,9.15965263015747,8.396857729682923Q9.238562630157471,8.381157729682922,9.31289263015747,8.350367729682922Q9.38722263015747,8.319577729682923,9.454122630157471,8.274877729682922Q9.521012630157472,8.230187729682923,9.577902630157471,8.173297729682922Q9.63479263015747,8.116407729682923,9.67949263015747,8.049507729682922Q9.724192630157471,7.982617729682922,9.754982630157471,7.908287729682923Q9.78577263015747,7.833957729682922,9.80146263015747,7.755044729682922Q9.81716263015747,7.676136729682923,9.81716263015747,7.595682729682922L9.81716263015747,6.766791480082922C11.28272263015747,6.767415895682922,13.02808263015747,6.778492629682923,14.44612263015747,6.788420229682923ZM6.00493116015747,9.942967729682923L17.98563263015747,9.942967729682923L17.98563263015747,17.056547729682922C17.98563263015747,17.907247729682922,17.28233263015747,18.599747729682925,16.418132630157473,18.599747729682925L7.572362630157471,18.599747729682925C6.708232630157471,18.599747729682925,6.00493116015747,17.907247729682922,6.00493116015747,17.056547729682922L6.00493116015747,9.942967729682923ZM8.10268263015747,16.507167729682923L11.65365263015747,16.507167729682923L11.65365263015747,15.620957729682923L10.50101263015747,15.620957729682923C10.257602630157471,15.620957729682923,9.90680263015747,15.649547729682922,9.64191263015747,15.678137729682922C10.608402630157471,14.734747729682923,11.403072630157471,13.705607729682923,11.403072630157471,12.747927729682923C11.403072630157471,11.761667729682923,10.73727263015747,11.118447729682924,9.734982630157472,11.118447729682924C9.01190263015747,11.118447729682924,8.53939263015747,11.404317729682923,8.052562630157471,11.918897729682921L8.62530263015747,12.490637729682923C8.89019263015747,12.197617729682921,9.212362630157472,11.947477729682923,9.59895263015747,11.947477729682923C10.10010263015747,11.947477729682923,10.39363263015747,12.269087729682923,10.39363263015747,12.805107729682923C10.39363263015747,13.619847729682922,9.54168263015747,14.613257729682921,8.10268263015747,15.899687729682922L8.10268263015747,16.507167729682923ZM15.397902630157471,14.334527729682922L16.027932630157473,14.334527729682922L16.027932630157473,15.134977729682923L15.397902630157471,15.134977729682923L15.397902630157471,16.507167729682923L14.417092630157471,16.507167729682923L14.417092630157471,15.134977729682923L12.161942630157471,15.134977729682923L12.161942630157471,14.420287729682922L14.13788263015747,11.218507729682923L15.397902630157471,11.218507729682923L15.397902630157471,14.334527729682922ZM14.008692630157471,13.019507729682921L13.18538263015747,14.334527729682922L14.416762630157471,14.334527729682922L14.416762630157471,13.255357729682922C14.416762630157471,12.948037729682923,14.44540263015747,12.469197729682922,14.45972263015747,12.161887729682922L14.431082630157471,12.161887729682922C14.30221263015747,12.440617729682923,14.159032630157471,12.733637729682922,14.008692630157471,13.019507729682921Z" fill-rule="evenodd" fill="#FFFFFF" fill-opacity="1"/></g></mask><linearGradient x1="0.5" y1="0" x2="0.5" y2="1" id="master_svg4_0_118122"><stop offset="0%" stop-color="#FFCD93" stop-opacity="1"/><stop offset="100%" stop-color="#FFFFFF" stop-opacity="1"/></linearGradient></defs><g><g><rect x="0" y="0" width="24" height="24" rx="4" fill="url(#master_svg0_0_118116)" fill-opacity="1"/></g><g filter="url(#master_svg1_211_87669)"><g filter="url(#master_svg2_211_87670)" mask="url(#master_svg3_211_87671)"><g><path d="M14.44612263015747,6.788420229682923L14.44612263015747,7.595682729682922Q14.44612263015747,7.676136729682923,14.461812630157471,7.755044729682922Q14.47751263015747,7.833957729682922,14.508302630157472,7.908287729682923Q14.539092630157471,7.982617729682922,14.58378263015747,8.049507729682922Q14.628482630157471,8.116407729682923,14.68537263015747,8.173297729682922Q14.742262630157471,8.230187729682923,14.80916263015747,8.274877729682922Q14.87605263015747,8.319577729682923,14.95038263015747,8.350367729682922Q15.02471263015747,8.381157729682922,15.10362263015747,8.396857729682923Q15.182532630157471,8.412547729682922,15.26299263015747,8.412547729682922Q15.34344263015747,8.412547729682922,15.422352630157471,8.396857729682923Q15.50126263015747,8.381157729682922,15.575592630157471,8.350367729682922Q15.649922630157471,8.319577729682923,15.71681263015747,8.274877729682922Q15.78371263015747,8.230187729682923,15.84060263015747,8.173297729682922Q15.89749263015747,8.116407729682923,15.94218263015747,8.049507729682922Q15.98688263015747,7.982617729682922,16.017632630157472,7.908287729682923Q16.04843263015747,7.833957729682922,16.06413263015747,7.755044729682922Q16.07983263015747,7.676136729682923,16.07983263015747,7.595682729682922L16.07983263015747,6.799893829682922C16.47423263015747,6.802489629682922,16.777932630157473,6.804131829682922,16.955132630157472,6.804131829682922C18.13273263015747,6.804131829682922,18.00533263015747,8.135347729682923,17.98723263015747,8.324987729682922L17.98723263015747,8.324997729682922C17.98583263015747,8.339457729682923,17.98503263015747,8.347267729682923,17.98563263015747,8.347357729682923L17.98563263015747,9.137807729682923L6.00493116015747,9.137807729682923L6.00493116015747,8.347357729682923C6.004875980157471,8.347357729682923,5.87683763015747,6.888209729682923,6.907419630157471,6.804131829682922C7.108882630157471,6.787696029682922,7.56708263015747,6.777686129682922,8.183422630157471,6.772217759682922L8.183422630157471,7.595682729682922Q8.183422630157471,7.676136729682923,8.19912263015747,7.755044729682922Q8.214822630157471,7.833957729682922,8.245602630157471,7.908287729682923Q8.27639263015747,7.982617729682922,8.321092630157471,8.049507729682922Q8.36579263015747,8.116407729682923,8.422682630157471,8.173297729682922Q8.47957263015747,8.230187729682923,8.546462630157471,8.274877729682922Q8.613362630157472,8.319577729682923,8.687692630157471,8.350367729682922Q8.762022630157471,8.381157729682922,8.840932630157472,8.396857729682923Q8.91984263015747,8.412547729682922,9.000292630157471,8.412547729682922Q9.08074263015747,8.412547729682922,9.15965263015747,8.396857729682923Q9.238562630157471,8.381157729682922,9.31289263015747,8.350367729682922Q9.38722263015747,8.319577729682923,9.454122630157471,8.274877729682922Q9.521012630157472,8.230187729682923,9.577902630157471,8.173297729682922Q9.63479263015747,8.116407729682923,9.67949263015747,8.049507729682922Q9.724192630157471,7.982617729682922,9.754982630157471,7.908287729682923Q9.78577263015747,7.833957729682922,9.80146263015747,7.755044729682922Q9.81716263015747,7.676136729682923,9.81716263015747,7.595682729682922L9.81716263015747,6.766791480082922C11.28272263015747,6.767415895682922,13.02808263015747,6.778492629682923,14.44612263015747,6.788420229682923ZM6.00493116015747,9.942967729682923L17.98563263015747,9.942967729682923L17.98563263015747,17.056547729682922C17.98563263015747,17.907247729682922,17.28233263015747,18.599747729682925,16.418132630157473,18.599747729682925L7.572362630157471,18.599747729682925C6.708232630157471,18.599747729682925,6.00493116015747,17.907247729682922,6.00493116015747,17.056547729682922L6.00493116015747,9.942967729682923ZM8.10268263015747,16.507167729682923L11.65365263015747,16.507167729682923L11.65365263015747,15.620957729682923L10.50101263015747,15.620957729682923C10.257602630157471,15.620957729682923,9.90680263015747,15.649547729682922,9.64191263015747,15.678137729682922C10.608402630157471,14.734747729682923,11.403072630157471,13.705607729682923,11.403072630157471,12.747927729682923C11.403072630157471,11.761667729682923,10.73727263015747,11.118447729682924,9.734982630157472,11.118447729682924C9.01190263015747,11.118447729682924,8.53939263015747,11.404317729682923,8.052562630157471,11.918897729682921L8.62530263015747,12.490637729682923C8.89019263015747,12.197617729682921,9.212362630157472,11.947477729682923,9.59895263015747,11.947477729682923C10.10010263015747,11.947477729682923,10.39363263015747,12.269087729682923,10.39363263015747,12.805107729682923C10.39363263015747,13.619847729682922,9.54168263015747,14.613257729682921,8.10268263015747,15.899687729682922L8.10268263015747,16.507167729682923ZM15.397902630157471,14.334527729682922L16.027932630157473,14.334527729682922L16.027932630157473,15.134977729682923L15.397902630157471,15.134977729682923L15.397902630157471,16.507167729682923L14.417092630157471,16.507167729682923L14.417092630157471,15.134977729682923L12.161942630157471,15.134977729682923L12.161942630157471,14.420287729682922L14.13788263015747,11.218507729682923L15.397902630157471,11.218507729682923L15.397902630157471,14.334527729682922ZM14.008692630157471,13.019507729682921L13.18538263015747,14.334527729682922L14.416762630157471,14.334527729682922L14.416762630157471,13.255357729682922C14.416762630157471,12.948037729682923,14.44540263015747,12.469197729682922,14.45972263015747,12.161887729682922L14.431082630157471,12.161887729682922C14.30221263015747,12.440617729682923,14.159032630157471,12.733637729682922,14.008692630157471,13.019507729682921Z" fill-rule="evenodd" fill="#FFFFFF" fill-opacity="1"/></g><g><rect x="5.288473725318909" y="9.446953654289246" width="13.103909492492676" height="4.047170162200928" rx="0.9152001142501831" fill="url(#master_svg4_0_118122)" fill-opacity="1"/></g></g><g><path d="M15.315787241241456,8.040660095367432C15.056829241241456,8.040660095367432,14.847790241241455,7.827500095367432,14.847790241241455,7.563430095367432L14.847790241241455,5.877227095367432C14.847790241241455,5.613162095367431,15.056829241241456,5.400000095367432,15.315787241241456,5.400000095367432C15.574745241241455,5.400000095367432,15.783783241241455,5.613162095367431,15.783783241241455,5.877227095367432L15.783783241241455,7.563430095367432C15.783783241241455,7.825910095367432,15.573185241241456,8.040660095367432,15.315787241241456,8.040660095367432Z" fill="#FFFFFF" fill-opacity="1"/></g><g><path d="M9.066916153213501,8.040660095367432C8.807958153213502,8.040660095367432,8.598919153213501,7.827500095367432,8.598919153213501,7.563430095367432L8.598919153213501,5.877227095367432C8.598919153213501,5.613162095367431,8.807958153213502,5.400000095367432,9.066916153213501,5.400000095367432C9.325874153213501,5.400000095367432,9.5349121532135,5.613162095367431,9.5349121532135,5.877227095367432L9.5349121532135,7.563430095367432C9.5349121532135,7.825910095367432,9.325874153213501,8.040660095367432,9.066916153213501,8.040660095367432Z" fill="#FFFFFF" fill-opacity="1"/></g></g></g></svg>