<svg xmlns="http://www.w3.org/2000/svg" xmlns:xlink="http://www.w3.org/1999/xlink" fill="none" version="1.1" width="24" height="24" viewBox="0 0 24 24"><defs><clipPath id="master_svg0_355_89757"><rect x="0" y="0" width="24" height="24" rx="0"/></clipPath></defs><g clip-path="url(#master_svg0_355_89757)"><g><path d="M5,21L5,16.5Q5,16.4015,4.980785,16.3049Q4.96157,16.2083,4.923879,16.1173Q4.886188,16.0263,4.83147,15.9444Q4.776751,15.8625,4.707107,15.7929Q4.637463,15.7232,4.55557,15.6685Q4.473678,15.6138,4.382683,15.5761Q4.291689,15.5384,4.19509,15.5192Q4.0984914,15.5,4,15.5Q3.9015086,15.5,3.80491,15.5192Q3.708311,15.5384,3.617317,15.5761Q3.526322,15.6138,3.44443,15.6685Q3.362537,15.7232,3.292893,15.7929Q3.223249,15.8625,3.16853,15.9444Q3.1138120000000002,16.0263,3.076121,16.1173Q3.03843,16.2083,3.019215,16.3049Q3,16.4015,3,16.5L3,21Q3,21.8284,3.58579,22.4142Q4.171574,23,5,23L19,23Q19.828400000000002,23,20.4142,22.4142Q21,21.8284,21,21L21,3Q21,2.171573,20.4142,1.58579Q19.828400000000002,1,19,1L5,1Q4.171573,1,3.585786,1.585786Q3,2.171573,3,3L3,7.5Q3,7.59849,3.019215,7.69509Q3.03843,7.79169,3.076121,7.88268Q3.1138120000000002,7.97368,3.16853,8.05557Q3.223249,8.13746,3.292893,8.20711Q3.362537,8.27675,3.44443,8.33147Q3.526322,8.38619,3.617317,8.42388Q3.708311,8.46157,3.80491,8.48078Q3.9015086,8.5,4,8.5Q4.0984914,8.5,4.19509,8.48078Q4.291689,8.46157,4.382683,8.42388Q4.473678,8.38619,4.55557,8.33147Q4.637463,8.27675,4.707107,8.20711Q4.776751,8.13746,4.83147,8.05557Q4.886188,7.97368,4.923879,7.88268Q4.96157,7.79169,4.980785,7.69509Q5,7.59849,5,7.5L5,3L19,3L19,21L5,21Z" fill-rule="evenodd" fill="#000000" fill-opacity="0.6000000238418579"/></g><g><path d="M14.5,7.5Q14.5,7.5984914,14.519214999999999,7.69509Q14.53843,7.791689,14.576121,7.882683Q14.613812,7.973678,14.66853,8.05557Q14.723249,8.137463,14.792893,8.207107Q14.862537,8.276751,14.94443,8.33147Q15.026322,8.386188,15.117317,8.423879Q15.208311,8.46157,15.30491,8.480785000000001Q15.4015086,8.5,15.5,8.5L17,8.5Q17.098489999999998,8.5,17.19509,8.480785000000001Q17.29169,8.46157,17.38268,8.423879Q17.47368,8.386188,17.55557,8.33147Q17.63746,8.276751,17.70711,8.207107Q17.77675,8.137463,17.83147,8.05557Q17.88619,7.973678,17.92388,7.882683Q17.961570000000002,7.791689,17.98078,7.69509Q18,7.5984914,18,7.5Q18,7.4015086,17.98078,7.30491Q17.961570000000002,7.208311,17.92388,7.117317Q17.88619,7.026322,17.83147,6.94443Q17.77675,6.862537,17.70711,6.792893Q17.63746,6.723249,17.55557,6.66853Q17.47368,6.613812,17.38268,6.576121Q17.29169,6.53843,17.19509,6.519215Q17.098489999999998,6.5,17,6.5L15.5,6.5Q15.4015086,6.5,15.30491,6.519215Q15.208311,6.53843,15.117317,6.576121Q15.026322,6.613812,14.94443,6.66853Q14.862537,6.723249,14.792893,6.792893Q14.723249,6.862537,14.66853,6.94443Q14.613812,7.026322,14.576121,7.117317Q14.53843,7.208311,14.519214999999999,7.30491Q14.5,7.4015086,14.5,7.5Z" fill-rule="evenodd" fill="#000000" fill-opacity="0.6000000238418579"/></g><g><path d="M14,12.5L17,12.5Q17.098489999999998,12.5,17.19509,12.480785000000001Q17.29169,12.46157,17.38268,12.423879Q17.47368,12.386188,17.55557,12.33147Q17.63746,12.276751,17.70711,12.207107Q17.77675,12.137463,17.83147,12.05557Q17.88619,11.973678,17.92388,11.882683Q17.961570000000002,11.791689,17.98078,11.69509Q18,11.5984914,18,11.5Q18,11.4015086,17.98078,11.30491Q17.961570000000002,11.208311,17.92388,11.117317Q17.88619,11.026322,17.83147,10.94443Q17.77675,10.862537,17.70711,10.792893Q17.63746,10.723249,17.55557,10.66853Q17.47368,10.613812,17.38268,10.576121Q17.29169,10.53843,17.19509,10.519214999999999Q17.098489999999998,10.5,17,10.5L14,10.5Q13.9015086,10.5,13.80491,10.519214999999999Q13.708311,10.53843,13.617317,10.576121Q13.526322,10.613812,13.44443,10.66853Q13.362537,10.723249,13.292893,10.792893Q13.223249,10.862537,13.16853,10.94443Q13.113812,11.026322,13.076121,11.117317Q13.03843,11.208311,13.019214999999999,11.30491Q13,11.4015086,13,11.5Q13,11.5984914,13.019214999999999,11.69509Q13.03843,11.791689,13.076121,11.882683Q13.113812,11.973678,13.16853,12.05557Q13.223249,12.137463,13.292893,12.207107Q13.362537,12.276751,13.44443,12.33147Q13.526322,12.386188,13.617317,12.423879Q13.708311,12.46157,13.80491,12.480785000000001Q13.9015086,12.5,14,12.5Z" fill-rule="evenodd" fill="#000000" fill-opacity="0.6000000238418579"/></g><g><path d="M14,16.5L17,16.5Q17.098489999999998,16.5,17.19509,16.480785Q17.29169,16.461570000000002,17.38268,16.423879Q17.47368,16.386188,17.55557,16.33147Q17.63746,16.276751,17.70711,16.207107Q17.77675,16.137463,17.83147,16.05557Q17.88619,15.973678,17.92388,15.882683Q17.961570000000002,15.791689,17.98078,15.69509Q18,15.5984914,18,15.5Q18,15.4015086,17.98078,15.30491Q17.961570000000002,15.208311,17.92388,15.117317Q17.88619,15.026322,17.83147,14.94443Q17.77675,14.862537,17.70711,14.792893Q17.63746,14.723249,17.55557,14.66853Q17.47368,14.613812,17.38268,14.576121Q17.29169,14.53843,17.19509,14.519214999999999Q17.098489999999998,14.5,17,14.5L14,14.5Q13.9015086,14.5,13.80491,14.519214999999999Q13.708311,14.53843,13.617317,14.576121Q13.526322,14.613812,13.44443,14.66853Q13.362537,14.723249,13.292893,14.792893Q13.223249,14.862537,13.16853,14.94443Q13.113812,15.026322,13.076121,15.117317Q13.03843,15.208311,13.019214999999999,15.30491Q13,15.4015086,13,15.5Q13,15.5984914,13.019214999999999,15.69509Q13.03843,15.791689,13.076121,15.882683Q13.113812,15.973678,13.16853,16.05557Q13.223249,16.137463,13.292893,16.207107Q13.362537,16.276751,13.44443,16.33147Q13.526322,16.386188,13.617317,16.423879Q13.708311,16.461570000000002,13.80491,16.480785Q13.9015086,16.5,14,16.5Z" fill-rule="evenodd" fill="#000000" fill-opacity="0.6000000238418579"/></g><g><path d="M1,16.5L1,7.5Q1,7.4015086,1.019215,7.30491Q1.03843,7.208311,1.076121,7.117317Q1.113812,7.026322,1.16853,6.94443Q1.223249,6.862537,1.2928929999999998,6.792893Q1.362537,6.723249,1.44443,6.66853Q1.526322,6.613812,1.617317,6.576121Q1.7083110000000001,6.53843,1.80491,6.519215Q1.9015086,6.5,2,6.5L11,6.5Q11.09849,6.5,11.19509,6.519215Q11.29169,6.53843,11.38268,6.576121Q11.47368,6.613812,11.55557,6.66853Q11.63746,6.723249,11.70711,6.792893Q11.77675,6.862537,11.83147,6.94443Q11.88619,7.026322,11.92388,7.117317Q11.96157,7.208311,11.98078,7.30491Q12,7.4015086,12,7.5L12,16.5Q12,16.598489999999998,11.98078,16.69509Q11.96157,16.79169,11.92388,16.88268Q11.88619,16.97368,11.83147,17.05557Q11.77675,17.13746,11.70711,17.20711Q11.63746,17.27675,11.55557,17.33147Q11.47368,17.38619,11.38268,17.42388Q11.29169,17.461570000000002,11.19509,17.48078Q11.09849,17.5,11,17.5L2,17.5Q1.9015086,17.5,1.80491,17.48078Q1.7083110000000001,17.461570000000002,1.617317,17.42388Q1.526322,17.38619,1.44443,17.33147Q1.362537,17.27675,1.2928929999999998,17.20711Q1.223249,17.13746,1.16853,17.05557Q1.113812,16.97368,1.076121,16.88268Q1.03843,16.79169,1.019215,16.69509Q1,16.598489999999998,1,16.5ZM3,8.5L3,15.5L10,15.5L10,8.5L3,8.5Z" fill="#000000" fill-opacity="0.6000000238418579"/></g><g><path d="M4.293012,11.207226L7.29289,14.20711Q7.43355,14.347760000000001,7.617319999999999,14.42388Q7.80109,14.5,8,14.5Q8.19891,14.5,8.38268,14.42388Q8.56645,14.347760000000001,8.70711,14.20711Q8.847760000000001,14.06645,8.92388,13.88268Q9,13.69891,9,13.5Q9,13.30109,8.92388,13.11732Q8.847760000000001,12.93355,8.70711,12.79289L5.707226,9.793012000000001L5.707107,9.792893Q5.566455,9.652241,5.382683,9.57612Q5.198912,9.5,5,9.5Q4.801088,9.5,4.617317,9.57612Q4.433545,9.652241,4.292893,9.792893Q4.152241,9.933545,4.0761199999999995,10.117317Q4,10.301088,4,10.5Q4,10.698912,4.0761199999999995,10.882683Q4.152241,11.066455,4.292893,11.207107L4.293012,11.207226Z" fill-rule="evenodd" fill="#000000" fill-opacity="0.6000000238418579"/></g><g><path d="M7.29289,9.792893L4.292893,12.79289Q4.152241,12.93355,4.0761199999999995,13.11732Q4,13.30109,4,13.5Q4,13.69891,4.0761199999999995,13.88268Q4.152241,14.06645,4.292893,14.20711Q4.433546,14.347760000000001,4.617317,14.42388Q4.801088,14.5,5,14.5Q5.198912,14.5,5.382683,14.42388Q5.566455,14.347760000000001,5.707107,14.20711L8.70711,11.207107Q8.847760000000001,11.066454,8.92388,10.882683Q9,10.698912,9,10.5Q9,10.301088,8.92388,10.117317Q8.847760000000001,9.933546,8.70711,9.792893Q8.56645,9.652241,8.38268,9.57612Q8.19891,9.5,8,9.5Q7.80109,9.5,7.617319999999999,9.57612Q7.43355,9.652241,7.29289,9.792893Z" fill-rule="evenodd" fill="#000000" fill-opacity="0.6000000238418579"/></g></g></svg>