<?xml version="1.0" encoding="UTF-8"?>
<svg width="19px" height="19px" viewBox="0 0 19 19" version="1.1" xmlns="http://www.w3.org/2000/svg" xmlns:xlink="http://www.w3.org/1999/xlink">
    <title>数值</title>
    <g id="图表器" stroke="none" stroke-width="1" fill="none" fill-rule="evenodd">
        <g id="统计图表/筛选" transform="translate(-221.000000, -227.000000)" fill-rule="nonzero">
            <g id="编组-38备份" transform="translate(21.000000, 74.000000)">
                <g id="编组-7" transform="translate(200.000000, 153.000000)">
                    <path d="M15.9382237,0 C16.9031218,0 17.7204309,0.42329463 18.2077532,1.01480406 C18.7772241,1.68214804 18.9749377,2.28330914 18.9986077,3.70072569 L19,4.3032656 L18.9888612,4.80515239 C18.9456984,5.87648766 18.76887,6.28461538 18.1492745,6.72721335 L18.0100396,6.82373004 L17.8944746,6.89404935 L18.0420636,6.99332366 C18.7465924,7.48693759 18.944306,7.92402032 18.9888612,9.01328012 L19,9.52206096 L19,10.3465893 L18.9888612,10.8912192 C18.9540525,11.9666909 18.8259563,12.3872279 18.4514143,12.9346154 C17.8749817,13.7798258 17.0312179,14.25 15.879745,14.25 C14.2576579,14.25 12.9182178,13.2310595 12.8040451,11.428955 L12.7970834,11.1780116 L12.7970834,10.058418 L12.9363183,9.92053701 L14.9245933,9.92053701 L15.0638282,10.058418 L15.0638282,11.0814949 C15.0638282,11.6412917 15.3882456,12.0052975 15.8992379,12.0052975 C16.3726367,12.0052975 16.6761688,11.7102322 16.7262934,11.2014514 L16.7346475,11.0428882 L16.7346475,9.07532656 C16.7346475,8.15703919 16.5397186,7.94470247 15.4996336,7.9212627 L15.2949582,7.91988389 L15.1557233,7.7820029 L15.1557233,6.04470247 L15.2949582,5.90682148 L15.676462,5.89854862 C16.4840246,5.85856313 16.7068005,5.6586357 16.7318628,4.99680697 L16.7346475,4.8478955 L16.7346475,3.07198839 C16.7346475,2.57285922 16.4116225,2.24470247 15.8992379,2.24470247 C15.4823054,2.22529678 15.1214441,2.52901602 15.0735747,2.93962264 L15.0638282,3.07198839 L15.0638282,4.191582 L14.9245933,4.32946299 L12.9363183,4.32946299 L12.7970834,4.191582 L12.7970834,3.05268505 C12.7970834,1.36502177 14.2131027,0 15.9382237,0 Z M3.06177634,0.115820029 L3.20101129,0.253701016 L3.20101129,13.9976778 L3.06177634,14.1355588 L1.07350139,14.1355588 L0.934266452,13.9976778 L0.932874102,2.56044993 L0.201890664,2.9203193 L0,2.79622642 L0,0.714223512 L0.0779715668,0.590130624 L1.07350139,0.117198839 L3.06177634,0.117198839 L3.06177634,0.115820029 Z M7.99487029,0 C9.9761835,0 11.0775319,1.46153846 11.0775319,3.59317852 L11.0719625,4.14746009 C11.0496849,4.97888244 10.9563975,5.38976778 10.6264107,6.06952104 L10.3994577,6.51349782 L7.57995017,11.8908563 L10.9382969,11.8908563 L11.0775319,12.0287373 L11.0775319,13.9976778 L10.9382969,14.1355588 L5.01385021,14.1355588 L4.87461527,13.9976778 L4.89132346,12.0811321 L8.47662319,5.38287373 C8.62142752,5.10435414 8.70636084,4.87271408 8.75370072,4.6383164 L8.78294006,4.45493469 L8.8010406,4.25362845 L8.80939469,3.99165457 L8.81217939,3.50079826 C8.80661,2.59492017 8.63674337,2.24470247 7.97676975,2.24470247 C7.50337095,2.24470247 7.20540818,2.49013062 7.15110655,2.93548621 L7.14136011,3.09129173 L7.14136011,4.21088534 L7.00212516,4.34876633 L5.01385021,4.34876633 L4.87461527,4.21088534 L4.87461527,3.1298984 C4.87461527,1.40638607 6.26835703,0 7.99487029,0 Z" id="形状" fill="#1890FF"></path>
                    <polygon id="路径" fill="#00B42A" points="19 17.1 19 19 0 19 0 17.1"></polygon>
                </g>
            </g>
        </g>
    </g>
</svg>