<svg xmlns="http://www.w3.org/2000/svg" xmlns:xlink="http://www.w3.org/1999/xlink" fill="none" version="1.1" width="16" height="16" viewBox="0 0 16 16"><defs><mask id="master_svg0_319_63803"><g><rect x="0" y="0" width="16" height="16" rx="0" fill="#FFFFFF" fill-opacity="1"/></g></mask></defs><g mask="url(#master_svg0_319_63803)"><g><rect x="0" y="0" width="16" height="16" rx="0" fill="#D8D8D8" fill-opacity="0.009999999776482582"/></g><g><path d="M11.8889,1L1.777778,1C1.348223,1,1,1.348223,1,1.777778L1,14.2222C1,14.6518,1.348223,15,1.777778,15L14.2222,15C14.6518,15,15,14.6518,15,14.2222L15,4.11111L11.8889,1ZM4.11111,13.4444L4.11111,8.77778L11.8889,8.77778L11.8889,13.4444L13.4444,13.4444L13.4444,4.75511L11.2449,2.55556L2.55556,2.55556L2.55556,13.4444L4.11111,13.4444ZM5.66667,10.33333L5.66667,13.4444L10.33333,13.4444L10.33333,10.33333L5.66667,10.33333Z" fill-rule="evenodd" fill="#FFFFFF" fill-opacity="1"/></g></g></svg>