<?xml version="1.0" encoding="UTF-8"?>
<svg width="46px" height="46px" viewBox="0 0 46 46" version="1.1" xmlns="http://www.w3.org/2000/svg" xmlns:xlink="http://www.w3.org/1999/xlink">
    <title>文本</title>
    <defs>
        <rect id="path-1" x="0" y="0" width="44" height="44" rx="3"></rect>
        <rect id="path-3" x="0" y="0" width="26" height="26"></rect>
    </defs>
    <g id="图表器" stroke="none" stroke-width="1" fill="none" fill-rule="evenodd">
        <g id="统计图表/筛选" transform="translate(-42.000000, -508.000000)">
            <g id="文本" transform="translate(43.000000, 509.000000)">
                <mask id="mask-2" fill="white">
                    <use xlink:href="#path-1"></use>
                </mask>
                <use id="组-457备份-17" stroke="#DCDEE0" stroke-dasharray="2" fill-rule="nonzero" xlink:href="#path-1"></use>
                <g mask="url(#mask-2)">
                    <g transform="translate(9.000000, 10.000000)">
                        <mask id="mask-4" fill="white">
                            <use xlink:href="#path-3"></use>
                        </mask>
                        <g id="矩形" stroke="none" fill="none"></g>
                        <g id="编组" stroke="none" stroke-width="1" fill="none" fill-rule="evenodd" mask="url(#mask-4)">
                            <rect id="矩形" fill-opacity="0.00999999978" fill="#FFFFFF" fill-rule="nonzero" x="0" y="0" width="26" height="26"></rect>
                            <path d="M2.16666667,19.5 L2.16666667,6.5 C2.16666667,5.30338611 2.58973469,4.28200969 3.43587075,3.43587075 C4.28200969,2.58973469 5.30338611,2.16666667 6.5,2.16666667 L19.5,2.16666667 C20.69665,2.16666667 21.7180167,2.58973469 22.5641,3.43587075 C23.4102556,4.28200969 23.8333333,5.30338611 23.8333333,6.5 L23.8333333,19.5 C23.8333333,20.69665 23.4102556,21.7180167 22.5641,22.5641 C21.7180167,23.4102556 20.69665,23.8333333 19.5,23.8333333 L6.5,23.8333333 C5.30338611,23.8333333 4.28200969,23.4102556 3.43587075,22.5641 C2.58973469,21.7180167 2.16666667,20.69665 2.16666667,19.5 Z M4.33333333,19.5 C4.33333333,20.0982889 4.54486861,20.6089722 4.96793917,21.03205 C5.39100972,21.4551278 5.90169667,21.6666667 6.5,21.6666667 L19.5,21.6666667 C20.0982889,21.6666667 20.6089722,21.4551278 21.03205,21.03205 C21.4551278,20.6089722 21.6666667,20.0982889 21.6666667,19.5 L21.6666667,6.5 C21.6666667,5.90168944 21.4551278,5.3910025 21.03205,4.96793917 C20.6089722,4.54486861 20.0982889,4.33333333 19.5,4.33333333 L6.5,4.33333333 C5.90168944,4.33333333 5.3910025,4.54486861 4.96793917,4.96793917 C4.54486861,5.3910025 4.33333333,5.90168944 4.33333333,6.5 L4.33333333,19.5 Z" id="形状" fill="#1890FF" fill-rule="nonzero"></path>
                            <path d="M16.25,9.75 L16.25,10.2916667 C16.25,10.3627983 16.2569369,10.4332475 16.2708108,10.5030142 C16.2846919,10.5727808 16.3052428,10.6405217 16.3324633,10.7062367 C16.3596839,10.7719589 16.3930542,10.8343914 16.4325742,10.8935342 C16.4720942,10.9526769 16.5170019,11.0073997 16.5672975,11.0577025 C16.6176003,11.1079981 16.6723231,11.1529058 16.7314658,11.1924258 C16.7906086,11.2319458 16.8530411,11.2653161 16.9187633,11.2925367 C16.9844783,11.3197572 17.0522192,11.3403044 17.1219858,11.3541783 C17.1917525,11.3680594 17.2622017,11.375 17.3333333,11.375 C17.404465,11.375 17.4749142,11.3680594 17.5446808,11.3541783 C17.6144475,11.3403044 17.6821883,11.3197572 17.7479033,11.2925367 C17.8136256,11.2653161 17.8760581,11.2319458 17.9352008,11.1924258 C17.9943436,11.1529058 18.0490664,11.1079981 18.0993692,11.0577025 C18.1496647,11.0073997 18.1945725,10.9526769 18.2340925,10.8935342 C18.2736125,10.8343914 18.3069828,10.7719589 18.3342033,10.7062367 C18.3614239,10.6405217 18.3819711,10.5727808 18.395845,10.5030142 C18.4097261,10.4332475 18.4166667,10.3627983 18.4166667,10.2916667 L18.4166667,8.66666667 C18.4166667,8.59553399 18.4097261,8.52508482 18.395845,8.45531917 C18.3819711,8.38555322 18.3614239,8.31781131 18.3342033,8.25209342 C18.3069828,8.18637481 18.2736125,8.12394339 18.2340925,8.06479917 C18.1945725,8.00565422 18.1496647,7.95093253 18.0993692,7.90063408 C18.0490664,7.85033564 17.9943436,7.80542678 17.9352008,7.7659075 C17.8760581,7.72638894 17.8136256,7.69301903 17.7479033,7.66579775 C17.6821883,7.63857647 17.6144475,7.61802708 17.5446808,7.60414958 C17.4749142,7.59027208 17.404465,7.58333333 17.3333333,7.58333333 L8.66666667,7.58333333 C8.59553399,7.58333333 8.52508482,7.59027208 8.45531917,7.60414958 C8.38555322,7.61802708 8.31781131,7.63857647 8.25209342,7.66579775 C8.18637481,7.69301903 8.12394339,7.72638894 8.06479917,7.7659075 C8.00565422,7.80542678 7.95093253,7.85033564 7.90063408,7.90063408 C7.85033564,7.95093253 7.80542678,8.00565422 7.7659075,8.06479917 C7.72638894,8.12394339 7.69301903,8.18637481 7.66579775,8.25209342 C7.63857647,8.31781131 7.61802708,8.38555322 7.60414958,8.45531917 C7.59027208,8.52508482 7.58333333,8.59553399 7.58333333,8.66666667 L7.58333333,10.2916667 C7.58333333,10.3627983 7.59027208,10.4332475 7.60414958,10.5030142 C7.61802708,10.5727808 7.63857647,10.6405217 7.66579775,10.7062367 C7.69301903,10.7719589 7.72638894,10.8343914 7.7659075,10.8935342 C7.80542678,10.9526769 7.85033564,11.0073997 7.90063408,11.0577025 C7.95093253,11.1079981 8.00565422,11.1529058 8.06479917,11.1924258 C8.12394339,11.2319458 8.18637481,11.2653161 8.25209342,11.2925367 C8.31781131,11.3197572 8.38555322,11.3403044 8.45531917,11.3541783 C8.52508482,11.3680594 8.59553399,11.375 8.66666667,11.375 C8.73779934,11.375 8.80824851,11.3680594 8.87801417,11.3541783 C8.94778011,11.3403044 9.01552203,11.3197572 9.08123992,11.2925367 C9.14695853,11.2653161 9.20938994,11.2319458 9.26853417,11.1924258 C9.32767911,11.1529058 9.38240081,11.1079981 9.43269925,11.0577025 C9.48299769,11.0073997 9.52790656,10.9526769 9.56742583,10.8935342 C9.60694439,10.8343914 9.64031431,10.7719589 9.66753558,10.7062367 C9.69475686,10.6405217 9.71530625,10.5727808 9.72918375,10.5030142 C9.74306125,10.4332475 9.75,10.3627983 9.75,10.2916667 L9.75,9.75 L16.25,9.75 Z" id="路径" fill="#00B42A"></path>
                            <path d="M10.8333333,18.4166667 C10.8333333,18.4877993 10.8402721,18.5582485 10.8541496,18.6280142 C10.8680271,18.6977801 10.8885765,18.765522 10.9157977,18.8312399 C10.943019,18.8969585 10.9763889,18.9593899 11.0159075,19.0185342 C11.0554268,19.0776791 11.1003356,19.1324008 11.1506341,19.1826992 C11.2009325,19.2329977 11.2556542,19.2779066 11.3147992,19.3174258 C11.3739434,19.3569444 11.4363748,19.3903143 11.5020934,19.4175356 C11.5678113,19.4447569 11.6355532,19.4653062 11.7053192,19.4791837 C11.7750848,19.4930612 11.845534,19.5 11.9166667,19.5 L14.0833333,19.5 C14.154465,19.5 14.2249142,19.4930612 14.2946808,19.4791837 C14.3644475,19.4653062 14.4321883,19.4447569 14.4979033,19.4175356 C14.5636256,19.3903143 14.6260581,19.3569444 14.6852008,19.3174258 C14.7443436,19.2779066 14.7990664,19.2329977 14.8493692,19.1826992 C14.8996647,19.1324008 14.9445725,19.0776791 14.9840925,19.0185342 C15.0236125,18.9593899 15.0569828,18.8969585 15.0842033,18.8312399 C15.1114239,18.765522 15.1319711,18.6977801 15.145845,18.6280142 C15.1597261,18.5582485 15.1666667,18.4877993 15.1666667,18.4166667 C15.1666667,18.345534 15.1597261,18.2750848 15.145845,18.2053192 C15.1319711,18.1355532 15.1114239,18.0678113 15.0842033,18.0020934 C15.0569828,17.9363748 15.0236125,17.8739434 14.9840925,17.8147992 C14.9445725,17.7556542 14.8996647,17.7009325 14.8493692,17.6506341 C14.7990664,17.6003356 14.7443436,17.5554268 14.6852008,17.5159075 C14.6260581,17.4763889 14.5636256,17.443019 14.4979033,17.4157977 C14.4321883,17.3885765 14.3644475,17.3680271 14.2946808,17.3541496 C14.2249142,17.3402721 14.154465,17.3333333 14.0833333,17.3333333 L11.9166667,17.3333333 C11.845534,17.3333333 11.7750848,17.3402721 11.7053192,17.3541496 C11.6355532,17.3680271 11.5678113,17.3885765 11.5020934,17.4157977 C11.4363748,17.443019 11.3739434,17.4763889 11.3147992,17.5159075 C11.2556542,17.5554268 11.2009325,17.6003356 11.1506341,17.6506341 C11.1003356,17.7009325 11.0554268,17.7556542 11.0159075,17.8147992 C10.9763889,17.8739434 10.943019,17.9363748 10.9157977,18.0020934 C10.8885765,18.0678113 10.8680271,18.1355532 10.8541496,18.2053192 C10.8402721,18.2750848 10.8333333,18.345534 10.8333333,18.4166667 Z" id="路径" fill="#00B42A"></path>
                            <path d="M11.9166667,9.75 L11.9166667,18.4166667 C11.9166667,18.4877983 11.9236054,18.5582475 11.9374829,18.6280142 C11.9513604,18.6977808 11.9719098,18.7655217 11.9991311,18.8312367 C12.0263524,18.8969589 12.0597223,18.9593914 12.0992408,19.0185342 C12.1387601,19.0776769 12.183669,19.1323997 12.2339674,19.1827025 C12.2842659,19.2329981 12.3389876,19.2779058 12.3981325,19.3174258 C12.4572767,19.3569458 12.5197081,19.3903161 12.5854268,19.4175367 C12.6511446,19.4447572 12.7188866,19.4653044 12.7886525,19.4791783 C12.8584182,19.4930594 12.9288673,19.5 13,19.5 C13.0711327,19.5 13.1415818,19.4930594 13.2113475,19.4791783 C13.2811134,19.4653044 13.3488554,19.4447572 13.4145733,19.4175367 C13.4802919,19.3903161 13.5427233,19.3569458 13.6018675,19.3174258 C13.6610124,19.2779058 13.7157341,19.2329981 13.7660326,19.1827025 C13.816331,19.1323997 13.8612399,19.0776769 13.9007592,19.0185342 C13.9402777,18.9593914 13.9736476,18.8969589 14.0008689,18.8312367 C14.0280902,18.7655217 14.0486396,18.6977808 14.0625171,18.6280142 C14.0763946,18.5582475 14.0833333,18.4877983 14.0833333,18.4166667 L14.0833333,9.75 C14.0833333,9.67886732 14.0763946,9.60841816 14.0625171,9.5386525 C14.0486396,9.46888656 14.0280902,9.40114464 14.0008689,9.33542675 C13.9736476,9.26970814 13.9402777,9.20727672 13.9007592,9.1481325 C13.8612399,9.08898756 13.816331,9.03426586 13.7660326,8.98396742 C13.7157341,8.93366897 13.6610124,8.88876011 13.6018675,8.84924083 C13.5427233,8.80972228 13.4802919,8.77635236 13.4145733,8.74913108 C13.3488554,8.72190981 13.2811134,8.70136042 13.2113475,8.68748292 C13.1415818,8.67360542 13.0711327,8.66666667 13,8.66666667 C12.9288673,8.66666667 12.8584182,8.67360542 12.7886525,8.68748292 C12.7188866,8.70136042 12.6511446,8.72190981 12.5854268,8.74913108 C12.5197081,8.77635236 12.4572767,8.80972228 12.3981325,8.84924083 C12.3389876,8.88876011 12.2842659,8.93366897 12.2339674,8.98396742 C12.183669,9.03426586 12.1387601,9.08898756 12.0992408,9.1481325 C12.0597223,9.20727672 12.0263524,9.26970814 11.9991311,9.33542675 C11.9719098,9.40114464 11.9513604,9.46888656 11.9374829,9.5386525 C11.9236054,9.60841816 11.9166667,9.67886732 11.9166667,9.75 Z" id="路径" fill="#00B42A"></path>
                        </g>
                    </g>
                </g>
            </g>
        </g>
    </g>
</svg>