<svg viewBox="0 0 24 24" fill="none" xmlns="http://www.w3.org/2000/svg"><defs><clipPath id="a"><rect rx="0" height="24" width="24"/></clipPath></defs><g clip-path="url(#a)"><path fill="#626C78" fill-rule="evenodd" d="M6 12c0 3.3 2.7 6 6 6s6-2.7 6-6-2.7-6-6-6-6 2.7-6 6Zm10.6 1.938a5.055 5.055 0 0 1-2.664 2.665 4.962 4.962 0 0 1-3.872 0A5.053 5.053 0 0 1 7.4 13.938a4.967 4.967 0 0 1 0-3.876 5.052 5.052 0 0 1 2.665-2.665 4.96 4.96 0 0 1 3.871 0 5.054 5.054 0 0 1 2.664 2.665 4.967 4.967 0 0 1 0 3.876Z" data-follow-fill="#626C78"/><path fill="#626C78" d="m9.367 13.935 4.685-4.675c.237-.236.474-.236.711 0 .237.237.237.473 0 .71l-4.685 4.675c-.237.237-.474.237-.711 0-.237-.236-.237-.473 0-.71Z" data-follow-fill="#626C78"/><path fill="#626C78" d="m14.008 14.689-4.685-4.675c-.237-.237-.237-.473 0-.71s.474-.237.711 0l4.685 4.675c.237.237.237.473 0 .71s-.474.237-.711 0Z" data-follow-fill="#626C78"/></g></svg>