<svg xmlns="http://www.w3.org/2000/svg" xmlns:xlink="http://www.w3.org/1999/xlink" fill="none" version="1.1" width="36.39990234375" height="36.400390625" viewBox="0 0 36.39990234375 36.400390625"><g><g></g><g><g><rect x="5.200000286102295" y="2.6000001430511475" width="22.016130447387695" height="28.108108520507812" rx="2.6000001430511475" fill="#1890FF" fill-opacity="1"/></g><g><path d="M10.483871459960938,9.591892099380493L10.483871459960938,32.49999209938049C10.483871459960938,33.935892099380496,11.647931459960937,35.09999209938049,13.083871459960937,35.09999209938049L22.812871459960938,35.09999209938049L32.49997145996094,23.681092099380493L32.49997145996094,9.591892099380493C32.49997145996094,8.155952099380492,31.335971459960938,6.991892099380493,29.899971459960938,6.991892099380493L13.083871459960937,6.991892099380493C11.647931459960937,6.991892099380493,10.483871459960938,8.155952099380492,10.483871459960938,9.591892099380493Z" fill="#DDE1E8" fill-opacity="1"/></g><g><rect x="15.767578601837158" y="12.26216197013855" width="11.44838809967041" height="1.7567567825317383" rx="0.8783783912658691" fill="#1890FF" fill-opacity="1"/></g><g><rect x="15.767578601837158" y="19.28919005393982" width="11.44838809967041" height="1.7567567825317383" rx="0.8783783912658691" fill="#1890FF" fill-opacity="1"/></g><g><rect x="15.767578601837158" y="26.316217184066772" width="4.403226375579834" height="1.7567567825317383" rx="0.8783783912658691" fill="#1890FF" fill-opacity="1"/></g><g transform="matrix(-1,0,0,-1,65.00000286102295,70.2000002861023)"><path d="M32.500001430511475,46.51890014305115L39.587101430511474,46.51890014305115C41.023041430511476,46.51890014305115,42.187101430511476,45.35490014305115,42.187101430511476,43.918920143051146L42.187101430511476,35.10000014305115L32.500001430511475,46.51890014305115Z" fill="#1890FF" fill-opacity="1"/></g></g></g></svg>