<svg xmlns="http://www.w3.org/2000/svg" xmlns:xlink="http://www.w3.org/1999/xlink" fill="none" version="1.1" width="24" height="24" viewBox="0 0 24 24"><defs><clipPath id="master_svg0_1_278"><rect x="0" y="0" width="24" height="24" rx="0"/></clipPath></defs><g clip-path="url(#master_svg0_1_278)"><g><path d="M18.4329,14.2301Q20.1506,12.806280000000001,21.1985,11.40195L22,12L21.1985,12.598040000000001Q17.0213,7,12,7Q11.14523,7,10.25683,7.22054Q10.16124,7.24427,10.06286,7.2489Q9.96448,7.25352,9.86708,7.23886Q9.76969,7.22421,9.677019999999999,7.19083Q9.58436,7.15745,9.49999,7.1066400000000005Q9.41562,7.05583,9.342780000000001,6.989532Q9.26994,6.923236,9.21144,6.844003Q9.15293,6.764771,9.11101,6.675647Q9.06909,6.586523,9.045359999999999,6.490933Q9.02163,6.395343,9.017,6.29696Q9.01238,6.198578,9.02703,6.101183Q9.04169,6.00378823,9.07507,5.9111245Q9.10844,5.818461,9.15926,5.734089Q9.21007,5.649717,9.27637,5.576879Q9.34266,5.504042,9.4219,5.445538Q9.50113,5.387033,9.590250000000001,5.345111Q9.67938,5.3031880000000005,9.77497,5.279458Q10.9007,5,12,5Q18.0244,5,22.8015,11.401959999999999Q22.8495,11.46632,22.8866,11.53752Q22.9238,11.60872,22.9491,11.68493Q22.9744,11.76115,22.9872,11.84042Q23,11.919699999999999,23,12Q23,12.08031,22.9872,12.15958Q22.9744,12.238859999999999,22.9491,12.31507Q22.9238,12.39129,22.8866,12.462489999999999Q22.8495,12.53369,22.8015,12.59805Q21.6108,14.19372,19.7092,15.7699Q19.6334,15.83276,19.5467,15.87961Q19.4601,15.92646,19.366,15.95551Q19.2719,15.98456,19.1739,15.99469Q19.076,16.0048,18.9779,15.99565Q18.8798,15.98648,18.7854,15.95835Q18.6911,15.93022,18.604,15.88421Q18.5169,15.83821,18.4404,15.7761Q18.364,15.71399,18.3011,15.63816Q18.2383,15.56233,18.1914,15.4757Q18.1446,15.38907,18.1155,15.29496Q18.0865,15.20085,18.0764,15.10288Q18.0662,15.00491,18.0754,14.90685Q18.0846,14.80878,18.1127,14.71439Q18.1408,14.62,18.1868,14.53292Q18.2328,14.44583,18.2949,14.36939Q18.3571,14.29295,18.4329,14.2301ZM14.2427,18.7162Q13.108,19,12,19Q5.97562,19,1.198537,12.598040000000001Q1.150512,12.53368,1.113372,12.46248Q1.076233,12.39128,1.0509309999999998,12.31507Q1.02563,12.23885,1.012815,12.15958Q1,12.080300000000001,1,12Q1,11.91969,1.012815,11.84042Q1.02563,11.761140000000001,1.050932,11.68493Q1.076233,11.60872,1.113373,11.53752Q1.150512,11.46632,1.198538,11.40195Q2.389218,9.806280000000001,4.290760000000001,8.2301Q4.36659,8.16725,4.45323,8.12039Q4.53986,8.07354,4.63397,8.04449Q4.72808,8.01544,4.82605,8.00531Q4.9240200000000005,7.99517,5.02208,8.00435Q5.12014,8.01352,5.21453,8.04165Q5.3089200000000005,8.06978,5.39601,8.11578Q5.4831,8.16179,5.55954,8.2239Q5.63598,8.286010000000001,5.69883,8.36183Q5.76168,8.437660000000001,5.80854,8.5243Q5.85539,8.61093,5.88444,8.70504Q5.9134899999999995,8.799150000000001,5.92362,8.897120000000001Q5.9337599999999995,8.99509,5.924580000000001,9.09315Q5.91541,9.19121,5.8872800000000005,9.2856Q5.85915,9.37999,5.813140000000001,9.46708Q5.7671399999999995,9.55417,5.70503,9.63061Q5.64292,9.70705,5.5671,9.7699Q3.84936,11.193719999999999,2.801462,12.59805L2,12L2.801463,11.401959999999999Q6.97868,17,12,17Q12.8616,17,13.7573,16.7759Q13.8529,16.752000000000002,13.9512,16.7472Q14.0496,16.7424,14.147,16.7569Q14.2445,16.7714,14.3372,16.8046Q14.4299,16.8378,14.5144,16.8885Q14.5988,16.9391,14.6718,17.0053Q14.7447,17.0715,14.8034,17.1506Q14.862,17.2297,14.9041,17.3188Q14.9462,17.4078,14.9701,17.5034Q14.994,17.5989,14.9988,17.6973Q15.0036,17.7957,14.9891,17.8931Q14.9746,17.9905,14.9414,18.083199999999998Q14.9082,18.176000000000002,14.8576,18.2604Q14.8069,18.344900000000003,14.7407,18.4178Q14.6746,18.4908,14.5954,18.5494Q14.5163,18.6081,14.4273,18.650199999999998Q14.3382,18.6923,14.2427,18.7162ZM20.0711,15Q20.071,15.09849,20.0518,15.19509Q20.0326,15.29169,19.9949,15.38268Q19.9572,15.47368,19.9025,15.55557Q19.8478,15.63746,19.7782,15.70711Q19.7085,15.77675,19.6266,15.83147Q19.5447,15.88619,19.4537,15.92388Q19.3627,15.96157,19.2661,15.98078Q19.1695,16,19.0711,16Q18.9726,16,18.876,15.98078Q18.7794,15.96157,18.6884,15.92388Q18.5974,15.88619,18.5155,15.83147Q18.4336,15.77675,18.3639,15.70711Q18.2943,15.63746,18.2396,15.55557Q18.1849,15.47368,18.1472,15.38268Q18.1095,15.29169,18.0903,15.19509Q18.0711,15.09849,18.0711,15Q18.0711,14.90151,18.0903,14.80491Q18.1095,14.70831,18.1472,14.61732Q18.1849,14.52632,18.2396,14.44443Q18.2943,14.36254,18.3639,14.29289Q18.4336,14.22325,18.5155,14.16853Q18.5974,14.11381,18.6884,14.07612Q18.7794,14.03843,18.876,14.01921Q18.9726,14,19.0711,14Q19.1695,14,19.2661,14.01921Q19.3627,14.03843,19.4537,14.07612Q19.5447,14.11381,19.6266,14.16853Q19.7085,14.22325,19.7782,14.29289Q19.8478,14.36254,19.9025,14.44443Q19.9572,14.52632,19.9949,14.61732Q20.0326,14.70831,20.0518,14.80491Q20.071,14.90151,20.0711,15ZM11.0159,6.25Q11.0159,6.348491,10.99668,6.44509Q10.97747,6.541689,10.93978,6.632683Q10.90209,6.723678,10.84737,6.80557Q10.79265,6.887463,10.72301,6.957107Q10.65336,7.02675,10.57147,7.0814699999999995Q10.48958,7.13619,10.39858,7.1738800000000005Q10.30759,7.21157,10.21099,7.23079Q10.11439,7.25,10.0159,7.25Q9.91741,7.25,9.82081,7.23079Q9.72421,7.21157,9.63321,7.1738800000000005Q9.54222,7.13619,9.460329999999999,7.0814699999999995Q9.378440000000001,7.02675,9.30879,6.957107Q9.23915,6.887463,9.184429999999999,6.80557Q9.12971,6.723678,9.09202,6.632683Q9.05433,6.541689,9.03511,6.44509Q9.0159,6.348491,9.0159,6.25Q9.0159,6.151509,9.03511,6.0549097Q9.05433,5.9583108,9.09202,5.867317Q9.12971,5.776322,9.184429999999999,5.69443Q9.23915,5.612537,9.30879,5.542893Q9.378440000000001,5.473249,9.460329999999999,5.41853Q9.54222,5.363812,9.63321,5.326121Q9.72421,5.28843,9.82081,5.269215Q9.91741,5.25,10.0159,5.25Q10.11439,5.25,10.21099,5.269215Q10.30759,5.28843,10.39858,5.326121Q10.48958,5.363812,10.57147,5.41853Q10.65336,5.473249,10.72301,5.542893Q10.79265,5.612537,10.84737,5.69443Q10.90209,5.776322,10.93978,5.867317Q10.97747,5.9583108,10.99668,6.0549097Q11.0159,6.151509,11.0159,6.25ZM15,17.746000000000002Q15,17.8445,14.9808,17.9411Q14.9616,18.0377,14.9239,18.128700000000002Q14.8862,18.2197,14.8315,18.3016Q14.7767,18.383499999999998,14.7071,18.453200000000002Q14.6375,18.5228,14.5556,18.5775Q14.4737,18.632199999999997,14.3827,18.6699Q14.2917,18.7076,14.1951,18.7268Q14.0985,18.746000000000002,14,18.746000000000002Q13.9015,18.746000000000002,13.8049,18.7268Q13.7083,18.7076,13.6173,18.6699Q13.5263,18.632199999999997,13.4444,18.5775Q13.3625,18.5228,13.2929,18.453200000000002Q13.2232,18.383499999999998,13.1685,18.3016Q13.1138,18.2197,13.0761,18.128700000000002Q13.0384,18.0377,13.0192,17.9411Q13,17.8445,13,17.746000000000002Q13,17.6476,13.0192,17.551000000000002Q13.0384,17.4544,13.0761,17.3634Q13.1138,17.272399999999998,13.1685,17.1905Q13.2232,17.1086,13.2929,17.038899999999998Q13.3625,16.9693,13.4444,16.9146Q13.5263,16.8599,13.6173,16.822200000000002Q13.7083,16.7845,13.8049,16.7653Q13.9015,16.746000000000002,14,16.746000000000002Q14.0985,16.746000000000002,14.1951,16.7653Q14.2917,16.7845,14.3827,16.822200000000002Q14.4737,16.8599,14.5556,16.9146Q14.6375,16.9693,14.7071,17.038899999999998Q14.7767,17.1086,14.8315,17.1905Q14.8862,17.272399999999998,14.9239,17.3634Q14.9616,17.4544,14.9808,17.551000000000002Q15,17.6476,15,17.746000000000002ZM5.928929999999999,9Q5.928929999999999,9.09849,5.9097100000000005,9.19509Q5.890499999999999,9.29169,5.85281,9.38268Q5.81512,9.47368,5.760400000000001,9.55557Q5.70568,9.63746,5.6360399999999995,9.70711Q5.56639,9.77675,5.484500000000001,9.83147Q5.40261,9.88619,5.31161,9.92388Q5.22062,9.96157,5.12402,9.98078Q5.02742,10,4.928929999999999,10Q4.830439999999999,10,4.73384,9.98078Q4.63724,9.96157,4.546250000000001,9.92388Q4.4552499999999995,9.88619,4.37336,9.83147Q4.29147,9.77675,4.22182,9.70711Q4.1521799999999995,9.63746,4.09746,9.55557Q4.04274,9.47368,4.005050000000001,9.38268Q3.96736,9.29169,3.94814,9.19509Q3.9289300000000003,9.09849,3.9289300000000003,9Q3.9289300000000003,8.90151,3.94814,8.80491Q3.96736,8.70831,4.005050000000001,8.61732Q4.04274,8.52632,4.09746,8.44443Q4.1521799999999995,8.36254,4.22182,8.29289Q4.29147,8.22325,4.37336,8.16853Q4.4552499999999995,8.11381,4.546250000000001,8.07612Q4.63724,8.03843,4.73384,8.019210000000001Q4.830439999999999,8,4.928929999999999,8Q5.02742,8,5.12402,8.019210000000001Q5.22062,8.03843,5.31161,8.07612Q5.40261,8.11381,5.484500000000001,8.16853Q5.56639,8.22325,5.6360399999999995,8.29289Q5.70568,8.36254,5.760400000000001,8.44443Q5.81512,8.52632,5.85281,8.61732Q5.890499999999999,8.70831,5.9097100000000005,8.80491Q5.928929999999999,8.90151,5.928929999999999,9Z" fill="currentColor" fill-stroke-opacity="1"/></g><g><path d="M14.45003,14.499369736022949Q13.42935,15.49989973602295,12,15.49989973602295Q10.55026,15.49989973602295,9.5251307,14.47476973602295Q8.5,13.449639736022949,8.5,11.999899736022948Q8.5,10.63785073602295,9.4201306,9.634623736022949Q9.4867035,9.562038736022949,9.5661579,9.50383573602295Q9.645612,9.445632736022949,9.734895,9.40404973602295Q9.824177,9.36246573602295,9.919857,9.339099736022948Q10.015536,9.31573273602295,10.113936,9.31148173602295Q10.212335,9.307229736022949,10.309674,9.32225773602295Q10.407012,9.33728473602295,10.499548,9.371013736022949Q10.59208,9.404741736022949,10.67626,9.455874736022949Q10.76044,9.507007736022949,10.83303,9.573580736022949Q10.90561,9.640153736022949,10.96381,9.71960773602295Q11.02202,9.799062736022949,11.063600000000001,9.88834473602295Q11.10518,9.97762773602295,11.12855,10.07330673602295Q11.15192,10.16898673602295,11.15617,10.267385936022949Q11.16042,10.36578553602295,11.145389999999999,10.463123736022949Q11.13036,10.56046173602295,11.09664,10.65299873602295Q11.06291,10.745534736022949,11.01177,10.82971273602295Q10.96064,10.91389073602295,10.89407,10.98647573602295Q10.5,11.416129736022949,10.5,11.999899736022948Q10.5,12.62120973602295,10.93934,13.060559736022949Q11.37869,13.49989973602295,12,13.49989973602295Q12.61257,13.49989973602295,13.04997,13.07112973602295Q13.12031,13.00217973602295,13.20274,12.948279736022949Q13.28518,12.894379736022948,13.37654,12.85759973602295Q13.46791,12.82081973602295,13.564689999999999,12.80256973602295Q13.661480000000001,12.78431973602295,13.75996,12.78529973602295Q13.858450000000001,12.78627973602295,13.95485,12.80645973602295Q14.05126,12.82662973602295,14.14187,12.865229736022949Q14.232479999999999,12.90382973602295,14.31383,12.95935973602295Q14.39517,13.01488973602295,14.464120000000001,13.08521973602295Q14.533059999999999,13.15555973602295,14.586960000000001,13.23798973602295Q14.64086,13.320429736022948,14.67765,13.41178973602295Q14.71443,13.50315973602295,14.73268,13.59993973602295Q14.75093,13.696729736022949,14.74995,13.795219736022949Q14.74897,13.893699736022949,14.72879,13.990099736022948Q14.70862,14.086509736022949,14.670020000000001,14.177119736022949Q14.63142,14.26773973602295,14.575890000000001,14.349079736022949Q14.52036,14.430419736022948,14.45003,14.499369736022949ZM14.75,13.78524973602295Q14.75,13.88373973602295,14.73078,13.980339736022948Q14.71157,14.076939736022949,14.67388,14.167929736022948Q14.63619,14.25892973602295,14.58147,14.340819736022949Q14.52675,14.422709736022949,14.45711,14.492359736022948Q14.38746,14.56199973602295,14.30557,14.616719736022949Q14.22368,14.67143973602295,14.13268,14.709129736022948Q14.04169,14.74681973602295,13.94509,14.766029736022949Q13.84849,14.78524973602295,13.75,14.78524973602295Q13.65151,14.78524973602295,13.55491,14.766029736022949Q13.45831,14.74681973602295,13.36732,14.709129736022948Q13.27632,14.67143973602295,13.19443,14.616719736022949Q13.11254,14.56199973602295,13.04289,14.492359736022948Q12.97325,14.422709736022949,12.91853,14.340819736022949Q12.86381,14.25892973602295,12.82612,14.167929736022948Q12.78843,14.076939736022949,12.769210000000001,13.980339736022948Q12.75,13.88373973602295,12.75,13.78524973602295Q12.75,13.68675973602295,12.769210000000001,13.59015973602295Q12.78843,13.493559736022949,12.82612,13.402569736022949Q12.86381,13.31156973602295,12.91853,13.229679736022948Q12.97325,13.147789736022949,13.04289,13.07813973602295Q13.11254,13.00849973602295,13.19443,12.953779736022948Q13.27632,12.899059736022949,13.36732,12.861369736022949Q13.45831,12.82367973602295,13.55491,12.804459736022949Q13.65151,12.78524973602295,13.75,12.78524973602295Q13.84849,12.78524973602295,13.94509,12.804459736022949Q14.04169,12.82367973602295,14.13268,12.861369736022949Q14.22368,12.899059736022949,14.30557,12.953779736022948Q14.38746,13.00849973602295,14.45711,13.07813973602295Q14.52675,13.147789736022949,14.58147,13.229679736022948Q14.63619,13.31156973602295,14.67388,13.402569736022949Q14.71157,13.493559736022949,14.73078,13.59015973602295Q14.75,13.68675973602295,14.75,13.78524973602295ZM11.1571,10.31054973602295Q11.1571,10.40904113602295,11.13788,10.50563973602295Q11.11867,10.602238736022949,11.08098,10.69323273602295Q11.04329,10.784227736022949,10.98857,10.866119736022949Q10.93385,10.94801273602295,10.86421,11.01765673602295Q10.79456,11.08730073602295,10.71267,11.142019736022949Q10.63078,11.19673773602295,10.53978,11.234428736022949Q10.448789,11.27211973602295,10.35219,11.29133473602295Q10.255591,11.31054973602295,10.1571,11.31054973602295Q10.058608,11.31054973602295,9.962009,11.29133473602295Q9.86541,11.27211973602295,9.774416,11.234428736022949Q9.683422,11.19673773602295,9.601529,11.142019736022949Q9.5196369,11.08730073602295,9.4499929,11.01765673602295Q9.380349,10.94801273602295,9.32563,10.866119736022949Q9.270911,10.784227736022949,9.23322,10.69323273602295Q9.195529,10.602238736022949,9.176314,10.50563973602295Q9.1571,10.40904113602295,9.1571,10.31054973602295Q9.1571,10.212058336022949,9.176314,10.115459736022949Q9.195529,10.01886073602295,9.23322,9.92786673602295Q9.270911,9.83687173602295,9.32563,9.75497973602295Q9.380349,9.673086736022949,9.4499929,9.603442736022949Q9.5196369,9.533798736022948,9.601529,9.47907973602295Q9.683422,9.424361736022949,9.774416,9.38667073602295Q9.86541,9.34897973602295,9.962009,9.329764736022948Q10.058608,9.31054973602295,10.1571,9.31054973602295Q10.255591,9.31054973602295,10.35219,9.329764736022948Q10.448789,9.34897973602295,10.53978,9.38667073602295Q10.63078,9.424361736022949,10.71267,9.47907973602295Q10.79456,9.533798736022948,10.86421,9.603442736022949Q10.93385,9.673086736022949,10.98857,9.75497973602295Q11.04329,9.83687173602295,11.08098,9.92786673602295Q11.11867,10.01886073602295,11.13788,10.115459736022949Q11.1571,10.212058336022949,11.1571,10.31054973602295Z" fill="currentColor" fill-stroke-opacity="1"/></g><g><path d="M3.707107,2.292893L21.7071,20.2929Q21.7768,20.3625,21.8315,20.4444Q21.8862,20.5263,21.9239,20.6173Q21.9616,20.7083,21.9808,20.8049Q22,20.9015,22,21Q22,21.0985,21.9808,21.1951Q21.9616,21.2917,21.9239,21.3827Q21.8862,21.4737,21.8315,21.5556Q21.7768,21.6375,21.7071,21.7071Q21.6375,21.7768,21.5556,21.8315Q21.4737,21.8862,21.3827,21.9239Q21.2917,21.9616,21.1951,21.9808Q21.0985,22,21,22Q20.9015,22,20.8049,21.9808Q20.7083,21.9616,20.6173,21.9239Q20.5263,21.8862,20.4444,21.8315Q20.3625,21.7768,20.2929,21.7071L2.292893,3.707107Q2.223249,3.637463,2.16853,3.55557Q2.1138120000000002,3.473678,2.076121,3.382683Q2.03843,3.291689,2.019215,3.19509Q2,3.0984914,2,3Q2,2.9015086,2.019215,2.80491Q2.03843,2.708311,2.076121,2.617317Q2.1138120000000002,2.526322,2.16853,2.44443Q2.223249,2.362537,2.292893,2.292893Q2.362537,2.223249,2.44443,2.16853Q2.526322,2.1138120000000002,2.617317,2.076121Q2.708311,2.03843,2.80491,2.019215Q2.9015086,2,3,2Q3.0984914,2,3.19509,2.019215Q3.291689,2.03843,3.382683,2.076121Q3.473678,2.1138120000000002,3.55557,2.16853Q3.637463,2.223249,3.707107,2.292893ZM4,3Q4,3.0984914,3.980785,3.19509Q3.96157,3.291689,3.923879,3.382683Q3.8861879999999998,3.473678,3.83147,3.55557Q3.776751,3.637463,3.707107,3.707107Q3.637463,3.776751,3.55557,3.83147Q3.473678,3.8861879999999998,3.382683,3.923879Q3.291689,3.96157,3.19509,3.980785Q3.0984914,4,3,4Q2.9015086,4,2.80491,3.980785Q2.708311,3.96157,2.617317,3.923879Q2.526322,3.8861879999999998,2.44443,3.83147Q2.362537,3.776751,2.292893,3.707107Q2.223249,3.637463,2.16853,3.55557Q2.1138120000000002,3.473678,2.076121,3.382683Q2.03843,3.291689,2.019215,3.19509Q2,3.0984914,2,3Q2,2.9015086,2.019215,2.80491Q2.03843,2.708311,2.076121,2.617317Q2.1138120000000002,2.526322,2.16853,2.44443Q2.223249,2.362537,2.292893,2.292893Q2.362537,2.223249,2.44443,2.16853Q2.526322,2.1138120000000002,2.617317,2.076121Q2.708311,2.03843,2.80491,2.019215Q2.9015086,2,3,2Q3.0984914,2,3.19509,2.019215Q3.291689,2.03843,3.382683,2.076121Q3.473678,2.1138120000000002,3.55557,2.16853Q3.637463,2.223249,3.707107,2.292893Q3.776751,2.362537,3.83147,2.44443Q3.8861879999999998,2.526322,3.923879,2.617317Q3.96157,2.708311,3.980785,2.80491Q4,2.9015086,4,3ZM22,21Q22,21.0985,21.9808,21.1951Q21.9616,21.2917,21.9239,21.3827Q21.8862,21.4737,21.8315,21.5556Q21.7767,21.6375,21.7071,21.7071Q21.6375,21.7767,21.5556,21.8315Q21.4737,21.8862,21.3827,21.9239Q21.2917,21.9616,21.1951,21.9808Q21.0985,22,21,22Q20.9015,22,20.8049,21.9808Q20.7083,21.9616,20.6173,21.9239Q20.5263,21.8862,20.4444,21.8315Q20.3625,21.7767,20.2929,21.7071Q20.2232,21.6375,20.1685,21.5556Q20.1138,21.4737,20.0761,21.3827Q20.0384,21.2917,20.0192,21.1951Q20,21.0985,20,21Q20,20.9015,20.0192,20.8049Q20.0384,20.7083,20.0761,20.6173Q20.1138,20.5263,20.1685,20.4444Q20.2232,20.3625,20.2929,20.2929Q20.3625,20.2232,20.4444,20.1685Q20.5263,20.1138,20.6173,20.0761Q20.7083,20.0384,20.8049,20.0192Q20.9015,20,21,20Q21.0985,20,21.1951,20.0192Q21.2917,20.0384,21.3827,20.0761Q21.4737,20.1138,21.5556,20.1685Q21.6375,20.2232,21.7071,20.2929Q21.7767,20.3625,21.8315,20.4444Q21.8862,20.5263,21.9239,20.6173Q21.9616,20.7083,21.9808,20.8049Q22,20.9015,22,21Z" fill="currentColor" fill-stroke-opacity="1"/></g></g></svg>