<?xml version="1.0" encoding="UTF-8"?>
<svg width="25px" height="25px" viewBox="0 0 25 25" version="1.1" xmlns="http://www.w3.org/2000/svg" xmlns:xlink="http://www.w3.org/1999/xlink">
    <title>图片</title>
    <defs>
        <rect id="path-1" x="0" y="0" width="23.25" height="23.25"></rect>
    </defs>
    <g id="图表器" stroke="none" stroke-width="1" fill="none" fill-rule="evenodd">
        <g id="统计图表/筛选" transform="translate(-218.000000, -518.000000)">
            <g id="图片" transform="translate(218.875000, 518.875000)">
                <mask id="mask-2" fill="white">
                    <use xlink:href="#path-1"></use>
                </mask>
                <g id="矩形"></g>
                <g id="编组" mask="url(#mask-2)">
                    <g transform="translate(1.937500, 1.937500)">
                        <path d="M19.375,16.953125 L19.375,2.421875 C19.375,1.75309198 19.1385604,1.18225217 18.6656812,0.709355563 C18.1927375,0.236451854 17.6218854,0 16.953125,0 L2.421875,0 C1.75309392,0 1.18225281,0.236450562 0.709351687,0.709351687 C0.236450563,1.18225281 0,1.75309392 0,2.421875 L0,16.953125 C0,17.6218854 0.236451854,18.1927375 0.709355563,18.6656812 C1.18225217,19.1385604 1.75309198,19.375 2.421875,19.375 L16.953125,19.375 C17.62195,19.375 18.1928021,19.1385604 18.6656812,18.6656812 C19.1385604,18.1928021 19.375,17.62195 19.375,16.953125 Z M17.295675,2.07936375 C17.390225,2.17394604 17.4375,2.28811646 17.4375,2.421875 L17.4375,16.953125 C17.4375,17.0868771 17.390225,17.2010604 17.295675,17.295675 C17.2010604,17.390225 17.0868771,17.4375 16.953125,17.4375 L2.421875,17.4375 C2.28811646,17.4375 2.17394604,17.390225 2.07936375,17.295675 C1.98478792,17.2010604 1.9375,17.0868771 1.9375,16.953125 L1.9375,2.421875 C1.9375,2.28811646 1.98479115,2.17394927 2.07937344,2.07937344 C2.17394927,1.98479115 2.28811646,1.9375 2.421875,1.9375 L16.953125,1.9375 C17.0868771,1.9375 17.2010604,1.98478792 17.295675,2.07936375 Z" id="形状" fill="#1890FF"></path>
                        <g id="编组" stroke-width="1" fill="none" transform="translate(3.390625, 3.390625)">
                            <path d="M5.8125,3.390625 C5.8125,3.46994625 5.80861208,3.54907375 5.80083625,3.6280075 C5.79306042,3.70694771 5.78143542,3.78531635 5.76596125,3.86311344 C5.75048708,3.94090406 5.73123802,4.01775177 5.70821406,4.09365656 C5.6851901,4.16956135 5.65850104,4.2441551 5.62814688,4.31743781 C5.59779271,4.39072052 5.56391875,4.46233698 5.526525,4.53228719 C5.48913771,4.60224385 5.44840823,4.67019844 5.40433656,4.73615094 C5.36027135,4.80209698 5.31308031,4.86572771 5.26276344,4.92704312 C5.2124401,4.98835854 5.15923635,5.04706156 5.10315219,5.10315219 C5.04706156,5.15923635 4.98835854,5.2124401 4.92704313,5.26276344 C4.86572771,5.31308031 4.80209698,5.36027135 4.73615094,5.40433656 C4.67019844,5.44840823 4.60224385,5.48913771 4.53228719,5.526525 C4.46233698,5.56391875 4.39072052,5.59779271 4.31743781,5.62814688 C4.2441551,5.65850104 4.16956135,5.6851901 4.09365656,5.70821406 C4.01775177,5.73123802 3.94090406,5.75048708 3.86311344,5.76596125 C3.78531635,5.78143542 3.70694771,5.79306042 3.6280075,5.80083625 C3.54907375,5.80861208 3.46994625,5.8125 3.390625,5.8125 C3.31130375,5.8125 3.23217625,5.80861208 3.1532425,5.80083625 C3.07430229,5.79306042 2.99593365,5.78143542 2.91813656,5.76596125 C2.84034594,5.75048708 2.76349823,5.73123802 2.68759344,5.70821406 C2.61168865,5.6851901 2.5370949,5.65850104 2.46381219,5.62814688 C2.39052948,5.59779271 2.31891302,5.56391875 2.24896281,5.526525 C2.17900615,5.48913771 2.11105156,5.44840823 2.04509906,5.40433656 C1.97915302,5.36027135 1.91552132,5.31308031 1.85420397,5.26276344 C1.7928892,5.2124401 1.73418811,5.15923635 1.67810072,5.10315219 C1.62201332,5.04706156 1.5688099,4.98835854 1.51849044,4.92704312 C1.46817098,4.86572771 1.42097735,4.80209698 1.37690956,4.73615094 C1.33284177,4.67019844 1.29211261,4.60224385 1.25472209,4.53228719 C1.21733093,4.46233698 1.18345826,4.39072052 1.15310409,4.31743781 C1.12274993,4.2441551 1.09606022,4.16956135 1.07303497,4.09365656 C1.05000985,4.01775177 1.03076008,3.94090406 1.01528565,3.86311344 C0.999811225,3.78531635 0.988186677,3.70694771 0.980412006,3.6280075 C0.972637335,3.54907375 0.96875,3.46994625 0.96875,3.390625 C0.96875,3.31130375 0.972637335,3.23217625 0.980412006,3.1532425 C0.988186677,3.07430229 0.999811225,2.99593365 1.01528565,2.91813656 C1.03076008,2.84034594 1.05000985,2.76349823 1.07303497,2.68759344 C1.09606022,2.61168865 1.12274993,2.5370949 1.15310409,2.46381219 C1.18345826,2.39052948 1.21733093,2.31891302 1.25472209,2.24896281 C1.29211261,2.17900615 1.33284177,2.11105156 1.37690956,2.04509906 C1.42097735,1.97915302 1.46817098,1.91552132 1.51849044,1.85420397 C1.5688099,1.7928892 1.62201332,1.73418811 1.67810072,1.67810072 C1.73418811,1.62201332 1.7928892,1.5688099 1.85420397,1.51849044 C1.91552132,1.46817098 1.97915302,1.42097735 2.04509906,1.37690956 C2.11105156,1.33284177 2.17900615,1.29211261 2.24896281,1.25472209 C2.31891302,1.21733093 2.39052948,1.18345826 2.46381219,1.15310409 C2.5370949,1.12274993 2.61168865,1.09606022 2.68759344,1.07303497 C2.76349823,1.05000985 2.84034594,1.03076008 2.91813656,1.01528565 C2.99593365,0.999811225 3.07430229,0.988186677 3.1532425,0.980412006 C3.23217625,0.972637335 3.31130375,0.96875 3.390625,0.96875 C3.46994625,0.96875 3.54907375,0.972637335 3.6280075,0.980412006 C3.70694771,0.988186677 3.78531635,0.999811225 3.86311344,1.01528565 C3.94090406,1.03076008 4.01775177,1.05000985 4.09365656,1.07303497 C4.16956135,1.09606022 4.2441551,1.12274993 4.31743781,1.15310409 C4.39072052,1.18345826 4.46233698,1.21733093 4.53228719,1.25472209 C4.60224385,1.29211261 4.67019844,1.33284177 4.73615094,1.37690956 C4.80209698,1.42097735 4.86572771,1.46817098 4.92704313,1.51849044 C4.98835854,1.5688099 5.04706156,1.62201332 5.10315219,1.67810072 C5.15923635,1.73418811 5.2124401,1.7928892 5.26276344,1.85420397 C5.31308031,1.91552132 5.36027135,1.97915302 5.40433656,2.04509906 C5.44840823,2.11105156 5.48913771,2.17900615 5.526525,2.24896281 C5.56391875,2.31891302 5.59779271,2.39052948 5.62814688,2.46381219 C5.65850104,2.5370949 5.6851901,2.61168865 5.70821406,2.68759344 C5.73123802,2.76349823 5.75048708,2.84034594 5.76596125,2.91813656 C5.78143542,2.99593365 5.79306042,3.07430229 5.80083625,3.1532425 C5.80861208,3.23217625 5.8125,3.31130375 5.8125,3.390625 Z" id="路径" fill="#00B42A" fill-rule="nonzero"></path>
                            <path d="M0.993095366,0.993095366 C0.331031789,1.65515804 0,2.45433458 0,3.390625 C0,4.32691542 0.331031789,5.12609219 0.993095366,5.78815531 C1.65515804,6.45021844 2.45433458,6.78125 3.390625,6.78125 C4.32691542,6.78125 5.12609219,6.45021844 5.78815531,5.78815531 C6.45021844,5.12609219 6.78125,4.32691542 6.78125,3.390625 C6.78125,2.45433458 6.45021844,1.65515804 5.78815531,0.993095366 C5.12609219,0.331031789 4.32691542,0 3.390625,0 C2.45433458,0 1.65515804,0.331031789 0.993095366,0.993095366 Z M2.36311063,4.41813937 C2.07937021,4.1343925 1.9375,3.79188771 1.9375,3.390625 C1.9375,2.98936229 2.07937021,2.6468575 2.36311063,2.36311063 C2.6468575,2.07937021 2.98936229,1.9375 3.390625,1.9375 C3.79188771,1.9375 4.1343925,2.07937021 4.41813937,2.36311063 C4.70187979,2.6468575 4.84375,2.98936229 4.84375,3.390625 C4.84375,3.79188771 4.70187979,4.1343925 4.41813937,4.41813937 C4.1343925,4.70187979 3.79188771,4.84375 3.390625,4.84375 C2.98936229,4.84375 2.6468575,4.70187979 2.36311063,4.41813937 Z" id="形状" fill="#00B42A"></path>
                        </g>
                        <path d="M0.387658875,14.2405088 L0.3875,14.240625 C0.284728542,14.3177052 0.200617146,14.4115157 0.135165813,14.5220566 C0.0697138333,14.6325909 0.0279041979,14.7514469 0.00973690625,14.8786244 C0.00324563542,14.9240588 0,14.9697256 0,15.015625 L0,15.0189478 C0.000363604167,15.1231853 0.0171084479,15.2247168 0.0502403438,15.3235422 C0.0833715938,15.4223741 0.131208146,15.513485 0.19375,15.596875 C0.270828917,15.6996465 0.364638469,15.7837566 0.475178656,15.8492053 C0.585718844,15.9146605 0.704575427,15.9564718 0.831748406,15.9746391 C0.877184912,15.9811297 0.92285211,15.984375 0.96875,15.984375 L0.972073733,15.9843653 C1.07630868,15.9840101 1.17784145,15.9672669 1.27667203,15.9341356 C1.37550197,15.9010044 1.46661129,15.8531675 1.55,15.790625 L4.80331437,13.3506344 L7.60392219,15.7511581 C7.6482199,15.7891267 7.69555948,15.8228166 7.74594094,15.8522278 C7.7963224,15.8816455 7.84893198,15.9063099 7.90376969,15.9262209 C7.9586074,15.9461255 8.01478844,15.9609603 8.07231281,15.9707253 C8.12983073,15.9804839 8.18775552,15.9850111 8.24608719,15.9843072 C8.30442531,15.9835968 8.3622274,15.977668 8.41949344,15.9665209 C8.47675948,15.9553739 8.53256271,15.939186 8.58690313,15.9179575 C8.64124354,15.8967225 8.69324281,15.8707923 8.74290094,15.8401669 C8.79255906,15.8095479 8.83906875,15.7747214 8.88243,15.7356872 L13.0748313,11.9625125 L17.7540875,16.2163325 L17.7545719,16.2168169 C17.8437615,16.297869 17.9445437,16.3601208 18.0569187,16.4035725 C18.1692937,16.4470242 18.2857375,16.46875 18.40625,16.46875 L18.4086719,16.46875 C18.4232677,16.46875 18.4378313,16.4683464 18.4523625,16.4676553 C18.5806896,16.4615457 18.7029458,16.4311141 18.8191312,16.3763603 C18.9353167,16.321613 19.0366156,16.2467093 19.1230281,16.1516491 C19.2040802,16.0624918 19.2663385,15.9617192 19.3098031,15.8493312 C19.3532677,15.7369433 19.375,15.6205028 19.375,15.5000097 C19.375,15.4846324 19.3746448,15.469268 19.3739344,15.4539166 C19.367799,15.3256024 19.3373479,15.2033365 19.2825813,15.0871188 C19.2278792,14.9709075 19.1529948,14.8695956 19.0579281,14.7831831 L19.0573469,14.7826987 L13.7298031,9.93943312 C13.6857573,9.89938952 13.6384177,9.86370917 13.5877844,9.83239206 C13.537151,9.80107496 13.4840958,9.77464875 13.4286188,9.75311344 C13.3730771,9.73157748 13.3160823,9.7152957 13.2576344,9.70426809 C13.1991219,9.69324049 13.1400927,9.68765209 13.0805469,9.68749979 C13.021001,9.68735243 12.9619719,9.69264568 12.9034594,9.70338266 C12.8448823,9.7141177 12.7877906,9.73011402 12.7321844,9.75137162 C12.6765781,9.77262987 12.6233937,9.79879065 12.5726313,9.82985394 C12.5218042,9.86091788 12.4742708,9.89636121 12.4300313,9.93618394 L8.21877813,13.726335 L5.47420281,11.3738448 C5.43266281,11.3382413 5.38842646,11.3063849 5.34149375,11.2782757 C5.29456104,11.2501664 5.24559719,11.226205 5.19460219,11.2063915 C5.14360719,11.1865773 5.09131083,11.1711936 5.03771313,11.1602403 C4.98410896,11.1492869 4.92996875,11.1429196 4.8752925,11.1411384 C4.82060979,11.1393572 4.76616927,11.1421876 4.71197094,11.1496295 C4.6577726,11.1570715 4.604585,11.1690191 4.55240812,11.1854723 C4.50023125,11.2019256 4.44981104,11.2226497 4.4011475,11.2476447 C4.35248396,11.2726398 4.30626813,11.3015499 4.2625,11.334375 L0.387658875,14.2405088 Z" id="路径" fill="#1890FF"></path>
                    </g>
                </g>
            </g>
        </g>
    </g>
</svg>