<svg viewBox="0 0 24 24" fill="none" xmlns="http://www.w3.org/2000/svg">
  <defs>
    <clipPath id="a">
      <rect rx="0" height="24" width="24" />
    </clipPath>
  </defs>
  <g clip-path="url(#a)">
    <path fill="currentColor"
      d="M14 7.5q0 .074-.007.147t-.022.146q-.014.072-.036.142-.021.07-.05.139-.027.068-.062.133t-.076.126q-.04.062-.087.119-.047.057-.1.109-.051.052-.108.099-.057.046-.119.087-.06.041-.126.076-.065.035-.133.063-.068.028-.139.05-.07.02-.142.035-.073.015-.146.022Q12.574 9 12.5 9t-.147-.007q-.073-.007-.146-.022-.072-.014-.142-.036-.07-.021-.139-.05-.068-.027-.133-.062t-.126-.076q-.062-.04-.119-.087-.057-.047-.109-.1-.052-.051-.099-.108-.046-.057-.087-.119-.041-.06-.076-.126-.035-.065-.063-.133-.028-.068-.05-.139-.02-.07-.035-.142-.015-.073-.022-.146Q11 7.574 11 7.5t.007-.147q.007-.073.022-.146.014-.072.036-.142.021-.07.05-.139.027-.068.062-.133t.076-.126q.04-.062.087-.119.047-.057.1-.109.051-.052.108-.099.057-.046.119-.087.06-.041.126-.076.065-.035.133-.063.068-.028.139-.05.07-.02.142-.035.073-.015.146-.022Q12.426 6 12.5 6t.147.007q.073.007.146.022.072.014.142.036.07.021.139.05.068.027.133.062t.126.076q.062.04.119.087.057.047.109.1.052.051.099.108.046.057.087.119.041.06.076.126.035.065.063.133.028.068.05.139.02.07.035.142.015.073.022.146.007.073.007.147Z" />
    <path fill="currentColor"
      d="M8 7.5q0 2.621 5.205 7.79L12.5 16l-.705-.71Q17 10.122 17 7.5q0-1.864-1.318-3.182Q14.364 3 12.5 3q-1.864 0-3.182 1.318Q8 5.636 8 7.5Zm-2 0q0-2.692 1.904-4.596T12.5 1q2.692 0 4.596 1.904T19 7.5q0 3.454-5.795 9.21-.07.069-.152.123-.081.054-.172.092-.09.037-.187.056-.096.019-.194.019t-.194-.019q-.096-.02-.187-.056-.09-.038-.172-.092-.082-.054-.152-.123Q6 10.953 6 7.5Z" />
    <path fill="currentColor"
      d="M21 12v7h1l-.42-.908-6.5 3 .42.908.496-.868-7-4q-.18-.103-.386-.126-.206-.023-.404.038l-6.5 2L2 20h1v-8q0-.098-.02-.195-.018-.097-.056-.188-.038-.09-.093-.173-.054-.081-.124-.151-.07-.07-.151-.124-.082-.055-.173-.093-.091-.038-.188-.057Q2.1 11 2 11t-.195.02q-.097.018-.188.056-.09.038-.173.093-.082.054-.151.124-.07.07-.124.151-.055.082-.093.173-.038.091-.057.188Q1 11.902 1 12v8q0 .15.044.294.03.094.076.18.047.088.11.163.062.076.139.139.076.062.163.108.087.046.181.074.095.028.193.038.098.009.196-.001.098-.01.192-.04l6.5-2L8.5 18l-.496.868 7 4q.104.06.218.093.115.033.235.038.119.005.236-.018.118-.023.226-.073l6.5-3q.13-.06.238-.154.108-.094.185-.215.078-.12.118-.258.04-.138.04-.281v-7q0-.098-.02-.195-.018-.097-.056-.188-.038-.09-.093-.173-.054-.081-.124-.151-.07-.07-.151-.124-.082-.055-.173-.093-.091-.038-.188-.057Q22.098 11 22 11t-.195.02q-.097.018-.188.056-.09.038-.173.093-.081.054-.151.124-.07.07-.124.151-.055.082-.093.173-.038.091-.057.188Q21 11.902 21 12Zm0 0q0 .098.02.195.018.097.056.188.038.09.093.173.054.081.124.151.07.07.151.124.082.055.173.093.091.038.188.057.097.019.195.019t.195-.02q.097-.018.188-.056.09-.038.173-.093.081-.054.151-.124.07-.07.124-.151.055-.082.093-.173.038-.091.057-.188Q23 12.098 23 12t-.02-.195q-.018-.097-.056-.188-.038-.09-.093-.173-.054-.081-.124-.151-.07-.07-.151-.124-.082-.055-.173-.093-.091-.038-.188-.057Q22.098 11 22 11t-.195.02q-.097.018-.188.056-.09.038-.173.093-.081.054-.151.124-.07.07-.124.151-.055.082-.093.173-.038.091-.057.188Q21 11.902 21 12ZM1 12q0 .098.02.195.018.097.056.188.038.09.093.173.054.081.124.151.07.07.151.124.082.055.173.093.091.038.188.057Q1.9 13 2 13t.195-.02q.097-.018.188-.056.09-.038.173-.093.082-.054.151-.124.07-.07.124-.151.055-.082.093-.173.038-.091.057-.188Q3 12.098 3 12t-.02-.195q-.018-.097-.056-.188-.038-.09-.093-.173-.054-.081-.124-.151-.07-.07-.151-.124-.082-.055-.173-.093-.091-.038-.188-.057Q2.1 11 2 11t-.195.02q-.097.018-.188.056-.09.038-.173.093-.082.054-.151.124-.07.07-.124.151-.055.082-.093.173-.038.091-.057.188Q1 11.902 1 12Z" />
  </g>
</svg>