<svg viewBox="0 0 24 24" fill="none" xmlns="http://www.w3.org/2000/svg"><defs><clipPath id="a"><rect rx="0" height="24" width="24"/></clipPath></defs><g clip-path="url(#a)"><path fill="#333" d="M9.16 14.975Q10.327 16 11.9 16q1.704 0 2.906-1.179Q16 13.651 16 12q0-1.651-1.194-2.821Q13.604 8 11.9 8q-.098 0-.195-.02-.097-.018-.188-.056-.09-.038-.173-.093-.081-.054-.151-.124-.07-.07-.124-.151-.055-.082-.093-.173-.038-.091-.057-.188Q10.9 7.098 10.9 7t.02-.195q.018-.097.056-.188.038-.09.093-.173.054-.081.124-.151.07-.07.151-.124.082-.055.173-.093.091-.038.188-.057Q11.802 6 11.9 6q2.52 0 4.306 1.75Q18 9.51 18 12t-1.794 4.25Q14.421 18 11.9 18q-2.326 0-4.06-1.521-.074-.065-.134-.144-.06-.078-.103-.166-.044-.088-.069-.184-.025-.095-.032-.193-.006-.098.007-.196.012-.098.044-.19.032-.094.081-.18.05-.085.114-.159.065-.074.143-.134.079-.06.167-.103.088-.044.183-.07.096-.025.194-.031.098-.006.196.006.097.013.19.045.094.032.18.081.085.05.159.114Zm.34.752q0 .098-.02.195-.018.097-.056.188-.038.09-.093.172-.054.082-.124.152-.07.07-.151.124-.082.055-.173.093-.091.037-.188.057-.097.019-.195.019t-.195-.02q-.097-.019-.188-.056-.09-.038-.173-.093-.081-.054-.151-.124-.07-.07-.124-.152-.055-.081-.093-.172-.038-.091-.057-.188-.019-.097-.019-.195 0-.099.02-.195.018-.097.056-.188.038-.09.093-.173.054-.082.124-.151.07-.07.151-.125.082-.054.173-.092.091-.038.188-.057.097-.02.195-.02t.195.02q.097.02.188.057.09.038.173.092.081.055.151.125.07.07.124.151.055.082.093.173.038.091.057.188.019.096.019.195ZM12.9 7q0 .098-.02.195-.018.097-.056.188-.038.09-.093.173-.054.081-.124.151-.07.07-.151.124-.082.055-.173.093-.091.038-.188.057Q11.998 8 11.9 8t-.195-.02q-.097-.018-.188-.056-.09-.038-.173-.093-.081-.054-.151-.124-.07-.07-.124-.151-.055-.082-.093-.173-.038-.091-.057-.188Q10.9 7.098 10.9 7t.02-.195q.018-.097.056-.188.038-.09.093-.173.054-.081.124-.151.07-.07.151-.124.082-.055.173-.093.091-.038.188-.057Q11.802 6 11.9 6t.195.02q.097.018.188.056.09.038.173.093.081.054.151.124.07.07.124.151.055.082.093.173.038.091.057.188.019.097.019.195Z" data-follow-fill="#333"/><path fill="#333" d="M5.5 5.775Q3 8.385 3 12q0 1.868.734 3.566.71 1.642 1.999 2.893Q8.35 21 12 21q1.832 0 3.503-.707 1.615-.683 2.861-1.929 1.246-1.246 1.93-2.861Q21 13.832 21 12t-.707-3.503q-.683-1.615-1.929-2.861-1.246-1.246-2.861-1.93Q13.832 3 12 3q-.098 0-.195-.02-.097-.018-.188-.056-.09-.038-.173-.093-.081-.054-.151-.124-.07-.07-.124-.151-.055-.082-.093-.173-.038-.091-.057-.188Q11 2.098 11 2t.02-.195q.018-.097.056-.188.038-.09.093-.173.054-.081.124-.151.07-.07.151-.124.082-.055.173-.093.091-.038.188-.057Q11.902 1 12 1q2.237 0 4.282.865 1.974.835 3.496 2.357 1.522 1.522 2.357 3.496Q23 9.763 23 12t-.865 4.282q-.835 1.974-2.357 3.496-1.522 1.522-3.496 2.357Q14.237 23 12 23q-2.193 0-4.204-.832-1.942-.804-3.456-2.273-1.575-1.529-2.442-3.536Q1 14.281 1 12q0-2.174.818-4.17.79-1.928 2.238-3.438.068-.072.148-.128.081-.056.171-.096.09-.04.187-.061.096-.021.194-.023.099-.003.196.015.097.017.189.052.091.036.174.09.083.052.155.12.07.068.127.149.057.08.096.17.04.091.061.187.021.096.024.195.002.098-.015.195-.018.097-.053.19-.036.09-.089.174-.053.083-.121.154Zm.278-.692q0 .099-.02.195-.019.097-.056.188-.038.091-.093.173-.054.082-.124.151-.07.07-.152.125-.082.055-.173.092-.09.038-.187.057-.097.02-.195.02-.099 0-.195-.02-.097-.02-.188-.057-.09-.037-.173-.092-.082-.055-.151-.125-.07-.07-.125-.151-.054-.082-.092-.173-.038-.091-.057-.188-.02-.096-.02-.195 0-.098.02-.195.02-.096.057-.187.038-.091.092-.173.055-.082.125-.152.07-.07.151-.124.082-.055.173-.093.091-.037.188-.056.096-.02.195-.02.098 0 .195.02.096.019.187.056.091.038.173.093.082.055.152.124.07.07.124.152.055.082.093.173.037.09.057.187.019.097.019.195ZM13 2q0 .098-.02.195-.018.097-.056.188-.038.09-.092.173-.055.081-.125.151-.07.07-.151.124-.082.055-.173.093-.091.038-.188.057Q12.098 3 12 3t-.195-.02q-.097-.018-.188-.056-.09-.038-.173-.093-.081-.054-.151-.124-.07-.07-.124-.151-.055-.082-.093-.173-.038-.091-.057-.188Q11 2.098 11 2t.02-.195q.018-.097.056-.188.038-.09.093-.173.054-.081.124-.151.07-.07.151-.124.082-.055.173-.093.091-.038.188-.057Q11.902 1 12 1t.195.02q.097.018.188.056.09.038.173.093.082.054.151.124.07.07.124.151.055.082.093.173.038.091.057.188Q13 1.902 13 2Z" data-follow-fill="#333"/><path fill="#333" d="m4.319 18.48 6.963-7.176L12 12l-.692.722-7.222-6.916q-.071-.069-.127-.15-.057-.08-.097-.17-.04-.09-.06-.186-.022-.097-.024-.195-.002-.099.015-.196t.053-.188q.036-.092.089-.175.052-.083.12-.154.069-.071.15-.128.08-.056.17-.096.09-.04.187-.061.096-.021.194-.023.099-.003.196.015.097.017.188.052.092.036.175.09.083.052.154.12l7.223 6.917.004.004q.071.069.127.15.056.081.095.171.04.09.06.187.02.096.022.195.001.098-.016.195-.018.097-.054.189-.037.091-.09.174-.054.083-.122.153l-6.964 7.177q-.069.07-.15.127-.08.056-.171.095-.09.039-.187.06-.096.02-.195.022-.098.001-.195-.017-.097-.017-.188-.054-.092-.036-.175-.09-.082-.053-.153-.121-.07-.07-.127-.15-.056-.081-.095-.172-.039-.09-.06-.186-.02-.097-.022-.195-.001-.099.017-.195.017-.097.054-.189.036-.091.09-.174.053-.083.122-.154Zm1.717.697q0 .098-.019.195-.02.097-.057.188-.037.09-.092.172-.055.082-.125.152-.07.07-.151.124-.082.055-.173.093-.091.037-.188.057-.096.019-.195.019-.098 0-.195-.02-.096-.019-.187-.056-.091-.038-.173-.093-.082-.054-.152-.124-.07-.07-.124-.152-.055-.081-.093-.172-.037-.091-.056-.188-.02-.097-.02-.195 0-.099.02-.195.019-.097.056-.188.038-.09.093-.173.055-.082.124-.151.07-.07.152-.125.082-.054.173-.092.09-.038.187-.057.097-.02.195-.02.099 0 .195.02.097.02.188.057.091.038.173.092.082.055.151.125.07.07.125.151.055.082.092.173.038.091.057.188.02.096.02.195ZM5.778 5.083q0 .099-.02.195-.019.097-.056.188-.038.091-.093.173-.054.082-.124.151-.07.07-.152.125-.081.055-.172.092-.091.038-.188.057-.097.02-.195.02-.099 0-.195-.02-.097-.02-.188-.057-.09-.037-.173-.092-.082-.055-.151-.125-.07-.07-.125-.151-.054-.082-.092-.173-.038-.091-.057-.188-.02-.096-.02-.195 0-.098.02-.195.02-.096.057-.187.038-.091.092-.173.055-.082.125-.152.07-.07.151-.124.082-.055.173-.093.091-.037.188-.056.096-.02.195-.02.098 0 .195.02.097.019.188.056.09.038.172.093.082.055.152.124.07.07.124.152.055.082.093.173.037.09.057.187.019.097.019.195Z" data-follow-fill="#333"/></g></svg>