<svg xmlns="http://www.w3.org/2000/svg" xmlns:xlink="http://www.w3.org/1999/xlink" fill="none" version="1.1" width="36" height="31.41650390625" viewBox="0 0 36 31.41650390625">
    <defs>
        <mask id="master_svg0_261_80290">
            <g>
                <path d="M17.9847,0C17.1715,0,16.5124,0.662573,16.5124,1.48039L16.5124,1.48039C16.5124,2.05638,16.8431,2.55018,17.3215,2.79437L17.3215,2.79437C16.5023,5.73756,15.0333,10.2126,13.5478,10.773L13.5478,10.773C11.8494,11.4142,9.61227,9.43702,8.41717,8.18662L8.41717,8.18662C8.5531,8.01446,8.63755,7.80003,8.63755,7.56294L8.63755,7.56294C8.63755,7.00657,8.18872,6.55538,7.63491,6.55538L7.63491,6.55538C7.0811,6.55538,6.6326,7.00657,6.6326,7.56294L6.6326,7.56294C6.6326,8.10849,7.06461,8.55054,7.60362,8.56779L7.60362,8.56779C7.58511,10.2596,7.36742,13.034,6.16997,13.5954L6.16997,13.5954C5.08085,14.1068,3.19568,13.3347,1.9343,12.6833L1.9343,12.6833C1.97871,12.5699,2.00495,12.4472,2.00495,12.3176L2.00495,12.3176C2.00495,11.7609,1.55612,11.3101,1.00231,11.3101L1.00231,11.3101C0.448835,11.3101,0,11.7609,0,12.3176L0,12.3176C0,12.8743,0.448835,13.3252,1.00231,13.3252L1.00231,13.3252C1.14799,13.3252,1.28527,13.2924,1.4101,13.2366L1.4101,13.2366C2.10892,14.4383,3.12805,16.2569,3.78751,17.7183L3.78751,17.7183C4.74641,19.844,5.0038,21.5727,5.0038,21.5727L5.0038,21.5727L30.9652,21.5727C30.9652,21.5727,31.2226,19.844,32.1815,17.7183L32.1815,17.7183C32.8588,16.2173,33.9167,14.3378,34.6158,13.1388L34.6158,13.1388C34.7336,13.1879,34.8621,13.2156,34.9977,13.2156L34.9977,13.2156C35.5512,13.2156,36,12.7644,36,12.2074L36,12.2074C36,11.651,35.5512,11.1998,34.9977,11.1998L34.9977,11.1998C34.4435,11.1998,33.995,11.651,33.995,12.2074L33.995,12.2074C33.995,12.3667,34.0347,12.5152,34.1,12.6491L34.1,12.6491C32.839,13.3069,30.9077,14.1153,29.7991,13.5954L29.7991,13.5954C28.5754,13.0218,28.3752,10.1395,28.3648,8.46057L28.3648,8.46057C28.9186,8.46057,29.3674,8.00973,29.3674,7.45302L29.3674,7.45302C29.3674,6.89597,28.9186,6.44512,28.3648,6.44512L28.3648,6.44512C27.8113,6.44512,27.3624,6.89597,27.3624,7.45302L27.3624,7.45302C27.3624,7.70499,27.4573,7.93227,27.6094,8.10883L27.6094,8.10883C26.4217,9.34062,24.1176,11.3835,22.3859,10.773L22.3859,10.773C20.9344,10.2613,19.4665,5.75448,18.6462,2.79539L18.6462,2.79539C19.1253,2.55119,19.457,2.05705,19.457,1.48039L19.457,1.48039C19.457,0.662573,18.7976,0,17.9847,0Z" fill-rule="evenodd" fill="#FFFFFF" fill-opacity="1"/>
            </g>
        </mask>
        <filter id="master_svg1_261_80291" filterUnits="objectBoundingBox" color-interpolation-filters="sRGB" x="-2.777777910232544" y="-2.4444445967674255" width="41.55555582046509" height="27.128244876861572">
            <feFlood flood-opacity="0" result="BackgroundImageFix"/>
            <feColorMatrix in="SourceAlpha" type="matrix" values="0 0 0 0 0 0 0 0 0 0 0 0 0 0 0 0 0 0 127 0"/>
            <feOffset dy="0.3333333134651184" dx="0"/>
            <feGaussianBlur stdDeviation="0.694444477558136"/>
            <feColorMatrix type="matrix" values="0 0 0 0 1 0 0 0 0 0.8344111442565918 0 0 0 0 0.7831858396530151 0 0 0 0.8999999761581421 0"/>
            <feBlend mode="normal" in2="BackgroundImageFix" result="effect1_dropShadow"/>
            <feBlend mode="normal" in="SourceGraphic" in2="effect1_dropShadow" result="shape"/>
            <feColorMatrix in="SourceAlpha" type="matrix" result="hardAlpha" values="0 0 0 0 0 0 0 0 0 0 0 0 0 0 0 0 0 0 127 0"/>
            <feOffset dy="2.777777910232544" dx="0"/>
            <feGaussianBlur stdDeviation="1.388888955116272"/>
            <feComposite in2="hardAlpha" operator="arithmetic" k2="-1" k3="1"/>
            <feColorMatrix type="matrix" values="0 0 0 0 1 0 0 0 0 0.5313948392868042 0 0 0 0 0.3849557638168335 0 0 0 0.3799999952316284 0"/>
            <feBlend mode="normal" in2="shape" result="effect2_innerShadow"/>
        </filter>
        <linearGradient x1="0.5" y1="0" x2="0.5099999904632568" y2="1" id="master_svg2_261_80327">
            <stop offset="0%" stop-color="#FF8F6C" stop-opacity="1"/>
            <stop offset="100%" stop-color="#FFA98B" stop-opacity="1"/>
        </linearGradient>
        <linearGradient x1="0.5007142424583435" y1="-0.0018796928925439715" x2="0.5097143054008484" y2="0.9691729545593262" id="master_svg3_261_80344">
            <stop offset="0%" stop-color="#FFDDD2" stop-opacity="1"/>
            <stop offset="100%" stop-color="#FFD4C6" stop-opacity="1"/>
        </linearGradient>
        <filter id="master_svg4_261_80293" filterUnits="objectBoundingBox" color-interpolation-filters="sRGB" x="-2.777777910232544" y="-2.4444445967674255" width="33.114832401275635" height="6.901671528816223">
            <feFlood flood-opacity="0" result="BackgroundImageFix"/>
            <feColorMatrix in="SourceAlpha" type="matrix" values="0 0 0 0 0 0 0 0 0 0 0 0 0 0 0 0 0 0 127 0"/>
            <feOffset dy="0.3333333134651184" dx="0"/>
            <feGaussianBlur stdDeviation="0.694444477558136"/>
            <feColorMatrix type="matrix" values="0 0 0 0 1 0 0 0 0 0.8344111442565918 0 0 0 0 0.7831858396530151 0 0 0 0.8999999761581421 0"/>
            <feBlend mode="normal" in2="BackgroundImageFix" result="effect1_dropShadow"/>
            <feBlend mode="normal" in="SourceGraphic" in2="effect1_dropShadow" result="shape"/>
            <feColorMatrix in="SourceAlpha" type="matrix" result="hardAlpha" values="0 0 0 0 0 0 0 0 0 0 0 0 0 0 0 0 0 0 127 0"/>
            <feOffset dy="2.777777910232544" dx="0"/>
            <feGaussianBlur stdDeviation="1.388888955116272"/>
            <feComposite in2="hardAlpha" operator="arithmetic" k2="-1" k3="1"/>
            <feColorMatrix type="matrix" values="0 0 0 0 1 0 0 0 0 0.5313948392868042 0 0 0 0 0.3849557638168335 0 0 0 0.3799999952316284 0"/>
            <feBlend mode="normal" in2="shape" result="effect2_innerShadow"/>
        </filter>
        <linearGradient x1="0.5" y1="0" x2="0.5099999904632568" y2="1" id="master_svg5_261_80327">
            <stop offset="0%" stop-color="#FF8F6C" stop-opacity="1"/>
            <stop offset="100%" stop-color="#FFA98B" stop-opacity="1"/>
        </linearGradient>
        <mask id="master_svg6_261_80294">
            <g>
                <path d="M4.904212272491455,21.572349548339844C4.534445272491455,21.572349548339844,4.234997272491455,21.874041548339843,4.234997272491455,22.245745548339844L4.234997272491455,22.245745548339844C4.234997272491455,22.616769548339843,4.534445272491455,22.918469548339843,4.904212272491455,22.918469548339843L4.904212272491455,22.918469548339843L31.125397272491455,22.918469548339843C31.494797272491454,22.918469548339843,31.794297272491455,22.616769548339843,31.794297272491455,22.245745548339844L31.794297272491455,22.245745548339844C31.794297272491455,21.874041548339843,31.494797272491454,21.572349548339844,31.125397272491455,21.572349548339844L31.125397272491455,21.572349548339844L4.904212272491455,21.572349548339844Z" fill-rule="evenodd" fill="#FFFFFF" fill-opacity="1"/>
            </g>
        </mask>
        <linearGradient x1="0.5" y1="0" x2="0.5099999904632568" y2="1" id="master_svg7_261_80327">
            <stop offset="0%" stop-color="#FF8F6C" stop-opacity="1"/>
            <stop offset="100%" stop-color="#FFA98B" stop-opacity="1"/>
        </linearGradient>
        <filter id="master_svg8_261_80296" filterUnits="objectBoundingBox" color-interpolation-filters="sRGB" x="-2.777777910232544" y="-2.4444445967674255" width="33.7897686958313" height="7.473939776420593">
            <feFlood flood-opacity="0" result="BackgroundImageFix"/>
            <feColorMatrix in="SourceAlpha" type="matrix" values="0 0 0 0 0 0 0 0 0 0 0 0 0 0 0 0 0 0 127 0"/>
            <feOffset dy="0.3333333134651184" dx="0"/>
            <feGaussianBlur stdDeviation="0.694444477558136"/>
            <feColorMatrix type="matrix" values="0 0 0 0 1 0 0 0 0 0.8344111442565918 0 0 0 0 0.7831858396530151 0 0 0 0.8999999761581421 0"/>
            <feBlend mode="normal" in2="BackgroundImageFix" result="effect1_dropShadow"/>
            <feBlend mode="normal" in="SourceGraphic" in2="effect1_dropShadow" result="shape"/>
            <feColorMatrix in="SourceAlpha" type="matrix" result="hardAlpha" values="0 0 0 0 0 0 0 0 0 0 0 0 0 0 0 0 0 0 127 0"/>
            <feOffset dy="2.777777910232544" dx="0"/>
            <feGaussianBlur stdDeviation="1.388888955116272"/>
            <feComposite in2="hardAlpha" operator="arithmetic" k2="-1" k3="1"/>
            <feColorMatrix type="matrix" values="0 0 0 0 1 0 0 0 0 0.5313948392868042 0 0 0 0 0.3849557638168335 0 0 0 0.3799999952316284 0"/>
            <feBlend mode="normal" in2="shape" result="effect2_innerShadow"/>
        </filter>
        <linearGradient x1="0.5" y1="0" x2="0.5099999904632568" y2="1" id="master_svg9_261_80327">
            <stop offset="0%" stop-color="#FF8F6C" stop-opacity="1"/>
            <stop offset="100%" stop-color="#FFA98B" stop-opacity="1"/>
        </linearGradient>
        <mask id="master_svga_261_80297">
            <g>
                <path d="M4.852061249084473,27.081615447998047C4.324831249084473,27.081615447998047,3.8978662490844727,27.511154447998045,3.8978662490844727,28.04080744799805L3.8978662490844727,28.04080744799805C3.8978662490844727,28.570455447998047,4.324831249084473,28.999995447998046,4.852061249084473,28.999995447998046L4.852061249084473,28.999995447998046L31.177866249084474,28.999995447998046C31.70476624908447,28.999995447998046,32.132066249084474,28.570455447998047,32.132066249084474,28.04080744799805L32.132066249084474,28.04080744799805C32.132066249084474,27.511154447998045,31.70476624908447,27.081615447998047,31.177866249084474,27.081615447998047L31.177866249084474,27.081615447998047L4.852061249084473,27.081615447998047Z" fill-rule="evenodd" fill="#FFFFFF" fill-opacity="1"/>
            </g>
        </mask>
        <linearGradient x1="0.5" y1="0" x2="0.5099999904632568" y2="1" id="master_svgb_261_80327">
            <stop offset="0%" stop-color="#FF8F6C" stop-opacity="1"/>
            <stop offset="100%" stop-color="#FFA98B" stop-opacity="1"/>
        </linearGradient>
        <mask id="master_svgc_261_80300">
            <g>
                <path d="M17.72124662475586,13.000501955566406L16.03087962475586,15.488446955566406C15.89696902475586,15.685296955566406,15.89696902475586,15.944026955566406,16.03087962475586,16.140536955566407L16.03087962475586,16.140536955566407L17.72124662475586,18.628816955566407C17.84775662475586,18.815516955566405,18.12129662475586,18.815516955566405,18.24813662475586,18.628816955566407L18.24813662475586,18.628816955566407L19.93850662475586,16.140536955566407C20.07207662475586,15.944026955566406,20.071736624755857,15.685296955566406,19.93850662475586,15.488446955566406L19.93850662475586,15.488446955566406L18.24813662475586,13.000501955566406C18.18454662475586,12.907491355566407,18.08461662475586,12.860816955566406,17.98435662475586,12.860816955566406L17.98435662475586,12.860816955566406C17.88442662475586,12.860816955566406,17.78449662475586,12.907491355566407,17.72124662475586,13.000501955566406L17.72124662475586,13.000501955566406Z" fill-rule="evenodd" fill="#FFFFFF" fill-opacity="1"/>
            </g>
        </mask>
        <linearGradient x1="0.5007142424583435" y1="-0.0018796928925439715" x2="0.5097143054008484" y2="0.9691729545593262" id="master_svgd_261_80344">
            <stop offset="0%" stop-color="#FFDDD2" stop-opacity="1"/>
            <stop offset="100%" stop-color="#FFD4C6" stop-opacity="1"/>
        </linearGradient>
        <mask id="master_svge_261_80305">
            <g>
                <path d="M24.456798553466797,16.345164399414063C24.456798553466797,17.113594399414062,24.820509553466795,17.73625439941406,25.269008553466797,17.73625439941406L25.269008553466797,17.73625439941406C25.7171685534668,17.73625439941406,26.081218553466798,17.113594399414062,26.081218553466798,16.345164399414063L26.081218553466798,16.345164399414063C26.081218553466798,15.576724399414063,25.7171685534668,14.953384399414062,25.269008553466797,14.953384399414062L25.269008553466797,14.953384399414062C24.820509553466795,14.953384399414062,24.456798553466797,15.576724399414063,24.456798553466797,16.345164399414063L24.456798553466797,16.345164399414063Z" fill-rule="evenodd" fill="#FFFFFF" fill-opacity="1"/>
            </g>
        </mask>
        <linearGradient x1="0.5007142424583435" y1="-0.0018796928925439715" x2="0.5097143054008484" y2="0.9691729545593262" id="master_svgf_261_80344">
            <stop offset="0%" stop-color="#FFDDD2" stop-opacity="1"/>
            <stop offset="100%" stop-color="#FFD4C6" stop-opacity="1"/>
        </linearGradient>
        <mask id="master_svgg_261_80310">
            <g>
                <path d="M29.805133819580078,18.111687709960936C29.805133819580078,18.731977709960937,30.098524819580078,19.23558770996094,30.46089081958008,19.23558770996094L30.46089081958008,19.23558770996094C30.82292381958008,19.23558770996094,31.116643819580077,18.731977709960937,31.116643819580077,18.111687709960936L31.116643819580077,18.111687709960936C31.116643819580077,17.490710709960936,30.82292381958008,16.987777709960938,30.46089081958008,16.987777709960938L30.46089081958008,16.987777709960938C30.098524819580078,16.987777709960938,29.805133819580078,17.490710709960936,29.805133819580078,18.111687709960936L29.805133819580078,18.111687709960936Z" fill-rule="evenodd" fill="#FFFFFF" fill-opacity="1"/>
            </g>
        </mask>
        <linearGradient x1="0.5007142424583435" y1="-0.0018796928925439715" x2="0.5097143054008484" y2="0.9691729545593262" id="master_svgh_261_80344">
            <stop offset="0%" stop-color="#FFDDD2" stop-opacity="1"/>
            <stop offset="100%" stop-color="#FFD4C6" stop-opacity="1"/>
        </linearGradient>
        <mask id="master_svgi_261_80315">
            <g>
                <path d="M10.691963195800781,16.17977293914795C10.691963195800781,16.94786293914795,11.055674195800782,17.57154293914795,11.504173195800782,17.57154293914795L11.504173195800782,17.57154293914795C11.95267319580078,17.57154293914795,12.31604319580078,16.94786293914795,12.31604319580078,16.17977293914795L12.31604319580078,16.17977293914795C12.31604319580078,15.41133393914795,11.95267319580078,14.78833293914795,11.504173195800782,14.78833293914795L11.504173195800782,14.78833293914795C11.055674195800782,14.78833293914795,10.691963195800781,15.41133393914795,10.691963195800781,16.17977293914795L10.691963195800781,16.17977293914795Z" fill-rule="evenodd" fill="#FFFFFF" fill-opacity="1"/>
            </g>
        </mask>
        <linearGradient x1="0.5007142424583435" y1="-0.0018796928925439715" x2="0.5097143054008484" y2="0.9691729545593262" id="master_svgj_261_80344">
            <stop offset="0%" stop-color="#FFDDD2" stop-opacity="1"/>
            <stop offset="100%" stop-color="#FFD4C6" stop-opacity="1"/>
        </linearGradient>
        <mask id="master_svgk_261_80320">
            <g>
                <path d="M5.656532287597656,17.94596009460449C5.656532287597656,18.56693009460449,5.950260287597656,19.069860094604493,6.312289287597657,19.069860094604493L6.312289287597657,19.069860094604493C6.674652287597656,19.069860094604493,6.968382287597656,18.56693009460449,6.968382287597656,17.94596009460449L6.968382287597656,17.94596009460449C6.968382287597656,17.32498309460449,6.674652287597656,16.822050094604492,6.312289287597657,16.822050094604492L6.312289287597657,16.822050094604492C5.950260287597656,16.822050094604492,5.656532287597656,17.32498309460449,5.656532287597656,17.94596009460449L5.656532287597656,17.94596009460449Z" fill-rule="evenodd" fill="#FFFFFF" fill-opacity="1"/>
            </g>
        </mask>
        <linearGradient x1="0.5007142424583435" y1="-0.0018796928925439715" x2="0.5097143054008484" y2="0.9691729545593262" id="master_svgl_261_80344">
            <stop offset="0%" stop-color="#FFDDD2" stop-opacity="1"/>
            <stop offset="100%" stop-color="#FFD4C6" stop-opacity="1"/>
        </linearGradient>
    </defs>
    <g>
        <g mask="url(#master_svg0_261_80290)">
            <g>
                <path d="M17.9847,0C17.1715,0,16.5124,0.662573,16.5124,1.48039L16.5124,1.48039C16.5124,2.05638,16.8431,2.55018,17.3215,2.79437L17.3215,2.79437C16.5023,5.73756,15.0333,10.2126,13.5478,10.773L13.5478,10.773C11.8494,11.4142,9.61227,9.43702,8.41717,8.18662L8.41717,8.18662C8.5531,8.01446,8.63755,7.80003,8.63755,7.56294L8.63755,7.56294C8.63755,7.00657,8.18872,6.55538,7.63491,6.55538L7.63491,6.55538C7.0811,6.55538,6.6326,7.00657,6.6326,7.56294L6.6326,7.56294C6.6326,8.10849,7.06461,8.55054,7.60362,8.56779L7.60362,8.56779C7.58511,10.2596,7.36742,13.034,6.16997,13.5954L6.16997,13.5954C5.08085,14.1068,3.19568,13.3347,1.9343,12.6833L1.9343,12.6833C1.97871,12.5699,2.00495,12.4472,2.00495,12.3176L2.00495,12.3176C2.00495,11.7609,1.55612,11.3101,1.00231,11.3101L1.00231,11.3101C0.448835,11.3101,0,11.7609,0,12.3176L0,12.3176C0,12.8743,0.448835,13.3252,1.00231,13.3252L1.00231,13.3252C1.14799,13.3252,1.28527,13.2924,1.4101,13.2366L1.4101,13.2366C2.10892,14.4383,3.12805,16.2569,3.78751,17.7183L3.78751,17.7183C4.74641,19.844,5.0038,21.5727,5.0038,21.5727L5.0038,21.5727L30.9652,21.5727C30.9652,21.5727,31.2226,19.844,32.1815,17.7183L32.1815,17.7183C32.8588,16.2173,33.9167,14.3378,34.6158,13.1388L34.6158,13.1388C34.7336,13.1879,34.8621,13.2156,34.9977,13.2156L34.9977,13.2156C35.5512,13.2156,36,12.7644,36,12.2074L36,12.2074C36,11.651,35.5512,11.1998,34.9977,11.1998L34.9977,11.1998C34.4435,11.1998,33.995,11.651,33.995,12.2074L33.995,12.2074C33.995,12.3667,34.0347,12.5152,34.1,12.6491L34.1,12.6491C32.839,13.3069,30.9077,14.1153,29.7991,13.5954L29.7991,13.5954C28.5754,13.0218,28.3752,10.1395,28.3648,8.46057L28.3648,8.46057C28.9186,8.46057,29.3674,8.00973,29.3674,7.45302L29.3674,7.45302C29.3674,6.89597,28.9186,6.44512,28.3648,6.44512L28.3648,6.44512C27.8113,6.44512,27.3624,6.89597,27.3624,7.45302L27.3624,7.45302C27.3624,7.70499,27.4573,7.93227,27.6094,8.10883L27.6094,8.10883C26.4217,9.34062,24.1176,11.3835,22.3859,10.773L22.3859,10.773C20.9344,10.2613,19.4665,5.75448,18.6462,2.79539L18.6462,2.79539C19.1253,2.55119,19.457,2.05705,19.457,1.48039L19.457,1.48039C19.457,0.662573,18.7976,0,17.9847,0Z" fill-rule="evenodd" fill="#D8D8D8" fill-opacity="0.009999999776482582"/>
            </g>
            <g filter="url(#master_svg1_261_80291)">
                <path d="M17.9847,0C17.1715,0,16.5124,0.662573,16.5124,1.48039L16.5124,1.48039C16.5124,2.05638,16.8431,2.55018,17.3215,2.79437L17.3215,2.79437C16.5023,5.73756,15.0333,10.2126,13.5478,10.773L13.5478,10.773C11.8494,11.4142,9.61227,9.43702,8.41717,8.18662L8.41717,8.18662C8.5531,8.01446,8.63755,7.80003,8.63755,7.56294L8.63755,7.56294C8.63755,7.00657,8.18872,6.55538,7.63491,6.55538L7.63491,6.55538C7.0811,6.55538,6.6326,7.00657,6.6326,7.56294L6.6326,7.56294C6.6326,8.10849,7.06461,8.55054,7.60362,8.56779L7.60362,8.56779C7.58511,10.2596,7.36742,13.034,6.16997,13.5954L6.16997,13.5954C5.08085,14.1068,3.19568,13.3347,1.9343,12.6833L1.9343,12.6833C1.97871,12.5699,2.00495,12.4472,2.00495,12.3176L2.00495,12.3176C2.00495,11.7609,1.55612,11.3101,1.00231,11.3101L1.00231,11.3101C0.448835,11.3101,0,11.7609,0,12.3176L0,12.3176C0,12.8743,0.448835,13.3252,1.00231,13.3252L1.00231,13.3252C1.14799,13.3252,1.28527,13.2924,1.4101,13.2366L1.4101,13.2366C2.10892,14.4383,3.12805,16.2569,3.78751,17.7183L3.78751,17.7183C4.74641,19.844,5.0038,21.5727,5.0038,21.5727L5.0038,21.5727L29.7678,21.5727C30.4559,21.5727,31.0162,21.0561,31.225,20.4005C31.4102,19.7062,31.7117,18.7599,32.1815,17.7183L32.1815,17.7183C32.8588,16.2173,33.9167,14.3378,34.6158,13.1388L34.6158,13.1388C34.7336,13.1879,34.8621,13.2156,34.9977,13.2156L34.9977,13.2156C35.5512,13.2156,36,12.7644,36,12.2074L36,12.2074C36,11.651,35.5512,11.1998,34.9977,11.1998L34.9977,11.1998C34.4435,11.1998,33.995,11.651,33.995,12.2074L33.995,12.2074C33.995,12.3667,34.0347,12.5152,34.1,12.6491L34.1,12.6491C32.839,13.3069,30.9077,14.1153,29.7991,13.5954L29.7991,13.5954C28.5754,13.0218,28.3752,10.1395,28.3648,8.46057L28.3648,8.46057C28.9186,8.46057,29.3674,8.00973,29.3674,7.45302L29.3674,7.45302C29.3674,6.89597,28.9186,6.44512,28.3648,6.44512L28.3648,6.44512C27.8113,6.44512,27.3624,6.89597,27.3624,7.45302L27.3624,7.45302C27.3624,7.70499,27.4573,7.93227,27.6094,8.10883L27.6094,8.10883C26.4217,9.34062,24.1176,11.3835,22.3859,10.773L22.3859,10.773C20.9344,10.2613,19.4665,5.75448,18.6462,2.79539L18.6462,2.79539C19.1253,2.55119,19.457,2.05705,19.457,1.48039L19.457,1.48039C19.457,0.662573,18.7976,0,17.9847,0Z" fill-rule="evenodd" fill="url(#master_svg2_261_80327)" fill-opacity="1"/>
            </g>
        </g>
        <g>
            <path d="M6.3671228605651855,27.081616567993166L29.662132860565187,27.081616567993166C30.429232860565186,27.081616567993166,31.051032860565186,26.459786567993163,31.051032860565186,25.692726567993162L31.051032860565186,24.307356567993164C31.051032860565186,23.540293567993164,30.429232860565186,22.918466567993164,29.662132860565187,22.918466567993164L6.3671228605651855,22.918466567993164C5.600059860565185,22.918466567993164,4.9782328605651855,23.540293567993164,4.9782328605651855,24.307356567993164L4.9782328605651855,25.692726567993162C4.9782328605651855,26.459786567993163,5.600059860565185,27.081616567993166,6.3671228605651855,27.081616567993166" fill-rule="evenodd" fill="url(#master_svg3_261_80344)" fill-opacity="1"/>
        </g>
        <g filter="url(#master_svg4_261_80293)" mask="url(#master_svg6_261_80294)">
            <g>
                <path d="M4.904212272491455,21.572349548339844C4.534445272491455,21.572349548339844,4.234997272491455,21.874041548339843,4.234997272491455,22.245745548339844L4.234997272491455,22.245745548339844C4.234997272491455,22.616769548339843,4.534445272491455,22.918469548339843,4.904212272491455,22.918469548339843L4.904212272491455,22.918469548339843L31.125397272491455,22.918469548339843C31.494797272491454,22.918469548339843,31.794297272491455,22.616769548339843,31.794297272491455,22.245745548339844L31.794297272491455,22.245745548339844C31.794297272491455,21.874041548339843,31.494797272491454,21.572349548339844,31.125397272491455,21.572349548339844L31.125397272491455,21.572349548339844L4.904212272491455,21.572349548339844Z" fill-rule="evenodd" fill="url(#master_svg5_261_80327)" fill-opacity="1"/>
            </g>
            <g>
                <path d="M4.904212272491455,21.572349548339844C4.534445272491455,21.572349548339844,4.234997272491455,21.874041548339843,4.234997272491455,22.245745548339844L4.234997272491455,22.245745548339844C4.234997272491455,22.616769548339843,4.534445272491455,22.918469548339843,4.904212272491455,22.918469548339843L4.904212272491455,22.918469548339843L31.125397272491455,22.918469548339843C31.494797272491454,22.918469548339843,31.794297272491455,22.616769548339843,31.794297272491455,22.245745548339844L31.794297272491455,22.245745548339844C31.794297272491455,21.874041548339843,31.494797272491454,21.572349548339844,31.125397272491455,21.572349548339844L31.125397272491455,21.572349548339844L4.904212272491455,21.572349548339844Z" fill-rule="evenodd" fill="url(#master_svg7_261_80327)" fill-opacity="1"/>
            </g>
        </g>
        <g filter="url(#master_svg8_261_80296)" mask="url(#master_svga_261_80297)">
            <g>
                <path d="M4.852061249084473,27.081615447998047C4.324831249084473,27.081615447998047,3.8978662490844727,27.511154447998045,3.8978662490844727,28.04080744799805L3.8978662490844727,28.04080744799805C3.8978662490844727,28.570455447998047,4.324831249084473,28.999995447998046,4.852061249084473,28.999995447998046L4.852061249084473,28.999995447998046L31.177866249084474,28.999995447998046C31.70476624908447,28.999995447998046,32.132066249084474,28.570455447998047,32.132066249084474,28.04080744799805L32.132066249084474,28.04080744799805C32.132066249084474,27.511154447998045,31.70476624908447,27.081615447998047,31.177866249084474,27.081615447998047L31.177866249084474,27.081615447998047L4.852061249084473,27.081615447998047Z" fill-rule="evenodd" fill="url(#master_svg9_261_80327)" fill-opacity="1"/>
            </g>
            <g>
                <path d="M4.852061249084473,27.081615447998047C4.324831249084473,27.081615447998047,3.8978662490844727,27.511154447998045,3.8978662490844727,28.04080744799805L3.8978662490844727,28.04080744799805C3.8978662490844727,28.570455447998047,4.324831249084473,28.999995447998046,4.852061249084473,28.999995447998046L4.852061249084473,28.999995447998046L31.177866249084474,28.999995447998046C31.70476624908447,28.999995447998046,32.132066249084474,28.570455447998047,32.132066249084474,28.04080744799805L32.132066249084474,28.04080744799805C32.132066249084474,27.511154447998045,31.70476624908447,27.081615447998047,31.177866249084474,27.081615447998047L31.177866249084474,27.081615447998047L4.852061249084473,27.081615447998047Z" fill-rule="evenodd" fill="url(#master_svgb_261_80327)" fill-opacity="1"/>
            </g>
        </g>
        <g mask="url(#master_svgc_261_80300)">
            <g>
                <path d="M17.72124662475586,13.000501955566406L16.03087962475586,15.488446955566406C15.89696902475586,15.685296955566406,15.89696902475586,15.944026955566406,16.03087962475586,16.140536955566407L16.03087962475586,16.140536955566407L17.72124662475586,18.628816955566407C17.84775662475586,18.815516955566405,18.12129662475586,18.815516955566405,18.24813662475586,18.628816955566407L18.24813662475586,18.628816955566407L19.93850662475586,16.140536955566407C20.07207662475586,15.944026955566406,20.071736624755857,15.685296955566406,19.93850662475586,15.488446955566406L19.93850662475586,15.488446955566406L18.24813662475586,13.000501955566406C18.18454662475586,12.907491355566407,18.08461662475586,12.860816955566406,17.98435662475586,12.860816955566406L17.98435662475586,12.860816955566406C17.88442662475586,12.860816955566406,17.78449662475586,12.907491355566407,17.72124662475586,13.000501955566406L17.72124662475586,13.000501955566406Z" fill-rule="evenodd" fill="#D8D8D8" fill-opacity="0.009999999776482582"/>
            </g>
            <g>
                <path d="M17.72124662475586,13.000501955566406L16.03111262475586,15.488106955566407C16.03095762475586,15.488336955566407,16.03094062475586,15.488356955566406,16.03078562475586,15.488586955566406C15.89696902475586,15.685416955566406,15.89700042475586,15.944076955566405,16.03087962475586,16.140536955566407L16.03087962475586,16.140536955566407L17.72077662475586,18.628136955566404C17.72108662475586,18.628596955566408,17.72125662475586,18.628836955566406,17.72156662475586,18.629296955566407C17.84821662475586,18.815516955566405,18.12139662475586,18.815356955566408,18.24813662475586,18.628816955566407L18.24813662475586,18.628816955566407L19.93850662475586,16.140536955566407C20.07207662475586,15.944026955566406,20.071736624755857,15.685296955566406,19.93850662475586,15.488446955566406L19.93850662475586,15.488446955566406L18.249266624755858,13.002160955566406C18.248516624755858,13.001054955566406,18.24790662475586,13.000166955566407,18.24714662475586,12.999066955566406C18.18351662475586,12.907011255566406,18.084106624755858,12.860816955566406,17.98435662475586,12.860816955566406L17.98435662475586,12.860816955566406C17.88442662475586,12.860816955566406,17.78449662475586,12.907491355566407,17.72124662475586,13.000501955566406L17.72124662475586,13.000501955566406Z" fill-rule="evenodd" fill="url(#master_svgd_261_80344)" fill-opacity="1"/>
            </g>
        </g>
        <g>
            <g>
                <path d="M18.45457662475586,18.769467500305176L18.45464662475586,18.769367500305176L20.14536662475586,16.281387500305176Q20.462106624755858,15.814627500305175,20.14526662475586,15.347717500305176L18.45464662475586,12.860223427305176Q18.28536662475586,12.610867500305176,17.98452662475586,12.610867500305176Q17.683676624755858,12.610867500305176,17.51446662475586,12.860128119305175L15.82417562475586,15.347627500305176Q15.506481624755859,15.814627500305175,15.82409262475586,16.281507500305175L17.51439662475586,18.769367500305176Q17.683676624755858,19.018727500305175,17.98452662475586,19.018727500305175Q18.285306624755858,19.018727500305175,18.45457662475586,18.769467500305176ZM19.731636624755858,16.000637500305174L18.041026624755858,18.488437500305174L18.04095662475586,18.488547500305174Q18.02046662475586,18.518727500305175,17.98452662475586,18.518727500305175Q17.94857662475586,18.518727500305175,17.92808662475586,18.488547500305174L16.23766662475586,16.000517500305175Q16.11121062475586,15.814627500305175,16.23758362475586,15.628867500305176L17.92802662475586,13.141145500305175Q17.94857662475586,13.110867500305176,17.98452662475586,13.110867500305176Q18.02046662475586,13.110867500305176,18.04095662475586,13.141050500305175L19.73173662475586,15.628777500305176Q19.85785662475586,15.814627500305175,19.731636624755858,16.000637500305174Z" fill-rule="evenodd" fill="#FFFFFF" fill-opacity="1"/>
            </g>
        </g>
        <g mask="url(#master_svge_261_80305)">
            <g>
                <path d="M24.456798553466797,16.345164399414063C24.456798553466797,17.113594399414062,24.820509553466795,17.73625439941406,25.269008553466797,17.73625439941406L25.269008553466797,17.73625439941406C25.7171685534668,17.73625439941406,26.081218553466798,17.113594399414062,26.081218553466798,16.345164399414063L26.081218553466798,16.345164399414063C26.081218553466798,15.576724399414063,25.7171685534668,14.953384399414062,25.269008553466797,14.953384399414062L25.269008553466797,14.953384399414062C24.820509553466795,14.953384399414062,24.456798553466797,15.576724399414063,24.456798553466797,16.345164399414063L24.456798553466797,16.345164399414063Z" fill-rule="evenodd" fill="#D8D8D8" fill-opacity="0.009999999776482582"/>
            </g>
            <g>
                <path d="M24.456798553466797,16.345164399414063C24.456798553466797,17.113594399414062,24.820509553466795,17.73625439941406,25.269008553466797,17.73625439941406L25.269008553466797,17.73625439941406C25.7171685534668,17.73625439941406,26.081218553466798,17.113594399414062,26.081218553466798,16.345164399414063L26.081218553466798,16.345164399414063C26.081218553466798,15.576724399414063,25.7171685534668,14.953384399414062,25.269008553466797,14.953384399414062L25.269008553466797,14.953384399414062C24.820509553466795,14.953384399414062,24.456798553466797,15.576724399414063,24.456798553466797,16.345164399414063L24.456798553466797,16.345164399414063Z" fill-rule="evenodd" fill="url(#master_svgf_261_80344)" fill-opacity="1"/>
            </g>
        </g>
        <g>
            <g>
                <path d="M26.059183157348635,15.235098067138672Q25.748963157348634,14.703350067138672,25.269243157348633,14.703350067138672Q24.789313157348634,14.703350067138672,24.479026657348633,15.235072067138672Q24.207033157348633,15.701173067138672,24.207033157348633,16.345130067138673Q24.207033157348633,16.989070067138673,24.479045057348632,17.455040067138672Q24.78931815734863,17.986560067138672,25.269243157348633,17.986560067138672Q25.748963157348634,17.986560067138672,26.05916315734863,17.455010067138673Q26.331113157348632,16.989000067138672,26.331113157348632,16.345130067138673Q26.331113157348632,15.701234067138671,26.059183157348635,15.235098067138672ZM24.910875157348634,15.487077067138673Q25.076444157348632,15.203350067138672,25.269243157348633,15.203350067138672Q25.461793157348634,15.203350067138672,25.62730315734863,15.487050067138671Q25.831113157348632,15.836419067138673,25.831113157348632,16.345130067138673Q25.831113157348632,16.853780067138672,25.627323157348634,17.20300006713867Q25.461833157348632,17.486560067138672,25.269243157348633,17.486560067138672Q25.076401157348634,17.486560067138672,24.910857157348634,17.202970067138672Q24.707033157348633,16.85381006713867,24.707033157348633,16.345130067138673Q24.707033157348633,15.836391067138672,24.910875157348634,15.487077067138673Z" fill-rule="evenodd" fill="#FFFAEE" fill-opacity="1"/>
            </g>
        </g>
        <g mask="url(#master_svgg_261_80310)">
            <g>
                <path d="M29.805133819580078,18.111687709960936C29.805133819580078,18.731977709960937,30.098524819580078,19.23558770996094,30.46089081958008,19.23558770996094L30.46089081958008,19.23558770996094C30.82292381958008,19.23558770996094,31.116643819580077,18.731977709960937,31.116643819580077,18.111687709960936L31.116643819580077,18.111687709960936C31.116643819580077,17.490710709960936,30.82292381958008,16.987777709960938,30.46089081958008,16.987777709960938L30.46089081958008,16.987777709960938C30.098524819580078,16.987777709960938,29.805133819580078,17.490710709960936,29.805133819580078,18.111687709960936L29.805133819580078,18.111687709960936Z" fill-rule="evenodd" fill="#D8D8D8" fill-opacity="0.009999999776482582"/>
            </g>
            <g>
                <path d="M29.805133819580078,18.111687709960936C29.805133819580078,18.731977709960937,30.098524819580078,19.23558770996094,30.46089081958008,19.23558770996094L30.46089081958008,19.23558770996094C30.82292381958008,19.23558770996094,31.116643819580077,18.731977709960937,31.116643819580077,18.111687709960936L31.116643819580077,18.111687709960936C31.116643819580077,17.490710709960936,30.82292381958008,16.987777709960938,30.46089081958008,16.987777709960938L30.46089081958008,16.987777709960938C30.098524819580078,16.987777709960938,29.805133819580078,17.490710709960936,29.805133819580078,18.111687709960936L29.805133819580078,18.111687709960936Z" fill-rule="evenodd" fill="url(#master_svgh_261_80344)" fill-opacity="1"/>
            </g>
        </g>
        <g>
            <g>
                <path d="M31.140443819580078,17.19071328820801Q30.876013819580077,16.737642288208008,30.46089081958008,16.737642288208008Q30.04554481958008,16.737642288208008,29.78118961958008,17.19074728820801Q29.555133819580078,17.57820628820801,29.555133819580078,18.111542288208007Q29.555133819580078,18.644682288208006,29.781178219580077,19.03220228820801Q30.045563819580078,19.48545228820801,30.46089081958008,19.48545228820801Q30.875993819580078,19.48545228820801,31.140453819580078,19.032232288208007Q31.366643819580077,18.64460228820801,31.366643819580077,18.111552288208006Q31.366643819580077,17.578285288208008,31.140443819580078,17.19071328820801ZM30.21306081958008,17.44271428820801Q30.332705819580077,17.237642288208008,30.46089081958008,17.237642288208008Q30.588906819580078,17.237642288208008,30.708613819580076,17.442747288208007Q30.866643819580077,17.71352028820801,30.866643819580077,18.111552288208006Q30.866643819580077,18.50939228820801,30.70860181958008,18.780242288208008Q30.588857819580078,18.98545228820801,30.46089081958008,18.98545228820801Q30.332754819580078,18.98545228820801,30.21307181958008,18.780272288208007Q30.055133819580078,18.509512288208008,30.055133819580078,18.111542288208007Q30.055133819580078,17.713400288208007,30.21306081958008,17.44271428820801Z" fill-rule="evenodd" fill="#FFFAEE" fill-opacity="1"/>
            </g>
        </g>
        <g mask="url(#master_svgi_261_80315)">
            <g>
                <path d="M10.691963195800781,16.17977293914795C10.691963195800781,16.94786293914795,11.055674195800782,17.57154293914795,11.504173195800782,17.57154293914795L11.504173195800782,17.57154293914795C11.95267319580078,17.57154293914795,12.31604319580078,16.94786293914795,12.31604319580078,16.17977293914795L12.31604319580078,16.17977293914795C12.31604319580078,15.41133393914795,11.95267319580078,14.78833293914795,11.504173195800782,14.78833293914795L11.504173195800782,14.78833293914795C11.055674195800782,14.78833293914795,10.691963195800781,15.41133393914795,10.691963195800781,16.17977293914795L10.691963195800781,16.17977293914795Z" fill-rule="evenodd" fill="#D8D8D8" fill-opacity="0.009999999776482582"/>
            </g>
            <g>
                <path d="M10.691963195800781,16.17977293914795C10.691963195800781,16.94786293914795,11.055674195800782,17.57154293914795,11.504173195800782,17.57154293914795L11.504173195800782,17.57154293914795C11.95267319580078,17.57154293914795,12.31604319580078,16.94786293914795,12.31604319580078,16.17977293914795L12.31604319580078,16.17977293914795C12.31604319580078,15.41133393914795,11.95267319580078,14.78833293914795,11.504173195800782,14.78833293914795L11.504173195800782,14.78833293914795C11.055674195800782,14.78833293914795,10.691963195800781,15.41133393914795,10.691963195800781,16.17977293914795L10.691963195800781,16.17977293914795Z" fill-rule="evenodd" fill="url(#master_svgj_261_80344)" fill-opacity="1"/>
            </g>
        </g>
        <g>
            <g>
                <path d="M12.294198863525391,15.069805895996094Q11.98406886352539,14.538230895996094,11.504138863525391,14.538230895996094Q11.024213863525391,14.538230895996094,10.713940763525391,15.069751895996093Q10.44192886352539,15.535727895996093,10.44192886352539,16.179670895996093Q10.44192886352539,16.823620895996093,10.713922363525391,17.289720895996094Q11.024208863525391,17.821440895996094,11.504138863525391,17.821440895996094Q11.98407886352539,17.821440895996094,12.29421886352539,17.289670895996093Q12.56600886352539,16.823640895996093,12.56600886352539,16.179670895996093Q12.56600886352539,15.535706895996094,12.294198863525391,15.069805895996094ZM11.145752863525392,15.321819895996093Q11.31129686352539,15.038230895996094,11.504138863525391,15.038230895996094Q11.69690886352539,15.038230895996094,11.862328863525391,15.321766895996094Q12.06600886352539,15.670896895996094,12.06600886352539,16.179670895996093Q12.06600886352539,16.688490895996093,11.86230886352539,17.037770895996093Q11.69685886352539,17.321440895996094,11.504138863525391,17.321440895996094Q11.31133986352539,17.321440895996094,11.14577086352539,17.037720895996095Q10.94192886352539,16.688400895996093,10.94192886352539,16.179670895996093Q10.94192886352539,15.670984895996094,11.145752863525392,15.321819895996093Z" fill-rule="evenodd" fill="#FFFAEE" fill-opacity="1"/>
            </g>
        </g>
        <g mask="url(#master_svgk_261_80320)">
            <g>
                <path d="M5.656532287597656,17.94596009460449C5.656532287597656,18.56693009460449,5.950260287597656,19.069860094604493,6.312289287597657,19.069860094604493L6.312289287597657,19.069860094604493C6.674652287597656,19.069860094604493,6.968382287597656,18.56693009460449,6.968382287597656,17.94596009460449L6.968382287597656,17.94596009460449C6.968382287597656,17.32498309460449,6.674652287597656,16.822050094604492,6.312289287597657,16.822050094604492L6.312289287597657,16.822050094604492C5.950260287597656,16.822050094604492,5.656532287597656,17.32498309460449,5.656532287597656,17.94596009460449L5.656532287597656,17.94596009460449Z" fill-rule="evenodd" fill="#D8D8D8" fill-opacity="0.009999999776482582"/>
            </g>
            <g>
                <path d="M5.656532287597656,17.94596009460449C5.656532287597656,18.56693009460449,5.950260287597656,19.069860094604493,6.312289287597657,19.069860094604493L6.312289287597657,19.069860094604493C6.674652287597656,19.069860094604493,6.968382287597656,18.56693009460449,6.968382287597656,17.94596009460449L6.968382287597656,17.94596009460449C6.968382287597656,17.32498309460449,6.674652287597656,16.822050094604492,6.312289287597657,16.822050094604492L6.312289287597657,16.822050094604492C5.950260287597656,16.822050094604492,5.656532287597656,17.32498309460449,5.656532287597656,17.94596009460449L5.656532287597656,17.94596009460449Z" fill-rule="evenodd" fill="url(#master_svgl_261_80344)" fill-opacity="1"/>
            </g>
        </g>
        <g>
            <path d="M6.992047819519043,17.025222184082033Q6.727617819519043,16.57215118408203,6.312490819519043,16.57215118408203Q5.897164819519043,16.57215118408203,5.632660719519043,17.02518918408203Q5.406397819519043,17.412729184082032,5.406397819519043,17.94606118408203Q5.406397819519043,18.47938118408203,5.632660719519043,18.86692118408203Q5.897164819519043,19.319961184082032,6.312490819519043,19.319961184082032Q6.727617819519043,19.319961184082032,6.992047819519043,18.866891184082032Q7.218247819519043,18.479321184082032,7.218247819519043,17.94606118408203Q7.218247819519043,17.41279418408203,6.992047819519043,17.025222184082033ZM6.064453819519043,17.277289184082033Q6.184222819519043,17.07215118408203,6.312490819519043,17.07215118408203Q6.440506819519043,17.07215118408203,6.560213819519043,17.27725618408203Q6.718247819519043,17.548029184082033,6.718247819519043,17.94606118408203Q6.718247819519043,18.344081184082032,6.560213819519043,18.61486118408203Q6.440506819519043,18.819961184082032,6.312490819519043,18.819961184082032Q6.184222819519043,18.819961184082032,6.064453819519043,18.614821184082032Q5.906397819519043,18.34411118408203,5.906397819519043,17.94606118408203Q5.906397819519043,17.54800518408203,6.064453819519043,17.277289184082033Z" fill-rule="evenodd" fill="#FFFAEE" fill-opacity="1"/>
        </g>
    </g>
</svg>