<svg xmlns="http://www.w3.org/2000/svg" xmlns:xlink="http://www.w3.org/1999/xlink" fill="none" version="1.1" width="24" height="24" viewBox="0 0 24 24"><defs><clipPath id="master_svg0_1_065"><rect x="0" y="0" width="24" height="24" rx="0"/></clipPath></defs><g clip-path="url(#master_svg0_1_065)"><g><ellipse cx="12" cy="6" rx="4" ry="4" fill-opacity="0" stroke-stroke-opacity="1" stroke="currentColor" fill="none" stroke-width="2" stroke-linecap="ROUND" stroke-linejoin="round"/></g><g><path d="M2,22Q2,19.966169999999998,2.786262,18.10725Q3.545381,16.31249,4.92894,14.92894Q6.31249,13.54538,8.10725,12.786262Q9.96617,12,12,12Q14.0338,12,15.8928,12.786262Q17.6875,13.54538,19.0711,14.92894Q20.4546,16.31249,21.2137,18.10725Q22,19.966169999999998,22,22Q22,22.098489999999998,21.9808,22.19509Q21.9616,22.29169,21.9239,22.38268Q21.8862,22.47368,21.8315,22.55557Q21.7767,22.63746,21.7071,22.70711Q21.6375,22.77675,21.5556,22.83147Q21.4737,22.88619,21.3827,22.92388Q21.2917,22.961570000000002,21.1951,22.98078Q21.0985,23,21,23Q20.9015,23,20.8049,22.98078Q20.7083,22.961570000000002,20.6173,22.92388Q20.5263,22.88619,20.4444,22.83147Q20.3625,22.77675,20.2929,22.70711Q20.2232,22.63746,20.1685,22.55557Q20.1138,22.47368,20.0761,22.38268Q20.0384,22.29169,20.0192,22.19509Q20,22.098489999999998,20,22Q20,18.6863,17.6568,16.34315Q15.3137,14,12,14Q8.6863,14,6.34315,16.34315Q4,18.6863,4,22Q4,22.098489999999998,3.980785,22.19509Q3.96157,22.29169,3.923879,22.38268Q3.8861879999999998,22.47368,3.83147,22.55557Q3.776751,22.63746,3.707107,22.70711Q3.637463,22.77675,3.55557,22.83147Q3.473678,22.88619,3.382683,22.92388Q3.291689,22.961570000000002,3.19509,22.98078Q3.0984914,23,3,23Q2.9015086,23,2.80491,22.98078Q2.708311,22.961570000000002,2.617317,22.92388Q2.526322,22.88619,2.44443,22.83147Q2.362537,22.77675,2.292893,22.70711Q2.223249,22.63746,2.16853,22.55557Q2.1138120000000002,22.47368,2.076121,22.38268Q2.03843,22.29169,2.019215,22.19509Q2,22.098489999999998,2,22ZM4,22Q4,22.098489999999998,3.980785,22.19509Q3.96157,22.29169,3.923879,22.38268Q3.8861879999999998,22.47368,3.83147,22.55557Q3.776751,22.63746,3.707107,22.70711Q3.637463,22.77675,3.55557,22.83147Q3.473678,22.88619,3.382683,22.92388Q3.291689,22.961570000000002,3.19509,22.98078Q3.0984914,23,3,23Q2.9015086,23,2.80491,22.98078Q2.708311,22.961570000000002,2.617317,22.92388Q2.526322,22.88619,2.44443,22.83147Q2.362537,22.77675,2.292893,22.70711Q2.223249,22.63746,2.16853,22.55557Q2.1138120000000002,22.47368,2.076121,22.38268Q2.03843,22.29169,2.019215,22.19509Q2,22.098489999999998,2,22Q2,21.901510000000002,2.019215,21.80491Q2.03843,21.70831,2.076121,21.61732Q2.1138120000000002,21.52632,2.16853,21.44443Q2.223249,21.36254,2.292893,21.29289Q2.362537,21.22325,2.44443,21.16853Q2.526322,21.11381,2.617317,21.07612Q2.708311,21.038429999999998,2.80491,21.01921Q2.9015086,21,3,21Q3.0984914,21,3.19509,21.01921Q3.291689,21.038429999999998,3.382683,21.07612Q3.473678,21.11381,3.55557,21.16853Q3.637463,21.22325,3.707107,21.29289Q3.776751,21.36254,3.83147,21.44443Q3.8861879999999998,21.52632,3.923879,21.61732Q3.96157,21.70831,3.980785,21.80491Q4,21.901510000000002,4,22ZM22,22Q22,22.098489999999998,21.9808,22.19509Q21.9616,22.29169,21.9239,22.38268Q21.8862,22.47368,21.8315,22.55557Q21.7767,22.63746,21.7071,22.70711Q21.6375,22.77675,21.5556,22.83147Q21.4737,22.88619,21.3827,22.92388Q21.2917,22.961570000000002,21.1951,22.98078Q21.0985,23,21,23Q20.9015,23,20.8049,22.98078Q20.7083,22.961570000000002,20.6173,22.92388Q20.5263,22.88619,20.4444,22.83147Q20.3625,22.77675,20.2929,22.70711Q20.2232,22.63746,20.1685,22.55557Q20.1138,22.47368,20.0761,22.38268Q20.0384,22.29169,20.0192,22.19509Q20,22.098489999999998,20,22Q20,21.901510000000002,20.0192,21.80491Q20.0384,21.70831,20.0761,21.61732Q20.1138,21.52632,20.1685,21.44443Q20.2232,21.36254,20.2929,21.29289Q20.3625,21.22325,20.4444,21.16853Q20.5263,21.11381,20.6173,21.07612Q20.7083,21.038429999999998,20.8049,21.01921Q20.9015,21,21,21Q21.0985,21,21.1951,21.01921Q21.2917,21.038429999999998,21.3827,21.07612Q21.4737,21.11381,21.5556,21.16853Q21.6375,21.22325,21.7071,21.29289Q21.7767,21.36254,21.8315,21.44443Q21.8862,21.52632,21.9239,21.61732Q21.9616,21.70831,21.9808,21.80491Q22,21.901510000000002,22,22Z" fill="currentColor" fill-stroke-opacity="1"/></g></g></svg>