<svg xmlns="http://www.w3.org/2000/svg" xmlns:xlink="http://www.w3.org/1999/xlink" fill="none" version="1.1" width="23.999998092651367" height="23.999998092651367" viewBox="0 0 23.999998092651367 23.999998092651367"><defs><clipPath id="master_svg0_355_89767"><rect x="0" y="0" width="23.999998092651367" height="23.999998092651367" rx="0"/></clipPath></defs><g clip-path="url(#master_svg0_355_89767)"><g><path d="M0,5L1.5,5L1.5,19L0,19L0,5ZM3,5L4.5,5L4.5,19L3,19L3,5ZM5.25,5L6,5L6,19L5.25,19L5.25,5ZM10.5,5L11.25,5L11.25,19L10.5,19L10.5,5ZM13.875,5L14.625,5L14.625,19L13.875,19L13.875,5ZM16.875,5L17.625,5L17.625,19L16.875,19L16.875,5ZM21.375,5L22.125,5L22.125,19L21.375,19L21.375,5ZM7.875,5L9.375,5L9.375,19L7.875,19L7.875,5ZM18.375,5L19.875,5L19.875,19L18.375,19L18.375,5ZM15,5L16.5,5L16.5,19L15,19L15,5ZM22.5,5L24,5L24,19L22.5,19L22.5,5Z" fill="#000000" fill-opacity="0.6499999761581421"/></g></g></svg>