<svg xmlns="http://www.w3.org/2000/svg" xmlns:xlink="http://www.w3.org/1999/xlink" fill="none" version="1.1" width="20" height="20" viewBox="0 0 20 20"><defs><clipPath id="master_svg0_525_70219"><rect x="0" y="0" width="20" height="20" rx="0"/></clipPath></defs><g clip-path="url(#master_svg0_525_70219)"><g><path d="M12,2.833333L12,7.83333C12,8.293569999999999,12.373096,8.66667,12.833333,8.66667L17.83333,8.66667C18.29357,8.66667,18.66667,8.293569999999999,18.66667,7.83333C18.66667,7.3731,18.29357,7,17.83333,7L14.845,7L18.41417,3.4308300000000003C18.72999,3.10385,18.72548,2.584088,18.40403,2.262639C18.08258,1.9411898,17.56281,1.9366789,17.23583,2.252501L13.66667,5.82167L13.66667,2.833333C13.66667,2.373096,13.29357,2,12.833333,2C12.373096,2,12,2.373096,12,2.833333Z" fill="currentColor" fill-opacity="1"/></g><g><path d="M5.82357,12.66667L2.8352399999999998,12.66667C2.375003,12.66667,2.00190735,12.29357,2.00190735,11.833333C2.00190735,11.373096,2.375003,11,2.8352399999999998,11L7.83524,11C8.295480000000001,11,8.668569999999999,11.373096,8.668569999999999,11.833333L8.668569999999999,16.83333C8.668569999999999,17.29357,8.295480000000001,17.66667,7.83524,17.66667C7.375,17.66667,7.00191,17.29357,7.00191,16.83333L7.00191,13.845L3.43274,17.41417C3.10907,17.749290000000002,2.573522,17.75394,2.244079,17.424500000000002C1.9146347,17.09505,1.9192877,16.5595,2.254407,16.23583L5.82357,12.66667Z" fill-rule="evenodd" fill="currentColor" fill-opacity="1"/></g></g></svg>
