<svg viewBox="0 0 24 24" fill="none" xmlns="http://www.w3.org/2000/svg"><defs><clipPath id="a"><rect rx="0" height="24" width="24"/></clipPath></defs><g clip-path="url(#a)"><path fill="#333" fill-rule="evenodd" d="M4.5 12q0 .098.02.195.018.097.056.188.038.09.093.173.054.082.124.151.07.07.151.124.082.055.173.093.091.038.188.057.097.019.195.019H12q2.48 0 4.233-1.758Q17.984 9.484 17.984 7t-1.751-4.242Q14.48 1 12 1H5.5q-.098 0-.195.02-.097.018-.188.056-.09.038-.173.093-.081.054-.151.124-.07.07-.124.151-.055.082-.093.173-.038.091-.057.188Q4.5 1.902 4.5 2v10Zm2-1H12q1.65 0 2.816-1.17Q15.984 8.658 15.984 7q0-1.658-1.168-2.83Q13.65 3 12 3H6.5v8Z" data-follow-fill="#333"/><path fill="#333" fill-rule="evenodd" d="M4.5 22q0 .099.02.195.018.097.056.188.038.09.093.173.054.081.124.151.07.07.151.124.082.055.173.093.091.038.188.057.097.019.195.019h8.516q2.48 0 4.232-1.758Q20 19.484 20 17t-1.752-4.242Q16.495 11 14.016 11H5.5q-.098 0-.195.02-.097.018-.188.056-.09.038-.173.093-.081.054-.151.124-.07.07-.124.151-.055.082-.093.173-.038.091-.057.188-.019.097-.019.195v10Zm2-1h7.516q1.65 0 2.816-1.17Q18 18.658 18 17q0-1.658-1.168-2.83Q15.665 13 14.016 13H6.5v8Z" data-follow-fill="#333"/></g></svg>