<svg viewBox="0 0 22.4 22.4" fill="none" xmlns="http://www.w3.org/2000/svg">
  <defs>
    <clipPath id="a">
      <rect rx="0" height="22.4" width="22.4" />
    </clipPath>
  </defs>
  <g clip-path="url(#a)">
    <path fill="#0089FF"
      d="M21.333.145c-.386-.187-.76-.187-.96 0-.51.26-1.02.51-1.53.77-1.27.636-2.528 1.271-3.798 1.906l-4.856 2.427c-1.394.699-2.788 1.432-4.194 2.104-1.07.51-2.116 1.084-3.175 1.595-.461.224-.946.373-1.406.609-.374.187-.735.474-.735.935 0 .21.038.509.21.659.064.05.139.087.2.137.947.523 1.844 1.146 2.765 1.718l1.792 1.12h.013c.386.187.76.187 1.147-.187l.012-.013c.011-.012.023-.012.023-.024.014-.013.039-.025.05-.05.027-.025.05-.037.076-.062.025-.025.061-.05.086-.075.037-.037.076-.062.1-.099a.948.948 0 0 1 .124-.112c.05-.038.087-.087.138-.125.05-.05.1-.087.148-.137.05-.05.112-.099.162-.149.064-.05.112-.112.176-.162.062-.062.124-.112.186-.174.063-.062.137-.125.198-.187.076-.062.138-.124.213-.187.075-.062.149-.137.224-.198.075-.076.15-.138.237-.213.074-.074.162-.15.237-.211.086-.075.16-.15.248-.224a2.5 2.5 0 0 0 .25-.237c.086-.074.173-.162.26-.237.088-.074.175-.161.262-.236.087-.087.187-.162.274-.25.087-.086.187-.161.274-.248.087-.087.186-.162.274-.25.099-.086.186-.173.286-.248.1-.087.187-.174.286-.25.1-.086.187-.173.287-.26.099-.087.186-.174.286-.261.099-.088.187-.175.286-.25.087-.087.187-.174.274-.248.087-.089.187-.162.274-.25.087-.088.187-.161.274-.248.087-.089.174-.162.274-.25.087-.074.174-.161.261-.237.087-.075.174-.162.262-.237.087-.073.174-.149.25-.224.086-.073.16-.149.247-.224.075-.073.162-.149.237-.21.075-.076.15-.138.224-.211.075-.064.15-.139.224-.2.075-.063.137-.124.211-.188.063-.062.139-.124.2-.185.062-.064.124-.114.188-.176.062-.05.112-.099.174-.162.05-.049.112-.099.162-.149.05-.05.098-.087.148-.137.05-.037.087-.075.138-.124l.112-.112c.038-.026.061-.063.1-.088.025-.024.05-.049.087-.074.025-.026.05-.038.062-.062l.075-.075h.013c.062.025.124.062.186.087.037.013.062.037.1.05.013.013.025.013.049.025.013 0 .05.014.05.025v.012c-.014.013-.025.013-.025.025L17.263 5l-.162.162c-.076.075-.15.15-.211.237-.05.05-.1.112-.15.161a.542.542 0 0 0-.076.088l-.036.037c-.014.014-.025.037-.037.037-.224.237-.448.486-.672.722l-1.757 1.869c-.672.709-1.33 1.419-2.004 2.128-.635.672-1.27 1.344-1.892 2.017-.486.51-.96 1.021-1.444 1.531-.211.224-.425.448-.635.685l-.014.014c-.185.185-.185.384-.185.571v4.209c0 .386.185.759.572.958.386.187.76 0 .959-.187l1.48-1.481c.251-.25.487-.498.723-.747.026-.025.05-.05.075-.05.037-.014.087.013.112.038.847.56 1.681 1.145 2.527 1.705.635.423 1.27.847 1.892 1.27.211.149.387.224.636.224h.386c.237-.112.46-.26.535-.523.075-.237.088-.51.137-.747.013-.087.038-.187.05-.274.05-.237.087-.461.137-.697.125-.635.249-1.27.374-1.892l.485-2.404c.174-.896.36-1.792.535-2.701l.56-2.776c.175-.883.349-1.769.536-2.653.149-.77.311-1.543.461-2.315.11-.585.236-1.17.348-1.768.062-.336.137-.672.199-.996a.622.622 0 0 0 .025-.15c-.025-.584-.025-.97-.398-1.157l-.001.001Z"
      data-follow-fill="#0089FF" />
  </g>
</svg>