<svg viewBox="0 0 24 24" fill="none" xmlns="http://www.w3.org/2000/svg"><defs><clipPath id="a"><rect rx="0" height="24" width="24"/></clipPath></defs><g clip-path="url(#a)"><path fill="#333" fill-rule="evenodd" d="M4 15h8q.098 0 .195-.02.097-.018.188-.056.09-.038.173-.093.081-.054.151-.124.07-.07.124-.151.055-.082.093-.173.038-.091.057-.188Q13 14.098 13 14t-.02-.195q-.018-.097-.056-.188-.038-.09-.093-.173-.054-.081-.124-.151-.07-.07-.151-.124-.082-.055-.173-.093-.091-.038-.188-.057Q12.098 13 12 13H4q-.098 0-.195.02-.097.018-.188.056-.09.038-.173.093-.081.054-.151.124-.07.07-.124.151-.055.082-.093.173-.038.091-.057.188Q3 13.902 3 14t.02.195q.018.097.056.188.038.09.093.173.054.081.124.151.07.07.151.124.082.055.173.093.091.038.188.057Q3.902 15 4 15ZM4 19.5h8q.098 0 .195-.02.097-.018.188-.056.09-.038.173-.093.081-.054.151-.124.07-.07.124-.151.055-.082.093-.173.038-.091.057-.188.019-.097.019-.195t-.02-.195q-.018-.097-.056-.188-.038-.09-.093-.173-.054-.081-.124-.151-.07-.07-.151-.124-.082-.055-.173-.093-.091-.038-.188-.057-.097-.019-.195-.019H4q-.098 0-.195.02-.097.018-.188.056-.09.038-.173.093-.081.054-.151.124-.07.07-.124.151-.055.082-.093.173-.038.091-.057.188Q3 18.402 3 18.5t.02.195q.018.097.056.188.038.09.093.173.054.081.124.151.07.07.151.124.082.055.173.093.091.038.188.057.097.019.195.019ZM4 10.5h16q.099 0 .195-.02.097-.018.188-.056.09-.038.173-.093.081-.054.151-.124.07-.07.124-.151.055-.082.093-.173.038-.091.057-.188Q21 9.598 21 9.5t-.02-.195q-.018-.097-.056-.188-.038-.09-.093-.173-.054-.081-.124-.151-.07-.07-.151-.124-.082-.055-.173-.093-.091-.038-.188-.057Q20.1 8.5 20 8.5H4q-.098 0-.195.02-.097.018-.188.056-.09.038-.173.093-.081.054-.151.124-.07.07-.124.151-.055.082-.093.173-.038.091-.057.188Q3 9.402 3 9.5t.02.195q.018.097.056.188.038.09.093.173.054.081.124.151.07.07.151.124.082.055.173.093.091.038.188.057.097.019.195.019ZM4 6h16q.099 0 .195-.02.097-.018.188-.056.09-.038.173-.093.081-.054.151-.124.07-.07.124-.151.055-.082.093-.173.038-.091.057-.188Q21 5.098 21 5t-.02-.195q-.018-.097-.056-.188-.038-.09-.093-.173-.054-.081-.124-.151-.07-.07-.151-.124-.082-.055-.173-.093-.091-.038-.188-.057Q20.1 4 20 4H4q-.098 0-.195.02-.097.018-.188.056-.09.038-.173.093-.081.054-.151.124-.07.07-.124.151-.055.082-.093.173-.038.091-.057.188Q3 4.902 3 5t.02.195q.018.097.056.188.038.09.093.173.054.081.124.151.07.07.151.124.082.055.173.093.091.038.188.057Q3.902 6 4 6ZM20.707 14.707q.14-.14.217-.324Q21 14.199 21 14t-.076-.383q-.076-.183-.217-.324l-.009-.009q-.14-.137-.321-.21Q20.196 13 20 13q-.199 0-.383.076-.183.076-.324.217l-5 5q-.14.14-.217.324Q14 18.801 14 19t.076.383q.076.183.217.324.14.14.324.217.184.076.383.076t.383-.076q.183-.076.324-.217l5-5Z" data-follow-fill="#333"/><path fill="#333" fill-rule="evenodd" d="M19.292 19.707q.142.14.325.217.184.076.383.076t.383-.076q.183-.076.324-.217.14-.14.217-.324Q21 19.199 21 19t-.076-.383q-.076-.183-.217-.324l-5-5q-.14-.14-.324-.217Q15.199 13 15 13t-.383.076q-.183.076-.324.217-.14.14-.217.324Q14 13.801 14 14t.076.383q.076.183.217.324l5 5Z" data-follow-fill="#333"/></g></svg>