<svg xmlns="http://www.w3.org/2000/svg" xmlns:xlink="http://www.w3.org/1999/xlink" fill="none" version="1.1" width="29.482559204101562" height="27.550098419189453" viewBox="0 0 29.482559204101562 27.550098419189453"><g><path d="M28.9235,0.182428C28.3828,-0.0608094,27.8588,-0.0608094,27.5802,0.182428C26.8661,0.521591,26.1501,0.845337,25.4361,1.1845C23.6573,2.01014,21.897,2.83577,20.1182,3.66141L13.3186,6.81665C11.3664,7.72451,9.4142,8.67862,7.44537,9.55222C5.94523,10.2151,4.48199,10.9603,2.99845,11.6249C2.35263,11.9161,1.67359,12.1096,1.02962,12.4163C0.505584,12.6595,0,13.0329,0,13.6324C0,13.9065,0.0535107,14.2936,0.295232,14.4889C0.383801,14.554,0.488978,14.602,0.575702,14.6671C1.90055,15.3471,3.15713,16.1573,4.44693,16.9007L6.9564,18.3567L6.97485,18.3567C7.51549,18.6,8.03768,18.6,8.58017,18.1135L8.59678,18.0964C8.61338,18.081,8.62999,18.081,8.62999,18.0655C8.64844,18.0484,8.6835,18.033,8.70011,18.0004C8.73701,17.9679,8.77023,17.9525,8.80529,17.9199C8.84034,17.8874,8.89201,17.8548,8.92707,17.8223C8.97873,17.7743,9.03224,17.7418,9.0673,17.6938C9.11897,17.6442,9.17063,17.5962,9.24075,17.5482C9.31087,17.4986,9.36253,17.4352,9.43265,17.3855C9.50277,17.3204,9.57289,17.2724,9.64116,17.2074C9.71128,17.1423,9.798,17.0789,9.86812,17.0138C9.95669,16.9487,10.025,16.8682,10.1135,16.8031C10.2003,16.7226,10.287,16.6575,10.3737,16.577C10.4623,16.4965,10.5656,16.4143,10.6523,16.3338C10.7575,16.2532,10.8442,16.1727,10.9494,16.0905C11.0546,16.01,11.1579,15.9124,11.2631,15.8336C11.3683,15.7342,11.4734,15.6537,11.5952,15.5561C11.6986,15.4602,11.8222,15.3625,11.9274,15.282C12.0473,15.1844,12.1525,15.0867,12.2743,14.9908C12.396,14.8932,12.5178,14.7955,12.6248,14.6825C12.7448,14.5866,12.8666,14.4718,12.9902,14.3742C13.112,14.2782,13.2338,14.1652,13.3555,14.0675C13.4773,13.9545,13.6176,13.8568,13.7393,13.7438C13.8611,13.6307,14.0014,13.5331,14.1231,13.42C14.2449,13.307,14.3833,13.2094,14.5069,13.0963C14.6453,12.9832,14.7671,12.8702,14.9074,12.7726C15.0476,12.6595,15.1694,12.5464,15.3078,12.4488C15.448,12.3358,15.5698,12.2227,15.71,12.1096C15.8484,11.9966,15.9702,11.8835,16.1104,11.7705C16.2488,11.6557,16.3724,11.5427,16.5108,11.445C16.6326,11.332,16.7728,11.2189,16.8946,11.123C17.0164,11.0082,17.1566,10.9123,17.2784,10.7975C17.4002,10.6845,17.5404,10.5886,17.6622,10.4755C17.784,10.3607,17.9058,10.2648,18.046,10.15C18.1678,10.0541,18.2896,9.94106,18.4114,9.84342C18.5332,9.74579,18.6549,9.63273,18.7786,9.53509C18.9004,9.43917,19.0221,9.34153,19.1273,9.24389C19.2491,9.14797,19.3524,9.05033,19.4742,8.95269C19.5794,8.85677,19.7012,8.75913,19.8063,8.67862C19.9115,8.58099,20.0149,8.50048,20.12,8.40455C20.2252,8.32233,20.3285,8.2247,20.4337,8.14419C20.5389,8.06368,20.6256,7.98317,20.7289,7.90095C20.8175,7.82044,20.9227,7.73993,21.0094,7.65943C21.0961,7.5772,21.1829,7.51211,21.2714,7.4316C21.3582,7.36651,21.4283,7.30313,21.515,7.22091C21.5851,7.15753,21.6718,7.09244,21.742,7.02735C21.8121,6.96226,21.8804,6.9143,21.9505,6.8492C22.0206,6.80124,22.0723,6.75157,22.1424,6.68819L22.2992,6.54259C22.3527,6.50833,22.3859,6.46037,22.4394,6.42782C22.4745,6.39699,22.5096,6.36444,22.5612,6.3319C22.5963,6.29764,22.6313,6.28222,22.648,6.25139L22.7531,6.15375L22.7716,6.15375C22.8583,6.1863,22.945,6.23426,23.0317,6.2668C23.0834,6.28393,23.1185,6.31477,23.172,6.3319C23.1904,6.34902,23.207,6.34902,23.2403,6.36444C23.2587,6.36444,23.3104,6.38157,23.3104,6.39699L23.3104,6.4124C23.2919,6.42953,23.2753,6.42953,23.2753,6.44495L23.2237,6.49291L22.9967,6.7036C22.8915,6.80124,22.7882,6.89717,22.7015,7.01193C22.6313,7.07531,22.5612,7.15753,22.4911,7.22091C22.4517,7.25556,22.4165,7.29404,22.3859,7.33568L22.3343,7.38364C22.3158,7.40077,22.2992,7.4316,22.2826,7.4316C21.9689,7.73993,21.6552,8.06368,21.3416,8.3703L18.8819,10.7992C17.9409,11.7208,17.0183,12.6441,16.0754,13.5656C15.186,14.4392,14.2966,15.3128,13.4257,16.1882C12.7448,16.8511,12.0823,17.5157,11.4033,18.1786C11.1081,18.4698,10.8092,18.761,10.5139,19.0693L10.4955,19.0865C10.2353,19.328,10.2353,19.5866,10.2353,19.8299L10.2353,25.301C10.2353,25.8029,10.4955,26.2877,11.0361,26.5463C11.5768,26.7896,12.1008,26.5463,12.3794,26.3031L14.4534,24.3777C14.804,24.054,15.1343,23.7302,15.4646,23.4065C15.5015,23.3739,15.5347,23.3414,15.5698,23.3414C15.6214,23.3243,15.6916,23.3585,15.7266,23.3911C16.9131,24.1191,18.0811,24.8796,19.2657,25.6076C20.1551,26.1575,21.0445,26.709,21.9154,27.2589C22.2106,27.4525,22.4561,27.5501,22.8048,27.5501L23.3454,27.5501C23.6776,27.4045,23.9913,27.2109,24.0946,26.8701C24.1998,26.5617,24.2182,26.2072,24.2865,25.8988C24.3049,25.7858,24.34,25.6556,24.3566,25.5425C24.4267,25.2342,24.4784,24.943,24.5485,24.6364C24.7238,23.8107,24.8972,22.9851,25.0725,22.1766L25.7516,19.0522C25.9951,17.8874,26.2572,16.7226,26.5007,15.5407L27.2849,11.9315C27.5303,10.7838,27.7739,9.63273,28.0359,8.48335C28.2444,7.48128,28.4714,6.47749,28.6817,5.47371C28.8367,4.71316,29.012,3.95262,29.1689,3.17494C29.2556,2.73814,29.3608,2.30134,29.4475,1.87996C29.4676,1.81699,29.4793,1.752,29.4826,1.6864C29.4475,0.925851,29.4475,0.423959,28.9253,0.180721L28.9235,0.182428Z" fill="#1890FF" fill-opacity="1"/></g></svg>