<svg xmlns="http://www.w3.org/2000/svg" xmlns:xlink="http://www.w3.org/1999/xlink" fill="none" version="1.1" width="24" height="24" viewBox="0 0 24 24"><defs><clipPath id="master_svg0_1_392"><rect x="0" y="0" width="24" height="24" rx="0"/></clipPath></defs><g clip-path="url(#master_svg0_1_392)"><g><path d="M1,19L1,5Q1,4.171573,1.585786,3.585786Q2.171573,3,3,3L21,3Q21.8284,3,22.4142,3.585786Q23,4.171573,23,5L23,19Q23,19.828400000000002,22.4142,20.4142Q21.8284,21,21,21L3,21Q2.171573,21,1.585786,20.4142Q1,19.828400000000002,1,19ZM3,19L3,19L21,19L21,19L21,5L21,5L3,5L3,5L3,19Z" fill="currentColor" fill-stroke-opacity="1"/></g><g transform="matrix(0,1,-1,0,14,2)"><path d="M14,9L6,9Q5.9015086,9,5.80491,8.980785000000001Q5.708311,8.96157,5.617317,8.923879Q5.526322,8.886188,5.44443,8.83147Q5.362537,8.776751,5.292893,8.707107Q5.223249,8.637463,5.16853,8.55557Q5.113812,8.473678,5.076121,8.382683Q5.03843,8.291689,5.019215,8.19509Q5,8.0984914,5,8Q5,7.9015086,5.019215,7.80491Q5.03843,7.708311,5.076121,7.617317Q5.113812,7.526322,5.16853,7.44443Q5.223249,7.362537,5.292893,7.292893Q5.362537,7.223249,5.44443,7.16853Q5.526322,7.113812,5.617317,7.076121Q5.708311,7.03843,5.80491,7.019215Q5.9015086,7,6,7L14,7Q14.09849,7,14.19509,7.019215Q14.29169,7.03843,14.38268,7.076121Q14.47368,7.113812,14.55557,7.16853Q14.63746,7.223249,14.70711,7.292893Q14.77675,7.362537,14.83147,7.44443Q14.88619,7.526322,14.92388,7.617317Q14.96157,7.708311,14.98078,7.80491Q15,7.9015086,15,8Q15,8.0984914,14.98078,8.19509Q14.96157,8.291689,14.92388,8.382683Q14.88619,8.473678,14.83147,8.55557Q14.77675,8.637463,14.70711,8.707107Q14.63746,8.776751,14.55557,8.83147Q14.47368,8.886188,14.38268,8.923879Q14.29169,8.96157,14.19509,8.980785000000001Q14.09849,9,14,9ZM15,8Q15,8.0984914,14.98078,8.19509Q14.96157,8.291689,14.92388,8.382683Q14.88619,8.473678,14.83147,8.55557Q14.77675,8.637463,14.70711,8.707107Q14.63746,8.776751,14.55557,8.83147Q14.47368,8.886188,14.38268,8.923879Q14.29169,8.96157,14.19509,8.980785000000001Q14.09849,9,14,9Q13.90151,9,13.80491,8.980785000000001Q13.70831,8.96157,13.61732,8.923879Q13.52632,8.886188,13.44443,8.83147Q13.36254,8.776751,13.29289,8.707107Q13.22325,8.637463,13.16853,8.55557Q13.11381,8.473678,13.07612,8.382683Q13.03843,8.291689,13.019210000000001,8.19509Q13,8.0984914,13,8Q13,7.9015086,13.019210000000001,7.80491Q13.03843,7.708311,13.07612,7.617317Q13.11381,7.526322,13.16853,7.44443Q13.22325,7.362537,13.29289,7.292893Q13.36254,7.223249,13.44443,7.16853Q13.52632,7.113812,13.61732,7.076121Q13.70831,7.03843,13.80491,7.019215Q13.90151,7,14,7Q14.09849,7,14.19509,7.019215Q14.29169,7.03843,14.38268,7.076121Q14.47368,7.113812,14.55557,7.16853Q14.63746,7.223249,14.70711,7.292893Q14.77675,7.362537,14.83147,7.44443Q14.88619,7.526322,14.92388,7.617317Q14.96157,7.708311,14.98078,7.80491Q15,7.9015086,15,8ZM7,8Q7,8.0984914,6.980785,8.19509Q6.96157,8.291689,6.923879,8.382683Q6.886188,8.473678,6.83147,8.55557Q6.776751,8.637463,6.707107,8.707107Q6.637463,8.776751,6.55557,8.83147Q6.473678,8.886188,6.382683,8.923879Q6.291689,8.96157,6.19509,8.980785000000001Q6.0984914,9,6,9Q5.9015086,9,5.80491,8.980785000000001Q5.708311,8.96157,5.617317,8.923879Q5.526322,8.886188,5.44443,8.83147Q5.362537,8.776751,5.292893,8.707107Q5.223249,8.637463,5.16853,8.55557Q5.113812,8.473678,5.076121,8.382683Q5.03843,8.291689,5.019215,8.19509Q5,8.0984914,5,8Q5,7.9015086,5.019215,7.80491Q5.03843,7.708311,5.076121,7.617317Q5.113812,7.526322,5.16853,7.44443Q5.223249,7.362537,5.292893,7.292893Q5.362537,7.223249,5.44443,7.16853Q5.526322,7.113812,5.617317,7.076121Q5.708311,7.03843,5.80491,7.019215Q5.9015086,7,6,7Q6.0984914,7,6.19509,7.019215Q6.291689,7.03843,6.382683,7.076121Q6.473678,7.113812,6.55557,7.16853Q6.637463,7.223249,6.707107,7.292893Q6.776751,7.362537,6.83147,7.44443Q6.886188,7.526322,6.923879,7.617317Q6.96157,7.708311,6.980785,7.80491Q7,7.9015086,7,8Z" fill="currentColor" fill-stroke-opacity="1"/></g></g></svg>