<svg xmlns="http://www.w3.org/2000/svg" xmlns:xlink="http://www.w3.org/1999/xlink" fill="none" version="1.1" width="24" height="24" viewBox="0 0 24 24"><defs><clipPath id="master_svg0_1_382"><rect x="0" y="0" width="24" height="24" rx="0"/></clipPath></defs><g clip-path="url(#master_svg0_1_382)"><g><path d="M3,12Q3,13.8317,3.70685,15.5029Q4.38991,17.117800000000003,5.6360399999999995,18.364Q6.88216,19.6101,8.4971,20.2931Q10.1683,21,12,21Q13.8317,21,15.5029,20.2931Q17.117800000000003,19.6101,18.364,18.364Q19.6101,17.117800000000003,20.2931,15.5029Q21,13.8317,21,12Q21,10.16829,20.2931,8.4971Q19.6101,6.88217,18.364,5.6360399999999995Q17.117800000000003,4.38991,15.5029,3.70685Q13.8317,3,12,3Q10.16829,3,8.4971,3.70685Q6.88216,4.38991,5.6360399999999995,5.6360399999999995Q4.38992,6.88216,3.70685,8.4971Q3,10.16829,3,12ZM1,12Q1,9.76272,1.864845,7.718Q2.6998670000000002,5.74378,4.22182,4.22182Q5.74378,2.699866,7.718,1.864845Q9.76272,1,12,1Q14.2373,1,16.282,1.864845Q18.2562,2.699866,19.7782,4.22182Q21.3001,5.74378,22.1352,7.718Q23,9.76272,23,12Q23,14.2373,22.1352,16.282Q21.3001,18.2562,19.7782,19.7782Q18.2562,21.3001,16.282,22.1352Q14.2373,23,12,23Q9.76272,23,7.718,22.1352Q5.74378,21.3001,4.22182,19.7782Q2.699865,18.2562,1.864845,16.282Q1,14.2373,1,12Z" fill="currentColor" fill-stroke-opacity="1"/></g><g><path d="M15.536190120544433,16.95125006790161L11.296493120544433,12.711560067901612Q11.155823120544433,12.570890067901612,11.079701120544433,12.38709006790161Q11.003580120544434,12.203290067901612,11.003600120544434,12.004350067901612L11.004200120544434,5.9999501643016115Q11.004210120544434,5.9014587679016115,11.023434120544433,5.804862067901611Q11.042659120544434,5.708265067901611,11.080359120544433,5.6172740679016115Q11.118059120544434,5.526284067901611,11.172786120544433,5.444397067901612Q11.227513120544433,5.362510067901612,11.297164120544434,5.292873067901612Q11.366815120544434,5.223236067901611,11.448713120544433,5.168525067901611Q11.530611120544433,5.113814067901611,11.621609120544434,5.076132067901611Q11.712607120544433,5.0384500679016115,11.809208120544433,5.019245067901611Q11.905808520544433,5.000040067901612,12.004299885544434,5.000050067901611Q12.102791320544434,5.000060067901611,12.199388120544434,5.019284067901611Q12.295985120544433,5.038509067901611,12.386976120544434,5.076209067901611Q12.477966120544433,5.113909067901611,12.559853120544433,5.168636067901612Q12.641740120544434,5.223363067901611,12.711377120544434,5.293014067901611Q12.781014120544434,5.362665067901611,12.835725120544433,5.444563067901611Q12.890436120544434,5.526461067901612,12.928118120544433,5.617459067901612Q12.965799120544434,5.708457067901612,12.985005120544434,5.805058067901611Q13.004210120544434,5.901658567901611,13.004200120544434,6.000149971501611L13.003600120544434,12.004550067901611L12.003600120544434,12.004450067901612L12.710707120544434,11.297340067901612L16.950410120544433,15.53704006790161Q17.020050120544433,15.606690067901612,17.074770120544436,15.688580067901611Q17.129490120544432,15.770470067901611,17.167180120544433,15.861470067901612Q17.204870120544435,15.952460067901612,17.224080120544436,16.04905006790161Q17.243300120544433,16.145650067901613,17.243300120544433,16.24415006790161Q17.243300120544433,16.34265006790161,17.224080120544436,16.43925006790161Q17.204870120544435,16.535850067901613,17.167180120544433,16.62685006790161Q17.129490120544432,16.71785006790161,17.074770120544436,16.799750067901613Q17.020050120544433,16.88165006790161,16.950410120544433,16.95125006790161Q16.880760120544434,17.02095006790161,16.798870120544436,17.075650067901613Q16.716980120544434,17.13035006790161,16.625980120544433,17.16805006790161Q16.534990120544435,17.20575006790161,16.438390120544433,17.22495006790161Q16.341790120544434,17.24415006790161,16.243300120544433,17.24415006790161Q16.144810120544435,17.24415006790161,16.048210120544432,17.22495006790161Q15.951610120544434,17.20575006790161,15.860620120544434,17.16805006790161Q15.769620120544435,17.13035006790161,15.687730120544433,17.075650067901613Q15.605840120544434,17.02095006790161,15.536190120544433,16.95125006790161ZM17.243300120544433,16.24415006790161Q17.243300120544433,16.34265006790161,17.224080120544436,16.43925006790161Q17.204870120544435,16.535850067901613,17.167180120544433,16.62685006790161Q17.129490120544432,16.71785006790161,17.074770120544436,16.799750067901613Q17.020050120544433,16.88165006790161,16.950410120544433,16.95125006790161Q16.880760120544434,17.02095006790161,16.798870120544436,17.075650067901613Q16.716980120544434,17.13035006790161,16.625980120544433,17.16805006790161Q16.534990120544435,17.20575006790161,16.438390120544433,17.22495006790161Q16.341790120544434,17.24415006790161,16.243300120544433,17.24415006790161Q16.144810120544435,17.24415006790161,16.048210120544432,17.22495006790161Q15.951610120544434,17.20575006790161,15.860620120544434,17.16805006790161Q15.769620120544435,17.13035006790161,15.687730120544433,17.075650067901613Q15.605840120544434,17.02095006790161,15.536190120544433,16.95125006790161Q15.466550120544433,16.88165006790161,15.411830120544433,16.799750067901613Q15.357110120544434,16.71785006790161,15.319420120544434,16.62685006790161Q15.281730120544434,16.535850067901613,15.262510120544434,16.43925006790161Q15.243300120544433,16.34265006790161,15.243300120544433,16.24415006790161Q15.243300120544433,16.145650067901613,15.262510120544434,16.04905006790161Q15.281730120544434,15.952460067901612,15.319420120544434,15.861470067901612Q15.357110120544434,15.770470067901611,15.411830120544433,15.688580067901611Q15.466550120544433,15.606690067901612,15.536190120544433,15.53704006790161Q15.605840120544434,15.467400067901611,15.687730120544433,15.412680067901611Q15.769620120544435,15.357960067901612,15.860620120544434,15.320270067901612Q15.951610120544434,15.28258006790161,16.048210120544432,15.263360067901612Q16.144810120544435,15.24415006790161,16.243300120544433,15.24415006790161Q16.341790120544434,15.24415006790161,16.438390120544433,15.263370067901612Q16.534990120544435,15.28258006790161,16.625980120544433,15.320270067901612Q16.716980120544434,15.357960067901612,16.798870120544436,15.412680067901611Q16.880760120544434,15.467400067901611,16.950410120544433,15.53704006790161Q17.020050120544433,15.606690067901612,17.074770120544436,15.688580067901611Q17.129490120544432,15.770470067901611,17.167180120544433,15.861470067901612Q17.204870120544435,15.952460067901612,17.224080120544436,16.04905006790161Q17.243300120544433,16.145650067901613,17.243300120544433,16.24415006790161ZM13.004200120544434,6.000050067901611Q13.004200120544434,6.098541467901612,12.984985120544433,6.195140067901612Q12.965770120544434,6.291739067901611,12.928079120544433,6.382733067901611Q12.890388120544433,6.473728067901611,12.835669120544434,6.555620067901612Q12.780951120544433,6.637513067901612,12.711307120544433,6.707157067901611Q12.641663120544434,6.776801067901611,12.559770120544433,6.831520067901612Q12.477877120544434,6.886238067901611,12.386883120544434,6.923929067901612Q12.295889120544434,6.961620067901611,12.199290120544434,6.980835067901611Q12.102691420544433,7.000050067901611,12.004199981544433,7.000050067901611Q11.905708620544434,7.000050067901611,11.809110120544434,6.980835067901611Q11.712511120544434,6.961620067901611,11.621516120544433,6.923929067901612Q11.530522120544434,6.886238067901611,11.448630120544433,6.831520067901612Q11.366737120544434,6.776801067901611,11.297093120544433,6.707157067901611Q11.227449120544433,6.637513067901612,11.172730120544433,6.555620067901612Q11.118011120544434,6.473728067901611,11.080320120544433,6.382733067901611Q11.042629120544433,6.291739067901611,11.023415120544433,6.195140067901612Q11.004200120544434,6.098541467901612,11.004200120544434,6.000050067901611Q11.004200120544434,5.901558667901611,11.023415120544433,5.804960067901611Q11.042629120544433,5.7083610679016115,11.080320120544433,5.617367067901611Q11.118011120544434,5.526372067901612,11.172730120544433,5.444480067901611Q11.227449120544433,5.362587067901611,11.297093120544433,5.292943067901612Q11.366737120544434,5.223299067901611,11.448630120544433,5.168580067901611Q11.530522120544434,5.113862067901612,11.621516120544433,5.076171067901611Q11.712511120544434,5.038480067901611,11.809110120544434,5.019265067901611Q11.905708620544434,5.000050067901611,12.004199981544433,5.000050067901611Q12.102691420544433,5.000050067901611,12.199290120544434,5.019265067901611Q12.295889120544434,5.038480067901611,12.386883120544434,5.076171067901611Q12.477877120544434,5.113862067901612,12.559770120544433,5.168580067901611Q12.641663120544434,5.223299067901611,12.711307120544433,5.292943067901612Q12.780951120544433,5.362587067901611,12.835669120544434,5.444480067901611Q12.890388120544433,5.526372067901612,12.928079120544433,5.617367067901611Q12.965770120544434,5.7083610679016115,12.984985120544433,5.804960067901611Q13.004200120544434,5.901558667901611,13.004200120544434,6.000050067901611Z" fill="currentColor" fill-stroke-opacity="1"/></g></g></svg>