<svg xmlns="http://www.w3.org/2000/svg" xmlns:xlink="http://www.w3.org/1999/xlink" fill="none" version="1.1" width="24"
     height="24" viewBox="0 0 24 24">
  <defs>
    <clipPath id="master_svg0_527_23001">
      <rect x="0" y="0" width="24" height="24" rx="0"/>
    </clipPath>
  </defs>
  <g clip-path="url(#master_svg0_527_23001)">
    <g>
      <path
        d="M1.5,5L1.5,19Q1.5,19.8284,2.0857900000000003,20.4142Q2.67157,21,3.5,21L20.5,21Q21.3284,21,21.9142,20.4142Q22.5,19.8284,22.5,19L22.5,5Q22.5,4.17157,21.9142,3.5857900000000003Q21.3284,3,20.5,3L3.5,3Q2.67157,3,2.085786,3.585786Q1.5,4.17157,1.5,5ZM20.5,14.9764L20.5,5L3.5,5L3.5,14.5858L6.79289,11.29289C7.1532,10.932590000000001,7.7268,10.90082,8.124690000000001,11.21913L9.86985,12.61525L12.2407,9.84921C12.5861,9.44633,13.1859,9.38331,13.6075,9.705639999999999L20.5,14.9764ZM7,9.5C7.82843,9.5,8.5,8.82843,8.5,8C8.5,7.17157,7.82843,6.5,7,6.5C6.17157,6.5,5.5,7.17157,5.5,8C5.5,8.82843,6.17157,9.5,7,9.5ZM3.5,17.4142L3.5,19L20.5,19L20.5,17.4942L13.1438,11.86884L10.75926,14.6508C10.40842,15.0601,9.79627,15.1176,9.375309999999999,14.7809L7.57422,13.34L3.5,17.4142Z"
        fill-rule="evenodd" fill="currentColor" fill-opacity="1"/>
    </g>
  </g>
</svg>
