<svg viewBox="0 0 22.4 22.4" fill="none" xmlns="http://www.w3.org/2000/svg">
  <defs>
    <clipPath id="a">
      <rect rx="0" height="22.4" width="22.4" />
    </clipPath>
  </defs>
  <g clip-path="url(#a)">
    <path fill="#F55047"
      d="M14.827 9.382a5.414 5.414 0 0 0-3.323 1.138l7.637 7.636a5.419 5.419 0 0 0 1.137-3.322 5.452 5.452 0 0 0-5.451-5.452Zm-5.45 5.452a5.452 5.452 0 0 0 5.452 5.45 5.414 5.414 0 0 0 3.323-1.137l-7.637-7.636a5.419 5.419 0 0 0-1.137 3.323Z"
      data-follow-fill="#F55047" />
    <path fill="#F55047"
      d="M9.16 10.292a7.301 7.301 0 0 1 2.152-1.817H4.835v-.908h9.084v.063c.298-.037.6-.063.908-.063.632 0 1.243.09 1.829.24V2.115H2.122v16.352H8.54a7.229 7.229 0 0 1-.98-3.633c0-.309.026-.61.064-.908h-2.79v-.908H7.8A7.234 7.234 0 0 1 8.54 11.2H4.835v-.908h4.324Zm-4.325-5.45h9.084v.907H4.835V4.84Z"
      data-follow-fill="#F55047" />
  </g>
</svg>