<svg viewBox="0 0 24 24" fill="none" xmlns="http://www.w3.org/2000/svg"><defs><clipPath id="a"><rect rx="0" height="24" width="24"/></clipPath></defs><g clip-path="url(#a)"><path fill="#333" d="M3 15v-3q0-.098.02-.195.018-.097.056-.188.038-.09.093-.173.054-.081.124-.151.07-.07.151-.124.082-.055.173-.093.091-.038.188-.057Q3.902 11 4 11h16q.099 0 .195.02.097.018.188.056.09.038.173.093.081.054.151.124.07.07.124.151.055.082.093.173.038.091.057.188.019.097.019.195v3q0 .098-.02.195-.018.097-.056.188-.038.09-.093.173-.054.081-.124.151-.07.07-.151.124-.082.055-.173.093-.091.038-.188.057Q20.1 16 20 16H4q-.098 0-.195-.02-.097-.018-.188-.056-.09-.038-.173-.093-.081-.054-.151-.124-.07-.07-.124-.151-.055-.082-.093-.173-.038-.091-.057-.188Q3 15.098 3 15Zm2-2v1h14v-1H5ZM3 22v-3q0-.098.02-.195.018-.097.056-.188.038-.09.093-.173.054-.081.124-.151.07-.07.151-.124.082-.055.173-.093.091-.038.188-.057Q3.902 18 4 18h16q.099 0 .195.02.097.018.188.056.09.038.173.093.081.054.151.124.07.07.124.151.055.082.093.173.038.091.057.188.019.097.019.195v3q0 .098-.02.195-.018.097-.056.188-.038.09-.093.173-.054.081-.124.151-.07.07-.151.124-.082.055-.173.093-.091.038-.188.057Q20.1 23 20 23H4q-.098 0-.195-.02-.097-.018-.188-.056-.09-.038-.173-.093-.081-.054-.151-.124-.07-.07-.124-.151-.055-.082-.093-.173-.038-.091-.057-.188Q3 22.098 3 22Zm2-2v1h14v-1H5Z" data-follow-fill="#333"/><path fill="#333" fill-rule="evenodd" d="M14.293 8.293q-.14.14-.217.324Q14 8.801 14 9t.076.383q.076.183.217.324.14.14.324.217.184.076.383.076t.383-.076q.183-.076.324-.217l3-3q.07-.07.124-.151.055-.082.093-.173.038-.091.057-.188Q19 6.098 19 6t-.02-.195q-.018-.097-.056-.188-.038-.09-.093-.173-.054-.081-.124-.151l-3-3q-.14-.14-.324-.217Q15.199 2 15 2t-.383.076q-.183.076-.324.217-.14.14-.217.324Q14 2.801 14 3t.076.383q.076.183.217.324L16.586 6l-2.293 2.293Z" data-follow-fill="#333"/><path fill="#333" fill-rule="evenodd" d="M4 7h12q.099 0 .195-.02.097-.018.188-.056.09-.038.173-.093.081-.054.151-.124.07-.07.124-.151.055-.082.093-.173.038-.091.057-.188Q17 6.098 17 6t-.02-.195q-.018-.097-.056-.188-.038-.09-.093-.173-.054-.081-.124-.151-.07-.07-.151-.124-.082-.055-.173-.093-.091-.038-.188-.057Q16.1 5 16 5H4q-.098 0-.195.02-.097.018-.188.056-.09.038-.173.093-.081.054-.151.124-.07.07-.124.151-.055.082-.093.173-.038.091-.057.188Q3 5.902 3 6t.02.195q.018.097.056.188.038.09.093.173.054.081.124.151.07.07.151.124.082.055.173.093.091.038.188.057Q3.902 7 4 7Z" data-follow-fill="#333"/></g></svg>