<svg xmlns="http://www.w3.org/2000/svg" xmlns:xlink="http://www.w3.org/1999/xlink" fill="none" version="1.1" width="24" height="24" viewBox="0 0 24 24"><defs><clipPath id="master_svg0_1_257"><rect x="0" y="0" width="24" height="24" rx="0"/></clipPath></defs><g clip-path="url(#master_svg0_1_257)"><g><path d="M2.801462,11.40195Q6.97869,17,12,17Q17.0213,17,21.1985,11.40195L22,12L21.1985,12.59805Q17.0213,7,12,7Q6.97869,7,2.801462,12.59805L2,12L2.801462,11.40195ZM1.198538,12.59805Q1.150512,12.53369,1.113373,12.462489999999999Q1.076233,12.39128,1.050932,12.31507Q1.02563,12.238859999999999,1.012815,12.15958Q1,12.080300000000001,1,12Q1,11.91969,1.012815,11.84042Q1.02563,11.761140000000001,1.050932,11.68493Q1.076233,11.60872,1.113373,11.53752Q1.150512,11.46632,1.198538,11.40195Q5.97564,5,12,5Q18.0244,5,22.8015,11.40195Q22.8495,11.46632,22.8866,11.53752Q22.9238,11.60872,22.9491,11.68493Q22.9744,11.76115,22.9872,11.84042Q23,11.919699999999999,23,12Q23,12.08031,22.9872,12.15958Q22.9744,12.238859999999999,22.9491,12.31507Q22.9238,12.39128,22.8866,12.462489999999999Q22.8495,12.53369,22.8015,12.59805Q18.0244,19,12,19Q5.97564,19,1.198538,12.59805L1.198538,12.59805Z" fill="currentColor" fill-stroke-opacity="1"/></g><g><path d="M10.5,12Q10.5,12.62132,10.93934,13.06066Q11.37868,13.5,12,13.5Q12.62132,13.5,13.06066,13.06066Q13.5,12.62132,13.5,12Q13.5,11.37868,13.06066,10.93934Q12.62132,10.5,12,10.5Q11.37868,10.5,10.93934,10.93934Q10.5,11.37868,10.5,12ZM8.5,12Q8.5,10.55026,9.5251277,9.5251276Q10.55026,8.5,12,8.5Q13.44974,8.5,14.47487,9.5251277Q15.5,10.55026,15.5,12Q15.5,13.44974,14.47487,14.47487Q13.44974,15.5,12,15.5Q10.55026,15.5,9.5251276,14.47487Q8.5,13.44974,8.5,12Z" fill="currentColor" fill-stroke-opacity="1"/></g></g></svg>