<svg viewBox="0 0 16.8 16.8" fill="none" xmlns="http://www.w3.org/2000/svg">
  <defs>
    <clipPath id="a">
      <rect rx="0" height="16.8" width="16.8"/>
    </clipPath>
  </defs>
  <g clip-path="url(#a)">
    <path fill-opacity=".8" fill="currentColor" fill-rule="evenodd" d="M15.4 13.65q.069 0 .137-.013.067-.014.13-.04.065-.027.122-.065.057-.038.106-.087.049-.049.087-.106.038-.057.065-.121.026-.064.04-.131.013-.068.013-.137V2.45q0-.069-.014-.137-.013-.067-.04-.13-.026-.065-.064-.122-.038-.057-.087-.106-.049-.049-.106-.087-.057-.038-.121-.065-.064-.026-.131-.04-.068-.013-.137-.013h-14q-.069 0-.137.013-.067.014-.131.04-.064.027-.121.065-.057.038-.106.087-.049.049-.087.106-.038.057-.065.121-.026.064-.04.131Q.7 2.381.7 2.45v10.5q0 .069.013.137.014.067.04.13.027.065.065.122.038.057.087.106.049.049.106.087.057.038.121.065.064.026.131.04.068.013.137.013h4.96l1.545 1.545q.049.049.106.087.057.038.121.065.064.026.131.04.068.013.137.013t.136-.014q.068-.013.132-.04.063-.026.12-.064.058-.038.107-.087l1.545-1.545h4.96Zm-.7-1.4h-4.55q-.14 0-.268.053-.129.054-.227.152L8.4 13.71l-1.255-1.255q-.099-.098-.227-.152-.129-.053-.268-.053H2.1v-9.1h12.6v9.1Z" data-follow-fill="currentColor"/>
    <path fill-opacity=".8" fill="currentColor" fill-rule="evenodd" d="M4.9 6.3H7q.069 0 .136-.013.068-.014.132-.04.063-.027.12-.065.058-.038.107-.087.049-.049.087-.106.038-.057.065-.121.026-.064.04-.131.013-.068.013-.137t-.014-.137q-.013-.067-.04-.13-.026-.065-.064-.122-.038-.057-.087-.106-.049-.049-.106-.087-.058-.038-.121-.065-.064-.026-.132-.04Q7.07 4.9 7 4.9H4.9q-.069 0-.137.013-.067.014-.131.04-.064.027-.121.065-.057.038-.106.087-.049.049-.087.106-.038.057-.065.121-.026.064-.04.131-.013.068-.013.137t.013.137q.014.067.04.13.027.065.065.122.038.057.087.106.049.049.106.087.057.038.121.065.064.026.131.04.068.013.137.013ZM4.2 8.4q0 .069.013.137.014.067.04.13.027.065.065.122.038.057.087.106.049.049.106.087.057.038.121.065.064.026.131.04.068.013.137.013h.7q.069 0 .136-.013.068-.014.132-.04.063-.027.12-.065.058-.038.107-.087.049-.049.087-.106.038-.057.065-.121.026-.064.04-.131.013-.068.013-.137t-.014-.137q-.013-.067-.04-.13-.026-.065-.064-.122-.038-.057-.087-.106-.049-.049-.106-.087-.058-.038-.121-.065-.064-.026-.132-.04Q5.67 7.7 5.6 7.7h-.7q-.069 0-.137.013-.067.014-.131.04-.064.027-.121.065-.057.038-.106.087-.049.049-.087.106-.038.057-.065.121-.026.064-.04.131-.013.068-.013.137ZM8.4 9.1h3.5q.069 0 .136-.013.068-.014.132-.04.063-.027.12-.065.058-.038.107-.087.049-.049.087-.106.038-.057.065-.121.026-.064.04-.131.013-.068.013-.137t-.014-.137q-.013-.067-.04-.13-.026-.065-.064-.122-.038-.057-.087-.106-.049-.049-.106-.087-.058-.038-.121-.065-.064-.026-.132-.04Q11.97 7.7 11.9 7.7H8.4q-.069 0-.137.013-.067.014-.131.04-.064.027-.121.065-.057.038-.106.087-.049.049-.087.106-.038.057-.065.121-.026.064-.04.131-.013.068-.013.137t.013.137q.014.067.04.13.027.065.065.122.038.057.087.106.049.049.106.087.057.038.121.065.064.026.131.04.068.013.137.013Z" data-follow-fill="currentColor"/>
  </g>
</svg>