<svg viewBox="0 0 13 12" fill="none" xmlns="http://www.w3.org/2000/svg"><path fill="#626C78" d="M0 1.5Q0 .879.44.44.878 0 1.5 0h10q.621 0 1.06.44.44.439.44 1.06v9.368q0 .469-.332.8-.331.332-.8.332H1.132q-.469 0-.8-.332-.332-.331-.332-.8V1.5Zm1 0v9.368Q1 11 1.132 11h10.736Q12 11 12 10.868V1.5q0-.207-.146-.354Q11.707 1 11.5 1h-10q-.207 0-.354.146Q1 1.293 1 1.5Z" data-follow-fill="#626C78"/><path fill="#626C78" fill-rule="evenodd" d="M.5 3.75h12q.05 0 .098.01t.093.028q.046.019.087.046.04.028.076.062.034.035.062.076.027.041.046.087.019.045.028.093.01.049.01.098 0 .05-.01.098t-.028.093q-.019.046-.046.087-.028.04-.062.076-.035.034-.076.062-.041.027-.087.046-.045.019-.094.028-.048.01-.097.01H.5q-.05 0-.098-.01T.31 4.712q-.046-.019-.087-.046-.04-.028-.076-.062-.034-.035-.062-.076-.027-.041-.046-.087Q.02 4.396.01 4.348 0 4.299 0 4.25q0-.05.01-.098t.028-.093q.019-.046.046-.087.028-.04.062-.076.035-.034.076-.062.041-.027.087-.046.045-.019.093-.028.049-.01.098-.01ZM.5 7.224h12q.05 0 .098.01.048.009.093.028.046.019.087.046.04.027.076.062.034.035.062.076.027.04.046.086.019.046.028.094.01.048.01.098 0 .049-.01.097-.01.049-.028.094-.019.046-.046.086-.028.041-.062.076-.035.035-.076.062-.041.028-.087.047-.045.018-.094.028-.048.01-.097.01H.5q-.05 0-.098-.01T.31 8.186q-.046-.02-.087-.047-.04-.027-.076-.062-.034-.035-.062-.076-.027-.04-.046-.086Q.02 7.87.01 7.821 0 7.773 0 7.724q0-.05.01-.098t.028-.094q.019-.045.046-.086.028-.041.062-.076.035-.035.076-.062.041-.027.087-.046.045-.02.093-.029.049-.01.098-.01Z" data-follow-fill="#626C78"/><path fill="#626C78" fill-rule="evenodd" d="M4 4.583V12h1V4.583H4ZM8 4.583V12h1V4.583H8Z" data-follow-fill="#626C78"/><path fill="#626C78" d="M3.102 2.5c.292 0 .534.226.534.5s-.242.5-.534.5H2.034c-.292 0-.534-.226-.534-.5s.242-.5.534-.5h1.068Zm2.932 0c.292 0 .534.226.534.5s-.242.5-.534.5H4.966c-.292 0-.534-.226-.534-.5s.242-.5.534-.5h1.068Zm2.932 0c.292 0 .534.226.534.5s-.242.5-.534.5H7.898c-.292 0-.534-.226-.534-.5s.242-.5.534-.5h1.068Z" data-follow-fill="#626C78"/></svg>