<svg viewBox="0 0 24 24" fill="none" xmlns="http://www.w3.org/2000/svg"><g style="mix-blend-mode:passthrough"><path fill="currentColor" fill-rule="evenodd" d="M13 3V2a1 1 0 1 0-2 0v1c0 .07.007.137.02.202q-1.007.123-1.965.503-1.54.61-2.712 1.781-1.171 1.172-1.781 2.712Q4 9.617 4 11.143V18h2v-6.857a6 6 0 0 1 12 0V18h2v-6.857q0-1.526-.562-2.945-.61-1.54-1.781-2.712-1.172-1.172-2.712-1.781-.958-.38-1.965-.503c.013-.065.02-.133.02-.202Zm2.883 17H21a1 1 0 1 0 0-2H3a1 1 0 1 0 0 2h5.117q.254 1.028 1.055 1.828Q10.343 23 12 23q1.657 0 2.828-1.172.801-.8 1.055-1.828Zm-2.145 0h-3.476q.13.22.324.414Q11.172 21 12 21t1.414-.586q.194-.194.324-.414Z" style="mix-blend-mode:passthrough" data-follow-fill="#333"/></g></svg>
