<svg xmlns="http://www.w3.org/2000/svg" fill="none" viewBox="0 0 24 24"><defs><clipPath id="a"><rect width="24" height="24" rx="0"/></clipPath></defs><g clip-path="url(#a)"><rect width="24" height="24" rx="0" fill="#FFF" fill-opacity=".01"/><path data-follow-fill="#333" d="M15.5 9q0-2.485-1.757-4.243Q11.985 3 9.5 3 7.015 3 5.257 4.757 3.5 6.515 3.5 9q0 2.485 1.757 4.243Q7.015 15 9.5 15v2q-3.314 0-5.657-2.343T1.5 9q0-3.314 2.343-5.657T9.5 1q3.314 0 5.657 2.343T17.5 9h-2Z" fill="#333"/><path data-follow-fill="#333" d="M8 22V9q0-.098.02-.195.018-.097.056-.188.038-.09.093-.173.054-.081.124-.151.07-.07.151-.124.082-.055.173-.093.091-.038.188-.057Q8.902 8 9 8h13q.099 0 .195.02.097.018.188.056.09.038.173.093.081.054.151.124.07.07.124.151.055.082.093.173.038.091.057.188Q23 8.902 23 9v13q0 .099-.02.195-.018.097-.056.188-.038.09-.093.173-.054.081-.124.151-.07.07-.151.124-.082.055-.173.093-.091.038-.188.057Q22.1 23 22 23H9q-.098 0-.195-.02-.097-.018-.188-.056-.09-.038-.173-.093-.081-.054-.151-.124-.07-.07-.124-.151-.055-.082-.093-.173-.038-.091-.057-.188Q8 22.1 8 22Zm2-12v11h11V10H10Z" fill="#333"/></g></svg>