<svg viewBox="0 0 16.8 16.8" fill="none" xmlns="http://www.w3.org/2000/svg">
  <defs>
    <clipPath id="a">
      <rect rx="0" height="16.8" width="16.8"/>
    </clipPath>
  </defs>
  <g clip-path="url(#a)">
    <path fill-opacity=".8" fill="currentColor" d="M2.45 14V4.2q0-.87.615-1.485Q3.68 2.1 4.55 2.1h7.7q.87 0 1.485.615.615.615.615 1.485V14q0 .87-.615 1.485-.615.615-1.485.615h-7.7q-.87 0-1.485-.615Q2.45 14.87 2.45 14Zm1.4 0q0 .29.205.495.205.205.495.205h7.7q.29 0 .495-.205.205-.205.205-.495V4.2q0-.29-.205-.495-.205-.205-.495-.205h-7.7q-.29 0-.495.205-.205.205-.205.495V14Z" data-follow-fill="currentColor"/>
    <path fill-opacity=".8" fill="currentColor" fill-rule="evenodd" d="M5.6 1.4v2.1q0 .069.013.137.014.067.04.13.027.065.065.122.038.057.087.106.049.049.106.087.057.038.121.065.064.026.131.04.068.013.137.013t.137-.013q.067-.014.13-.04.065-.027.122-.065.057-.038.106-.087.049-.049.087-.106.038-.057.065-.121.026-.064.04-.131Q7 3.569 7 3.5V1.4q0-.069-.013-.137-.014-.067-.04-.13-.027-.065-.065-.122-.038-.057-.087-.106-.049-.049-.106-.087Q6.632.78 6.568.753q-.064-.026-.131-.04Q6.369.7 6.3.7t-.137.013q-.067.014-.13.04-.065.027-.122.065-.057.038-.106.087-.049.049-.087.106-.038.057-.065.121-.026.064-.04.131-.013.068-.013.137ZM9.8 1.4v2.1q0 .069.013.137.014.067.04.13.027.065.065.122.038.057.087.106.049.049.106.087.057.038.121.065.064.026.131.04.068.013.137.013t.137-.013q.067-.014.13-.04.065-.027.122-.065.057-.038.106-.087.049-.049.087-.106.038-.057.065-.121.026-.064.04-.131.013-.068.013-.137V1.4q0-.069-.013-.137-.014-.067-.04-.13-.027-.065-.065-.122-.038-.057-.087-.106-.049-.049-.106-.087-.057-.038-.121-.065-.064-.026-.131-.04Q10.569.7 10.5.7t-.137.013q-.067.014-.13.04-.065.027-.122.065-.057.038-.106.087-.049.049-.087.106-.038.057-.065.121-.026.064-.04.131-.013.068-.013.137ZM5.6 7.35h5.6q.069 0 .137-.013.067-.014.131-.04.064-.027.121-.065.057-.038.106-.087.049-.049.087-.106.038-.057.065-.121.026-.064.04-.131.013-.068.013-.137t-.013-.137q-.014-.067-.04-.13-.027-.065-.065-.122-.038-.057-.087-.106-.049-.049-.106-.087-.057-.038-.121-.065-.064-.026-.131-.04-.068-.013-.137-.013H5.6q-.069 0-.136.013-.068.014-.132.04-.063.027-.12.065-.058.038-.107.087-.049.049-.087.106-.038.057-.065.121-.026.064-.04.131-.013.068-.013.137t.014.137q.013.067.04.13.026.065.064.122.038.057.087.106.049.049.106.087.058.038.121.065.064.026.132.04.067.013.136.013ZM5.6 10.15h4.2q.069 0 .137-.013.067-.014.131-.04.064-.027.121-.065.057-.038.106-.087.049-.049.087-.106.038-.057.065-.121.026-.064.04-.131.013-.068.013-.137t-.013-.137q-.014-.067-.04-.13-.027-.065-.065-.122-.038-.057-.087-.106-.049-.049-.106-.087-.057-.038-.121-.065-.064-.026-.131-.04-.068-.013-.137-.013H5.6q-.069 0-.136.013-.068.014-.132.04-.063.027-.12.065-.058.038-.107.087-.049.049-.087.106-.038.057-.065.121-.026.064-.04.131-.013.068-.013.137t.014.137q.013.067.04.13.026.065.064.122.038.057.087.106.049.049.106.087.058.038.121.065.064.026.132.04.067.013.136.013ZM5.6 12.95h2.8q.069 0 .137-.013.067-.014.131-.04.064-.027.121-.065.057-.038.106-.087.049-.049.087-.106.038-.057.065-.121.026-.064.04-.131.013-.068.013-.137t-.013-.137q-.014-.067-.04-.13-.027-.065-.065-.122-.038-.057-.087-.106-.049-.049-.106-.087-.057-.038-.121-.065-.064-.026-.131-.04-.068-.013-.137-.013H5.6q-.069 0-.136.013-.068.014-.132.04-.063.027-.12.065-.058.038-.107.087-.049.049-.087.106-.038.057-.065.121-.026.064-.04.131-.013.068-.013.137t.014.137q.013.067.04.13.026.065.064.122.038.057.087.106.049.049.106.087.058.038.121.065.064.026.132.04.067.013.136.013Z" data-follow-fill="currentColor"/>
  </g>
</svg>