<svg viewBox="0 0 14.333 14.334" fill="none" xmlns="http://www.w3.org/2000/svg"><path fill="#1B2129" fill-rule="evenodd" d="M2.333 13.833v-4q0-.049.01-.097.01-.049.028-.094.02-.046.047-.086.027-.041.062-.076.035-.035.076-.062.04-.028.086-.047.045-.018.094-.028.048-.01.097-.01H11.5q.05 0 .098.01t.093.028q.046.02.087.047.04.027.076.062.034.035.062.076.027.04.046.086.019.045.028.094.01.048.01.097v4q0 .05-.01.098t-.028.094q-.019.045-.046.086-.028.041-.062.076-.035.035-.076.062-.041.027-.087.046-.045.02-.093.029-.049.01-.098.01H2.833q-.049 0-.097-.01-.049-.01-.094-.029-.046-.019-.086-.046-.041-.027-.076-.062-.035-.035-.062-.076-.028-.04-.047-.086-.018-.046-.028-.094-.01-.048-.01-.098Zm8.667-3.5H3.333v3H11v-3Z" data-follow-fill="#1B2129"/><path fill="#1B2129" fill-rule="evenodd" d="M0 5.833v6q0 .05.01.098t.028.094q.019.045.046.086.028.041.062.076.035.035.076.062.041.027.087.046.045.02.093.029.049.01.098.01h2.327q.05 0 .097-.01.049-.01.094-.029.046-.019.087-.046.04-.027.075-.062.035-.035.063-.076.027-.04.046-.086.019-.046.028-.094.01-.048.01-.098v-1.5h7.679v1.5q0 .05.01.098.009.048.028.094.019.045.046.086.027.041.062.076.035.035.076.062.04.027.086.046.046.02.094.029.049.01.098.01h2.327q.05 0 .098-.01t.094-.029q.045-.019.086-.046.041-.027.076-.062.035-.035.062-.076.027-.04.046-.086.02-.046.029-.094.01-.048.01-.098v-6q0-.049-.01-.097-.01-.049-.029-.094-.019-.046-.046-.086-.027-.041-.062-.076-.035-.035-.076-.062-.04-.028-.086-.047-.046-.018-.094-.028-.048-.01-.098-.01H.5q-.05 0-.098.01T.31 5.37q-.046.02-.087.047-.04.027-.076.062-.034.035-.062.076-.027.04-.046.086-.019.045-.028.094-.01.048-.01.097Zm1 5.5h1.327v-1.5q0-.049.01-.097.009-.049.028-.094.019-.046.046-.086.027-.041.062-.076.035-.035.076-.062.041-.028.086-.047.046-.018.094-.028.049-.01.098-.01h8.679q.049 0 .097.01.049.01.094.028.046.02.087.047.04.027.075.062.035.035.063.076.027.04.046.086.019.045.028.094.01.048.01.097v1.5h1.327v-5H1v5Z" data-follow-fill="#1B2129"/><path fill="#1B2129" fill-rule="evenodd" d="M2 5.833V.5q0-.05.01-.098T2.038.31q.019-.046.046-.087.028-.04.062-.076.035-.034.076-.062.041-.027.087-.046.045-.019.093-.028Q2.451 0 2.5 0h9.333q.05 0 .098.01t.094.028q.045.019.086.046.041.028.076.062.035.035.062.076.027.041.046.087.02.045.029.093.01.049.01.098v5.333q0 .05-.01.098t-.029.094q-.019.045-.046.086-.027.041-.062.076-.035.035-.076.062-.04.027-.086.046-.046.02-.094.029-.048.01-.098.01H2.5q-.05 0-.098-.01t-.093-.029q-.046-.019-.087-.046-.04-.027-.076-.062-.034-.035-.062-.076-.027-.04-.046-.086-.019-.046-.028-.094Q2 5.883 2 5.833ZM11.333 1H3v4.333h8.333V1Z" data-follow-fill="#1B2129"/></svg>