<svg viewBox="0 0 24 24" fill="none" xmlns="http://www.w3.org/2000/svg"><defs><clipPath id="a"><rect rx="0" height="24" width="24"/></clipPath></defs><g clip-path="url(#a)"><path fill="currentColor" d="M12.063 2h3.062q.773 0 1.322.542Q17 3.09 17 3.865V7q0 .098-.02.195-.018.097-.056.188-.038.09-.093.173-.054.081-.124.151-.07.07-.151.124-.082.055-.173.093-.091.038-.188.057Q16.1 8 16 8q-.098 0-.195-.02-.097-.018-.188-.056-.09-.038-.173-.093-.082-.054-.151-.124-.07-.07-.124-.151-.055-.082-.093-.173-.038-.091-.057-.188Q15 7.098 15 7V3.865Q15 4 15.125 4h-3.062q-.099 0-.196-.02-.096-.018-.187-.056-.091-.038-.173-.093-.082-.054-.152-.124-.07-.07-.124-.151-.055-.082-.092-.173-.038-.091-.057-.188-.02-.097-.02-.195t.02-.195q.019-.097.057-.188.037-.09.092-.173.055-.081.124-.151.07-.07.152-.124.082-.055.173-.093.09-.038.187-.057.097-.019.195-.019ZM11 20H2.875q-.773 0-1.322-.542Q1 18.91 1 18.135V3.865q0-.776.553-1.323Q2.102 2 2.875 2h3.063q.098 0 .195.02.096.018.187.056.091.038.173.093.082.054.152.124.07.07.124.151.055.082.092.173.038.091.057.188.02.097.02.195t-.02.195q-.019.097-.057.188-.037.09-.092.173-.055.081-.124.151-.07.07-.152.124-.082.055-.173.093-.09.038-.187.057Q6.036 4 5.937 4H2.876q.048 0 .084-.035.041-.04.041-.1v14.27Q3 18 2.875 18H11q.098 0 .195.02.097.018.188.056.09.038.173.093.081.054.151.124.07.07.124.151.055.082.093.173.038.091.057.188Q12 18.9 12 19t-.02.195q-.018.097-.056.188-.038.09-.093.173-.054.081-.124.151-.07.07-.151.124-.082.055-.173.093-.091.038-.188.057Q11.098 20 11 20Zm1-1q0 .099-.02.195-.018.097-.056.188-.038.09-.093.173-.054.081-.124.151-.07.07-.151.124-.082.055-.173.093-.091.038-.188.057Q11.098 20 11 20t-.195-.02q-.097-.018-.188-.056-.09-.038-.173-.093-.081-.054-.151-.124-.07-.07-.124-.151-.055-.082-.093-.173-.038-.091-.057-.188Q10 19.1 10 19t.02-.195q.018-.097.056-.188.038-.09.093-.173.054-.081.124-.151.07-.07.151-.124.082-.055.173-.093.091-.038.188-.057Q10.902 18 11 18t.195.02q.097.018.188.056.09.038.173.093.081.054.151.124.07.07.124.151.055.082.093.173.038.091.057.188Q12 18.9 12 19Zm1.063-16q0 .098-.02.195-.019.097-.057.188-.037.09-.092.173-.055.081-.124.151-.07.07-.152.124-.082.055-.173.093-.09.038-.187.057Q12.16 4 12.063 4q-.099 0-.196-.02-.096-.018-.187-.056-.091-.038-.173-.093-.082-.054-.152-.124-.07-.07-.124-.151-.055-.082-.092-.173-.038-.091-.057-.188-.02-.097-.02-.195t.02-.195q.019-.097.057-.188.037-.09.092-.173.055-.081.124-.151.07-.07.152-.124.082-.055.173-.093.09-.038.187-.057.097-.019.195-.019.099 0 .196.02.096.018.187.056.091.038.173.093.082.054.152.124.07.07.124.151.055.082.092.173.038.091.057.188.02.097.02.195ZM17 7q0 .098-.02.195-.018.097-.056.188-.038.09-.093.173-.054.081-.124.151-.07.07-.151.124-.082.055-.173.093-.091.038-.188.057Q16.1 8 16 8q-.098 0-.195-.02-.097-.018-.188-.056-.09-.038-.173-.093-.082-.054-.151-.124-.07-.07-.124-.151-.055-.082-.093-.173-.038-.091-.057-.188Q15 7.098 15 7t.02-.195q.018-.097.056-.188.038-.09.092-.173.055-.081.125-.151.07-.07.151-.124.082-.055.173-.093.091-.038.188-.057Q15.902 6 16 6q.099 0 .195.02.097.018.188.056.09.038.173.093.081.054.151.124.07.07.124.151.055.082.093.173.038.091.057.188Q17 6.902 17 7ZM6.937 3q0 .098-.019.195t-.057.188q-.037.09-.092.173-.055.081-.124.151-.07.07-.152.124-.082.055-.173.093-.09.038-.187.057Q6.036 4 5.937 4q-.098 0-.195-.02-.096-.018-.187-.056-.091-.038-.173-.093-.082-.054-.152-.124-.07-.07-.124-.151-.055-.082-.092-.173-.038-.091-.057-.188-.02-.097-.02-.195t.02-.195q.019-.097.057-.188.037-.09.092-.173.055-.081.124-.151.07-.07.152-.124.082-.055.173-.093.09-.038.187-.057Q5.84 2 5.938 2q.098 0 .195.02.096.018.187.056.091.038.173.093.082.054.152.124.07.07.124.151.055.082.092.173.038.091.057.188.02.097.02.195Z"/><path fill="currentColor" d="M5 4.5v-3q0-.098.02-.195.018-.097.056-.188.038-.09.093-.173.054-.081.124-.151.07-.07.151-.124.082-.055.173-.093.091-.038.188-.057Q5.902.5 6 .5h6q.098 0 .195.02.097.018.188.056.09.038.173.093.081.054.151.124.07.07.124.151.055.082.093.173.038.091.057.188.019.097.019.195v3q0 .098-.02.195-.018.097-.056.188-.038.09-.093.173-.054.081-.124.151-.07.07-.151.124-.082.055-.173.093-.091.038-.188.057-.097.019-.195.019H6q-.098 0-.195-.02-.097-.018-.188-.056-.09-.038-.173-.093-.081-.054-.151-.124-.07-.07-.124-.151-.055-.082-.093-.173-.038-.091-.057-.188Q5 4.598 5 4.5Zm2-2v1h4v-1H7Z"/><g style="mix-blend-mode:passthrough"><path fill="currentColor" d="M10 8.7v12.6q0 .671.437 1.161.481.539 1.188.539h7.25q.106 0 .209-.022t.2-.065q.096-.043.181-.106.086-.062.156-.141l3.125-3.5q.123-.137.188-.31.066-.172.066-.356V8.7q0-.671-.437-1.161Q22.082 7 21.375 7h-9.75q-.707 0-1.188.539Q10 8.029 10 8.7Zm2 0q0 .091-.071.171-.115.129-.304.129h9.75q-.189 0-.304-.129Q21 8.791 21 8.7v9.8h1l-.746-.666-3.125 3.5.746.666v-1h-7.25q.189 0 .304.129.071.08.071.171V8.7Z"/><path fill="currentColor" d="M18.5 13h-4q-.098 0-.195-.02-.097-.018-.188-.056-.09-.038-.173-.093-.081-.054-.151-.124-.07-.07-.124-.151-.055-.082-.093-.173-.038-.091-.057-.188-.019-.097-.019-.195t.02-.195q.018-.097.056-.188.038-.09.093-.173.054-.081.124-.151.07-.07.151-.124.082-.055.173-.093.091-.038.188-.057.097-.019.195-.019h4q.098 0 .195.02.097.018.188.056.09.038.173.093.081.054.151.124.07.07.124.151.055.082.093.173.038.091.057.188.019.097.019.195t-.02.195q-.018.097-.056.188-.038.09-.093.173-.054.081-.124.151-.07.07-.151.124-.082.055-.173.093-.091.038-.188.057-.097.019-.195.019Zm1-1q0 .098-.02.195-.018.097-.056.188-.038.09-.093.173-.054.081-.124.151-.07.07-.151.124-.082.055-.173.093-.091.038-.188.057-.097.019-.195.019t-.195-.02q-.097-.018-.188-.056-.09-.038-.173-.093-.081-.054-.151-.124-.07-.07-.124-.151-.055-.082-.093-.173-.038-.091-.057-.188-.019-.097-.019-.195t.02-.195q.018-.097.056-.188.038-.09.093-.173.054-.081.124-.151.07-.07.151-.124.082-.055.173-.093.091-.038.188-.057.097-.019.195-.019t.195.02q.097.018.188.056.09.038.173.093.081.054.151.124.07.07.124.151.055.082.093.173.038.091.057.188.019.097.019.195Zm-4 0q0 .098-.02.195-.018.097-.056.188-.038.09-.093.173-.054.081-.124.151-.07.07-.151.124-.082.055-.173.093-.091.038-.188.057-.097.019-.195.019t-.195-.02q-.097-.018-.188-.056-.09-.038-.173-.093-.081-.054-.151-.124-.07-.07-.124-.151-.055-.082-.093-.173-.038-.091-.057-.188-.019-.097-.019-.195t.02-.195q.018-.097.056-.188.038-.09.093-.173.054-.081.124-.151.07-.07.151-.124.082-.055.173-.093.091-.038.188-.057.097-.019.195-.019t.195.02q.097.018.188.056.09.038.173.093.081.054.151.124.07.07.124.151.055.082.093.173.038.091.057.188.019.097.019.195ZM18.5 17h-4q-.098 0-.195-.02-.097-.018-.188-.056-.09-.038-.173-.093-.081-.054-.151-.124-.07-.07-.124-.151-.055-.082-.093-.173-.038-.091-.057-.188-.019-.097-.019-.195t.02-.195q.018-.097.056-.188.038-.09.093-.173.054-.081.124-.151.07-.07.151-.124.082-.055.173-.093.091-.038.188-.057.097-.019.195-.019h4q.098 0 .195.02.097.018.188.056.09.038.173.093.081.054.151.124.07.07.124.151.055.082.093.173.038.091.057.188.019.097.019.195t-.02.195q-.018.097-.056.188-.038.09-.093.173-.054.081-.124.151-.07.07-.151.124-.082.055-.173.093-.091.038-.188.057-.097.019-.195.019Zm1-1q0 .098-.02.195-.018.097-.056.188-.038.09-.093.173-.054.081-.124.151-.07.07-.151.124-.082.055-.173.093-.091.038-.188.057-.097.019-.195.019t-.195-.02q-.097-.018-.188-.056-.09-.038-.173-.093-.081-.054-.151-.124-.07-.07-.124-.151-.055-.082-.093-.173-.038-.091-.057-.188-.019-.097-.019-.195t.02-.195q.018-.097.056-.188.038-.09.093-.173.054-.081.124-.151.07-.07.151-.124.082-.055.173-.093.091-.038.188-.057.097-.019.195-.019t.195.02q.097.018.188.056.09.038.173.093.081.054.151.124.07.07.124.151.055.082.093.173.038.091.057.188.019.097.019.195Zm-4 0q0 .098-.02.195-.018.097-.056.188-.038.09-.093.173-.054.081-.124.151-.07.07-.151.124-.082.055-.173.093-.091.038-.188.057-.097.019-.195.019t-.195-.02q-.097-.018-.188-.056-.09-.038-.173-.093-.081-.054-.151-.124-.07-.07-.124-.151-.055-.082-.093-.173-.038-.091-.057-.188-.019-.097-.019-.195t.02-.195q.018-.097.056-.188.038-.09.093-.173.054-.081.124-.151.07-.07.151-.124.082-.055.173-.093.091-.038.188-.057.097-.019.195-.019t.195.02q.097.018.188.056.09.038.173.093.081.054.151.124.07.07.124.151.055.082.093.173.038.091.057.188.019.097.019.195Z"/></g></g></svg>