<svg viewBox="0 0 22.4 22.4" fill="none" xmlns="http://www.w3.org/2000/svg">
  <defs>
    <clipPath id="a">
      <rect rx="0" height="22.4" width="22.4" />
    </clipPath>
  </defs>
  <g clip-path="url(#a)">
    <path fill="#2DC76D"
      d="M16.676 13.265a4.43 4.43 0 0 1 2.506.792h.101V2.389c0-.593-.4-.99-1.004-.99H3.236c-.602 0-1.005.397-1.005.99v16.808c0 .593.4.99 1.005.99h9.73a4.286 4.286 0 0 1-.803-2.473c0-2.472 2.006-4.45 4.513-4.45ZM5.642 5.355h10.032c.302 0 .5.197.5.494 0 .298-.2.495-.5.495H5.642c-.302 0-.501-.197-.501-.495 0-.297.201-.494.5-.494Zm0 4.944h10.032c.302 0 .5.197.5.494 0 .298-.2.494-.5.494H5.642c-.302 0-.501-.196-.501-.494 0-.295.201-.494.5-.494Zm5.217 5.932H5.543c-.2 0-.4-.197-.4-.494 0-.298.201-.495.4-.495h5.316c.201 0 .4.197.4.495 0 .297-.201.494-.4.494Z"
      data-follow-fill="#2DC76D" />
    <path fill="#2DC76D"
      d="M16.93 14.282a3.359 3.359 0 0 0-3.496 3.22 3.363 3.363 0 0 0 3.23 3.496 3.367 3.367 0 0 0 3.488-3.358 3.36 3.36 0 0 0-3.223-3.358Zm2.067 2.266-2.695 2.695c-.184.184-.346.164-.501.01l-1.23-1.23q-.21-.309.044-.534.256-.228.507 0l.924.925 2.41-2.417q.24-.223.508.026.269.252.033.525Z"
      data-follow-fill="#2DC76D" />
  </g>
</svg>