<svg viewBox="0 0 24 24" fill="none" xmlns="http://www.w3.org/2000/svg">
  <defs>
    <clipPath id="a">
      <rect rx="0" height="24" width="24" />
    </clipPath>
  </defs>
  <g clip-path="url(#a)">
    <path fill="currentColor"
      d="M3.5 5v17q0 .099.02.195.018.097.056.188.038.09.093.173.054.081.124.151.07.07.151.124.082.055.173.093.091.038.188.057.097.019.195.019h15q.099 0 .195-.02.097-.018.188-.056.09-.038.173-.093.081-.054.151-.124.07-.07.124-.151.055-.082.093-.173.038-.091.057-.188.019-.096.019-.195V5q0-.098-.02-.195-.018-.097-.056-.188-.038-.09-.093-.173-.054-.081-.124-.151-.07-.07-.151-.124-.082-.055-.173-.093-.091-.038-.188-.057Q19.6 4 19.5 4h-15q-.098 0-.195.02-.097.018-.188.056-.09.038-.173.093-.081.054-.151.124-.07.07-.124.151-.055.082-.093.173-.038.091-.057.188Q3.5 4.902 3.5 5Zm2 1h13v15h-13V6Z" />
    <path fill="currentColor"
      d="M9 16.5V10q0-.098.02-.195.018-.097.056-.188.038-.09.093-.173.054-.081.124-.151.07-.07.151-.124.082-.055.173-.093.091-.038.188-.057Q9.902 9 10 9t.195.02q.097.018.188.056.09.038.173.093.081.054.151.124.07.07.124.151.055.082.093.173.038.091.057.188Q11 9.902 11 10v6.5q0 .098-.02.195-.018.097-.056.188-.038.09-.093.173-.054.081-.124.151-.07.07-.151.124-.082.055-.173.093-.091.038-.188.057-.097.019-.195.019t-.195-.02q-.097-.018-.188-.056-.09-.038-.173-.093-.081-.054-.151-.124-.07-.07-.124-.151-.055-.082-.093-.173-.038-.091-.057-.188Q9 16.598 9 16.5Zm2 0q0 .098-.02.195-.018.097-.056.188-.038.09-.093.173-.054.081-.124.151-.07.07-.151.124-.082.055-.173.093-.091.038-.188.057-.097.019-.195.019t-.195-.02q-.097-.018-.188-.056-.09-.038-.173-.093-.081-.054-.151-.124-.07-.07-.124-.151-.055-.082-.093-.173-.038-.091-.057-.188Q9 16.598 9 16.5t.02-.195q.018-.097.056-.188.038-.09.093-.173.054-.081.124-.151.07-.07.151-.124.082-.055.173-.093.091-.038.188-.057.097-.019.195-.019t.195.02q.097.018.188.056.09.038.173.093.081.054.151.124.07.07.124.151.055.082.093.173.038.091.057.188.019.097.019.195Zm0-6.5q0 .098-.02.195-.018.097-.056.188-.038.09-.093.173-.054.081-.124.151-.07.07-.151.124-.082.055-.173.093-.091.038-.188.057Q10.098 11 10 11t-.195-.02q-.097-.018-.188-.056-.09-.038-.173-.093-.081-.054-.151-.124-.07-.07-.124-.151-.055-.082-.093-.173-.038-.091-.057-.188Q9 10.098 9 10t.02-.195q.018-.097.056-.188.038-.09.093-.173.054-.081.124-.151.07-.07.151-.124.082-.055.173-.093.091-.038.188-.057Q9.902 9 10 9t.195.02q.097.018.188.056.09.038.173.093.081.054.151.124.07.07.124.151.055.082.093.173.038.091.057.188Q11 9.902 11 10ZM13 16.5V10q0-.098.02-.195.018-.097.056-.188.038-.09.093-.173.054-.081.124-.151.07-.07.151-.124.082-.055.173-.093.091-.038.188-.057Q13.902 9 14 9t.195.02q.097.018.188.056.09.038.173.093.081.054.151.124.07.07.124.151.055.082.093.173.038.091.057.188Q15 9.902 15 10v6.5q0 .098-.02.195-.018.097-.056.188-.038.09-.093.173-.054.081-.124.151-.07.07-.151.124-.082.055-.173.093-.091.038-.188.057-.097.019-.195.019t-.195-.02q-.097-.018-.188-.056-.09-.038-.173-.093-.081-.054-.151-.124-.07-.07-.124-.151-.055-.082-.093-.173-.038-.091-.057-.188Q13 16.598 13 16.5Zm2 0q0 .098-.02.195-.018.097-.056.188-.038.09-.093.173-.054.081-.124.151-.07.07-.151.124-.082.055-.173.093-.091.038-.188.057-.097.019-.195.019t-.195-.02q-.097-.018-.188-.056-.09-.038-.173-.093-.081-.054-.151-.124-.07-.07-.124-.151-.055-.082-.093-.173-.038-.091-.057-.188Q13 16.598 13 16.5t.02-.195q.018-.097.056-.188.038-.09.093-.173.054-.081.124-.151.07-.07.151-.124.082-.055.173-.093.091-.038.188-.057.097-.019.195-.019t.195.02q.097.018.188.056.09.038.173.093.081.054.151.124.07.07.124.151.055.082.093.173.038.091.057.188.019.097.019.195Zm0-6.5q0 .098-.02.195-.018.097-.056.188-.038.09-.093.173-.054.081-.124.151-.07.07-.151.124-.082.055-.173.093-.091.038-.188.057Q14.098 11 14 11t-.195-.02q-.097-.018-.188-.056-.09-.038-.173-.093-.081-.054-.151-.124-.07-.07-.124-.151-.055-.082-.093-.173-.038-.091-.057-.188Q13 10.098 13 10t.02-.195q.018-.097.056-.188.038-.09.093-.173.054-.081.124-.151.07-.07.151-.124.082-.055.173-.093.091-.038.188-.057Q13.902 9 14 9t.195.02q.097.018.188.056.09.038.173.093.081.054.151.124.07.07.124.151.055.082.093.173.038.091.057.188Q15 9.902 15 10ZM22 6H2q-.098 0-.195-.02-.097-.018-.188-.056-.09-.038-.173-.093-.081-.054-.151-.124-.07-.07-.124-.151-.055-.082-.093-.173-.038-.091-.057-.188Q1 5.098 1 5t.02-.195q.018-.097.056-.188.038-.09.093-.173.054-.081.124-.151.07-.07.151-.124.082-.055.173-.093.091-.038.188-.057Q1.902 4 2 4h20q.099 0 .195.02.097.018.188.056.09.038.173.093.081.054.151.124.07.07.124.151.055.082.093.173.038.091.057.188Q23 4.902 23 5t-.02.195q-.018.097-.056.188-.038.09-.093.173-.054.081-.124.151-.07.07-.151.124-.082.055-.173.093-.091.038-.188.057Q22.1 6 22 6Zm1-1q0 .098-.02.195-.018.097-.056.188-.038.09-.093.173-.054.081-.124.151-.07.07-.151.124-.082.055-.173.093-.091.038-.188.057Q22.1 6 22 6t-.195-.02q-.097-.018-.188-.056-.09-.038-.173-.093-.081-.054-.151-.124-.07-.07-.124-.151-.055-.082-.093-.173-.038-.091-.057-.188Q21 5.098 21 5t.02-.195q.018-.097.056-.188.038-.09.093-.173.054-.081.124-.151.07-.07.151-.124.082-.055.173-.093.091-.038.188-.057Q21.9 4 22 4t.195.02q.097.018.188.056.09.038.173.093.081.054.151.124.07.07.124.151.055.082.093.173.038.091.057.188Q23 4.902 23 5ZM3 5q0 .098-.02.195-.018.097-.056.188-.038.09-.093.173-.054.081-.124.151-.07.07-.151.124-.082.055-.173.093-.091.038-.188.057Q2.098 6 2 6t-.195-.02q-.097-.018-.188-.056-.09-.038-.173-.093-.081-.054-.151-.124-.07-.07-.124-.151-.055-.082-.093-.173-.038-.091-.057-.188Q1 5.098 1 5t.02-.195q.018-.097.056-.188.038-.09.093-.173.054-.081.124-.151.07-.07.151-.124.082-.055.173-.093.091-.038.188-.057Q1.902 4 2 4t.195.02q.097.018.188.056.09.038.173.093.081.054.151.124.07.07.124.151.055.082.093.173.038.091.057.188Q3 4.902 3 5Z" />
    <path fill="currentColor"
      d="M16 6H8q-.098 0-.195-.02-.097-.018-.188-.056-.09-.038-.173-.093-.081-.054-.151-.124-.07-.07-.124-.151-.055-.082-.093-.173-.038-.091-.057-.188Q7 5.098 7 5q0-.256.123-.48l1.645-3q.064-.119.158-.215.093-.097.209-.165.116-.069.245-.104Q9.51 1 9.644 1h4.745q.135 0 .266.036.13.036.247.106.116.07.21.167.093.098.158.218l1.61 3q.048.087.076.18.03.095.039.193.01.098 0 .196t-.037.192q-.029.095-.075.182t-.109.163q-.062.076-.138.139-.076.062-.163.109Q16.252 6 16 6Zm0-2v1l-.881.473-1.611-3 .88-.473v1H9.646V2l.876.48-1.644 3L8 5V4h8Z" />
  </g>
</svg>