<svg viewBox="0 0 24 24" fill="none" xmlns="http://www.w3.org/2000/svg"><defs><clipPath id="a"><rect rx="0" height="24" width="24"/></clipPath></defs><g clip-path="url(#a)"><path fill="#333" d="M1 9V5q0-.098.02-.195.018-.097.056-.188.038-.09.093-.173.054-.081.124-.151.07-.07.151-.124.082-.055.173-.093.091-.038.188-.057Q1.902 4 2 4h11q.098 0 .195.02.097.018.188.056.09.038.173.093.082.054.151.124.07.07.124.151.055.082.093.173.038.091.057.188Q14 4.902 14 5v4q0 .098-.02.195-.018.097-.056.188-.038.09-.092.173-.055.081-.125.151-.07.07-.151.124-.082.055-.173.093-.091.038-.188.057Q13.098 10 13 10H2q-.098 0-.195-.02-.097-.018-.188-.056-.09-.038-.173-.093-.081-.054-.151-.124-.07-.07-.124-.151-.055-.082-.093-.173-.038-.091-.057-.188Q1 9.098 1 9Zm2-3v2h9V6H3ZM1 19v-4q0-.098.02-.195.018-.097.056-.188.038-.09.093-.173.054-.081.124-.151.07-.07.151-.124.082-.055.173-.093.091-.038.188-.057Q1.902 14 2 14h11q.098 0 .195.02.097.018.188.056.09.038.173.093.082.054.151.124.07.07.124.151.055.082.093.173.038.091.057.188.019.097.019.195v4q0 .098-.02.195-.018.097-.056.188-.038.09-.092.173-.055.081-.125.151-.07.07-.151.124-.082.055-.173.093-.091.038-.188.057Q13.098 20 13 20H2q-.098 0-.195-.02-.097-.018-.188-.056-.09-.038-.173-.093-.081-.054-.151-.124-.07-.07-.124-.151-.055-.082-.093-.173-.038-.091-.057-.188Q1 19.098 1 19Zm2-3v2h9v-2H3Z" data-follow-fill="#333"/><path fill="#333" fill-rule="evenodd" d="M16.707 15.293q-.14-.14-.324-.217Q16.199 15 16 15t-.383.076q-.183.076-.324.217-.14.14-.217.324Q15 15.801 15 16t.076.383q.076.183.217.324l3 3q.07.07.151.124.082.055.173.093.091.038.188.057.097.019.195.019t.195-.02q.097-.018.188-.056.09-.038.173-.093.081-.054.151-.124l3-3q.14-.14.217-.324Q23 16.199 23 16t-.076-.383q-.076-.183-.217-.324-.14-.14-.324-.217Q22.199 15 22 15t-.383.076q-.183.076-.324.217L19 17.586l-2.293-2.293Z" data-follow-fill="#333"/><path fill="#333" fill-rule="evenodd" d="M18 5v12q0 .099.02.195.018.097.056.188.038.09.093.173.054.081.124.151.07.07.151.124.082.055.173.093.091.038.188.057.097.019.195.019t.195-.02q.097-.018.188-.056.09-.038.173-.093.081-.054.151-.124.07-.07.124-.151.055-.082.093-.173.038-.091.057-.188Q20 17.1 20 17V5q0-.098-.02-.195-.018-.097-.056-.188-.038-.09-.093-.173-.054-.081-.124-.151-.07-.07-.151-.124-.082-.055-.173-.093-.091-.038-.188-.057Q19.098 4 19 4t-.195.02q-.097.018-.188.056-.09.038-.173.093-.081.054-.151.124-.07.07-.124.151-.055.082-.093.173-.038.091-.057.188Q18 4.902 18 5Z" data-follow-fill="#333"/></g></svg>