<svg viewBox="0 0 24 24" fill="none" xmlns="http://www.w3.org/2000/svg"><defs><clipPath id="a"><rect rx="0" height="24" width="24"/></clipPath></defs><g clip-path="url(#a)"><path fill="#333" d="M10 9V5q0-.098.02-.195.018-.097.056-.188.038-.09.093-.173.054-.081.124-.151.07-.07.151-.124.082-.055.173-.093.091-.038.188-.057Q10.902 4 11 4h11q.099 0 .195.02.097.018.188.056.09.038.173.093.081.054.151.124.07.07.124.151.055.082.093.173.038.091.057.188Q23 4.902 23 5v4q0 .098-.02.195-.018.097-.056.188-.038.09-.093.173-.054.081-.124.151-.07.07-.151.124-.082.055-.173.093-.091.038-.188.057Q22.1 10 22 10H11q-.098 0-.195-.02-.097-.018-.188-.056-.09-.038-.173-.093-.081-.054-.151-.124-.07-.07-.124-.151-.055-.082-.093-.173-.038-.091-.057-.188Q10 9.098 10 9Zm2-3v2h9V6h-9ZM10 19v-4q0-.098.02-.195.018-.097.056-.188.038-.09.093-.173.054-.081.124-.151.07-.07.151-.124.082-.055.173-.093.091-.038.188-.057Q10.902 14 11 14h11q.099 0 .195.02.097.018.188.056.09.038.173.093.081.054.151.124.07.07.124.151.055.082.093.173.038.091.057.188.019.097.019.195v4q0 .098-.02.195-.018.097-.056.188-.038.09-.093.173-.054.081-.124.151-.07.07-.151.124-.082.055-.173.093-.091.038-.188.057Q22.1 20 22 20H11q-.098 0-.195-.02-.097-.018-.188-.056-.09-.038-.173-.093-.081-.054-.151-.124-.07-.07-.124-.151-.055-.082-.093-.173-.038-.091-.057-.188Q10 19.098 10 19Zm2-3v2h9v-2h-9Z" data-follow-fill="#333"/><path fill="#333" fill-rule="evenodd" d="M2.707 15.293q-.14-.14-.324-.217Q2.199 15 2 15t-.383.076q-.183.076-.324.217-.14.14-.217.324Q1 15.801 1 16t.076.383q.076.183.217.324l3 3q.07.07.151.124.082.055.173.093.091.038.188.057Q4.902 20 5 20t.195-.02q.097-.018.188-.056.09-.038.173-.093.081-.054.151-.124l3-3q.14-.14.217-.324Q9 16.199 9 16t-.076-.383q-.076-.183-.217-.324-.14-.14-.324-.217Q8.199 15 8 15t-.383.076q-.183.076-.324.217L5 17.586l-2.293-2.293Z" data-follow-fill="#333"/><path fill="#333" fill-rule="evenodd" d="M4 5v12q0 .099.02.195.018.097.056.188.038.09.093.173.054.081.124.151.07.07.151.124.082.055.173.093.091.038.188.057Q4.902 18 5 18t.195-.02q.097-.018.188-.056.09-.038.173-.093.081-.054.151-.124.07-.07.124-.151.055-.082.093-.173.038-.091.057-.188Q6 17.1 6 17V5q0-.098-.02-.195-.018-.097-.056-.188-.038-.09-.093-.173-.054-.081-.124-.151-.07-.07-.151-.124-.082-.055-.173-.093-.091-.038-.188-.057Q5.098 4 5 4t-.195.02q-.097.018-.188.056-.09.038-.173.093-.081.054-.151.124-.07.07-.124.151-.055.082-.093.173-.038.091-.057.188Q4 4.902 4 5Z" data-follow-fill="#333"/></g></svg>