<svg viewBox="0 0 24 24" fill="none" xmlns="http://www.w3.org/2000/svg">
  <defs>
    <clipPath id="a">
      <rect rx="0" height="24" width="24" />
    </clipPath>
  </defs>
  <g clip-path="url(#a)">
    <path fill="currentColor" fill-rule="evenodd"
      d="M9 18H3q-.828 0-1.414-.586T1 16V4q0-.828.586-1.414T3 2h18q.828 0 1.414.586T23 4v3.547a1 1 0 1 1-2 0V4H3v12h6a1 1 0 1 1 0 2Zm13.83-6.366-4.33-2.5a1 1 0 0 0-1 0l-4.33 2.5a1 1 0 0 0-.5.866v5a1 1 0 0 0 .5.866l4.33 2.5a1 1 0 0 0 1 0l4.33-2.5a1 1 0 0 0 .5-.866v-5a1 1 0 0 0-.5-.866Zm-4.83-.48-3.33 1.923v3.846L18 18.845l3.33-1.922v-3.846L18 11.154ZM19 15a1 1 0 1 0-2 0 1 1 0 0 0 2 0ZM7 22h5a1 1 0 1 0 0-2H7a1 1 0 1 0 0 2Z"
      data-follow-fill="currentColor" />
  </g>
</svg>