<svg viewBox="0 0 24 24" fill="none" xmlns="http://www.w3.org/2000/svg"><defs><clipPath id="a"><rect rx="0" height="24" width="24"/></clipPath></defs><g clip-path="url(#a)"><path fill="#333" fill-rule="evenodd" d="M10 4h8q.098 0 .195-.02.097-.018.188-.056.09-.038.173-.093.081-.054.151-.124.07-.07.124-.151.055-.082.093-.173.038-.091.057-.188Q19 3.098 19 3t-.02-.195q-.018-.097-.056-.188-.038-.09-.093-.173-.054-.081-.124-.151-.07-.07-.151-.124-.082-.055-.173-.093-.091-.038-.188-.057Q18.098 2 18 2h-8q-.098 0-.195.02-.097.018-.188.056-.09.038-.173.093-.081.054-.151.124-.07.07-.124.151-.055.082-.093.173-.038.091-.057.188Q9 2.902 9 3t.02.195q.018.097.056.188.038.09.093.173.054.081.124.151.07.07.151.124.082.055.173.093.091.038.188.057Q9.902 4 10 4ZM6 22h8q.098 0 .195-.02.097-.018.188-.056.09-.038.173-.093.081-.054.151-.124.07-.07.124-.151.055-.082.093-.173.038-.091.057-.188Q15 21.098 15 21t-.02-.195q-.018-.097-.056-.188-.038-.09-.093-.173-.054-.081-.124-.151-.07-.07-.151-.124-.082-.055-.173-.093-.091-.038-.188-.057Q14.098 20 14 20H6q-.098 0-.195.02-.097.018-.188.056-.09.038-.173.093-.081.054-.151.124-.07.07-.124.151-.055.082-.093.173-.038.091-.057.188Q5 20.902 5 21t.02.195q.018.097.056.188.038.09.093.173.054.081.124.151.07.07.151.124.082.055.173.093.091.038.188.057Q5.902 22 6 22Z" data-follow-fill="#333"/><path fill="#333" fill-rule="evenodd" d="M8.537 20.732Q8.5 20.865 8.5 21v.023q.006.25.13.47.098.172.254.295.157.122.349.176.13.036.267.036h.008q.081 0 .16-.014.08-.014.157-.04.077-.027.148-.065.071-.038.135-.087.065-.05.12-.109.056-.059.1-.126.046-.067.08-.14.034-.074.056-.152l5-18.023q.036-.132.036-.268v-.023q-.006-.25-.13-.47-.098-.172-.254-.295-.157-.122-.349-.175-.13-.037-.267-.037h-.008q-.081 0-.16.015-.08.013-.157.04-.077.026-.148.064-.071.038-.135.088-.065.049-.12.108-.056.059-.1.126-.046.067-.08.14-.034.074-.056.152l-5 18.023Z" data-follow-fill="#333"/></g></svg>