<svg xmlns="http://www.w3.org/2000/svg" xmlns:xlink="http://www.w3.org/1999/xlink" fill="none" version="1.1" width="20" height="20" viewBox="0 0 20 20"><defs><clipPath id="master_svg0_525_70221"><rect x="0" y="0" width="20" height="20" rx="0"/></clipPath></defs><g clip-path="url(#master_svg0_525_70221)"><g><path d="M4.511503906250001,16.666015625L7.49983390625,16.666015625C7.96007390625,16.666015625,8.33317390625,17.039115625,8.33317390625,17.499315625C8.33317390625,17.959615625,7.96007390625,18.332715625,7.49983390625,18.332715625L2.49983690625,18.332715625C2.03959990625,18.332715625,1.66650390625,17.959615625,1.66650390625,17.499315625L1.66650390625,12.499315625C1.66650390625,12.039115625,2.03959990625,11.666015625,2.49983690625,11.666015625C2.96007390625,11.666015625,3.33317390625,12.039115625,3.33317390625,12.499315625L3.33317390625,15.487715625L6.90233390625,11.918515625C7.22931390625,11.602695625,7.74908390625,11.607205625,8.070533906249999,11.928615625C8.391983906250001,12.250115625,8.39649390625,12.769915625,8.08067390625,13.096815625L4.511503906250001,16.666015625ZM15.48820390625,3.332685625L12.49980390625,3.332685625C12.03960390625,3.332685625,11.66650390625,2.959585625,11.66650390625,2.499348625C11.66650390625,2.039111625,12.03960390625,1.666015625,12.49980390625,1.666015625L17.49980390625,1.666015625C17.96010390625,1.666015625,18.33320390625,2.039111625,18.33320390625,2.499348625L18.33320390625,7.499345625C18.33320390625,7.959585625,17.96010390625,8.332685625,17.49980390625,8.332685625C17.03960390625,8.332685625,16.66650390625,7.959585625,16.66650390625,7.499345625L16.66650390625,4.511015625000001L13.09730390625,8.080185625C12.77370390625,8.415305625,12.23810390625,8.419955625,11.90870390625,8.090515625C11.57923390625,7.761065625,11.58388390625,7.225515625,11.91900390625,6.901845625L15.48820390625,3.332685625Z" fill-rule="evenodd" fill="currentColor" fill-opacity="1"/></g></g></svg>
