<svg xmlns="http://www.w3.org/2000/svg" xmlns:xlink="http://www.w3.org/1999/xlink" fill="none" version="1.1" width="22.39990234375" height="22.4000244140625" viewBox="0 0 22.39990234375 22.4000244140625">
  <defs>
    <clipPath id="master_svg0_3_21950">
      <rect x="0" y="0" width="22.399999618530273" height="22.399999618530273" rx="0"/>
    </clipPath>
  </defs>
  <g>
    <g clip-path="url(#master_svg0_3_21950)">
      <g>
        <path   fill-opacity="0.8"  d="M20.24544375,9.7016307421875L17.98574375,9.7016307421875C17.53294375,9.7016307421875,17.23114375,10.0035107421875,17.23114375,10.4563207421875C17.23114375,10.9091407421875,17.53294375,11.2110107421875,17.98574375,11.2110107421875L19.49294375,11.2110107421875L19.49294375,16.4873107421875L18.73824375,16.4873107421875L18.73824375,15.8835107421875C18.73824375,15.7326107421875,18.58734375,15.6582107421875,18.36204375,15.8091107421875L16.62734375,17.0144107421875C16.55294375,17.088810742187498,16.47644375,17.1654107421875,16.47644375,17.2398107421875C16.47644375,17.314110742187502,16.550743750000002,17.3907107421875,16.62734375,17.4651107421875L18.36204375,18.6704107421875C18.58734375,18.8213107421875,18.73824375,18.7447107421875,18.73824375,18.4451107421875L18.73824375,17.9922107421875L20.24544375,17.9922107421875C20.69824375,17.9922107421875,21.00014375,17.6904107421875,21.00014375,17.2376107421875L21.00014375,10.4563207421875C21.00014375,10.0035107421875,20.69824375,9.7016307421875,20.24544375,9.7016307421875ZM4.03828375,5.1035107421875L5.77297375,3.8982007421875C5.84734375,3.8238207421875,5.92390375,3.7472607421875,5.92390375,3.6728807421875C5.92390375,3.5985107421875,5.84953375,3.5219507421875,5.77297375,3.4475707421875L4.03828375,2.2422607421875C3.81297375,2.0913227421875,3.66203375,2.1678857421875,3.66203375,2.3166357421875L3.66203375,2.9203807421875L2.15484375,2.9203807421875C1.84421875,2.9203807421875,1.60359375,3.0625707421875,1.48546885,3.2988207421875C1.43078135,3.4060107421875,1.40234375,3.5328907421875,1.40234375,3.6750707421875L1.40234375,10.4563207421875C1.40234375,10.9091407421875,1.70421875,11.2110107421875,2.15703075,11.2110107421875L4.41890375,11.2110107421875C4.87172375,11.2110107421875,5.17359375,10.9091407421875,5.17359375,10.4563207421875C5.17359375,10.0035107421875,4.87172375,9.7016307421875,4.41890375,9.7016307421875L2.91172375,9.7016307421875L2.91172375,4.4253807421874995L3.66640375,4.4253807421874995L3.66640375,4.8782007421875C3.66203375,5.1800707421875,3.81296375,5.2544507421875,4.03828375,5.1035107421875ZM7.43109375,5.9325707421875L14.96924375,5.9325707421875C15.79824375,5.9325707421875,16.47644375,5.2544507421875,16.47644375,4.4253807421874995L16.47644375,2.9182007421875C16.47644375,2.0891357421875,15.79824375,1.4110107421875,14.96924375,1.4110107421875L7.43109375,1.4110107421875C6.60203375,1.4110107421875,5.92390375,2.0891357421875,5.92390375,2.9182007421875L5.92390375,4.4253807421874995C5.92390375,5.2544507421875,6.60203375,5.9325707421875,7.43109375,5.9325707421875ZM8.93828375,2.9182007421875C9.39109375,2.9182007421875,9.69297375,3.2200707421874997,9.69297375,3.6728807421875C9.69297375,4.1257007421875,9.39109375,4.4275707421875,8.93828375,4.4275707421875C8.48547375,4.4275707421875,8.18359375,4.1257007421875,8.18359375,3.6728807421875C8.18359375,3.2200707421874997,8.48547375,2.9182007421875,8.93828375,2.9182007421875ZM6.22578375,10.9835107421875L10.90047375,13.3963107421875C11.05140375,13.4707107421875,11.05140375,13.4707107421875,11.20234375,13.4707107421875C11.35328375,13.4707107421875,11.42764375,13.4707107421875,11.50424375,13.3963107421875L16.178943750000002,10.9835107421875C16.63174375,10.7582007421875,16.63174375,10.1544507421875,16.178943750000002,9.9291307421875L11.50204375,7.5163207421875C11.35109375,7.4419507421875,11.27671375,7.4419507421875,11.20015375,7.4419507421875C11.12578375,7.4419507421875,11.04922375,7.4419507421875,10.89828375,7.5163207421875L6.22578375,9.9291307421875C6.09890375,9.9860107421875,5.99828375,10.0888207421875,5.93921375,10.2157007421875C5.80578375,10.5066307421875,5.93265375,10.8500707421875,6.22578375,10.9835107421875ZM14.96924375,14.9801107421875L7.43109375,14.9801107421875C6.60203375,14.9801107421875,5.92390375,15.6582107421875,5.92390375,16.4873107421875L5.92390375,17.9944107421875C5.92390375,18.8235107421875,6.60203375,19.5016107421875,7.43109375,19.5016107421875L14.96924375,19.5016107421875C15.79824375,19.5016107421875,16.47644375,18.8235107421875,16.47644375,17.9944107421875L16.47644375,16.4851107421875C16.47644375,15.6582107421875,15.79824375,14.9801107421875,14.96924375,14.9801107421875ZM13.46204375,17.9944107421875C13.00924375,17.9944107421875,12.70734375,17.6926107421875,12.70734375,17.2398107421875C12.70734375,16.7869107421875,13.00924375,16.4851107421875,13.46204375,16.4851107421875C13.91484375,16.4851107421875,14.21674375,16.7869107421875,14.21674375,17.2398107421875C14.21454375,17.6926107421875,13.91484375,17.9944107421875,13.46204375,17.9944107421875Z" fill="currentColor" fill-opacity="1"/>
      </g>
    </g>
  </g>
</svg>