<svg viewBox="0 0 24 24" fill="none" xmlns="http://www.w3.org/2000/svg"><defs><clipPath id="a"><rect rx="0" height="24" width="24"/></clipPath></defs><g clip-path="url(#a)"><path fill="#333" d="M1 18V6q0-1.243.879-2.121Q2.757 3 4 3h16q1.243 0 2.121.879Q23 4.757 23 6v12q0 1.243-.879 2.121Q21.243 21 20 21H4q-1.243 0-2.121-.879Q1 19.243 1 18Zm2 0q0 .414.293.707T4 19h16q.414 0 .707-.293T21 18V6q0-.414-.293-.707T20 5H4q-.414 0-.707.293T3 6v12Z" data-follow-fill="#333"/><path fill="#333" d="M15 16v-3.5q0-.098.02-.195.018-.097.056-.188.038-.09.093-.173.054-.081.124-.151.07-.07.151-.124.082-.055.173-.093.091-.038.188-.057.097-.019.195-.019t.195.02q.097.018.188.056.09.038.173.093.081.054.151.124.07.07.124.151.055.082.093.173.038.091.057.188.019.097.019.195V16q0 .098-.02.195-.018.097-.056.188-.038.09-.093.173-.054.081-.124.151-.07.07-.151.124-.082.055-.173.093-.091.038-.188.057Q16.098 17 16 17t-.195-.02q-.097-.018-.188-.056-.09-.038-.173-.093-.081-.054-.151-.124-.07-.07-.124-.151-.055-.082-.093-.173-.038-.091-.057-.188Q15 16.098 15 16Zm2 0q0 .098-.02.195-.018.097-.056.188-.038.09-.093.173-.054.081-.124.151-.07.07-.151.124-.082.055-.173.093-.091.038-.188.057Q16.098 17 16 17t-.195-.02q-.097-.018-.188-.056-.09-.038-.173-.093-.081-.054-.151-.124-.07-.07-.124-.151-.055-.082-.093-.173-.038-.091-.057-.188Q15 16.098 15 16t.02-.195q.018-.097.056-.188.038-.09.093-.173.054-.081.124-.151.07-.07.151-.124.082-.055.173-.093.091-.038.188-.057Q15.902 15 16 15t.195.02q.097.018.188.056.09.038.173.093.081.054.151.124.07.07.124.151.055.082.093.173.038.091.057.188.019.097.019.195Zm0-3.5q0 .098-.02.195-.018.097-.056.188-.038.09-.093.173-.054.081-.124.151-.07.07-.151.124-.082.055-.173.093-.091.038-.188.057-.097.019-.195.019t-.195-.02q-.097-.018-.188-.056-.09-.038-.173-.093-.081-.054-.151-.124-.07-.07-.124-.151-.055-.082-.093-.173-.038-.091-.057-.188Q15 12.598 15 12.5t.02-.195q.018-.097.056-.188.038-.09.093-.173.054-.081.124-.151.07-.07.151-.124.082-.055.173-.093.091-.038.188-.057.097-.019.195-.019t.195.02q.097.018.188.056.09.038.173.093.081.054.151.124.07.07.124.151.055.082.093.173.038.091.057.188.019.097.019.195ZM11 16V8q0-.098.02-.195.018-.097.056-.188.038-.09.093-.173.054-.081.124-.151.07-.07.151-.124.082-.055.173-.093.091-.038.188-.057Q11.902 7 12 7t.195.02q.097.018.188.056.09.038.173.093.081.054.151.124.07.07.124.151.055.082.093.173.038.091.057.188Q13 7.902 13 8v8q0 .098-.02.195-.018.097-.056.188-.038.09-.093.173-.054.081-.124.151-.07.07-.151.124-.082.055-.173.093-.091.038-.188.057Q12.098 17 12 17t-.195-.02q-.097-.018-.188-.056-.09-.038-.173-.093-.081-.054-.151-.124-.07-.07-.124-.151-.055-.082-.093-.173-.038-.091-.057-.188Q11 16.098 11 16Zm2 0q0 .098-.02.195-.018.097-.056.188-.038.09-.093.173-.054.081-.124.151-.07.07-.151.124-.082.055-.173.093-.091.038-.188.057Q12.098 17 12 17t-.195-.02q-.097-.018-.188-.056-.09-.038-.173-.093-.081-.054-.151-.124-.07-.07-.124-.151-.055-.082-.093-.173-.038-.091-.057-.188Q11 16.098 11 16t.02-.195q.018-.097.056-.188.038-.09.093-.173.054-.081.124-.151.07-.07.151-.124.082-.055.173-.093.091-.038.188-.057Q11.902 15 12 15t.195.02q.097.018.188.056.09.038.173.093.081.054.151.124.07.07.124.151.055.082.093.173.038.091.057.188.019.097.019.195Zm0-8q0 .098-.02.195-.018.097-.056.188-.038.09-.093.173-.054.081-.124.151-.07.07-.151.124-.082.055-.173.093-.091.038-.188.057Q12.098 9 12 9t-.195-.02q-.097-.018-.188-.056-.09-.038-.173-.093-.081-.054-.151-.124-.07-.07-.124-.151-.055-.082-.093-.173-.038-.091-.057-.188Q11 8.098 11 8t.02-.195q.018-.097.056-.188.038-.09.093-.173.054-.081.124-.151.07-.07.151-.124.082-.055.173-.093.091-.038.188-.057Q11.902 7 12 7t.195.02q.097.018.188.056.09.038.173.093.081.054.151.124.07.07.124.151.055.082.093.173.038.091.057.188Q13 7.902 13 8ZM7 16v-6q0-.098.02-.195.018-.097.056-.188.038-.09.093-.173.054-.081.124-.151.07-.07.151-.124.082-.055.173-.093.091-.038.188-.057Q7.902 9 8 9t.195.02q.097.018.188.056.09.038.173.093.081.054.151.124.07.07.124.151.055.082.093.173.038.091.057.188Q9 9.902 9 10v6q0 .098-.02.195-.018.097-.056.188-.038.09-.093.173-.054.081-.124.151-.07.07-.151.124-.082.055-.173.093-.091.038-.188.057Q8.098 17 8 17t-.195-.02q-.097-.018-.188-.056-.09-.038-.173-.093-.081-.054-.151-.124-.07-.07-.124-.151-.055-.082-.093-.173-.038-.091-.057-.188Q7 16.098 7 16Zm2 0q0 .098-.02.195-.018.097-.056.188-.038.09-.093.173-.054.081-.124.151-.07.07-.151.124-.082.055-.173.093-.091.038-.188.057Q8.098 17 8 17t-.195-.02q-.097-.018-.188-.056-.09-.038-.173-.093-.081-.054-.151-.124-.07-.07-.124-.151-.055-.082-.093-.173-.038-.091-.057-.188Q7 16.098 7 16t.02-.195q.018-.097.056-.188.038-.09.093-.173.054-.081.124-.151.07-.07.151-.124.082-.055.173-.093.091-.038.188-.057Q7.902 15 8 15t.195.02q.097.018.188.056.09.038.173.093.081.054.151.124.07.07.124.151.055.082.093.173.038.091.057.188Q9 15.902 9 16Zm0-6q0 .098-.02.195-.018.097-.056.188-.038.09-.093.173-.054.081-.124.151-.07.07-.151.124-.082.055-.173.093-.091.038-.188.057Q8.098 11 8 11t-.195-.02q-.097-.018-.188-.056-.09-.038-.173-.093-.081-.054-.151-.124-.07-.07-.124-.151-.055-.082-.093-.173-.038-.091-.057-.188Q7 10.098 7 10t.02-.195q.018-.097.056-.188.038-.09.093-.173.054-.081.124-.151.07-.07.151-.124.082-.055.173-.093.091-.038.188-.057Q7.902 9 8 9t.195.02q.097.018.188.056.09.038.173.093.081.054.151.124.07.07.124.151.055.082.093.173.038.091.057.188Q9 9.902 9 10Z" data-follow-fill="#333"/></g></svg>