<svg xmlns="http://www.w3.org/2000/svg" xmlns:xlink="http://www.w3.org/1999/xlink" fill="none" version="1.1" width="14.399999618530273" height="14.399999618530273" viewBox="0 0 14.399999618530273 14.399999618530273"><defs><clipPath id="master_svg0_80_81990"><rect x="0" y="0" width="14.399999618530273" height="14.399999618530273" rx="0"/></clipPath></defs><g clip-path="url(#master_svg0_80_81990)"><g></g><g><path d="M9.65156765625,11.9999755859375L10.375837656249999,12.7242355859375Q10.41761765625,12.7660255859375,10.46675765625,12.798855585937499Q10.51588765625,12.8316855859375,10.57048765625,12.8543055859375Q10.625087656249999,12.8769155859375,10.68304765625,12.8884455859375Q10.74099765625,12.8999755859375,10.80009765625,12.8999755859375Q10.85918765625,12.8999755859375,10.91714765625,12.8884455859375Q10.97510765625,12.8769155859375,11.02970765625,12.8543055859375Q11.084307656250001,12.8316855859375,11.133437656249999,12.798855585937499Q11.18257765625,12.7660255859375,11.22435765625,12.7242355859375L11.94862765625,11.9999755859375L13.20009765625,11.9999755859375Q13.259187656249999,11.9999755859375,13.31714765625,11.9884455859375Q13.37510765625,11.976915585937501,13.429707656249999,11.954305585937501Q13.48430765625,11.931685585937501,13.533437656250001,11.8988555859375Q13.582577656249999,11.8660255859375,13.62435765625,11.824235585937501Q13.66614765625,11.7824555859375,13.698977656250001,11.7333155859375Q13.73180765625,11.684185585937499,13.75442765625,11.6295855859375Q13.77703765625,11.574985585937501,13.788567656249999,11.5170255859375Q13.80009765625,11.4590655859375,13.80009765625,11.3999755859375L13.80009765625,6.5999755859375Q13.80009765625,6.5408807859374996,13.788567656249999,6.4829215859375Q13.77703765625,6.4249615859375,13.75442765625,6.3703655859375Q13.73180765625,6.3157685859375,13.698977656250001,6.2666335859375Q13.66614765625,6.2174975859375,13.62435765625,6.1757115859375Q13.582577656249999,6.1339255859375,13.533437656250001,6.1010935859375Q13.48429765625,6.0682625859375,13.429707656249999,6.0456475859375Q13.37510765625,6.0230335859375,13.31714765625,6.0115045859375Q13.259187656249999,5.9999755859375,13.20009765625,5.9999755859375L10.80009765625,5.9999755859375Q10.74099765625,5.9999755859375,10.68304765625,6.0115045859375Q10.625087656249999,6.0230335859375,10.57048765625,6.0456475859375Q10.51588765625,6.0682625859375,10.46675765625,6.1010935859375Q10.41761765625,6.1339255859375,10.375837656249999,6.1757115859375Q10.33404765625,6.2174975859375,10.30121765625,6.2666335859375Q10.268387656249999,6.3157685859375,10.245767656249999,6.3703655859375Q10.22315765625,6.4249615859375,10.21162765625,6.4829215859375Q10.20009765625,6.5408807859374996,10.20009765625,6.5999755859375L10.20009765625,8.3999755859375L6.60009765625,8.3999755859375Q6.5410028562499996,8.3999755859375,6.48304365625,8.4115055859375Q6.42508365625,8.4230355859375,6.37048765625,8.4456455859375Q6.31589065625,8.4682655859375,6.26675565625,8.5010955859375Q6.21761965625,8.5339255859375,6.17583365625,8.5757155859375Q6.13404765625,8.617495585937501,6.10121565625,8.6666355859375Q6.06838465625,8.7157655859375,6.04576965625,8.7703655859375Q6.02315565625,8.8249655859375,6.01162665625,8.8829255859375Q6.00009765625,8.9408755859375,6.00009765625,8.9999755859375L6.00009765625,11.3999755859375Q6.00009765625,11.4590655859375,6.01162665625,11.5170255859375Q6.02315565625,11.574985585937501,6.04576965625,11.6295855859375Q6.06838465625,11.684185585937499,6.10121565625,11.7333155859375Q6.13404765625,11.7824555859375,6.17583365625,11.824235585937501Q6.21761965625,11.8660255859375,6.26675565625,11.8988555859375Q6.31589065625,11.931685585937501,6.37048765625,11.954305585937501Q6.42508365625,11.976915585937501,6.48304365625,11.9884455859375Q6.5410028562499996,11.9999755859375,6.60009765625,11.9999755859375L9.65156765625,11.9999755859375ZM10.80009765625,11.451445585937499L11.275837656250001,10.9757155859375Q11.36022765625,10.8913155859375,11.47048765625,10.8456455859375Q11.58074765625,10.7999755859375,11.70009765625,10.7999755859375L12.60009765625,10.7999755859375L12.60009765625,7.1999755859375L11.40009765625,7.1999755859375L11.40009765625,8.9999755859375Q11.40009765625,9.0590655859375,11.38856765625,9.1170255859375Q11.37703765625,9.174985585937499,11.35442765625,9.2295855859375Q11.33180765625,9.2841855859375,11.298977656249999,9.3333155859375Q11.26614765625,9.3824555859375,11.22435765625,9.4242355859375Q11.18257765625,9.4660255859375,11.133437656249999,9.4988555859375Q11.084307656250001,9.531685585937499,11.02970765625,9.5543055859375Q10.97510765625,9.576915585937499,10.91714765625,9.5884455859375Q10.85918765625,9.5999755859375,10.80009765625,9.5999755859375L7.20009765625,9.5999755859375L7.20009765625,10.7999755859375L9.90009765625,10.7999755859375Q10.01944765625,10.7999755859375,10.12970765625,10.8456455859375Q10.23996765625,10.8913155859375,10.324357656250001,10.9757155859375L10.80009765625,11.451445585937499Z" fill-rule="evenodd" fill="#000000" fill-opacity="0.6000000238418579"/></g><g><path d="M0.599951171875,1.800048828125L0.599951171875,9.000048828125Q0.599951171875,9.059138828125,0.611480171875,9.117098828125Q0.623009171875,9.175058828125,0.645623171875,9.229658828125Q0.668238171875,9.284258828125001,0.701069171875,9.333388828124999Q0.7339011718749999,9.382528828125,0.775687171875,9.424308828125Q0.817473171875,9.466098828125,0.866609171875,9.498928828124999Q0.915744171875,9.531758828125,0.970341171875,9.554378828125Q1.024937171875,9.576988828125,1.082897171875,9.588518828125Q1.140856371875,9.600048828125,1.199951171875,9.600048828125L2.4514211718750003,9.600048828125L3.475691171875,10.624308828125Q3.517471171875,10.666098828125,3.566611171875,10.698928828125Q3.615741171875,10.731758828125,3.670341171875,10.754378828125Q3.724941171875,10.776988828125,3.782901171875,10.788518828125Q3.840851171875,10.800048828125,3.899951171875,10.800048828125Q3.959041171875,10.800048828125,4.017001171875,10.788518828125Q4.074961171875,10.776988828125,4.129561171875,10.754378828125Q4.184161171875,10.731758828125,4.233291171875,10.698928828125Q4.282431171875,10.666098828125,4.324211171875,10.624308828125L5.348481171875,9.600048828125L10.799951171875,9.600048828125Q10.859041171875,9.600048828125,10.917001171875,9.588518828125Q10.974961171875,9.576988828125,11.029561171875,9.554378828125Q11.084151171875,9.531758828125,11.133291171875,9.498928828124999Q11.182431171875,9.466098828125,11.224251171875,9.424308828125Q11.265951171875,9.382528828125,11.298851171875,9.333388828124999Q11.331651171875,9.284258828125001,11.354251171875,9.229658828125Q11.376851171875,9.175058828125,11.388451171875,9.117098828125Q11.399951171875,9.059138828125,11.399951171875,9.000048828125L11.399951171875,1.800048828125Q11.399951171875,1.740954028125,11.388451171875,1.682994828125Q11.376851171875,1.625034828125,11.354251171875,1.570438828125Q11.331651171875,1.5158418281250001,11.298851171875,1.466706828125Q11.265951171875,1.4175708281250001,11.224251171875,1.375784828125Q11.182431171875,1.333998828125,11.133291171875,1.301166828125Q11.084151171875,1.2683358281250001,11.029561171875,1.245720828125Q10.974961171875,1.2231068281250002,10.917001171875,1.211577828125Q10.859041171875,1.200048828125,10.799951171875,1.200048828125L1.199951171875,1.200048828125Q1.140856371875,1.200048828125,1.082897171875,1.211577828125Q1.024937171875,1.2231068281250002,0.970341171875,1.245720828125Q0.915744171875,1.2683358281250001,0.866609171875,1.301166828125Q0.817473171875,1.333998828125,0.775687171875,1.375784828125Q0.7339011718749999,1.4175708281250001,0.701069171875,1.466706828125Q0.668238171875,1.5158418281250001,0.645623171875,1.570438828125Q0.623009171875,1.625034828125,0.611480171875,1.682994828125Q0.599951171875,1.740954028125,0.599951171875,1.800048828125ZM1.799951171875,8.400048828125L2.699951171875,8.400048828125Q2.819301171875,8.400048828125,2.929561171875,8.445718828124999Q3.039821171875,8.491388828125,3.1242111718750003,8.575788828124999L3.899951171875,9.351518828125L4.675691171875,8.575788828124999Q4.760081171875,8.491388828125,4.870341171874999,8.445718828124999Q4.980601171875,8.400048828125,5.099951171875,8.400048828125L10.199951171875,8.400048828125L10.199951171875,2.400048828125L1.799951171875,2.400048828125L1.799951171875,8.400048828125Z" fill-rule="evenodd" fill="#000000" fill-opacity="0.6000000238418579"/></g><g><path d="M3.60036509925,5.9999755859375L3.60009765625,5.9999755859375Q3.54100285625,5.9999755859375,3.48304365625,6.0115045859375Q3.42508365625,6.0230335859375,3.37048765625,6.0456475859375Q3.31589065625,6.0682625859375,3.26675565625,6.1010935859375Q3.21761965625,6.1339255859375,3.17583365625,6.1757115859375Q3.13404765625,6.2174975859375,3.10121565625,6.2666335859375Q3.06838465625,6.3157685859375,3.04576965625,6.3703655859375Q3.02315565625,6.4249615859375,3.01162665625,6.4829215859375Q3.00009765625,6.5408807859374996,3.00009765625,6.5999755859375Q3.00009765625,6.6590703859375004,3.01162665625,6.7170295859375Q3.02315565625,6.7749895859375,3.04576965625,6.8295855859375Q3.06838465625,6.8841825859375,3.10121565625,6.9333175859375Q3.13404765625,6.9824535859375,3.17583365625,7.0242395859375Q3.21761965625,7.0660255859375,3.26675565625,7.0988575859375Q3.31589065625,7.1316885859375,3.37048765625,7.1543035859375Q3.42508365625,7.1769175859375,3.48304365625,7.1884465859375Q3.54100285625,7.1999755859375,3.60009765625,7.1999755859375L5.40009765625,7.1999755859375Q5.45918765625,7.1999755859375,5.51714765625,7.1884465859375Q5.57510765625,7.1769175859375,5.62970765625,7.1543035859375Q5.684307656250001,7.1316885859375,5.7334376562500005,7.0988575859375Q5.78257765625,7.0660255859375,5.82435765625,7.0242395859375Q5.86614765625,6.9824535859375,5.8989776562500005,6.9333175859375Q5.93180765625,6.8841825859375,5.95442765625,6.8295855859375Q5.977037656249999,6.7749895859375,5.98856765625,6.7170295859375Q6.00009765625,6.6590703859375004,6.00009765625,6.5999755859375Q6.00009765625,6.5408807859374996,5.98856765625,6.4829215859375Q5.977037656249999,6.4249615859375,5.95442765625,6.3703655859375Q5.93180765625,6.3157685859375,5.8989776562500005,6.2666335859375Q5.86614765625,6.2174975859375,5.82435765625,6.1757115859375Q5.78257765625,6.1339255859375,5.7334376562500005,6.1010935859375Q5.684307656250001,6.0682625859375,5.62970765625,6.0456475859375Q5.57510765625,6.0230335859375,5.51714765625,6.0115045859375Q5.45918765625,5.9999755859375,5.40009765625,5.9999755859375L5.39982765625,5.9999755859375L3.60036509925,5.9999755859375Z" fill-rule="evenodd" fill="#000000" fill-opacity="0.6000000238418579"/></g><g><path d="M3.60036509925,3.599951171875L3.60009765625,3.599951171875Q3.54100285625,3.599951171875,3.48304365625,3.611480171875Q3.42508365625,3.623009171875,3.37048765625,3.645623171875Q3.31589065625,3.668238171875,3.26675565625,3.701069171875Q3.21761965625,3.733901171875,3.17583365625,3.775687171875Q3.13404765625,3.817473171875,3.10121565625,3.866609171875Q3.06838465625,3.915744171875,3.04576965625,3.970341171875Q3.02315565625,4.024937171875,3.01162665625,4.082897171875Q3.00009765625,4.1408563718749996,3.00009765625,4.199951171875Q3.00009765625,4.2590459718750004,3.01162665625,4.317005171875Q3.02315565625,4.374965171875,3.04576965625,4.429561171875Q3.06838465625,4.484158171875,3.10121565625,4.533293171875Q3.13404765625,4.582429171875,3.17583365625,4.624215171875Q3.21761965625,4.666001171875,3.26675565625,4.698833171875Q3.31589065625,4.731664171875,3.37048765625,4.754279171875Q3.42508365625,4.776893171875,3.48304365625,4.788422171875Q3.54100285625,4.799951171875,3.60009765625,4.799951171875L7.20009765625,4.799951171875Q7.25918765625,4.799951171875,7.31714765625,4.788422171875Q7.37510765625,4.776893171875,7.429707656250001,4.754279171875Q7.4843076562499995,4.731664171875,7.533437656249999,4.698833171875Q7.58257765625,4.666001171875,7.62435765625,4.624215171875Q7.66614765625,4.582429171875,7.69897765625,4.533293171875Q7.73180765625,4.484158171875,7.75442765625,4.429561171875Q7.77703765625,4.374965171875,7.78856765625,4.317005171875Q7.80009765625,4.2590459718750004,7.80009765625,4.199951171875Q7.80009765625,4.1408563718749996,7.78856765625,4.082897171875Q7.77703765625,4.024937171875,7.75442765625,3.970341171875Q7.73180765625,3.915744171875,7.69897765625,3.866609171875Q7.66614765625,3.817473171875,7.62435765625,3.775687171875Q7.58257765625,3.733901171875,7.533437656249999,3.701069171875Q7.4843076562499995,3.668238171875,7.429707656250001,3.645623171875Q7.37510765625,3.623009171875,7.31714765625,3.611480171875Q7.25918765625,3.599951171875,7.20009765625,3.599951171875L7.19982765625,3.599951171875L3.60036509925,3.599951171875Z" fill-rule="evenodd" fill="#000000" fill-opacity="0.6000000238418579"/></g></g></svg>