<svg viewBox="0 0 24 24" fill="none" xmlns="http://www.w3.org/2000/svg"><defs><clipPath id="a"><rect rx="0" height="24" width="24"/></clipPath><clipPath id="b"><rect rx="0" height="9.6" width="9.6" y="7" x="4"/></clipPath></defs><g clip-path="url(#a)"><rect fill-opacity=".01" fill="#FFF" rx="0" height="24" width="24"/><path fill="#333" d="M1 18V6q0-1.243.879-2.121Q2.757 3 4 3h16q1.243 0 2.121.879Q23 4.757 23 6v12q0 1.243-.879 2.121Q21.243 21 20 21H4q-1.243 0-2.121-.879Q1 19.243 1 18Zm2 0q0 .414.293.707T4 19h16q.414 0 .707-.293T21 18V6q0-.414-.293-.707T20 5H4q-.414 0-.707.293T3 6v12Z"/><path fill="#333" d="M19.5 14.75H15q-.074 0-.146-.014-.073-.015-.141-.043-.068-.028-.13-.07-.061-.04-.113-.093-.053-.052-.094-.113-.04-.062-.069-.13-.028-.068-.043-.14-.014-.073-.014-.147t.014-.146q.015-.073.043-.141.028-.068.07-.13.04-.061.093-.113.052-.053.113-.094.062-.04.13-.069.068-.028.14-.043.073-.014.147-.014h4.5q.074 0 .146.014.073.015.141.043.068.028.13.07.061.04.113.093.053.052.094.113.04.062.069.13.028.068.043.14.014.073.014.147t-.014.146q-.015.073-.043.141-.028.068-.07.13-.04.061-.093.113-.052.053-.113.094-.062.04-.13.069-.068.028-.14.043-.073.014-.147.014Zm.75-.75q0 .074-.014.146-.015.073-.043.141-.028.068-.07.13-.04.061-.093.113-.052.053-.113.094-.062.04-.13.069-.068.028-.14.043-.073.014-.147.014t-.146-.014q-.073-.015-.141-.043-.068-.028-.13-.07-.061-.04-.113-.093-.053-.052-.094-.113-.04-.062-.069-.13-.028-.068-.043-.14-.014-.073-.014-.147t.014-.146q.015-.073.043-.141.028-.068.07-.13.04-.061.093-.113.052-.053.113-.094.062-.04.13-.069.068-.028.14-.043.073-.014.147-.014t.146.014q.073.015.141.043.068.028.13.07.061.04.113.093.053.052.094.113.04.062.069.13.028.068.043.14.014.073.014.147Zm-4.5 0q0 .074-.014.146-.015.073-.043.141-.028.068-.07.13-.04.061-.093.113-.052.053-.113.094-.062.04-.13.069-.068.028-.14.043-.073.014-.147.014t-.146-.014q-.073-.015-.141-.043-.068-.028-.13-.07-.061-.04-.113-.093-.053-.052-.094-.113-.04-.062-.069-.13-.028-.068-.043-.14-.014-.073-.014-.147t.014-.146q.015-.073.043-.141.028-.068.07-.13.04-.061.093-.113.052-.053.113-.094.062-.04.13-.069.068-.028.14-.043.073-.014.147-.014t.146.014q.073.015.141.043.068.028.13.07.061.04.113.093.053.052.094.113.04.062.069.13.028.068.043.14.014.073.014.147ZM19 10.75h-4q-.074 0-.146-.014-.073-.015-.141-.043-.068-.028-.13-.07-.061-.04-.113-.093-.053-.052-.094-.113-.04-.062-.069-.13-.028-.068-.043-.14-.014-.073-.014-.147t.014-.146q.015-.073.043-.141.028-.068.07-.13.04-.061.093-.113.052-.053.113-.094.062-.04.13-.069.068-.028.14-.043.073-.014.147-.014h4q.074 0 .146.014.073.015.141.043.068.028.13.07.061.04.113.093.053.052.094.113.04.062.069.13.028.068.043.14.014.073.014.147t-.014.146q-.015.073-.043.141-.028.068-.07.13-.04.061-.093.113-.052.053-.113.094-.062.04-.13.069-.068.028-.14.043-.073.014-.147.014Zm.75-.75q0 .074-.014.146-.015.073-.043.141-.028.068-.07.13-.04.061-.093.113-.052.053-.113.094-.062.04-.13.069-.068.028-.14.043-.073.014-.147.014t-.146-.014q-.073-.015-.141-.043-.068-.028-.13-.07-.061-.04-.113-.093-.053-.052-.094-.113-.04-.062-.069-.13-.028-.068-.043-.14-.014-.073-.014-.147t.014-.146q.015-.073.043-.141.028-.068.07-.13.04-.061.093-.113.052-.053.113-.094.062-.04.13-.069.068-.028.14-.043.073-.014.147-.014t.146.014q.073.015.141.043.068.028.13.07.061.04.113.093.053.052.094.113.04.062.069.13.028.068.043.14.014.073.014.147Zm-4 0q0 .074-.014.146-.015.073-.043.141-.028.068-.07.13-.04.061-.093.113-.052.053-.113.094-.062.04-.13.069-.068.028-.14.043-.073.014-.147.014t-.146-.014q-.073-.015-.141-.043-.068-.028-.13-.07-.061-.04-.113-.093-.053-.052-.094-.113-.04-.062-.069-.13-.028-.068-.043-.14-.014-.073-.014-.147t.014-.146q.015-.073.043-.141.028-.068.07-.13.04-.061.093-.113.052-.053.113-.094.062-.04.13-.069.068-.028.14-.043.073-.014.147-.014t.146.014q.073.015.141.043.068.028.13.07.061.04.113.093.053.052.094.113.04.062.069.13.028.068.043.14.014.073.014.147Z"/><g clip-path="url(#b)"><path fill="#333" d="M11.8 11.8V8.6q0-.06.012-.117.011-.058.034-.113.022-.054.055-.103.033-.05.075-.091.042-.042.09-.075.05-.033.104-.055.055-.023.113-.034Q12.341 8 12.4 8q.06 0 .117.012.058.011.113.034.054.022.103.055.05.033.091.075.042.042.075.09.033.05.055.104.023.055.034.113.012.058.012.117v3.2q0 .06-.012.117-.011.058-.034.113-.022.054-.055.103-.033.05-.075.091-.041.042-.09.075-.05.033-.104.055-.055.023-.113.034-.058.012-.117.012-.06 0-.117-.012-.058-.011-.113-.034-.054-.022-.103-.055-.05-.033-.091-.075-.042-.042-.075-.09-.033-.05-.055-.104-.023-.055-.034-.113-.012-.058-.012-.117Zm1.2 0q0 .06-.012.117-.011.058-.034.113-.022.054-.055.103-.033.05-.075.091-.041.042-.09.075-.05.033-.104.055-.055.023-.113.034-.058.012-.117.012-.06 0-.117-.012-.058-.011-.113-.034-.054-.022-.103-.055-.05-.033-.091-.075-.042-.042-.075-.09-.033-.05-.055-.104-.023-.055-.034-.113-.012-.058-.012-.117 0-.06.012-.117.011-.058.034-.113.022-.054.055-.103.033-.05.075-.091.042-.042.09-.075.05-.033.104-.055.055-.023.113-.034.058-.012.117-.012.06 0 .117.012.058.011.113.034.054.022.103.055.05.033.091.075.042.042.075.09.033.05.055.104.023.055.034.113.012.058.012.117Zm0-3.2q0 .06-.012.117-.011.058-.034.113-.022.054-.055.103-.033.05-.075.091-.041.042-.09.075-.05.033-.104.055-.055.023-.113.034-.058.012-.117.012-.06 0-.117-.012-.058-.011-.113-.034-.054-.022-.103-.055-.05-.033-.091-.075-.042-.042-.075-.09-.033-.05-.055-.104-.023-.055-.034-.113Q11.8 8.66 11.8 8.6q0-.06.012-.117.011-.058.034-.113.022-.054.055-.103.033-.05.075-.091.042-.042.09-.075.05-.033.104-.055.055-.023.113-.034Q12.341 8 12.4 8q.06 0 .117.012.058.011.113.034.054.022.103.055.05.033.091.075.042.042.075.09.033.05.055.104.023.055.034.113.012.058.012.117ZM4.6 15v-3.2q0-.06.011-.117.012-.058.035-.113.022-.054.055-.103.033-.05.075-.091.041-.042.09-.075.05-.033.104-.055.055-.023.113-.034.058-.012.117-.012.059 0 .117.012.058.011.113.034.054.022.103.055.05.033.091.075.042.042.075.09.033.05.055.104.023.055.034.113.012.058.012.117V15q0 .06-.012.117-.011.058-.034.113-.022.054-.055.103-.033.05-.075.091-.042.042-.09.075-.05.033-.104.055-.055.023-.113.034-.058.012-.117.012-.06 0-.117-.012-.058-.011-.113-.034-.054-.022-.103-.055-.05-.033-.091-.075-.042-.042-.075-.09-.033-.05-.055-.104-.023-.055-.035-.113Q4.6 15.059 4.6 15Zm1.2 0q0 .06-.012.117-.011.058-.034.113-.022.054-.055.103-.033.05-.075.091-.042.042-.09.075-.05.033-.104.055-.055.023-.113.034-.058.012-.117.012-.06 0-.117-.012-.058-.011-.113-.034-.054-.022-.103-.055-.05-.033-.091-.075-.042-.042-.075-.09-.033-.05-.055-.104-.023-.055-.035-.113Q4.6 15.059 4.6 15q0-.06.011-.117.012-.058.035-.113.022-.054.055-.103.033-.05.075-.091.041-.042.09-.075.05-.033.104-.055.055-.023.113-.034.058-.012.117-.012.059 0 .117.012.058.011.113.034.054.022.103.055.05.033.091.075.042.042.075.09.033.05.055.104.023.055.034.113.012.058.012.117Zm0-3.2q0 .06-.012.117-.011.058-.034.113-.022.054-.055.103-.033.05-.075.091-.042.042-.09.075-.05.033-.104.055-.055.023-.113.034-.058.012-.117.012-.06 0-.117-.012-.058-.011-.113-.034-.054-.022-.103-.055-.05-.033-.091-.075-.042-.042-.075-.09-.033-.05-.055-.104-.023-.055-.035-.113-.011-.058-.011-.117 0-.06.011-.117.012-.058.035-.113.022-.054.055-.103.033-.05.075-.091.041-.042.09-.075.05-.033.104-.055.055-.023.113-.034.058-.012.117-.012.059 0 .117.012.058.011.113.034.054.022.103.055.05.033.091.075.042.042.075.09.033.05.055.104.023.055.034.113.012.058.012.117Z"/><path fill="#333" d="M11.717 14.822Q10.497 16 8.8 16q-1.74 0-2.97-1.23Q4.6 13.54 4.6 11.8q0-.06.011-.117.012-.058.035-.113.022-.054.055-.103.033-.05.075-.091.041-.042.09-.075.05-.033.104-.055.055-.023.113-.034.058-.012.117-.012.059 0 .117.012.058.011.113.034.054.022.103.055.05.033.091.075.042.042.075.09.033.05.055.104.023.055.034.113.012.058.012.117 0 1.243.879 2.121.878.879 2.121.879 1.212 0 2.083-.841.043-.041.092-.073.05-.032.105-.054.055-.022.113-.032.058-.01.118-.01.059.002.116.014.058.013.112.036.054.024.103.057.049.034.09.077.04.042.073.092.032.05.053.105.022.055.032.113.01.058.01.117-.001.059-.014.117-.012.058-.036.112-.023.054-.057.102-.034.049-.076.09Zm.183-.432q0 .06-.012.117-.011.058-.034.113-.022.055-.055.104-.033.049-.075.09-.042.042-.09.075-.05.033-.104.056-.055.022-.113.034-.058.011-.117.011-.06 0-.117-.011-.058-.012-.113-.034-.054-.023-.103-.056-.05-.033-.091-.074-.042-.042-.075-.091-.033-.05-.055-.104-.023-.055-.035-.113-.011-.058-.011-.117 0-.059.011-.117.012-.058.035-.112.022-.055.055-.104.033-.05.075-.09.041-.043.09-.076.05-.032.104-.055.055-.023.113-.034.058-.012.117-.012.059 0 .117.012.058.011.113.034.054.023.103.055.05.033.091.075.042.042.075.091.033.05.055.104.023.054.034.112.012.058.012.117ZM5.8 11.8q0 .06-.012.117-.011.058-.034.113-.022.054-.055.103-.033.05-.075.091-.042.042-.09.075-.05.033-.104.055-.055.023-.113.034-.058.012-.117.012-.06 0-.117-.012-.058-.011-.113-.034-.054-.022-.103-.055-.05-.033-.091-.075-.042-.042-.075-.09-.033-.05-.055-.104-.023-.055-.035-.113-.011-.058-.011-.117 0-.06.011-.117.012-.058.035-.113.022-.054.055-.103.033-.05.075-.091.041-.042.09-.075.05-.033.104-.055.055-.023.113-.034.058-.012.117-.012.059 0 .117.012.058.011.113.034.054.022.103.055.05.033.091.075.042.042.075.09.033.05.055.104.023.055.034.113.012.058.012.117ZM5.778 8.883Q7.017 7.6 8.8 7.6q1.74 0 2.97 1.23Q13 10.06 13 11.8q0 .06-.011.117-.012.058-.035.113-.022.054-.055.103-.033.05-.075.091-.041.042-.09.075-.05.033-.104.055-.055.023-.113.034-.058.012-.117.012-.059 0-.117-.012-.058-.011-.113-.034-.054-.022-.103-.055-.05-.033-.091-.075-.042-.042-.075-.09-.033-.05-.055-.104-.023-.055-.034-.113-.012-.058-.012-.117 0-1.243-.879-2.121-.878-.879-2.12-.879-1.275 0-2.16.917-.04.042-.09.076-.048.034-.102.057-.054.024-.112.036-.058.013-.117.014-.059.001-.117-.01-.058-.01-.113-.032-.055-.021-.105-.053-.05-.032-.092-.073-.043-.041-.076-.09-.034-.048-.057-.103-.024-.054-.037-.112-.012-.057-.013-.116-.001-.06.01-.118.01-.058.031-.113.022-.055.054-.104.032-.05.073-.093ZM6.81 9.3q0 .06-.012.117-.011.058-.034.113-.023.054-.055.103-.033.05-.075.091-.042.042-.09.075-.05.033-.105.055-.054.023-.112.034-.058.012-.117.012-.06 0-.117-.012-.058-.011-.113-.034-.054-.022-.104-.055-.049-.033-.09-.075-.042-.042-.075-.09-.033-.05-.056-.104-.022-.055-.034-.113Q5.61 9.36 5.61 9.3q0-.06.011-.117.012-.058.034-.113.023-.054.056-.103.033-.05.074-.091.042-.042.091-.075.05-.033.104-.055.055-.023.113-.034.058-.012.117-.012.059 0 .117.012.058.011.112.034.055.022.104.055.05.033.091.075.042.042.075.09.032.05.055.104.023.055.034.113.012.058.012.117ZM13 11.8q0 .06-.011.117-.012.058-.035.113-.022.054-.055.103-.033.05-.075.091-.041.042-.09.075-.05.033-.104.055-.055.023-.113.034-.058.012-.117.012-.059 0-.117-.012-.058-.011-.113-.034-.054-.022-.103-.055-.05-.033-.091-.075-.042-.042-.075-.09-.033-.05-.055-.104-.023-.055-.034-.113-.012-.058-.012-.117 0-.06.012-.117.011-.058.034-.113.022-.054.055-.103.033-.05.075-.091.042-.042.09-.075.05-.033.104-.055.055-.023.113-.034.058-.012.117-.012.06 0 .117.012.058.011.113.034.054.022.103.055.05.033.091.075.042.042.075.09.033.05.055.104.023.055.035.113.011.058.011.117Z"/></g></g></svg>