<svg viewBox="0 0 20 20" fill="none" xmlns="http://www.w3.org/2000/svg"><defs><clipPath id="a"><rect rx="0" height="20" width="20"/></clipPath></defs><g clip-path="url(#a)"><path fill="#1B2129" d="m7.547 11.055 2.236 2.236.002.002c.143.139.33.215.53.215h.005l.194-.002v-.027a.767.767 0 0 0 .338-.196l4.023-4.021a.756.756 0 0 0-.326-1.291.752.752 0 0 0-.74.224l-3.497 3.49-1.699-1.699a.756.756 0 1 0-1.066 1.069Z" data-follow-fill="#1B2129"/><path fill="#1B2129" d="M17.807 4.145a.749.749 0 0 0-.534-.221h-1.667V2.256a.75.75 0 0 0-.754-.754H2.729a.749.749 0 0 0-.534.22.749.749 0 0 0-.22.534v12.119a.749.749 0 0 0 .754.754h1.666v1.67a.749.749 0 0 0 .754.754h12.12a.75.75 0 0 0 .754-.754V4.679a.73.73 0 0 0-.216-.534Zm-13.19 0a.749.749 0 0 0-.22.533v8.941h-.913V3.01h10.612v.915H5.15a.749.749 0 0 0-.533.22Zm11.903 11.9H5.906V5.434H16.52v10.611Z" data-follow-fill="#1B2129"/></g></svg>