<svg viewBox="0 0 24 24" fill="none" xmlns="http://www.w3.org/2000/svg"><defs><clipPath id="a"><rect rx="0" height="24" width="24"/></clipPath></defs><g clip-path="url(#a)"><rect fill-opacity=".01" fill="#FFF" rx="0" height="24" width="24"/><path fill="#333" d="M16.555 3.707 6.208 14.067 5.5 13.36h1V17h-1v-1h3.659v1l-.708-.707L18.793 5.947l.707.707-.707.707-3.653-3.654.707-.707.708.707ZM15.14 2.293q.07-.07.152-.125.082-.054.173-.092.091-.038.188-.057.096-.019.195-.019.098 0 .195.02.096.018.187.056.091.038.173.093.082.054.152.124l3.652 3.654q.07.07.125.152.054.081.092.172.038.091.057.188.019.097.019.195 0 .099-.02.195-.018.097-.056.188-.038.09-.092.172-.055.082-.125.152L9.866 17.707q-.14.14-.325.217Q9.358 18 9.16 18H5.5q-.098 0-.195-.02-.097-.018-.188-.056-.09-.038-.173-.093-.081-.054-.151-.124-.07-.07-.124-.151-.055-.082-.093-.173-.038-.091-.057-.188Q4.5 17.1 4.5 17v-3.64q0-.199.076-.382.076-.184.216-.325L15.14 2.293Z"/><g fill-rule="evenodd"><path fill="#333" d="M6.366 2.249A.777.777 0 0 0 5.8 2a.777.777 0 0 0-.566.249A.878.878 0 0 0 5 2.85c0 .225.084.442.234.601l14.4 15.3c.15.16.354.249.566.249.212 0 .416-.09.566-.249A.878.878 0 0 0 21 18.15a.878.878 0 0 0-.234-.601l-14.4-15.3Z"/><path fill="#FFF" d="M4.506 4.136Q4 3.6 4 2.85t.506-1.286Q5.036 1 5.8 1q.763 0 1.294.564l14.4 15.3Q22 17.4 22 18.15t-.506 1.286Q20.964 20 20.2 20q-.763 0-1.294-.564l-14.4-15.3Zm1.86-1.887A.777.777 0 0 0 5.8 2a.777.777 0 0 0-.566.249A.878.878 0 0 0 5 2.85c0 .225.084.442.234.601l14.4 15.3c.15.16.354.249.566.249.212 0 .416-.09.566-.249A.878.878 0 0 0 21 18.15a.878.878 0 0 0-.234-.601l-14.4-15.3Z"/></g></g></svg>