<svg xmlns="http://www.w3.org/2000/svg" xmlns:xlink="http://www.w3.org/1999/xlink" fill="none" version="1.1" width="24" height="24" viewBox="0 0 24 24"><defs><clipPath id="master_svg0_1_432"><rect x="0" y="0" width="24" height="24" rx="0"/></clipPath></defs><g clip-path="url(#master_svg0_1_432)"><g><path d="M1.5,20L1.5,9.5Q1.5,9.4015086,1.519215,9.30491Q1.53843,9.208311,1.576121,9.117317Q1.613812,9.026322,1.66853,8.94443Q1.723249,8.862537,1.7928929999999998,8.792893Q1.862537,8.723249,1.94443,8.66853Q2.026322,8.613812,2.117317,8.576121Q2.208311,8.53843,2.30491,8.519214999999999Q2.4015086,8.5,2.5,8.5L21.5,8.5Q21.5985,8.5,21.6951,8.519214999999999Q21.7917,8.53843,21.8827,8.576121Q21.9737,8.613812,22.0556,8.66853Q22.1375,8.723249,22.2071,8.792893Q22.2767,8.862537,22.3315,8.94443Q22.3862,9.026322,22.4239,9.117317Q22.4616,9.208311,22.4808,9.30491Q22.5,9.4015086,22.5,9.5L22.5,20Q22.5,20.828400000000002,21.9142,21.4142Q21.3284,22,20.5,22L3.5,22Q2.671573,22,2.08579,21.4142Q1.5,20.828400000000002,1.5,20ZM3.5,20L3.5,20L20.5,20L20.5,20L20.5,9.5L21.5,9.5L21.5,10.5L2.5,10.5L2.5,9.5L3.5,9.5L3.5,20Z" fill="currentColor" fill-stroke-opacity="1"/></g><g><path d="M1.5,9.5L1.5,4.5Q1.5,3.671573,2.085786,3.085786Q2.671573,2.5,3.5,2.5L20.5,2.5Q21.3284,2.5,21.9142,3.08579Q22.5,3.671575,22.5,4.5L22.5,9.5Q22.5,9.59849,22.4808,9.69509Q22.4616,9.79169,22.4239,9.88268Q22.3862,9.97368,22.3315,10.05557Q22.2767,10.13746,22.2071,10.20711Q22.1375,10.27675,22.0556,10.33147Q21.9737,10.38619,21.8827,10.42388Q21.7917,10.46157,21.6951,10.48078Q21.5985,10.5,21.5,10.5L2.5,10.5Q2.4015086,10.5,2.30491,10.48078Q2.208311,10.46157,2.117317,10.42388Q2.026322,10.38619,1.94443,10.33147Q1.862537,10.27675,1.7928929999999998,10.20711Q1.723249,10.13746,1.66853,10.05557Q1.613812,9.97368,1.576121,9.88268Q1.53843,9.79169,1.519215,9.69509Q1.5,9.59849,1.5,9.5ZM3.5,9.5L2.5,9.5L2.5,8.5L21.5,8.5L21.5,9.5L20.5,9.5L20.5,4.5L20.5,4.5L3.5,4.5L3.5,4.5L3.5,9.5Z" fill="currentColor" fill-stroke-opacity="1"/></g><g><path d="M7,6L7,2Q7,1.9015086,7.019215,1.80491Q7.03843,1.7083110000000001,7.076121,1.617317Q7.113812,1.526322,7.16853,1.44443Q7.223249,1.362537,7.292893,1.2928929999999998Q7.362537,1.223249,7.44443,1.16853Q7.526322,1.113812,7.617317,1.076121Q7.708311,1.03843,7.80491,1.019215Q7.9015086,1,8,1Q8.0984914,1,8.19509,1.019215Q8.291689,1.03843,8.382683,1.076121Q8.473678,1.113812,8.55557,1.16853Q8.637463,1.223249,8.707107,1.2928929999999998Q8.776751,1.362537,8.83147,1.44443Q8.886188,1.526322,8.923879,1.617317Q8.96157,1.7083110000000001,8.980785000000001,1.80491Q9,1.9015086,9,2L9,6Q9,6.09849,8.980785000000001,6.19509Q8.96157,6.29169,8.923879,6.38268Q8.886188,6.47368,8.83147,6.55557Q8.776751,6.63746,8.707107,6.70711Q8.637463,6.77675,8.55557,6.83147Q8.473678,6.88619,8.382683,6.92388Q8.291689,6.96157,8.19509,6.98078Q8.0984914,7,8,7Q7.9015086,7,7.80491,6.98078Q7.708311,6.96157,7.617317,6.92388Q7.526322,6.88619,7.44443,6.83147Q7.362537,6.77675,7.292893,6.70711Q7.223249,6.63746,7.16853,6.55557Q7.113812,6.47368,7.076121,6.38268Q7.03843,6.29169,7.019215,6.19509Q7,6.09849,7,6ZM9,6Q9,6.09849,8.980785000000001,6.19509Q8.96157,6.29169,8.923879,6.38268Q8.886188,6.47368,8.83147,6.55557Q8.776751,6.63746,8.707107,6.70711Q8.637463,6.77675,8.55557,6.83147Q8.473678,6.88619,8.382683,6.92388Q8.291689,6.96157,8.19509,6.98078Q8.0984914,7,8,7Q7.9015086,7,7.80491,6.98078Q7.708311,6.96157,7.617317,6.92388Q7.526322,6.88619,7.44443,6.83147Q7.362537,6.77675,7.292893,6.70711Q7.223249,6.63746,7.16853,6.55557Q7.113812,6.47368,7.076121,6.38268Q7.03843,6.29169,7.019215,6.19509Q7,6.09849,7,6Q7,5.90151,7.019215,5.80491Q7.03843,5.70831,7.076121,5.617319999999999Q7.113812,5.52632,7.16853,5.4444300000000005Q7.223249,5.36254,7.292893,5.29289Q7.362537,5.22325,7.44443,5.1685300000000005Q7.526322,5.11381,7.617317,5.0761199999999995Q7.708311,5.03843,7.80491,5.01921Q7.9015086,5,8,5Q8.0984914,5,8.19509,5.01921Q8.291689,5.03843,8.382683,5.0761199999999995Q8.473678,5.11381,8.55557,5.1685300000000005Q8.637463,5.22325,8.707107,5.29289Q8.776751,5.36254,8.83147,5.4444300000000005Q8.886188,5.52632,8.923879,5.617319999999999Q8.96157,5.70831,8.980785000000001,5.80491Q9,5.90151,9,6ZM9,2Q9,2.0984914,8.980785000000001,2.19509Q8.96157,2.291689,8.923879,2.382683Q8.886188,2.473678,8.83147,2.55557Q8.776751,2.637463,8.707107,2.707107Q8.637463,2.776751,8.55557,2.83147Q8.473678,2.8861879999999998,8.382683,2.923879Q8.291689,2.96157,8.19509,2.980785Q8.0984914,3,8,3Q7.9015086,3,7.80491,2.980785Q7.708311,2.96157,7.617317,2.923879Q7.526322,2.8861879999999998,7.44443,2.83147Q7.362537,2.776751,7.292893,2.707107Q7.223249,2.637463,7.16853,2.55557Q7.113812,2.473678,7.076121,2.382683Q7.03843,2.291689,7.019215,2.19509Q7,2.0984914,7,2Q7,1.9015086,7.019215,1.80491Q7.03843,1.7083110000000001,7.076121,1.617317Q7.113812,1.526322,7.16853,1.44443Q7.223249,1.362537,7.292893,1.2928929999999998Q7.362537,1.223249,7.44443,1.16853Q7.526322,1.113812,7.617317,1.076121Q7.708311,1.03843,7.80491,1.019215Q7.9015086,1,8,1Q8.0984914,1,8.19509,1.019215Q8.291689,1.03843,8.382683,1.076121Q8.473678,1.113812,8.55557,1.16853Q8.637463,1.223249,8.707107,1.2928929999999998Q8.776751,1.362537,8.83147,1.44443Q8.886188,1.526322,8.923879,1.617317Q8.96157,1.7083110000000001,8.980785000000001,1.80491Q9,1.9015086,9,2Z" fill="currentColor" fill-stroke-opacity="1"/></g><g><path d="M15,6L15,2Q15,1.9015086,15.019214999999999,1.80491Q15.03843,1.7083110000000001,15.076121,1.617317Q15.113812,1.526322,15.16853,1.44443Q15.223249,1.362537,15.292893,1.2928929999999998Q15.362537,1.223249,15.44443,1.16853Q15.526322,1.113812,15.617317,1.076121Q15.708311,1.03843,15.80491,1.019215Q15.9015086,1,16,1Q16.0984914,1,16.19509,1.019215Q16.291689,1.03843,16.382683,1.076121Q16.473678,1.113812,16.55557,1.16853Q16.637463,1.223249,16.707107,1.2928929999999998Q16.776751,1.362537,16.83147,1.44443Q16.886188,1.526322,16.923879,1.617317Q16.961570000000002,1.7083110000000001,16.980785,1.80491Q17,1.9015086,17,2L17,6Q17,6.09849,16.980785,6.19509Q16.961570000000002,6.29169,16.923879,6.38268Q16.886188,6.47368,16.83147,6.55557Q16.776751,6.63746,16.707107,6.70711Q16.637463,6.77675,16.55557,6.83147Q16.473678,6.88619,16.382683,6.92388Q16.291689,6.96157,16.19509,6.98078Q16.0984914,7,16,7Q15.9015086,7,15.80491,6.98078Q15.708311,6.96157,15.617317,6.92388Q15.526322,6.88619,15.44443,6.83147Q15.362537,6.77675,15.292893,6.70711Q15.223249,6.63746,15.16853,6.55557Q15.113812,6.47368,15.076121,6.38268Q15.03843,6.29169,15.019214999999999,6.19509Q15,6.09849,15,6ZM17,6Q17,6.09849,16.980785,6.19509Q16.961570000000002,6.29169,16.923879,6.38268Q16.886188,6.47368,16.83147,6.55557Q16.776751,6.63746,16.707107,6.70711Q16.637463,6.77675,16.55557,6.83147Q16.473678,6.88619,16.382683,6.92388Q16.291689,6.96157,16.19509,6.98078Q16.0984914,7,16,7Q15.9015086,7,15.80491,6.98078Q15.708311,6.96157,15.617317,6.92388Q15.526322,6.88619,15.44443,6.83147Q15.362537,6.77675,15.292893,6.70711Q15.223249,6.63746,15.16853,6.55557Q15.113812,6.47368,15.076121,6.38268Q15.03843,6.29169,15.019214999999999,6.19509Q15,6.09849,15,6Q15,5.90151,15.019214999999999,5.80491Q15.03843,5.70831,15.076121,5.617319999999999Q15.113812,5.52632,15.16853,5.4444300000000005Q15.223249,5.36254,15.292893,5.29289Q15.362537,5.22325,15.44443,5.1685300000000005Q15.526322,5.11381,15.617317,5.0761199999999995Q15.708311,5.03843,15.80491,5.01921Q15.9015086,5,16,5Q16.0984914,5,16.19509,5.01921Q16.291689,5.03843,16.382683,5.0761199999999995Q16.473678,5.11381,16.55557,5.1685300000000005Q16.637463,5.22325,16.707107,5.29289Q16.776751,5.36254,16.83147,5.4444300000000005Q16.886188,5.52632,16.923879,5.617319999999999Q16.961570000000002,5.70831,16.980785,5.80491Q17,5.90151,17,6ZM17,2Q17,2.0984914,16.980785,2.19509Q16.961570000000002,2.291689,16.923879,2.382683Q16.886188,2.473678,16.83147,2.55557Q16.776751,2.637463,16.707107,2.707107Q16.637463,2.776751,16.55557,2.83147Q16.473678,2.8861879999999998,16.382683,2.923879Q16.291689,2.96157,16.19509,2.980785Q16.0984914,3,16,3Q15.9015086,3,15.80491,2.980785Q15.708311,2.96157,15.617317,2.923879Q15.526322,2.8861879999999998,15.44443,2.83147Q15.362537,2.776751,15.292893,2.707107Q15.223249,2.637463,15.16853,2.55557Q15.113812,2.473678,15.076121,2.382683Q15.03843,2.291689,15.019214999999999,2.19509Q15,2.0984914,15,2Q15,1.9015086,15.019214999999999,1.80491Q15.03843,1.7083110000000001,15.076121,1.617317Q15.113812,1.526322,15.16853,1.44443Q15.223249,1.362537,15.292893,1.2928929999999998Q15.362537,1.223249,15.44443,1.16853Q15.526322,1.113812,15.617317,1.076121Q15.708311,1.03843,15.80491,1.019215Q15.9015086,1,16,1Q16.0984914,1,16.19509,1.019215Q16.291689,1.03843,16.382683,1.076121Q16.473678,1.113812,16.55557,1.16853Q16.637463,1.223249,16.707107,1.2928929999999998Q16.776751,1.362537,16.83147,1.44443Q16.886188,1.526322,16.923879,1.617317Q16.961570000000002,1.7083110000000001,16.980785,1.80491Q17,1.9015086,17,2Z" fill="currentColor" fill-stroke-opacity="1"/></g><g><path d="M17,18L14,18Q13.9015086,18,13.80491,17.980785Q13.708311,17.961570000000002,13.617317,17.923879Q13.526322,17.886188,13.44443,17.83147Q13.362537,17.776751,13.292893,17.707107Q13.223249,17.637463,13.16853,17.55557Q13.113812,17.473678,13.076121,17.382683Q13.03843,17.291689,13.019214999999999,17.19509Q13,17.0984914,13,17Q13,16.9015086,13.019214999999999,16.80491Q13.03843,16.708311,13.076121,16.617317Q13.113812,16.526322,13.16853,16.44443Q13.223249,16.362537,13.292893,16.292893Q13.362537,16.223249,13.44443,16.16853Q13.526322,16.113812,13.617317,16.076121Q13.708311,16.038429999999998,13.80491,16.019215Q13.9015086,16,14,16L17,16Q17.098489999999998,16,17.19509,16.019215Q17.29169,16.038429999999998,17.38268,16.076121Q17.47368,16.113812,17.55557,16.16853Q17.63746,16.223249,17.70711,16.292893Q17.77675,16.362537,17.83147,16.44443Q17.88619,16.526322,17.92388,16.617317Q17.961570000000002,16.708311,17.98078,16.80491Q18,16.9015086,18,17Q18,17.0984914,17.98078,17.19509Q17.961570000000002,17.291689,17.92388,17.382683Q17.88619,17.473678,17.83147,17.55557Q17.77675,17.637463,17.70711,17.707107Q17.63746,17.776751,17.55557,17.83147Q17.47368,17.886188,17.38268,17.923879Q17.29169,17.961570000000002,17.19509,17.980785Q17.098489999999998,18,17,18ZM18,17Q18,17.0984914,17.98078,17.19509Q17.961570000000002,17.291689,17.92388,17.382683Q17.88619,17.473678,17.83147,17.55557Q17.77675,17.637463,17.70711,17.707107Q17.63746,17.776751,17.55557,17.83147Q17.47368,17.886188,17.38268,17.923879Q17.29169,17.961570000000002,17.19509,17.980785Q17.098489999999998,18,17,18Q16.901510000000002,18,16.80491,17.980785Q16.70831,17.961570000000002,16.61732,17.923879Q16.52632,17.886188,16.44443,17.83147Q16.36254,17.776751,16.29289,17.707107Q16.22325,17.637463,16.16853,17.55557Q16.11381,17.473678,16.07612,17.382683Q16.038429999999998,17.291689,16.01921,17.19509Q16,17.0984914,16,17Q16,16.9015086,16.01921,16.80491Q16.038429999999998,16.708311,16.07612,16.617317Q16.11381,16.526322,16.16853,16.44443Q16.22325,16.362537,16.29289,16.292893Q16.36254,16.223249,16.44443,16.16853Q16.52632,16.113812,16.61732,16.076121Q16.70831,16.038429999999998,16.80491,16.019215Q16.901510000000002,16,17,16Q17.098489999999998,16,17.19509,16.019215Q17.29169,16.038429999999998,17.38268,16.076121Q17.47368,16.113812,17.55557,16.16853Q17.63746,16.223249,17.70711,16.292893Q17.77675,16.362537,17.83147,16.44443Q17.88619,16.526322,17.92388,16.617317Q17.961570000000002,16.708311,17.98078,16.80491Q18,16.9015086,18,17ZM15,17Q15,17.0984914,14.980785000000001,17.19509Q14.96157,17.291689,14.923879,17.382683Q14.886188,17.473678,14.83147,17.55557Q14.776751,17.637463,14.707107,17.707107Q14.637463,17.776751,14.55557,17.83147Q14.473678,17.886188,14.382683,17.923879Q14.291689,17.961570000000002,14.19509,17.980785Q14.0984914,18,14,18Q13.9015086,18,13.80491,17.980785Q13.708311,17.961570000000002,13.617317,17.923879Q13.526322,17.886188,13.44443,17.83147Q13.362537,17.776751,13.292893,17.707107Q13.223249,17.637463,13.16853,17.55557Q13.113812,17.473678,13.076121,17.382683Q13.03843,17.291689,13.019214999999999,17.19509Q13,17.0984914,13,17Q13,16.9015086,13.019214999999999,16.80491Q13.03843,16.708311,13.076121,16.617317Q13.113812,16.526322,13.16853,16.44443Q13.223249,16.362537,13.292893,16.292893Q13.362537,16.223249,13.44443,16.16853Q13.526322,16.113812,13.617317,16.076121Q13.708311,16.038429999999998,13.80491,16.019215Q13.9015086,16,14,16Q14.0984914,16,14.19509,16.019215Q14.291689,16.038429999999998,14.382683,16.076121Q14.473678,16.113812,14.55557,16.16853Q14.637463,16.223249,14.707107,16.292893Q14.776751,16.362537,14.83147,16.44443Q14.886188,16.526322,14.923879,16.617317Q14.96157,16.708311,14.980785000000001,16.80491Q15,16.9015086,15,17Z" fill="currentColor" fill-stroke-opacity="1"/></g><g><path d="M10,18L7,18Q6.9015086,18,6.80491,17.980785Q6.708311,17.961570000000002,6.617317,17.923879Q6.526322,17.886188,6.44443,17.83147Q6.362537,17.776751,6.292893,17.707107Q6.223249,17.637463,6.16853,17.55557Q6.113812,17.473678,6.076121,17.382683Q6.03843,17.291689,6.019215,17.19509Q6,17.0984914,6,17Q6,16.9015086,6.019215,16.80491Q6.03843,16.708311,6.076121,16.617317Q6.113812,16.526322,6.16853,16.44443Q6.223249,16.362537,6.292893,16.292893Q6.362537,16.223249,6.44443,16.16853Q6.526322,16.113812,6.617317,16.076121Q6.708311,16.038429999999998,6.80491,16.019215Q6.9015086,16,7,16L10,16Q10.09849,16,10.19509,16.019215Q10.29169,16.038429999999998,10.38268,16.076121Q10.47368,16.113812,10.55557,16.16853Q10.63746,16.223249,10.70711,16.292893Q10.77675,16.362537,10.83147,16.44443Q10.88619,16.526322,10.92388,16.617317Q10.96157,16.708311,10.98078,16.80491Q11,16.9015086,11,17Q11,17.0984914,10.98078,17.19509Q10.96157,17.291689,10.92388,17.382683Q10.88619,17.473678,10.83147,17.55557Q10.77675,17.637463,10.70711,17.707107Q10.63746,17.776751,10.55557,17.83147Q10.47368,17.886188,10.38268,17.923879Q10.29169,17.961570000000002,10.19509,17.980785Q10.09849,18,10,18ZM11,17Q11,17.0984914,10.98078,17.19509Q10.96157,17.291689,10.92388,17.382683Q10.88619,17.473678,10.83147,17.55557Q10.77675,17.637463,10.70711,17.707107Q10.63746,17.776751,10.55557,17.83147Q10.47368,17.886188,10.38268,17.923879Q10.29169,17.961570000000002,10.19509,17.980785Q10.09849,18,10,18Q9.90151,18,9.80491,17.980785Q9.70831,17.961570000000002,9.61732,17.923879Q9.52632,17.886188,9.44443,17.83147Q9.36254,17.776751,9.29289,17.707107Q9.22325,17.637463,9.16853,17.55557Q9.11381,17.473678,9.07612,17.382683Q9.03843,17.291689,9.019210000000001,17.19509Q9,17.0984914,9,17Q9,16.9015086,9.019210000000001,16.80491Q9.03843,16.708311,9.07612,16.617317Q9.11381,16.526322,9.16853,16.44443Q9.22325,16.362537,9.29289,16.292893Q9.36254,16.223249,9.44443,16.16853Q9.52632,16.113812,9.61732,16.076121Q9.70831,16.038429999999998,9.80491,16.019215Q9.90151,16,10,16Q10.09849,16,10.19509,16.019215Q10.29169,16.038429999999998,10.38268,16.076121Q10.47368,16.113812,10.55557,16.16853Q10.63746,16.223249,10.70711,16.292893Q10.77675,16.362537,10.83147,16.44443Q10.88619,16.526322,10.92388,16.617317Q10.96157,16.708311,10.98078,16.80491Q11,16.9015086,11,17ZM8,17Q8,17.0984914,7.980785,17.19509Q7.96157,17.291689,7.923879,17.382683Q7.886188,17.473678,7.83147,17.55557Q7.776751,17.637463,7.707107,17.707107Q7.637463,17.776751,7.55557,17.83147Q7.473678,17.886188,7.382683,17.923879Q7.291689,17.961570000000002,7.19509,17.980785Q7.0984914,18,7,18Q6.9015086,18,6.80491,17.980785Q6.708311,17.961570000000002,6.617317,17.923879Q6.526322,17.886188,6.44443,17.83147Q6.362537,17.776751,6.292893,17.707107Q6.223249,17.637463,6.16853,17.55557Q6.113812,17.473678,6.076121,17.382683Q6.03843,17.291689,6.019215,17.19509Q6,17.0984914,6,17Q6,16.9015086,6.019215,16.80491Q6.03843,16.708311,6.076121,16.617317Q6.113812,16.526322,6.16853,16.44443Q6.223249,16.362537,6.292893,16.292893Q6.362537,16.223249,6.44443,16.16853Q6.526322,16.113812,6.617317,16.076121Q6.708311,16.038429999999998,6.80491,16.019215Q6.9015086,16,7,16Q7.0984914,16,7.19509,16.019215Q7.291689,16.038429999999998,7.382683,16.076121Q7.473678,16.113812,7.55557,16.16853Q7.637463,16.223249,7.707107,16.292893Q7.776751,16.362537,7.83147,16.44443Q7.886188,16.526322,7.923879,16.617317Q7.96157,16.708311,7.980785,16.80491Q8,16.9015086,8,17Z" fill="currentColor" fill-stroke-opacity="1"/></g><g><path d="M17,14L14,14Q13.9015086,14,13.80491,13.980785000000001Q13.708311,13.96157,13.617317,13.923879Q13.526322,13.886188,13.44443,13.83147Q13.362537,13.776751,13.292893,13.707107Q13.223249,13.637463,13.16853,13.55557Q13.113812,13.473678,13.076121,13.382683Q13.03843,13.291689,13.019214999999999,13.19509Q13,13.0984914,13,13Q13,12.9015086,13.019214999999999,12.80491Q13.03843,12.708311,13.076121,12.617317Q13.113812,12.526322,13.16853,12.44443Q13.223249,12.362537,13.292893,12.292893Q13.362537,12.223249,13.44443,12.16853Q13.526322,12.113812,13.617317,12.076121Q13.708311,12.03843,13.80491,12.019214999999999Q13.9015086,12,14,12L17,12Q17.098489999999998,12,17.19509,12.019214999999999Q17.29169,12.03843,17.38268,12.076121Q17.47368,12.113812,17.55557,12.16853Q17.63746,12.223249,17.70711,12.292893Q17.77675,12.362537,17.83147,12.44443Q17.88619,12.526322,17.92388,12.617317Q17.961570000000002,12.708311,17.98078,12.80491Q18,12.9015086,18,13Q18,13.0984914,17.98078,13.19509Q17.961570000000002,13.291689,17.92388,13.382683Q17.88619,13.473678,17.83147,13.55557Q17.77675,13.637463,17.70711,13.707107Q17.63746,13.776751,17.55557,13.83147Q17.47368,13.886188,17.38268,13.923879Q17.29169,13.96157,17.19509,13.980785000000001Q17.098489999999998,14,17,14ZM18,13Q18,13.0984914,17.98078,13.19509Q17.961570000000002,13.291689,17.92388,13.382683Q17.88619,13.473678,17.83147,13.55557Q17.77675,13.637463,17.70711,13.707107Q17.63746,13.776751,17.55557,13.83147Q17.47368,13.886188,17.38268,13.923879Q17.29169,13.96157,17.19509,13.980785000000001Q17.098489999999998,14,17,14Q16.901510000000002,14,16.80491,13.980785000000001Q16.70831,13.96157,16.61732,13.923879Q16.52632,13.886188,16.44443,13.83147Q16.36254,13.776751,16.29289,13.707107Q16.22325,13.637463,16.16853,13.55557Q16.11381,13.473678,16.07612,13.382683Q16.038429999999998,13.291689,16.01921,13.19509Q16,13.0984914,16,13Q16,12.9015086,16.01921,12.80491Q16.038429999999998,12.708311,16.07612,12.617317Q16.11381,12.526322,16.16853,12.44443Q16.22325,12.362537,16.29289,12.292893Q16.36254,12.223249,16.44443,12.16853Q16.52632,12.113812,16.61732,12.076121Q16.70831,12.03843,16.80491,12.019214999999999Q16.901510000000002,12,17,12Q17.098489999999998,12,17.19509,12.019214999999999Q17.29169,12.03843,17.38268,12.076121Q17.47368,12.113812,17.55557,12.16853Q17.63746,12.223249,17.70711,12.292893Q17.77675,12.362537,17.83147,12.44443Q17.88619,12.526322,17.92388,12.617317Q17.961570000000002,12.708311,17.98078,12.80491Q18,12.9015086,18,13ZM15,13Q15,13.0984914,14.980785000000001,13.19509Q14.96157,13.291689,14.923879,13.382683Q14.886188,13.473678,14.83147,13.55557Q14.776751,13.637463,14.707107,13.707107Q14.637463,13.776751,14.55557,13.83147Q14.473678,13.886188,14.382683,13.923879Q14.291689,13.96157,14.19509,13.980785000000001Q14.0984914,14,14,14Q13.9015086,14,13.80491,13.980785000000001Q13.708311,13.96157,13.617317,13.923879Q13.526322,13.886188,13.44443,13.83147Q13.362537,13.776751,13.292893,13.707107Q13.223249,13.637463,13.16853,13.55557Q13.113812,13.473678,13.076121,13.382683Q13.03843,13.291689,13.019214999999999,13.19509Q13,13.0984914,13,13Q13,12.9015086,13.019214999999999,12.80491Q13.03843,12.708311,13.076121,12.617317Q13.113812,12.526322,13.16853,12.44443Q13.223249,12.362537,13.292893,12.292893Q13.362537,12.223249,13.44443,12.16853Q13.526322,12.113812,13.617317,12.076121Q13.708311,12.03843,13.80491,12.019214999999999Q13.9015086,12,14,12Q14.0984914,12,14.19509,12.019214999999999Q14.291689,12.03843,14.382683,12.076121Q14.473678,12.113812,14.55557,12.16853Q14.637463,12.223249,14.707107,12.292893Q14.776751,12.362537,14.83147,12.44443Q14.886188,12.526322,14.923879,12.617317Q14.96157,12.708311,14.980785000000001,12.80491Q15,12.9015086,15,13Z" fill="currentColor" fill-stroke-opacity="1"/></g><g><path d="M10,14L7,14Q6.9015086,14,6.80491,13.980785000000001Q6.708311,13.96157,6.617317,13.923879Q6.526322,13.886188,6.44443,13.83147Q6.362537,13.776751,6.292893,13.707107Q6.223249,13.637463,6.16853,13.55557Q6.113812,13.473678,6.076121,13.382683Q6.03843,13.291689,6.019215,13.19509Q6,13.0984914,6,13Q6,12.9015086,6.019215,12.80491Q6.03843,12.708311,6.076121,12.617317Q6.113812,12.526322,6.16853,12.44443Q6.223249,12.362537,6.292893,12.292893Q6.362537,12.223249,6.44443,12.16853Q6.526322,12.113812,6.617317,12.076121Q6.708311,12.03843,6.80491,12.019214999999999Q6.9015086,12,7,12L10,12Q10.09849,12,10.19509,12.019214999999999Q10.29169,12.03843,10.38268,12.076121Q10.47368,12.113812,10.55557,12.16853Q10.63746,12.223249,10.70711,12.292893Q10.77675,12.362537,10.83147,12.44443Q10.88619,12.526322,10.92388,12.617317Q10.96157,12.708311,10.98078,12.80491Q11,12.9015086,11,13Q11,13.0984914,10.98078,13.19509Q10.96157,13.291689,10.92388,13.382683Q10.88619,13.473678,10.83147,13.55557Q10.77675,13.637463,10.70711,13.707107Q10.63746,13.776751,10.55557,13.83147Q10.47368,13.886188,10.38268,13.923879Q10.29169,13.96157,10.19509,13.980785000000001Q10.09849,14,10,14ZM11,13Q11,13.0984914,10.98078,13.19509Q10.96157,13.291689,10.92388,13.382683Q10.88619,13.473678,10.83147,13.55557Q10.77675,13.637463,10.70711,13.707107Q10.63746,13.776751,10.55557,13.83147Q10.47368,13.886188,10.38268,13.923879Q10.29169,13.96157,10.19509,13.980785000000001Q10.09849,14,10,14Q9.90151,14,9.80491,13.980785000000001Q9.70831,13.96157,9.61732,13.923879Q9.52632,13.886188,9.44443,13.83147Q9.36254,13.776751,9.29289,13.707107Q9.22325,13.637463,9.16853,13.55557Q9.11381,13.473678,9.07612,13.382683Q9.03843,13.291689,9.019210000000001,13.19509Q9,13.0984914,9,13Q9,12.9015086,9.019210000000001,12.80491Q9.03843,12.708311,9.07612,12.617317Q9.11381,12.526322,9.16853,12.44443Q9.22325,12.362537,9.29289,12.292893Q9.36254,12.223249,9.44443,12.16853Q9.52632,12.113812,9.61732,12.076121Q9.70831,12.03843,9.80491,12.019214999999999Q9.90151,12,10,12Q10.09849,12,10.19509,12.019214999999999Q10.29169,12.03843,10.38268,12.076121Q10.47368,12.113812,10.55557,12.16853Q10.63746,12.223249,10.70711,12.292893Q10.77675,12.362537,10.83147,12.44443Q10.88619,12.526322,10.92388,12.617317Q10.96157,12.708311,10.98078,12.80491Q11,12.9015086,11,13ZM8,13Q8,13.0984914,7.980785,13.19509Q7.96157,13.291689,7.923879,13.382683Q7.886188,13.473678,7.83147,13.55557Q7.776751,13.637463,7.707107,13.707107Q7.637463,13.776751,7.55557,13.83147Q7.473678,13.886188,7.382683,13.923879Q7.291689,13.96157,7.19509,13.980785000000001Q7.0984914,14,7,14Q6.9015086,14,6.80491,13.980785000000001Q6.708311,13.96157,6.617317,13.923879Q6.526322,13.886188,6.44443,13.83147Q6.362537,13.776751,6.292893,13.707107Q6.223249,13.637463,6.16853,13.55557Q6.113812,13.473678,6.076121,13.382683Q6.03843,13.291689,6.019215,13.19509Q6,13.0984914,6,13Q6,12.9015086,6.019215,12.80491Q6.03843,12.708311,6.076121,12.617317Q6.113812,12.526322,6.16853,12.44443Q6.223249,12.362537,6.292893,12.292893Q6.362537,12.223249,6.44443,12.16853Q6.526322,12.113812,6.617317,12.076121Q6.708311,12.03843,6.80491,12.019214999999999Q6.9015086,12,7,12Q7.0984914,12,7.19509,12.019214999999999Q7.291689,12.03843,7.382683,12.076121Q7.473678,12.113812,7.55557,12.16853Q7.637463,12.223249,7.707107,12.292893Q7.776751,12.362537,7.83147,12.44443Q7.886188,12.526322,7.923879,12.617317Q7.96157,12.708311,7.980785,12.80491Q8,12.9015086,8,13Z" fill="currentColor" fill-stroke-opacity="1"/></g></g></svg>