<svg viewBox="0 0 24 24" fill="none" xmlns="http://www.w3.org/2000/svg"><defs><clipPath id="a"><rect rx="0" height="24" width="24"/></clipPath></defs><g clip-path="url(#a)"><path fill="#333" d="M12.106 2.808 2.914 12l9.192 9.192L21.3 12l-9.193-9.192Zm1.415-1.415 9.192 9.193q.586.586.586 1.414t-.586 1.414l-9.192 9.193q-.586.585-1.415.585-.828 0-1.414-.585L1.5 13.414Q.914 12.828.914 12t.586-1.414l9.192-9.193q.586-.585 1.414-.585.829 0 1.415.585Z" data-follow-fill="#333"/><path fill="#333" d="M11.271 16.239V7.767q0-.074.015-.146.014-.073.043-.14.028-.07.069-.13.04-.062.093-.114.052-.052.114-.094.061-.04.13-.069.068-.028.14-.042.073-.015.146-.015.074 0 .147.015.072.014.14.042.069.028.13.07.062.04.114.093.052.052.093.113.041.062.07.13.028.068.042.14.014.073.014.147v8.472q0 .074-.014.146-.014.073-.043.14-.028.07-.069.13-.041.062-.093.114-.052.052-.114.093-.061.042-.13.07-.068.028-.14.042-.073.015-.147.015-.073 0-.146-.015-.072-.014-.14-.042-.069-.028-.13-.07-.062-.04-.114-.093-.052-.052-.093-.113-.041-.062-.07-.13-.028-.068-.042-.14-.015-.073-.015-.147Zm1.5 0q0 .074-.014.146-.014.073-.043.14-.028.07-.069.13-.041.062-.093.114-.052.052-.114.093-.061.042-.13.07-.068.028-.14.042-.073.015-.147.015-.073 0-.146-.015-.072-.014-.14-.042-.069-.028-.13-.07-.062-.04-.114-.093-.052-.052-.093-.113-.041-.062-.07-.13-.028-.068-.042-.14-.015-.073-.015-.147t.015-.146q.014-.073.043-.141.028-.068.069-.13.04-.061.093-.113.052-.053.114-.094.061-.04.13-.069.068-.028.14-.043.073-.014.146-.014.074 0 .147.014.072.015.14.043.069.028.13.07.062.04.114.093.052.052.093.113.041.062.07.13.028.068.042.14.014.073.014.147Zm0-8.472q0 .074-.014.146-.014.073-.043.141-.028.068-.069.13-.041.061-.093.113-.052.053-.114.094-.061.04-.13.069-.068.028-.14.043-.073.014-.147.014-.073 0-.146-.014-.072-.015-.14-.043-.069-.028-.13-.07-.062-.04-.114-.093-.052-.052-.093-.113-.041-.062-.07-.13-.028-.068-.042-.14-.015-.073-.015-.147t.015-.146q.014-.073.043-.14.028-.07.069-.13.04-.062.093-.114.052-.052.114-.094.061-.04.13-.069.068-.028.14-.042.073-.015.146-.015.074 0 .147.015.072.014.14.042.069.028.13.07.062.04.114.093.052.052.093.113.041.062.07.13.028.068.042.14.014.073.014.147Z" data-follow-fill="#333"/><path fill="#333" d="M16.257 12.753H7.786q-.074 0-.147-.014-.072-.015-.14-.043-.069-.028-.13-.07-.061-.04-.114-.093-.052-.052-.093-.113-.041-.062-.07-.13-.028-.068-.042-.14-.014-.073-.014-.147t.014-.146q.014-.073.043-.141.028-.068.069-.13.041-.061.093-.113.053-.053.114-.094.061-.04.13-.069.068-.028.14-.043.073-.014.147-.014h8.471q.074 0 .147.014.072.015.14.043.069.028.13.07.062.04.114.093.052.052.093.113.041.062.07.13.028.068.042.14.014.073.014.147t-.014.146q-.014.073-.043.141-.028.068-.069.13-.041.061-.093.113-.052.053-.114.094-.061.04-.13.069-.068.028-.14.043-.073.014-.147.014Zm.75-.75q0 .074-.014.146-.014.073-.043.141-.028.068-.069.13-.041.061-.093.113-.052.053-.114.094-.061.04-.13.069-.068.028-.14.043-.073.014-.147.014-.073 0-.146-.014-.072-.015-.14-.043-.069-.028-.13-.07-.062-.04-.114-.093-.052-.052-.093-.113-.041-.062-.07-.13-.028-.068-.042-.14-.015-.073-.015-.147t.015-.146q.014-.073.043-.141.028-.068.069-.13.04-.061.093-.113.052-.053.114-.094.061-.04.13-.069.068-.028.14-.043.073-.014.146-.014.074 0 .147.014.072.015.14.043.069.028.13.07.062.04.114.093.052.052.093.113.041.062.07.13.028.068.042.14.014.073.014.147Zm-8.471 0q0 .074-.015.146-.014.073-.042.141-.029.068-.07.13-.04.061-.093.113-.052.053-.114.094-.061.04-.13.069-.068.028-.14.043-.072.014-.146.014t-.147-.014q-.072-.015-.14-.043-.069-.028-.13-.07-.061-.04-.114-.093-.052-.052-.093-.113-.041-.062-.07-.13-.028-.068-.042-.14-.014-.073-.014-.147t.014-.146q.014-.073.043-.141.028-.068.069-.13.041-.061.093-.113.053-.053.114-.094.061-.04.13-.069.068-.028.14-.043.073-.014.147-.014t.146.014q.072.015.14.043.069.028.13.07.062.04.114.093.052.052.093.113.041.062.07.13.028.068.042.14.015.073.015.147Z" data-follow-fill="#333"/><path fill="#333" d="m8.496 14.468 5.99-5.99q.053-.053.114-.094.062-.041.13-.07.068-.028.14-.042.073-.014.147-.014t.146.014q.073.014.14.043.07.028.13.07.062.04.114.092.052.053.093.114.041.061.07.13.028.068.042.14.015.073.015.147t-.015.146q-.014.072-.042.14-.029.069-.07.13-.04.062-.093.114l-5.99 5.99q-.053.053-.114.094-.061.04-.13.07-.068.027-.14.042-.073.014-.147.014-.073 0-.146-.014-.072-.015-.14-.043-.069-.028-.13-.07-.062-.04-.114-.093-.052-.052-.093-.113-.041-.062-.07-.13-.028-.068-.042-.14-.015-.073-.015-.147t.015-.146q.014-.073.042-.14.029-.07.07-.13.04-.062.093-.114Zm1.28.53q0 .074-.014.146-.014.073-.043.141-.028.068-.069.13-.041.061-.093.113-.053.053-.114.094-.061.04-.13.07-.068.027-.14.042-.073.014-.147.014t-.146-.014q-.072-.015-.14-.043-.069-.028-.13-.07-.062-.04-.114-.093-.052-.052-.093-.113-.041-.062-.07-.13-.028-.068-.042-.14-.015-.073-.015-.147t.015-.146q.014-.073.042-.14.029-.07.07-.13.04-.062.093-.114.052-.052.114-.093.061-.041.13-.07.068-.028.14-.042.072-.015.146-.015t.147.015q.072.014.14.042.069.029.13.07.061.04.114.093.052.052.093.113.041.062.07.13.028.068.042.14.014.073.014.147Zm5.99-5.99q0 .074-.014.146t-.042.14q-.029.069-.07.13-.04.062-.093.114-.052.052-.114.093-.06.041-.13.07-.067.028-.14.042-.072.015-.146.015t-.147-.015q-.072-.014-.14-.042-.068-.029-.13-.07-.061-.04-.114-.093-.052-.052-.093-.114-.04-.061-.07-.13-.027-.068-.042-.14-.014-.072-.014-.146t.014-.147q.015-.072.043-.14.028-.069.07-.13.04-.061.092-.114.053-.052.114-.093.062-.041.13-.07.068-.028.14-.042.073-.014.147-.014t.146.014q.073.014.14.043.07.028.13.07.062.04.114.092.052.053.093.114.041.061.07.13.028.068.042.14.015.073.015.147Z" data-follow-fill="#333"/><path fill="#333" d="m14.487 15.528-5.991-5.99q-.052-.052-.093-.114-.041-.061-.07-.13-.028-.068-.042-.14-.015-.072-.015-.146t.015-.147q.014-.072.042-.14.029-.069.07-.13.04-.061.093-.114.052-.052.114-.093.061-.041.13-.07.068-.028.14-.042.072-.014.146-.014t.147.014q.072.014.14.043.069.028.13.07.061.04.114.092l5.99 5.99q.052.053.093.114.042.062.07.13.028.068.042.14.015.073.015.147t-.015.146q-.014.073-.042.141-.028.068-.07.13-.04.061-.093.113-.052.053-.113.094-.062.04-.13.069-.068.028-.14.043-.073.014-.147.014t-.146-.014q-.073-.015-.141-.043-.068-.028-.13-.07-.061-.04-.113-.093Zm1.28-.53q0 .074-.015.146-.014.073-.042.141-.028.068-.07.13-.04.061-.093.113-.052.053-.113.094-.062.04-.13.069-.068.028-.14.043-.073.014-.147.014t-.146-.014q-.073-.015-.141-.043-.068-.028-.13-.07-.061-.04-.113-.093-.053-.052-.094-.113-.04-.062-.069-.13-.028-.068-.043-.14-.014-.073-.014-.147t.014-.146q.015-.073.043-.14.028-.07.07-.13.04-.062.093-.114.052-.052.113-.093.062-.042.13-.07.068-.028.14-.042.073-.015.147-.015t.146.015q.073.014.14.042.07.028.13.07.062.04.114.093.052.052.093.113.042.062.07.13.028.068.042.14.015.073.015.147Zm-5.99-5.99q0 .074-.015.146-.014.072-.043.14-.028.069-.069.13-.041.062-.093.114-.053.052-.114.093-.061.041-.13.07-.068.028-.14.042-.073.015-.147.015t-.146-.015q-.072-.014-.14-.042-.069-.029-.13-.07-.062-.04-.114-.093-.052-.052-.093-.114-.041-.061-.07-.13-.028-.068-.042-.14-.015-.072-.015-.146t.015-.147q.014-.072.042-.14.029-.069.07-.13.04-.061.093-.114.052-.052.114-.093.061-.041.13-.07.068-.028.14-.042.072-.014.146-.014t.147.014q.072.014.14.043.069.028.13.07.061.04.114.092.052.053.093.114.041.061.07.13.028.068.042.14.014.073.014.147Z" data-follow-fill="#333"/></g></svg>