<svg xmlns="http://www.w3.org/2000/svg" xmlns:xlink="http://www.w3.org/1999/xlink" fill="none" version="1.1" width="18.719999313354492" height="18.719999313354492" viewBox="0 0 18.719999313354492 18.719999313354492"><defs><clipPath id="master_svg0_355_89730"><rect x="0" y="0" width="18.719999313354492" height="18.719999313354492" rx="0"/></clipPath></defs><g clip-path="url(#master_svg0_355_89730)"><g><path d="M1.55984375,7.0199658203125L1.55984375,2.3399658203125Q1.55984375,2.2631425203125,1.57483175,2.1877958203125Q1.58981875,2.1124478203125,1.61921775,2.0414728203125Q1.64861675,1.9704978203125,1.69129775,1.9066208203125Q1.73397875,1.8427448203124999,1.7883007499999999,1.7884228203124999Q1.8426227499999999,1.7341008203125,1.90649875,1.6914198203125Q1.97037575,1.6487388203125,2.04135075,1.6193398203125Q2.11232575,1.5899408203125,2.18767375,1.5749538203125Q2.26302045,1.5599658203125,2.33984375,1.5599658203125L7.01984375,1.5599658203125Q7.09666375,1.5599658203125,7.17201375,1.5749538203125Q7.24736375,1.5899408203125,7.31833375,1.6193398203125Q7.38931375,1.6487388203125,7.45318375,1.6914198203125Q7.51706375,1.7341008203125,7.57138375,1.7884228203124999Q7.62570375,1.8427448203124999,7.66839375,1.9066208203125Q7.71107375,1.9704978203125,7.74047375,2.0414728203125Q7.76986375,2.1124478203125,7.78485375,2.1877958203125Q7.79984375,2.2631425203125,7.79984375,2.3399658203125L7.79984375,7.0199658203125Q7.79984375,7.0967858203125,7.78485375,7.1721358203125Q7.76986375,7.2474858203125,7.74047375,7.3184558203125Q7.71107375,7.3894358203125,7.66839375,7.4533058203125Q7.62570375,7.5171858203125,7.57138375,7.5715058203125Q7.51706375,7.6258258203125,7.45318375,7.6685158203125Q7.38931375,7.7111958203125,7.31833375,7.7405958203125Q7.24736375,7.7699858203125,7.17201375,7.7849758203125Q7.09666375,7.7999658203125,7.01984375,7.7999658203125L2.33984375,7.7999658203125Q2.26302045,7.7999658203125,2.18767375,7.7849758203125Q2.11232575,7.7699858203125,2.04135075,7.7405958203125Q1.97037575,7.7111958203125,1.90649875,7.6685158203125Q1.8426227499999999,7.6258258203125,1.7883007499999999,7.5715058203125Q1.73397875,7.5171858203125,1.69129775,7.4533058203125Q1.64861675,7.3894358203125,1.61921775,7.3184558203125Q1.58981875,7.2474858203125,1.57483175,7.1721358203125Q1.55984375,7.0967858203125,1.55984375,7.0199658203125ZM6.23984375,3.1199658203125002L3.1198437500000002,3.1199658203125002L3.1198437500000002,6.2399658203125L6.23984375,6.2399658203125L6.23984375,3.1199658203125002Z" fill-rule="evenodd" fill="#000000" fill-opacity="0.6000000238418579"/></g><g><path d="M1.55984375,16.38001220703125L1.55984375,11.70001220703125Q1.55984375,11.62318890703125,1.57483175,11.54784220703125Q1.58981875,11.47249420703125,1.61921775,11.40151920703125Q1.64861675,11.33054420703125,1.69129775,11.26666720703125Q1.73397875,11.20279120703125,1.7883007499999999,11.14846920703125Q1.8426227499999999,11.09414720703125,1.90649875,11.05146620703125Q1.97037575,11.00878520703125,2.04135075,10.97938620703125Q2.11232575,10.94998720703125,2.18767375,10.93500020703125Q2.26302045,10.92001220703125,2.33984375,10.92001220703125L7.01984375,10.92001220703125Q7.09666375,10.92001220703125,7.17201375,10.93500020703125Q7.24736375,10.94998720703125,7.31833375,10.97938620703125Q7.38931375,11.00878520703125,7.45318375,11.05146620703125Q7.51706375,11.09414720703125,7.57138375,11.14846920703125Q7.62570375,11.20279120703125,7.66839375,11.26666720703125Q7.71107375,11.33054420703125,7.74047375,11.40151920703125Q7.76986375,11.47249420703125,7.78485375,11.54784220703125Q7.79984375,11.62318890703125,7.79984375,11.70001220703125L7.79984375,16.38001220703125Q7.79984375,16.45683220703125,7.78485375,16.532182207031248Q7.76986375,16.607532207031248,7.74047375,16.67850220703125Q7.71107375,16.74948220703125,7.66839375,16.81335220703125Q7.62570375,16.87723220703125,7.57138375,16.93155220703125Q7.51706375,16.98587220703125,7.45318375,17.02856220703125Q7.38931375,17.07124220703125,7.31833375,17.10064220703125Q7.24736375,17.13003220703125,7.17201375,17.14502220703125Q7.09666375,17.16001220703125,7.01984375,17.16001220703125L2.33984375,17.16001220703125Q2.26302045,17.16001220703125,2.18767375,17.14502220703125Q2.11232575,17.13003220703125,2.04135075,17.10064220703125Q1.97037575,17.07124220703125,1.90649875,17.02856220703125Q1.8426227499999999,16.98587220703125,1.7883007499999999,16.93155220703125Q1.73397875,16.87723220703125,1.69129775,16.81335220703125Q1.64861675,16.74948220703125,1.61921775,16.67850220703125Q1.58981875,16.607532207031248,1.57483175,16.532182207031248Q1.55984375,16.45683220703125,1.55984375,16.38001220703125ZM6.23984375,12.48001220703125L3.1198437500000002,12.48001220703125L3.1198437500000002,15.60001220703125L6.23984375,15.60001220703125L6.23984375,12.48001220703125Z" fill-rule="evenodd" fill="#000000" fill-opacity="0.6000000238418579"/></g><g><path d="M10.9201953125,16.38001220703125L10.9201953125,11.70001220703125Q10.9201953125,11.62318890703125,10.9351833125,11.54784220703125Q10.9501703125,11.47249420703125,10.9795693125,11.40151920703125Q11.0089683125,11.33054420703125,11.0516493125,11.26666720703125Q11.0943303125,11.20279120703125,11.1486523125,11.14846920703125Q11.2029743125,11.09414720703125,11.2668503125,11.05146620703125Q11.3307273125,11.00878520703125,11.4017023125,10.97938620703125Q11.4726773125,10.94998720703125,11.5480253125,10.93500020703125Q11.6233720125,10.92001220703125,11.7001953125,10.92001220703125L16.3801953125,10.92001220703125Q16.4570153125,10.92001220703125,16.532365312499998,10.93500020703125Q16.607715312499998,10.94998720703125,16.6786853125,10.97938620703125Q16.7496653125,11.00878520703125,16.8135353125,11.05146620703125Q16.8774153125,11.09414720703125,16.9317353125,11.14846920703125Q16.9860553125,11.20279120703125,17.0287453125,11.26666720703125Q17.0714253125,11.33054420703125,17.1008253125,11.40151920703125Q17.1302153125,11.47249420703125,17.1452053125,11.54784220703125Q17.1601953125,11.62318890703125,17.1601953125,11.70001220703125L17.1601953125,16.38001220703125Q17.1601953125,16.45683220703125,17.1452053125,16.532182207031248Q17.1302153125,16.607532207031248,17.1008253125,16.67850220703125Q17.0714253125,16.74948220703125,17.0287453125,16.81335220703125Q16.9860553125,16.87723220703125,16.9317353125,16.93155220703125Q16.8774153125,16.98587220703125,16.8135353125,17.02856220703125Q16.7496653125,17.07124220703125,16.6786853125,17.10064220703125Q16.607715312499998,17.13003220703125,16.532365312499998,17.14502220703125Q16.4570153125,17.16001220703125,16.3801953125,17.16001220703125L11.7001953125,17.16001220703125Q11.6233720125,17.16001220703125,11.5480253125,17.14502220703125Q11.4726773125,17.13003220703125,11.4017023125,17.10064220703125Q11.3307273125,17.07124220703125,11.2668503125,17.02856220703125Q11.2029743125,16.98587220703125,11.1486523125,16.93155220703125Q11.0943303125,16.87723220703125,11.0516493125,16.81335220703125Q11.0089683125,16.74948220703125,10.9795693125,16.67850220703125Q10.9501703125,16.607532207031248,10.9351833125,16.532182207031248Q10.9201953125,16.45683220703125,10.9201953125,16.38001220703125ZM15.6001953125,12.48001220703125L12.4801953125,12.48001220703125L12.4801953125,15.60001220703125L15.6001953125,15.60001220703125L15.6001953125,12.48001220703125Z" fill-rule="evenodd" fill="#000000" fill-opacity="0.6000000238418579"/></g><g><path d="M10.9201953125,7.0199658203125L10.9201953125,2.3399658203125Q10.9201953125,2.2631425203125,10.9351833125,2.1877958203125Q10.9501703125,2.1124478203125,10.9795693125,2.0414728203125Q11.0089683125,1.9704978203125,11.0516493125,1.9066208203125Q11.0943303125,1.8427448203124999,11.1486523125,1.7884228203124999Q11.2029743125,1.7341008203125,11.2668503125,1.6914198203125Q11.3307273125,1.6487388203125,11.4017023125,1.6193398203125Q11.4726773125,1.5899408203125,11.5480253125,1.5749538203125Q11.6233720125,1.5599658203125,11.7001953125,1.5599658203125L16.3801953125,1.5599658203125Q16.4570153125,1.5599658203125,16.532365312499998,1.5749538203125Q16.607715312499998,1.5899408203125,16.6786853125,1.6193398203125Q16.7496653125,1.6487388203125,16.8135353125,1.6914198203125Q16.8774153125,1.7341008203125,16.9317353125,1.7884228203124999Q16.9860553125,1.8427448203124999,17.0287453125,1.9066208203125Q17.0714253125,1.9704978203125,17.1008253125,2.0414728203125Q17.1302153125,2.1124478203125,17.1452053125,2.1877958203125Q17.1601953125,2.2631425203125,17.1601953125,2.3399658203125L17.1601953125,7.0199658203125Q17.1601953125,7.0967858203125,17.1452053125,7.1721358203125Q17.1302153125,7.2474858203125,17.1008253125,7.3184558203125Q17.0714253125,7.3894358203125,17.0287453125,7.4533058203125Q16.9860553125,7.5171858203125,16.9317353125,7.5715058203125Q16.8774153125,7.6258258203125,16.8135353125,7.6685158203125Q16.7496653125,7.7111958203125,16.6786853125,7.7405958203125Q16.607715312499998,7.7699858203125,16.532365312499998,7.7849758203125Q16.4570153125,7.7999658203125,16.3801953125,7.7999658203125L11.7001953125,7.7999658203125Q11.6233720125,7.7999658203125,11.5480253125,7.7849758203125Q11.4726773125,7.7699858203125,11.4017023125,7.7405958203125Q11.3307273125,7.7111958203125,11.2668503125,7.6685158203125Q11.2029743125,7.6258258203125,11.1486523125,7.5715058203125Q11.0943303125,7.5171858203125,11.0516493125,7.4533058203125Q11.0089683125,7.3894358203125,10.9795693125,7.3184558203125Q10.9501703125,7.2474858203125,10.9351833125,7.1721358203125Q10.9201953125,7.0967858203125,10.9201953125,7.0199658203125ZM15.6001953125,3.1199658203125002L12.4801953125,3.1199658203125002L12.4801953125,6.2399658203125L15.6001953125,6.2399658203125L15.6001953125,3.1199658203125002Z" fill-rule="evenodd" fill="#000000" fill-opacity="0.6000000238418579"/></g><g><path d="M10.1403515625,2.3402707523125L10.1403515625,2.3399658203125Q10.1403515625,2.2631425203125,10.1253635625,2.1877958203125Q10.1103765625,2.1124478203125,10.0809775625,2.0414728203125Q10.0515785625,1.9704978203125,10.0088975625,1.9066208203125Q9.9662165625,1.8427448203124999,9.9118945625,1.7884228203124999Q9.8575725625,1.7341008203125,9.7936965625,1.6914198203125Q9.7298195625,1.6487388203125,9.6588445625,1.6193398203125Q9.5878695625,1.5899408203125,9.5125215625,1.5749538203125Q9.4371748625,1.5599658203125,9.3603515625,1.5599658203125Q9.2835282625,1.5599658203125,9.2081815625,1.5749538203125Q9.1328335625,1.5899408203125,9.0618585625,1.6193398203125Q8.9908835625,1.6487388203125,8.9270065625,1.6914198203125Q8.8631305625,1.7341008203125,8.8088085625,1.7884228203124999Q8.7544865625,1.8427448203124999,8.7118055625,1.9066208203125Q8.6691245625,1.9704978203125,8.6397255625,2.0414728203125Q8.6103265625,2.1124478203125,8.5953395625,2.1877958203125Q8.5803515625,2.2631425203125,8.5803515625,2.3399658203125L8.5803515625,2.3402707523125L8.5803515625,9.3599658203125Q8.5803515625,9.436785820312501,8.5953395625,9.512135820312501Q8.6103265625,9.5874858203125,8.6397255625,9.6584558203125Q8.6691245625,9.7294358203125,8.7118055625,9.7933058203125Q8.7544865625,9.8571858203125,8.8088085625,9.911505820312499Q8.8631305625,9.9658258203125,8.9270065625,10.0085058203125Q8.9908835625,10.0511858203125,9.0618585625,10.0805858203125Q9.1328335625,10.109985820312499,9.2081815625,10.1249758203125Q9.2835282625,10.1399658203125,9.3603515625,10.1399658203125Q9.4371748625,10.1399658203125,9.5125215625,10.1249758203125Q9.5878695625,10.109985820312499,9.6588445625,10.0805858203125Q9.7298195625,10.0511858203125,9.7936965625,10.0085058203125Q9.8575725625,9.9658258203125,9.9118945625,9.911505820312499Q9.9662165625,9.8571858203125,10.0088975625,9.7933058203125Q10.0515785625,9.7294358203125,10.0809775625,9.6584558203125Q10.1103765625,9.5874858203125,10.1253635625,9.512135820312501Q10.1403515625,9.436785820312501,10.1403515625,9.3599658203125L10.1403515625,2.3402707523125Z" fill-rule="evenodd" fill="#000000" fill-opacity="0.6000000238418579"/></g><g><path d="M10.1403515625,11.70031713903125L10.1403515625,11.70001220703125Q10.1403515625,11.62318890703125,10.1253635625,11.54784220703125Q10.1103765625,11.47249420703125,10.0809775625,11.40151920703125Q10.0515785625,11.33054420703125,10.0088975625,11.26666720703125Q9.9662165625,11.20279120703125,9.9118945625,11.14846920703125Q9.8575725625,11.09414720703125,9.7936965625,11.05146620703125Q9.7298195625,11.00878520703125,9.6588445625,10.97938620703125Q9.5878695625,10.94998720703125,9.5125215625,10.93500020703125Q9.4371748625,10.92001220703125,9.3603515625,10.92001220703125Q9.2835282625,10.92001220703125,9.2081815625,10.93500020703125Q9.1328335625,10.94998720703125,9.0618585625,10.97938620703125Q8.9908835625,11.00878520703125,8.9270065625,11.05146620703125Q8.8631305625,11.09414720703125,8.8088085625,11.14846920703125Q8.7544865625,11.20279120703125,8.7118055625,11.26666720703125Q8.6691245625,11.33054420703125,8.6397255625,11.40151920703125Q8.6103265625,11.47249420703125,8.5953395625,11.54784220703125Q8.5803515625,11.62318890703125,8.5803515625,11.70001220703125L8.5803515625,11.70031713903125L8.5803515625,16.38001220703125Q8.5803515625,16.45683220703125,8.5953395625,16.532182207031248Q8.6103265625,16.607532207031248,8.6397255625,16.67850220703125Q8.6691245625,16.74948220703125,8.7118055625,16.81335220703125Q8.7544865625,16.87723220703125,8.8088085625,16.93155220703125Q8.8631305625,16.98587220703125,8.9270065625,17.02856220703125Q8.9908835625,17.07124220703125,9.0618585625,17.10064220703125Q9.1328335625,17.13003220703125,9.2081815625,17.14502220703125Q9.2835282625,17.16001220703125,9.3603515625,17.16001220703125Q9.4371748625,17.16001220703125,9.5125215625,17.14502220703125Q9.5878695625,17.13003220703125,9.6588445625,17.10064220703125Q9.7298195625,17.07124220703125,9.7936965625,17.02856220703125Q9.8575725625,16.98587220703125,9.9118945625,16.93155220703125Q9.9662165625,16.87723220703125,10.0088975625,16.81335220703125Q10.0515785625,16.74948220703125,10.0809775625,16.67850220703125Q10.1103765625,16.607532207031248,10.1253635625,16.532182207031248Q10.1403515625,16.45683220703125,10.1403515625,16.38001220703125L10.1403515625,11.70031713903125Z" fill-rule="evenodd" fill="#000000" fill-opacity="0.6000000238418579"/></g><g><path d="M2.340148682,8.5799853515625L2.33984375,8.5799853515625Q2.26302045,8.5799853515625,2.18767375,8.5949733515625Q2.11232575,8.6099603515625,2.04135075,8.6393593515625Q1.97037575,8.6687583515625,1.90649875,8.7114393515625Q1.8426227499999999,8.7541203515625,1.7883007499999999,8.8084423515625Q1.73397875,8.8627643515625,1.69129775,8.9266403515625Q1.64861675,8.9905173515625,1.61921775,9.0614923515625Q1.58981875,9.1324673515625,1.57483175,9.2078153515625Q1.55984375,9.2831620515625,1.55984375,9.3599853515625Q1.55984375,9.4368086515625,1.57483175,9.5121553515625Q1.58981875,9.5875033515625,1.61921775,9.6584783515625Q1.64861675,9.7294533515625,1.69129775,9.7933303515625Q1.73397875,9.8572063515625,1.7883007499999999,9.9115283515625Q1.8426227499999999,9.9658503515625,1.90649875,10.0085313515625Q1.97037575,10.0512123515625,2.04135075,10.0806113515625Q2.11232575,10.1100103515625,2.18767375,10.1249973515625Q2.26302045,10.1399853515625,2.33984375,10.1399853515625L9.35984375,10.1399853515625Q9.436663750000001,10.1399853515625,9.512013750000001,10.1249973515625Q9.58736375,10.1100103515625,9.65833375,10.0806113515625Q9.72931375,10.0512123515625,9.79318375,10.0085313515625Q9.85706375,9.9658503515625,9.911383749999999,9.9115283515625Q9.96570375,9.8572063515625,10.00838375,9.7933303515625Q10.05106375,9.7294533515625,10.08046375,9.6584783515625Q10.109863749999999,9.5875033515625,10.12485375,9.5121553515625Q10.13984375,9.4368086515625,10.13984375,9.3599853515625Q10.13984375,9.2831620515625,10.12485375,9.2078153515625Q10.109863749999999,9.1324673515625,10.08046375,9.0614923515625Q10.05106375,8.9905173515625,10.00838375,8.9266403515625Q9.96570375,8.8627643515625,9.911383749999999,8.8084423515625Q9.85706375,8.7541203515625,9.79318375,8.7114393515625Q9.72931375,8.6687583515625,9.65833375,8.6393593515625Q9.58736375,8.6099603515625,9.512013750000001,8.5949733515625Q9.436663750000001,8.5799853515625,9.35984375,8.5799853515625L9.35953375,8.5799853515625L2.340148682,8.5799853515625Z" fill-rule="evenodd" fill="#000000" fill-opacity="0.6000000238418579"/></g><g><path d="M11.7005002445,8.5799853515625L11.7001953125,8.5799853515625Q11.6233720125,8.5799853515625,11.5480253125,8.5949733515625Q11.4726773125,8.6099603515625,11.4017023125,8.6393593515625Q11.3307273125,8.6687583515625,11.2668503125,8.7114393515625Q11.2029743125,8.7541203515625,11.1486523125,8.8084423515625Q11.0943303125,8.8627643515625,11.0516493125,8.9266403515625Q11.0089683125,8.9905173515625,10.9795693125,9.0614923515625Q10.9501703125,9.1324673515625,10.9351833125,9.2078153515625Q10.9201953125,9.2831620515625,10.9201953125,9.3599853515625Q10.9201953125,9.4368086515625,10.9351833125,9.5121553515625Q10.9501703125,9.5875033515625,10.9795693125,9.6584783515625Q11.0089683125,9.7294533515625,11.0516493125,9.7933303515625Q11.0943303125,9.8572063515625,11.1486523125,9.9115283515625Q11.2029743125,9.9658503515625,11.2668503125,10.0085313515625Q11.3307273125,10.0512123515625,11.4017023125,10.0806113515625Q11.4726773125,10.1100103515625,11.5480253125,10.1249973515625Q11.6233720125,10.1399853515625,11.7001953125,10.1399853515625L16.3801953125,10.1399853515625Q16.4570153125,10.1399853515625,16.532365312499998,10.1249973515625Q16.607715312499998,10.1100103515625,16.6786853125,10.0806113515625Q16.7496653125,10.0512123515625,16.8135353125,10.0085313515625Q16.8774153125,9.9658503515625,16.9317353125,9.9115283515625Q16.9860553125,9.8572063515625,17.0287453125,9.7933303515625Q17.0714253125,9.7294533515625,17.1008253125,9.6584783515625Q17.1302153125,9.5875033515625,17.1452053125,9.5121553515625Q17.1601953125,9.4368086515625,17.1601953125,9.3599853515625Q17.1601953125,9.2831620515625,17.1452053125,9.2078153515625Q17.1302153125,9.1324673515625,17.1008253125,9.0614923515625Q17.0714253125,8.9905173515625,17.0287453125,8.9266403515625Q16.9860553125,8.8627643515625,16.9317353125,8.8084423515625Q16.8774153125,8.7541203515625,16.8135353125,8.7114393515625Q16.7496653125,8.6687583515625,16.6786853125,8.6393593515625Q16.607715312499998,8.6099603515625,16.532365312499998,8.5949733515625Q16.4570153125,8.5799853515625,16.3801953125,8.5799853515625L16.3798953125,8.5799853515625L11.7005002445,8.5799853515625Z" fill-rule="evenodd" fill="#000000" fill-opacity="0.6000000238418579"/></g></g></svg>