<svg viewBox="0 0 24 24" fill="none" xmlns="http://www.w3.org/2000/svg"><defs><clipPath id="a"><rect rx="0" height="24" width="24"/></clipPath></defs><g clip-path="url(#a)"><path fill="#333" fill-rule="evenodd" d="M20.75 4h-3a1 1 0 1 0 0 2h3a1 1 0 0 0 0-2ZM12.75 3v4a1 1 0 0 0 2 0V3a1 1 0 0 0-2 0Z" data-follow-fill="#333"/><path fill="#333" fill-rule="evenodd" d="M13.75 4h-11a1 1 0 1 0 0 2h11a1 1 0 1 0 0-2ZM6.75 11h-4a1 1 0 1 0 0 2h4a1 1 0 0 0 0-2ZM9.75 10v4a1 1 0 0 0 2 0v-4a1 1 0 0 0-2 0Z" data-follow-fill="#333"/><path fill="#333" fill-rule="evenodd" d="M21.75 11h-11a1 1 0 1 0 0 2h11a1 1 0 1 0 0-2ZM20.75 18h-3a1 1 0 1 0 0 2h3a1 1 0 0 0 0-2ZM12.75 17v4a1 1 0 0 0 2 0v-4a1 1 0 0 0-2 0Z" data-follow-fill="#333"/><path fill="#333" fill-rule="evenodd" d="M13.75 18h-11a1 1 0 1 0 0 2h11a1 1 0 1 0 0-2Z" data-follow-fill="#333"/></g></svg>