<?xml version="1.0" encoding="UTF-8"?>
<svg width="46px" height="46px" viewBox="0 0 46 46" version="1.1" xmlns="http://www.w3.org/2000/svg" xmlns:xlink="http://www.w3.org/1999/xlink">
    <title>刷新</title>
    <defs>
        <rect id="path-1" x="0" y="0" width="44" height="44" rx="3"></rect>
        <rect id="path-3" x="0" y="0" width="23.25" height="23.25"></rect>
    </defs>
    <g id="图表器" stroke="none" stroke-width="1" fill="none" fill-rule="evenodd">
        <g id="统计图表/筛选" transform="translate(-44.000000, -630.000000)">
            <g id="刷新" transform="translate(45.000000, 631.000000)">
                <mask id="mask-2" fill="white">
                    <use xlink:href="#path-1"></use>
                </mask>
                <use id="组-457备份-18" stroke="#DCDEE0" stroke-dasharray="2" fill-rule="nonzero" xlink:href="#path-1"></use>
                <g mask="url(#mask-2)" id="Clipped">
                    <g transform="translate(9.906250, 10.875000)">
                        <mask id="mask-4" fill="white">
                            <use xlink:href="#path-3"></use>
                        </mask>
                        <g id="矩形"></g>
                        <g id="编组" mask="url(#mask-4)">
                            <g transform="translate(1.937500, 1.937500)">
                                <path d="M17.4375,1.9375 L17.4375,9.6875 C17.4375,9.75110812 17.4437048,9.81410594 17.4561145,9.87649344 C17.4685242,9.93888094 17.4869001,9.99945687 17.5112422,10.0582212 C17.5355843,10.1169921 17.5654247,10.1728211 17.6007634,10.2257084 C17.6361028,10.2785957 17.6762617,10.3275305 17.7212401,10.3725128 C17.7662185,10.4174886 17.8151523,10.4576466 17.8680416,10.4929866 C17.9209301,10.5283266 17.9767582,10.5581673 18.0355258,10.5825087 C18.0942928,10.6068502 18.1548697,10.6252242 18.2172566,10.6376306 C18.2796432,10.6500435 18.342641,10.65625 18.40625,10.65625 C18.469859,10.65625 18.5328568,10.6500435 18.5952434,10.6376306 C18.6576303,10.6252242 18.7182072,10.6068502 18.7769742,10.5825087 C18.8357418,10.5581673 18.8915699,10.5283266 18.9444584,10.4929866 C18.9973477,10.4576466 19.0462815,10.4174886 19.0912599,10.3725128 C19.1362383,10.3275305 19.1763972,10.2785957 19.2117366,10.2257084 C19.2470753,10.1728211 19.2769157,10.1169921 19.3012578,10.0582212 C19.3255999,9.99945687 19.3439758,9.93888094 19.3563855,9.87649344 C19.3687952,9.81410594 19.375,9.75110812 19.375,9.6875 L19.375,1.9375 C19.375,1.87389097 19.3687952,1.81089316 19.3563855,1.74850656 C19.3439758,1.68611971 19.3255999,1.6255428 19.3012578,1.56677584 C19.2769157,1.50800824 19.2470753,1.45218015 19.2117366,1.39929156 C19.1763972,1.34640233 19.1362383,1.29746851 19.0912599,1.25249009 C19.0462815,1.20751168 18.9973477,1.16735279 18.9444584,1.13201344 C18.8915699,1.09667473 18.8357418,1.06683432 18.7769742,1.04249222 C18.7182072,1.01815011 18.6576303,0.999774219 18.5952434,0.987364531 C18.5328568,0.974954844 18.469859,0.96875 18.40625,0.96875 C18.342641,0.96875 18.2796432,0.974954844 18.2172566,0.987364531 C18.1548697,0.999774219 18.0942928,1.01815011 18.0355258,1.04249222 C17.9767582,1.06683432 17.9209301,1.09667473 17.8680416,1.13201344 C17.8151523,1.16735279 17.7662185,1.20751168 17.7212401,1.25249009 C17.6762617,1.29746851 17.6361028,1.34640233 17.6007634,1.39929156 C17.5654247,1.45218015 17.5355843,1.50800824 17.5112422,1.56677584 C17.4869001,1.6255428 17.4685242,1.68611971 17.4561145,1.74850656 C17.4437048,1.81089316 17.4375,1.87389097 17.4375,1.9375 Z" id="路径" fill="#1890FF"></path>
                                <path d="M0,9.6875 L0,17.4375 C0,17.5011081 0.00620484375,17.5641059 0.0186145313,17.6264934 C0.0310242187,17.6888809 0.0494001146,17.7494569 0.0737422188,17.8082213 C0.0980843229,17.8669921 0.127924729,17.9228211 0.163263437,17.9757084 C0.198602792,18.0285957 0.238761677,18.0775305 0.283740094,18.1225128 C0.32871851,18.1674886 0.377652333,18.2076466 0.430541562,18.2429866 C0.483430146,18.2783266 0.53925824,18.3081673 0.598025844,18.3325088 C0.656792802,18.3568502 0.717369708,18.3752242 0.779756562,18.3876306 C0.842143158,18.4000435 0.905140971,18.40625 0.96875,18.40625 C1.03235903,18.40625 1.09535684,18.4000435 1.15774344,18.3876306 C1.22013029,18.3752242 1.2807072,18.3568502 1.33947416,18.3325088 C1.39824176,18.3081673 1.45406985,18.2783266 1.50695844,18.2429866 C1.55984767,18.2076466 1.60878149,18.1674886 1.65375991,18.1225128 C1.69873832,18.0775305 1.73889721,18.0285957 1.77423656,17.9757084 C1.80957527,17.9228211 1.83941568,17.8669921 1.86375778,17.8082213 C1.88809989,17.7494569 1.90647578,17.6888809 1.91888547,17.6264934 C1.93129516,17.5641059 1.9375,17.5011081 1.9375,17.4375 L1.9375,9.6875 C1.9375,9.62389097 1.93129516,9.56089316 1.91888547,9.49850656 C1.90647578,9.43611971 1.88809989,9.3755428 1.86375778,9.31677584 C1.83941568,9.25800824 1.80957527,9.20218015 1.77423656,9.14929156 C1.73889721,9.09640233 1.69873832,9.04746851 1.65375991,9.00249009 C1.60878149,8.95751168 1.55984767,8.91735279 1.50695844,8.88201344 C1.45406985,8.84667473 1.39824176,8.81683432 1.33947416,8.79249222 C1.2807072,8.76815011 1.22013029,8.74977422 1.15774344,8.73736453 C1.09535684,8.72495484 1.03235903,8.71875 0.96875,8.71875 C0.905140971,8.71875 0.842143158,8.72495484 0.779756562,8.73736453 C0.717369708,8.74977422 0.656792802,8.76815011 0.598025844,8.79249222 C0.53925824,8.81683432 0.483430146,8.84667473 0.430541562,8.88201344 C0.377652333,8.91735279 0.32871851,8.95751168 0.283740094,9.00249009 C0.238761677,9.04746851 0.198602792,9.09640233 0.163263437,9.14929156 C0.127924729,9.20218015 0.0980843229,9.25800824 0.0737422188,9.31677584 C0.0494001146,9.3755428 0.0310242187,9.43611971 0.0186145313,9.49850656 C0.00620484375,9.56089316 0,9.62389097 0,9.6875 Z" id="路径" fill="#1890FF"></path>
                                <path d="M1.82357694,9.231707 C1.78226815,9.15423348 1.73136776,9.08367974 1.67087578,9.02004578 C1.6103838,8.95641118 1.54249574,8.90200585 1.46721159,8.85682981 C1.3919268,8.81165377 1.31197845,8.77734646 1.22736653,8.75390788 C1.14275397,8.73046929 1.05654846,8.71875 0.96875,8.71875 C0.840286,8.71875 0.716711281,8.74333042 0.598025844,8.79249125 C0.47933976,8.84165273 0.374577844,8.91165234 0.283740094,9.00249009 C0.211043156,9.07518768 0.151429188,9.15737481 0.104898188,9.2490515 C0.0349660625,9.38683552 0,9.53298502 0,9.6875 L0,9.68890632 C0.000181802083,11.0019102 0.254078906,12.2584753 0.761692281,13.4586016 C1.25195664,14.6177174 1.94386275,15.6440467 2.83741062,16.5375894 C3.73095979,17.4311385 4.75728906,18.1230456 5.91639844,18.6133106 C7.11695094,19.1211035 8.37398479,19.375 9.6875,19.375 C10.9707063,19.375 12.2008573,19.1323314 13.3779531,18.6469941 C14.513974,18.1786099 15.5258979,17.5160301 16.413725,16.6592547 L16.4147906,16.6583053 L16.4149844,16.6580631 C16.5074031,16.5688477 16.5792521,16.46534 16.6305313,16.34754 C16.6817458,16.22974 16.7084833,16.1066183 16.7107437,15.978175 C16.71093,15.9626556 16.71093,15.9471395 16.7104531,15.9316266 C16.7068365,15.8112626 16.6816167,15.6956035 16.6347938,15.5846494 C16.5880354,15.4736952 16.5228385,15.3748989 16.4392031,15.2882603 C16.349949,15.1958351 16.2464219,15.1239991 16.1286219,15.0727522 C16.0108219,15.0215053 15.8876937,14.9947484 15.7592375,14.9924816 C15.7535542,14.9923782 15.7478708,14.9923266 15.7421875,14.9923266 C15.7323708,14.9923266 15.7225542,14.9924751 15.7127375,14.9927722 C15.5923542,14.9964341 15.4766854,15.0216603 15.3657313,15.0684509 C15.2547771,15.1152416 15.1559969,15.1804546 15.0693906,15.26409 L15.0692938,15.2641191 L15.068325,15.2650684 C13.5675375,16.7133561 11.7739292,17.4375 9.6875,17.4375 C7.54740208,17.4375 5.72071094,16.6808578 4.20742656,15.1675734 C2.69414219,13.6542891 1.9375,11.8275979 1.9375,9.6875 C1.9375,9.52607783 1.89952565,9.37414683 1.82357694,9.231707 Z" id="路径" fill="#1890FF"></path>
                                <path d="M2.71778265,2.95948281 L2.71729344,2.95998656 C2.63012531,3.05028698 2.56303873,3.15362354 2.51603369,3.26999625 C2.46902864,3.38636896 2.44552612,3.50730771 2.44552612,3.6328125 C2.44552612,3.63850875 2.44552612,3.64420177 2.44552612,3.64989156 C2.44794219,3.77834135 2.47469777,3.90146625 2.525944,4.01926625 C2.57719087,4.13706625 2.64902691,4.24057719 2.74145212,4.32979906 C2.83174996,4.41696719 2.93508523,4.48405312 3.05145794,4.53105688 C3.16783,4.57806062 3.28876939,4.6015625 3.41427612,4.6015625 L3.41540462,4.6015625 C3.42072317,4.60155604 3.42604132,4.60150438 3.43135906,4.6014075 C3.55980304,4.59914708 3.68292535,4.57239344 3.800726,4.52114656 C3.918526,4.46989969 4.02203694,4.39806365 4.11125881,4.30563844 L4.11136828,4.30552219 C4.8303558,3.56074719 5.6623606,2.98344 6.60738269,2.57360062 C7.58519373,2.14953354 8.61201706,1.9375 9.68785269,1.9375 C11.8279506,1.9375 13.6546417,2.69414219 15.1679261,4.20742656 C16.6812428,5.72071094 17.4379011,7.54740208 17.4379011,9.6875 C17.4378365,9.75110812 17.4440365,9.81410594 17.4565011,9.87649344 C17.4689011,9.93888094 17.4872751,9.99945688 17.511623,10.0582213 C17.5359709,10.1169921 17.5658084,10.1728211 17.6011355,10.2257084 C17.6364626,10.2785957 17.6766011,10.3275305 17.7215511,10.3725128 C17.7665657,10.4174886 17.8155199,10.4576466 17.8684136,10.4929866 C17.9213074,10.5283266 17.9771397,10.5581673 18.0359105,10.5825088 C18.0946813,10.6068502 18.1552605,10.6252242 18.217648,10.6376306 C18.2800355,10.6500435 18.3430365,10.65625 18.4066511,10.65625 C18.4702011,10.65625 18.5331699,10.6500435 18.5955574,10.6376306 C18.6579449,10.6252242 18.718524,10.6068502 18.7772949,10.5825088 C18.8360657,10.5581673 18.891898,10.5283266 18.9447917,10.4929866 C18.9976855,10.4576466 19.0466397,10.4174886 19.0916542,10.3725128 C19.1366042,10.3275305 19.1767428,10.2785957 19.2120699,10.2257084 C19.247397,10.1728211 19.2772345,10.1169921 19.3015824,10.0582213 C19.3259303,9.99945688 19.3443042,9.93888094 19.3567042,9.87649344 C19.3691688,9.81410594 19.3754011,9.75110812 19.3754011,9.6875 C19.3754011,8.37398479 19.1214272,7.11695094 18.613673,5.91639844 C18.1234209,4.7572826 17.4315074,3.73095333 16.5379324,2.83741063 C15.644422,1.9438621 14.6180959,1.25195567 13.4589542,0.761691312 C12.2584017,0.253897104 11.0013679,0 9.68785269,0 C8.34398331,0 7.06019258,0.26535451 5.8364805,0.796063531 C4.65521775,1.30836372 3.6156518,2.02950348 2.71778265,2.95948281 Z" id="路径" fill="#1890FF"></path>
                                <g id="编组" stroke-width="1" fill="none" transform="translate(6.781250, 5.812500)">
                                    <path d="M5.8125,3.390625 C5.8125,3.46994625 5.80861208,3.54907375 5.80083625,3.6280075 C5.79306042,3.70694771 5.78143542,3.78531635 5.76596125,3.86311344 C5.75048708,3.94090406 5.73123802,4.01775177 5.70821406,4.09365656 C5.6851901,4.16956135 5.65850104,4.2441551 5.62814688,4.31743781 C5.59779271,4.39072052 5.56391875,4.46233698 5.526525,4.53228719 C5.48913771,4.60224385 5.44840823,4.67019844 5.40433656,4.73615094 C5.36027135,4.80209698 5.31308031,4.86572771 5.26276344,4.92704312 C5.2124401,4.98835854 5.15923635,5.04706156 5.10315219,5.10315219 C5.04706156,5.15923635 4.98835854,5.2124401 4.92704313,5.26276344 C4.86572771,5.31308031 4.80209698,5.36027135 4.73615094,5.40433656 C4.67019844,5.44840823 4.60224385,5.48913771 4.53228719,5.526525 C4.46233698,5.56391875 4.39072052,5.59779271 4.31743781,5.62814688 C4.2441551,5.65850104 4.16956135,5.6851901 4.09365656,5.70821406 C4.01775177,5.73123802 3.94090406,5.75048708 3.86311344,5.76596125 C3.78531635,5.78143542 3.70694771,5.79306042 3.6280075,5.80083625 C3.54907375,5.80861208 3.46994625,5.8125 3.390625,5.8125 C3.31130375,5.8125 3.23217625,5.80861208 3.1532425,5.80083625 C3.07430229,5.79306042 2.99593365,5.78143542 2.91813656,5.76596125 C2.84034594,5.75048708 2.76349823,5.73123802 2.68759344,5.70821406 C2.61168865,5.6851901 2.5370949,5.65850104 2.46381219,5.62814688 C2.39052948,5.59779271 2.31891302,5.56391875 2.24896281,5.526525 C2.17900615,5.48913771 2.11105156,5.44840823 2.04509906,5.40433656 C1.97915302,5.36027135 1.91552132,5.31308031 1.85420397,5.26276344 C1.7928892,5.2124401 1.73418811,5.15923635 1.67810072,5.10315219 C1.62201332,5.04706156 1.5688099,4.98835854 1.51849044,4.92704312 C1.46817098,4.86572771 1.42097735,4.80209698 1.37690956,4.73615094 C1.33284177,4.67019844 1.29211261,4.60224385 1.25472209,4.53228719 C1.21733093,4.46233698 1.18345826,4.39072052 1.15310409,4.31743781 C1.12274993,4.2441551 1.09606022,4.16956135 1.07303497,4.09365656 C1.05000985,4.01775177 1.03076008,3.94090406 1.01528565,3.86311344 C0.999811225,3.78531635 0.988186677,3.70694771 0.980412006,3.6280075 C0.972637335,3.54907375 0.96875,3.46994625 0.96875,3.390625 C0.96875,3.31130375 0.972637335,3.23217625 0.980412006,3.1532425 C0.988186677,3.07430229 0.999811225,2.99593365 1.01528565,2.91813656 C1.03076008,2.84034594 1.05000985,2.76349823 1.07303497,2.68759344 C1.09606022,2.61168865 1.12274993,2.5370949 1.15310409,2.46381219 C1.18345826,2.39052948 1.21733093,2.31891302 1.25472209,2.24896281 C1.29211261,2.17900615 1.33284177,2.11105156 1.37690956,2.04509906 C1.42097735,1.97915302 1.46817098,1.91552132 1.51849044,1.85420397 C1.5688099,1.7928892 1.62201332,1.73418811 1.67810072,1.67810072 C1.73418811,1.62201332 1.7928892,1.5688099 1.85420397,1.51849044 C1.91552132,1.46817098 1.97915302,1.42097735 2.04509906,1.37690956 C2.11105156,1.33284177 2.17900615,1.29211261 2.24896281,1.25472209 C2.31891302,1.21733093 2.39052948,1.18345826 2.46381219,1.15310409 C2.5370949,1.12274993 2.61168865,1.09606022 2.68759344,1.07303497 C2.76349823,1.05000985 2.84034594,1.03076008 2.91813656,1.01528565 C2.99593365,0.999811225 3.07430229,0.988186677 3.1532425,0.980412006 C3.23217625,0.972637335 3.31130375,0.96875 3.390625,0.96875 C3.46994625,0.96875 3.54907375,0.972637335 3.6280075,0.980412006 C3.70694771,0.988186677 3.78531635,0.999811225 3.86311344,1.01528565 C3.94090406,1.03076008 4.01775177,1.05000985 4.09365656,1.07303497 C4.16956135,1.09606022 4.2441551,1.12274993 4.31743781,1.15310409 C4.39072052,1.18345826 4.46233698,1.21733093 4.53228719,1.25472209 C4.60224385,1.29211261 4.67019844,1.33284177 4.73615094,1.37690956 C4.80209698,1.42097735 4.86572771,1.46817098 4.92704313,1.51849044 C4.98835854,1.5688099 5.04706156,1.62201332 5.10315219,1.67810072 C5.15923635,1.73418811 5.2124401,1.7928892 5.26276344,1.85420397 C5.31308031,1.91552132 5.36027135,1.97915302 5.40433656,2.04509906 C5.44840823,2.11105156 5.48913771,2.17900615 5.526525,2.24896281 C5.56391875,2.31891302 5.59779271,2.39052948 5.62814688,2.46381219 C5.65850104,2.5370949 5.6851901,2.61168865 5.70821406,2.68759344 C5.73123802,2.76349823 5.75048708,2.84034594 5.76596125,2.91813656 C5.78143542,2.99593365 5.79306042,3.07430229 5.80083625,3.1532425 C5.80861208,3.23217625 5.8125,3.31130375 5.8125,3.390625 Z" id="路径" fill="#00B42A" fill-rule="nonzero"></path>
                                    <path d="M0.993095366,0.993095366 C0.331031789,1.65515804 0,2.45433458 0,3.390625 C0,4.32691542 0.331031789,5.12609219 0.993095366,5.78815531 C1.65515804,6.45021844 2.45433458,6.78125 3.390625,6.78125 C4.32691542,6.78125 5.12609219,6.45021844 5.78815531,5.78815531 C6.45021844,5.12609219 6.78125,4.32691542 6.78125,3.390625 C6.78125,2.45433458 6.45021844,1.65515804 5.78815531,0.993095366 C5.12609219,0.331031789 4.32691542,0 3.390625,0 C2.45433458,0 1.65515804,0.331031789 0.993095366,0.993095366 Z M2.36311063,4.41813937 C2.07937021,4.1343925 1.9375,3.79188771 1.9375,3.390625 C1.9375,2.98936229 2.07937021,2.6468575 2.36311063,2.36311063 C2.6468575,2.07937021 2.98936229,1.9375 3.390625,1.9375 C3.79188771,1.9375 4.1343925,2.07937021 4.41813937,2.36311063 C4.70187979,2.6468575 4.84375,2.98936229 4.84375,3.390625 C4.84375,3.79188771 4.70187979,4.1343925 4.41813937,4.41813937 C4.1343925,4.70187979 3.79188771,4.84375 3.390625,4.84375 C2.98936229,4.84375 2.6468575,4.70187979 2.36311063,4.41813937 Z" id="形状" fill="#00B42A"></path>
                                </g>
                            </g>
                        </g>
                    </g>
                </g>
            </g>
        </g>
    </g>
</svg>