<svg viewBox="0 0 24 24" fill="none" xmlns="http://www.w3.org/2000/svg"><defs><clipPath id="a"><rect rx="0" height="24" width="24"/></clipPath></defs><g clip-path="url(#a)"><path fill="currentColor" d="M10.5 22.5q-3.269 0-5.62-.784Q2 20.756 2 19V5q0-.098.02-.195.018-.097.056-.188.038-.09.093-.173.054-.081.124-.151.07-.07.151-.124.082-.055.173-.093.091-.038.188-.057Q2.902 4 3 4t.195.02q.097.018.188.056.09.038.173.093.081.054.151.124.07.07.124.151.055.082.093.173.038.091.057.188Q4 4.902 4 5v14l.005-.02q.055.09.203.208.433.34 1.305.631 2.043.681 4.987.681.098 0 .195.02.097.018.188.056.09.038.173.093.081.054.151.124.07.07.124.151.055.082.093.173.038.091.057.188.019.096.019.195t-.02.195q-.018.097-.056.188-.038.09-.093.173-.054.081-.124.151-.07.07-.151.124-.082.055-.173.093-.091.038-.188.057-.097.019-.195.019Zm6.5-14V5q0-.098.02-.195.018-.097.056-.188.038-.09.093-.173.054-.081.124-.151.07-.07.151-.124.082-.055.173-.093.091-.038.188-.057Q17.9 4 18 4t.195.02q.097.018.188.056.09.038.173.093.081.054.151.124.07.07.124.151.055.082.093.173.038.091.057.188Q19 4.902 19 5v3.5q0 .098-.02.195-.018.097-.056.188-.038.09-.093.173-.054.081-.124.151-.07.07-.151.124-.082.055-.173.093-.091.038-.188.057Q18.1 9.5 18 9.5t-.195-.02q-.097-.018-.188-.056-.09-.038-.173-.093-.081-.054-.151-.124-.07-.07-.124-.151-.055-.082-.093-.173-.038-.091-.057-.188Q17 8.598 17 8.5Zm-5.5 13q0 .099-.02.195-.018.097-.056.188-.038.09-.093.173-.054.081-.124.151-.07.07-.151.124-.082.055-.173.093-.091.038-.188.057-.097.019-.195.019t-.195-.02q-.097-.018-.188-.056-.09-.038-.173-.093-.081-.054-.151-.124-.07-.07-.124-.151-.055-.082-.093-.173-.038-.091-.057-.188Q9.5 21.6 9.5 21.5t.02-.195q.018-.097.056-.188.038-.09.093-.173.054-.081.124-.151.07-.07.151-.124.082-.055.173-.093.091-.038.188-.057.097-.019.195-.019t.195.02q.097.018.188.056.09.038.173.093.081.054.151.124.07.07.124.151.055.082.093.173.038.091.057.188.019.096.019.195Zm7.5-13q0 .098-.02.195-.018.097-.056.188-.038.09-.093.173-.054.081-.124.151-.07.07-.151.124-.082.055-.173.093-.091.038-.188.057Q18.1 9.5 18 9.5t-.195-.02q-.097-.018-.188-.056-.09-.038-.173-.093-.081-.054-.151-.124-.07-.07-.124-.151-.055-.082-.093-.173-.038-.091-.057-.188Q17 8.598 17 8.5t.02-.195q.018-.097.056-.188.038-.09.093-.173.054-.081.124-.151.07-.07.151-.124.082-.055.173-.093.091-.038.188-.057Q17.9 7.5 18 7.5t.195.02q.097.018.188.056.09.038.173.093.081.054.151.124.07.07.124.151.055.082.093.173.038.091.057.188.019.097.019.195ZM4 5q0 .098-.02.195-.018.097-.056.188-.038.09-.093.173-.054.081-.124.151-.07.07-.151.124-.082.055-.173.093-.091.038-.188.057Q3.098 6 3 6t-.195-.02q-.097-.018-.188-.056-.09-.038-.173-.093-.081-.054-.151-.124-.07-.07-.124-.151-.055-.082-.093-.173-.038-.091-.057-.188Q2 5.098 2 5t.02-.195q.018-.097.056-.188.038-.09.093-.173.054-.081.124-.151.07-.07.151-.124.082-.055.173-.093.091-.038.188-.057Q2.902 4 3 4t.195.02q.097.018.188.056.09.038.173.093.081.054.151.124.07.07.124.151.055.082.093.173.038.091.057.188Q4 4.902 4 5Zm15 0q0 .098-.02.195-.018.097-.056.188-.038.09-.093.173-.054.081-.124.151-.07.07-.151.124-.082.055-.173.093-.091.038-.188.057Q18.1 6 18 6t-.195-.02q-.097-.018-.188-.056-.09-.038-.173-.093-.081-.054-.151-.124-.07-.07-.124-.151-.055-.082-.093-.173-.038-.091-.057-.188Q17 5.098 17 5t.02-.195q.018-.097.056-.188.038-.09.093-.173.054-.081.124-.151.07-.07.151-.124.082-.055.173-.093.091-.038.188-.057Q17.9 4 18 4t.195.02q.097.018.188.056.09.038.173.093.081.054.151.124.07.07.124.151.055.082.093.173.038.091.057.188Q19 4.902 19 5Z" data-follow-fill="currentColor"/><path fill="currentColor" d="M10.5 1q3.269 0 5.62.784Q19 2.744 19 4.5q0 1.756-2.88 2.716Q13.769 8 10.5 8t-5.62-.784Q2 6.256 2 4.5q0-1.756 2.88-2.716Q7.231 1 10.5 1Zm0 2q-2.944 0-4.987.68-.872.292-1.305.632-.148.117-.203.207L4 4.5l.005-.02q.055.09.203.208.433.34 1.305.631Q7.556 6 10.5 6t4.987-.68q.873-.292 1.305-.632.148-.117.203-.207L17 4.5l-.005.02q-.055-.09-.203-.208-.433-.34-1.305-.631Q13.444 3 10.5 3ZM10.5 14.5q-3.269 0-5.62-.784Q2 12.756 2 11q0-.098.02-.195.018-.097.056-.188.038-.09.093-.173.054-.081.124-.151.07-.07.151-.124.082-.055.173-.093.091-.038.188-.057Q2.902 10 3 10t.195.02q.097.018.188.056.09.038.173.093.081.054.151.124.07.07.124.151.055.082.093.173.038.091.057.188Q4 10.902 4 11l.005-.02q.055.09.203.208.433.34 1.305.631 2.043.681 4.987.681.098 0 .195.02.097.018.188.056.09.038.173.093.081.054.151.124.07.07.124.151.055.082.093.173.038.091.057.188.019.097.019.195t-.02.195q-.018.097-.056.188-.038.09-.093.173-.054.081-.124.151-.07.07-.151.124-.082.055-.173.093-.091.038-.188.057-.097.019-.195.019Zm1-1q0 .098-.02.195-.018.097-.056.188-.038.09-.093.173-.054.081-.124.151-.07.07-.151.124-.082.055-.173.093-.091.038-.188.057-.097.019-.195.019t-.195-.02q-.097-.018-.188-.056-.09-.038-.173-.093-.081-.054-.151-.124-.07-.07-.124-.151-.055-.082-.093-.173-.038-.091-.057-.188-.019-.097-.019-.195t.02-.195q.018-.097.056-.188.038-.09.093-.173.054-.081.124-.151.07-.07.151-.124.082-.055.173-.093.091-.038.188-.057.097-.019.195-.019t.195.02q.097.018.188.056.09.038.173.093.081.054.151.124.07.07.124.151.055.082.093.173.038.091.057.188.019.097.019.195ZM4 11q0 .098-.02.195-.018.097-.056.188-.038.09-.093.173-.054.081-.124.151-.07.07-.151.124-.082.055-.173.093-.091.038-.188.057Q3.098 12 3 12t-.195-.02q-.097-.018-.188-.056-.09-.038-.173-.093-.081-.054-.151-.124-.07-.07-.124-.151-.055-.082-.093-.173-.038-.091-.057-.188Q2 11.098 2 11t.02-.195q.018-.097.056-.188.038-.09.093-.173.054-.081.124-.151.07-.07.151-.124.082-.055.173-.093.091-.038.188-.057Q2.902 10 3 10t.195.02q.097.018.188.056.09.038.173.093.081.054.151.124.07.07.124.151.055.082.093.173.038.091.057.188Q4 10.902 4 11ZM12 21v-5q0-.828.586-1.414T14 14h6q.828 0 1.414.586T22 16v5q0 .828-.586 1.414T20 23h-6q-.828 0-1.414-.586T12 21Zm2 0h6v-5h-6v5Z" data-follow-fill="currentColor"/><path fill="currentColor" d="M14 13q0-1.243.879-2.121Q15.757 10 17 10q1.243 0 2.121.879Q20 11.757 20 13v2q0 .098-.02.195-.018.097-.056.188-.038.09-.093.173-.054.081-.124.151-.07.07-.151.124-.082.055-.173.093-.091.038-.188.057Q19.098 16 19 16h-4q-.098 0-.195-.02-.097-.018-.188-.056-.09-.038-.173-.093-.081-.054-.151-.124-.07-.07-.124-.151-.055-.082-.093-.173-.038-.091-.057-.188Q14 15.098 14 15v-2Zm2 0v2h-1v-1h4v1h-1v-2q0-.414-.293-.707T17 12q-.414 0-.707.293T16 13Z" data-follow-fill="currentColor"/><g style="mix-blend-mode:passthrough"><path fill="currentColor" d="M16.5 19.5V18q0-.05.01-.098t.028-.093q.019-.046.046-.087.028-.04.062-.076.035-.034.076-.062.041-.027.087-.046.045-.019.093-.028.049-.01.098-.01.05 0 .098.01t.093.028q.046.019.087.046.04.028.076.062.034.035.062.076.027.041.046.087.019.045.028.093.01.049.01.098v1.5q0 .05-.01.098t-.028.093q-.019.046-.046.087-.028.04-.062.076-.035.034-.076.062-.041.027-.087.046-.045.019-.093.028-.049.01-.098.01-.05 0-.098-.01t-.093-.028q-.046-.019-.087-.046-.04-.028-.076-.062-.034-.035-.062-.076-.027-.041-.046-.087-.019-.045-.028-.093-.01-.049-.01-.098Zm1 0q0 .05-.01.098t-.028.093q-.019.046-.046.087-.028.04-.062.076-.035.034-.076.062-.041.027-.087.046-.045.019-.093.028-.049.01-.098.01-.05 0-.098-.01t-.093-.028q-.046-.019-.087-.046-.04-.028-.076-.062-.034-.035-.062-.076-.027-.041-.046-.087-.019-.045-.028-.093-.01-.049-.01-.098 0-.05.01-.098t.028-.093q.019-.046.046-.087.028-.04.062-.076.035-.034.076-.062.041-.027.087-.046.045-.019.093-.028.049-.01.098-.01.05 0 .098.01t.093.028q.046.019.087.046.04.028.076.062.034.035.062.076.027.041.046.087.019.045.028.093.01.049.01.098Zm0-1.5q0 .05-.01.098t-.028.093q-.019.046-.046.087-.028.04-.062.076-.035.034-.076.062-.041.027-.087.046-.045.019-.093.028-.049.01-.098.01-.05 0-.098-.01t-.093-.028q-.046-.019-.087-.046-.04-.028-.076-.062-.034-.035-.062-.076-.027-.041-.046-.087-.019-.045-.028-.093-.01-.049-.01-.098 0-.05.01-.098t.028-.093q.019-.046.046-.087.028-.04.062-.076.035-.034.076-.062.041-.027.087-.046.045-.019.093-.028.049-.01.098-.01.05 0 .098.01t.093.028q.046.019.087.046.04.028.076.062.034.035.062.076.027.041.046.087.019.045.028.093.01.049.01.098Z" data-follow-fill="currentColor"/><circle fill="currentColor" cy="17.75" cx="17" r=".75" style="mix-blend-mode:passthrough" data-follow-fill="currentColor"/></g></g></svg>
