<svg xmlns="http://www.w3.org/2000/svg" xmlns:xlink="http://www.w3.org/1999/xlink" fill="none" version="1.1" width="45" height="45" viewBox="0 0 45 45"><g><g><g><path d="M0,37.5L0,35.5L1,35.5L1,37.5L0,37.5ZM0,33.5L0,31.5L1,31.5L1,33.5L0,33.5ZM0,29.5L0,27.5L1,27.5L1,29.5L0,29.5ZM0,25.5L0,23.5L1,23.5L1,25.5L0,25.5ZM0,21.5L0,19.5L1,19.5L1,21.5L0,21.5ZM0,17.5L0,15.5L1,15.5L1,17.5L0,17.5ZM0,13.5L0,11.5L1,11.5L1,13.5L0,13.5ZM0,9.5L0,7.5L1,7.5L1,9.5L0,9.5ZM0,5.5L0,3.5L1,3.5L1,5.5L0,5.5ZM0.751079,1.333566Q1.50413,0.378041,2.6875,0.095615L2.91964,1.0682960000000001Q2.0743799999999997,1.270029,1.53649,1.95255L0.751079,1.333566ZM4.79523,0L6.79523,0L6.79523,1L4.79523,1L4.79523,0ZM8.79523,0L10.7952,0L10.7952,1L8.79523,1L8.79523,0ZM12.7952,0L14.7952,0L14.7952,1L12.7952,1L12.7952,0ZM16.7952,0L18.7952,0L18.7952,1L16.7952,1L16.7952,0ZM20.7952,0L22.7952,0L22.7952,1L20.7952,1L20.7952,0ZM24.7952,0L26.7952,0L26.7952,1L24.7952,1L24.7952,0ZM28.7952,0L30.7952,0L30.7952,1L28.7952,1L28.7952,0ZM32.7952,0L34.7952,0L34.7952,1L32.7952,1L32.7952,0ZM36.7952,0L38.7952,0L38.7952,1L36.7952,1L36.7952,0ZM40.7952,0L41.5,0Q42.2675,0,42.9646,0.321157L42.5461,1.229398Q42.0482,1,41.5,1L40.7952,1L40.7952,0ZM44.6208,1.9156Q45,2.66244,45,3.5L45,4.090450000000001L44,4.090450000000001L44,3.5Q44,2.90173,43.7292,2.36828L44.6208,1.9156ZM45,6.09045L45,8.09045L44,8.09045L44,6.09045L45,6.09045ZM45,10.09045L45,12.0905L44,12.0905L44,10.09045L45,10.09045ZM45,14.0905L45,16.0905L44,16.0905L44,14.0905L45,14.0905ZM45,18.0905L45,20.0905L44,20.0905L44,18.0905L45,18.0905ZM45,22.0905L45,24.0905L44,24.0905L44,22.0905L45,22.0905ZM45,26.0905L45,28.0905L44,28.0905L44,26.0905L45,26.0905ZM45,30.0905L45,32.0905L44,32.0905L44,30.0905L45,30.0905ZM45,34.0905L45,36.0905L44,36.0905L44,34.0905L45,34.0905ZM45,38.0905L45,40.0905L44,40.0905L44,38.0905L45,38.0905ZM44.9325,42.1842Q44.6949,43.376,43.7699,44.1641L43.1213,43.403Q43.7821,42.84,43.9518,41.9887L44.9325,42.1842ZM41.63,44.9976Q41.565,45,41.5,45L39.6143,45L39.6143,44L41.5,44Q41.5465,44,41.5928,43.9983L41.63,44.9976ZM37.6143,45L35.6143,45L35.6143,44L37.6143,44L37.6143,45ZM33.6143,45L31.6143,45L31.6143,44L33.6143,44L33.6143,45ZM29.6143,45L27.6143,45L27.6143,44L29.6143,44L29.6143,45ZM25.6143,45L23.6143,45L23.6143,44L25.6143,44L25.6143,45ZM21.6143,45L19.6143,45L19.6143,44L21.6143,44L21.6143,45ZM17.6143,45L15.6143,45L15.6143,44L17.6143,44L17.6143,45ZM13.6143,45L11.6143,45L11.6143,44L13.6143,44L13.6143,45ZM9.61432,45L7.61432,45L7.61432,44L9.61432,44L9.61432,45ZM5.61432,45L3.61432,45L3.61432,44L5.61432,44L5.61432,45ZM1.4399359999999999,44.3295Q0.4560745,43.6132,0.12887300000000002,42.441L1.092052,42.1721Q1.325769,43.0094,2.0285200000000003,43.5211L1.4399359999999999,44.3295ZM0,41.5L0,39.5L1,39.5L1,41.5L0,41.5Z" fill="#DCDEE0" /></g><g><g><path d="M10.4,29.500003168640138C8.805,29.500003168640138,7.5000000339844,28.305683168640137,7.5,26.845973168640135C7.4999999660156,25.38625316864014,8.805,24.191943168640137,10.4,24.191943168640137L33.6,24.191943168640137C35.195,24.191943168640137,36.5,25.38625316864014,36.5,26.845973168640135C36.5,28.305683168640137,35.195,29.500003168640138,33.6,29.500003168640138L10.4,29.500003168640138Z" fill="#1890FF" /></g><g><path d="M16.05496,21.07346C15.83746,20.94076,15.61996,20.80806,15.54746,20.542650000000002C15.47496,20.277250000000002,15.32996,20.01185,15.32996,19.68009L16.41746,19.68009C16.41746,19.87915,16.48996,20.01185,16.56246,20.14455C16.61372,20.23838,16.66499,20.232689999999998,16.767519999999998,20.22131C16.80999,20.21659,16.86125,20.2109,16.92496,20.2109C17.069960000000002,20.2109,17.214959999999998,20.14455,17.28746,20.0782C17.35996,20.01185,17.43246,19.87915,17.43246,19.68009L17.43246,18.81754C17.43246,18.684829999999998,17.35996,18.55213,17.28746,18.48578C17.214959999999998,18.41943,17.069960000000002,18.35308,16.99746,18.35308C16.85246,18.35308,16.779960000000003,18.35308,16.707459999999998,18.41943C16.63496,18.48578,16.56246,18.55213,16.56246,18.684829999999998L15.47496,18.684829999999998L15.47496,15.5L18.375,15.5L18.375,16.495261L16.48996,16.495261L16.48996,17.55687C16.56246,17.49052,16.707459999999998,17.42417,16.779960000000003,17.35782C16.85246,17.29147,17.069960000000002,17.29147,17.14246,17.29147C17.43246,17.29147,17.65,17.35782,17.795,17.49052C17.939999999999998,17.62322,18.1575,17.75592,18.23,18.02133C18.302500000000002,18.22038,18.375,18.48578,18.375,18.81754L18.375,19.68009Q18.375,20.17773,18.1575,20.476300000000002C18.0125,20.67536,17.8675,20.87441,17.5775,21.00711C17.28746,21.13981,17.069960000000002,21.20616,16.707459999999998,21.20616C16.56246,21.20616,16.272460000000002,21.13981,16.05496,21.07346ZM19.825,20.80806C19.535,20.542650000000002,19.39,20.2109,19.39,19.74645L19.39,16.95972C19.39,16.495261,19.535,16.097156,19.825,15.898104C20.115000000000002,15.699052,20.4775,15.5,21.057499999999997,15.5C21.6375,15.5,22,15.632701,22.29,15.898104C22.58,16.163507,22.725,16.495261,22.725,16.95972L22.725,19.74645C22.725,20.2109,22.58,20.609,22.29,20.87441C22,21.13981,21.6375,21.27251,21.057499999999997,21.27251C20.55,21.20616,20.115000000000002,21.07346,19.825,20.80806ZM23.595,16.95972C23.595,17.29147,23.74,17.49052,23.885,17.68957C24.03,17.82227,24.32,17.95498,24.61,17.95498C24.9,17.95498,25.1175,17.88863,25.335,17.68957C25.5525,17.49052,25.625,17.29147,25.625,16.95972L25.625,16.495261C25.625,16.163507,25.48,15.964455,25.335,15.765403C25.19,15.5663507,24.9,15.5,24.61,15.5C24.32,15.5,24.1025,15.5663507,23.885,15.765403C23.6675,15.964455,23.595,16.163507,23.595,16.495261L23.595,16.95972ZM28.0175,15.5L27.4375,15.5L24.175,21.13981L24.6825,21.13981L28.0175,15.5ZM25.1175,16.96005C25.1175,17.1591,25.045,17.2918,24.9725,17.35815C24.9,17.424500000000002,24.755,17.490850000000002,24.61,17.490850000000002C24.465,17.490850000000002,24.32,17.490850000000002,24.2475,17.35815C24.175,17.22545,24.1025,17.09275,24.1025,16.96005L24.1025,16.362893C24.1025,16.230191,24.175,16.09749,24.2475,16.031139C24.32,15.964788,24.465,15.898438,24.61,15.898438C24.755,15.898438,24.9,15.964788,24.9725,16.031139C25.045,16.09749,25.1175,16.230191,25.1175,16.362893L25.1175,16.96005ZM21.6375,19.613599999999998C21.6375,19.812649999999998,21.564999999999998,19.94535,21.4925,20.07806C21.3475,20.21076,21.2025,20.21076,21.057499999999997,20.21076C20.9125,20.21076,20.7675,20.21076,20.695,20.07806C20.622500000000002,19.94535,20.55,19.812649999999998,20.55,19.613599999999998L20.55,17.09227C20.55,16.89322,20.55,16.69417,20.695,16.62782C20.84,16.56147,20.985,16.495117,21.130000000000003,16.495117C21.275,16.495117,21.42,16.495117,21.4925,16.62782C21.564999999999998,16.76052,21.6375,16.89322,21.6375,17.09227L21.6375,19.613599999999998ZM26.64,20.21069C26.64,20.54245,26.785,20.741500000000002,26.93,20.94055C27.075,21.1396,27.365,21.20595,27.655,21.20595C27.945,21.20595,28.1625,21.1396,28.38,20.94055C28.5975,20.741500000000002,28.67,20.54245,28.67,20.21069L28.67,19.74624C28.67,19.41448,28.525,19.21543,28.38,19.016379999999998C28.235,18.81733,27.945,18.75098,27.655,18.75098C27.365,18.75098,27.1475,18.81733,26.93,19.016379999999998C26.7125,19.21543,26.64,19.41448,26.64,19.74624L26.64,20.21069ZM28.1625,20.21103C28.1625,20.41008,28.09,20.54278,28.0175,20.60913C27.945,20.74183,27.8,20.74183,27.655,20.74183C27.51,20.74183,27.365,20.74183,27.2925,20.60913C27.22,20.47643,27.1475,20.34373,27.1475,20.21103L27.1475,19.61387C27.1475,19.48117,27.22,19.34847,27.2925,19.28212C27.365,19.21576,27.51,19.14941,27.655,19.14941C27.8,19.14941,27.945,19.21576,28.0175,19.28212C28.09,19.34847,28.1625,19.48117,28.1625,19.61387L28.1625,20.21103ZM10.4,29.5004L20.55,29.5004C22.145,29.5004,23.45,28.3061,23.45,26.8464C23.45,25.386699999999998,22.145,24.19238,20.55,24.19238L10.4,24.19238C8.805,24.19238,7.5,25.386699999999998,7.5,26.8464C7.5,28.3061,8.805,29.5004,10.4,29.5004Z" fill-rule="evenodd" fill="#00B42A" /></g></g></g></g></svg>