<svg viewBox="0 0 24 24" fill="none" xmlns="http://www.w3.org/2000/svg"><defs><clipPath id="a"><rect rx="0" height="24" width="24"/></clipPath></defs><g clip-path="url(#a)"><path fill="#333" fill-rule="evenodd" d="M11 21.5V17q0-.099-.02-.195-.018-.097-.056-.188-.038-.09-.093-.173-.054-.081-.124-.151-.07-.07-.151-.124-.082-.055-.173-.093-.091-.038-.188-.057Q10.098 16 10 16t-.195.02q-.097.018-.188.056-.09.038-.173.093-.081.054-.151.124-.07.07-.124.151-.055.082-.093.173-.038.091-.057.188Q9 16.9 9 17v4H3V3h6v4q0 .098.02.195.018.097.056.188.038.09.093.173.054.081.124.151.07.07.151.124.082.055.173.093.091.038.188.057Q9.902 8 10 8t.195-.02q.097-.018.188-.056.09-.038.173-.093.081-.054.151-.124.07-.07.124-.151.055-.082.093-.173.038-.091.057-.188Q11 7.098 11 7V2.5q0-.621-.44-1.06Q10.122 1 9.5 1h-7q-.621 0-1.06.44Q1 1.878 1 2.5v19q0 .621.44 1.06.439.44 1.06.44h7q.621 0 1.06-.44.44-.439.44-1.06ZM13 2.5V7q0 .098.02.195.018.097.056.188.038.09.093.173.054.081.124.151.07.07.151.124.082.055.173.093.091.038.188.057Q13.902 8 14 8t.195-.02q.097-.018.188-.056.09-.038.173-.093.081-.054.151-.124.07-.07.124-.151.055-.082.093-.173.038-.091.057-.188Q15 7.098 15 7V3h6v18h-6v-4q0-.099-.02-.195-.018-.097-.056-.188-.038-.09-.093-.173-.054-.081-.124-.151-.07-.07-.151-.124-.082-.055-.173-.093-.091-.038-.188-.057Q14.098 16 14 16t-.195.02q-.097.018-.188.056-.09.038-.173.093-.081.054-.151.124-.07.07-.124.151-.055.082-.093.173-.038.091-.057.188Q13 16.9 13 17v4.5q0 .621.44 1.06.439.44 1.06.44h7q.621 0 1.06-.44.44-.439.44-1.06v-19q0-.621-.44-1.06Q22.122 1 21.5 1h-7q-.621 0-1.06.44Q13 1.878 13 2.5Z" data-follow-fill="#333"/><path fill="#333" fill-rule="evenodd" d="M14 13h8q.098 0 .195-.02.097-.018.188-.056.09-.038.173-.093.081-.054.151-.124.07-.07.124-.151.055-.082.093-.173.038-.091.057-.188Q23 12.098 23 12t-.02-.195q-.018-.097-.056-.188-.038-.09-.093-.173-.054-.081-.124-.151-.07-.07-.151-.124-.082-.055-.173-.093-.091-.038-.188-.057Q22.098 11 22 11h-8q-.098 0-.195.02-.097.018-.188.056-.09.038-.173.093-.081.054-.151.124-.07.07-.124.151-.055.082-.093.173-.038.091-.057.188Q13 11.902 13 12t.02.195q.018.097.056.188.038.09.093.173.054.081.124.151.07.07.151.124.082.055.173.093.091.038.188.057.097.019.195.019Z" data-follow-fill="#333"/><path fill="#333" fill-rule="evenodd" d="M17.081 10.343q.141-.14.217-.324.076-.184.076-.383t-.076-.382q-.076-.184-.217-.325-.14-.14-.324-.217-.184-.076-.383-.076t-.382.076q-.184.076-.325.217l-.795.796-1.591 1.59q-.07.07-.125.152-.054.082-.092.173-.038.091-.057.188-.02.096-.02.195 0 .098.02.195.02.096.057.187.038.091.092.173.055.082.125.152l1.59 1.59.796.796q.14.14.325.217.183.076.382.076.2 0 .383-.076.184-.076.324-.217.141-.14.217-.324.076-.184.076-.383t-.076-.383q-.076-.183-.217-.324l-.795-.795-.884-.884.884-.884.795-.796ZM8.395 8.93q-.141-.142-.325-.218-.184-.076-.383-.076-.198 0-.382.076t-.325.217q-.14.14-.216.325-.077.183-.077.382 0 .2.077.383.076.184.216.324l.796.796.884.884-.884.884-.796.795q-.14.14-.216.324-.077.184-.077.383l.002.052q.01.185.085.355.075.17.206.3.141.14.325.217.184.076.382.076l.049-.001q.186-.009.356-.084.17-.076.303-.208l.795-.795 1.591-1.591q.07-.07.124-.152.055-.082.093-.173.038-.09.057-.187.019-.097.019-.195 0-.099-.02-.195-.018-.097-.056-.188-.038-.091-.093-.173-.054-.082-.124-.151l-1.59-1.591-.796-.796Z" data-follow-fill="#333"/></g></svg>