<svg viewBox="0 0 24 24" fill="none" xmlns="http://www.w3.org/2000/svg"><defs><clipPath id="a"><rect rx="0" height="24" width="24"/></clipPath></defs><g clip-path="url(#a)"><path fill="#333" fill-rule="evenodd" d="m13.5 11.991.046 8q0 .099.02.195.02.097.059.187.038.091.093.173.055.081.125.15.07.07.152.124.083.054.174.092.091.037.188.055.096.019.195.018.098 0 .195-.02.096-.02.187-.058.09-.038.172-.093.082-.055.151-.126.07-.07.124-.152.054-.082.091-.173.037-.091.056-.188.019-.097.018-.195l-.046-8q0-.099-.02-.195-.02-.097-.058-.187-.039-.091-.094-.173-.055-.081-.125-.15-.07-.07-.152-.124-.082-.054-.174-.091-.09-.038-.188-.056-.096-.019-.195-.018-.098 0-.195.02-.096.02-.187.058-.09.038-.172.093-.082.056-.151.126-.07.07-.124.152-.054.082-.091.173-.037.091-.056.188-.019.097-.018.195ZM18 11.965l.046 8q0 .099.02.195.02.097.058.188.038.09.094.172.055.082.125.15.07.07.152.124.082.054.174.092.09.037.187.055.097.02.196.019.098-.001.195-.02.096-.02.187-.059.09-.038.172-.093.082-.055.151-.125.07-.07.124-.153.054-.082.091-.173.037-.091.056-.188.018-.097.018-.195l-.046-8q0-.099-.02-.195-.02-.097-.059-.187-.038-.091-.093-.173-.055-.081-.125-.15-.07-.07-.152-.124-.083-.054-.174-.091-.091-.038-.188-.056-.097-.019-.195-.018-.099 0-.195.02t-.187.058q-.091.038-.173.093-.081.056-.15.126-.07.07-.124.152-.054.082-.091.173-.037.092-.056.188-.019.097-.018.195ZM3.954 4.046l.092 16q0 .099.02.195.02.097.059.187.038.091.093.173.055.081.125.15.07.07.152.124.083.054.174.091.091.038.188.056.096.019.195.018.098 0 .195-.02.096-.02.187-.058.09-.038.173-.093.081-.056.15-.126.07-.07.124-.152.054-.082.091-.173.037-.092.056-.188.019-.097.018-.196l-.092-16q0-.098-.02-.194-.02-.097-.059-.187-.038-.091-.093-.173-.055-.081-.125-.15-.07-.07-.152-.124-.083-.054-.174-.092-.091-.037-.188-.055-.096-.019-.195-.018-.098 0-.195.02-.096.02-.187.058-.09.038-.172.093-.082.055-.151.126-.07.07-.124.152-.054.082-.091.173-.037.091-.056.188-.019.097-.018.195ZM8.954 4.017l.092 16q0 .099.02.195.02.097.059.187.038.091.093.173.055.081.125.15.07.07.152.124.083.054.174.092.091.037.188.055.096.019.195.018.098 0 .195-.02.096-.02.187-.058.09-.038.173-.093.081-.056.15-.126.07-.07.124-.152.054-.082.091-.173.037-.091.056-.188.019-.097.018-.195l-.092-16q0-.099-.02-.195-.02-.097-.059-.187-.038-.091-.093-.173-.055-.081-.125-.15-.07-.07-.152-.124-.083-.054-.174-.091-.091-.038-.188-.056-.096-.019-.195-.018-.098 0-.195.02-.096.02-.187.058-.09.038-.172.093-.082.056-.151.126-.07.07-.124.152-.054.082-.091.173-.037.092-.056.188-.019.097-.018.195ZM18.28 9.67v.001q.14.14.325.215.184.075.383.074.2-.001.382-.078.184-.078.324-.22l.008-.008q.136-.141.209-.323.073-.181.071-.377 0-.199-.078-.382-.077-.183-.219-.323l-5.028-4.971q-.142-.14-.326-.215-.184-.075-.383-.074-.199.001-.382.078t-.323.219q-.14.141-.215.325-.075.185-.074.384.001.198.078.382.077.183.219.323l5.028 4.97Z" data-follow-fill="#333"/><path fill="#333" fill-rule="evenodd" d="M13.272 8.285q-.14.142-.215.326-.075.185-.074.383 0 .2.078.383.077.183.219.323.141.14.325.215.185.075.383.074.2-.001.383-.079.183-.077.323-.218l4.97-5.029q.14-.141.216-.326.075-.184.074-.383-.002-.199-.079-.382t-.218-.323q-.142-.14-.326-.215-.184-.075-.383-.074-.2.001-.382.078-.184.077-.324.219l-4.97 5.028Z" data-follow-fill="#333"/></g></svg>