<svg viewBox="0 0 16 16" fill="none" xmlns="http://www.w3.org/2000/svg"><defs><clipPath id="a"><rect rx="0" height="16" width="16"/></clipPath></defs><g clip-path="url(#a)"><circle stroke-width="1.333" stroke="#165DFF" cy="9.333" cx="8" r="5.333" data-follow-stroke="#165DFF"/><path fill="#165DFF" fill-rule="evenodd" d="M9.333.665H6.667q-.066 0-.13.013-.065.013-.125.038-.061.025-.116.062-.054.036-.1.083-.047.046-.084.1-.036.055-.061.116-.025.06-.038.125Q6 1.266 6 1.332t.013.13q.013.064.038.125.025.06.061.115.037.055.083.101.047.047.101.083.055.037.116.062.06.025.125.038.064.013.13.013h2.666q.066 0 .13-.013.065-.013.125-.038.061-.025.116-.062.054-.036.1-.083.047-.046.084-.1.036-.055.061-.116.025-.06.038-.125.013-.064.013-.13t-.013-.13q-.013-.064-.038-.125-.025-.06-.061-.115Q9.85.907 9.805.86 9.758.814 9.704.778 9.649.74 9.588.716q-.06-.025-.125-.038Q9.4.665 9.333.665Z" data-follow-fill="#165DFF"/><path fill="#165DFF" fill-rule="evenodd" d="M7.333 1.332v2.667q0 .065.013.13.013.064.038.125.025.06.062.115.036.055.083.101.046.047.1.083.055.036.116.062.06.025.125.038.064.012.13.012t.13-.012q.064-.013.125-.038.06-.026.115-.062.055-.036.101-.083.047-.046.083-.1.037-.056.062-.116.025-.06.038-.125.013-.065.013-.13V1.332q0-.066-.013-.13t-.038-.125q-.025-.06-.062-.115Q8.518.907 8.471.86q-.046-.047-.1-.083Q8.315.74 8.254.716 8.195.691 8.13.678 8.066.665 8 .665t-.13.013q-.064.013-.125.038-.06.025-.115.062-.055.036-.101.083-.047.046-.083.1-.037.055-.062.116-.025.06-.038.125-.013.064-.013.13ZM12.138 5.805l1-1q.046-.046.083-.1.036-.055.062-.116.025-.06.038-.125.012-.064.012-.13t-.012-.13q-.013-.064-.038-.125-.026-.06-.062-.115-.037-.055-.083-.101-.046-.047-.101-.083-.055-.037-.115-.062-.06-.025-.125-.038-.065-.013-.13-.013-.066 0-.13.013-.065.013-.125.038-.061.025-.116.062-.054.036-.1.083l-1 1q-.047.046-.084.1-.036.055-.061.116-.025.06-.038.125-.013.064-.013.13t.013.13q.013.064.038.125.025.06.061.115.037.055.083.101.047.047.101.083.055.037.116.062.06.025.125.038.064.013.13.013.065 0 .13-.013.064-.013.125-.038.06-.025.115-.062.055-.036.101-.083ZM8.667 9.332v-2q0-.066-.013-.13t-.038-.125q-.025-.06-.062-.115-.036-.055-.083-.101-.046-.047-.1-.083-.055-.037-.116-.062-.06-.025-.125-.038-.064-.013-.13-.013t-.13.013q-.064.013-.125.038-.06.025-.115.062-.055.036-.101.083-.047.046-.083.1-.037.055-.062.116-.025.06-.038.125-.013.064-.013.13v2q0 .066.013.13t.038.125q.025.06.062.115.036.055.083.101.046.047.1.083.055.037.116.062.06.025.125.038.064.013.13.013t.13-.013q.064-.013.125-.038.06-.025.115-.062.055-.036.101-.083.047-.046.083-.1.037-.055.062-.116.025-.06.038-.125.013-.064.013-.13Z" data-follow-fill="#165DFF"/><path fill="#165DFF" fill-rule="evenodd" d="M8 8.667H6q-.066 0-.13.013t-.125.038q-.06.025-.115.062-.055.036-.101.083-.047.046-.083.1-.037.055-.062.116-.025.06-.038.125-.013.064-.013.13t.013.13q.013.064.038.125.025.06.062.115.036.055.083.101.046.047.1.083.055.037.116.062.06.025.125.038Q5.934 10 6 10h2q.066 0 .13-.013t.125-.038q.06-.025.115-.062.055-.036.101-.083.047-.046.083-.1.037-.055.062-.116.025-.06.038-.125.013-.064.013-.13t-.013-.13q-.013-.064-.038-.125-.025-.06-.062-.115-.036-.055-.083-.101-.046-.047-.1-.083-.055-.037-.116-.062-.06-.025-.125-.038-.064-.013-.13-.013Z" data-follow-fill="#165DFF"/></g></svg>