<svg xmlns="http://www.w3.org/2000/svg" xmlns:xlink="http://www.w3.org/1999/xlink" fill="none" version="1.1" width="92.16002655029297" height="92.16002655029297" viewBox="0 0 92.16002655029297 92.16002655029297"><defs><clipPath id="master_svg0_149_74091"><rect x="0" y="0" width="92.16002655029297" height="92.16002655029297" rx="0"/></clipPath></defs><g clip-path="url(#master_svg0_149_74091)"><g><path d="M55.28436953125,84.5286L12.93272953125,84.5286L12.93272953125,7.63146L44.91496953125,7.63146L44.91496953125,30.5258C44.91476953125,32.9939,46.93266953125,34.9857,49.40056953125,34.9532L72.23666953125,34.9532L72.23666953125,69.9065L79.86816953125,69.9065L79.86816953125,26.2149C79.87686953125,25.3,79.52046953125,24.4195,78.87786953125,23.7682L56.09996953125,0.990342C55.46656953125,0.356605,54.60746953125,0.000376909,53.71146953125,0L8.68007953125,0C6.8140195312500005,4.44905e-7,5.301270217896,1.51275,5.30127056122,3.37881L5.30127056122,88.7812C5.301270217896,90.6473,6.8140195312500005,92.16,8.68007953125,92.16L55.28436953125,92.16L55.28436953125,84.5286ZM51.90556953125,7.80622L71.82896953125,27.7296L51.90556953125,27.7296L51.90556953125,7.80622Z" fill="#1890FF" fill-opacity="1"/></g><g><path d="M86.85897031249999,72.52796322265625L86.85897031249999,90.93667822265625Q86.85897031249999,91.40267822265625,86.2181703125,91.40267822265625L59.0128813125,91.40267822265625C58.6633513125,91.40267822265625,58.3720703125,91.40267822265625,58.3720703125,90.93667822265625L58.3720703125,72.52796322265625Q58.6633453125,72.12017822265625,59.0128813125,72.12017822265625L85.9268703125,72.12017822265625C86.2763703125,72.12017822265625,86.85897031249999,72.35319822265625,86.85897031249999,72.52796322265625ZM85.6355703125,90.52887822265625L85.6355703125,73.05226422265625L59.5954403125,73.05226422265625L59.5954403125,90.52887822265625L85.6355703125,90.52887822265625Z" fill="#1890FF" fill-opacity="1"/></g><g><path d="M59.0126953125,90.9366541015625L59.0126953125,72.5279541015625L66.0615953125,72.5279541015625L66.0615953125,90.9366541015625L59.0126953125,90.9366541015625Z" fill="#1890FF" fill-opacity="1"/></g><g><path d="M66.6443403125,72.52796322265625L66.6443403125,90.93667822265625C66.5881303125,91.21227822265625,66.3430203125,91.40837822265625,66.0617803125,91.40267822265625L59.0128813125,91.40267822265625C58.6633513125,91.40267822265625,58.3720703125,91.40267822265625,58.3720703125,90.93667822265625L58.3720703125,72.52796322265625Q58.6633453125,72.12017822265625,59.0128813125,72.12017822265625L66.0617803125,72.12017822265625C66.3530603125,72.12017822265625,66.6443403125,72.12017822265625,66.6443403125,72.52796322265625ZM65.4209803125,90.52887822265625L65.4209803125,73.05226422265625L59.5954403125,73.05226422265625L59.5954403125,90.52887822265625L65.4209803125,90.52887822265625Z" fill="#1890FF" fill-opacity="1"/></g><g><path d="M73.6931684375,72.52796322265625L73.6931684375,90.93667822265625Q73.4018884375,91.40267822265625,73.0523584375,91.40267822265625L66.0034544375,91.40267822265625C65.7133544375,91.43677822265624,65.4513635375,91.22717822265625,65.4208984375,90.93667822265625L65.4208984375,72.52796322265625Q65.4208984375,72.12017822265625,66.0034544375,72.12017822265625L73.0523584375,72.12017822265625C73.4018884375,72.12017822265625,73.6931684375,72.12017822265625,73.6931684375,72.52796322265625ZM72.4698084375,90.52887822265625L72.4698084375,73.05226422265625L66.6442684375,73.05226422265625L66.6442684375,90.52887822265625L72.4698084375,90.52887822265625Z" fill="#1890FF" fill-opacity="1"/></g><g><path d="M81.0336103125,72.52796322265625L81.0336103125,90.93667822265625C80.9774103125,91.21227822265625,80.7322903125,91.40837822265625,80.4510603125,91.40267822265625L73.1108763125,91.40267822265625C72.8296423125,91.40837822265625,72.5845264125,91.21227822265625,72.5283203125,90.93667822265625L72.5283203125,72.52796322265625Q72.8195953125,72.12017822265625,73.1108763125,72.12017822265625L80.2180303125,72.12017822265625C80.5093103125,72.12017822265625,80.8005903125,72.12017822265625,80.8005903125,72.52796322265625L81.0336103125,72.52796322265625ZM79.8102503125,90.52887822265625L79.8102503125,73.05226422265625L73.9847103125,73.05226422265625L73.9847103125,90.52887822265625L79.8102503125,90.52887822265625Z" fill="#1890FF" fill-opacity="1"/></g></g></svg>