<svg viewBox="0 0 24 24" fill="none" xmlns="http://www.w3.org/2000/svg"><defs><clipPath id="a"><rect rx="0" height="24" width="24"/></clipPath></defs><g clip-path="url(#a)"><path fill="#333" d="M2 18V6q0-1.657 1.172-2.828Q4.343 2 6 2h12q1.657 0 2.828 1.172Q22 4.343 22 6v12q0 1.657-1.172 2.828Q19.657 22 18 22H6q-1.657 0-2.828-1.172Q2 19.657 2 18Zm2 0q0 .828.586 1.414T6 20h12q.828 0 1.414-.586T20 18V6q0-.828-.586-1.414T18 4H6q-.828 0-1.414.586T4 6v12Z" data-follow-fill="#333"/><path fill="#333" fill-rule="evenodd" d="M8.25 12v3.897q0 .268.134.5.1.172.257.293.158.122.35.173.192.052.39.026.197-.026.369-.126l6.75-3.897q.232-.134.366-.366.1-.172.125-.37.026-.197-.025-.389-.052-.192-.173-.35-.12-.158-.293-.257L9.75 7.237q-.232-.134-.5-.134-.098 0-.195.02-.097.018-.188.056-.09.038-.173.092-.081.055-.151.125-.07.07-.124.151-.055.082-.093.173-.038.091-.057.188-.019.096-.019.195V12Zm2 2.165 1.875-1.082L14 12l-3.75-2.165v4.33Z" data-follow-fill="#333"/></g></svg>