<?xml version="1.0" encoding="UTF-8"?>
<svg width="46px" height="46px" viewBox="0 0 46 46" version="1.1" xmlns="http://www.w3.org/2000/svg" xmlns:xlink="http://www.w3.org/1999/xlink">
    <title>折线图</title>
    <defs>
        <rect id="path-1" x="0" y="0" width="44" height="44" rx="3"></rect>
    </defs>
    <g id="图表器" stroke="none" stroke-width="1" fill="none" fill-rule="evenodd">
        <g id="统计图表/筛选" transform="translate(-202.000000, -126.000000)">
            <g id="折线图" transform="translate(203.000000, 127.000000)">
                <mask id="mask-2" fill="white">
                    <use xlink:href="#path-1"></use>
                </mask>
                <use id="组-457备份-28" stroke="#DCDEE0" stroke-dasharray="2" fill-rule="nonzero" xlink:href="#path-1"></use>
                <g mask="url(#mask-2)" id="路径">
                    <g transform="translate(11.000000, 12.000000)">
                        <polygon fill="#1890FF" points="22.2605549 19.6604792 0.224656794 20 0.190235298 18.0201745 22.2261802 17.680653"></polygon>
                        <path d="M11.1138615,8.87793283 L21.5550226,2.03092801 L20.0521739,0 L10.4659996,6.2863284 L6.22379463,2.69793329 C6.19262039,2.67156268 6.16018023,2.64665269 6.12647415,2.62320333 C6.09277455,2.59975396 6.05796159,2.57787521 6.02203527,2.55756709 C5.98610894,2.53725286 5.9492348,2.51859787 5.91141283,2.50160212 C5.87359086,2.48460637 5.83499636,2.46934931 5.79562931,2.45583094 C5.75625577,2.44231256 5.71628822,2.43059399 5.67572666,2.42067522 C5.6351651,2.41075033 5.59419455,2.40267414 5.55281501,2.39644665 C5.51142897,2.39021304 5.46982221,2.38585257 5.42799472,2.38336524 C5.38617373,2.3808779 5.34432028,2.38027593 5.30243436,2.38155932 C5.26054845,2.38284271 5.21882159,2.3860023 5.17725378,2.39103808 C5.13569246,2.39607385 5.09447846,2.40296749 5.05361178,2.41171899 C5.0127451,2.42047049 4.97241725,2.43103401 4.93262822,2.44340955 C4.89283271,2.45579121 4.8537578,2.46992989 4.8154035,2.48582559 C4.77704919,2.50172741 4.73958753,2.51931291 4.7030185,2.53858209 C4.66644948,2.55785127 4.63094188,2.57871858 4.59649571,2.60118402 C4.56204306,2.62364946 4.52881088,2.64761218 4.49679919,2.67307219 C4.4647875,2.69853221 4.43413586,2.72537034 4.40484429,2.75358658 L0,6.99760148 L1.88059508,8.72734535 L5.40432191,5.33227461 L9.4837775,8.78300781 C9.53852393,8.82931374 9.59698697,8.87099642 9.65916665,8.90805583 C9.72134633,8.94512136 9.78637272,8.97704415 9.85424582,9.00382423 C9.92212541,9.03061041 9.99190064,9.05187801 10.0635715,9.06762704 C10.1352359,9.08337607 10.2077962,9.09338957 10.2812523,9.09766754 C10.3547085,9.1019455 10.4280315,9.10042682 10.5012215,9.0931115 C10.574405,9.08579618 10.6464427,9.0727881 10.7173345,9.05408728 C10.7881615,9.03538645 10.8568461,9.01125261 10.9233883,8.98168575 C10.9899955,8.95211889 11.0534865,8.91753458 11.1138615,8.87793283 Z" fill="#1890FF"></path>
                        <path d="M12.5588389,15.668356 L23,8.82135118 L21.4971513,6.79042317 L11.910977,13.0767516 L7.66877203,9.48835646 C7.63759779,9.46198585 7.60515763,9.43707587 7.57145155,9.4136265 C7.53775195,9.39017713 7.50293899,9.36829838 7.46701267,9.34799027 C7.43108634,9.32767604 7.3942122,9.30902105 7.35639023,9.29202529 C7.31856826,9.27502954 7.27997376,9.25977248 7.24060671,9.24625411 C7.20123317,9.23273573 7.16126562,9.22101716 7.12070406,9.21109839 C7.0801425,9.20117351 7.03917195,9.19309732 6.99779241,9.18686982 C6.95640637,9.18063621 6.91479961,9.17627574 6.87297212,9.17378841 C6.83115113,9.17130108 6.78929768,9.1706991 6.74741176,9.17198249 C6.70552585,9.17326588 6.66379899,9.17642547 6.62223118,9.18146125 C6.58066986,9.18649702 6.53945586,9.19339066 6.49858918,9.20214216 C6.4577225,9.21089366 6.41739465,9.22145718 6.37760563,9.23383273 C6.33781011,9.24621438 6.2987352,9.26035306 6.2603809,9.27624876 C6.22202659,9.29215058 6.18456493,9.30973608 6.1479959,9.32900526 C6.11142688,9.34827444 6.07591928,9.36914176 6.04147311,9.39160719 C6.00702046,9.41407263 5.97378828,9.43803535 5.94177659,9.46349537 C5.9097649,9.48895538 5.87911326,9.51579351 5.84982169,9.54400975 L1.4449774,13.7880246 L3.32557248,15.5177685 L6.84929931,12.1226978 L10.9287549,15.573431 C10.9835013,15.6197369 11.0419644,15.6614196 11.1041441,15.698479 C11.1663237,15.7355445 11.2313501,15.7674673 11.2992232,15.7942474 C11.3671028,15.8210336 11.436878,15.8423012 11.5085489,15.8580502 C11.5802133,15.8737992 11.6527736,15.8838127 11.7262297,15.8880907 C11.7996859,15.8923687 11.8730089,15.89085 11.9461989,15.8835347 C12.0193824,15.8762193 12.0914201,15.8632113 12.1623119,15.8445104 C12.2331389,15.8258096 12.3018235,15.8016758 12.3683657,15.7721089 C12.4349729,15.7425421 12.4984639,15.7079578 12.5588389,15.668356 Z" fill="#00B42A"></path>
                    </g>
                </g>
            </g>
        </g>
    </g>
</svg>