<svg xmlns="http://www.w3.org/2000/svg" xmlns:xlink="http://www.w3.org/1999/xlink" fill="none" version="1.1" width="45" height="45" viewBox="0 0 45 45"><g><g><g><path d="M0,37.5L0,35.5L1,35.5L1,37.5L0,37.5ZM0,33.5L0,31.5L1,31.5L1,33.5L0,33.5ZM0,29.5L0,27.5L1,27.5L1,29.5L0,29.5ZM0,25.5L0,23.5L1,23.5L1,25.5L0,25.5ZM0,21.5L0,19.5L1,19.5L1,21.5L0,21.5ZM0,17.5L0,15.5L1,15.5L1,17.5L0,17.5ZM0,13.5L0,11.5L1,11.5L1,13.5L0,13.5ZM0,9.5L0,7.5L1,7.5L1,9.5L0,9.5ZM0,5.5L0,3.5L1,3.5L1,5.5L0,5.5ZM0.751079,1.333566Q1.50413,0.378041,2.6875,0.095615L2.91964,1.0682960000000001Q2.0743799999999997,1.270029,1.53649,1.95255L0.751079,1.333566ZM4.79523,0L6.79523,0L6.79523,1L4.79523,1L4.79523,0ZM8.79523,0L10.7952,0L10.7952,1L8.79523,1L8.79523,0ZM12.7952,0L14.7952,0L14.7952,1L12.7952,1L12.7952,0ZM16.7952,0L18.7952,0L18.7952,1L16.7952,1L16.7952,0ZM20.7952,0L22.7952,0L22.7952,1L20.7952,1L20.7952,0ZM24.7952,0L26.7952,0L26.7952,1L24.7952,1L24.7952,0ZM28.7952,0L30.7952,0L30.7952,1L28.7952,1L28.7952,0ZM32.7952,0L34.7952,0L34.7952,1L32.7952,1L32.7952,0ZM36.7952,0L38.7952,0L38.7952,1L36.7952,1L36.7952,0ZM40.7952,0L41.5,0Q42.2675,0,42.9646,0.321157L42.5461,1.229398Q42.0482,1,41.5,1L40.7952,1L40.7952,0ZM44.6208,1.9156Q45,2.66244,45,3.5L45,4.090450000000001L44,4.090450000000001L44,3.5Q44,2.90173,43.7292,2.36828L44.6208,1.9156ZM45,6.09045L45,8.09045L44,8.09045L44,6.09045L45,6.09045ZM45,10.09045L45,12.0905L44,12.0905L44,10.09045L45,10.09045ZM45,14.0905L45,16.0905L44,16.0905L44,14.0905L45,14.0905ZM45,18.0905L45,20.0905L44,20.0905L44,18.0905L45,18.0905ZM45,22.0905L45,24.0905L44,24.0905L44,22.0905L45,22.0905ZM45,26.0905L45,28.0905L44,28.0905L44,26.0905L45,26.0905ZM45,30.0905L45,32.0905L44,32.0905L44,30.0905L45,30.0905ZM45,34.0905L45,36.0905L44,36.0905L44,34.0905L45,34.0905ZM45,38.0905L45,40.0905L44,40.0905L44,38.0905L45,38.0905ZM44.9325,42.1842Q44.6949,43.376,43.7699,44.1641L43.1213,43.403Q43.7821,42.84,43.9518,41.9887L44.9325,42.1842ZM41.63,44.9976Q41.565,45,41.5,45L39.6143,45L39.6143,44L41.5,44Q41.5465,44,41.5928,43.9983L41.63,44.9976ZM37.6143,45L35.6143,45L35.6143,44L37.6143,44L37.6143,45ZM33.6143,45L31.6143,45L31.6143,44L33.6143,44L33.6143,45ZM29.6143,45L27.6143,45L27.6143,44L29.6143,44L29.6143,45ZM25.6143,45L23.6143,45L23.6143,44L25.6143,44L25.6143,45ZM21.6143,45L19.6143,45L19.6143,44L21.6143,44L21.6143,45ZM17.6143,45L15.6143,45L15.6143,44L17.6143,44L17.6143,45ZM13.6143,45L11.6143,45L11.6143,44L13.6143,44L13.6143,45ZM9.61432,45L7.61432,45L7.61432,44L9.61432,44L9.61432,45ZM5.61432,45L3.61432,45L3.61432,44L5.61432,44L5.61432,45ZM1.4399359999999999,44.3295Q0.4560745,43.6132,0.12887300000000002,42.441L1.092052,42.1721Q1.325769,43.0094,2.0285200000000003,43.5211L1.4399359999999999,44.3295ZM0,41.5L0,39.5L1,39.5L1,41.5L0,41.5Z" fill="#DCDEE0" /></g><g><g><g><path d="M11.5,34.526399999999995L28,34.526399999999995Q28.2042,34.526399999999995,28.3928,34.4483Q28.5814,34.3702,28.7258,34.2258L34.2258,28.7258Q34.3702,28.5814,34.4483,28.3928Q34.526399999999995,28.2042,34.526399999999995,28L34.526399999999995,11.5Q34.526399999999995,11.398905,34.506699999999995,11.299753Q34.486999999999995,11.200601,34.4483,11.107202000000001Q34.4096,11.013802,34.3534,10.929745Q34.2973,10.845687999999999,34.2258,10.774203Q34.1543,10.702718,34.0703,10.646553Q33.9862,10.590388,33.8928,10.551701Q33.7994,10.513013,33.700199999999995,10.49329Q33.6011,10.47357,33.5,10.47357L17,10.47357Q16.79583,10.47357,16.6072,10.5517Q16.41857,10.629833,16.2742,10.774203L10.774203,16.2742Q10.629833,16.41857,10.551701,16.6072Q10.47357,16.79583,10.47357,17L10.47357,33.5Q10.47357,33.6011,10.49329,33.700199999999995Q10.513013,33.7994,10.551701,33.8928Q10.590388,33.9862,10.646553,34.0703Q10.702718,34.1543,10.774203,34.2258Q10.845687999999999,34.2973,10.929745,34.3534Q11.013802,34.4096,11.107202000000001,34.4483Q11.200601,34.486999999999995,11.299753,34.506699999999995Q11.398905,34.526399999999995,11.5,34.526399999999995ZM27.5748,32.473600000000005L12.52643,32.473600000000005L12.52643,17.425159999999998L17.425159999999998,12.52643L32.473600000000005,12.52643L32.473600000000005,27.5748L27.5748,32.473600000000005Z" fill-rule="evenodd" fill="#1890FF" /></g><g><path d="M26.975000381469727,17Q26.975000381469727,16.899046,26.994695381469725,16.800032Q27.014390381469727,16.701019,27.053024381469726,16.60775Q27.091657381469727,16.514481,27.147744381469728,16.430541Q27.203831381469726,16.346601,27.275216381469725,16.275216Q27.346601381469725,16.203831,27.430541381469727,16.147744Q27.514480381469728,16.091657,27.607749381469727,16.053024Q27.701018881469725,16.01439,27.800032781469728,15.9947Q27.899046381469727,15.975,28.000000381469725,15.975Q28.100954381469727,15.975,28.199968381469727,15.9947Q28.298981381469726,16.01439,28.392250381469726,16.053024Q28.485519381469725,16.091657,28.569459381469727,16.147744Q28.653399381469725,16.203831,28.724784381469725,16.275216Q28.796170381469725,16.346601,28.852260381469726,16.430541Q28.908340381469728,16.514481,28.946980381469725,16.60775Q28.985610381469726,16.701019,29.005300381469727,16.800032Q29.025000381469727,16.899046,29.025000381469727,17L29.026430381469726,17L29.026430381469726,33.5L29.025000381469727,33.5Q29.025000381469727,33.601,29.005300381469727,33.7Q28.985610381469726,33.799,28.946980381469725,33.8922Q28.908340381469728,33.9855,28.852260381469726,34.069500000000005Q28.796170381469725,34.153400000000005,28.724784381469725,34.2248Q28.653399381469725,34.2962,28.569459381469727,34.3523Q28.485519381469725,34.4083,28.392250381469726,34.447Q28.298981381469726,34.485600000000005,28.199967381469726,34.5053Q28.100954381469727,34.525,28.000000381469725,34.525Q27.899046381469727,34.525,27.800032781469728,34.5053Q27.701018881469725,34.485600000000005,27.607749381469727,34.447Q27.514480381469728,34.4083,27.430541381469727,34.3523Q27.346601381469725,34.2962,27.275216381469725,34.2248Q27.203831381469726,34.153400000000005,27.147744381469728,34.069500000000005Q27.091657381469727,33.9855,27.053024381469726,33.8922Q27.014390381469727,33.799,26.994695381469725,33.7Q26.975000381469727,33.601,26.975000381469727,33.5L26.973568381469725,33.5L26.973568381469725,17L26.975000381469727,17Z" fill-rule="evenodd" fill="#1890FF" /></g><g><path d="M15.974999904632568,11.5Q15.974999904632568,11.399046,15.994694904632569,11.300032Q16.01438990463257,11.201019,16.053023904632568,11.10775Q16.09165690463257,11.014481,16.14774390463257,10.930541Q16.203830904632568,10.846601,16.275215904632567,10.775216Q16.346600904632567,10.703831,16.43054090463257,10.647744Q16.51447990463257,10.591657,16.60774890463257,10.553024Q16.701018404632567,10.51439,16.80003230463257,10.4947Q16.89904590463257,10.475,16.999999904632567,10.475Q17.10095390463257,10.475,17.19996790463257,10.4947Q17.298980904632568,10.51439,17.392249904632568,10.553024Q17.485518904632567,10.591657,17.56945890463257,10.647744Q17.653398904632567,10.703831,17.724783904632567,10.775216Q17.796169904632567,10.846601,17.852259904632568,10.930541Q17.90833990463257,11.014481,17.946979904632567,11.10775Q17.985609904632568,11.201019,18.00529990463257,11.300032Q18.02499990463257,11.399046,18.02499990463257,11.5L18.02642990463257,11.5L18.02642990463257,28L18.02499990463257,28Q18.02499990463257,28.101,18.00529990463257,28.2Q17.985609904632568,28.299,17.946979904632567,28.3922Q17.90833990463257,28.4855,17.852259904632568,28.5695Q17.796169904632567,28.6534,17.724783904632567,28.7248Q17.653398904632567,28.7962,17.56945890463257,28.8523Q17.485518904632567,28.9083,17.392249904632568,28.947Q17.298980904632568,28.9856,17.199966904632568,29.0053Q17.10095390463257,29.025,16.999999904632567,29.025Q16.89904590463257,29.025,16.80003230463257,29.0053Q16.701018404632567,28.9856,16.60774890463257,28.947Q16.51447990463257,28.9083,16.43054090463257,28.8523Q16.346600904632567,28.7962,16.275215904632567,28.7248Q16.203830904632568,28.6534,16.14774390463257,28.5695Q16.09165690463257,28.4855,16.053023904632568,28.3922Q16.01438990463257,28.299,15.994694904632569,28.2Q15.974999904632568,28.101,15.974999904632568,28L15.973567904632569,28L15.973567904632569,11.5L15.974999904632568,11.5Z" fill-rule="evenodd" fill="#1890FF" /></g><g><path d="M11.5,18.02642990463257L28,18.02642990463257L28,18.02499990463257Q28.101,18.02499990463257,28.2,18.00529990463257Q28.299,17.985609904632568,28.3922,17.946979904632567Q28.4855,17.90833990463257,28.5695,17.852259904632568Q28.6534,17.796169904632567,28.7248,17.724783904632567Q28.7962,17.653398904632567,28.8523,17.56945890463257Q28.9083,17.485518904632567,28.947,17.392249904632568Q28.9856,17.298980904632568,29.0053,17.199966904632568Q29.025,17.10095390463257,29.025,16.999999904632567Q29.025,16.89904590463257,29.0053,16.80003230463257Q28.9856,16.701018404632567,28.947,16.60774890463257Q28.9083,16.51447990463257,28.8523,16.43054090463257Q28.7962,16.346600904632567,28.7248,16.275215904632567Q28.6534,16.203830904632568,28.5695,16.14774390463257Q28.4855,16.09165690463257,28.3922,16.053023904632568Q28.299,16.01438990463257,28.2,15.994694904632569Q28.101,15.974999904632568,28,15.974999904632568L28,15.973567904632569L11.5,15.973567904632569L11.5,15.974999904632568Q11.399046,15.974999904632568,11.300032,15.994694904632569Q11.201019,16.01438990463257,11.10775,16.053023904632568Q11.014481,16.09165690463257,10.930541,16.14774390463257Q10.846601,16.203830904632568,10.775216,16.275215904632567Q10.703831,16.346600904632567,10.647744,16.43054090463257Q10.591657,16.51447990463257,10.553024,16.60774890463257Q10.51439,16.701018404632567,10.4947,16.80003230463257Q10.475,16.89904590463257,10.475,16.999999904632567Q10.475,17.10095390463257,10.4947,17.19996790463257Q10.51439,17.298980904632568,10.553024,17.392249904632568Q10.591657,17.485518904632567,10.647744,17.56945890463257Q10.703831,17.653398904632567,10.775216,17.724783904632567Q10.846601,17.796169904632567,10.930541,17.852259904632568Q11.014481,17.90833990463257,11.10775,17.946979904632567Q11.201019,17.985609904632568,11.300032,18.00529990463257Q11.399046,18.02499990463257,11.5,18.02499990463257L11.5,18.02642990463257Z" fill-rule="evenodd" fill="#1890FF" /></g><g><path d="M34.22478,12.224784Q34.36895,12.080616,34.446979999999996,11.89225Q34.525,11.703885,34.525,11.5Q34.525,11.399046,34.5053,11.300032Q34.48561,11.201019,34.446979999999996,11.10775Q34.40834,11.014481,34.35226,10.930541Q34.296170000000004,10.846601,34.22478,10.775216Q34.1534,10.703831,34.06946,10.647744Q33.98552,10.591657,33.89225,10.553024Q33.79898,10.51439,33.69997,10.4947Q33.60095,10.475,33.5,10.475Q33.29611,10.475,33.10775,10.553024Q32.919380000000004,10.631047,32.77522,10.775216L32.7742,10.774203L27.274203,16.2742L27.275216,16.27522Q27.131047,16.41938,27.053024,16.60775Q26.975,16.79611,26.975,17Q26.975,17.10095,26.9947,17.19997Q27.01439,17.29898,27.053024,17.39225Q27.091657,17.48552,27.147744,17.56946Q27.203831,17.6534,27.275216,17.72478Q27.346601,17.79617,27.430541,17.85226Q27.514481,17.90834,27.60775,17.94698Q27.701019,17.98561,27.800032,18.0053Q27.899046,18.025,28,18.025Q28.203885,18.025,28.39225,17.94698Q28.580616,17.868949999999998,28.724784,17.72478L28.725797,17.7258L34.2258,12.225797L34.22478,12.224784Z" fill-rule="evenodd" fill="#1890FF" /></g><g><path d="M17.72478,28.724784Q17.868949999999998,28.580616,17.94698,28.39225Q18.025,28.203885,18.025,28Q18.025,27.899046,18.0053,27.800032Q17.98561,27.701019,17.94698,27.60775Q17.90834,27.514481,17.85226,27.430541Q17.79617,27.346601,17.72478,27.275216Q17.6534,27.203831,17.56946,27.147744Q17.48552,27.091657,17.39225,27.053024Q17.29898,27.01439,17.19997,26.9947Q17.10095,26.975,17,26.975Q16.79611,26.975,16.60775,27.053024Q16.41938,27.131047,16.27522,27.275216L16.2742,27.274203L10.774203,32.7742L10.775216,32.77522Q10.631047,32.919380000000004,10.553024,33.10775Q10.475,33.29611,10.475,33.5Q10.475,33.60095,10.4947,33.69997Q10.51439,33.79898,10.553024,33.89225Q10.591657,33.98552,10.647744,34.06946Q10.703831,34.1534,10.775216,34.22478Q10.846601,34.296170000000004,10.930541,34.35226Q11.014481,34.40834,11.10775,34.446979999999996Q11.201019,34.48561,11.300032,34.5053Q11.399046,34.525,11.5,34.525Q11.703885,34.525,11.89225,34.446979999999996Q12.080616,34.36895,12.224784,34.22478L12.225797,34.2258L17.7258,28.725797L17.72478,28.724784Z" fill-rule="evenodd" fill="#1890FF" /></g><g><path d="M17,29.026430381469726L33.5,29.026430381469726L33.5,29.025000381469727Q33.601,29.025000381469727,33.7,29.005300381469727Q33.799,28.985610381469726,33.8922,28.946980381469725Q33.9855,28.908340381469728,34.069500000000005,28.852260381469726Q34.153400000000005,28.796170381469725,34.2248,28.724784381469725Q34.2962,28.653399381469725,34.3523,28.569459381469727Q34.4083,28.485519381469725,34.447,28.392250381469726Q34.485600000000005,28.298981381469726,34.5053,28.199967381469726Q34.525,28.100954381469727,34.525,28.000000381469725Q34.525,27.899046381469727,34.5053,27.800032781469728Q34.485600000000005,27.701018881469725,34.447,27.607749381469727Q34.4083,27.514480381469728,34.3523,27.430541381469727Q34.2962,27.346601381469725,34.2248,27.275216381469725Q34.153400000000005,27.203831381469726,34.069500000000005,27.147744381469728Q33.9855,27.091657381469727,33.8922,27.053024381469726Q33.799,27.014390381469727,33.7,26.994695381469725Q33.601,26.975000381469727,33.5,26.975000381469727L33.5,26.973568381469725L17,26.973568381469725L17,26.975000381469727Q16.899046,26.975000381469727,16.800032,26.994695381469725Q16.701019,27.014390381469727,16.60775,27.053024381469726Q16.514481,27.091657381469727,16.430541,27.147744381469728Q16.346601,27.203831381469726,16.275216,27.275216381469725Q16.203831,27.346601381469725,16.147744,27.430541381469727Q16.091657,27.514480381469728,16.053024,27.607749381469727Q16.01439,27.701018881469725,15.9947,27.800032781469728Q15.975,27.899046381469727,15.975,28.000000381469725Q15.975,28.100954381469727,15.9947,28.199968381469727Q16.01439,28.298981381469726,16.053024,28.392250381469726Q16.091657,28.485519381469725,16.147744,28.569459381469727Q16.203831,28.653399381469725,16.275216,28.724784381469725Q16.346601,28.796170381469725,16.430541,28.852260381469726Q16.514481,28.908340381469728,16.60775,28.946980381469725Q16.701019,28.985610381469726,16.800032,29.005300381469727Q16.899046,29.025000381469727,17,29.025000381469727L17,29.026430381469726Z" fill-rule="evenodd" fill="#1890FF" /></g><g><rect x="14.25" y="18.833333492279053" width="11" height="12.833333015441895" rx="0" fill="#00B42A" /></g></g></g></g></g></svg>