<svg viewBox="0 0 24 24" fill="none" xmlns="http://www.w3.org/2000/svg"><defs><clipPath id="a"><rect rx="0" height="24" width="24"/></clipPath></defs><g clip-path="url(#a)"><path fill="#333" d="m16.707 4.707-8 8L8 12l.707-.707 8 8q.07.07.124.151.055.082.093.173.038.091.057.188Q17 19.9 17 20t-.02.195q-.018.097-.056.188-.038.09-.093.173-.054.081-.124.151-.07.07-.151.124-.082.055-.173.093-.091.038-.188.057Q16.098 21 16 21t-.195-.02q-.097-.018-.188-.056-.09-.038-.173-.093-.081-.054-.151-.124l-8-8q-.07-.07-.124-.151-.055-.082-.093-.173-.038-.091-.057-.188Q7 12.098 7 12t.02-.195q.018-.097.056-.188.038-.09.093-.173.054-.081.124-.151l8-8q.07-.07.151-.124.082-.055.173-.093.091-.038.188-.057Q15.902 3 16 3t.195.02q.097.018.188.056.09.038.173.093.081.054.151.124.07.07.124.151.055.082.093.173.038.091.057.188Q17 3.902 17 4t-.02.195q-.018.097-.056.188-.038.09-.093.173-.054.081-.124.151ZM17 4q0 .098-.02.195-.018.097-.056.188-.038.09-.093.173-.054.081-.124.151-.07.07-.151.124-.082.055-.173.093-.091.038-.188.057Q16.098 5 16 5t-.195-.02q-.097-.018-.188-.056-.09-.038-.173-.093-.081-.054-.151-.124-.07-.07-.124-.151-.055-.082-.093-.173-.038-.091-.057-.188Q15 4.098 15 4t.02-.195q.018-.097.056-.188.038-.09.093-.173.054-.081.124-.151.07-.07.151-.124.082-.055.173-.093.091-.038.188-.057Q15.902 3 16 3t.195.02q.097.018.188.056.09.038.173.093.081.054.151.124.07.07.124.151.055.082.093.173.038.091.057.188Q17 3.902 17 4Zm0 16q0 .099-.02.195-.018.097-.056.188-.038.09-.093.173-.054.081-.124.151-.07.07-.151.124-.082.055-.173.093-.091.038-.188.057Q16.098 21 16 21t-.195-.02q-.097-.018-.188-.056-.09-.038-.173-.093-.081-.054-.151-.124-.07-.07-.124-.151-.055-.082-.093-.173-.038-.091-.057-.188Q15 20.1 15 20t.02-.195q.018-.097.056-.188.038-.09.093-.173.054-.081.124-.151.07-.07.151-.124.082-.055.173-.093.091-.038.188-.057Q15.902 19 16 19t.195.02q.097.018.188.056.09.038.173.093.081.054.151.124.07.07.124.151.055.082.093.173.038.091.057.188Q17 19.9 17 20Z" data-follow-fill="#333"/></g></svg>