<svg viewBox="0 0 24 24" fill="none" xmlns="http://www.w3.org/2000/svg"><defs><clipPath id="a"><rect rx="0" height="24" width="24"/></clipPath><clipPath id="b"><rect rx="0" height="24" width="24"/></clipPath></defs><g clip-path="url(#a)"><rect fill-opacity=".01" fill="#FFF" rx="0" height="24" width="24"/><g clip-path="url(#b)"><path fill="currentColor" d="M16 5.91q0-.167-.033-.241.025.055.096.123.216.208.537.208H1.4q.321 0 .537-.208.071-.068.095-.123Q2 5.743 2 5.909v8.182q0 .166.032.24-.024-.055-.095-.123Q1.721 14 1.4 14h15.2q-.321 0-.537.208-.071.068-.095.123.032-.074.032-.24V5.909Zm2 0v8.18q0 .588-.202 1.046-.38.864-1.198.864H1.4q-.818 0-1.198-.864Q0 14.678 0 14.091V5.909q0-.587.202-1.045Q.582 4 1.4 4h15.2q.818 0 1.198.864.202.458.202 1.045Z"/><path fill="currentColor" d="M21 10.91q0-.167-.032-.241.024.055.095.123.216.208.537.208H6.4q.321 0 .537-.208.071-.068.095-.123-.032.074-.032.24v8.182q0 .166.032.24-.024-.055-.095-.123Q6.721 19 6.4 19h15.2q-.321 0-.537.208-.071.068-.095.123.032-.074.032-.24v-8.182Zm2 0v8.18q0 .588-.202 1.046-.38.864-1.198.864H6.4q-.818 0-1.198-.864Q5 19.678 5 19.091v-8.182q0-.587.202-1.045Q5.582 9 6.4 9h15.2q.818 0 1.198.864.202.458.202 1.045Z"/></g></g></svg>