<svg viewBox="0 0 24 24" fill="none" xmlns="http://www.w3.org/2000/svg"><defs><clipPath id="a"><rect rx="0" height="24" width="24"/></clipPath></defs><g clip-path="url(#a)"><path fill="currentColor" d="M11 4H4v16h16v-7q0-.098.02-.195.018-.097.056-.188.038-.09.093-.173.054-.081.124-.151.07-.07.151-.124.082-.055.173-.093.091-.038.188-.057Q20.9 12 21 12t.195.02q.097.018.188.056.09.038.173.093.081.054.151.124.07.07.124.151.055.082.093.173.038.091.057.188.019.097.019.195v7q0 .828-.586 1.414T20 22H4q-.828 0-1.414-.586T2 20V4q0-.828.586-1.414T4 2h7q.098 0 .195.02.097.018.188.056.09.038.173.093.081.054.151.124.07.07.124.151.055.082.093.173.038.091.057.188Q12 2.902 12 3t-.02.195q-.018.097-.056.188-.038.09-.093.173-.054.081-.124.151-.07.07-.151.124-.082.055-.173.093-.091.038-.188.057Q11.098 4 11 4Zm1-1q0 .098-.02.195-.018.097-.056.188-.038.09-.093.173-.054.081-.124.151-.07.07-.151.124-.082.055-.173.093-.091.038-.188.057Q11.098 4 11 4t-.195-.02q-.097-.018-.188-.056-.09-.038-.173-.093-.081-.054-.151-.124-.07-.07-.124-.151-.055-.082-.093-.173-.038-.091-.057-.188Q10 3.098 10 3t.02-.195q.018-.097.056-.188.038-.09.093-.173.054-.081.124-.151.07-.07.151-.124.082-.055.173-.093.091-.038.188-.057Q10.902 2 11 2t.195.02q.097.018.188.056.09.038.173.093.081.054.151.124.07.07.124.151.055.082.093.173.038.091.057.188Q12 2.902 12 3Zm10 10q0 .098-.02.195-.018.097-.056.188-.038.09-.093.173-.054.082-.124.151-.07.07-.151.124-.082.055-.173.093-.091.038-.188.057Q21.1 14 21 14t-.195-.02q-.097-.018-.188-.056-.09-.038-.173-.092-.081-.055-.151-.125-.07-.07-.124-.151-.055-.082-.093-.173-.038-.091-.057-.188Q20 13.098 20 13t.02-.195q.018-.097.056-.188.038-.09.093-.173.054-.081.124-.151.07-.07.151-.124.082-.055.173-.093.091-.038.188-.057Q20.9 12 21 12t.195.02q.097.018.188.056.09.038.173.093.081.054.151.124.07.07.124.151.055.082.093.173.038.091.057.188.019.097.019.195Z"/><path fill="currentColor" d="m18.055 3.707-8.347 8.36L9 11.36h1V15H9v-1h3.659v1l-.708-.707 8.342-8.346.707.707-.707.707-3.653-3.654.708-.707.707.707ZM16.64 2.293q.07-.07.152-.125.082-.054.173-.092.091-.038.188-.057.096-.019.195-.019.098 0 .195.02.096.018.187.056.091.038.173.093.082.054.152.124l3.652 3.654q.07.07.125.152.054.081.092.172.038.091.057.188.019.097.019.195t-.02.195q-.018.097-.056.188-.038.09-.092.172-.055.082-.125.152l-8.341 8.346q-.14.14-.325.217-.183.076-.382.076H9q-.098 0-.195-.02-.097-.018-.188-.056-.09-.038-.173-.092-.081-.055-.151-.125-.07-.07-.124-.151-.055-.082-.093-.173-.038-.091-.057-.188Q8 15.098 8 15v-3.64q0-.199.076-.382.076-.184.216-.325l8.348-8.36Z"/></g></svg>