<svg viewBox="0 0 24 24" fill="none" xmlns="http://www.w3.org/2000/svg"><defs><clipPath id="a"><rect rx="0" height="24" width="24"/></clipPath></defs><g clip-path="url(#a)"><path fill="#333" fill-rule="evenodd" d="M2.5 13h19q.099 0 .195-.02.097-.018.188-.056.09-.038.173-.093.081-.054.151-.124.07-.07.124-.151.055-.082.093-.173.038-.091.057-.188.019-.097.019-.195t-.02-.195q-.018-.097-.056-.188-.038-.09-.093-.173-.054-.081-.124-.151-.07-.07-.151-.124-.082-.055-.173-.093-.091-.038-.188-.057Q21.6 11 21.5 11h-19q-.098 0-.195.02-.097.018-.188.056-.09.038-.173.093-.081.054-.151.124-.07.07-.124.151-.055.082-.093.173-.038.091-.057.188-.019.097-.019.195t.02.195q.018.097.056.188.038.09.093.173.054.081.124.151.07.07.151.124.082.055.173.093.091.038.188.057.097.019.195.019Z" data-follow-fill="#333"/><path fill="#333" fill-rule="evenodd" d="M6.97 17.758q-.02-.081-.053-.157t-.079-.146q-.045-.07-.101-.13-.056-.062-.122-.113-.065-.051-.138-.09-.073-.04-.152-.068-.078-.027-.16-.04Q6.083 17 6 17h-.014q-.116.002-.229.03-.192.048-.352.167-.16.118-.262.288Q5 17.723 5 18v.001q0 .123.03.242.594 2.375 2.415 3.59Q9.197 23 12 23q2.197 0 3.868-1.367 1.64-1.342 1.992-3.334.38-2.154-.966-4.05-1.435-2.02-4.542-3.185Q12.181 11 12 11h-.034q-.199.007-.38.09-.18.082-.317.227-.135.146-.205.332Q11 11.819 11 12v.018q.002.075.014.149.012.073.036.144.023.071.057.138.033.067.076.128t.095.115q.052.054.111.1.06.045.125.082.065.036.135.062 2.534.95 3.614 2.471.862 1.214.627 2.544-.222 1.262-1.289 2.134Q13.483 21 12 21q-2.197 0-3.445-.832-1.178-.785-1.584-2.409ZM5.95 6.626q.105 1.522 1.017 2.92.068.105.16.19.092.084.201.143.11.06.231.09.121.031.246.031l.05-.001q.27-.014.496-.161.105-.068.19-.16.084-.092.143-.202.06-.11.09-.23.03-.121.03-.246v-.05q-.014-.27-.162-.496-.627-.963-.697-1.967-.065-.93.362-1.703.44-.794 1.313-1.257Q10.617 3 12 3q3.807 0 5.064 3.35v.001q.07.186.205.332.136.145.317.227.197.09.414.09h.016q.173-.003.335-.064.071-.026.137-.063.067-.037.127-.084.06-.047.112-.102.052-.055.095-.117.043-.063.076-.131.034-.068.056-.14.023-.073.035-.148.01-.075.01-.151v-.007q0-.178-.063-.344Q17.193 1 12 1q-1.88 0-3.315.76-1.4.741-2.128 2.056-.713 1.29-.607 2.81Z" data-follow-fill="#333"/><path fill="#333" fill-rule="evenodd" d="M17.034 14.455q.915 1.405.948 2.968.032 1.497-.744 2.791-.768 1.28-2.122 2.02Q13.713 23 12 23q-4.618 0-6.894-4.552-.101-.202-.106-.427V18q0-.162.051-.316.063-.189.194-.34.13-.15.308-.238.194-.097.41-.105L6 17q.14 0 .273.038.134.038.253.111.118.074.212.176.094.103.156.228Q8.618 21 12 21q1.203 0 2.157-.521.878-.48 1.366-1.293.48-.8.46-1.721-.021-.992-.625-1.918-.163-.25-.163-.547 0-.125.03-.245.031-.121.09-.23.06-.11.144-.202.085-.092.189-.16.25-.163.547-.163.104 0 .205.021h.001q.195.041.358.153.165.113.273.279l.001.001v.001Z" data-follow-fill="#333"/></g></svg>