<svg viewBox="0 0 20 20" fill="none" xmlns="http://www.w3.org/2000/svg"><path fill="#333" fill-rule="evenodd" d="M5 1v3q0 .098.02.195.018.097.056.188.038.09.093.173.054.081.124.151.07.07.151.124.082.055.173.093.091.038.188.057Q5.902 5 6 5h8q.098 0 .195-.02.097-.018.188-.056.09-.038.173-.093.081-.054.151-.124.07-.07.124-.151.055-.082.093-.173.038-.091.057-.188Q15 4.098 15 4V1q0-.098-.02-.195-.018-.097-.056-.188-.038-.09-.093-.173-.054-.081-.124-.151-.07-.07-.151-.124-.082-.055-.173-.093-.091-.038-.188-.057Q14.098 0 14 0H6q-.098 0-.195.02-.097.018-.188.056-.09.038-.173.093-.081.054-.151.124-.07.07-.124.151-.055.082-.093.173-.038.091-.057.188Q5 .902 5 1Zm2 2V2h6v1H7ZM2 19V1q0-.098-.02-.195-.018-.097-.056-.188-.038-.09-.093-.173-.054-.081-.124-.151-.07-.07-.151-.124-.082-.055-.173-.093Q1.292.038 1.195.02 1.098 0 1 0T.805.02Q.708.037.617.075.527.114.444.17.363.223.293.293q-.07.07-.124.151Q.114.526.076.617.038.708.02.805 0 .902 0 1v18q0 .099.02.195.018.097.056.188.038.09.093.173.054.081.124.151.07.07.151.124.082.055.173.093.091.038.188.057Q.902 20 1 20t.195-.02q.097-.018.188-.056.09-.038.173-.093.081-.054.151-.124.07-.07.124-.151.055-.082.093-.173.038-.091.057-.188Q2 19.1 2 19ZM5 8.5v3q0 .098.02.195.018.097.056.188.038.09.093.173.054.081.124.151.07.07.151.124.082.055.173.093.091.038.188.057.097.019.195.019h10q.099 0 .195-.02.097-.018.188-.056.09-.038.173-.093.081-.054.151-.124.07-.07.124-.151.055-.082.093-.173.038-.091.057-.188.019-.097.019-.195v-3q0-.098-.02-.195-.018-.097-.056-.188-.038-.09-.093-.173-.054-.081-.124-.151-.07-.07-.151-.124-.082-.055-.173-.093-.091-.038-.188-.057Q16.1 7.5 16 7.5H6q-.098 0-.195.02-.097.018-.188.056-.09.038-.173.093-.081.054-.151.124-.07.07-.124.151-.055.082-.093.173-.038.091-.057.188Q5 8.402 5 8.5Zm2 2v-1h8v1H7ZM5 16v3q0 .098.02.195.018.097.056.188.038.09.093.173.054.081.124.151.07.07.151.124.082.055.173.093.091.038.188.057Q5.902 20 6 20h13q.099 0 .195-.02.097-.018.188-.056.09-.038.173-.093.081-.054.151-.124.07-.07.124-.151.055-.082.093-.173.038-.091.057-.188Q20 19.098 20 19v-3q0-.098-.02-.195-.018-.097-.056-.188-.038-.09-.093-.173-.054-.081-.124-.151-.07-.07-.151-.124-.082-.055-.173-.093-.091-.038-.188-.057Q19.1 15 19 15H6q-.098 0-.195.02-.097.018-.188.056-.09.038-.173.093-.081.054-.151.124-.07.07-.124.151-.055.082-.093.173-.038.091-.057.188Q5 15.902 5 16Zm2 2v-1h11v1H7Z" data-follow-fill="#333"/></svg>