<svg xmlns="http://www.w3.org/2000/svg" xmlns:xlink="http://www.w3.org/1999/xlink" fill="none" version="1.1" width="24" height="24" viewBox="0 0 24 24">
    <defs>
        <clipPath id="master_svg0_1_451">
            <rect x="0" y="0" width="24" height="24" rx="0"/>
        </clipPath>
    </defs>
    <g clip-path="url(#master_svg0_1_451)">
        <g>
            <path d="M2,20L2,4Q2,3.171573,2.585786,2.585786Q3.171573,2,4,2L20,2Q20.8284,2,21.4142,2.585786Q22,3.171573,22,4L22,20Q22,20.8284,21.4142,21.4142Q20.8284,22,20,22L4,22Q3.171573,22,2.585786,21.4142Q2,20.8284,2,20ZM4,20L4,20L20,20L20,20L20,4L20,4L4,4L4,4L4,20Z" fill="currentColor" fill-stroke-opacity="1"/>
        </g>
        <g>
            <path d="M11,16L11,8Q11,7.9015086,11.019214999999999,7.80491Q11.03843,7.708311,11.076121,7.617317Q11.113812,7.526322,11.16853,7.44443Q11.223249,7.362537,11.292893,7.292893Q11.362537,7.223249,11.44443,7.16853Q11.526322,7.113812,11.617317,7.076121Q11.708311,7.03843,11.80491,7.019215Q11.9015086,7,12,7Q12.0984914,7,12.19509,7.019215Q12.291689,7.03843,12.382683,7.076121Q12.473678,7.113812,12.55557,7.16853Q12.637463,7.223249,12.707107,7.292893Q12.776751,7.362537,12.83147,7.44443Q12.886188,7.526322,12.923879,7.617317Q12.96157,7.708311,12.980785000000001,7.80491Q13,7.9015086,13,8L13,16Q13,16.098489999999998,12.980785000000001,16.19509Q12.96157,16.29169,12.923879,16.38268Q12.886188,16.47368,12.83147,16.55557Q12.776751,16.63746,12.707107,16.70711Q12.637463,16.77675,12.55557,16.83147Q12.473678,16.88619,12.382683,16.92388Q12.291689,16.961570000000002,12.19509,16.98078Q12.0984914,17,12,17Q11.9015086,17,11.80491,16.98078Q11.708311,16.961570000000002,11.617317,16.92388Q11.526322,16.88619,11.44443,16.83147Q11.362537,16.77675,11.292893,16.70711Q11.223249,16.63746,11.16853,16.55557Q11.113812,16.47368,11.076121,16.38268Q11.03843,16.29169,11.019214999999999,16.19509Q11,16.098489999999998,11,16ZM13,16Q13,16.098489999999998,12.980785000000001,16.19509Q12.96157,16.29169,12.923879,16.38268Q12.886188,16.47368,12.83147,16.55557Q12.776751,16.63746,12.707107,16.70711Q12.637463,16.77675,12.55557,16.83147Q12.473678,16.88619,12.382683,16.92388Q12.291689,16.961570000000002,12.19509,16.98078Q12.0984914,17,12,17Q11.9015086,17,11.80491,16.98078Q11.708311,16.961570000000002,11.617317,16.92388Q11.526322,16.88619,11.44443,16.83147Q11.362537,16.77675,11.292893,16.70711Q11.223249,16.63746,11.16853,16.55557Q11.113812,16.47368,11.076121,16.38268Q11.03843,16.29169,11.019214999999999,16.19509Q11,16.098489999999998,11,16Q11,15.90151,11.019214999999999,15.80491Q11.03843,15.70831,11.076121,15.61732Q11.113812,15.52632,11.16853,15.44443Q11.223249,15.36254,11.292893,15.29289Q11.362537,15.22325,11.44443,15.16853Q11.526322,15.11381,11.617317,15.07612Q11.708311,15.03843,11.80491,15.019210000000001Q11.9015086,15,12,15Q12.0984914,15,12.19509,15.01922Q12.291689,15.03843,12.382683,15.07612Q12.473678,15.11381,12.55557,15.16853Q12.637463,15.22325,12.707107,15.29289Q12.776751,15.36254,12.83147,15.44443Q12.886188,15.52632,12.923879,15.61732Q12.96157,15.70831,12.980785000000001,15.80491Q13,15.90151,13,16ZM13,8Q13,8.0984914,12.980785000000001,8.19509Q12.96157,8.291689,12.923879,8.382683Q12.886188,8.473678,12.83147,8.55557Q12.776751,8.637463,12.707107,8.707107Q12.637463,8.776751,12.55557,8.83147Q12.473678,8.886188,12.382683,8.923879Q12.291689,8.96157,12.19509,8.980785000000001Q12.0984914,9,12,9Q11.9015086,9,11.80491,8.980785000000001Q11.708311,8.96157,11.617317,8.923879Q11.526322,8.886188,11.44443,8.83147Q11.362537,8.776751,11.292893,8.707107Q11.223249,8.637463,11.16853,8.55557Q11.113812,8.473678,11.076121,8.382683Q11.03843,8.291689,11.019214999999999,8.19509Q11,8.0984914,11,8Q11,7.9015086,11.019214999999999,7.80491Q11.03843,7.708311,11.076121,7.617317Q11.113812,7.526322,11.16853,7.44443Q11.223249,7.362537,11.292893,7.292893Q11.362537,7.223249,11.44443,7.16853Q11.526322,7.113812,11.617317,7.076121Q11.708311,7.03843,11.80491,7.019215Q11.9015086,7,12,7Q12.0984914,7,12.19509,7.019215Q12.291689,7.03843,12.382683,7.076121Q12.473678,7.113812,12.55557,7.16853Q12.637463,7.223249,12.707107,7.292893Q12.776751,7.362537,12.83147,7.44443Q12.886188,7.526322,12.923879,7.617317Q12.96157,7.708311,12.980785000000001,7.80491Q13,7.9015086,13,8Z" fill="currentColor" fill-stroke-opacity="1"/>
        </g>
        <g>
            <path d="M16,9L11,9L8,9Q7.9015086,9,7.80491,8.980785000000001Q7.708311,8.96157,7.617317,8.923879Q7.526322,8.886188,7.44443,8.83147Q7.362537,8.776751,7.292893,8.707107Q7.223249,8.637463,7.16853,8.55557Q7.113812,8.473678,7.076121,8.382683Q7.03843,8.291689,7.019215,8.19509Q7,8.0984914,7,8Q7,7.9015086,7.019215,7.80491Q7.03843,7.708311,7.076121,7.617317Q7.113812,7.526322,7.16853,7.44443Q7.223249,7.362537,7.292893,7.292893Q7.362537,7.223249,7.44443,7.16853Q7.526322,7.113812,7.617317,7.076121Q7.708311,7.03843,7.80491,7.019215Q7.9015086,7,8,7L11,7L16,7Q16.098489999999998,7,16.19509,7.019215Q16.29169,7.03843,16.38268,7.076121Q16.47368,7.113812,16.55557,7.16853Q16.63746,7.223249,16.70711,7.292893Q16.77675,7.362537,16.83147,7.44443Q16.88619,7.526322,16.92388,7.617317Q16.961570000000002,7.708311,16.98078,7.80491Q17,7.9015086,17,8Q17,8.0984914,16.98078,8.19509Q16.961570000000002,8.291689,16.92388,8.382683Q16.88619,8.473678,16.83147,8.55557Q16.77675,8.637463,16.70711,8.707107Q16.63746,8.776751,16.55557,8.83147Q16.47368,8.886188,16.38268,8.923879Q16.29169,8.96157,16.19509,8.980785000000001Q16.098489999999998,9,16,9ZM17,8Q17,8.0984914,16.98078,8.19509Q16.961570000000002,8.291689,16.92388,8.382683Q16.88619,8.473678,16.83147,8.55557Q16.77675,8.637463,16.70711,8.707107Q16.63746,8.776751,16.55557,8.83147Q16.47368,8.886188,16.38268,8.923879Q16.29169,8.96157,16.19509,8.980785000000001Q16.098489999999998,9,16,9Q15.90151,9,15.80491,8.980785000000001Q15.70831,8.96157,15.61732,8.923879Q15.52632,8.886188,15.44443,8.83147Q15.36254,8.776751,15.29289,8.707107Q15.22325,8.637463,15.16853,8.55557Q15.11381,8.473678,15.07612,8.382683Q15.03843,8.291689,15.019210000000001,8.19509Q15,8.0984914,15,8Q15,7.9015086,15.019210000000001,7.80491Q15.03843,7.708311,15.07612,7.617317Q15.11381,7.526322,15.16853,7.44443Q15.22325,7.362537,15.29289,7.292893Q15.36254,7.223249,15.44443,7.16853Q15.52632,7.113812,15.61732,7.076121Q15.70831,7.03843,15.80491,7.019215Q15.90151,7,16,7Q16.098489999999998,7,16.19509,7.019215Q16.29169,7.03843,16.38268,7.076121Q16.47368,7.113812,16.55557,7.16853Q16.63746,7.223249,16.70711,7.292893Q16.77675,7.362537,16.83147,7.44443Q16.88619,7.526322,16.92388,7.617317Q16.961570000000002,7.708311,16.98078,7.80491Q17,7.9015086,17,8ZM9,8Q9,8.0984914,8.980785000000001,8.19509Q8.96157,8.291689,8.923879,8.382683Q8.886188,8.473678,8.83147,8.55557Q8.776751,8.637463,8.707107,8.707107Q8.637463,8.776751,8.55557,8.83147Q8.473678,8.886188,8.382683,8.923879Q8.291689,8.96157,8.19509,8.980785000000001Q8.0984914,9,8,9Q7.9015086,9,7.80491,8.980785000000001Q7.708311,8.96157,7.617317,8.923879Q7.526322,8.886188,7.44443,8.83147Q7.362537,8.776751,7.292893,8.707107Q7.223249,8.637463,7.16853,8.55557Q7.113812,8.473678,7.076121,8.382683Q7.03843,8.291689,7.019215,8.19509Q7,8.0984914,7,8Q7,7.9015086,7.019215,7.80491Q7.03843,7.708311,7.076121,7.617317Q7.113812,7.526322,7.16853,7.44443Q7.223249,7.362537,7.292893,7.292893Q7.362537,7.223249,7.44443,7.16853Q7.526322,7.113812,7.617317,7.076121Q7.708311,7.03843,7.80491,7.019215Q7.9015086,7,8,7Q8.0984914,7,8.19509,7.019215Q8.291689,7.03843,8.382683,7.076121Q8.473678,7.113812,8.55557,7.16853Q8.637463,7.223249,8.707107,7.292893Q8.776751,7.362537,8.83147,7.44443Q8.886188,7.526322,8.923879,7.617317Q8.96157,7.708311,8.980785000000001,7.80491Q9,7.9015086,9,8Z" fill="currentColor" fill-stroke-opacity="1"/>
        </g>
    </g>
</svg>