<svg xmlns="http://www.w3.org/2000/svg" xmlns:xlink="http://www.w3.org/1999/xlink" fill="none" version="1.1" width="24" height="24" viewBox="0 0 24 24"><defs><clipPath id="master_svg0_7_03671"><rect x="0" y="0" width="24" height="24" rx="0"/></clipPath></defs><g clip-path="url(#master_svg0_7_03671)"><g><g><path d="M8.5,5Q8.0858,5,7.7928999999999995,5.2928999999999995Q7.5,5.58579,7.5,6Q7.5,6.4142,7.7928999999999995,6.7071000000000005Q8.0858,7,8.5,7Q8.914200000000001,7,9.2071,6.7071000000000005Q9.5,6.4142,9.5,6Q9.5,5.58579,9.2071,5.2928999999999995Q8.914200000000001,5,8.5,5ZM8.5,3Q9.74263,3,10.621310000000001,3.878677Q11.5,4.75736,11.5,6Q11.5,7.24263,10.621310000000001,8.121310000000001Q9.74263,9,8.5,9Q7.257374,9,6.378687,8.121310000000001Q5.5,7.24263,5.5,6Q5.5,4.75736,6.378689,3.878677Q7.257372,3,8.5,3Z" fill="currentColor" fill-opacity="1"/></g><g><path d="M17.5,11Q17.0858,11,16.7929,11.2929Q16.5,11.5858,16.5,12Q16.5,12.414200000000001,16.7929,12.7071Q17.0858,13,17.5,13Q17.9142,13,18.2071,12.7071Q18.5,12.414200000000001,18.5,12Q18.5,11.5858,18.2071,11.2929Q17.9142,11,17.5,11ZM17.5,9Q18.74263,9,19.62131,9.878687Q20.5,10.757374,20.5,12Q20.5,13.24263,19.62131,14.121310000000001Q18.74263,15,17.5,15Q16.257374,15,15.378687,14.121310000000001Q14.5,13.24263,14.5,12Q14.5,10.757374,15.378687,9.878687Q16.257374,9,17.5,9Z" fill="currentColor" fill-opacity="1"/></g><g><path d="M8.5,17Q8.0858,17,7.7928999999999995,17.2929Q7.5,17.5858,7.5,18Q7.5,18.4142,7.7928999999999995,18.7071Q8.0858,19,8.5,19Q8.914200000000001,19,9.2071,18.7071Q9.5,18.4142,9.5,18Q9.5,17.5858,9.2071,17.2929Q8.914200000000001,17,8.5,17ZM8.5,15Q9.74263,15,10.621310000000001,15.878687Q11.5,16.757374,11.5,18Q11.5,19.24263,10.621310000000001,20.12131Q9.74263,21,8.5,21Q7.257374,21,6.378687,20.12131Q5.5,19.24263,5.5,18Q5.5,16.757374,6.378687,15.878687Q7.257374,15,8.5,15Z" fill="currentColor" fill-opacity="1"/></g><g><path d="M6.5,19L2,19Q1.9015086,19,1.80491,18.980785Q1.7083110000000001,18.961570000000002,1.617317,18.923879Q1.526322,18.886188,1.44443,18.83147Q1.362537,18.776751,1.2928929999999998,18.707107Q1.223249,18.637463,1.16853,18.55557Q1.113812,18.473678,1.076121,18.382683Q1.03843,18.291689,1.019215,18.19509Q1,18.0984914,1,18Q1,17.9015086,1.019215,17.80491Q1.03843,17.708311,1.076121,17.617317Q1.113812,17.526322,1.16853,17.44443Q1.223249,17.362537,1.2928929999999998,17.292893Q1.362537,17.223249,1.44443,17.16853Q1.526322,17.113812,1.617317,17.076121Q1.7083110000000001,17.038429999999998,1.80491,17.019215Q1.9015086,17,2,17L6.5,17Q6.59849,17,6.69509,17.019215Q6.79169,17.038429999999998,6.88268,17.076121Q6.97368,17.113812,7.05557,17.16853Q7.13746,17.223249,7.20711,17.292893Q7.27675,17.362537,7.33147,17.44443Q7.38619,17.526322,7.42388,17.617317Q7.46157,17.708311,7.48078,17.80491Q7.5,17.9015086,7.5,18Q7.5,18.0984914,7.48078,18.19509Q7.46157,18.291689,7.42388,18.382683Q7.38619,18.473678,7.33147,18.55557Q7.27675,18.637463,7.20711,18.707107Q7.13746,18.776751,7.05557,18.83147Q6.97368,18.886188,6.88268,18.923879Q6.79169,18.961570000000002,6.69509,18.980785Q6.59849,19,6.5,19ZM7.5,18Q7.5,18.0984914,7.48078,18.19509Q7.46157,18.291689,7.42388,18.382683Q7.38619,18.473678,7.33147,18.55557Q7.27675,18.637463,7.20711,18.707107Q7.13746,18.776751,7.05557,18.83147Q6.97368,18.886188,6.88268,18.923879Q6.79169,18.961570000000002,6.69509,18.980785Q6.59849,19,6.5,19Q6.40151,19,6.30491,18.980785Q6.20831,18.961570000000002,6.11732,18.923879Q6.02632,18.886188,5.9444300000000005,18.83147Q5.86254,18.776751,5.79289,18.707107Q5.72325,18.637463,5.6685300000000005,18.55557Q5.61381,18.473678,5.5761199999999995,18.382683Q5.53843,18.291689,5.51921,18.19509Q5.5,18.0984914,5.5,18Q5.5,17.9015086,5.51921,17.80491Q5.53843,17.708311,5.5761199999999995,17.617317Q5.61381,17.526322,5.6685300000000005,17.44443Q5.72325,17.362537,5.79289,17.292893Q5.86254,17.223249,5.9444300000000005,17.16853Q6.02632,17.113812,6.11732,17.076121Q6.20831,17.038429999999998,6.30491,17.019215Q6.40151,17,6.5,17Q6.59849,17,6.69509,17.019215Q6.79169,17.038429999999998,6.88268,17.076121Q6.97368,17.113812,7.05557,17.16853Q7.13746,17.223249,7.20711,17.292893Q7.27675,17.362537,7.33147,17.44443Q7.38619,17.526322,7.42388,17.617317Q7.46157,17.708311,7.48078,17.80491Q7.5,17.9015086,7.5,18ZM3,18Q3,18.0984914,2.980785,18.19509Q2.96157,18.291689,2.923879,18.382683Q2.8861879999999998,18.473678,2.83147,18.55557Q2.776751,18.637463,2.707107,18.707107Q2.637463,18.776751,2.55557,18.83147Q2.473678,18.886188,2.382683,18.923879Q2.291689,18.961570000000002,2.19509,18.980785Q2.0984914,19,2,19Q1.9015086,19,1.80491,18.980785Q1.7083110000000001,18.961570000000002,1.617317,18.923879Q1.526322,18.886188,1.44443,18.83147Q1.362537,18.776751,1.2928929999999998,18.707107Q1.223249,18.637463,1.16853,18.55557Q1.113812,18.473678,1.076121,18.382683Q1.03843,18.291689,1.019215,18.19509Q1,18.0984914,1,18Q1,17.9015086,1.019215,17.80491Q1.03843,17.708311,1.076121,17.617317Q1.113812,17.526322,1.16853,17.44443Q1.223249,17.362537,1.2928929999999998,17.292893Q1.362537,17.223249,1.44443,17.16853Q1.526322,17.113812,1.617317,17.076121Q1.7083110000000001,17.038429999999998,1.80491,17.019215Q1.9015086,17,2,17Q2.0984914,17,2.19509,17.019215Q2.291689,17.038429999999998,2.382683,17.076121Q2.473678,17.113812,2.55557,17.16853Q2.637463,17.223249,2.707107,17.292893Q2.776751,17.362537,2.83147,17.44443Q2.8861879999999998,17.526322,2.923879,17.617317Q2.96157,17.708311,2.980785,17.80491Q3,17.9015086,3,18Z" fill="currentColor" fill-opacity="1"/></g><g><path d="M22,19L10.5,19Q10.4015086,19,10.30491,18.980785Q10.208311,18.961570000000002,10.117317,18.923879Q10.026322,18.886188,9.94443,18.83147Q9.862537,18.776751,9.792893,18.707107Q9.723249,18.637463,9.66853,18.55557Q9.613812,18.473678,9.576121,18.382683Q9.53843,18.291689,9.519214999999999,18.19509Q9.5,18.0984914,9.5,18Q9.5,17.9015086,9.519214999999999,17.80491Q9.53843,17.708311,9.576121,17.617317Q9.613812,17.526322,9.66853,17.44443Q9.723249,17.362537,9.792893,17.292893Q9.862537,17.223249,9.94443,17.16853Q10.026322,17.113812,10.117317,17.076121Q10.208311,17.038429999999998,10.30491,17.019215Q10.4015086,17,10.5,17L22,17Q22.0985,17,22.1951,17.019215Q22.2917,17.038429999999998,22.3827,17.076121Q22.4737,17.113812,22.5556,17.16853Q22.6375,17.223249,22.7071,17.292893Q22.776699999999998,17.362537,22.8315,17.44443Q22.886200000000002,17.526322,22.9239,17.617317Q22.9616,17.708311,22.980800000000002,17.80491Q23,17.9015086,23,18Q23,18.0984914,22.980800000000002,18.19509Q22.9616,18.291689,22.9239,18.382683Q22.886200000000002,18.473678,22.8315,18.55557Q22.776699999999998,18.637463,22.7071,18.707107Q22.6375,18.776751,22.5556,18.83147Q22.4737,18.886188,22.3827,18.923879Q22.2917,18.961570000000002,22.1951,18.980785Q22.0985,19,22,19ZM23,18Q23,18.0984914,22.980800000000002,18.19509Q22.9616,18.291689,22.9239,18.382683Q22.886200000000002,18.473678,22.8315,18.55557Q22.776699999999998,18.637463,22.7071,18.707107Q22.6375,18.776751,22.5556,18.83147Q22.4737,18.886188,22.3827,18.923879Q22.2917,18.961570000000002,22.1951,18.980785Q22.0985,19,22,19Q21.9015,19,21.8049,18.980785Q21.7083,18.961570000000002,21.6173,18.923879Q21.5263,18.886188,21.4444,18.83147Q21.3625,18.776751,21.2929,18.707107Q21.2232,18.637463,21.1685,18.55557Q21.113799999999998,18.473678,21.0761,18.382683Q21.0384,18.291689,21.019199999999998,18.19509Q21,18.0984914,21,18Q21,17.9015086,21.019199999999998,17.80491Q21.0384,17.708311,21.0761,17.617317Q21.113799999999998,17.526322,21.1685,17.44443Q21.2232,17.362537,21.2929,17.292893Q21.3625,17.223249,21.4444,17.16853Q21.5263,17.113812,21.6173,17.076121Q21.7083,17.038429999999998,21.8049,17.019215Q21.9015,17,22,17Q22.0985,17,22.1951,17.019215Q22.2917,17.038429999999998,22.3827,17.076121Q22.4737,17.113812,22.5556,17.16853Q22.6375,17.223249,22.7071,17.292893Q22.776699999999998,17.362537,22.8315,17.44443Q22.886200000000002,17.526322,22.9239,17.617317Q22.9616,17.708311,22.980800000000002,17.80491Q23,17.9015086,23,18ZM11.5,18Q11.5,18.0984914,11.480785000000001,18.19509Q11.46157,18.291689,11.423879,18.382683Q11.386188,18.473678,11.33147,18.55557Q11.276751,18.637463,11.207107,18.707107Q11.137463,18.776751,11.05557,18.83147Q10.973678,18.886188,10.882683,18.923879Q10.791689,18.961570000000002,10.69509,18.980785Q10.5984914,19,10.5,19Q10.4015086,19,10.30491,18.980785Q10.208311,18.961570000000002,10.117317,18.923879Q10.026322,18.886188,9.94443,18.83147Q9.862537,18.776751,9.792893,18.707107Q9.723249,18.637463,9.66853,18.55557Q9.613812,18.473678,9.576121,18.382683Q9.53843,18.291689,9.519214999999999,18.19509Q9.5,18.0984914,9.5,18Q9.5,17.9015086,9.519214999999999,17.80491Q9.53843,17.708311,9.576121,17.617317Q9.613812,17.526322,9.66853,17.44443Q9.723249,17.362537,9.792893,17.292893Q9.862537,17.223249,9.94443,17.16853Q10.026322,17.113812,10.117317,17.076121Q10.208311,17.038429999999998,10.30491,17.019215Q10.4015086,17,10.5,17Q10.5984914,17,10.69509,17.019215Q10.791689,17.038429999999998,10.882683,17.076121Q10.973678,17.113812,11.05557,17.16853Q11.137463,17.223249,11.207107,17.292893Q11.276751,17.362537,11.33147,17.44443Q11.386188,17.526322,11.423879,17.617317Q11.46157,17.708311,11.480785000000001,17.80491Q11.5,17.9015086,11.5,18Z" fill="currentColor" fill-opacity="1"/></g><g><path d="M6.5,7L2,7Q1.9015086,7,1.80491,6.980785Q1.7083110000000001,6.96157,1.617317,6.923879Q1.526322,6.886188,1.44443,6.83147Q1.362537,6.776751,1.2928929999999998,6.707107Q1.223249,6.637463,1.16853,6.55557Q1.113812,6.473678,1.076121,6.382683Q1.03843,6.291689,1.019215,6.19509Q1,6.0984914,1,6Q1,5.9015086,1.019215,5.80491Q1.03843,5.708311,1.076121,5.617317Q1.113812,5.526322,1.16853,5.44443Q1.223249,5.362537,1.2928929999999998,5.292893Q1.362537,5.223249,1.44443,5.16853Q1.526322,5.113812,1.617317,5.076121Q1.7083110000000001,5.03843,1.80491,5.019215Q1.9015086,5,2,5L6.5,5Q6.59849,5,6.69509,5.019215Q6.79169,5.03843,6.88268,5.076121Q6.97368,5.113812,7.05557,5.16853Q7.13746,5.223249,7.20711,5.292893Q7.27675,5.362537,7.33147,5.44443Q7.38619,5.526322,7.42388,5.617317Q7.46157,5.708311,7.48078,5.80491Q7.5,5.9015086,7.5,6Q7.5,6.0984914,7.48078,6.19509Q7.46157,6.291689,7.42388,6.382683Q7.38619,6.473678,7.33147,6.55557Q7.27675,6.637463,7.20711,6.707107Q7.13746,6.776751,7.05557,6.83147Q6.97368,6.886188,6.88268,6.923879Q6.79169,6.96157,6.69509,6.980785Q6.59849,7,6.5,7ZM7.5,6Q7.5,6.0984914,7.48078,6.19509Q7.46157,6.291689,7.42388,6.382683Q7.38619,6.473678,7.33147,6.55557Q7.27675,6.637463,7.20711,6.707107Q7.13746,6.776751,7.05557,6.83147Q6.97368,6.886188,6.88268,6.923879Q6.79169,6.96157,6.69509,6.980785Q6.59849,7,6.5,7Q6.40151,7,6.30491,6.980785Q6.20831,6.96157,6.11732,6.923879Q6.02632,6.886188,5.9444300000000005,6.83147Q5.86254,6.776751,5.79289,6.707107Q5.72325,6.637463,5.6685300000000005,6.55557Q5.61381,6.473678,5.5761199999999995,6.382683Q5.53843,6.291689,5.51921,6.19509Q5.5,6.0984914,5.5,6Q5.5,5.9015086,5.51921,5.80491Q5.53843,5.708311,5.5761199999999995,5.617317Q5.61381,5.526322,5.6685300000000005,5.44443Q5.72325,5.362537,5.79289,5.292893Q5.86254,5.223249,5.9444300000000005,5.16853Q6.02632,5.113812,6.11732,5.076121Q6.20831,5.03843,6.30491,5.019215Q6.40151,5,6.5,5Q6.59849,5,6.69509,5.019215Q6.79169,5.03843,6.88268,5.076121Q6.97368,5.113812,7.05557,5.16853Q7.13746,5.223249,7.20711,5.292893Q7.27675,5.362537,7.33147,5.44443Q7.38619,5.526322,7.42388,5.617317Q7.46157,5.708311,7.48078,5.80491Q7.5,5.9015086,7.5,6ZM3,6Q3,6.0984914,2.980785,6.19509Q2.96157,6.291689,2.923879,6.382683Q2.8861879999999998,6.473678,2.83147,6.55557Q2.776751,6.637463,2.707107,6.707107Q2.637463,6.776751,2.55557,6.83147Q2.473678,6.886188,2.382683,6.923879Q2.291689,6.96157,2.19509,6.980785Q2.0984914,7,2,7Q1.9015086,7,1.80491,6.980785Q1.7083110000000001,6.96157,1.617317,6.923879Q1.526322,6.886188,1.44443,6.83147Q1.362537,6.776751,1.2928929999999998,6.707107Q1.223249,6.637463,1.16853,6.55557Q1.113812,6.473678,1.076121,6.382683Q1.03843,6.291689,1.019215,6.19509Q1,6.0984914,1,6Q1,5.9015086,1.019215,5.80491Q1.03843,5.708311,1.076121,5.617317Q1.113812,5.526322,1.16853,5.44443Q1.223249,5.362537,1.2928929999999998,5.292893Q1.362537,5.223249,1.44443,5.16853Q1.526322,5.113812,1.617317,5.076121Q1.7083110000000001,5.03843,1.80491,5.019215Q1.9015086,5,2,5Q2.0984914,5,2.19509,5.019215Q2.291689,5.03843,2.382683,5.076121Q2.473678,5.113812,2.55557,5.16853Q2.637463,5.223249,2.707107,5.292893Q2.776751,5.362537,2.83147,5.44443Q2.8861879999999998,5.526322,2.923879,5.617317Q2.96157,5.708311,2.980785,5.80491Q3,5.9015086,3,6Z" fill="currentColor" fill-opacity="1"/></g><g><path d="M22,7L10.5,7Q10.4015086,7,10.30491,6.980785Q10.208311,6.96157,10.117317,6.923879Q10.026322,6.886188,9.94443,6.83147Q9.862537,6.776751,9.792893,6.707107Q9.723249,6.637463,9.66853,6.55557Q9.613812,6.473678,9.576121,6.382683Q9.53843,6.291689,9.519214999999999,6.19509Q9.5,6.0984914,9.5,6Q9.5,5.9015086,9.519214999999999,5.80491Q9.53843,5.708311,9.576121,5.617317Q9.613812,5.526322,9.66853,5.44443Q9.723249,5.362537,9.792893,5.292893Q9.862537,5.223249,9.94443,5.16853Q10.026322,5.113812,10.117317,5.076121Q10.208311,5.03843,10.30491,5.019215Q10.4015086,5,10.5,5L22,5Q22.0985,5,22.1951,5.019215Q22.2917,5.03843,22.3827,5.076121Q22.4737,5.113812,22.5556,5.16853Q22.6375,5.223249,22.7071,5.292893Q22.776699999999998,5.362537,22.8315,5.44443Q22.886200000000002,5.526322,22.9239,5.617317Q22.9616,5.708311,22.980800000000002,5.80491Q23,5.9015086,23,6Q23,6.0984914,22.980800000000002,6.19509Q22.9616,6.291689,22.9239,6.382683Q22.886200000000002,6.473678,22.8315,6.55557Q22.776699999999998,6.637463,22.7071,6.707107Q22.6375,6.776751,22.5556,6.83147Q22.4737,6.886188,22.3827,6.923879Q22.2917,6.96157,22.1951,6.980785Q22.0985,7,22,7ZM23,6Q23,6.0984914,22.980800000000002,6.19509Q22.9616,6.291689,22.9239,6.382683Q22.886200000000002,6.473678,22.8315,6.55557Q22.776699999999998,6.637463,22.7071,6.707107Q22.6375,6.776751,22.5556,6.83147Q22.4737,6.886188,22.3827,6.923879Q22.2917,6.96157,22.1951,6.980785Q22.0985,7,22,7Q21.9015,7,21.8049,6.980785Q21.7083,6.96157,21.6173,6.923879Q21.5263,6.886188,21.4444,6.83147Q21.3625,6.776751,21.2929,6.707107Q21.2232,6.637463,21.1685,6.55557Q21.113799999999998,6.473678,21.0761,6.382683Q21.0384,6.291689,21.019199999999998,6.19509Q21,6.0984914,21,6Q21,5.9015086,21.019199999999998,5.80491Q21.0384,5.708311,21.0761,5.617317Q21.113799999999998,5.526322,21.1685,5.44443Q21.2232,5.362537,21.2929,5.292893Q21.3625,5.223249,21.4444,5.16853Q21.5263,5.113812,21.6173,5.076121Q21.7083,5.03843,21.8049,5.019215Q21.9015,5,22,5Q22.0985,5,22.1951,5.019215Q22.2917,5.03843,22.3827,5.076121Q22.4737,5.113812,22.5556,5.16853Q22.6375,5.223249,22.7071,5.292893Q22.776699999999998,5.362537,22.8315,5.44443Q22.886200000000002,5.526322,22.9239,5.617317Q22.9616,5.708311,22.980800000000002,5.80491Q23,5.9015086,23,6ZM11.5,6Q11.5,6.0984914,11.480785000000001,6.19509Q11.46157,6.291689,11.423879,6.382683Q11.386188,6.473678,11.33147,6.55557Q11.276751,6.637463,11.207107,6.707107Q11.137463,6.776751,11.05557,6.83147Q10.973678,6.886188,10.882683,6.923879Q10.791689,6.96157,10.69509,6.980785Q10.5984914,7,10.5,7Q10.4015086,7,10.30491,6.980785Q10.208311,6.96157,10.117317,6.923879Q10.026322,6.886188,9.94443,6.83147Q9.862537,6.776751,9.792893,6.707107Q9.723249,6.637463,9.66853,6.55557Q9.613812,6.473678,9.576121,6.382683Q9.53843,6.291689,9.519214999999999,6.19509Q9.5,6.0984914,9.5,6Q9.5,5.9015086,9.519214999999999,5.80491Q9.53843,5.708311,9.576121,5.617317Q9.613812,5.526322,9.66853,5.44443Q9.723249,5.362537,9.792893,5.292893Q9.862537,5.223249,9.94443,5.16853Q10.026322,5.113812,10.117317,5.076121Q10.208311,5.03843,10.30491,5.019215Q10.4015086,5,10.5,5Q10.5984914,5,10.69509,5.019215Q10.791689,5.03843,10.882683,5.076121Q10.973678,5.113812,11.05557,5.16853Q11.137463,5.223249,11.207107,5.292893Q11.276751,5.362537,11.33147,5.44443Q11.386188,5.526322,11.423879,5.617317Q11.46157,5.708311,11.480785000000001,5.80491Q11.5,5.9015086,11.5,6Z" fill="currentColor" fill-opacity="1"/></g><g><path d="M1,22L1,2Q1,1.9015086,1.019215,1.80491Q1.03843,1.7083110000000001,1.076121,1.617317Q1.113812,1.526322,1.16853,1.44443Q1.223249,1.362537,1.2928929999999998,1.2928929999999998Q1.362537,1.223249,1.44443,1.16853Q1.526322,1.113812,1.617317,1.076121Q1.7083110000000001,1.03843,1.80491,1.019215Q1.9015086,1,2,1Q2.0984914,1,2.19509,1.019215Q2.291689,1.03843,2.382683,1.076121Q2.473678,1.113812,2.55557,1.16853Q2.637463,1.223249,2.707107,1.2928929999999998Q2.776751,1.362537,2.83147,1.44443Q2.8861879999999998,1.526322,2.923879,1.617317Q2.96157,1.7083110000000001,2.980785,1.80491Q3,1.9015086,3,2L3,22Q3,22.0985,2.980785,22.1951Q2.96157,22.2917,2.923879,22.3827Q2.8861879999999998,22.4737,2.83147,22.5556Q2.776751,22.6375,2.707107,22.7071Q2.637463,22.7767,2.55557,22.8315Q2.473678,22.8862,2.382683,22.9239Q2.291689,22.9616,2.19509,22.9808Q2.0984914,23,2,23Q1.9015086,23,1.80491,22.9808Q1.7083110000000001,22.9616,1.617317,22.9239Q1.526322,22.8862,1.44443,22.8315Q1.362537,22.7767,1.2928929999999998,22.7071Q1.223249,22.6375,1.16853,22.5556Q1.113812,22.4737,1.076121,22.3827Q1.03843,22.2917,1.019215,22.1951Q1,22.0985,1,22ZM3,22Q3,22.0985,2.980785,22.1951Q2.96157,22.2917,2.923879,22.3827Q2.8861879999999998,22.4737,2.83147,22.5556Q2.776751,22.6375,2.707107,22.7071Q2.637463,22.7767,2.55557,22.8315Q2.473678,22.8862,2.382683,22.9239Q2.291689,22.9616,2.19509,22.9808Q2.0984914,23,2,23Q1.9015086,23,1.80491,22.9808Q1.7083110000000001,22.9616,1.617317,22.9239Q1.526322,22.8862,1.44443,22.8315Q1.362537,22.7767,1.2928929999999998,22.7071Q1.223249,22.6375,1.16853,22.5556Q1.113812,22.4737,1.076121,22.3827Q1.03843,22.2917,1.019215,22.1951Q1,22.0985,1,22Q1,21.9015,1.019215,21.8049Q1.03843,21.7083,1.076121,21.6173Q1.113812,21.5263,1.16853,21.4444Q1.223249,21.3625,1.2928929999999998,21.2929Q1.362537,21.2232,1.44443,21.1685Q1.526322,21.1138,1.617317,21.0761Q1.7083110000000001,21.0384,1.80491,21.0192Q1.9015086,21,2,21Q2.0984914,21,2.19509,21.0192Q2.291689,21.0384,2.382683,21.0761Q2.473678,21.1138,2.55557,21.1685Q2.637463,21.2232,2.707107,21.2929Q2.776751,21.3625,2.83147,21.4444Q2.8861879999999998,21.5263,2.923879,21.6173Q2.96157,21.7083,2.980785,21.8049Q3,21.9015,3,22ZM3,2Q3,2.0984914,2.980785,2.19509Q2.96157,2.291689,2.923879,2.382683Q2.8861879999999998,2.473678,2.83147,2.55557Q2.776751,2.637463,2.707107,2.707107Q2.637463,2.776751,2.55557,2.83147Q2.473678,2.8861879999999998,2.382683,2.923879Q2.291689,2.96157,2.19509,2.980785Q2.0984914,3,2,3Q1.9015086,3,1.80491,2.980785Q1.7083110000000001,2.96157,1.617317,2.923879Q1.526322,2.8861879999999998,1.44443,2.83147Q1.362537,2.776751,1.2928929999999998,2.707107Q1.223249,2.637463,1.16853,2.55557Q1.113812,2.473678,1.076121,2.382683Q1.03843,2.291689,1.019215,2.19509Q1,2.0984914,1,2Q1,1.9015086,1.019215,1.80491Q1.03843,1.7083110000000001,1.076121,1.617317Q1.113812,1.526322,1.16853,1.44443Q1.223249,1.362537,1.2928929999999998,1.2928929999999998Q1.362537,1.223249,1.44443,1.16853Q1.526322,1.113812,1.617317,1.076121Q1.7083110000000001,1.03843,1.80491,1.019215Q1.9015086,1,2,1Q2.0984914,1,2.19509,1.019215Q2.291689,1.03843,2.382683,1.076121Q2.473678,1.113812,2.55557,1.16853Q2.637463,1.223249,2.707107,1.2928929999999998Q2.776751,1.362537,2.83147,1.44443Q2.8861879999999998,1.526322,2.923879,1.617317Q2.96157,1.7083110000000001,2.980785,1.80491Q3,1.9015086,3,2Z" fill="currentColor" fill-opacity="1"/></g><g><path d="M15.5,13L2,13Q1.9015086,13,1.80491,12.980785000000001Q1.7083110000000001,12.96157,1.617317,12.923879Q1.526322,12.886188,1.44443,12.83147Q1.362537,12.776751,1.2928929999999998,12.707107Q1.223249,12.637463,1.16853,12.55557Q1.113812,12.473678,1.076121,12.382683Q1.03843,12.291689,1.019215,12.19509Q1,12.0984914,1,12Q1,11.9015086,1.019215,11.80491Q1.03843,11.708311,1.076121,11.617317Q1.113812,11.526322,1.16853,11.44443Q1.223249,11.362537,1.2928929999999998,11.292893Q1.362537,11.223249,1.44443,11.16853Q1.526322,11.113812,1.617317,11.076121Q1.7083110000000001,11.03843,1.80491,11.019214999999999Q1.9015086,11,2,11L15.5,11Q15.5985,11,15.6951,11.019214999999999Q15.7917,11.03843,15.8827,11.076121Q15.9737,11.113812,16.0556,11.16853Q16.1375,11.223249,16.2071,11.292893Q16.276699999999998,11.362537,16.3315,11.44443Q16.386200000000002,11.526322,16.4239,11.617317Q16.4616,11.708311,16.480800000000002,11.80491Q16.5,11.9015086,16.5,12Q16.5,12.0984914,16.480800000000002,12.19509Q16.4616,12.291689,16.4239,12.382683Q16.386200000000002,12.473678,16.3315,12.55557Q16.276699999999998,12.637463,16.2071,12.707107Q16.1375,12.776751,16.0556,12.83147Q15.9737,12.886188,15.8827,12.923879Q15.7917,12.96157,15.6951,12.980785000000001Q15.5985,13,15.5,13ZM16.5,12Q16.5,12.0984914,16.480800000000002,12.19509Q16.4616,12.291689,16.4239,12.382683Q16.386200000000002,12.473678,16.3315,12.55557Q16.276699999999998,12.637463,16.2071,12.707107Q16.1375,12.776751,16.0556,12.83147Q15.9737,12.886188,15.8827,12.923879Q15.7917,12.96157,15.6951,12.980785000000001Q15.5985,13,15.5,13Q15.4015,13,15.3049,12.980785000000001Q15.2083,12.96157,15.1173,12.923879Q15.0263,12.886188,14.9444,12.83147Q14.8625,12.776751,14.7929,12.707107Q14.7232,12.637463,14.6685,12.55557Q14.6138,12.473678,14.5761,12.382683Q14.5384,12.291689,14.5192,12.19509Q14.5,12.0984914,14.5,12Q14.5,11.9015086,14.5192,11.80491Q14.5384,11.708311,14.5761,11.617317Q14.6138,11.526322,14.6685,11.44443Q14.7232,11.362537,14.7929,11.292893Q14.8625,11.223249,14.9444,11.16853Q15.0263,11.113812,15.1173,11.076121Q15.2083,11.03843,15.3049,11.019214999999999Q15.4015,11,15.5,11Q15.5985,11,15.6951,11.019214999999999Q15.7917,11.03843,15.8827,11.076121Q15.9737,11.113812,16.0556,11.16853Q16.1375,11.223249,16.2071,11.292893Q16.276699999999998,11.362537,16.3315,11.44443Q16.386200000000002,11.526322,16.4239,11.617317Q16.4616,11.708311,16.480800000000002,11.80491Q16.5,11.9015086,16.5,12ZM3,12Q3,12.0984914,2.980785,12.19509Q2.96157,12.291689,2.923879,12.382683Q2.8861879999999998,12.473678,2.83147,12.55557Q2.776751,12.637463,2.707107,12.707107Q2.637463,12.776751,2.55557,12.83147Q2.473678,12.886188,2.382683,12.923879Q2.291689,12.96157,2.19509,12.980785000000001Q2.0984914,13,2,13Q1.9015086,13,1.80491,12.980785000000001Q1.7083110000000001,12.96157,1.617317,12.923879Q1.526322,12.886188,1.44443,12.83147Q1.362537,12.776751,1.2928929999999998,12.707107Q1.223249,12.637463,1.16853,12.55557Q1.113812,12.473678,1.076121,12.382683Q1.03843,12.291689,1.019215,12.19509Q1,12.0984914,1,12Q1,11.9015086,1.019215,11.80491Q1.03843,11.708311,1.076121,11.617317Q1.113812,11.526322,1.16853,11.44443Q1.223249,11.362537,1.2928929999999998,11.292893Q1.362537,11.223249,1.44443,11.16853Q1.526322,11.113812,1.617317,11.076121Q1.7083110000000001,11.03843,1.80491,11.019214999999999Q1.9015086,11,2,11Q2.0984914,11,2.19509,11.019214999999999Q2.291689,11.03843,2.382683,11.076121Q2.473678,11.113812,2.55557,11.16853Q2.637463,11.223249,2.707107,11.292893Q2.776751,11.362537,2.83147,11.44443Q2.8861879999999998,11.526322,2.923879,11.617317Q2.96157,11.708311,2.980785,11.80491Q3,11.9015086,3,12Z" fill="currentColor" fill-opacity="1"/></g><g><path d="M22,13L19.5,13Q19.4015086,13,19.30491,12.980785000000001Q19.208311,12.96157,19.117317,12.923879Q19.026322,12.886188,18.94443,12.83147Q18.862537,12.776751,18.792893,12.707107Q18.723249,12.637463,18.66853,12.55557Q18.613812,12.473678,18.576121,12.382683Q18.538429999999998,12.291689,18.519215,12.19509Q18.5,12.0984914,18.5,12Q18.5,11.9015086,18.519215,11.80491Q18.538429999999998,11.708311,18.576121,11.617317Q18.613812,11.526322,18.66853,11.44443Q18.723249,11.362537,18.792893,11.292893Q18.862537,11.223249,18.94443,11.16853Q19.026322,11.113812,19.117317,11.076121Q19.208311,11.03843,19.30491,11.019214999999999Q19.4015086,11,19.5,11L22,11Q22.098489999999998,11,22.19509,11.019214999999999Q22.29169,11.03843,22.38268,11.076121Q22.47368,11.113812,22.55557,11.16853Q22.63746,11.223249,22.70711,11.292893Q22.77675,11.362537,22.83147,11.44443Q22.88619,11.526322,22.92388,11.617317Q22.961570000000002,11.708311,22.98078,11.80491Q23,11.9015086,23,12Q23,12.0984914,22.98078,12.19509Q22.961570000000002,12.291689,22.92388,12.382683Q22.88619,12.473678,22.83147,12.55557Q22.77675,12.637463,22.70711,12.707107Q22.63746,12.776751,22.55557,12.83147Q22.47368,12.886188,22.38268,12.923879Q22.29169,12.96157,22.19509,12.980785000000001Q22.098489999999998,13,22,13ZM23,12Q23,12.0984914,22.98078,12.19509Q22.961570000000002,12.291689,22.92388,12.382683Q22.88619,12.473678,22.83147,12.55557Q22.77675,12.637463,22.70711,12.707107Q22.63746,12.776751,22.55557,12.83147Q22.47368,12.886188,22.38268,12.923879Q22.29169,12.96157,22.19509,12.980785000000001Q22.098489999999998,13,22,13Q21.901510000000002,13,21.80491,12.980785000000001Q21.70831,12.96157,21.61732,12.923879Q21.52632,12.886188,21.44443,12.83147Q21.36254,12.776751,21.29289,12.707107Q21.22325,12.637463,21.16853,12.55557Q21.11381,12.473678,21.07612,12.382683Q21.038429999999998,12.291689,21.01921,12.19509Q21,12.0984914,21,12Q21,11.9015086,21.01921,11.80491Q21.038429999999998,11.708311,21.07612,11.617317Q21.11381,11.526322,21.16853,11.44443Q21.22325,11.362537,21.29289,11.292893Q21.36254,11.223249,21.44443,11.16853Q21.52632,11.113812,21.61732,11.076121Q21.70831,11.03843,21.80491,11.019214999999999Q21.901510000000002,11,22,11Q22.098489999999998,11,22.19509,11.019214999999999Q22.29169,11.03843,22.38268,11.076121Q22.47368,11.113812,22.55557,11.16853Q22.63746,11.223249,22.70711,11.292893Q22.77675,11.362537,22.83147,11.44443Q22.88619,11.526322,22.92388,11.617317Q22.961570000000002,11.708311,22.98078,11.80491Q23,11.9015086,23,12ZM20.5,12Q20.5,12.0984914,20.480785,12.19509Q20.461570000000002,12.291689,20.423879,12.382683Q20.386188,12.473678,20.33147,12.55557Q20.276751,12.637463,20.207107,12.707107Q20.137463,12.776751,20.05557,12.83147Q19.973678,12.886188,19.882683,12.923879Q19.791689,12.96157,19.69509,12.980785000000001Q19.5984914,13,19.5,13Q19.4015086,13,19.30491,12.980785000000001Q19.208311,12.96157,19.117317,12.923879Q19.026322,12.886188,18.94443,12.83147Q18.862537,12.776751,18.792893,12.707107Q18.723249,12.637463,18.66853,12.55557Q18.613812,12.473678,18.576121,12.382683Q18.538429999999998,12.291689,18.519215,12.19509Q18.5,12.0984914,18.5,12Q18.5,11.9015086,18.519215,11.80491Q18.538429999999998,11.708311,18.576121,11.617317Q18.613812,11.526322,18.66853,11.44443Q18.723249,11.362537,18.792893,11.292893Q18.862537,11.223249,18.94443,11.16853Q19.026322,11.113812,19.117317,11.076121Q19.208311,11.03843,19.30491,11.019214999999999Q19.4015086,11,19.5,11Q19.5984914,11,19.69509,11.019214999999999Q19.791689,11.03843,19.882683,11.076121Q19.973678,11.113812,20.05557,11.16853Q20.137463,11.223249,20.207107,11.292893Q20.276751,11.362537,20.33147,11.44443Q20.386188,11.526322,20.423879,11.617317Q20.461570000000002,11.708311,20.480785,11.80491Q20.5,11.9015086,20.5,12Z" fill="currentColor" fill-opacity="1"/></g></g></g></svg>