<svg viewBox="0 0 22.4 22.4" fill="none" xmlns="http://www.w3.org/2000/svg">
  <defs>
    <clipPath id="a">
      <rect rx="0" height="22.4" width="22.4" />
    </clipPath>
  </defs>
  <g clip-path="url(#a)">
    <path fill="#F55047"
      d="M10.08 0C4.513 0 0 4.513 0 10.08s4.513 10.08 10.08 10.08 10.08-4.513 10.08-10.08S15.647 0 10.08 0Zm4.003 13.084a.707.707 0 1 1-1 .999l-2.998-2.998-2.999 2.997a.707.707 0 0 1-.999-1l2.998-2.998-2.997-2.998a.707.707 0 1 1 1-1l2.998 3 2.998-3a.708.708 0 0 1 1 1l-2.999 2.999 2.998 2.999Z"
      data-follow-fill="#F55047" />
  </g>
</svg>