<svg xmlns="http://www.w3.org/2000/svg" xmlns:xlink="http://www.w3.org/1999/xlink" fill="none" version="1.1" width="44" height="44" viewBox="0 0 44 44"><defs><clipPath id="master_svg0_3_21950"><rect x="11" y="11" width="22.399999618530273" height="22.399999618530273" rx="0"/></clipPath></defs><g><g><rect x="0" y="0" width="44" height="44" rx="8" fill="#2DC76D" fill-opacity="1"/><rect x="0.2199999988079071" y="0.2199999988079071" width="43.560000002384186" height="43.560000002384186" rx="7.780000001192093" fill-opacity="0" stroke-opacity="1" stroke="#2DC76D" fill="none" stroke-width="0.4399999976158142"/></g><g><g clip-path="url(#master_svg0_3_21950)"><g><path d="M31.24544375,20.7016307421875L28.98574375,20.7016307421875C28.53294375,20.7016307421875,28.23114375,21.0035107421875,28.23114375,21.4563207421875C28.23114375,21.9091407421875,28.53294375,22.2110107421875,28.98574375,22.2110107421875L30.49294375,22.2110107421875L30.49294375,27.4873107421875L29.73824375,27.4873107421875L29.73824375,26.8835107421875C29.73824375,26.7326107421875,29.58734375,26.6582107421875,29.36204375,26.8091107421875L27.62734375,28.0144107421875C27.55294375,28.088810742187498,27.47644375,28.1654107421875,27.47644375,28.2398107421875C27.47644375,28.314110742187502,27.550743750000002,28.3907107421875,27.62734375,28.4651107421875L29.36204375,29.6704107421875C29.58734375,29.8213107421875,29.73824375,29.7447107421875,29.73824375,29.4451107421875L29.73824375,28.9922107421875L31.24544375,28.9922107421875C31.69824375,28.9922107421875,32.00014375,28.6904107421875,32.00014375,28.2376107421875L32.00014375,21.4563207421875C32.00014375,21.0035107421875,31.69824375,20.7016307421875,31.24544375,20.7016307421875ZM15.03828375,16.1035107421875L16.77297375,14.8982007421875C16.84734375,14.8238207421875,16.92390375,14.7472607421875,16.92390375,14.6728807421875C16.92390375,14.5985107421875,16.84953375,14.5219507421875,16.77297375,14.4475707421875L15.03828375,13.2422607421875C14.81297375,13.0913227421875,14.662033749999999,13.1678857421875,14.662033749999999,13.3166357421875L14.662033749999999,13.9203807421875L13.15484375,13.9203807421875C12.84421875,13.9203807421875,12.60359375,14.0625707421875,12.48546885,14.2988207421875C12.43078135,14.406010742187501,12.40234375,14.5328907421875,12.40234375,14.6750707421875L12.40234375,21.4563207421875C12.40234375,21.9091407421875,12.70421875,22.2110107421875,13.15703075,22.2110107421875L15.41890375,22.2110107421875C15.871723750000001,22.2110107421875,16.173593750000002,21.9091407421875,16.173593750000002,21.4563207421875C16.173593750000002,21.0035107421875,15.871723750000001,20.7016307421875,15.41890375,20.7016307421875L13.91172375,20.7016307421875L13.91172375,15.4253807421875L14.66640375,15.4253807421875L14.66640375,15.8782007421875C14.662033749999999,16.1800707421875,14.81296375,16.2544507421875,15.03828375,16.1035107421875ZM18.43109375,16.9325707421875L25.96924375,16.9325707421875C26.798243749999997,16.9325707421875,27.47644375,16.2544507421875,27.47644375,15.4253807421875L27.47644375,13.9182007421875C27.47644375,13.0891357421875,26.798243749999997,12.4110107421875,25.96924375,12.4110107421875L18.43109375,12.4110107421875C17.60203375,12.4110107421875,16.92390375,13.0891357421875,16.92390375,13.9182007421875L16.92390375,15.4253807421875C16.92390375,16.2544507421875,17.60203375,16.9325707421875,18.43109375,16.9325707421875ZM19.93828375,13.9182007421875C20.39109375,13.9182007421875,20.69297375,14.2200707421875,20.69297375,14.6728807421875C20.69297375,15.125700742187501,20.39109375,15.4275707421875,19.93828375,15.4275707421875C19.48547375,15.4275707421875,19.18359375,15.125700742187501,19.18359375,14.6728807421875C19.18359375,14.2200707421875,19.48547375,13.9182007421875,19.93828375,13.9182007421875ZM17.225783749999998,21.983510742187498L21.90047375,24.396310742187502C22.05140375,24.4707107421875,22.05140375,24.4707107421875,22.20234375,24.4707107421875C22.35328375,24.4707107421875,22.42764375,24.4707107421875,22.50424375,24.396310742187502L27.178943750000002,21.983510742187498C27.63174375,21.758200742187498,27.63174375,21.1544507421875,27.178943750000002,20.9291307421875L22.50204375,18.5163207421875C22.35109375,18.4419507421875,22.27671375,18.4419507421875,22.20015375,18.4419507421875C22.12578375,18.4419507421875,22.04922375,18.4419507421875,21.898283749999997,18.5163207421875L17.225783749999998,20.9291307421875C17.098903749999998,20.9860107421875,16.99828375,21.0888207421875,16.93921375,21.2157007421875C16.80578375,21.5066307421875,16.93265375,21.850070742187498,17.225783749999998,21.983510742187498ZM25.96924375,25.9801107421875L18.43109375,25.9801107421875C17.60203375,25.9801107421875,16.92390375,26.6582107421875,16.92390375,27.4873107421875L16.92390375,28.9944107421875C16.92390375,29.8235107421875,17.60203375,30.5016107421875,18.43109375,30.5016107421875L25.96924375,30.5016107421875C26.798243749999997,30.5016107421875,27.47644375,29.8235107421875,27.47644375,28.9944107421875L27.47644375,27.4851107421875C27.47644375,26.6582107421875,26.798243749999997,25.9801107421875,25.96924375,25.9801107421875ZM24.46204375,28.9944107421875C24.00924375,28.9944107421875,23.70734375,28.6926107421875,23.70734375,28.2398107421875C23.70734375,27.7869107421875,24.00924375,27.4851107421875,24.46204375,27.4851107421875C24.91484375,27.4851107421875,25.21674375,27.7869107421875,25.21674375,28.2398107421875C25.21454375,28.6926107421875,24.91484375,28.9944107421875,24.46204375,28.9944107421875Z" fill="#FFFFFF" fill-opacity="1"/></g></g></g></g></svg>