<svg viewBox="0 0 24 24" fill="none" xmlns="http://www.w3.org/2000/svg">
  <g style="mix-blend-mode:passthrough">
    <path fill="currentColor"
      d="M24 12q0 .295-.015.589-.014.294-.043.587-.029.293-.072.585-.043.291-.1.58-.058.289-.13.575-.071.285-.157.567-.085.282-.184.56-.1.277-.212.55-.113.271-.24.538-.125.266-.264.526t-.29.512q-.152.253-.315.498-.164.245-.34.481-.175.237-.362.465-.187.227-.385.446-.197.218-.406.426-.208.209-.426.406-.219.198-.446.385-.228.187-.465.363-.236.175-.481.339-.245.163-.498.315-.252.151-.512.29-.26.139-.526.265-.267.126-.539.239-.272.112-.55.212-.277.099-.559.184-.282.086-.567.157-.286.072-.575.13-.289.057-.58.1-.292.043-.585.072-.293.03-.587.043Q12.295 24 12 24t-.589-.015q-.294-.014-.587-.043-.293-.029-.585-.072-.291-.043-.58-.1-.289-.058-.575-.13-.286-.071-.567-.157-.282-.085-.56-.184-.277-.1-.55-.212-.271-.113-.538-.24-.266-.125-.526-.264t-.512-.29q-.253-.152-.498-.315-.245-.164-.481-.34-.237-.175-.465-.362-.227-.187-.446-.385-.218-.197-.426-.406-.209-.208-.406-.426-.198-.219-.385-.446-.187-.228-.362-.465-.176-.236-.34-.481-.163-.245-.315-.498-.151-.252-.29-.512-.139-.26-.265-.526-.126-.267-.239-.539-.112-.272-.212-.55-.099-.277-.184-.559-.086-.282-.157-.567-.072-.286-.13-.575-.057-.289-.1-.58-.043-.292-.072-.585-.03-.293-.044-.587Q0 12.295 0 12t.014-.589q.015-.294.044-.587.029-.293.072-.585.043-.291.1-.58.058-.289.13-.575.071-.286.157-.567.085-.282.184-.56.1-.277.212-.55.113-.271.24-.538.125-.266.264-.526t.29-.512q.152-.253.315-.498.164-.245.34-.481.175-.237.362-.465.187-.227.385-.446.197-.218.406-.426.208-.209.426-.406.219-.198.446-.385.228-.187.465-.362.236-.176.481-.34.245-.163.498-.315.252-.151.512-.29.26-.139.526-.265.267-.126.539-.239.272-.112.55-.212.277-.099.559-.184.281-.086.567-.157.286-.072.575-.13.289-.057.58-.1.292-.043.585-.072.293-.03.587-.044Q11.705 0 12 0t.589.014q.294.015.587.044.293.029.585.072.291.043.58.1.289.058.575.13.285.071.567.157.282.085.56.184.277.1.55.212.271.113.538.24.266.125.526.264t.512.29q.253.152.498.315.245.164.481.34.237.175.465.362.227.187.446.385.218.197.426.406.209.208.406.426.198.219.385.446.187.228.363.465.175.236.339.481.163.245.315.498.151.252.29.512.139.26.265.526.126.267.239.539.112.272.212.55.099.277.184.559.086.281.157.567.072.286.13.575.057.289.1.58.043.292.072.585.03.293.043.587.015.294.015.589Z"
      style="mix-blend-mode:passthrough" />
    <path fill="#FFF" fill-rule="evenodd"
      d="M10.96 17.978c1.385 0 2.209-.911 3.017-2.093 0-.14.05-.512.019-.723l-1.076 1.26c-.223.238-.5.404-.632.36a.27.27 0 0 1-.168-.306l1.794-5.77c.149-.732-.257-1.398-1.114-1.483-.902 0-2.23.932-3.04 2.113 0 .142-.025.493.004.704l1.077-1.261c.222-.238.48-.404.611-.359a.27.27 0 0 1 .162.337l-1.782 5.741c-.206.671.183 1.33 1.129 1.48ZM13.245 6c-.207.005-.41.059-.607.163a1.153 1.153 0 0 0-.469.453c-.115.199-.171.41-.169.634a1.273 1.273 0 0 0 .62 1.084c.192.11.4.166.625.166.22.004.429-.05.624-.163s.348-.267.459-.46c.11-.194.167-.404.172-.63a1.238 1.238 0 0 0-.648-1.088A1.296 1.296 0 0 0 13.245 6Z"
      style="mix-blend-mode:passthrough" />
  </g>
</svg>