<?xml version="1.0" encoding="UTF-8"?>
<svg width="46px" height="46px" viewBox="0 0 46 46" version="1.1" xmlns="http://www.w3.org/2000/svg" xmlns:xlink="http://www.w3.org/1999/xlink">
    <title>雷达图</title>
    <defs>
        <rect id="path-1" x="0" y="0" width="44" height="44" rx="3"></rect>
    </defs>
    <g id="图表器" stroke="none" stroke-width="1" fill="none" fill-rule="evenodd">
        <g id="统计图表/筛选" transform="translate(-42.000000, -298.000000)">
            <g id="雷达图" transform="translate(43.000000, 299.000000)">
                <mask id="mask-2" fill="white">
                    <use xlink:href="#path-1"></use>
                </mask>
                <use id="组-457备份-15" stroke="#DCDEE0" stroke-dasharray="2" fill-rule="nonzero" xlink:href="#path-1"></use>
                <g id="fsux_tubiao_leidatu" mask="url(#mask-2)" fill-rule="nonzero">
                    <g transform="translate(11.000000, 9.000000)">
                        <path d="M10.9999818,26 C10.92529,26 10.8356379,25.9846072 10.7757604,25.9385414 L0.224221331,19.6797885 C0.0746917899,19.6028244 0,19.4491216 0,19.2798758 L0,6.71630415 C0,6.54709591 0.0746917899,6.40863571 0.224221331,6.3163915 L10.7757604,0.0576385485 C10.9252899,-0.0192128495 11.0746735,-0.0192128495 11.2242031,0.0576385485 L21.7759246,6.3163915 C21.9253082,6.39339308 22,6.54709591 22,6.71630415 L22,19.264483 C22,19.4337288 21.9253082,19.5721514 21.7759246,19.6643956 L11.2242031,25.9385414 C11.1644715,25.9846072 11.0746735,26 10.9999818,26 Z M0.896666439,19.0031432 L10.9999818,25.0004061 L21.1032971,19.0031432 L21.1032971,7.00846714 L10.9999818,1.01101648 L0.896666439,7.00846714 L0.896666439,19.0031432 Z" id="形状" fill="#1890FF"></path>
                        <polygon id="路径" fill="#00B42A" points="10.9103297 2.8871744 19.2051694 8.19254945 16.5149876 16.0351471 10.9102932 17.296231 2.4062289 18.1111863 3.73634129 8.88443736"></polygon>
                        <polygon id="路径" fill="#9CF0AF" points="10.9103297 6.80854835 16.2908028 10.0224914 18.7567632 17.4191482 10.9103297 20.6332039 5.52985665 16.0351471 6.20244769 10.2531583"></polygon>
                    </g>
                </g>
            </g>
        </g>
    </g>
</svg>