<svg viewBox="0 0 24 24" fill="none" xmlns="http://www.w3.org/2000/svg"><defs><clipPath id="a"><rect rx="0" height="24" width="24"/></clipPath></defs><g clip-path="url(#a)"><rect fill-opacity=".01" fill="#FFF" rx="0" height="24" width="24"/><path fill="#333" fill-rule="evenodd" d="M3 3v18q0 .828.586 1.414T5 23h14q.828 0 1.414-.586T21 21V7q0-.199-.076-.383-.076-.183-.217-.324l-5-5q-.14-.14-.324-.217Q15.199 1 15 1H5q-.828 0-1.414.586T3 3Zm16 18H5V3h9.586L19 7.414V21Z"/><path fill="#333" fill-rule="evenodd" d="M8 11h8q.098 0 .195-.02.097-.018.188-.056.09-.038.173-.093.081-.054.151-.124.07-.07.124-.151.055-.082.093-.173.038-.091.057-.188Q17 10.098 17 10t-.02-.195q-.018-.097-.056-.188-.038-.09-.093-.173-.054-.081-.124-.151-.07-.07-.151-.124-.082-.055-.173-.093-.091-.038-.188-.057Q16.098 9 16 9H8q-.098 0-.195.02-.097.018-.188.056-.09.038-.173.093-.081.054-.151.124-.07.07-.124.151-.055.082-.093.173-.038.091-.057.188Q7 9.902 7 10t.02.195q.018.097.056.188.038.09.093.173.054.081.124.151.07.07.151.124.082.055.173.093.091.038.188.057Q7.902 11 8 11ZM8 15h8q.098 0 .195-.02.097-.018.188-.056.09-.038.173-.093.081-.054.151-.124.07-.07.124-.151.055-.082.093-.173.038-.091.057-.188Q17 14.098 17 14t-.02-.195q-.018-.097-.056-.188-.038-.09-.093-.173-.054-.081-.124-.151-.07-.07-.151-.124-.082-.055-.173-.093-.091-.038-.188-.057Q16.098 13 16 13H8q-.098 0-.195.02-.097.018-.188.056-.09.038-.173.093-.081.054-.151.124-.07.07-.124.151-.055.082-.093.173-.038.091-.057.188Q7 13.902 7 14t.02.195q.018.097.056.188.038.09.093.173.054.081.124.151.07.07.151.124.082.055.173.093.091.038.188.057Q7.902 15 8 15Z"/></g></svg>