<svg xmlns="http://www.w3.org/2000/svg" xmlns:xlink="http://www.w3.org/1999/xlink" fill="none" version="1.1" width="24" height="24" viewBox="0 0 24 24"><defs><clipPath id="master_svg0_1_021"><rect x="0" y="0" width="24" height="24" rx="0"/></clipPath></defs><g clip-path="url(#master_svg0_1_021)"><g style="mix-blend-mode:passthrough"><g style="mix-blend-mode:passthrough"><path d="M21.6644,6.747409L15.0265,12.64769Q13.732,13.79838,12,13.79838Q10.26798,13.79838,8.97345,12.64769L2.335636,6.747409L3.664364,5.252591L10.30218,11.15287Q11.02838,11.79838,12,11.79838Q12.97162,11.79838,13.6978,11.15287L20.3356,5.252591L21.6644,6.747409Z" fill="currentColor" fill-stroke-opacity="1"/></g><g style="mix-blend-mode:passthrough"><path d="M2 5.888888895511627C2 5.397969114226618 2.397969114226618 5 2.888888895511627 5L21.111111104488373 5C21.60203088577338 5 22 5.397969114226618 22 5.888888895511627L22 17.222222208976746C22 18.204061771546765 21.204061771546765 19 20.222222208976746 19L3.7777777910232544 19C2.795938228453236 19 2 18.204061771546765 2 17.222222208976746Z" fill-opacity="0" stroke-stroke-opacity="1" stroke="currentColor" fill="none" stroke-width="2"/></g></g></g></svg>