<svg viewBox="0 0 24 24" fill="none" xmlns="http://www.w3.org/2000/svg"><defs><clipPath id="a"><rect rx="0" height="24" width="24"/></clipPath></defs><g clip-path="url(#a)"><path fill="#333" fill-rule="evenodd" d="m6.836 18.747 4.5 4a1 1 0 0 0 1.328 0l4.5-4a1 1 0 0 0 .304-1l-3-11.5A1 1 0 0 0 13.5 5.5h-3a1 1 0 0 0-.968.748l-3 11.5a1 1 0 0 0 .304 1ZM12 20.662 8.622 17.66l2.65-10.16h1.455l2.65 10.16L12 20.662Z" data-follow-fill="#333"/><path fill="#333" fill-rule="evenodd" d="m9.945 1.168-1.5 1a1 1 0 0 0-.364 1.226l1.5 3.5a1 1 0 0 0 .919.606h3a1 1 0 0 0 .92-.606l1.5-3.5a1 1 0 0 0-.365-1.226l-1.5-1A1 1 0 0 0 13.5 1h-3a1 1 0 0 0-.555.168Zm.302 2.203.912 2.129h1.682l.912-2.13-.556-.37h-2.394l-.556.37Z" data-follow-fill="#333"/></g></svg>