<svg xmlns="http://www.w3.org/2000/svg" xmlns:xlink="http://www.w3.org/1999/xlink" fill="none" version="1.1" width="24" height="24" viewBox="0 0 24 24"><defs><clipPath id="master_svg0_1_039"><rect x="0" y="0" width="24" height="24" rx="0"/></clipPath></defs><g clip-path="url(#master_svg0_1_039)"><g><rect x="5" y="2" width="14" height="20" rx="3" fill-opacity="0" stroke-stroke-opacity="1" stroke="currentColor" fill="none" stroke-width="2"/></g><g><path d="M13,6L11,6Q10.9015086,6,10.80491,5.980785Q10.708311,5.96157,10.617317,5.923879Q10.526322,5.886188,10.44443,5.83147Q10.362537,5.776751,10.292893,5.707107Q10.223249,5.637463,10.16853,5.55557Q10.113812,5.473678,10.076121,5.382683Q10.03843,5.291689,10.019214999999999,5.19509Q10,5.0984914,10,5Q10,4.9015086,10.019214999999999,4.80491Q10.03843,4.708311,10.076121,4.617317Q10.113812,4.526322,10.16853,4.44443Q10.223249,4.362537,10.292893,4.292893Q10.362537,4.223249,10.44443,4.16853Q10.526322,4.113812,10.617317,4.076121Q10.708311,4.03843,10.80491,4.019215Q10.9015086,4,11,4L13,4Q13.09849,4,13.19509,4.019215Q13.29169,4.03843,13.38268,4.076121Q13.47368,4.113812,13.55557,4.16853Q13.63746,4.223249,13.70711,4.292893Q13.77675,4.362537,13.83147,4.44443Q13.88619,4.526322,13.92388,4.617317Q13.96157,4.708311,13.98078,4.80491Q14,4.9015086,14,5Q14,5.0984914,13.98078,5.19509Q13.96157,5.291689,13.92388,5.382683Q13.88619,5.473678,13.83147,5.55557Q13.77675,5.637463,13.70711,5.707107Q13.63746,5.776751,13.55557,5.83147Q13.47368,5.886188,13.38268,5.923879Q13.29169,5.96157,13.19509,5.980785Q13.09849,6,13,6ZM14,5Q14,5.0984914,13.98078,5.19509Q13.96157,5.291689,13.92388,5.382683Q13.88619,5.473678,13.83147,5.55557Q13.77675,5.637463,13.70711,5.707107Q13.63746,5.776751,13.55557,5.83147Q13.47368,5.886188,13.38268,5.923879Q13.29169,5.96157,13.19509,5.980785Q13.09849,6,13,6Q12.90151,6,12.80491,5.980785Q12.70831,5.96157,12.61732,5.923879Q12.52632,5.886188,12.44443,5.83147Q12.36254,5.776751,12.29289,5.707107Q12.22325,5.637463,12.16853,5.55557Q12.11381,5.473678,12.07612,5.382683Q12.03843,5.291689,12.01921,5.19509Q12,5.0984914,12,5Q12,4.9015086,12.01921,4.80491Q12.03843,4.708311,12.07612,4.617317Q12.11381,4.526322,12.16853,4.44443Q12.22325,4.362537,12.29289,4.292893Q12.36254,4.223249,12.44443,4.16853Q12.52632,4.113812,12.61732,4.076121Q12.70831,4.03843,12.80491,4.019215Q12.90151,4,13,4Q13.09849,4,13.19509,4.019215Q13.29169,4.03843,13.38268,4.076121Q13.47368,4.113812,13.55557,4.16853Q13.63746,4.223249,13.70711,4.292893Q13.77675,4.362537,13.83147,4.44443Q13.88619,4.526322,13.92388,4.617317Q13.96157,4.708311,13.98078,4.80491Q14,4.9015086,14,5ZM12,5Q12,5.0984914,11.980785000000001,5.19509Q11.96157,5.291689,11.923879,5.382683Q11.886188,5.473678,11.83147,5.55557Q11.776751,5.637463,11.707107,5.707107Q11.637463,5.776751,11.55557,5.83147Q11.473678,5.886188,11.382683,5.923879Q11.291689,5.96157,11.19509,5.980785Q11.0984914,6,11,6Q10.9015086,6,10.80491,5.980785Q10.708311,5.96157,10.617317,5.923879Q10.526322,5.886188,10.44443,5.83147Q10.362537,5.776751,10.292893,5.707107Q10.223249,5.637463,10.16853,5.55557Q10.113812,5.473678,10.076121,5.382683Q10.03843,5.291689,10.019214999999999,5.19509Q10,5.0984914,10,5Q10,4.9015086,10.019214999999999,4.80491Q10.03843,4.708311,10.076121,4.617317Q10.113812,4.526322,10.16853,4.44443Q10.223249,4.362537,10.292893,4.292893Q10.362537,4.223249,10.44443,4.16853Q10.526322,4.113812,10.617317,4.076121Q10.708311,4.03843,10.80491,4.019215Q10.9015086,4,11,4Q11.0984914,4,11.19509,4.019215Q11.291689,4.03843,11.382683,4.076121Q11.473678,4.113812,11.55557,4.16853Q11.637463,4.223249,11.707107,4.292893Q11.776751,4.362537,11.83147,4.44443Q11.886188,4.526322,11.923879,4.617317Q11.96157,4.708311,11.980785000000001,4.80491Q12,4.9015086,12,5Z" fill="currentColor" fill-stroke-opacity="1"/></g><g><path d="M14,20L10,20Q9.9015086,20,9.80491,19.980785Q9.708311,19.961570000000002,9.617317,19.923879Q9.526322,19.886188,9.44443,19.83147Q9.362537,19.776751,9.292893,19.707107Q9.223249,19.637463,9.16853,19.55557Q9.113812,19.473678,9.076121,19.382683Q9.03843,19.291689,9.019214999999999,19.19509Q9,19.0984914,9,19Q9,18.9015086,9.019214999999999,18.80491Q9.03843,18.708311,9.076121,18.617317Q9.113812,18.526322,9.16853,18.44443Q9.223249,18.362537,9.292893,18.292893Q9.362537,18.223249,9.44443,18.16853Q9.526322,18.113812,9.617317,18.076121Q9.708311,18.038429999999998,9.80491,18.019215Q9.9015086,18,10,18L14,18Q14.09849,18,14.19509,18.019215Q14.29169,18.038429999999998,14.38268,18.076121Q14.47368,18.113812,14.55557,18.16853Q14.63746,18.223249,14.70711,18.292893Q14.77675,18.362537,14.83147,18.44443Q14.88619,18.526322,14.92388,18.617317Q14.96157,18.708311,14.98078,18.80491Q15,18.9015086,15,19Q15,19.0984914,14.98078,19.19509Q14.96157,19.291689,14.92388,19.382683Q14.88619,19.473678,14.83147,19.55557Q14.77675,19.637463,14.70711,19.707107Q14.63746,19.776751,14.55557,19.83147Q14.47368,19.886188,14.38268,19.923879Q14.29169,19.961570000000002,14.19509,19.980785Q14.09849,20,14,20ZM15,19Q15,19.0984914,14.98078,19.19509Q14.96157,19.291689,14.92388,19.382683Q14.88619,19.473678,14.83147,19.55557Q14.77675,19.637463,14.70711,19.707107Q14.63746,19.776751,14.55557,19.83147Q14.47368,19.886188,14.38268,19.923879Q14.29169,19.961570000000002,14.19509,19.980785Q14.09849,20,14,20Q13.90151,20,13.80491,19.980785Q13.70831,19.961570000000002,13.61732,19.923879Q13.52632,19.886188,13.44443,19.83147Q13.36254,19.776751,13.29289,19.707107Q13.22325,19.637463,13.16853,19.55557Q13.11381,19.473678,13.07612,19.382683Q13.03843,19.291689,13.019210000000001,19.19509Q13,19.0984914,13,19Q13,18.9015086,13.019210000000001,18.80491Q13.03843,18.708311,13.07612,18.617317Q13.11381,18.526322,13.16853,18.44443Q13.22325,18.362537,13.29289,18.292893Q13.36254,18.223249,13.44443,18.16853Q13.52632,18.113812,13.61732,18.076121Q13.70831,18.038429999999998,13.80491,18.019215Q13.90151,18,14,18Q14.09849,18,14.19509,18.019215Q14.29169,18.038429999999998,14.38268,18.076121Q14.47368,18.113812,14.55557,18.16853Q14.63746,18.223249,14.70711,18.292893Q14.77675,18.362537,14.83147,18.44443Q14.88619,18.526322,14.92388,18.617317Q14.96157,18.708311,14.98078,18.80491Q15,18.9015086,15,19ZM11,19Q11,19.0984914,10.980785000000001,19.19509Q10.96157,19.291689,10.923879,19.382683Q10.886188,19.473678,10.83147,19.55557Q10.776751,19.637463,10.707107,19.707107Q10.637463,19.776751,10.55557,19.83147Q10.473678,19.886188,10.382683,19.923879Q10.291689,19.961570000000002,10.19509,19.980785Q10.0984914,20,10,20Q9.9015086,20,9.80491,19.980785Q9.708311,19.961570000000002,9.617317,19.923879Q9.526322,19.886188,9.44443,19.83147Q9.362537,19.776751,9.292893,19.707107Q9.223249,19.637463,9.16853,19.55557Q9.113812,19.473678,9.076121,19.382683Q9.03843,19.291689,9.019214999999999,19.19509Q9,19.0984914,9,19Q9,18.9015086,9.019214999999999,18.80491Q9.03843,18.708311,9.076121,18.617317Q9.113812,18.526322,9.16853,18.44443Q9.223249,18.362537,9.292893,18.292893Q9.362537,18.223249,9.44443,18.16853Q9.526322,18.113812,9.617317,18.076121Q9.708311,18.038429999999998,9.80491,18.019215Q9.9015086,18,10,18Q10.0984914,18,10.19509,18.019215Q10.291689,18.038429999999998,10.382683,18.076121Q10.473678,18.113812,10.55557,18.16853Q10.637463,18.223249,10.707107,18.292893Q10.776751,18.362537,10.83147,18.44443Q10.886188,18.526322,10.923879,18.617317Q10.96157,18.708311,10.980785000000001,18.80491Q11,18.9015086,11,19Z" fill="currentColor" fill-stroke-opacity="1"/></g></g></svg>