<svg xmlns="http://www.w3.org/2000/svg" xmlns:xlink="http://www.w3.org/1999/xlink" fill="none" version="1.1" width="36.39990234375" height="36.400390625" viewBox="0 0 36.39990234375 36.400390625"><defs><clipPath id="master_svg0_673_43600"><rect x="19" y="20" width="12" height="12" rx="0"/></clipPath></defs><g><g><g></g></g><g><g><rect x="5.200000286102295" y="2.6000001430511475" width="22.016130447387695" height="28.108108520507812" rx="2.6000001430511475" fill="#1890FF" fill-opacity="1"/></g><g><path d="M10.483871459960938,9.591892099380493L10.483871459960938,32.49999209938049C10.483871459960938,33.935892099380496,11.647931459960937,35.09999209938049,13.083871459960937,35.09999209938049L22.812871459960938,35.09999209938049L29.899971459960938,35.09999209938049C31.335971459960938,35.09999209938049,32.49997145996094,33.935892099380496,32.49997145996094,32.49999209938049L32.49997145996094,9.591892099380493C32.49997145996094,8.155952099380492,31.335971459960938,6.991892099380493,29.899971459960938,6.991892099380493L13.083871459960937,6.991892099380493C11.647931459960937,6.991892099380493,10.483871459960938,8.155952099380492,10.483871459960938,9.591892099380493Z" fill="#DDE1E8" fill-opacity="1"/></g><g><rect x="14.200000286102295" y="20.600000143051147" width="3.522580862045288" height="1.7567567825317383" rx="0.8783783912658691" fill="#1890FF" fill-opacity="1"/></g><g><rect x="14.200000286102295" y="29.600000143051147" width="3.522580862045288" height="1.7567567825317383" rx="0.8783783912658691" fill="#1890FF" fill-opacity="1"/></g><g><rect x="14.200000286102295" y="11.600000143051147" width="3.522580862045288" height="1.7567567825317383" rx="0.8783783912658691" fill="#1890FF" fill-opacity="1"/></g><g><rect x="20.200000286102295" y="11.600000143051147" width="8.806452751159668" height="1.7567567825317383" rx="0.8783783912658691" fill="#1890FF" fill-opacity="1"/></g></g><g clip-path="url(#master_svg0_673_43600)"><g><path d="M25,30.25C27.48528,30.25,29.5,28.1695,29.5,26.75C29.5,25.3305,27.48528,23.25,25,23.25C22.51472,23.25,20.5,25.33195,20.5,26.75C20.5,28.16805,22.51472,30.25,25,30.25Z" fill-rule="evenodd" fill="#1890FF" fill-opacity="1"/><path d="M21.492697,24.088543Q20,25.36752,20,26.75Q20,28.13248,21.492697,29.411459999999998Q23.05492,30.75,25,30.75Q26.94531,30.75,28.50725,29.41204Q30,28.13336,30,26.75Q30,25.36664,28.50725,24.087957Q26.94531,22.75,25,22.75Q23.05492,22.75,21.492697,24.088543ZM22.14335,28.652079999999998Q21,27.67244,21,26.75Q21,25.82756,22.14335,24.84792Q23.42474,23.75,25,23.75Q26.57557,23.75,27.8567,24.84742Q29,25.82676,29,26.75Q29,27.67323,27.8567,28.65258Q26.57557,29.75,25,29.75Q23.42474,29.75,22.14335,28.652079999999998Z" fill-rule="evenodd" fill="#1890FF" fill-opacity="1"/></g><g><path d="M26.5,26.75Q26.5,26.82369,26.49278,26.89703Q26.48555,26.97036,26.47118,27.04264Q26.4568,27.114910000000002,26.43541,27.18543Q26.41402,27.25594,26.38582,27.32402Q26.35762,27.39211,26.32288,27.4571Q26.28814,27.52208,26.2472,27.58336Q26.20626,27.64463,26.15952,27.70159Q26.11277,27.75855,26.06066,27.81066Q26.00855,27.86277,25.95159,27.90952Q25.89463,27.95626,25.83335,27.9972Q25.77208,28.03814,25.7071,28.07288Q25.64211,28.10762,25.57402,28.13582Q25.50594,28.16402,25.43543,28.18541Q25.364910000000002,28.2068,25.29264,28.22118Q25.22036,28.23555,25.14703,28.24278Q25.07369,28.25,25,28.25Q24.92631,28.25,24.85297,28.24278Q24.77964,28.23555,24.70736,28.22118Q24.635089999999998,28.2068,24.56457,28.18541Q24.494056,28.16402,24.425975,28.13582Q24.357894,28.10762,24.292905,28.07288Q24.227916,28.03814,24.166645,27.9972Q24.105373,27.95626,24.04841,27.90952Q23.991447,27.86277,23.93934,27.81066Q23.887233,27.75855,23.840484,27.70159Q23.793736,27.64463,23.752796,27.58335Q23.711855,27.52208,23.677118,27.4571Q23.642381,27.39211,23.614181,27.32402Q23.5859806,27.25594,23.5645895,27.18543Q23.5431983,27.114910000000002,23.5288221,27.04264Q23.5144458,26.97036,23.50722291,26.89703Q23.5,26.82369,23.5,26.75Q23.5,26.67631,23.50722291,26.60297Q23.5144458,26.52964,23.5288221,26.45736Q23.5431983,26.385089999999998,23.5645895,26.31457Q23.5859806,26.244056,23.614181,26.175975Q23.642381,26.107894,23.677118,26.042905Q23.711855,25.977916,23.752796,25.916645Q23.793736,25.855373,23.840484,25.79841Q23.887233,25.741447,23.93934,25.68934Q23.991447,25.637233,24.04841,25.590484Q24.105373,25.543736,24.166645,25.502796Q24.227916,25.461855,24.292905,25.427118Q24.357894,25.392381,24.425975,25.364181Q24.494056,25.3359806,24.56457,25.3145895Q24.635089999999998,25.2931983,24.70736,25.2788221Q24.77964,25.2644458,24.85297,25.25722291Q24.92631,25.25,25,25.25Q25.07369,25.25,25.14703,25.25722291Q25.22036,25.2644458,25.29264,25.2788221Q25.364910000000002,25.2931983,25.43543,25.3145895Q25.50594,25.3359806,25.57402,25.364181Q25.64211,25.392381,25.7071,25.427118Q25.77208,25.461855,25.83336,25.502796Q25.89463,25.543736,25.95159,25.590484Q26.00855,25.637233,26.06066,25.68934Q26.11277,25.741447,26.15952,25.79841Q26.20626,25.855373,26.2472,25.916645Q26.28814,25.977916,26.32288,26.042905Q26.35762,26.107894,26.38582,26.175975Q26.41402,26.244056,26.43541,26.31457Q26.4568,26.385089999999998,26.47118,26.45736Q26.48555,26.52964,26.49278,26.60297Q26.5,26.67631,26.5,26.75Z" fill="#FFFFFF" fill-opacity="1"/><path d="M23.5857896,25.3357864Q23,25.921574,23,26.75Q23,27.57842,23.5857891,28.16421Q24.171578,28.75,25,28.75Q25.82842,28.75,26.41421,28.16421Q27,27.57842,27,26.75Q27,25.921575,26.41421,25.3357865Q25.82842,24.75,25,24.75Q24.171578,24.75,23.5857896,25.3357864ZM24.292896,27.4571Q24,27.16421,24,26.75Q24,26.33579,24.292895,26.042894Q24.58579,25.75,25,25.75Q25.41421,25.75,25.7071,26.042894Q26,26.33579,26,26.75Q26,27.16421,25.7071,27.4571Q25.41421,27.75,25,27.75Q24.58579,27.75,24.292896,27.4571Z" fill-rule="evenodd" fill="#FFFFFF" fill-opacity="1"/></g><g><path d="M22.72237096875,22.52520925L22.72232496875,22.52514525Q22.71356896875,22.51292725,22.70409496875,22.50125725Q22.64631596875,22.43009025,22.56704996875,22.38404925Q22.48778296875,22.33800725,22.39733876875,22.32308025L22.39531056875,22.32274925Q22.35586766875,22.31640625,22.31591796875,22.31640625Q22.15524996875,22.31640625,22.02465696875,22.40999925Q22.01243896875,22.41875525,22.00076896875,22.42822925Q21.92960196875,22.48600825,21.88356096875,22.56527425Q21.83751896875,22.64454125,21.82259196875,22.73498545L21.82226096875,22.73701365Q21.81591796875,22.77645655,21.81591796875,22.81640625Q21.81591796875,22.97707425,21.90951096875,23.10766725L21.90955596875,23.10773125L22.55804696875,24.01259625L22.55813596875,24.01271625Q22.61607096875,24.09355625,22.70053296875,24.14607625Q22.78499396875,24.198586249999998,22.88312296875,24.21478625Q22.92355896875,24.22145625,22.96454296875,24.22145625Q22.97226096875,24.22145625,22.97997496875,24.22121625Q23.13209796875,24.21651625,23.25580396875,24.12786625Q23.35406796875,24.05743625,23.40930796875,23.949896250000002Q23.46454796875,23.84235625,23.46454796875,23.72145625Q23.46454796875,23.71075425,23.46408796875,23.70006225Q23.45770796875,23.55125725,23.37094796875,23.43019525L22.72237096875,22.52520925Z" fill-rule="evenodd" fill="#1890FF" fill-opacity="1"/></g><g><path d="M27.49956821875,22.636471375L26.85091821875,23.541546375Q26.75732421875,23.672140375,26.75732421875,23.832809375Q26.75732421875,23.847839375,26.75822721875,23.862843375Q26.76501321875,23.975614375,26.81962421875,24.074504375Q26.87423521875,24.173404375,26.96606121875,24.239214375Q27.09665521875,24.332814375,27.25732421875,24.332814375Q27.27235461875,24.332814375,27.28735781875,24.331904375Q27.40012721875,24.325124375,27.49902321875,24.270514375Q27.59792021875,24.215894375,27.66373021875,24.124074375L28.31238421875,23.218997375Q28.40597421875,23.088403375,28.40597421875,22.927734375Q28.40597421875,22.912703975,28.40507421875,22.897700775Q28.39828421875,22.784931375,28.34367421875,22.686035375Q28.28906421875,22.587138375,28.19723821875,22.521328375Q28.06664421875,22.427734375,27.90597421875,22.427734375Q27.89094421875,22.427734375,27.87594121875,22.428637375Q27.76317221875,22.435423375,27.66427521875,22.490034375Q27.56537821875,22.544645375,27.49956821875,22.636471375Z" fill-rule="evenodd" fill="#1890FF" fill-opacity="1"/></g><g><path d="M24.502197265625,21.75L24.502197265625,23.25Q24.502197265625,23.29925,24.511804265625,23.34754Q24.521412265625,23.39584,24.540257265625,23.44134Q24.559103265625,23.48684,24.586462265625,23.52778Q24.613822265625,23.56873,24.648644265625,23.60355Q24.683466265625,23.63838,24.724412265625,23.66573Q24.765358265625,23.69309,24.810855265625,23.71194Q24.856352265625,23.73079,24.904652165625,23.74039Q24.952951565625,23.75,25.002197265625,23.75Q25.051442965625,23.75,25.099742365625,23.74039Q25.148042265625,23.73079,25.193539265625,23.71194Q25.239036265625,23.69309,25.279982265625,23.66573Q25.320928265625,23.63838,25.355750265625,23.60355Q25.390572265625,23.56873,25.417932265625,23.52778Q25.445291265625,23.48684,25.464137265625,23.44134Q25.482982265625,23.39584,25.492590265625,23.34755Q25.502197265625,23.29925,25.502197265625,23.25L25.502197265625,21.75Q25.502197265625,21.7007543,25.492590265625,21.6524549Q25.482982265625,21.604155,25.464137265625,21.558658Q25.445291265625,21.513161,25.417932265625,21.472215Q25.390572265625,21.431269,25.355750265625,21.396447Q25.320928265625,21.361625,25.279982265625,21.334265Q25.239036265625,21.306906,25.193539265625,21.28806Q25.148042265625,21.269215,25.099742365625,21.259607Q25.051442965625,21.25,25.002197265625,21.25Q24.952951565625,21.25,24.904652165625,21.259607Q24.856352265625,21.269215,24.810855265625,21.28806Q24.765358265625,21.306906,24.724412265625,21.334265Q24.683466265625,21.361625,24.648644265625,21.396447Q24.613822265625,21.431269,24.586462265625,21.472215Q24.559103265625,21.513161,24.540257265625,21.558658Q24.521412265625,21.604155,24.511804265625,21.6524549Q24.502197265625,21.7007543,24.502197265625,21.75Z" fill-rule="evenodd" fill="#1890FF" fill-opacity="1"/></g></g></g></svg>