<svg xmlns="http://www.w3.org/2000/svg" xmlns:xlink="http://www.w3.org/1999/xlink" fill="none" version="1.1" width="24" height="24" viewBox="0 0 24 24"><defs><clipPath id="master_svg0_1_006"><rect x="0" y="0" width="24" height="24" rx="0"/></clipPath></defs><g clip-path="url(#master_svg0_1_006)"><g><path d="M20.7071,20.2071L19.2071,21.7071Q19.066499999999998,21.8478,18.8827,21.9239Q18.698900000000002,22,18.5,22L4,22Q3.9015086,22,3.80491,21.9808Q3.708311,21.9616,3.617317,21.9239Q3.526322,21.8862,3.44443,21.8315Q3.362537,21.7767,3.292893,21.7071Q3.223249,21.6375,3.16853,21.5556Q3.1138120000000002,21.4737,3.076121,21.3827Q3.03843,21.2917,3.019215,21.1951Q3,21.0985,3,21Q3,20.8011,3.07612,20.6173Q3.152241,20.4335,3.292893,20.2929L12.29289,11.29289L13,12L12.29289,12.70711L3.292893,3.707107Q3.223249,3.637463,3.16853,3.55557Q3.1138120000000002,3.473678,3.076121,3.382683Q3.03843,3.291689,3.019215,3.19509Q3,3.0984914,3,3Q3,2.9015086,3.019215,2.80491Q3.03843,2.708311,3.076121,2.617317Q3.1138120000000002,2.526322,3.16853,2.44443Q3.223249,2.362537,3.292893,2.292893Q3.4335459999999998,2.152241,3.617317,2.076121Q3.801088,2,4,2L18.5,2Q18.698900000000002,2,18.8827,2.07612Q19.066499999999998,2.152241,19.2071,2.292893L20.7071,3.792893Q20.7768,3.862537,20.8315,3.94443Q20.8862,4.02632,20.9239,4.11732Q20.9616,4.20831,20.9808,4.30491Q21,4.40151,21,4.5Q21,4.59849,20.9808,4.69509Q20.9616,4.79169,20.9239,4.88268Q20.8862,4.97368,20.8315,5.0555699999999995Q20.7768,5.13746,20.7071,5.20711Q20.6375,5.27675,20.5556,5.3314699999999995Q20.4737,5.38619,20.3827,5.4238800000000005Q20.2917,5.46157,20.1951,5.48078Q20.0985,5.5,20,5.5Q19.9015,5.5,19.8049,5.48078Q19.7083,5.46157,19.6173,5.4238800000000005Q19.5263,5.38619,19.4444,5.3314699999999995Q19.3625,5.27675,19.2929,5.20711L17.7929,3.707107L18.5,3L18.5,4L4,4L4,3L4.707107,2.292893L13.70711,11.29289Q13.77675,11.36254,13.83147,11.44443Q13.88619,11.52632,13.92388,11.61732Q13.96157,11.70831,13.98078,11.80491Q14,11.90151,14,12Q14,12.09849,13.98078,12.19509Q13.96157,12.29169,13.92388,12.38268Q13.88619,12.47368,13.83147,12.55557Q13.77675,12.63746,13.70711,12.70711L4.707107,21.7071L4,21L4,20L18.5,20L18.5,21L17.7929,20.2929L19.2929,18.7929Q19.3625,18.7232,19.4444,18.6685Q19.5263,18.613799999999998,19.6173,18.5761Q19.7083,18.5384,19.8049,18.519199999999998Q19.9015,18.5,20,18.5Q20.0985,18.5,20.1951,18.519199999999998Q20.2917,18.5384,20.3827,18.5761Q20.4737,18.613799999999998,20.5556,18.6685Q20.6375,18.7232,20.7071,18.7929Q20.7768,18.8625,20.8315,18.9444Q20.8862,19.0263,20.9239,19.1173Q20.9616,19.2083,20.9808,19.3049Q21,19.4015,21,19.5Q21,19.5985,20.9808,19.6951Q20.9616,19.7917,20.9239,19.8827Q20.8862,19.9737,20.8315,20.0556Q20.7768,20.1375,20.7071,20.2071ZM21,19.5Q21,19.5985,20.9808,19.6951Q20.9616,19.7917,20.9239,19.8827Q20.8862,19.9737,20.8315,20.0556Q20.7767,20.1375,20.7071,20.2071Q20.6375,20.2767,20.5556,20.3315Q20.4737,20.3862,20.3827,20.4239Q20.2917,20.4616,20.1951,20.4808Q20.0985,20.5,20,20.5Q19.9015,20.5,19.8049,20.4808Q19.7083,20.4616,19.6173,20.4239Q19.5263,20.3862,19.4444,20.3315Q19.3625,20.2767,19.2929,20.2071Q19.2232,20.1375,19.1685,20.0556Q19.113799999999998,19.9737,19.0761,19.8827Q19.0384,19.7917,19.019199999999998,19.6951Q19,19.5985,19,19.5Q19,19.4015,19.019199999999998,19.3049Q19.0384,19.2083,19.0761,19.1173Q19.113799999999998,19.0263,19.1685,18.9444Q19.2232,18.8625,19.2929,18.7929Q19.3625,18.7232,19.4444,18.6685Q19.5263,18.613799999999998,19.6173,18.5761Q19.7083,18.5384,19.8049,18.519199999999998Q19.9015,18.5,20,18.5Q20.0985,18.5,20.1951,18.519199999999998Q20.2917,18.5384,20.3827,18.5761Q20.4737,18.613799999999998,20.5556,18.6685Q20.6375,18.7232,20.7071,18.7929Q20.7767,18.8625,20.8315,18.9444Q20.8862,19.0263,20.9239,19.1173Q20.9616,19.2083,20.9808,19.3049Q21,19.4015,21,19.5ZM21,4.5Q21,4.59849,20.9808,4.69509Q20.9616,4.79169,20.9239,4.88268Q20.8862,4.97368,20.8315,5.0555699999999995Q20.7767,5.13746,20.7071,5.20711Q20.6375,5.27675,20.5556,5.3314699999999995Q20.4737,5.38619,20.3827,5.4238800000000005Q20.2917,5.46157,20.1951,5.48078Q20.0985,5.5,20,5.5Q19.9015,5.5,19.8049,5.48078Q19.7083,5.46157,19.6173,5.4238800000000005Q19.5263,5.38619,19.4444,5.3314699999999995Q19.3625,5.27675,19.2929,5.20711Q19.2232,5.13746,19.1685,5.0555699999999995Q19.113799999999998,4.97368,19.0761,4.88268Q19.0384,4.79169,19.019199999999998,4.69509Q19,4.59849,19,4.5Q19,4.40151,19.019199999999998,4.30491Q19.0384,4.20831,19.0761,4.11732Q19.113799999999998,4.02632,19.1685,3.94443Q19.2232,3.862537,19.2929,3.792893Q19.3625,3.723249,19.4444,3.66853Q19.5263,3.613811,19.6173,3.57612Q19.7083,3.538429,19.8049,3.519215Q19.9015,3.5,20,3.5Q20.0985,3.5,20.1951,3.519215Q20.2917,3.538429,20.3827,3.57612Q20.4737,3.613811,20.5556,3.66853Q20.6375,3.723249,20.7071,3.792893Q20.7767,3.862537,20.8315,3.94443Q20.8862,4.02632,20.9239,4.11732Q20.9616,4.20831,20.9808,4.30491Q21,4.40151,21,4.5Z" fill="currentColor" fill-stroke-opacity="1"/></g></g></svg>