<svg xmlns="http://www.w3.org/2000/svg" xmlns:xlink="http://www.w3.org/1999/xlink" fill="none" version="1.1" width="24" height="24" viewBox="0 0 24 24"><defs><clipPath id="master_svg0_1_355"><rect x="0" y="0" width="24" height="24" rx="0"/></clipPath></defs><g clip-path="url(#master_svg0_1_355)"><g><path d="M1,18L1,6Q1,4.757359,1.87868,3.87868Q2.757359,3,4,3L20,3Q21.2426,3,22.1213,3.87868Q23,4.757358,23,6L23,18Q23,19.2426,22.1213,20.1213Q21.2426,21,20,21L4,21Q2.757359,21,1.87868,20.1213Q1,19.2426,1,18ZM3,18Q3,18.4142,3.29289,18.7071Q3.5857900000000003,19,4,19L20,19Q20.4142,19,20.7071,18.7071Q21,18.4142,21,18L21,6Q21,5.58579,20.7071,5.29289Q20.4142,5,20,5L4,5Q3.5857900000000003,5,3.29289,5.29289Q3,5.58579,3,6L3,18Z" fill="currentColor" fill-stroke-opacity="1"/></g><g><path d="M7.5,10.5Q7.5,10.914200000000001,7.7928999999999995,11.2071Q8.0858,11.5,8.5,11.5Q8.914200000000001,11.5,9.2071,11.2071Q9.5,10.914200000000001,9.5,10.5Q9.5,10.0858,9.2071,9.7929Q8.914200000000001,9.5,8.5,9.5Q8.0858,9.5,7.7928999999999995,9.7929Q7.5,10.0858,7.5,10.5ZM5.5,10.5Q5.5,9.257374,6.378687,8.378687Q7.257374,7.5,8.5,7.5Q9.74263,7.5,10.621310000000001,8.378687Q11.5,9.257374,11.5,10.5Q11.5,11.74263,10.621310000000001,12.621310000000001Q9.74263,13.5,8.5,13.5Q7.257374,13.5,6.378687,12.621310000000001Q5.5,11.74263,5.5,10.5Z" fill="currentColor" fill-stroke-opacity="1"/></g><g><path d="M4.5,15.5Q4.5,13.84315,5.671575,12.671574Q6.84315,11.5,8.5,11.5Q10.15685,11.5,11.32843,12.671575Q12.5,13.84315,12.5,15.5Q12.5,15.59849,12.48078,15.69509Q12.46157,15.79169,12.42388,15.88268Q12.38619,15.97368,12.33147,16.05557Q12.27675,16.13746,12.20711,16.20711Q12.13746,16.27675,12.05557,16.33147Q11.97368,16.38619,11.88268,16.42388Q11.79169,16.461570000000002,11.69509,16.48078Q11.59849,16.5,11.5,16.5Q11.40151,16.5,11.30491,16.48078Q11.20831,16.461570000000002,11.11732,16.42388Q11.02632,16.38619,10.94443,16.33147Q10.86254,16.27675,10.79289,16.20711Q10.72325,16.13746,10.66853,16.05557Q10.61381,15.97368,10.57612,15.88268Q10.53843,15.79169,10.519210000000001,15.69509Q10.5,15.59849,10.5,15.5Q10.5,14.67158,9.91421,14.08579Q9.32842,13.5,8.5,13.5Q7.6715800000000005,13.5,7.08579,14.08579Q6.5,14.67158,6.5,15.5Q6.5,15.59849,6.480785,15.69509Q6.46157,15.79169,6.423879,15.88268Q6.386188,15.97368,6.33147,16.05557Q6.276751,16.13746,6.207107,16.20711Q6.137463,16.27675,6.05557,16.33147Q5.973678,16.38619,5.882683,16.42388Q5.791689,16.461570000000002,5.69509,16.48078Q5.5984914,16.5,5.5,16.5Q5.4015086,16.5,5.30491,16.48078Q5.208311,16.461570000000002,5.117317,16.42388Q5.026322,16.38619,4.94443,16.33147Q4.862537,16.27675,4.792893,16.20711Q4.723249,16.13746,4.66853,16.05557Q4.613812,15.97368,4.576121,15.88268Q4.53843,15.79169,4.519215,15.69509Q4.5,15.59849,4.5,15.5ZM6.5,15.5Q6.5,15.59849,6.480785,15.69509Q6.46157,15.79169,6.423879,15.88268Q6.386188,15.97368,6.33147,16.05557Q6.276751,16.13746,6.207107,16.20711Q6.137463,16.27675,6.05557,16.33147Q5.973678,16.38619,5.882683,16.42388Q5.791689,16.461570000000002,5.69509,16.48078Q5.5984914,16.5,5.5,16.5Q5.4015086,16.5,5.30491,16.48078Q5.208311,16.461570000000002,5.117317,16.42388Q5.026322,16.38619,4.94443,16.33147Q4.862537,16.27675,4.792893,16.20711Q4.723249,16.13746,4.66853,16.05557Q4.613812,15.97368,4.576121,15.88268Q4.53843,15.79169,4.519215,15.69509Q4.5,15.59849,4.5,15.5Q4.5,15.40151,4.519215,15.30491Q4.53843,15.20831,4.576121,15.11732Q4.613812,15.02632,4.66853,14.94443Q4.723249,14.86254,4.792893,14.79289Q4.862537,14.72325,4.94443,14.66853Q5.026322,14.61381,5.117317,14.57612Q5.208311,14.53843,5.30491,14.519210000000001Q5.4015086,14.5,5.5,14.5Q5.5984914,14.5,5.69509,14.519210000000001Q5.791689,14.53843,5.882683,14.57612Q5.973678,14.61381,6.05557,14.66853Q6.137463,14.72325,6.207107,14.79289Q6.276751,14.86254,6.33147,14.94443Q6.386188,15.02632,6.423879,15.11732Q6.46157,15.20831,6.480785,15.30491Q6.5,15.40151,6.5,15.5ZM12.5,15.5Q12.5,15.59849,12.48078,15.69509Q12.46157,15.79169,12.42388,15.88268Q12.38619,15.97368,12.33147,16.05557Q12.27675,16.13746,12.20711,16.20711Q12.13746,16.27675,12.05557,16.33147Q11.97368,16.38619,11.88268,16.42388Q11.79169,16.461570000000002,11.69509,16.48078Q11.59849,16.5,11.5,16.5Q11.40151,16.5,11.30491,16.48078Q11.20831,16.461570000000002,11.11732,16.42388Q11.02632,16.38619,10.94443,16.33147Q10.86254,16.27675,10.79289,16.20711Q10.72325,16.13746,10.66853,16.05557Q10.61381,15.97368,10.57612,15.88268Q10.53843,15.79169,10.519210000000001,15.69509Q10.5,15.59849,10.5,15.5Q10.5,15.40151,10.519210000000001,15.30491Q10.53843,15.20831,10.57612,15.11732Q10.61381,15.02632,10.66853,14.94443Q10.72325,14.86254,10.79289,14.79289Q10.86254,14.72325,10.94443,14.66853Q11.02632,14.61381,11.11732,14.57612Q11.20831,14.53843,11.30491,14.519210000000001Q11.40151,14.5,11.5,14.5Q11.59849,14.5,11.69509,14.519210000000001Q11.79169,14.53843,11.88268,14.57612Q11.97368,14.61381,12.05557,14.66853Q12.13746,14.72325,12.20711,14.79289Q12.27675,14.86254,12.33147,14.94443Q12.38619,15.02632,12.42388,15.11732Q12.46157,15.20831,12.48078,15.30491Q12.5,15.40151,12.5,15.5Z" fill="currentColor" fill-stroke-opacity="1"/></g><g><path d="M18,11L14,11Q13.9015086,11,13.80491,10.980785000000001Q13.708311,10.96157,13.617317,10.923879Q13.526322,10.886188,13.44443,10.83147Q13.362537,10.776751,13.292893,10.707107Q13.223249,10.637463,13.16853,10.55557Q13.113812,10.473678,13.076121,10.382683Q13.03843,10.291689,13.019214999999999,10.19509Q13,10.0984914,13,10Q13,9.9015086,13.019214999999999,9.80491Q13.03843,9.708311,13.076121,9.617317Q13.113812,9.526322,13.16853,9.44443Q13.223249,9.362537,13.292893,9.292893Q13.362537,9.223249,13.44443,9.16853Q13.526322,9.113812,13.617317,9.076121Q13.708311,9.03843,13.80491,9.019214999999999Q13.9015086,9,14,9L18,9Q18.098489999999998,9,18.19509,9.019214999999999Q18.29169,9.03843,18.38268,9.076121Q18.47368,9.113812,18.55557,9.16853Q18.63746,9.223249,18.70711,9.292893Q18.77675,9.362537,18.83147,9.44443Q18.88619,9.526322,18.92388,9.617317Q18.961570000000002,9.708311,18.98078,9.80491Q19,9.9015086,19,10Q19,10.0984914,18.98078,10.19509Q18.961570000000002,10.291689,18.92388,10.382683Q18.88619,10.473678,18.83147,10.55557Q18.77675,10.637463,18.70711,10.707107Q18.63746,10.776751,18.55557,10.83147Q18.47368,10.886188,18.38268,10.923879Q18.29169,10.96157,18.19509,10.980785000000001Q18.098489999999998,11,18,11ZM19,10Q19,10.0984914,18.98078,10.19509Q18.961570000000002,10.291689,18.92388,10.382683Q18.88619,10.473678,18.83147,10.55557Q18.77675,10.637463,18.70711,10.707107Q18.63746,10.776751,18.55557,10.83147Q18.47368,10.886188,18.38268,10.923879Q18.29169,10.96157,18.19509,10.980785000000001Q18.098489999999998,11,18,11Q17.901510000000002,11,17.80491,10.980785000000001Q17.70831,10.96157,17.61732,10.923879Q17.52632,10.886188,17.44443,10.83147Q17.36254,10.776751,17.29289,10.707107Q17.22325,10.637463,17.16853,10.55557Q17.11381,10.473678,17.07612,10.382683Q17.038429999999998,10.291689,17.01921,10.19509Q17,10.0984914,17,10Q17,9.9015086,17.01921,9.80491Q17.038429999999998,9.708311,17.07612,9.617317Q17.11381,9.526322,17.16853,9.44443Q17.22325,9.362537,17.29289,9.292893Q17.36254,9.223249,17.44443,9.16853Q17.52632,9.113812,17.61732,9.076121Q17.70831,9.03843,17.80491,9.019214999999999Q17.901510000000002,9,18,9Q18.098489999999998,9,18.19509,9.019214999999999Q18.29169,9.03843,18.38268,9.076121Q18.47368,9.113812,18.55557,9.16853Q18.63746,9.223249,18.70711,9.292893Q18.77675,9.362537,18.83147,9.44443Q18.88619,9.526322,18.92388,9.617317Q18.961570000000002,9.708311,18.98078,9.80491Q19,9.9015086,19,10ZM15,10Q15,10.0984914,14.980785000000001,10.19509Q14.96157,10.291689,14.923879,10.382683Q14.886188,10.473678,14.83147,10.55557Q14.776751,10.637463,14.707107,10.707107Q14.637463,10.776751,14.55557,10.83147Q14.473678,10.886188,14.382683,10.923879Q14.291689,10.96157,14.19509,10.980785000000001Q14.0984914,11,14,11Q13.9015086,11,13.80491,10.980785000000001Q13.708311,10.96157,13.617317,10.923879Q13.526322,10.886188,13.44443,10.83147Q13.362537,10.776751,13.292893,10.707107Q13.223249,10.637463,13.16853,10.55557Q13.113812,10.473678,13.076121,10.382683Q13.03843,10.291689,13.019214999999999,10.19509Q13,10.0984914,13,10Q13,9.9015086,13.019214999999999,9.80491Q13.03843,9.708311,13.076121,9.617317Q13.113812,9.526322,13.16853,9.44443Q13.223249,9.362537,13.292893,9.292893Q13.362537,9.223249,13.44443,9.16853Q13.526322,9.113812,13.617317,9.076121Q13.708311,9.03843,13.80491,9.019214999999999Q13.9015086,9,14,9Q14.0984914,9,14.19509,9.019214999999999Q14.291689,9.03843,14.382683,9.076121Q14.473678,9.113812,14.55557,9.16853Q14.637463,9.223249,14.707107,9.292893Q14.776751,9.362537,14.83147,9.44443Q14.886188,9.526322,14.923879,9.617317Q14.96157,9.708311,14.980785000000001,9.80491Q15,9.9015086,15,10Z" fill="currentColor" fill-stroke-opacity="1"/></g><g><path d="M18,15L15,15Q14.9015086,15,14.80491,14.980785000000001Q14.708311,14.96157,14.617317,14.923879Q14.526322,14.886188,14.44443,14.83147Q14.362537,14.776751,14.292893,14.707107Q14.223249,14.637463,14.16853,14.55557Q14.113812,14.473678,14.076121,14.382683Q14.03843,14.291689,14.019214999999999,14.19509Q14,14.0984914,14,14Q14,13.9015086,14.019214999999999,13.80491Q14.03843,13.708311,14.076121,13.617317Q14.113812,13.526322,14.16853,13.44443Q14.223249,13.362537,14.292893,13.292893Q14.362537,13.223249,14.44443,13.16853Q14.526322,13.113812,14.617317,13.076121Q14.708311,13.03843,14.80491,13.019214999999999Q14.9015086,13,15,13L18,13Q18.098489999999998,13,18.19509,13.019214999999999Q18.29169,13.03843,18.38268,13.076121Q18.47368,13.113812,18.55557,13.16853Q18.63746,13.223249,18.70711,13.292893Q18.77675,13.362537,18.83147,13.44443Q18.88619,13.526322,18.92388,13.617317Q18.961570000000002,13.708311,18.98078,13.80491Q19,13.9015086,19,14Q19,14.0984914,18.98078,14.19509Q18.961570000000002,14.291689,18.92388,14.382683Q18.88619,14.473678,18.83147,14.55557Q18.77675,14.637463,18.70711,14.707107Q18.63746,14.776751,18.55557,14.83147Q18.47368,14.886188,18.38268,14.923879Q18.29169,14.96157,18.19509,14.980785000000001Q18.098489999999998,15,18,15ZM19,14Q19,14.0984914,18.98078,14.19509Q18.961570000000002,14.291689,18.92388,14.382683Q18.88619,14.473678,18.83147,14.55557Q18.77675,14.637463,18.70711,14.707107Q18.63746,14.776751,18.55557,14.83147Q18.47368,14.886188,18.38268,14.923879Q18.29169,14.96157,18.19509,14.980785000000001Q18.098489999999998,15,18,15Q17.901510000000002,15,17.80491,14.980785000000001Q17.70831,14.96157,17.61732,14.923879Q17.52632,14.886188,17.44443,14.83147Q17.36254,14.776751,17.29289,14.707107Q17.22325,14.637463,17.16853,14.55557Q17.11381,14.473678,17.07612,14.382683Q17.038429999999998,14.291689,17.01921,14.19509Q17,14.0984914,17,14Q17,13.9015086,17.01921,13.80491Q17.038429999999998,13.708311,17.07612,13.617317Q17.11381,13.526322,17.16853,13.44443Q17.22325,13.362537,17.29289,13.292893Q17.36254,13.223249,17.44443,13.16853Q17.52632,13.113812,17.61732,13.076121Q17.70831,13.03843,17.80491,13.019214999999999Q17.901510000000002,13,18,13Q18.098489999999998,13,18.19509,13.019214999999999Q18.29169,13.03843,18.38268,13.076121Q18.47368,13.113812,18.55557,13.16853Q18.63746,13.223249,18.70711,13.292893Q18.77675,13.362537,18.83147,13.44443Q18.88619,13.526322,18.92388,13.617317Q18.961570000000002,13.708311,18.98078,13.80491Q19,13.9015086,19,14ZM16,14Q16,14.0984914,15.980785000000001,14.19509Q15.96157,14.291689,15.923879,14.382683Q15.886188,14.473678,15.83147,14.55557Q15.776751,14.637463,15.707107,14.707107Q15.637463,14.776751,15.55557,14.83147Q15.473678,14.886188,15.382683,14.923879Q15.291689,14.96157,15.19509,14.980785000000001Q15.0984914,15,15,15Q14.9015086,15,14.80491,14.980785000000001Q14.708311,14.96157,14.617317,14.923879Q14.526322,14.886188,14.44443,14.83147Q14.362537,14.776751,14.292893,14.707107Q14.223249,14.637463,14.16853,14.55557Q14.113812,14.473678,14.076121,14.382683Q14.03843,14.291689,14.019214999999999,14.19509Q14,14.0984914,14,14Q14,13.9015086,14.019214999999999,13.80491Q14.03843,13.708311,14.076121,13.617317Q14.113812,13.526322,14.16853,13.44443Q14.223249,13.362537,14.292893,13.292893Q14.362537,13.223249,14.44443,13.16853Q14.526322,13.113812,14.617317,13.076121Q14.708311,13.03843,14.80491,13.019214999999999Q14.9015086,13,15,13Q15.0984914,13,15.19509,13.019214999999999Q15.291689,13.03843,15.382683,13.076121Q15.473678,13.113812,15.55557,13.16853Q15.637463,13.223249,15.707107,13.292893Q15.776751,13.362537,15.83147,13.44443Q15.886188,13.526322,15.923879,13.617317Q15.96157,13.708311,15.980785000000001,13.80491Q16,13.9015086,16,14Z" fill="currentColor" fill-stroke-opacity="1"/></g></g></svg>