<svg xmlns="http://www.w3.org/2000/svg" xmlns:xlink="http://www.w3.org/1999/xlink" fill="none" version="1.1" width="24" height="24" viewBox="0 0 24 24">
  <defs>
    <clipPath id="master_svg0_1_423">
      <rect x="0" y="0" width="24" height="24" rx="0"/>
    </clipPath>
  </defs>
  <g clip-path="url(#master_svg0_1_423)">
    <g>
      <path d="M1,19L1,5Q1,4.171573,1.585786,3.585786Q2.171573,3,3,3L21,3Q21.8284,3,22.4142,3.585786Q23,4.171573,23,5L23,19Q23,19.828400000000002,22.4142,20.4142Q21.8284,21,21,21L3,21Q2.171573,21,1.585786,20.4142Q1,19.828400000000002,1,19ZM3,19L3,19L21,19L21,19L21,5L21,5L3,5L3,5L3,19Z" fill="currentColor" fill-stroke-opacity="1"/>
    </g>
    <g style="mix-blend-mode:passthrough">
      <path d="M6.09961,15.59L4.680339,15.59L4.680339,8.92333L6.09961,8.92333L6.09961,15.59ZM8.48893,14.34L12.84766,14.34L12.84766,15.59L7.07943,15.59L7.07943,13.80289Q7.0599,12.67333,7.63932,12.07438Q7.90951,11.81396,8.22852,11.722809999999999Q8.54753,11.63167,9.22786,11.63167L10.31836,11.63167Q10.868490000000001,11.63167,11.096350000000001,11.51122Q11.45768,11.312660000000001,11.45768,10.931799999999999Q11.45768,10.50862,11.128910000000001,10.31331Q10.878250000000001,10.17333,10.31836,10.17333L7.17708,10.17333L7.17708,8.92333L10.617840000000001,8.92333Q11.89713,8.92333,12.39844,9.35628Q12.69792,9.59716,12.85742,10.004059999999999Q13.01693,10.41096,13.01693,10.88297Q13.01693,11.46565,12.8151,11.91487Q12.61654,12.36083,12.26823,12.56917Q11.747399999999999,12.88167,10.70898,12.88167L9.768229999999999,12.88167Q9.27018,12.88167,9.02279,12.94026Q8.778649999999999,12.9956,8.6582,13.145340000000001Q8.4987,13.295079999999999,8.48893,13.78336L8.48893,14.34ZM13.70378,15.59L13.70378,14.34L16.5651,14.34Q17.1543,14.34,17.3659,14.18375Q17.6263,13.99495,17.6263,13.6206Q17.6263,13.16487,17.2943,12.99234Q17.085900000000002,12.88167,16.5651,12.88167L14.3353,12.88167L14.3353,11.63167L16.5651,11.63167Q17.1966,11.63167,17.3854,11.478670000000001Q17.616500000000002,11.29638,17.616500000000002,10.91227Q17.616500000000002,10.489090000000001,17.3138,10.29703Q17.206400000000002,10.22216,17.0599,10.19938Q16.9134,10.17333,16.5651,10.17333L13.70378,10.17333L13.70378,8.92333L16.8158,8.92333Q17.476599999999998,8.9331,17.662100000000002,8.95589Q17.8477,8.97542,18.0658,9.05354Q18.5866,9.2456,18.8861,9.76318Q19.185499999999998,10.23518,19.185499999999998,10.78206Q19.185499999999998,11.722809999999999,18.293599999999998,12.2469Q19.185499999999998,12.81982,19.185499999999998,13.8387Q19.185499999999998,14.77945,18.4661,15.23518Q18.147100000000002,15.44026,17.7695,15.51513Q17.395200000000003,15.59,16.6465,15.59L13.70378,15.59Z" fill="currentColor" fill-stroke-opacity="1"/>
    </g>
  </g>
</svg>