<svg viewBox="0 0 24 24" fill="none" xmlns="http://www.w3.org/2000/svg">
  <defs>
    <clipPath id="a">
      <rect rx="0" height="24" width="24" />
    </clipPath>
  </defs>
  <g clip-path="url(#a)">
    <path fill="currentColor" fill-rule="evenodd"
      d="M22 19.5v-15q0-1.036-.732-1.768Q20.535 2 19.5 2h-15q-1.036 0-1.768.732T2 4.5v15q0 1.035.732 1.768Q3.464 22 4.5 22h15q1.036 0 1.768-.732T22 19.5ZM19.854 4.146Q20 4.293 20 4.5v15q0 .207-.146.354-.147.146-.354.146h-15q-.207 0-.354-.146Q4 19.707 4 19.5v-15q0-.207.146-.354Q4.293 4 4.5 4h15q.207 0 .354.146Z"
      data-follow-fill="currentColor" />
    <path fill="currentColor" fill-rule="evenodd"
      d="M7 14h10a1 1 0 1 0 0-2H7a1 1 0 1 0 0 2ZM7 18h6a1 1 0 0 0 0-2H7a1 1 0 1 0 0 2ZM4 10h16a1 1 0 1 0 0-2H4a1 1 0 1 0 0 2Z"
      data-follow-fill="currentColor" />
  </g>
</svg>