<svg viewBox="0 0 24 29" fill="none" xmlns="http://www.w3.org/2000/svg"><defs><clipPath id="a"><rect rx="0" height="29" width="24"/></clipPath></defs><g clip-path="url(#a)" style="mix-blend-mode:passthrough"><path fill="#3FBE72" d="M1.433 0C1.075 0 .693.143.43.43.167.717 0 1.075 0 1.433v26.134c0 .358.143.74.43 1.003.287.287.645.43 1.003.43h21.02c.358 0 .74-.143 1.002-.43.287-.287.43-.645.43-1.003V8.12L15.765 0H1.432Z" style="mix-blend-mode:passthrough"/><path fill="#D9F5D6" d="M23.886 8.121h-6.688c-.359 0-.74-.143-1.003-.43a1.375 1.375 0 0 1-.43-1.003V0l8.12 8.121Z" style="mix-blend-mode:passthrough"/><path fill="#FFF" d="M8.14 19.56h2.294l.77-1.754c.202-.469.394-.941.609-1.5h.05c.239.559.442 1.031.66 1.5l.829 1.754h2.386l-2.46-4.535 2.304-4.465h-2.266l-.648 1.61c-.18.425-.375.898-.578 1.476h-.047c-.254-.578-.457-1.05-.648-1.477l-.72-1.609h-2.39l2.317 4.367L8.14 19.56Z" style="mix-blend-mode:passthrough"/></g></svg>