<?xml version="1.0" encoding="UTF-8"?>
<svg width="46px" height="46px" viewBox="0 0 46 46" version="1.1" xmlns="http://www.w3.org/2000/svg" xmlns:xlink="http://www.w3.org/1999/xlink">
    <title>筛选器</title>
    <defs>
        <rect id="path-1" x="0" y="0" width="44" height="44" rx="3"></rect>
    </defs>
    <g id="图表器" stroke="none" stroke-width="1" fill="none" fill-rule="evenodd">
        <g id="统计图表/筛选" transform="translate(-204.000000, -630.000000)">
            <g id="筛选器" transform="translate(205.000000, 631.000000)">
                <mask id="mask-2" fill="white">
                    <use xlink:href="#path-1"></use>
                </mask>
                <use id="组-457备份-35" stroke="#DCDEE0" stroke-dasharray="2" fill-rule="nonzero" xlink:href="#path-1"></use>
                <g mask="url(#mask-2)" fill-rule="nonzero">
                    <g transform="translate(11.000000, 13.000000)">
                        <path d="M9.98125371,18 C9.68078506,18 8.278598,16.8938548 5.67453631,14.7821229 C5.47422388,14.6815642 5.47422388,14.4804469 5.47422386,14.2793296 L5.47422386,7.03910616 L0.165944253,1.10614524 C-0.0343681773,0.905027933 -0.0343681773,0.703910599 0.0657880262,0.402234645 C0.165944253,0.201117334 0.366256683,0 0.666725341,0 L15.590002,0 C15.8904707,0 16.0907831,0.201117311 16.1909393,0.402234645 C16.2910955,0.603351956 16.2910955,0.905027933 16.0907831,1.10614524 L10.7825035,7.03910616 L10.582191,17.2960894 C10.6823473,17.698324 10.3818786,18 9.98125371,18 Z" id="路径" fill="#1980FF"></path>
                        <path d="M21.2989065,8.24581007 L13.5868776,8.24581007 C13.1862527,8.24581007 12.8857841,8.54748605 12.8857841,8.94972067 C12.8857841,9.35195531 13.1862527,9.65363129 13.5868776,9.65363129 L21.2989065,9.65363129 C21.6995314,9.65363129 22,9.35195531 22,8.94972067 C22,8.54748602 21.6995313,8.24581007 21.2989065,8.24581007 L21.2989065,8.24581007 Z M21.2989065,15.3854749 L13.5868776,15.3854749 C13.1862527,15.3854749 12.8857841,15.6871508 12.8857841,16.0893855 C12.8857841,16.4916201 13.1862527,16.7932961 13.5868776,16.7932961 L21.2989065,16.7932961 C21.6995314,16.7932961 22,16.4916201 22,16.0893855 C22,15.6871508 21.6995313,15.3854749 21.2989065,15.3854749 L21.2989065,15.3854749 Z" id="形状" fill="#1980FF"></path>
                        <path d="M21.2989065,11.7653631 L13.5868776,11.7653631 C13.1862527,11.7653631 12.8857841,12.0670391 12.8857841,12.4692738 C12.8857841,12.8715084 13.1862527,13.1731844 13.5868776,13.1731844 L21.2989065,13.1731844 C21.6995314,13.1731844 22,12.8715084 22,12.4692738 C22,12.0670391 21.6995313,11.7653631 21.2989065,11.7653631 L21.2989065,11.7653631 Z" id="路径" fill="#00B42A"></path>
                    </g>
                </g>
            </g>
        </g>
    </g>
</svg>