<svg xmlns="http://www.w3.org/2000/svg" xmlns:xlink="http://www.w3.org/1999/xlink" fill="none" version="1.1" width="24" height="24" viewBox="0 0 24 24"><defs><clipPath id="master_svg0_1_398"><rect x="0" y="0" width="24" height="24" rx="0"/></clipPath></defs><g clip-path="url(#master_svg0_1_398)"><g><path d="M1,19L1,5Q1,4.171573,1.585786,3.585786Q2.171573,3,3,3L21,3Q21.8284,3,22.4142,3.585786Q23,4.171573,23,5L23,19Q23,19.828400000000002,22.4142,20.4142Q21.8284,21,21,21L3,21Q2.171573,21,1.585786,20.4142Q1,19.828400000000002,1,19ZM3,19L3,19L21,19L21,19L21,5L21,5L3,5L3,5L3,19Z" fill="currentColor" fill-stroke-opacity="1"/></g><g><path d="M7,16L7,8Q7,7.9015086,7.019215,7.80491Q7.03843,7.708311,7.076121,7.617317Q7.113812,7.526322,7.16853,7.44443Q7.223249,7.362537,7.292893,7.292893Q7.362537,7.223249,7.44443,7.16853Q7.526322,7.113812,7.617317,7.076121Q7.708311,7.03843,7.80491,7.019215Q7.9015086,7,8,7Q8.0984914,7,8.19509,7.019215Q8.291689,7.03843,8.382683,7.076121Q8.473678,7.113812,8.55557,7.16853Q8.637463,7.223249,8.707107,7.292893Q8.776751,7.362537,8.83147,7.44443Q8.886188,7.526322,8.923879,7.617317Q8.96157,7.708311,8.980785000000001,7.80491Q9,7.9015086,9,8L9,16Q9,16.098489999999998,8.980785000000001,16.19509Q8.96157,16.29169,8.923879,16.38268Q8.886188,16.47368,8.83147,16.55557Q8.776751,16.63746,8.707107,16.70711Q8.637463,16.77675,8.55557,16.83147Q8.473678,16.88619,8.382683,16.92388Q8.291689,16.961570000000002,8.19509,16.98078Q8.0984914,17,8,17Q7.9015086,17,7.80491,16.98078Q7.708311,16.961570000000002,7.617317,16.92388Q7.526322,16.88619,7.44443,16.83147Q7.362537,16.77675,7.292893,16.70711Q7.223249,16.63746,7.16853,16.55557Q7.113812,16.47368,7.076121,16.38268Q7.03843,16.29169,7.019215,16.19509Q7,16.098489999999998,7,16ZM9,16Q9,16.098489999999998,8.980785000000001,16.19509Q8.96157,16.29169,8.923879,16.38268Q8.886188,16.47368,8.83147,16.55557Q8.776751,16.63746,8.707107,16.70711Q8.637463,16.77675,8.55557,16.83147Q8.473678,16.88619,8.382683,16.92388Q8.291689,16.961570000000002,8.19509,16.98078Q8.0984914,17,8,17Q7.9015086,17,7.80491,16.98078Q7.708311,16.961570000000002,7.617317,16.92388Q7.526322,16.88619,7.44443,16.83147Q7.362537,16.77675,7.292893,16.70711Q7.223249,16.63746,7.16853,16.55557Q7.113812,16.47368,7.076121,16.38268Q7.03843,16.29169,7.019215,16.19509Q7,16.098489999999998,7,16Q7,15.90151,7.019215,15.80491Q7.03843,15.70831,7.076121,15.61732Q7.113812,15.52632,7.16853,15.44443Q7.223249,15.36254,7.292893,15.29289Q7.362537,15.22325,7.44443,15.16853Q7.526322,15.11381,7.617317,15.07612Q7.708311,15.03843,7.80491,15.019210000000001Q7.9015086,15,8,15Q8.0984914,15,8.19509,15.01922Q8.291689,15.03843,8.382683,15.07612Q8.473678,15.11381,8.55557,15.16853Q8.637463,15.22325,8.707107,15.29289Q8.776751,15.36254,8.83147,15.44443Q8.886188,15.52632,8.923879,15.61732Q8.96157,15.70831,8.980785000000001,15.80491Q9,15.90151,9,16ZM9,8Q9,8.0984914,8.980785000000001,8.19509Q8.96157,8.291689,8.923879,8.382683Q8.886188,8.473678,8.83147,8.55557Q8.776751,8.637463,8.707107,8.707107Q8.637463,8.776751,8.55557,8.83147Q8.473678,8.886188,8.382683,8.923879Q8.291689,8.96157,8.19509,8.980785000000001Q8.0984914,9,8,9Q7.9015086,9,7.80491,8.980785000000001Q7.708311,8.96157,7.617317,8.923879Q7.526322,8.886188,7.44443,8.83147Q7.362537,8.776751,7.292893,8.707107Q7.223249,8.637463,7.16853,8.55557Q7.113812,8.473678,7.076121,8.382683Q7.03843,8.291689,7.019215,8.19509Q7,8.0984914,7,8Q7,7.9015086,7.019215,7.80491Q7.03843,7.708311,7.076121,7.617317Q7.113812,7.526322,7.16853,7.44443Q7.223249,7.362537,7.292893,7.292893Q7.362537,7.223249,7.44443,7.16853Q7.526322,7.113812,7.617317,7.076121Q7.708311,7.03843,7.80491,7.019215Q7.9015086,7,8,7Q8.0984914,7,8.19509,7.019215Q8.291689,7.03843,8.382683,7.076121Q8.473678,7.113812,8.55557,7.16853Q8.637463,7.223249,8.707107,7.292893Q8.776751,7.362537,8.83147,7.44443Q8.886188,7.526322,8.923879,7.617317Q8.96157,7.708311,8.980785000000001,7.80491Q9,7.9015086,9,8Z" fill="currentColor" fill-stroke-opacity="1"/></g><g><path d="M19,17L12,17Q11.9015086,17,11.80491,16.980785Q11.708311,16.961570000000002,11.617317,16.923879Q11.526322,16.886188,11.44443,16.83147Q11.362537,16.776751,11.292893,16.707107Q11.223249,16.637463,11.16853,16.55557Q11.113812,16.473678,11.076121,16.382683Q11.03843,16.291689,11.019214999999999,16.19509Q11,16.0984914,11,16Q11,15.9015086,11.019214999999999,15.80491Q11.03843,15.708311,11.076121,15.617317Q11.113812,15.526322,11.16853,15.44443Q11.223249,15.362537,11.292893,15.292893Q11.362537,15.223249,11.44443,15.16853Q11.526322,15.113812,11.617317,15.076121Q11.708311,15.03843,11.80491,15.019214999999999Q11.9015086,15,12,15L19,15Q19.098489999999998,15,19.19509,15.019214999999999Q19.29169,15.03843,19.38268,15.076121Q19.47368,15.113812,19.55557,15.16853Q19.63746,15.223249,19.70711,15.292893Q19.77675,15.362537,19.83147,15.44443Q19.88619,15.526322,19.92388,15.617317Q19.961570000000002,15.708311,19.98078,15.80491Q20,15.9015086,20,16Q20,16.0984914,19.98078,16.19509Q19.961570000000002,16.291689,19.92388,16.382683Q19.88619,16.473678,19.83147,16.55557Q19.77675,16.637463,19.70711,16.707107Q19.63746,16.776751,19.55557,16.83147Q19.47368,16.886188,19.38268,16.923879Q19.29169,16.961570000000002,19.19509,16.980785Q19.098489999999998,17,19,17ZM20,16Q20,16.0984914,19.98078,16.19509Q19.961570000000002,16.291689,19.92388,16.382683Q19.88619,16.473678,19.83147,16.55557Q19.77675,16.637463,19.70711,16.707107Q19.63746,16.776751,19.55557,16.83147Q19.47368,16.886188,19.38268,16.923879Q19.29169,16.961570000000002,19.19509,16.980785Q19.098489999999998,17,19,17Q18.901510000000002,17,18.80491,16.980785Q18.70831,16.961570000000002,18.61732,16.923879Q18.52632,16.886188,18.44443,16.83147Q18.36254,16.776751,18.29289,16.707107Q18.22325,16.637463,18.16853,16.55557Q18.11381,16.473678,18.07612,16.382683Q18.038429999999998,16.291689,18.01921,16.19509Q18,16.0984914,18,16Q18,15.9015086,18.01921,15.80491Q18.038429999999998,15.708311,18.07612,15.617317Q18.11381,15.526322,18.16853,15.44443Q18.22325,15.362537,18.29289,15.292893Q18.36254,15.223249,18.44443,15.16853Q18.52632,15.113812,18.61732,15.076121Q18.70831,15.03843,18.80491,15.019214999999999Q18.901510000000002,15,19,15Q19.098489999999998,15,19.19509,15.019214999999999Q19.29169,15.03843,19.38268,15.076121Q19.47368,15.113812,19.55557,15.16853Q19.63746,15.223249,19.70711,15.292893Q19.77675,15.362537,19.83147,15.44443Q19.88619,15.526322,19.92388,15.617317Q19.961570000000002,15.708311,19.98078,15.80491Q20,15.9015086,20,16ZM13,16Q13,16.0984914,12.980785000000001,16.19509Q12.96157,16.291689,12.923879,16.382683Q12.886188,16.473678,12.83147,16.55557Q12.776751,16.637463,12.707107,16.707107Q12.637463,16.776751,12.55557,16.83147Q12.473678,16.886188,12.382683,16.923879Q12.291689,16.961570000000002,12.19509,16.980785Q12.0984914,17,12,17Q11.9015086,17,11.80491,16.980785Q11.708311,16.961570000000002,11.617317,16.923879Q11.526322,16.886188,11.44443,16.83147Q11.362537,16.776751,11.292893,16.707107Q11.223249,16.637463,11.16853,16.55557Q11.113812,16.473678,11.076121,16.382683Q11.03843,16.291689,11.019214999999999,16.19509Q11,16.0984914,11,16Q11,15.9015086,11.019214999999999,15.80491Q11.03843,15.708311,11.076121,15.617317Q11.113812,15.526322,11.16853,15.44443Q11.223249,15.362537,11.292893,15.292893Q11.362537,15.223249,11.44443,15.16853Q11.526322,15.113812,11.617317,15.076121Q11.708311,15.03843,11.80491,15.019214999999999Q11.9015086,15,12,15Q12.0984914,15,12.19509,15.019214999999999Q12.291689,15.03843,12.382683,15.076121Q12.473678,15.113812,12.55557,15.16853Q12.637463,15.223249,12.707107,15.292893Q12.776751,15.362537,12.83147,15.44443Q12.886188,15.526322,12.923879,15.617317Q12.96157,15.708311,12.980785000000001,15.80491Q13,15.9015086,13,16Z" fill="currentColor" fill-stroke-opacity="1"/></g><g><path d="M19,13L14,13Q13.9015086,13,13.80491,12.980785000000001Q13.708311,12.96157,13.617317,12.923879Q13.526322,12.886188,13.44443,12.83147Q13.362537,12.776751,13.292893,12.707107Q13.223249,12.637463,13.16853,12.55557Q13.113812,12.473678,13.076121,12.382683Q13.03843,12.291689,13.019214999999999,12.19509Q13,12.0984914,13,12Q13,11.9015086,13.019214999999999,11.80491Q13.03843,11.708311,13.076121,11.617317Q13.113812,11.526322,13.16853,11.44443Q13.223249,11.362537,13.292893,11.292893Q13.362537,11.223249,13.44443,11.16853Q13.526322,11.113812,13.617317,11.076121Q13.708311,11.03843,13.80491,11.019214999999999Q13.9015086,11,14,11L19,11Q19.098489999999998,11,19.19509,11.019214999999999Q19.29169,11.03843,19.38268,11.076121Q19.47368,11.113812,19.55557,11.16853Q19.63746,11.223249,19.70711,11.292893Q19.77675,11.362537,19.83147,11.44443Q19.88619,11.526322,19.92388,11.617317Q19.961570000000002,11.708311,19.98078,11.80491Q20,11.9015086,20,12Q20,12.0984914,19.98078,12.19509Q19.961570000000002,12.291689,19.92388,12.382683Q19.88619,12.473678,19.83147,12.55557Q19.77675,12.637463,19.70711,12.707107Q19.63746,12.776751,19.55557,12.83147Q19.47368,12.886188,19.38268,12.923879Q19.29169,12.96157,19.19509,12.980785000000001Q19.098489999999998,13,19,13ZM20,12Q20,12.0984914,19.98078,12.19509Q19.961570000000002,12.291689,19.92388,12.382683Q19.88619,12.473678,19.83147,12.55557Q19.77675,12.637463,19.70711,12.707107Q19.63746,12.776751,19.55557,12.83147Q19.47368,12.886188,19.38268,12.923879Q19.29169,12.96157,19.19509,12.980785000000001Q19.098489999999998,13,19,13Q18.901510000000002,13,18.80491,12.980785000000001Q18.70831,12.96157,18.61732,12.923879Q18.52632,12.886188,18.44443,12.83147Q18.36254,12.776751,18.29289,12.707107Q18.22325,12.637463,18.16853,12.55557Q18.11381,12.473678,18.07612,12.382683Q18.038429999999998,12.291689,18.01921,12.19509Q18,12.0984914,18,12Q18,11.9015086,18.01921,11.80491Q18.038429999999998,11.708311,18.07612,11.617317Q18.11381,11.526322,18.16853,11.44443Q18.22325,11.362537,18.29289,11.292893Q18.36254,11.223249,18.44443,11.16853Q18.52632,11.113812,18.61732,11.076121Q18.70831,11.03843,18.80491,11.019214999999999Q18.901510000000002,11,19,11Q19.098489999999998,11,19.19509,11.019214999999999Q19.29169,11.03843,19.38268,11.076121Q19.47368,11.113812,19.55557,11.16853Q19.63746,11.223249,19.70711,11.292893Q19.77675,11.362537,19.83147,11.44443Q19.88619,11.526322,19.92388,11.617317Q19.961570000000002,11.708311,19.98078,11.80491Q20,11.9015086,20,12ZM15,12Q15,12.0984914,14.980785000000001,12.19509Q14.96157,12.291689,14.923879,12.382683Q14.886188,12.473678,14.83147,12.55557Q14.776751,12.637463,14.707107,12.707107Q14.637463,12.776751,14.55557,12.83147Q14.473678,12.886188,14.382683,12.923879Q14.291689,12.96157,14.19509,12.980785000000001Q14.0984914,13,14,13Q13.9015086,13,13.80491,12.980785000000001Q13.708311,12.96157,13.617317,12.923879Q13.526322,12.886188,13.44443,12.83147Q13.362537,12.776751,13.292893,12.707107Q13.223249,12.637463,13.16853,12.55557Q13.113812,12.473678,13.076121,12.382683Q13.03843,12.291689,13.019214999999999,12.19509Q13,12.0984914,13,12Q13,11.9015086,13.019214999999999,11.80491Q13.03843,11.708311,13.076121,11.617317Q13.113812,11.526322,13.16853,11.44443Q13.223249,11.362537,13.292893,11.292893Q13.362537,11.223249,13.44443,11.16853Q13.526322,11.113812,13.617317,11.076121Q13.708311,11.03843,13.80491,11.019214999999999Q13.9015086,11,14,11Q14.0984914,11,14.19509,11.019214999999999Q14.291689,11.03843,14.382683,11.076121Q14.473678,11.113812,14.55557,11.16853Q14.637463,11.223249,14.707107,11.292893Q14.776751,11.362537,14.83147,11.44443Q14.886188,11.526322,14.923879,11.617317Q14.96157,11.708311,14.980785000000001,11.80491Q15,11.9015086,15,12Z" fill="currentColor" fill-stroke-opacity="1"/></g><g><path d="M11,9L8,9L5,9Q4.9015086,9,4.80491,8.980785000000001Q4.708311,8.96157,4.617317,8.923879Q4.526322,8.886188,4.44443,8.83147Q4.362537,8.776751,4.292893,8.707107Q4.223249,8.637463,4.16853,8.55557Q4.113812,8.473678,4.076121,8.382683Q4.03843,8.291689,4.019215,8.19509Q4,8.0984914,4,8Q4,7.9015086,4.019215,7.80491Q4.03843,7.708311,4.076121,7.617317Q4.113812,7.526322,4.16853,7.44443Q4.223249,7.362537,4.292893,7.292893Q4.362537,7.223249,4.44443,7.16853Q4.526322,7.113812,4.617317,7.076121Q4.708311,7.03843,4.80491,7.019215Q4.9015086,7,5,7L8,7L11,7Q11.09849,7,11.19509,7.019215Q11.29169,7.03843,11.38268,7.076121Q11.47368,7.113812,11.55557,7.16853Q11.63746,7.223249,11.70711,7.292893Q11.77675,7.362537,11.83147,7.44443Q11.88619,7.526322,11.92388,7.617317Q11.96157,7.708311,11.98078,7.80491Q12,7.9015086,12,8Q12,8.0984914,11.98078,8.19509Q11.96157,8.291689,11.92388,8.382683Q11.88619,8.473678,11.83147,8.55557Q11.77675,8.637463,11.70711,8.707107Q11.63746,8.776751,11.55557,8.83147Q11.47368,8.886188,11.38268,8.923879Q11.29169,8.96157,11.19509,8.980785000000001Q11.09849,9,11,9ZM12,8Q12,8.0984914,11.98078,8.19509Q11.96157,8.291689,11.92388,8.382683Q11.88619,8.473678,11.83147,8.55557Q11.77675,8.637463,11.70711,8.707107Q11.63746,8.776751,11.55557,8.83147Q11.47368,8.886188,11.38268,8.923879Q11.29169,8.96157,11.19509,8.980785000000001Q11.09849,9,11,9Q10.90151,9,10.80491,8.980785000000001Q10.70831,8.96157,10.61732,8.923879Q10.52632,8.886188,10.44443,8.83147Q10.36254,8.776751,10.29289,8.707107Q10.22325,8.637463,10.16853,8.55557Q10.11381,8.473678,10.07612,8.382683Q10.03843,8.291689,10.019210000000001,8.19509Q10,8.0984914,10,8Q10,7.9015086,10.019210000000001,7.80491Q10.03843,7.708311,10.07612,7.617317Q10.11381,7.526322,10.16853,7.44443Q10.22325,7.362537,10.29289,7.292893Q10.36254,7.223249,10.44443,7.16853Q10.52632,7.113812,10.61732,7.076121Q10.70831,7.03843,10.80491,7.019215Q10.90151,7,11,7Q11.09849,7,11.19509,7.019215Q11.29169,7.03843,11.38268,7.076121Q11.47368,7.113812,11.55557,7.16853Q11.63746,7.223249,11.70711,7.292893Q11.77675,7.362537,11.83147,7.44443Q11.88619,7.526322,11.92388,7.617317Q11.96157,7.708311,11.98078,7.80491Q12,7.9015086,12,8ZM6,8Q6,8.0984914,5.980785,8.19509Q5.96157,8.291689,5.923879,8.382683Q5.886188,8.473678,5.83147,8.55557Q5.776751,8.637463,5.707107,8.707107Q5.637463,8.776751,5.55557,8.83147Q5.473678,8.886188,5.382683,8.923879Q5.291689,8.96157,5.19509,8.980785000000001Q5.0984914,9,5,9Q4.9015086,9,4.80491,8.980785000000001Q4.708311,8.96157,4.617317,8.923879Q4.526322,8.886188,4.44443,8.83147Q4.362537,8.776751,4.292893,8.707107Q4.223249,8.637463,4.16853,8.55557Q4.113812,8.473678,4.076121,8.382683Q4.03843,8.291689,4.019215,8.19509Q4,8.0984914,4,8Q4,7.9015086,4.019215,7.80491Q4.03843,7.708311,4.076121,7.617317Q4.113812,7.526322,4.16853,7.44443Q4.223249,7.362537,4.292893,7.292893Q4.362537,7.223249,4.44443,7.16853Q4.526322,7.113812,4.617317,7.076121Q4.708311,7.03843,4.80491,7.019215Q4.9015086,7,5,7Q5.0984914,7,5.19509,7.019215Q5.291689,7.03843,5.382683,7.076121Q5.473678,7.113812,5.55557,7.16853Q5.637463,7.223249,5.707107,7.292893Q5.776751,7.362537,5.83147,7.44443Q5.886188,7.526322,5.923879,7.617317Q5.96157,7.708311,5.980785,7.80491Q6,7.9015086,6,8Z" fill="currentColor" fill-stroke-opacity="1"/></g></g></svg>