<svg xmlns="http://www.w3.org/2000/svg" xmlns:xlink="http://www.w3.org/1999/xlink" fill="none" version="1.1" width="24" height="24" viewBox="0 0 24 24"><defs><clipPath id="master_svg0_1_362"><rect x="0" y="0" width="24" height="24" rx="0"/></clipPath></defs><g clip-path="url(#master_svg0_1_362)"><g><path d="M1,10L1,4Q1,3.171573,1.585786,2.585786Q2.171573,2,3,2L21,2Q21.8284,2,22.4142,2.585786Q23,3.171573,23,4L23,10Q23,10.82843,22.4142,11.41421Q21.8284,12,21,12L3,12Q2.171573,12,1.585786,11.41421Q1,10.82843,1,10ZM3,10L3,10L21,10L21,10L21,4L21,4L3,4L3,4L3,10Z" fill="currentColor" fill-stroke-opacity="1"/></g><g><path d="M10,22L5,22Q4.171572,22,3.585786,21.41421Q3,20.82843,3,20L3,13Q3,12.9015086,3.019215,12.80491Q3.03843,12.708311,3.076121,12.617317Q3.1138120000000002,12.526322,3.16853,12.44443Q3.223249,12.362537,3.292893,12.292893Q3.362537,12.223249,3.44443,12.16853Q3.526322,12.113812,3.617317,12.076121Q3.708311,12.03843,3.80491,12.019214999999999Q3.9015086,12,4,12Q4.0984914,12,4.19509,12.019214999999999Q4.291689,12.03843,4.382683,12.076121Q4.473678,12.113812,4.55557,12.16853Q4.637463,12.223249,4.707107,12.292893Q4.776751,12.362537,4.83147,12.44443Q4.886188,12.526322,4.923879,12.617317Q4.96157,12.708311,4.980785,12.80491Q5,12.9015086,5,13L5,20Q5,20,5,20L10,20Q10.09849,20,10.19509,20.01922Q10.29169,20.038429999999998,10.38268,20.07612Q10.47368,20.11381,10.55557,20.16853Q10.63746,20.22325,10.70711,20.29289Q10.77675,20.36254,10.83147,20.44443Q10.88619,20.52632,10.92388,20.61732Q10.96157,20.70831,10.98078,20.80491Q11,20.901510000000002,11,21Q11,21.098489999999998,10.98078,21.19509Q10.96157,21.29169,10.92388,21.38268Q10.88619,21.47368,10.83147,21.55557Q10.77675,21.63746,10.70711,21.70711Q10.63746,21.77675,10.55557,21.83147Q10.47368,21.88619,10.38268,21.92388Q10.29169,21.961570000000002,10.19509,21.98078Q10.09849,22,10,22ZM11,21Q11,21.098489999999998,10.98078,21.19509Q10.96157,21.29169,10.92388,21.38268Q10.88619,21.47368,10.83147,21.55557Q10.77675,21.63746,10.70711,21.70711Q10.63746,21.77675,10.55557,21.83147Q10.47368,21.88619,10.38268,21.92388Q10.29169,21.961570000000002,10.19509,21.98078Q10.09849,22,10,22Q9.90151,22,9.80491,21.98078Q9.70831,21.961570000000002,9.61732,21.92388Q9.52632,21.88619,9.44443,21.83147Q9.36254,21.77675,9.29289,21.70711Q9.22325,21.63746,9.16853,21.55557Q9.11381,21.47368,9.07612,21.38268Q9.03843,21.29169,9.019210000000001,21.19509Q9,21.098489999999998,9,21Q9,20.901510000000002,9.019210000000001,20.80491Q9.03843,20.70831,9.07612,20.61732Q9.11381,20.52632,9.16853,20.44443Q9.22325,20.36254,9.29289,20.29289Q9.36254,20.22325,9.44443,20.16853Q9.52632,20.11381,9.61732,20.07612Q9.70831,20.038429999999998,9.80491,20.01921Q9.90151,20,10,20Q10.09849,20,10.19509,20.01922Q10.29169,20.038429999999998,10.38268,20.07612Q10.47368,20.11381,10.55557,20.16853Q10.63746,20.22325,10.70711,20.29289Q10.77675,20.36254,10.83147,20.44443Q10.88619,20.52632,10.92388,20.61732Q10.96157,20.70831,10.98078,20.80491Q11,20.901510000000002,11,21ZM5,13Q5,13.0984914,4.980785,13.19509Q4.96157,13.291689,4.923879,13.382683Q4.886188,13.473678,4.83147,13.55557Q4.776751,13.637463,4.707107,13.707107Q4.637463,13.776751,4.55557,13.83147Q4.473678,13.886188,4.382683,13.923879Q4.291689,13.96157,4.19509,13.980785000000001Q4.0984914,14,4,14Q3.9015086,14,3.80491,13.980785000000001Q3.708311,13.96157,3.617317,13.923879Q3.526322,13.886188,3.44443,13.83147Q3.362537,13.776751,3.292893,13.707107Q3.223249,13.637463,3.16853,13.55557Q3.1138120000000002,13.473678,3.076121,13.382683Q3.03843,13.291689,3.019215,13.19509Q3,13.0984914,3,13Q3,12.9015086,3.019215,12.80491Q3.03843,12.708311,3.076121,12.617317Q3.1138120000000002,12.526322,3.16853,12.44443Q3.223249,12.362537,3.292893,12.292893Q3.362537,12.223249,3.44443,12.16853Q3.526322,12.113812,3.617317,12.076121Q3.708311,12.03843,3.80491,12.019214999999999Q3.9015086,12,4,12Q4.0984914,12,4.19509,12.019214999999999Q4.291689,12.03843,4.382683,12.076121Q4.473678,12.113812,4.55557,12.16853Q4.637463,12.223249,4.707107,12.292893Q4.776751,12.362537,4.83147,12.44443Q4.886188,12.526322,4.923879,12.617317Q4.96157,12.708311,4.980785,12.80491Q5,12.9015086,5,13Z" fill="currentColor" fill-stroke-opacity="1"/></g><g transform="matrix(-1,0,0,1,40,0)"><path d="M26,22L21,22Q20.171572,22,19.585786,21.41421Q19,20.82843,19,20L19,13Q19,12.9015086,19.019215,12.80491Q19.038429999999998,12.708311,19.076121,12.617317Q19.113812,12.526322,19.16853,12.44443Q19.223249,12.362537,19.292893,12.292893Q19.362537,12.223249,19.44443,12.16853Q19.526322,12.113812,19.617317,12.076121Q19.708311,12.03843,19.80491,12.019214999999999Q19.9015086,12,20,12Q20.0984914,12,20.19509,12.019214999999999Q20.291689,12.03843,20.382683,12.076121Q20.473678,12.113812,20.55557,12.16853Q20.637463,12.223249,20.707107,12.292893Q20.776751,12.362537,20.83147,12.44443Q20.886188,12.526322,20.923879,12.617317Q20.961570000000002,12.708311,20.980785,12.80491Q21,12.9015086,21,13L21,20Q21,20,21,20L26,20Q26.098489999999998,20,26.19509,20.01922Q26.29169,20.038429999999998,26.38268,20.07612Q26.47368,20.11381,26.55557,20.16853Q26.63746,20.22325,26.70711,20.29289Q26.77675,20.36254,26.83147,20.44443Q26.88619,20.52632,26.92388,20.61732Q26.961570000000002,20.70831,26.98078,20.80491Q27,20.901510000000002,27,21Q27,21.098489999999998,26.98078,21.19509Q26.961570000000002,21.29169,26.92388,21.38268Q26.88619,21.47368,26.83147,21.55557Q26.77675,21.63746,26.70711,21.70711Q26.63746,21.77675,26.55557,21.83147Q26.47368,21.88619,26.38268,21.92388Q26.29169,21.961570000000002,26.19509,21.98078Q26.098489999999998,22,26,22ZM27,21Q27,21.098489999999998,26.98078,21.19509Q26.961570000000002,21.29169,26.92388,21.38268Q26.88619,21.47368,26.83147,21.55557Q26.77675,21.63746,26.70711,21.70711Q26.63746,21.77675,26.55557,21.83147Q26.47368,21.88619,26.38268,21.92388Q26.29169,21.961570000000002,26.19509,21.98078Q26.098489999999998,22,26,22Q25.901510000000002,22,25.80491,21.98078Q25.70831,21.961570000000002,25.61732,21.92388Q25.52632,21.88619,25.44443,21.83147Q25.36254,21.77675,25.29289,21.70711Q25.22325,21.63746,25.16853,21.55557Q25.11381,21.47368,25.07612,21.38268Q25.038429999999998,21.29169,25.01921,21.19509Q25,21.098489999999998,25,21Q25,20.901510000000002,25.01921,20.80491Q25.038429999999998,20.70831,25.07612,20.61732Q25.11381,20.52632,25.16853,20.44443Q25.22325,20.36254,25.29289,20.29289Q25.36254,20.22325,25.44443,20.16853Q25.52632,20.11381,25.61732,20.07612Q25.70831,20.038429999999998,25.80491,20.01921Q25.901510000000002,20,26,20Q26.098489999999998,20,26.19509,20.01922Q26.29169,20.038429999999998,26.38268,20.07612Q26.47368,20.11381,26.55557,20.16853Q26.63746,20.22325,26.70711,20.29289Q26.77675,20.36254,26.83147,20.44443Q26.88619,20.52632,26.92388,20.61732Q26.961570000000002,20.70831,26.98078,20.80491Q27,20.901510000000002,27,21ZM21,13Q21,13.0984914,20.980785,13.19509Q20.961570000000002,13.291689,20.923879,13.382683Q20.886188,13.473678,20.83147,13.55557Q20.776751,13.637463,20.707107,13.707107Q20.637463,13.776751,20.55557,13.83147Q20.473678,13.886188,20.382683,13.923879Q20.291689,13.96157,20.19509,13.980785000000001Q20.0984914,14,20,14Q19.9015086,14,19.80491,13.980785000000001Q19.708311,13.96157,19.617317,13.923879Q19.526322,13.886188,19.44443,13.83147Q19.362537,13.776751,19.292893,13.707107Q19.223249,13.637463,19.16853,13.55557Q19.113812,13.473678,19.076121,13.382683Q19.038429999999998,13.291689,19.019215,13.19509Q19,13.0984914,19,13Q19,12.9015086,19.019215,12.80491Q19.038429999999998,12.708311,19.076121,12.617317Q19.113812,12.526322,19.16853,12.44443Q19.223249,12.362537,19.292893,12.292893Q19.362537,12.223249,19.44443,12.16853Q19.526322,12.113812,19.617317,12.076121Q19.708311,12.03843,19.80491,12.019214999999999Q19.9015086,12,20,12Q20.0984914,12,20.19509,12.019214999999999Q20.291689,12.03843,20.382683,12.076121Q20.473678,12.113812,20.55557,12.16853Q20.637463,12.223249,20.707107,12.292893Q20.776751,12.362537,20.83147,12.44443Q20.886188,12.526322,20.923879,12.617317Q20.961570000000002,12.708311,20.980785,12.80491Q21,12.9015086,21,13Z" fill="currentColor" fill-stroke-opacity="1"/></g><g transform="matrix(0,-1,1,0,-7,29)"><path d="M15.70711,18.707107L13.70711,20.70711Q13.63746,20.77675,13.55557,20.83147Q13.47368,20.88619,13.38268,20.92388Q13.29169,20.961570000000002,13.19509,20.98078Q13.09849,21,13,21Q12.90151,21,12.80491,20.98078Q12.70831,20.961570000000002,12.61732,20.92388Q12.52632,20.88619,12.44443,20.83147Q12.36254,20.77675,12.29289,20.70711L10.292893,18.707107Q10.223249,18.637463,10.16853,18.55557Q10.113812,18.473678,10.076121,18.382683Q10.03843,18.291689,10.019214999999999,18.19509Q10,18.0984914,10,18Q10,17.9015086,10.019214999999999,17.80491Q10.03843,17.708311,10.076121,17.617317Q10.113812,17.526322,10.16853,17.44443Q10.223249,17.362537,10.292893,17.292893Q10.362537,17.223249,10.44443,17.16853Q10.526322,17.113812,10.617317,17.076121Q10.708311,17.038429999999998,10.80491,17.019215Q10.9015086,17,11,17Q11.0984914,17,11.19509,17.019215Q11.291689,17.038429999999998,11.382683,17.076121Q11.473678,17.113812,11.55557,17.16853Q11.637463,17.223249,11.707107,17.292893L13.70711,19.29289L13,20L12.29289,19.29289L14.29289,17.292893Q14.36254,17.223249,14.44443,17.16853Q14.52632,17.113812,14.61732,17.076121Q14.70831,17.038429999999998,14.80491,17.019215Q14.90151,17,15,17Q15.09849,17,15.19509,17.019215Q15.29169,17.038429999999998,15.38268,17.076121Q15.47368,17.113812,15.55557,17.16853Q15.63746,17.223249,15.70711,17.292893Q15.77675,17.362537,15.83147,17.44443Q15.88619,17.526322,15.92388,17.617317Q15.96157,17.708311,15.98078,17.80491Q16,17.9015086,16,18Q16,18.0984914,15.98078,18.19509Q15.96157,18.291689,15.92388,18.382683Q15.88619,18.473678,15.83147,18.55557Q15.77675,18.637463,15.70711,18.707107ZM16,18Q16,18.0984914,15.98078,18.19509Q15.96157,18.291689,15.92388,18.382683Q15.88619,18.473678,15.83147,18.55557Q15.77675,18.637463,15.70711,18.707107Q15.63746,18.776751,15.55557,18.83147Q15.47368,18.886188,15.38268,18.923879Q15.29169,18.961570000000002,15.19509,18.980785Q15.09849,19,15,19Q14.90151,19,14.80491,18.980785Q14.70831,18.961570000000002,14.61732,18.923879Q14.52632,18.886188,14.44443,18.83147Q14.36254,18.776751,14.29289,18.707107Q14.22325,18.637463,14.16853,18.55557Q14.11381,18.473678,14.07612,18.382683Q14.03843,18.291689,14.019210000000001,18.19509Q14,18.0984914,14,18Q14,17.9015086,14.019210000000001,17.80491Q14.03843,17.708311,14.07612,17.617317Q14.11381,17.526322,14.16853,17.44443Q14.22325,17.362537,14.29289,17.292893Q14.36254,17.223249,14.44443,17.16853Q14.52632,17.113812,14.61732,17.076121Q14.70831,17.038429999999998,14.80491,17.019215Q14.90151,17,15,17Q15.09849,17,15.19509,17.019215Q15.29169,17.038429999999998,15.38268,17.076121Q15.47368,17.113812,15.55557,17.16853Q15.63746,17.223249,15.70711,17.292893Q15.77675,17.362537,15.83147,17.44443Q15.88619,17.526322,15.92388,17.617317Q15.96157,17.708311,15.98078,17.80491Q16,17.9015086,16,18ZM12,18Q12,18.0984914,11.980785000000001,18.19509Q11.96157,18.291689,11.923879,18.382683Q11.886188,18.473678,11.83147,18.55557Q11.776751,18.637463,11.707107,18.707107Q11.637463,18.776751,11.55557,18.83147Q11.473678,18.886188,11.382683,18.923879Q11.291689,18.961570000000002,11.19509,18.980785Q11.0984914,19,11,19Q10.9015086,19,10.80491,18.980785Q10.708311,18.961570000000002,10.617317,18.923879Q10.526322,18.886188,10.44443,18.83147Q10.362537,18.776751,10.292893,18.707107Q10.223249,18.637463,10.16853,18.55557Q10.113812,18.473678,10.076121,18.382683Q10.03843,18.291689,10.019214999999999,18.19509Q10,18.0984914,10,18Q10,17.9015086,10.019214999999999,17.80491Q10.03843,17.708311,10.076121,17.617317Q10.113812,17.526322,10.16853,17.44443Q10.223249,17.362537,10.292893,17.292893Q10.362537,17.223249,10.44443,17.16853Q10.526322,17.113812,10.617317,17.076121Q10.708311,17.038429999999998,10.80491,17.019215Q10.9015086,17,11,17Q11.0984914,17,11.19509,17.019215Q11.291689,17.038429999999998,11.382683,17.076121Q11.473678,17.113812,11.55557,17.16853Q11.637463,17.223249,11.707107,17.292893Q11.776751,17.362537,11.83147,17.44443Q11.886188,17.526322,11.923879,17.617317Q11.96157,17.708311,11.980785000000001,17.80491Q12,17.9015086,12,18Z" fill="currentColor" fill-stroke-opacity="1"/></g><g style="mix-blend-mode:passthrough"><path d="M16,6L18,8L20,6L16,6Z" fill="currentColor" fill-stroke-opacity="1"/></g></g></svg>