<svg viewBox="0 0 24 24" fill="none" xmlns="http://www.w3.org/2000/svg"><defs><clipPath id="a"><rect rx="0" height="24" width="24"/></clipPath></defs><g clip-path="url(#a)"><path fill="currentColor" d="M12 22H3q-.098 0-.195-.02-.097-.018-.188-.056-.09-.038-.173-.093-.081-.054-.151-.124-.07-.07-.124-.151-.055-.082-.093-.173-.038-.091-.057-.188Q2 21.1 2 21V3q0-.098.02-.195.018-.097.056-.188.038-.09.093-.173.054-.081.124-.151.07-.07.151-.124.082-.055.173-.093.091-.038.188-.057Q2.902 2 3 2h8.996q.098 0 .195.02.097.018.188.056.09.038.172.093.082.054.152.124.07.07.124.151.055.082.093.173.037.091.057.188.019.097.019.195t-.02.195q-.019.097-.056.188-.038.09-.093.173-.054.081-.124.151-.07.07-.152.124-.081.055-.172.093-.091.038-.188.057-.097.019-.195.019H3V3h1v18H3v-1h9q.098 0 .195.02.097.018.188.056.09.038.173.093.081.054.151.124.07.07.124.151.055.082.093.173.038.091.057.188Q13 20.9 13 21t-.02.195q-.018.097-.056.188-.038.09-.093.173-.054.081-.124.151-.07.07-.151.124-.082.055-.173.093-.091.038-.188.057Q12.098 22 12 22Zm1-1q0 .099-.02.195-.018.097-.056.188-.038.09-.093.173-.054.081-.124.151-.07.07-.151.124-.082.055-.173.093-.091.038-.188.057Q12.098 22 12 22t-.195-.02q-.097-.018-.188-.056-.09-.038-.173-.093-.081-.054-.151-.124-.07-.07-.124-.151-.055-.082-.093-.173-.038-.091-.057-.188Q11 21.1 11 21t.02-.195q.018-.097.056-.188.038-.09.093-.173.054-.081.124-.151.07-.07.151-.124.082-.055.173-.093.091-.038.188-.057Q11.902 20 12 20t.195.02q.097.018.188.056.09.038.173.093.081.054.151.124.07.07.124.151.055.082.093.173.038.091.057.188Q13 20.9 13 21Zm-.004-18q0 .098-.02.195-.019.097-.056.188-.038.09-.093.173-.054.081-.124.151-.07.07-.152.124-.081.055-.172.093-.091.038-.188.057-.097.019-.195.019-.099 0-.195-.02-.097-.018-.188-.056-.09-.038-.173-.093-.082-.054-.151-.124-.07-.07-.125-.151-.054-.082-.092-.173-.038-.091-.057-.188-.02-.097-.02-.195t.02-.195q.02-.097.057-.188.038-.09.092-.173.055-.081.125-.151.07-.07.151-.124.082-.055.173-.093.091-.038.188-.057.096-.019.195-.019.098 0 .195.02.097.018.188.056.09.038.172.093.082.054.152.124.07.07.124.151.055.082.093.173.037.091.057.188.019.097.019.195ZM17.207 6.793l4.5 4.5q.07.07.124.151.055.082.093.173.038.091.057.188.019.097.019.195t-.02.195q-.018.097-.056.188-.038.09-.093.173-.054.081-.124.151l-4.5 4.5q-.07.07-.151.124-.082.055-.173.093-.091.038-.188.057-.097.019-.195.019t-.195-.02q-.097-.018-.188-.056-.09-.038-.173-.093-.081-.054-.151-.124-.07-.07-.124-.151-.055-.082-.093-.173-.038-.091-.057-.188-.019-.097-.019-.195t.02-.195q.018-.097.056-.188.038-.09.093-.173.054-.081.124-.151l4.5-4.5L21 12l-.707.707-4.5-4.5q-.07-.07-.124-.151-.055-.082-.093-.173-.038-.091-.057-.188-.019-.097-.019-.195t.02-.195q.018-.097.056-.188.038-.09.093-.173.054-.081.124-.151.07-.07.151-.124.082-.055.173-.093.091-.038.188-.057.097-.019.195-.019t.195.02q.097.018.188.056.09.038.173.093.081.054.151.124Zm.293.707q0 .098-.02.195-.018.097-.056.188-.038.09-.093.173-.054.081-.124.151-.07.07-.151.124-.082.055-.173.093-.091.038-.188.057-.097.019-.195.019t-.195-.02q-.097-.018-.188-.056-.09-.038-.173-.093-.081-.054-.151-.124-.07-.07-.124-.151-.055-.082-.093-.173-.038-.091-.057-.188-.019-.097-.019-.195t.02-.195q.018-.097.056-.188.038-.09.093-.173.054-.081.124-.151.07-.07.151-.124.082-.055.173-.093.091-.038.188-.057.097-.019.195-.019t.195.02q.097.018.188.056.09.038.173.093.081.054.151.124.07.07.124.151.055.082.093.173.038.091.057.188.019.097.019.195Zm0 9q0 .098-.02.195-.018.097-.056.188-.038.09-.093.173-.054.081-.124.151-.07.07-.151.124-.082.055-.173.093-.091.038-.188.057-.097.019-.195.019t-.195-.02q-.097-.018-.188-.056-.09-.038-.173-.093-.081-.054-.151-.124-.07-.07-.124-.151-.055-.082-.093-.173-.038-.091-.057-.188-.019-.097-.019-.195t.02-.195q.018-.097.056-.188.038-.09.093-.173.054-.081.124-.151.07-.07.151-.124.082-.055.173-.093.091-.038.188-.057.097-.019.195-.019t.195.02q.097.018.188.056.09.038.173.093.081.054.151.124.07.07.124.151.055.082.093.173.038.091.057.188.019.097.019.195Z" data-follow-fill="currentColor"/><path fill="currentColor" d="M21 12.996H8q-.098 0-.195-.02-.097-.019-.188-.056-.09-.038-.173-.093-.081-.054-.151-.124-.07-.07-.124-.152-.055-.081-.093-.172-.038-.091-.057-.188Q7 12.094 7 11.996q0-.099.02-.195.018-.097.056-.188.038-.09.093-.173.054-.082.124-.151.07-.07.151-.125.082-.054.173-.092.091-.038.188-.057.097-.02.195-.02h13q.099 0 .195.02.097.02.188.057.09.038.173.092.081.055.151.125.07.07.124.151.055.082.093.173.038.091.057.188.019.096.019.195 0 .098-.02.195-.018.097-.056.188-.038.09-.093.172-.054.082-.124.152-.07.07-.151.124-.082.055-.173.093-.091.037-.188.057-.096.019-.195.019Zm1-1q0 .098-.02.195-.018.097-.056.188-.038.09-.093.172-.054.082-.124.152-.07.07-.151.124-.082.055-.173.093-.091.037-.188.057-.096.019-.195.019t-.195-.02q-.097-.019-.188-.056-.09-.038-.173-.093-.081-.054-.151-.124-.07-.07-.124-.152-.055-.081-.093-.172-.038-.091-.057-.188-.019-.097-.019-.195 0-.099.02-.195.018-.097.056-.188.038-.09.093-.173.054-.082.124-.151.07-.07.151-.125.082-.054.173-.092.091-.038.188-.057.096-.02.195-.02t.195.02q.097.02.188.057.09.038.173.092.081.055.151.125.07.07.124.151.055.082.093.173.038.091.057.188.019.096.019.195Zm-13 0q0 .098-.02.195-.018.097-.056.188-.038.09-.093.172-.054.082-.124.152-.07.07-.151.124-.082.055-.173.093-.091.037-.188.057-.097.019-.195.019t-.195-.02q-.097-.019-.188-.056-.09-.038-.173-.093-.081-.054-.151-.124-.07-.07-.124-.152-.055-.081-.093-.172-.038-.091-.057-.188Q7 12.094 7 11.996q0-.099.02-.195.018-.097.056-.188.038-.09.093-.173.054-.082.124-.151.07-.07.151-.125.082-.054.173-.092.091-.038.188-.057.097-.02.195-.02t.195.02q.097.02.188.057.09.038.173.092.081.055.151.125.07.07.124.151.055.082.093.173.038.091.057.188.019.096.019.195Z" data-follow-fill="currentColor"/></g></svg>