<svg viewBox="0 0 24 24" fill="none" xmlns="http://www.w3.org/2000/svg"><defs><clipPath id="a"><rect rx="0" height="24" width="24"/></clipPath></defs><g clip-path="url(#a)"><path fill="#333" fill-rule="evenodd" d="M3 21v-4q0-.099-.02-.195-.018-.097-.056-.188-.038-.09-.093-.173-.054-.081-.124-.151-.07-.07-.151-.124-.082-.055-.173-.093-.091-.038-.188-.057Q2.098 16 2 16t-.195.02q-.097.018-.188.056-.09.038-.173.093-.081.054-.151.124-.07.07-.124.151-.055.082-.093.173-.038.091-.057.188Q1 16.9 1 17v4.5q0 .621.44 1.06.439.44 1.06.44h7q.621 0 1.06-.44.44-.439.44-1.06v-19q0-.621-.44-1.06Q10.122 1 9.5 1h-7q-.621 0-1.06.44Q1 1.878 1 2.5V7q0 .098.02.195.018.097.056.188.038.09.093.173.054.081.124.151.07.07.151.124.082.055.173.093.091.038.188.057Q1.902 8 2 8t.195-.02q.097-.018.188-.056.09-.038.173-.093.081-.054.151-.124.07-.07.124-.151.055-.082.093-.173.038-.091.057-.188Q3 7.098 3 7V3h6v18H3ZM21 3v4q0 .098.02.195.018.097.056.188.038.09.093.173.054.081.124.151.07.07.151.124.082.055.173.093.091.038.188.057Q21.902 8 22 8t.195-.02q.097-.018.188-.056.09-.038.173-.093.081-.054.151-.124.07-.07.124-.151.055-.082.093-.173.038-.091.057-.188Q23 7.098 23 7V2.5q0-.621-.44-1.06Q22.122 1 21.5 1h-7q-.621 0-1.06.44Q13 1.878 13 2.5v19q0 .621.44 1.06.439.44 1.06.44h7q.621 0 1.06-.44.44-.439.44-1.06V17q0-.099-.02-.195-.018-.097-.056-.188-.038-.09-.093-.173-.054-.081-.124-.151-.07-.07-.151-.124-.082-.055-.173-.093-.091-.038-.188-.057Q22.098 16 22 16t-.195.02q-.097.018-.188.056-.09.038-.173.093-.081.054-.151.124-.07.07-.124.151-.055.082-.093.173-.038.091-.057.188Q21 16.9 21 17v4h-6V3h6Z" data-follow-fill="#333"/><path fill="#333" fill-rule="evenodd" d="m14 13 7.999.007H22q.024 0 .047-.002.186-.008.357-.084.17-.075.303-.207.14-.14.217-.324.076-.184.076-.383 0-.092-.017-.182-.015-.085-.046-.167-.03-.081-.074-.156t-.1-.142q-.056-.066-.123-.122-.067-.055-.142-.099-.075-.043-.157-.073t-.168-.044q-.085-.015-.172-.015H22L14.001 11H14q-.091 0-.181.017-.086.015-.167.046-.082.03-.157.074t-.141.1q-.067.056-.122.123-.056.067-.1.142-.042.075-.072.157-.03.082-.045.168-.015.085-.015.172V12q0 .091.017.181.015.086.046.167.03.082.074.157t.1.141q.056.067.123.122.067.056.142.1.075.042.157.072.082.03.168.045.085.015.172.015H14ZM10 13q.1 0 .196-.02.096-.019.187-.056.091-.038.173-.093.082-.055.151-.124.07-.07.125-.152.054-.082.092-.173.038-.09.057-.187Q11 12.098 11 12q0-.2-.076-.383-.077-.184-.217-.325-.141-.14-.325-.216Q10.2 11 10 11h-.001L2 11.007q-.1 0-.196.019-.096.02-.187.057-.091.038-.173.092-.082.055-.151.125-.07.07-.125.151-.054.082-.092.173-.038.091-.057.188-.019.096-.019.195t.02.195q.019.097.056.188.038.09.093.173.055.081.124.151.07.07.152.124.082.055.173.093.09.037.187.056.097.02.195.02h.001L10 13Z" data-follow-fill="#333"/><path fill="#333" fill-rule="evenodd" d="M20.321 8.909q-.14-.14-.325-.217-.183-.076-.382-.076-.2 0-.383.076-.184.076-.324.217-.141.14-.217.324-.076.184-.076.383t.076.383q.076.183.217.324l.795.796.884.883-.884.884-.795.796q-.141.14-.217.324-.076.184-.076.383t.076.383q.076.183.217.324.14.14.324.217.184.076.383.076t.382-.076q.184-.076.325-.217l.795-.795 1.591-1.591q.07-.07.125-.152.054-.082.092-.173.038-.09.057-.187.02-.097.02-.196 0-.098-.02-.195-.02-.096-.057-.187-.038-.091-.092-.173-.055-.082-.125-.152l-1.59-1.59-.796-.796ZM4.29 11.123l.795-.796q.14-.14.217-.324.076-.184.076-.383t-.076-.383q-.077-.183-.217-.324-.14-.14-.325-.217-.183-.076-.382-.076-.2 0-.383.076-.184.076-.324.217l-.796.796-1.59 1.59q-.142.141-.218.325-.076.184-.076.383 0 .198.076.382t.217.325l1.591 1.59.796.796q.14.14.324.217.184.076.383.076l.051-.001q.186-.01.355-.085.17-.076.3-.207.141-.14.218-.324.076-.184.076-.383l-.002-.052q-.01-.185-.085-.354-.075-.17-.206-.301l-.796-.796-.884-.883.884-.884Z" data-follow-fill="#333"/></g></svg>