<svg xmlns="http://www.w3.org/2000/svg" xmlns:xlink="http://www.w3.org/1999/xlink" fill="none" version="1.1" width="45" height="45" viewBox="0 0 45 45"><g><g><rect x="0.5" y="0.5" width="44" height="44" rx="3" fill="#D8D8D8" fill-opacity="0.009999999776482582"/><path d="M0,37.5L0,35.5L1,35.5L1,37.5L0,37.5ZM0,33.5L0,31.5L1,31.5L1,33.5L0,33.5ZM0,29.5L0,27.5L1,27.5L1,29.5L0,29.5ZM0,25.5L0,23.5L1,23.5L1,25.5L0,25.5ZM0,21.5L0,19.5L1,19.5L1,21.5L0,21.5ZM0,17.5L0,15.5L1,15.5L1,17.5L0,17.5ZM0,13.5L0,11.5L1,11.5L1,13.5L0,13.5ZM0,9.5L0,7.5L1,7.5L1,9.5L0,9.5ZM0,5.5L0,3.5L1,3.5L1,5.5L0,5.5ZM0.751079,1.333566Q1.50413,0.378041,2.6875,0.095615L2.91964,1.0682960000000001Q2.0743799999999997,1.270029,1.53649,1.95255L0.751079,1.333566ZM4.79523,0L6.79523,0L6.79523,1L4.79523,1L4.79523,0ZM8.79523,0L10.7952,0L10.7952,1L8.79523,1L8.79523,0ZM12.7952,0L14.7952,0L14.7952,1L12.7952,1L12.7952,0ZM16.7952,0L18.7952,0L18.7952,1L16.7952,1L16.7952,0ZM20.7952,0L22.7952,0L22.7952,1L20.7952,1L20.7952,0ZM24.7952,0L26.7952,0L26.7952,1L24.7952,1L24.7952,0ZM28.7952,0L30.7952,0L30.7952,1L28.7952,1L28.7952,0ZM32.7952,0L34.7952,0L34.7952,1L32.7952,1L32.7952,0ZM36.7952,0L38.7952,0L38.7952,1L36.7952,1L36.7952,0ZM40.7952,0L41.5,0Q42.2675,0,42.9646,0.321157L42.5461,1.229398Q42.0482,1,41.5,1L40.7952,1L40.7952,0ZM44.6208,1.9156Q45,2.66244,45,3.5L45,4.090450000000001L44,4.090450000000001L44,3.5Q44,2.90173,43.7292,2.36828L44.6208,1.9156ZM45,6.09045L45,8.09045L44,8.09045L44,6.09045L45,6.09045ZM45,10.09045L45,12.0905L44,12.0905L44,10.09045L45,10.09045ZM45,14.0905L45,16.0905L44,16.0905L44,14.0905L45,14.0905ZM45,18.0905L45,20.0905L44,20.0905L44,18.0905L45,18.0905ZM45,22.0905L45,24.0905L44,24.0905L44,22.0905L45,22.0905ZM45,26.0905L45,28.0905L44,28.0905L44,26.0905L45,26.0905ZM45,30.0905L45,32.0905L44,32.0905L44,30.0905L45,30.0905ZM45,34.0905L45,36.0905L44,36.0905L44,34.0905L45,34.0905ZM45,38.0905L45,40.0905L44,40.0905L44,38.0905L45,38.0905ZM44.9325,42.1842Q44.6949,43.376,43.7699,44.1641L43.1213,43.403Q43.7821,42.84,43.9518,41.9887L44.9325,42.1842ZM41.63,44.9976Q41.565,45,41.5,45L39.6143,45L39.6143,44L41.5,44Q41.5465,44,41.5928,43.9983L41.63,44.9976ZM37.6143,45L35.6143,45L35.6143,44L37.6143,44L37.6143,45ZM33.6143,45L31.6143,45L31.6143,44L33.6143,44L33.6143,45ZM29.6143,45L27.6143,45L27.6143,44L29.6143,44L29.6143,45ZM25.6143,45L23.6143,45L23.6143,44L25.6143,44L25.6143,45ZM21.6143,45L19.6143,45L19.6143,44L21.6143,44L21.6143,45ZM17.6143,45L15.6143,45L15.6143,44L17.6143,44L17.6143,45ZM13.6143,45L11.6143,45L11.6143,44L13.6143,44L13.6143,45ZM9.61432,45L7.61432,45L7.61432,44L9.61432,44L9.61432,45ZM5.61432,45L3.61432,45L3.61432,44L5.61432,44L5.61432,45ZM1.4399359999999999,44.3295Q0.4560745,43.6132,0.12887300000000002,42.441L1.092052,42.1721Q1.325769,43.0094,2.0285200000000003,43.5211L1.4399359999999999,44.3295ZM0,41.5L0,39.5L1,39.5L1,41.5L0,41.5Z" fill="#DCDEE0" /></g><g><path d="M31.6875,29.2656L31.6875,14.73438C31.6875,14.06559,31.4511,13.49475,30.9782,13.021856C30.5052,12.548952,29.9344,12.3125,29.2656,12.3125L14.73438,12.3125C14.06559,12.3125,13.49475,12.548951,13.021851999999999,13.021851999999999C12.548951,13.49475,12.3125,14.06559,12.3125,14.73438L12.3125,29.2656C12.3125,29.9344,12.548952,30.5052,13.021856,30.9782C13.49475,31.4511,14.06559,31.6875,14.73438,31.6875L29.2656,31.6875C29.9345,31.6875,30.5053,31.4511,30.9782,30.9782C31.4511,30.5053,31.6875,29.9345,31.6875,29.2656Z" fill-rule="evenodd" fill="#1890FF" /></g><g><path d="M29.6082,14.391864C29.7027,14.486446,29.75,14.600616,29.75,14.734375L29.75,29.2656C29.75,29.3994,29.7027,29.5136,29.6082,29.6082C29.5136,29.7027,29.3994,29.75,29.2656,29.75L14.734375,29.75C14.600616,29.75,14.486446,29.7027,14.391864,29.6082C14.2972879,29.5136,14.25,29.3994,14.25,29.2656L14.25,14.734375C14.25,14.600616,14.2972911,14.486449,14.391873,14.391873C14.486449,14.2972911,14.600616,14.25,14.734375,14.25L29.2656,14.25C29.3994,14.25,29.5136,14.2972879,29.6082,14.391864Z" fill-rule="evenodd" fill="#FFFFFF" /></g><g><path d="M16.69622,16.69622C16.034157,17.358285,15.703125,18.157455,15.703125,19.093745C15.703125,20.030045,16.034157,20.829214999999998,16.69622,21.491285C17.358285,22.153345,18.157455,22.484375,19.093745,22.484375C20.030045,22.484375,20.829214999999998,22.153345,21.491285,21.491285C22.153345,20.829214999999998,22.484375,20.030045,22.484375,19.093745C22.484375,18.157455,22.153345,17.358285,21.491285,16.69622C20.829214999999998,16.034157,20.030045,15.703125,19.093745,15.703125C18.157455,15.703125,17.358285,16.034157,16.69622,16.69622Z" fill-rule="evenodd" fill="#00B42A" /></g><g><path d="M18.066236,20.121265C17.782495,19.837515,17.640625,19.495015,17.640625,19.093745C17.640625,18.692485,17.782495,18.349983,18.066236,18.066236C18.349983,17.782495,18.692485,17.640625,19.093745,17.640625C19.495015,17.640625,19.837515,17.782495,20.121265,18.066236C20.405005,18.349983,20.546875,18.692485,20.546875,19.093745C20.546875,19.495015,20.405005,19.837515,20.121265,20.121265C19.837515,20.405005,19.495015,20.546875,19.093745,20.546875C18.692485,20.546875,18.349983,20.405005,18.066236,20.121265Z" fill-rule="evenodd" fill="#FFFFFF" /></g><g><path d="M12.700159,26.55301L12.7,26.55313C12.597229,26.630209999999998,12.513117,26.72402,12.447666,26.83456C12.3822138,26.94509,12.3404042,27.06395,12.32223691,27.191119999999998C12.31574564,27.23656,12.3125,27.28223,12.3125,27.32812L12.3125058125,27.33145C12.312863604,27.43569,12.3296084,27.537219999999998,12.3627403,27.63604C12.3958716,27.73487,12.443708,27.82599,12.50625,27.90938C12.583328999999999,28.01215,12.677138,28.09626,12.787679,28.16171C12.898219,28.227159999999998,13.017075,28.26897,13.144248,28.28714C13.189685,28.29363,13.235352,28.29688,13.28125,28.29688L13.284574,28.29687C13.38881,28.296509999999998,13.49034,28.27977,13.58917,28.24664C13.688,28.2135,13.77911,28.16567,13.8625,28.10313L17.11581,25.66313L19.91642,28.06366C19.960720000000002,28.10163,20.00806,28.13532,20.05844,28.16473C20.10882,28.19415,20.16143,28.21881,20.21627,28.23872C20.27111,28.25863,20.327289999999998,28.27346,20.38481,28.28323C20.44233,28.29298,20.50026,28.29751,20.558590000000002,28.29681C20.61693,28.2961,20.67473,28.29017,20.73199,28.27902C20.78926,28.267870000000002,20.84506,28.25169,20.8994,28.23046C20.95374,28.209220000000002,21.00574,28.18329,21.0554,28.15267C21.10506,28.12205,21.15157,28.087220000000002,21.19493,28.048189999999998L25.3873,24.27501L30.0666,28.52883L30.0671,28.52932C30.1563,28.61037,30.257,28.672620000000002,30.3694,28.716070000000002C30.4818,28.759520000000002,30.5982,28.78125,30.7187,28.78125L30.7212,28.78125C30.7358,28.78121,30.7503,28.78085,30.7649,28.780160000000002C30.8932,28.77405,31.0154,28.74361,31.1316,28.68886C31.2478,28.63411,31.3491,28.55921,31.4355,28.46415C31.5166,28.37499,31.5788,28.27422,31.6223,28.161830000000002C31.6658,28.04944,31.6875,27.933,31.6875,27.81251C31.6875,27.79713,31.6871,27.78177,31.6864,27.76642C31.6803,27.6381,31.6498,27.51584,31.5951,27.39962C31.5404,27.28341,31.4655,27.1821,31.3704,27.09568L31.3698,27.0952L26.042299999999997,22.251933C25.9983,22.21189,25.9509,22.176209,25.9003,22.144892C25.8497,22.113575,25.796599999999998,22.087149,25.7411,22.0656136C25.6856,22.0440777,25.6286,22.0277959,25.5701,22.0167683C25.5116,22.0057407,25.4526,22.000152307,25.393,22.00000311973C25.3335,21.999852641,25.2745,22.00514589,25.216,22.0158829C25.157400000000003,22.0266179,25.1003,22.0426142,25.0447,22.0638718C24.9891,22.0851301,24.9359,22.111291,24.8851,22.142354C24.8343,22.173418,24.7868,22.208861,24.7425,22.248684L20.531280000000002,26.03884L17.7867,23.68634C17.74516,23.65074,17.70093,23.61889,17.65399,23.59078C17.60706,23.56267,17.5581,23.538710000000002,17.5071,23.51889C17.45611,23.49908,17.40381,23.48369,17.35021,23.47274C17.29661,23.46179,17.24247,23.45542,17.18779,23.45364C17.133110000000002,23.45186,17.07867,23.45469,17.02447,23.46213C16.97027,23.46957,16.91709,23.48152,16.864910000000002,23.49797C16.812730000000002,23.51443,16.76231,23.53515,16.71365,23.56015C16.66498,23.58514,16.618769999999998,23.61405,16.575,23.64688L12.700159,26.55301Z" fill-rule="evenodd" fill="#1890FF" /></g></g></svg>