<svg xmlns="http://www.w3.org/2000/svg" xmlns:xlink="http://www.w3.org/1999/xlink" fill="none" version="1.1" width="14.40000057220459" height="14.40000057220459" viewBox="0 0 14.40000057220459 14.40000057220459"><defs><clipPath id="master_svg0_149_78752"><rect x="0" y="0" width="14.40000057220459" height="14.40000057220459" rx="0"/></clipPath></defs><g clip-path="url(#master_svg0_149_78752)"><g><g><path d="M10.80009765625,5.0771755859375L10.80009765625,1.7999755859375L1.80009765625,1.7999755859375L1.80009765625,12.5999755859375L8.40009765625,12.5999755859375C8.73146765625,12.5999755859375,9.00009765625,12.8685755859375,9.00009765625,13.1999755859375C9.00009765625,13.5313755859375,8.73146765625,13.7999755859375,8.40009765625,13.7999755859375L1.80009765625,13.7999755859375Q1.30329765625,13.7999755859375,0.95169765625,13.4483755859375Q0.60009765625,13.0967755859375,0.60009765625,12.5999755859375L0.60009765625,1.7999755859375Q0.60009765625,1.3031755859375,0.95169765625,0.9515755859375Q1.30329765625,0.5999755859375,1.80009765625,0.5999755859375L10.80009765625,0.5999755859375Q11.29689765625,0.5999755859375,11.64849765625,0.9515755859375Q12.00009765625,1.3031755859375,12.00009765625,1.7999755859375L12.00009765625,5.0999755859375C12.00009765625,5.4313455859375,11.73149765625,5.6999755859375,11.40009765625,5.6999755859375C11.06869765625,5.6999755859375,10.80009765625,5.4313455859375,10.80009765625,5.0999755859375L10.80009765625,5.0771755859375ZM3.60009765625,4.1999755859375L8.40009765625,4.1999755859375C8.73146765625,4.1999755859375,9.00009765625,3.9313455859375,9.00009765625,3.5999755859375C9.00009765625,3.2686055859375,8.73146765625,2.9999755859375,8.40009765625,2.9999755859375L3.60009765625,2.9999755859375C3.26872765625,2.9999755859375,3.00009765625,3.2686055859375,3.00009765625,3.5999755859375C3.00009765625,3.9313455859375,3.26872765625,4.1999755859375,3.60009765625,4.1999755859375ZM3.60009765625,7.1999755859375L6.60009765625,7.1999755859375C6.93146765625,7.1999755859375,7.20009765625,6.9313455859375,7.20009765625,6.5999755859375C7.20009765625,6.2686055859375,6.93146765625,5.9999755859375,6.60009765625,5.9999755859375L3.60009765625,5.9999755859375C3.26872765625,5.9999755859375,3.00009765625,6.2686055859375,3.00009765625,6.5999755859375C3.00009765625,6.9313455859375,3.26872765625,7.1999755859375,3.60009765625,7.1999755859375ZM11.82429765625,7.3757755859375L13.62429765625,9.1757755859375C13.85849765625,9.4100755859375,13.85849765625,9.7898755859375,13.62429765625,10.0241755859375L11.82429765625,11.8241755859375C11.58889765625,12.0515755859375,11.21469765625,12.0482755859375,10.98319765625,11.8168755859375C10.75179765625,11.5853755859375,10.74849765625,11.2111755859375,10.97589765625,10.9757755859375L11.75169765625,10.1999755859375L7.80009765625,10.1999755859375C7.46872765625,10.1999755859375,7.20009765625,9.9313455859375,7.20009765625,9.5999755859375C7.20009765625,9.2686055859375,7.46872765625,8.9999755859375,7.80009765625,8.9999755859375L11.75169765625,8.9999755859375L10.97589765625,8.2241755859375C10.74849765625,7.9887455859375,10.75179765625,7.6145255859375,10.98319765625,7.3830855859375C11.21459765625,7.1516455859375,11.58889765625,7.1483955859375,11.82429765625,7.3757755859375Z" fill-rule="evenodd" fill="#FFFFFF" fill-opacity="1"/></g></g><g transform="matrix(-1,0,0,1,21.29427146911621,0)"><g><path d="M13.318395734558106,7.168428L15.118395734558106,8.96843C15.352625734558107,9.202729999999999,15.352625734558107,9.58253,15.118395734558106,9.81683L13.318395734558106,11.61683C13.082965734558105,11.84421,12.708745734558105,11.84095,12.477315734558106,11.60951C12.245875734558105,11.378070000000001,12.242615734558106,11.00386,12.469995734558106,10.76843L13.245795734558106,9.99263L10.794380734558105,9.7926C10.463009734558106,9.7926,10.794500734558106,10.32399,10.794500734558106,9.992609999999999C10.794500734558106,9.66124,12.155995734558106,10.19261,12.293785734558105,9.7926Q12.431565734558106,9.3926,13.245795734558106,8.792629999999999L12.469995734558106,8.01683C12.242615734558106,7.781401,12.245865734558105,7.407177,12.477305734558106,7.175736C12.708745734558105,6.9442954,13.082965734558105,6.9410439,13.318395734558106,7.168428Z" fill-rule="evenodd" fill="#FFFFFF" fill-opacity="1"/></g></g></g></svg>