<svg xmlns="http://www.w3.org/2000/svg" xmlns:xlink="http://www.w3.org/1999/xlink" fill="none" version="1.1" width="92.16002655029297" height="92.16002655029297" viewBox="0 0 92.16002655029297 92.16002655029297"><defs><clipPath id="master_svg0_149_74068"><rect x="0" y="0" width="92.16002655029297" height="92.16002655029297" rx="0"/></clipPath></defs><g clip-path="url(#master_svg0_149_74068)"><g><path d="M72.12491640625,20.03484853515625L48.13961640625,3.72482753515625C47.47831640625,3.27624213515625,46.67181640625,3.09475933515625,45.88211640625,3.21690363515625L6.37692640625,10.77932853515625C4.59192740625,10.91505853515625,3.32508240625,12.57779853515625,3.66799980625,14.33484853515625L18.002716406250002,89.67694853515626C18.31621640625,91.32764853515626,19.90671640625,92.41314853515625,21.55821640625,92.10364853515625L55.70201640625,85.61354853515626L62.70011640625,84.31544853515625L81.43681640625,80.76004853515624C83.08761640625,80.44644853515625,84.17311640625,78.85604853515625,83.86361640625,77.20454853515625L80.70321640625,60.61234853515625L79.29221640625,53.27564853515625L73.36651640625,22.01014853515625C73.22521640625,21.21524853515625,72.77991640625,20.50674853515625,72.12491640625,20.03484853515625ZM45.82571640625,10.38427853515625L66.76351640625,24.66254853515625L49.15541640625,28.21804853515625L45.82571640625,10.38427853515625ZM73.25361640625,58.29844853515625L76.41401640625,74.77774853515625L61.40201640625,77.59954853515625L54.46041640625,79.01044853515624L24.04141640625,84.65404853515625L11.17399640625,16.93084853515625L39.39201640625,11.62586853515625L43.17321640625,31.66064853515625C43.59961640625,33.82314853515625,45.69251640625,35.23524853515625,47.85741640625,34.82104853515625L68.06151640625,30.98344853515625L73.19721640625,58.29844853515625L73.25361640625,58.29844853515625Z" fill="#1890FF" fill-opacity="1"/></g><g><path d="M27.20166015625,5.36146819140625L27.20166015625,77.54319619140625L82.90406015625,77.54319619140625L82.90406015625,23.75959619140625L63.94156015625,5.24859619140625L27.20166015625,5.36146819140625Z" fill="#FFFFFF" fill-opacity="1"/></g><g><path d="M87.64470546875,21.3892L67.21480546875,0.902977C66.62350546875,0.331782,65.83590546875,0.00867172,65.01380546875001,2.21287e-14L24.60565546875,2.21287e-14C22.92253546875,-2.00643e-7,21.55810409546,1.36443,21.55810546875,3.04755L21.55810546875,79.7441C21.55810134888,81.4272,22.92253546875,82.7916,24.60565546875,82.7916L85.50010546875001,82.7916C87.18320546875,82.7917,88.54770546875,81.4272,88.54770546875,79.7441L88.54770546875,23.3081C88.50190546875,22.5769,88.17890546875,21.8906,87.64470546875,21.3892ZM63.60290546875,6.99807L81.54960546875,24.9447L63.60290546875,24.9447L63.60290546875,6.99807ZM81.71890546875,59.2014L81.71890546875,76.1322L28.38686546875,76.1322L28.38686546875,6.82876L57.16920546875,6.82876L57.16920546875,27.4279C57.16920546875,29.6409,58.96320546875,31.4349,61.17620546875,31.4349L81.71890546875,31.4349L81.71890546875,59.2014Z" fill="#1890FF" fill-opacity="1"/></g></g></svg>