<svg xmlns="http://www.w3.org/2000/svg" xmlns:xlink="http://www.w3.org/1999/xlink" fill="none" version="1.1" width="24" height="24" viewBox="0 0 24 24"><defs><clipPath id="master_svg0_1_338"><rect x="0" y="0" width="24" height="24" rx="0"/></clipPath></defs><g clip-path="url(#master_svg0_1_338)"><g><path d="M3,10.5Q3,13.6066,5.1967099999999995,15.8033Q7.39341,18,10.5,18Q13.6066,18,15.8033,15.8033Q18,13.6066,18,10.5Q18,7.39341,15.8033,5.1967099999999995Q13.6066,3,10.5,3Q7.39341,3,5.1967099999999995,5.1967099999999995Q3,7.39341,3,10.5ZM1,10.5Q1,8.5679,1.746971,6.80187Q2.468138,5.09685,3.78249,3.78249Q5.09685,2.468139,6.80187,1.746971Q8.5679,1,10.5,1Q12.4321,1,14.1981,1.746971Q15.9032,2.468138,17.2175,3.78249Q18.5319,5.09685,19.253,6.80187Q20,8.5679,20,10.5Q20,12.4321,19.253,14.1981Q18.5319,15.9031,17.2175,17.2175Q15.9032,18.5319,14.1981,19.253Q12.4321,20,10.5,20Q8.5679,20,6.80187,19.253Q5.09685,18.5319,3.78249,17.2175Q2.468138,15.9032,1.746971,14.1981Q1,12.4321,1,10.5Z" fill="currentColor" fill-stroke-opacity="1"/></g><g><path d="M20.146339789428712,21.560609380493165L15.90369278942871,17.317956380493165Q15.83404878942871,17.248312380493164,15.779329789428711,17.166419380493164Q15.72461178942871,17.084527380493164,15.686920789428711,16.993532380493164Q15.649229789428711,16.902538380493166,15.63001478942871,16.805939380493164Q15.610799789428711,16.709340780493164,15.610799789428711,16.610849380493164Q15.610799789428711,16.512357980493164,15.63001478942871,16.415759380493164Q15.649229789428711,16.319160380493162,15.686920789428711,16.228166380493164Q15.72461178942871,16.137171380493164,15.779329789428711,16.055279380493165Q15.83404878942871,15.973386380493164,15.90369278942871,15.903742380493163Q15.97333678942871,15.834098380493163,16.05522978942871,15.779379380493165Q16.13712178942871,15.724661380493163,16.22811678942871,15.686970380493165Q16.31911078942871,15.649279380493164,16.41570978942871,15.630064380493163Q16.51230838942871,15.610849380493164,16.61079978942871,15.610849380493164Q16.70929118942871,15.610849380493164,16.80588978942871,15.630064380493163Q16.902488789428713,15.649279380493164,16.99348278942871,15.686970380493165Q17.08447778942871,15.724661380493163,17.16636978942871,15.779379380493165Q17.24826278942871,15.834098380493163,17.31790678942871,15.903742380493163L21.560559789428712,20.146389380493165Q21.630199789428712,20.216039380493164,21.68491978942871,20.297929380493166Q21.73963978942871,20.379819380493164,21.777329789428713,20.470819380493165Q21.81501978942871,20.561809380493163,21.83423978942871,20.658409380493165Q21.853449789428712,20.755009380493163,21.853449789428712,20.853499380493165Q21.853449789428712,20.951989380493163,21.83423978942871,21.048589380493162Q21.81501978942871,21.145189380493164,21.777329789428713,21.236179380493162Q21.73963978942871,21.327179380493163,21.68491978942871,21.409069380493165Q21.630199789428712,21.490959380493166,21.560559789428712,21.560609380493165Q21.490909789428713,21.630249380493165,21.40901978942871,21.684969380493165Q21.32712978942871,21.739689380493164,21.23612978942871,21.777379380493166Q21.14513978942871,21.815069380493163,21.04853978942871,21.834289380493164Q20.95193978942871,21.853499380493165,20.853449789428712,21.853499380493165Q20.75495978942871,21.853499380493165,20.65835978942871,21.834289380493164Q20.56175978942871,21.815069380493163,20.47076978942871,21.777379380493166Q20.37976978942871,21.739689380493164,20.297879789428713,21.684969380493165Q20.21598978942871,21.630249380493165,20.146339789428712,21.560609380493165ZM21.853449789428712,20.853499380493165Q21.853449789428712,20.951989380493163,21.83423978942871,21.048589380493162Q21.81501978942871,21.145189380493164,21.777329789428713,21.236179380493162Q21.73963978942871,21.327179380493163,21.68491978942871,21.409069380493165Q21.630199789428712,21.490959380493166,21.560559789428712,21.560609380493165Q21.490909789428713,21.630249380493165,21.40901978942871,21.684969380493165Q21.32712978942871,21.739689380493164,21.23612978942871,21.777379380493166Q21.14513978942871,21.815069380493163,21.04853978942871,21.834289380493164Q20.95193978942871,21.853499380493165,20.853449789428712,21.853499380493165Q20.75495978942871,21.853499380493165,20.65835978942871,21.834289380493164Q20.56175978942871,21.815069380493163,20.47076978942871,21.777379380493166Q20.37976978942871,21.739689380493164,20.297879789428713,21.684969380493165Q20.21598978942871,21.630249380493165,20.146339789428712,21.560609380493165Q20.076699789428712,21.490959380493166,20.021979789428713,21.409069380493165Q19.96725978942871,21.327179380493163,19.92956978942871,21.236179380493162Q19.89187978942871,21.145189380493164,19.872669789428713,21.048589380493162Q19.853449789428712,20.951989380493163,19.853449789428712,20.853499380493165Q19.853449789428712,20.755009380493163,19.872669789428713,20.658409380493165Q19.89187978942871,20.561809380493163,19.92956978942871,20.470819380493165Q19.96725978942871,20.379819380493164,20.021979789428713,20.297929380493166Q20.076699789428712,20.216039380493164,20.146339789428712,20.146389380493165Q20.21598978942871,20.076749380493165,20.297879789428713,20.022029380493166Q20.37976978942871,19.967309380493163,20.47076978942871,19.929619380493165Q20.56175978942871,19.891929380493163,20.65835978942871,19.872719380493166Q20.75495978942871,19.853499380493165,20.853449789428712,19.853499380493165Q20.95193978942871,19.853499380493165,21.04853978942871,19.872719380493166Q21.14513978942871,19.891929380493163,21.23612978942871,19.929619380493165Q21.32712978942871,19.967309380493163,21.40901978942871,20.022029380493166Q21.490909789428713,20.076749380493165,21.560559789428712,20.146389380493165Q21.630199789428712,20.216039380493164,21.68491978942871,20.297929380493166Q21.73963978942871,20.379819380493164,21.777329789428713,20.470819380493165Q21.81501978942871,20.561809380493163,21.83423978942871,20.658409380493165Q21.853449789428712,20.755009380493163,21.853449789428712,20.853499380493165ZM17.61079978942871,16.610849380493164Q17.61079978942871,16.709340780493164,17.591584789428712,16.805939380493164Q17.572369789428713,16.902538380493166,17.53467878942871,16.993532380493164Q17.49698778942871,17.084527380493164,17.44226978942871,17.166419380493164Q17.387550789428712,17.248312380493164,17.31790678942871,17.317956380493165Q17.24826278942871,17.387600380493165,17.16636978942871,17.442319380493164Q17.08447778942871,17.497037380493165,16.99348278942871,17.534728380493164Q16.902488789428713,17.572419380493166,16.80588978942871,17.591634380493165Q16.70929118942871,17.610849380493164,16.61079978942871,17.610849380493164Q16.51230838942871,17.610849380493164,16.41570978942871,17.591634380493165Q16.31911078942871,17.572419380493166,16.22811678942871,17.534728380493164Q16.13712178942871,17.497037380493165,16.05522978942871,17.442319380493164Q15.97333678942871,17.387600380493165,15.90369278942871,17.317956380493165Q15.83404878942871,17.248312380493164,15.779329789428711,17.166419380493164Q15.72461178942871,17.084527380493164,15.686920789428711,16.993532380493164Q15.649229789428711,16.902538380493166,15.63001478942871,16.805939380493164Q15.610799789428711,16.709340780493164,15.610799789428711,16.610849380493164Q15.610799789428711,16.512357980493164,15.63001478942871,16.415759380493164Q15.649229789428711,16.319160380493162,15.686920789428711,16.228166380493164Q15.72461178942871,16.137171380493164,15.779329789428711,16.055279380493165Q15.83404878942871,15.973386380493164,15.90369278942871,15.903742380493163Q15.97333678942871,15.834098380493163,16.05522978942871,15.779379380493165Q16.13712178942871,15.724661380493163,16.22811678942871,15.686970380493165Q16.31911078942871,15.649279380493164,16.41570978942871,15.630064380493163Q16.51230838942871,15.610849380493164,16.61079978942871,15.610849380493164Q16.70929118942871,15.610849380493164,16.80588978942871,15.630064380493163Q16.902488789428713,15.649279380493164,16.99348278942871,15.686970380493165Q17.08447778942871,15.724661380493163,17.16636978942871,15.779379380493165Q17.24826278942871,15.834098380493163,17.31790678942871,15.903742380493163Q17.387550789428712,15.973386380493164,17.44226978942871,16.055279380493165Q17.49698778942871,16.137171380493164,17.53467878942871,16.228166380493164Q17.572369789428713,16.319160380493162,17.591584789428712,16.415759380493164Q17.61079978942871,16.512357980493164,17.61079978942871,16.610849380493164Z" fill="currentColor" fill-stroke-opacity="1"/></g></g></svg>