<svg viewBox="0 0 24 24" fill="none" xmlns="http://www.w3.org/2000/svg"><defs><clipPath id="a"><rect rx="0" height="24" width="24"/></clipPath></defs><g clip-path="url(#a)"><rect fill-opacity=".01" fill="#FFF" rx="0" height="24" width="24"/><path fill="#333" d="M17.055 5.707 6.708 16.067 6 15.36h1V19H6v-1h3.659v1l-.708-.707L19.293 7.947l.707.707-.707.707-3.653-3.654.707-.707.708.707ZM15.64 4.293q.07-.07.152-.125.082-.054.173-.092.091-.038.188-.057.096-.019.195-.019.098 0 .195.02.096.018.187.056.091.038.173.093.082.054.152.124l3.652 3.654q.07.07.125.152.054.081.092.172.038.091.057.188.019.097.019.195 0 .099-.02.195-.018.097-.056.188-.038.09-.092.172-.055.082-.125.152L10.366 19.707q-.14.14-.325.217Q9.858 20 9.66 20H6q-.098 0-.195-.02-.097-.018-.188-.056-.09-.038-.173-.093-.081-.054-.151-.124-.07-.07-.124-.151-.055-.082-.093-.173-.038-.091-.057-.188Q5 19.1 5 19v-3.64q0-.199.076-.382.076-.184.216-.325L15.64 4.293Z"/></g></svg>
