<svg viewBox="0 0 24 24" fill="none" xmlns="http://www.w3.org/2000/svg"><defs><clipPath id="a"><rect rx="0" height="24" width="24"/></clipPath></defs><g clip-path="url(#a)"><rect fill-opacity=".01" fill="#FFF" rx="0" height="24" width="24"/><path fill="#333" d="m4.707 7.293 8 8L12 16l-.707-.707 8-8q.07-.07.151-.124.082-.055.173-.093.091-.038.188-.057Q19.9 7 20 7t.195.02q.097.018.188.056.09.038.173.093.081.054.151.124.07.07.124.151.055.082.093.173.038.091.057.188Q21 7.902 21 8t-.02.195q-.018.097-.056.188-.038.09-.093.173-.054.081-.124.151l-8 8q-.07.07-.151.124-.082.055-.173.093-.091.038-.188.057Q12.098 17 12 17t-.195-.02q-.097-.018-.188-.056-.09-.038-.173-.093-.081-.054-.151-.124l-8-8q-.07-.07-.124-.151-.055-.082-.093-.173-.038-.091-.057-.188Q3 8.098 3 8t.02-.195q.018-.097.056-.188.038-.09.093-.173.054-.081.124-.151.07-.07.151-.124.082-.055.173-.093.091-.038.188-.057Q3.902 7 4 7t.195.02q.097.018.188.056.09.038.173.093.081.054.151.124ZM5 8q0 .098-.02.195-.018.097-.056.188-.038.09-.093.173-.054.081-.124.151-.07.07-.151.124-.082.055-.173.093-.091.038-.188.057Q4.098 9 4 9t-.195-.02q-.097-.018-.188-.056-.09-.038-.173-.093-.081-.054-.151-.124-.07-.07-.124-.151-.055-.082-.093-.173-.038-.091-.057-.188Q3 8.098 3 8t.02-.195q.018-.097.056-.188.038-.09.093-.173.054-.081.124-.151.07-.07.151-.124.082-.055.173-.093.091-.038.188-.057Q3.902 7 4 7t.195.02q.097.018.188.056.09.038.173.093.081.054.151.124.07.07.124.151.055.082.093.173.038.091.057.188Q5 7.902 5 8Zm16 0q0 .098-.02.195-.018.097-.056.188-.038.09-.093.173-.054.081-.124.151-.07.07-.151.124-.082.055-.173.093-.091.038-.188.057Q20.1 9 20 9t-.195-.02q-.097-.018-.188-.056-.09-.038-.173-.093-.081-.054-.151-.124-.07-.07-.124-.151-.055-.082-.093-.173-.038-.091-.057-.188Q19 8.098 19 8t.02-.195q.018-.097.056-.188.038-.09.093-.173.054-.081.124-.151.07-.07.151-.124.082-.055.173-.093.091-.038.188-.057Q19.9 7 20 7t.195.02q.097.018.188.056.09.038.173.093.081.054.151.124.07.07.124.151.055.082.093.173.038.091.057.188Q21 7.902 21 8Z"/></g></svg>