<svg xmlns="http://www.w3.org/2000/svg" xmlns:xlink="http://www.w3.org/1999/xlink" fill="none" version="1.1" width="24" height="24" viewBox="0 0 24 24"><defs><clipPath id="master_svg0_1_059"><rect x="0" y="0" width="24" height="24" rx="0"/></clipPath></defs><g clip-path="url(#master_svg0_1_059)"><g><path d="M7,7.71365L7,2.286354Q7,1.753529,7.376764,1.376764Q7.753529,1,8.286354,1L15.713650000000001,1Q16.246470000000002,1,16.62324,1.376764Q17,1.753529,17,2.286354L17,7.71365Q17,8.24647,16.62324,8.62324Q16.246470000000002,9,15.713650000000001,9L8.286354,9Q7.753529,9,7.376764,8.62324Q7,8.24647,7,7.71365ZM9,7.71365Q9,7.41804,8.790977999999999,7.20902Q8.581956,7,8.286354,7L15.713650000000001,7Q15.418040000000001,7,15.209019999999999,7.20902Q15,7.41804,15,7.71365L15,2.286354Q15,2.581956,15.209019999999999,2.790978Q15.418040000000001,3,15.713650000000001,3L8.286354,3Q8.581956,3,8.790977999999999,2.790978Q9,2.581956,9,2.286354L9,7.71365Z" fill="currentColor" fill-stroke-opacity="1"/></g><g><path d="M13,21.71365L13,16.286354Q13,15.753529,13.376764,15.376764Q13.753529,15,14.286354,15L21.71365,15Q22.246470000000002,15,22.62324,15.376764Q23,15.753529,23,16.286354L23,21.71365Q23,22.246470000000002,22.62324,22.62324Q22.246470000000002,23,21.71365,23L14.286354,23Q13.753529,23,13.376764,22.62324Q13,22.246470000000002,13,21.71365ZM15,21.71365Q15,21.41804,14.790977999999999,21.20902Q14.581956,21,14.286354,21L21.71365,21Q21.41804,21,21.20902,21.20902Q21,21.41804,21,21.71365L21,16.286354Q21,16.581956,21.20902,16.790978Q21.41804,17,21.71365,17L14.286354,17Q14.581956,17,14.790977999999999,16.790978Q15,16.581956,15,16.286354L15,21.71365Z" fill="currentColor" fill-stroke-opacity="1"/></g><g><path d="M1,21.71365L1,16.286354Q1,15.753529,1.376764,15.376764Q1.753529,15,2.286354,15L9.713650000000001,15Q10.24647,15,10.62324,15.376764Q11,15.753529,11,16.286354L11,21.71365Q11,22.246470000000002,10.62324,22.62324Q10.24647,23,9.713650000000001,23L2.286354,23Q1.753529,23,1.376764,22.62324Q1,22.246470000000002,1,21.71365ZM3,21.71365Q3,21.41804,2.790978,21.20902Q2.581956,21,2.286354,21L9.713650000000001,21Q9.418040000000001,21,9.209019999999999,21.20902Q9,21.41804,9,21.71365L9,16.286354Q9,16.581956,9.209019999999999,16.790978Q9.418040000000001,17,9.713650000000001,17L2.286354,17Q2.581956,17,2.790978,16.790978Q3,16.581956,3,16.286354L3,21.71365Z" fill="currentColor" fill-stroke-opacity="1"/></g><g><path d="M5,16L5,12.286354Q5,11.753529,5.376764,11.376764Q5.753529,11,6.286354,11L17.7136,11Q18.246499999999997,11,18.6232,11.376764Q19,11.753529,19,12.286354L19,16L17,16L17,12.286354Q17,12.581956,17.209,12.790977999999999Q17.418,13,17.7136,13L6.286354,13Q6.581956,13,6.790978,12.790977999999999Q7,12.581956,7,12.286354L7,16L5,16Z" fill="currentColor" fill-stroke-opacity="1"/></g><g transform="matrix(0,1,-1,0,21,-3)"><path d="M15,10L12,10Q11.9015086,10,11.80491,9.980785000000001Q11.708311,9.96157,11.617317,9.923879Q11.526322,9.886188,11.44443,9.83147Q11.362537,9.776751,11.292893,9.707107Q11.223249,9.637463,11.16853,9.55557Q11.113812,9.473678,11.076121,9.382683Q11.03843,9.291689,11.019214999999999,9.19509Q11,9.0984914,11,9Q11,8.9015086,11.019214999999999,8.80491Q11.03843,8.708311,11.076121,8.617317Q11.113812,8.526322,11.16853,8.44443Q11.223249,8.362537,11.292893,8.292893Q11.362537,8.223249,11.44443,8.16853Q11.526322,8.113812,11.617317,8.076121Q11.708311,8.03843,11.80491,8.019214999999999Q11.9015086,8,12,8L15,8Q15.09849,8,15.19509,8.019214999999999Q15.29169,8.03843,15.38268,8.076121Q15.47368,8.113812,15.55557,8.16853Q15.63746,8.223249,15.70711,8.292893Q15.77675,8.362537,15.83147,8.44443Q15.88619,8.526322,15.92388,8.617317Q15.96157,8.708311,15.98078,8.80491Q16,8.9015086,16,9Q16,9.0984914,15.98078,9.19509Q15.96157,9.291689,15.92388,9.382683Q15.88619,9.473678,15.83147,9.55557Q15.77675,9.637463,15.70711,9.707107Q15.63746,9.776751,15.55557,9.83147Q15.47368,9.886188,15.38268,9.923879Q15.29169,9.96157,15.19509,9.980785000000001Q15.09849,10,15,10ZM16,9Q16,9.0984914,15.98078,9.19509Q15.96157,9.291689,15.92388,9.382683Q15.88619,9.473678,15.83147,9.55557Q15.77675,9.637463,15.70711,9.707107Q15.63746,9.776751,15.55557,9.83147Q15.47368,9.886188,15.38268,9.923879Q15.29169,9.96157,15.19509,9.980785000000001Q15.09849,10,15,10Q14.90151,10,14.80491,9.980785000000001Q14.70831,9.96157,14.61732,9.923879Q14.52632,9.886188,14.44443,9.83147Q14.36254,9.776751,14.29289,9.707107Q14.22325,9.637463,14.16853,9.55557Q14.11381,9.473678,14.07612,9.382683Q14.03843,9.291689,14.019210000000001,9.19509Q14,9.0984914,14,9Q14,8.9015086,14.019210000000001,8.80491Q14.03843,8.708311,14.07612,8.617317Q14.11381,8.526322,14.16853,8.44443Q14.22325,8.362537,14.29289,8.292893Q14.36254,8.223249,14.44443,8.16853Q14.52632,8.113812,14.61732,8.076121Q14.70831,8.03843,14.80491,8.019214999999999Q14.90151,8,15,8Q15.09849,8,15.19509,8.019214999999999Q15.29169,8.03843,15.38268,8.076121Q15.47368,8.113812,15.55557,8.16853Q15.63746,8.223249,15.70711,8.292893Q15.77675,8.362537,15.83147,8.44443Q15.88619,8.526322,15.92388,8.617317Q15.96157,8.708311,15.98078,8.80491Q16,8.9015086,16,9ZM13,9Q13,9.0984914,12.980785000000001,9.19509Q12.96157,9.291689,12.923879,9.382683Q12.886188,9.473678,12.83147,9.55557Q12.776751,9.637463,12.707107,9.707107Q12.637463,9.776751,12.55557,9.83147Q12.473678,9.886188,12.382683,9.923879Q12.291689,9.96157,12.19509,9.980785000000001Q12.0984914,10,12,10Q11.9015086,10,11.80491,9.980785000000001Q11.708311,9.96157,11.617317,9.923879Q11.526322,9.886188,11.44443,9.83147Q11.362537,9.776751,11.292893,9.707107Q11.223249,9.637463,11.16853,9.55557Q11.113812,9.473678,11.076121,9.382683Q11.03843,9.291689,11.019214999999999,9.19509Q11,9.0984914,11,9Q11,8.9015086,11.019214999999999,8.80491Q11.03843,8.708311,11.076121,8.617317Q11.113812,8.526322,11.16853,8.44443Q11.223249,8.362537,11.292893,8.292893Q11.362537,8.223249,11.44443,8.16853Q11.526322,8.113812,11.617317,8.076121Q11.708311,8.03843,11.80491,8.019214999999999Q11.9015086,8,12,8Q12.0984914,8,12.19509,8.019214999999999Q12.291689,8.03843,12.382683,8.076121Q12.473678,8.113812,12.55557,8.16853Q12.637463,8.223249,12.707107,8.292893Q12.776751,8.362537,12.83147,8.44443Q12.886188,8.526322,12.923879,8.617317Q12.96157,8.708311,12.980785000000001,8.80491Q13,8.9015086,13,9Z" fill="currentColor" fill-stroke-opacity="1"/></g></g></svg>