<svg xmlns="http://www.w3.org/2000/svg" xmlns:xlink="http://www.w3.org/1999/xlink" fill="none" version="1.1" width="14.399999618530273" height="14.399999618530273" viewBox="0 0 14.399999618530273 14.399999618530273"><defs><clipPath id="master_svg0_80_82000"><rect x="0" y="0" width="14.399999618530273" height="14.399999618530273" rx="0"/></clipPath></defs><g clip-path="url(#master_svg0_80_82000)"><g></g><g><path d="M3.29990234375,13.2L3.29990234375,3Q3.29990234375,2.9409052,3.31143134375,2.882946Q3.32296034375,2.824986,3.34557434375,2.77039Q3.36818934375,2.715793,3.40102034375,2.666658Q3.43385234375,2.617522,3.47563834375,2.575736Q3.51742434375,2.53395,3.56656034375,2.501118Q3.61569534375,2.468287,3.67029234375,2.445672Q3.72488834375,2.423058,3.78284834375,2.411529Q3.84080754375,2.4,3.89990234375,2.4L12.29990234375,2.4Q12.35899234375,2.4,12.41695234375,2.411529Q12.47491234375,2.423058,12.52951234375,2.445672Q12.58411234375,2.468287,12.63324234375,2.501118Q12.68238234375,2.53395,12.72416234375,2.575736Q12.76595234375,2.617522,12.79878234375,2.666658Q12.83161234375,2.715793,12.85423234375,2.77039Q12.87684234375,2.824986,12.88837234375,2.882946Q12.89990234375,2.9409052,12.89990234375,3L12.89990234375,13.2Q12.89990234375,13.2591,12.88837234375,13.3171Q12.87684234375,13.375,12.85423234375,13.4296Q12.83161234375,13.4842,12.79878234375,13.5333Q12.76595234375,13.5825,12.72416234375,13.6243Q12.68238234375,13.666,12.63324234375,13.6989Q12.58411234375,13.7317,12.52951234375,13.7543Q12.47491234375,13.7769,12.41695234375,13.7885Q12.35899234375,13.8,12.29990234375,13.8L3.89990234375,13.8Q3.84080754375,13.8,3.78284834375,13.7885Q3.72488834375,13.7769,3.67029234375,13.7543Q3.61569534375,13.7317,3.56656034375,13.6989Q3.51742434375,13.666,3.47563834375,13.6243Q3.43385234375,13.5825,3.40102034375,13.5333Q3.36818934375,13.4842,3.34557434375,13.4296Q3.32296034375,13.375,3.31143134375,13.3171Q3.29990234375,13.2591,3.29990234375,13.2ZM4.49990234375,3.6L4.49990234375,12.6L11.69990234375,12.6L11.69990234375,3.6L4.49990234375,3.6Z" fill="#000000" fill-opacity="0.6000000238418579"/></g><g><path d="M2.10009765625,11.999951171875L3.90009765625,11.999951171875Q3.95918765625,11.999951171875,4.01714765625,11.988451171875Q4.07510765625,11.976851171875,4.12970765625,11.954251171875Q4.184307656250001,11.931651171875,4.2334376562500005,11.898851171875Q4.28257765625,11.865951171875,4.32435765625,11.824251171875Q4.36614765625,11.782451171875,4.3989776562500005,11.733251171875Q4.43180765625,11.684151171875,4.45442765625,11.629551171875Q4.477037656249999,11.574951171875,4.48856765625,11.517051171875Q4.50009765625,11.459051171875,4.50009765625,11.399951171875Q4.50009765625,11.340851171875,4.48856765625,11.282851171875Q4.477037656249999,11.224951171875,4.45442765625,11.170341171875Q4.43180765625,11.115741171875,4.3989776562500005,11.066611171875Q4.36614765625,11.017471171875,4.32435765625,10.975681171875Q4.28257765625,10.933901171875,4.2334376562500005,10.901071171875Q4.184307656250001,10.868241171875,4.12970765625,10.845621171875Q4.07510765625,10.823011171875,4.01714765625,10.811481171875Q3.95918765625,10.799951171875,3.90009765625,10.799951171875L2.70009765625,10.799951171875L2.70009765625,1.799951171875L9.90009765625,1.799951171875L9.90009765625,2.999951171875Q9.90009765625,3.059041171875,9.911627656250001,3.1170011718749997Q9.92315765625,3.174961171875,9.94576765625,3.229561171875Q9.96838765625,3.284161171875,10.001217656249999,3.333291171875Q10.03404765625,3.382431171875,10.07583765625,3.424211171875Q10.11761765625,3.466001171875,10.16675765625,3.498831171875Q10.21588765625,3.531661171875,10.27048765625,3.554281171875Q10.32508765625,3.576891171875,10.38303765625,3.588421171875Q10.44099765625,3.599951171875,10.50009765625,3.599951171875Q10.55918765625,3.599951171875,10.61714765625,3.588421171875Q10.67510765625,3.576891171875,10.72970765625,3.554281171875Q10.78430765625,3.531661171875,10.83343765625,3.498831171875Q10.88257765625,3.466001171875,10.92435765625,3.424211171875Q10.96614765625,3.382431171875,10.99897765625,3.333291171875Q11.03180765625,3.284161171875,11.05442765625,3.229561171875Q11.07703765625,3.174961171875,11.08856765625,3.1170011718749997Q11.10009765625,3.059041171875,11.10009765625,2.999951171875L11.10009765625,1.199951171875Q11.10009765625,1.140856371875,11.08856765625,1.082897171875Q11.07703765625,1.024937171875,11.05442765625,0.970341171875Q11.03180765625,0.915744171875,10.99897765625,0.866609171875Q10.96614765625,0.817473171875,10.92435765625,0.775687171875Q10.88257765625,0.7339011718749999,10.83343765625,0.701069171875Q10.78430765625,0.668238171875,10.72970765625,0.645623171875Q10.67510765625,0.623009171875,10.61714765625,0.611480171875Q10.55918765625,0.599951171875,10.50009765625,0.599951171875L2.40009765625,0.599951171875Q2.02730645625,0.599951171875,1.76370165625,0.8635551718750001Q1.50009765625,1.1271600718750001,1.50009765625,1.499951171875L1.50009765625,11.399951171875Q1.50009765625,11.459051171875,1.51162665625,11.517051171875Q1.5231556562500002,11.574951171875,1.54576965625,11.629551171875Q1.5683846562500001,11.684151171875,1.60121565625,11.733251171875Q1.63404765625,11.782451171875,1.67583365625,11.824251171875Q1.7176196562500001,11.865951171875,1.76675565625,11.898851171875Q1.8158906562500001,11.931651171875,1.87048765625,11.954251171875Q1.92508365625,11.976851171875,1.98304365625,11.988451171875Q2.04100285625,11.999951171875,2.10009765625,11.999951171875Z" fill-rule="evenodd" fill="#000000" fill-opacity="0.6000000238418579"/></g><g><path d="M6.300316271125,5.9999755859375L6.300048828125,5.9999755859375Q6.2409540281249996,5.9999755859375,6.182994828125,6.0115045859375Q6.125034828125,6.0230335859375,6.070438828125,6.0456475859375Q6.015841828125,6.0682625859375,5.966706828125,6.1010935859375Q5.917570828125,6.1339255859375,5.875784828125,6.1757115859375Q5.833998828125,6.2174975859375,5.801166828125,6.2666335859375Q5.768335828125,6.3157685859375,5.745720828125,6.3703655859375Q5.723106828125,6.4249615859375,5.711577828125,6.4829215859375Q5.700048828125,6.5408807859374996,5.700048828125,6.5999755859375Q5.700048828125,6.6590703859375004,5.711577828125,6.7170295859375Q5.723106828125,6.7749895859375,5.745720828125,6.8295855859375Q5.768335828125,6.8841825859375,5.801166828125,6.9333175859375Q5.833998828125,6.9824535859375,5.875784828125,7.0242395859375Q5.917570828125,7.0660255859375,5.966706828125,7.0988575859375Q6.015841828125,7.1316885859375,6.070438828125,7.1543035859375Q6.125034828125,7.1769175859375,6.182994828125,7.1884465859375Q6.2409540281249996,7.1999755859375,6.300048828125,7.1999755859375L9.900048828125,7.1999755859375Q9.959138828124999,7.1999755859375,10.017098828125,7.1884465859375Q10.075058828125,7.1769175859375,10.129658828125,7.1543035859375Q10.184258828125,7.1316885859375,10.233388828125,7.0988575859375Q10.282528828124999,7.0660255859375,10.324308828125,7.0242395859375Q10.366098828125,6.9824535859375,10.398928828125001,6.9333175859375Q10.431758828125,6.8841825859375,10.454378828125,6.8295855859375Q10.476988828125,6.7749895859375,10.488518828124999,6.7170295859375Q10.500048828125,6.6590703859375004,10.500048828125,6.5999755859375Q10.500048828125,6.5408807859374996,10.488518828124999,6.4829215859375Q10.476988828125,6.4249615859375,10.454378828125,6.3703655859375Q10.431758828125,6.3157685859375,10.398928828125001,6.2666335859375Q10.366098828125,6.2174975859375,10.324308828125,6.1757115859375Q10.282528828124999,6.1339255859375,10.233388828125,6.1010935859375Q10.184258828125,6.0682625859375,10.129658828125,6.0456475859375Q10.075058828125,6.0230335859375,10.017098828125,6.0115045859375Q9.959138828124999,5.9999755859375,9.900048828125,5.9999755859375L9.899778828125001,5.9999755859375L6.300316271125,5.9999755859375Z" fill-rule="evenodd" fill="#000000" fill-opacity="0.6000000238418579"/></g><g><path d="M6.300316271125,8.4L6.300048828125,8.4Q6.2409540281249996,8.4,6.182994828125,8.411529Q6.125034828125,8.423058,6.070438828125,8.445672Q6.015841828125,8.468287,5.966706828125,8.501118Q5.917570828125,8.53395,5.875784828125,8.575736Q5.833998828125,8.617522,5.801166828125,8.666658Q5.768335828125,8.715793,5.745720828125,8.77039Q5.723106828125,8.824985999999999,5.711577828125,8.882946Q5.700048828125,8.9409052,5.700048828125,9Q5.700048828125,9.0590948,5.711577828125,9.117054Q5.723106828125,9.175014000000001,5.745720828125,9.22961Q5.768335828125,9.284207,5.801166828125,9.333342Q5.833998828125,9.382478,5.875784828125,9.424264Q5.917570828125,9.46605,5.966706828125,9.498882Q6.015841828125,9.531713,6.070438828125,9.554328Q6.125034828125,9.576942,6.182994828125,9.588471Q6.2409540281249996,9.6,6.300048828125,9.6L9.900048828125,9.6Q9.959138828124999,9.6,10.017098828125,9.588471Q10.075058828125,9.576942,10.129658828125,9.554328Q10.184258828125,9.531713,10.233388828125,9.498882Q10.282528828124999,9.46605,10.324308828125,9.424264Q10.366098828125,9.382478,10.398928828125001,9.333342Q10.431758828125,9.284207,10.454378828125,9.22961Q10.476988828125,9.175014000000001,10.488518828124999,9.117054Q10.500048828125,9.0590948,10.500048828125,9Q10.500048828125,8.9409052,10.488518828124999,8.882946Q10.476988828125,8.824985999999999,10.454378828125,8.77039Q10.431758828125,8.715793,10.398928828125001,8.666658Q10.366098828125,8.617522,10.324308828125,8.575736Q10.282528828124999,8.53395,10.233388828125,8.501118Q10.184258828125,8.468287,10.129658828125,8.445672Q10.075058828125,8.423058,10.017098828125,8.411529Q9.959138828124999,8.4,9.900048828125,8.4L9.899778828125001,8.4L6.300316271125,8.4Z" fill-rule="evenodd" fill="#000000" fill-opacity="0.6000000238418579"/></g></g></svg>