<svg viewBox="0 0 24 24" fill="none" xmlns="http://www.w3.org/2000/svg"><defs><clipPath id="a"><rect rx="0" height="24" width="24"/></clipPath></defs><g clip-path="url(#a)"><path fill="currentColor" d="M21 6q0-1.243-.879-2.121Q19.243 3 18 3H6q-1.243 0-2.121.879Q3 4.757 3 6q0 1.243.879 2.121Q4.757 9 6 9h12q1.243 0 2.121-.879Q21 7.243 21 6Zm2 0q0 2.071-1.465 3.536Q20.072 11 18 11H6q-2.071 0-3.536-1.464Q1 8.07 1 6q0-2.071 1.464-3.536Q3.93 1 6 1h12q2.071 0 3.535 1.464Q23 3.93 23 6ZM21 18q0-1.243-.879-2.121Q19.243 15 18 15H6q-1.243 0-2.121.879Q3 16.757 3 18q0 1.243.879 2.121Q4.757 21 6 21h12q1.243 0 2.121-.879Q21 19.243 21 18Zm2 0q0 2.071-1.465 3.536Q20.072 23 18 23H6q-2.071 0-3.536-1.464Q1 20.07 1 18q0-2.071 1.464-3.536Q3.93 13 6 13h12q2.071 0 3.535 1.464Q23 15.93 23 18Z" data-follow-fill="currentColor"/><path fill="currentColor" d="M18 6Zm-2 0q0-.828.586-1.414T18 4q.828 0 1.414.586T20 6q0 .828-.586 1.414T18 8q-.828 0-1.414-.586T16 6ZM6 18Zm-2 0q0-.828.586-1.414T6 16q.828 0 1.414.586T8 18q0 .828-.586 1.414T6 20q-.828 0-1.414-.586T4 18Z" data-follow-fill="currentColor"/></g></svg>
