<svg xmlns="http://www.w3.org/2000/svg" xmlns:xlink="http://www.w3.org/1999/xlink" fill="none" version="1.1" width="24" height="24" viewBox="0 0 24 24"><defs><clipPath id="master_svg0_19_33"><rect x="0" y="0" width="24" height="24" rx="0"/></clipPath></defs><g clip-path="url(#master_svg0_19_33)"><g><path d="M9,4L9,4L4,4L4,4L4,9L4,9L9,9L9,9L9,4ZM11,4L11,9Q11,9.82844,10.41422,10.41422Q9.82844,11,9,11L4,11Q3.171573,11,2.58579,10.41422Q2,9.82844,2,9L2,4Q2,3.171573,2.585786,2.585786Q3.171573,2,4,2L9,2Q9.82844,2,10.41422,2.58579Q11,3.171573,11,4Z" fill="currentColor" fill-opacity="1"/></g><g><path d="M9,15L9,15L4,15L4,15L4,20L4,20L9,20L9,20L9,15ZM11,15L11,20Q11,20.82844,10.41422,21.41422Q9.82844,22,9,22L4,22Q3.171573,22,2.58579,21.41422Q2,20.82844,2,20L2,15Q2,14.171561,2.58579,13.585777Q3.171573,13,4,13L9,13Q9.82844,13,10.41422,13.585781Q11,14.171561,11,15Z" fill="currentColor" fill-opacity="1"/></g><g><path d="M20,4L20,4L15,4L15,4L15,9L15,9L20,9L20,9L20,4ZM22,4L22,9Q22,9.82844,21.41422,10.41422Q20.82844,11,20,11L15,11Q14.171561,11,13.585781,10.41422Q13,9.82844,13,9L13,4Q13,3.171573,13.585777,2.58579Q14.171561,2,15,2L20,2Q20.82844,2,21.41422,2.58579Q22,3.171573,22,4Z" fill="currentColor" fill-opacity="1"/></g><g><path d="M20,15L20,15L15,15L15,15L15,20L15,20L20,20L20,20L20,15ZM22,15L22,20Q22,20.82844,21.41422,21.41422Q20.82844,22,20,22L15,22Q14.171561,22,13.58578,21.41422Q13,20.82844,13,20L13,15Q13,14.171561,13.585781,13.585781Q14.171561,13,15,13L20,13Q20.82844,13,21.41422,13.58578Q22,14.171561,22,15Z" fill="currentColor" fill-opacity="1"/></g></g></svg>