<svg xmlns="http://www.w3.org/2000/svg" xmlns:xlink="http://www.w3.org/1999/xlink" fill="none" version="1.1" width="24" height="24" viewBox="0 0 24 24"><defs><clipPath id="master_svg0_355_86146"><rect x="0" y="0" width="24" height="24" rx="0"/></clipPath></defs><g clip-path="url(#master_svg0_355_86146)"><g><path d="M3,3L3,21Q3,21.8284,3.58579,22.4142Q4.171574,23,5,23L19,23Q19.828400000000002,23,20.4142,22.4142Q21,21.8284,21,21L21,7Q21,6.80109,20.9239,6.61732Q20.8478,6.43355,20.7071,6.29289L15.7071,1.2928929999999998Q15.5665,1.152241,15.3827,1.076121Q15.1989,1,15,1L5,1Q4.171573,1,3.585786,1.585786Q3,2.171573,3,3ZM19,21L5,21L5,3L14.5858,3L19,7.41421L19,21Z" fill-rule="evenodd" fill="#000000" fill-opacity="0.6000000238418579"/></g><g><path d="M8,11L16,11Q16.098489999999998,11,16.19509,10.980785000000001Q16.29169,10.96157,16.38268,10.923879Q16.47368,10.886188,16.55557,10.83147Q16.63746,10.776751,16.70711,10.707107Q16.77675,10.637463,16.83147,10.55557Q16.88619,10.473678,16.92388,10.382683Q16.961570000000002,10.291689,16.98078,10.19509Q17,10.0984914,17,10Q17,9.9015086,16.98078,9.80491Q16.961570000000002,9.708311,16.92388,9.617317Q16.88619,9.526322,16.83147,9.44443Q16.77675,9.362537,16.70711,9.292893Q16.63746,9.223249,16.55557,9.16853Q16.47368,9.113812,16.38268,9.076121Q16.29169,9.03843,16.19509,9.019214999999999Q16.098489999999998,9,16,9L8,9Q7.9015086,9,7.80491,9.019214999999999Q7.708311,9.03843,7.617317,9.076121Q7.526322,9.113812,7.44443,9.16853Q7.362537,9.223249,7.292893,9.292893Q7.223249,9.362537,7.16853,9.44443Q7.113812,9.526322,7.076121,9.617317Q7.03843,9.708311,7.019215,9.80491Q7,9.9015086,7,10Q7,10.0984914,7.019215,10.19509Q7.03843,10.291689,7.076121,10.382683Q7.113812,10.473678,7.16853,10.55557Q7.223249,10.637463,7.292893,10.707107Q7.362537,10.776751,7.44443,10.83147Q7.526322,10.886188,7.617317,10.923879Q7.708311,10.96157,7.80491,10.980785000000001Q7.9015086,11,8,11Z" fill-rule="evenodd" fill="#000000" fill-opacity="0.6000000238418579"/></g><g><path d="M8,15L16,15Q16.098489999999998,15,16.19509,14.980785000000001Q16.29169,14.96157,16.38268,14.923879Q16.47368,14.886188,16.55557,14.83147Q16.63746,14.776751,16.70711,14.707107Q16.77675,14.637463,16.83147,14.55557Q16.88619,14.473678,16.92388,14.382683Q16.961570000000002,14.291689,16.98078,14.19509Q17,14.0984914,17,14Q17,13.9015086,16.98078,13.80491Q16.961570000000002,13.708311,16.92388,13.617317Q16.88619,13.526322,16.83147,13.44443Q16.77675,13.362537,16.70711,13.292893Q16.63746,13.223249,16.55557,13.16853Q16.47368,13.113812,16.38268,13.076121Q16.29169,13.03843,16.19509,13.019214999999999Q16.098489999999998,13,16,13L8,13Q7.9015086,13,7.80491,13.019214999999999Q7.708311,13.03843,7.617317,13.076121Q7.526322,13.113812,7.44443,13.16853Q7.362537,13.223249,7.292893,13.292893Q7.223249,13.362537,7.16853,13.44443Q7.113812,13.526322,7.076121,13.617317Q7.03843,13.708311,7.019215,13.80491Q7,13.9015086,7,14Q7,14.0984914,7.019215,14.19509Q7.03843,14.291689,7.076121,14.382683Q7.113812,14.473678,7.16853,14.55557Q7.223249,14.637463,7.292893,14.707107Q7.362537,14.776751,7.44443,14.83147Q7.526322,14.886188,7.617317,14.923879Q7.708311,14.96157,7.80491,14.980785000000001Q7.9015086,15,8,15Z" fill-rule="evenodd" fill="#000000" fill-opacity="0.6000000238418579"/></g></g></svg>