<svg xmlns="http://www.w3.org/2000/svg" xmlns:xlink="http://www.w3.org/1999/xlink" fill="none" version="1.1" width="16" height="16" viewBox="0 0 16 16"><g><g></g><g><path d="M11.00126875,1.470499873161316L5.00129875,1.470499873161316C4.52494875,1.470499873161316,4.08477875,1.7246328731613159,3.84659875,2.137166873161316L0.84660175,7.333319873161316C0.60842445,7.745859873161316,0.60842445,8.254119873161315,0.84660175,8.666649873161315L3.84659875,13.862799873161316C4.08477875,14.275299873161316,4.52494875,14.529499873161315,5.00129875,14.529499873161315L11.00126875,14.529499873161315C11.47766875,14.529499873161315,11.91786875,14.275299873161316,12.15596875,13.862799873161316L15.15596875,8.666649873161315C15.39416875,8.254119873161315,15.39416875,7.745849873161316,15.15596875,7.333319873161316L12.15596875,2.137166873161316C11.91786875,1.724631873161316,11.47766875,1.470499873161316,11.00126875,1.470499873161316ZM2.00129875,7.999989873161316L5.00129875,2.803829873161316L11.00126875,2.803829873161316L14.00126875,7.999989873161316L11.00126875,13.196099873161316L5.00129875,13.196099873161316L2.00129875,7.999989873161316ZM10.66788875,8.000019873161316Q10.66788875,9.104589873161316,9.88683875,9.885639873161315Q9.10579875,10.666679873161316,8.00122875,10.666679873161316Q6.89665875,10.666679873161316,6.11560875,9.885639873161315Q5.33455875,9.104589873161316,5.33455875,8.000019873161316Q5.33455875,6.895449873161316,6.11560875,6.114399873161316Q6.89665875,5.333349873161316,8.00122875,5.333349873161316Q9.10579875,5.333349873161316,9.88683875,6.114399873161316Q10.66788875,6.895449873161316,10.66788875,8.000019873161316ZM9.33455875,8.000019873161316Q9.33455875,7.4477298731613155,8.94403875,7.057209873161316Q8.553508749999999,6.666679873161316,8.00122875,6.666679873161316Q7.44893875,6.666679873161316,7.05841875,7.057209873161316Q6.66788875,7.4477298731613155,6.66788875,8.000019873161316Q6.66788875,8.552299873161317,7.05841875,8.942829873161315Q7.44893875,9.333349873161316,8.00122875,9.333349873161316Q8.553508749999999,9.333349873161316,8.94403875,8.942829873161315Q9.33455875,8.552299873161317,9.33455875,8.000019873161316Z" fill-rule="evenodd" fill="#626C78" fill-opacity="1"/></g></g></svg>