<?xml version="1.0" standalone="no"?>
<!DOCTYPE svg PUBLIC "-//W3C//DTD SVG 1.1//EN" "http://www.w3.org/Graphics/SVG/1.1/DTD/svg11.dtd">
<svg class="icon" width="16px" height="16.00px" viewBox="0 0 1024 1024" version="1.1" xmlns="http://www.w3.org/2000/svg">
    <path d="M787.4 960.2H232.6c-70.7 0-128.1-57.3-128.1-128.1V255.9c0-70.7 57.3-128.1 128.1-128.1h64v-32c0-17.7 14.3-32 32-32s32 14.3 32 32v32h298.8v-32c0-17.7 14.3-32 32-32s32 14.3 32 32v32h64c70.7 0 128.1 57.3 128.1 128.1v576.2c0 70.8-57.3 128.1-128.1 128.1z m64.1-704.3c0-35.4-28.7-64-64-64h-64v32c0 17.7-14.3 32-32 32s-32-14.3-32-32v-32H360.6v32c0 17.7-14.3 32-32 32s-32-14.3-32-32v-32h-64c-35.4 0-64 28.7-64 64v576.2c0 35.4 28.7 64 64 64h554.9c35.4 0 64-28.7 64-64V255.9zM712.8 618.7H307.2c-17.7 0-32-14.3-32-32s14.3-32 32-32h405.5c17.7 0 32 14.3 32 32s-14.3 32-31.9 32z m0-149.4H307.2c-17.7 0-32-14.3-32-32s14.3-32 32-32h405.5c17.7 0 32 14.3 32 32 0.1 17.7-14.3 32-31.9 32zM307.2 704.1h256.1c17.7 0 32 14.3 32 32s-14.3 32-32 32H307.2c-17.7 0-32-14.3-32-32s14.4-32 32-32z" fill="currentColor" />
</svg>