<svg viewBox="0 0 24 24" fill="none" xmlns="http://www.w3.org/2000/svg"><defs><clipPath id="a"><rect rx="0" height="24" width="24"/></clipPath></defs><g clip-path="url(#a)"><path fill="#333" d="m9.293 15.707-6-6q-.07-.07-.124-.151-.055-.082-.093-.173-.038-.091-.057-.188Q3 9.098 3 9t.02-.195q.018-.097.056-.188.038-.09.093-.173.054-.081.124-.151.07-.07.151-.124.082-.055.173-.093.091-.038.188-.057Q3.902 8 4 8t.195.02q.097.018.188.056.09.038.173.093.081.054.151.124l6 6q.07.07.124.151.055.082.093.173.038.091.057.188.019.097.019.195t-.02.195q-.018.097-.056.188-.038.09-.093.173-.054.081-.124.151-.07.07-.151.124-.082.055-.173.093-.091.038-.188.057Q10.098 16 10 16t-.195-.02q-.097-.018-.188-.056-.09-.038-.173-.093-.081-.054-.151-.124ZM11 15q0 .098-.02.195-.018.097-.056.188-.038.09-.093.173-.054.081-.124.151-.07.07-.151.124-.082.055-.173.093-.091.038-.188.057Q10.098 16 10 16t-.195-.02q-.097-.018-.188-.056-.09-.038-.173-.093-.081-.054-.151-.124-.07-.07-.124-.151-.055-.082-.093-.173-.038-.091-.057-.188Q9 15.098 9 15t.02-.195q.018-.097.056-.188.038-.09.093-.173.054-.081.124-.151.07-.07.151-.124.082-.055.173-.093.091-.038.188-.057Q9.902 14 10 14t.195.02q.097.018.188.056.09.038.173.093.081.054.151.124.07.07.124.151.055.082.093.173.038.091.057.188.019.097.019.195ZM5 9q0 .098-.02.195-.018.097-.056.188-.038.09-.093.173-.054.081-.124.151-.07.07-.151.124-.082.055-.173.093-.091.038-.188.057Q4.098 10 4 10t-.195-.02q-.097-.018-.188-.056-.09-.038-.173-.093-.081-.054-.151-.124-.07-.07-.124-.151-.055-.082-.093-.173-.038-.091-.057-.188Q3 9.098 3 9t.02-.195q.018-.097.056-.188.038-.09.093-.173.054-.081.124-.151.07-.07.151-.124.082-.055.173-.093.091-.038.188-.057Q3.902 8 4 8t.195.02q.097.018.188.056.09.038.173.093.081.054.151.124.07.07.124.151.055.082.093.173.038.091.057.188Q5 8.902 5 9Z" data-follow-fill="#333"/><path fill="#333" d="m3.293 14.293 6-6q.07-.07.151-.124.082-.055.173-.093.091-.038.188-.057Q9.902 8 10 8t.195.02q.097.018.188.056.09.038.173.093.081.054.151.124.07.07.124.151.055.082.093.173.038.091.057.188Q11 8.902 11 9t-.02.195q-.018.097-.056.188-.038.09-.093.173-.054.081-.124.151l-6 6q-.07.07-.151.124-.082.055-.173.093-.091.038-.188.057Q4.098 16 4 16t-.195-.02q-.097-.018-.188-.056-.09-.038-.173-.093-.081-.054-.151-.124-.07-.07-.124-.151-.055-.082-.093-.173-.038-.091-.057-.188Q3 15.098 3 15t.02-.195q.018-.097.056-.188.038-.09.093-.173.054-.081.124-.151ZM5 15q0 .098-.02.195-.018.097-.056.188-.038.09-.093.173-.054.081-.124.151-.07.07-.151.124-.082.055-.173.093-.091.038-.188.057Q4.098 16 4 16t-.195-.02q-.097-.018-.188-.056-.09-.038-.173-.093-.081-.054-.151-.124-.07-.07-.124-.151-.055-.082-.093-.173-.038-.091-.057-.188Q3 15.098 3 15t.02-.195q.018-.097.056-.188.038-.09.093-.173.054-.081.124-.151.07-.07.151-.124.082-.055.173-.093.091-.038.188-.057Q3.902 14 4 14t.195.02q.097.018.188.056.09.038.173.093.081.054.151.124.07.07.124.151.055.082.093.173.038.091.057.188Q5 14.902 5 15Zm6-6q0 .098-.02.195-.018.097-.056.188-.038.09-.093.173-.054.081-.124.151-.07.07-.151.124-.082.055-.173.093-.091.038-.188.057Q10.098 10 10 10t-.195-.02q-.097-.018-.188-.056-.09-.038-.173-.093-.081-.054-.151-.124-.07-.07-.124-.151-.055-.082-.093-.173-.038-.091-.057-.188Q9 9.098 9 9t.02-.195q.018-.097.056-.188.038-.09.093-.173.054-.081.124-.151.07-.07.151-.124.082-.055.173-.093.091-.038.188-.057Q9.902 8 10 8t.195.02q.097.018.188.056.09.038.173.093.081.054.151.124.07.07.124.151.055.082.093.173.038.091.057.188Q11 8.902 11 9ZM16.343 19.246Q20 16.057 20 12t-3.657-7.246q-.074-.065-.135-.143-.06-.078-.104-.166-.043-.088-.07-.183-.025-.096-.032-.194-.006-.098.006-.196.013-.097.044-.19.032-.094.08-.18.05-.085.114-.16.065-.073.143-.134.078-.06.166-.104.088-.043.183-.07.096-.025.194-.032.098-.006.196.006.097.013.19.044.094.032.18.08.085.05.16.114 2.056 1.794 3.17 3.98Q22 9.522 22 12t-1.172 4.774q-1.114 2.186-3.17 3.98-.075.064-.16.113-.086.05-.18.08-.093.032-.19.045-.098.012-.196.006-.098-.007-.194-.033-.095-.026-.183-.07-.088-.043-.166-.103-.078-.06-.143-.135-.064-.074-.113-.16-.05-.085-.08-.178-.032-.094-.045-.191-.012-.098-.006-.196.007-.098.033-.193.026-.096.07-.184.043-.088.103-.166.06-.078.135-.143ZM18 20q0 .099-.02.195-.018.097-.056.188-.038.09-.093.173-.054.081-.124.151-.07.07-.151.124-.082.055-.173.093-.091.038-.188.057Q17.098 21 17 21t-.195-.02q-.097-.018-.188-.056-.09-.038-.173-.093-.081-.054-.151-.124-.07-.07-.124-.151-.055-.082-.093-.173-.038-.091-.057-.188Q16 20.1 16 20t.02-.195q.018-.097.056-.188.038-.09.093-.173.054-.081.124-.151.07-.07.151-.124.082-.055.173-.093.091-.038.188-.057Q16.902 19 17 19t.195.02q.097.018.188.056.09.038.173.093.081.054.151.124.07.07.124.151.055.082.093.173.038.091.057.188Q18 19.9 18 20Zm0-16q0 .098-.02.195-.018.097-.056.188-.038.09-.093.173-.054.081-.124.151-.07.07-.151.124-.082.055-.173.093-.091.038-.188.057Q17.098 5 17 5t-.195-.02q-.097-.018-.188-.056-.09-.038-.173-.093-.081-.054-.151-.124-.07-.07-.124-.151-.055-.082-.093-.173-.038-.091-.057-.188Q16 4.098 16 4t.02-.195q.018-.097.056-.188.038-.09.093-.173.054-.081.124-.151.07-.07.151-.124.082-.055.173-.093.091-.038.188-.057Q16.902 3 17 3t.195.02q.097.018.188.056.09.038.173.093.081.054.151.124.07.07.124.151.055.082.093.173.038.091.057.188Q18 3.902 18 4Z" data-follow-fill="#333"/><path fill="#333" d="M12.912 16.191Q15.5 14.311 15.5 12q0-2.31-2.588-4.191-.08-.058-.146-.13-.067-.073-.119-.157-.051-.084-.085-.176-.034-.092-.05-.19-.015-.097-.011-.195.004-.099.027-.195.023-.095.064-.185t.1-.169q.057-.08.13-.146.072-.067.156-.119.084-.051.176-.085.092-.034.19-.05.097-.015.195-.011.099.004.195.027.095.023.185.064t.169.1Q17.5 8.67 17.5 12q0 3.33-3.412 5.809-.08.058-.17.1-.089.04-.184.063-.096.023-.195.027-.098.004-.195-.011-.098-.016-.19-.05t-.176-.085q-.084-.052-.157-.119-.072-.066-.13-.146-.058-.08-.1-.17-.04-.089-.063-.184-.023-.096-.027-.195-.004-.098.011-.195.016-.098.05-.19t.085-.176q.052-.084.119-.157.066-.072.146-.13ZM14.5 17q0 .099-.02.195-.018.097-.056.188-.038.09-.093.173-.054.081-.124.151-.07.07-.151.124-.082.055-.173.093-.091.038-.188.057-.097.019-.195.019t-.195-.02q-.097-.018-.188-.056-.09-.038-.173-.093-.081-.054-.151-.124-.07-.07-.124-.151-.055-.082-.093-.173-.038-.091-.057-.188Q12.5 17.1 12.5 17q0-.098.02-.195.018-.097.056-.188.038-.09.093-.173.054-.081.124-.151.07-.07.151-.124.082-.055.173-.093.091-.038.188-.057.097-.019.195-.019t.195.02q.097.018.188.056.09.038.173.093.081.054.151.124.07.07.124.151.055.082.093.173.038.091.057.188.019.097.019.195Zm0-10q0 .098-.02.195-.018.097-.056.188-.038.09-.093.173-.054.081-.124.151-.07.07-.151.124-.082.055-.173.093-.091.038-.188.057Q13.598 8 13.5 8t-.195-.02q-.097-.018-.188-.056-.09-.038-.173-.093-.081-.054-.151-.124-.07-.07-.124-.151-.055-.082-.093-.173-.038-.091-.057-.188Q12.5 7.098 12.5 7t.02-.195q.018-.097.056-.188.038-.09.093-.173.054-.081.124-.151.07-.07.151-.124.082-.055.173-.093.091-.038.188-.057Q13.402 6 13.5 6t.195.02q.097.018.188.056.09.038.173.093.081.054.151.124.07.07.124.151.055.082.093.173.038.091.057.188.019.097.019.195Z" data-follow-fill="#333"/></g></svg>