<svg xmlns="http://www.w3.org/2000/svg" xmlns:xlink="http://www.w3.org/1999/xlink" fill="none" version="1.1" width="40" height="40" viewBox="0 0 40 40"><defs><clipPath id="master_svg0_291_0667"><rect x="0" y="0" width="40" height="40" rx="0"/></clipPath></defs><g clip-path="url(#master_svg0_291_0667)"><g><path d="M1.5,33L1.5,9Q1.5,7.964466,2.232233,7.232233Q2.964466,6.5,4,6.5L36,6.5Q37.0355,6.5,37.7678,7.232233Q38.5,7.964467,38.5,9L38.5,33Q38.5,34.0355,37.7678,34.7678Q37.0355,35.5,36,35.5L4,35.5Q2.964467,35.5,2.232233,34.7678Q1.5,34.0355,1.5,33ZM2.5,33Q2.5,33.621300000000005,2.93934,34.0607Q3.37868,34.5,4,34.5L36,34.5Q36.6213,34.5,37.0607,34.0607Q37.5,33.621300000000005,37.5,33L37.5,9Q37.5,8.37868,37.0607,7.93934Q36.6213,7.5,36,7.5L4,7.5Q3.37868,7.5,2.93934,7.93934Q2.5,8.37868,2.5,9L2.5,33Z" fill="currentColor" fill-opacity="1"/></g><g><path d="M2,21.5L38,21.5Q38.0492,21.5,38.0975,21.490393Q38.1458,21.480785,38.1913,21.46194Q38.2368,21.443094,38.2778,21.415735Q38.3187,21.388375,38.3535,21.353553Q38.3884,21.318731,38.4157,21.277785Q38.4431,21.236839,38.4619,21.191342Q38.4808,21.145845,38.4904,21.0975451Q38.5,21.0492457,38.5,21Q38.5,20.9507543,38.4904,20.9024549Q38.4808,20.854155,38.4619,20.808658Q38.4431,20.763161,38.4157,20.722215Q38.3884,20.681269,38.3535,20.646447Q38.3187,20.611625,38.2778,20.584265Q38.2368,20.556906,38.1913,20.53806Q38.1458,20.519215,38.0975,20.509607Q38.0492,20.5,38,20.5L2,20.5Q1.9507543,20.5,1.9024549,20.509607Q1.854155,20.519215,1.8086579999999999,20.53806Q1.763161,20.556906,1.722215,20.584265Q1.681269,20.611625,1.646447,20.646447Q1.611625,20.681269,1.584265,20.722215Q1.5569060000000001,20.763161,1.53806,20.808658Q1.519215,20.854155,1.509607,20.9024549Q1.5,20.9507543,1.5,21Q1.5,21.0492457,1.509607,21.0975451Q1.519215,21.145845,1.53806,21.191342Q1.5569060000000001,21.236839,1.584265,21.277785Q1.611625,21.318731,1.646447,21.353553Q1.681269,21.388375,1.722215,21.415735Q1.763161,21.443094,1.8086579999999999,21.46194Q1.854155,21.480785,1.9024549,21.490393Q1.9507543,21.5,2,21.5Z" fill-rule="evenodd" fill="currentColor" fill-opacity="1"/></g></g></svg>
