<svg xmlns="http://www.w3.org/2000/svg" xmlns:xlink="http://www.w3.org/1999/xlink" fill="none" version="1.1" width="24" height="24" viewBox="0 0 24 24"><defs><clipPath id="master_svg0_355_86141"><rect x="0" y="0" width="24" height="24" rx="0"/></clipPath></defs><g clip-path="url(#master_svg0_355_86141)"><g><path d="M3.585786,1.585786Q3,2.171573,3,3L3,21Q3,21.8284,3.58579,22.4142Q4.171574,23,5,23L19,23Q19.828400000000002,23,20.4142,22.4142Q21,21.8284,21,21L21,7Q21,6.80109,20.9239,6.61732Q20.8478,6.43355,20.7071,6.29289L15.7071,1.2928929999999998Q15.5665,1.152241,15.3827,1.076121Q15.1989,1,15,1L5,1Q4.171573,1,3.585786,1.585786ZM5,21L5,3L14.5858,3L19,7.41421L19,21L5,21Z" fill-rule="evenodd" fill="#000000" fill-opacity="0.6000000238418579"/></g><g><path d="M15.481950390625,17.20953L16.981840390625003,10.210036L16.981950390625002,10.209529Q17.004150390625,10.10594,17.004150390625,10.00000000485563Q17.004150390625,9.9661566,17.001860390624998,9.9323907Q16.996390390625002,9.851647,16.978010390625002,9.772834Q16.959620390625,9.694022,16.928800390625,9.619191Q16.897980390625,9.54436,16.855530390625,9.475458Q16.813080390625,9.406557,16.760110390625,9.345378Q16.707130390625,9.2842,16.645000390625,9.232337Q16.582880390625,9.180473,16.513220390625,9.139275Q16.443560390625002,9.098077,16.368190390625,9.068615Q16.292810390625,9.039154,16.213680390625,9.022198Q16.110090390625,9,16.004150390625,9Q15.987800390625,9,15.971460390625001,9.000535Q15.693980390625,9.009611,15.460900390625,9.16043Q15.293900390625,9.268489,15.180960390625,9.432231999999999Q15.068030390625001,9.595974,15.026350390625,9.790471L15.026240390625,9.790977L14.123670390625,14.002970000000001L12.898580390625,11.55279Q12.854530390625001,11.464690000000001,12.794140390625,11.38689Q12.733760390625001,11.30908,12.659350390625,11.24455Q12.584950390625,11.18001,12.499380390625,11.13124Q12.413810390624999,11.08246,12.320380390625001,11.05132Q12.226940390625,11.02017,12.129220390625001,11.00785Q12.031500390625,10.995534,11.933260390625,11.00252Q11.835020390625,11.0095,11.740020390625,11.03551Q11.645030390625,11.06153,11.556940390625,11.10557Q11.411790390625,11.17815,11.297040390625,11.29289Q11.182300390625,11.40764,11.109720390625,11.55279L9.884630390625,14.002970000000001L8.981992390625,9.790655L8.981952390625,9.790471Q8.964103390625,9.707175,8.932422390625,9.628099Q8.900741390625,9.549023,8.856141390625,9.476444Q8.811541390624999,9.403866,8.755308390625,9.339877Q8.699074390625,9.275889,8.632828390625,9.222334Q8.566581390625,9.168779,8.492230390625,9.127201Q8.417879390625,9.085623,8.337567390625,9.057221Q8.257255390625,9.028818,8.173296390625,9.014409Q8.089336990625,9,8.00415038576937,9L7.999735100625,9.00001Q7.896027390625,9.000468,7.794621390625,9.022198Q7.711325390625,9.040047,7.632249390625,9.071728Q7.553173390625,9.103409,7.480594390625,9.148009Q7.408016390625,9.192609000000001,7.3440273906249995,9.248842Q7.280039390625,9.305076,7.226484390625,9.371322Q7.172929390625,9.437569,7.131351390625,9.51192Q7.089773390625,9.586271,7.061371390625,9.666583Q7.032968390625,9.746895,7.018559390625,9.830854Q7.004150390625,9.9148134,7.004150390625,10L7.004160390625,10.00441529Q7.004618390625,10.108123,7.026348390625,10.209529L8.526348390625,17.20953Q8.549915390625,17.31951,8.597325390625,17.421509999999998Q8.644735390625,17.52351,8.713619390625,17.61242Q8.782503390625,17.701340000000002,8.869418390625,17.77273Q8.956333390625,17.84413,9.056940390625,17.89443Q9.145030390625,17.93847,9.240020390625,17.964489999999998Q9.335020390625,17.9905,9.433260390625,17.99748Q9.531500390625,18.004469999999998,9.629220390625001,17.99215Q9.726940390625,17.97983,9.820380390625001,17.94868Q9.913810390625,17.91754,9.999380390625,17.86876Q10.084950390625,17.81998,10.159350390625,17.75545Q10.233760390625001,17.69092,10.294140390625,17.61311Q10.354530390625,17.53531,10.398580390625,17.44721L12.004150390625,14.23607L13.609720390625,17.44721Q13.660020390625,17.54782,13.731420390625,17.63473Q13.802810390625,17.72165,13.891730390625,17.79053Q13.980640390625,17.85941,14.082640390625,17.90682Q14.184640390624999,17.95423,14.294620390625,17.977800000000002Q14.390930390625,17.998440000000002,14.489410390625,17.99989Q14.587890390624999,18.00134,14.684760390625,17.98355Q14.781630390625,17.96577,14.873170390624999,17.92942Q14.964710390625001,17.89307,15.047400390625,17.839570000000002Q15.130090390625,17.78606,15.200750390625,17.71745Q15.271420390625,17.64884,15.327340390625,17.56777Q15.383260390625,17.48669,15.422290390625001,17.396259999999998Q15.461320390625,17.30583,15.481950390625,17.20953Z" fill-rule="evenodd" fill="#000000" fill-opacity="0.6000000238418579"/></g></g></svg>