<svg viewBox="0 0 24 24" fill="none" xmlns="http://www.w3.org/2000/svg"><defs><clipPath id="a"><rect rx="0" height="24" width="24"/></clipPath></defs><g clip-path="url(#a)"><rect fill-opacity=".01" fill="#FFF" rx="0" height="24" width="24"/><path fill="#333" fill-rule="evenodd" d="M4 23h16q.099 0 .195-.02.097-.018.188-.056.09-.038.173-.093.081-.054.151-.124.07-.07.124-.151.055-.082.093-.173.038-.091.057-.188Q21 22.098 21 22t-.02-.195q-.018-.097-.056-.188-.038-.09-.093-.173-.054-.081-.124-.151-.07-.07-.151-.124-.082-.055-.173-.093-.091-.038-.188-.057Q20.1 21 20 21H4q-.098 0-.195.02-.097.018-.188.056-.09.038-.173.093-.081.054-.151.124-.07.07-.124.151-.055.082-.093.173-.038.091-.057.188Q3 21.902 3 22t.02.195q.018.097.056.188.038.09.093.173.054.081.124.151.07.07.151.124.082.055.173.093.091.038.188.057Q3.902 23 4 23ZM6.5 7.024V3.048q0-.098-.02-.195-.018-.096-.056-.187-.038-.091-.093-.173-.054-.082-.124-.152-.07-.07-.151-.124-.082-.055-.173-.092-.091-.038-.188-.057-.097-.02-.195-.02t-.195.02q-.097.019-.188.057-.09.037-.173.092-.081.055-.151.124-.07.07-.124.152-.055.082-.093.173-.038.09-.057.187-.019.097-.019.195V11q0 3.107 2.197 5.303Q8.893 18.5 12 18.5q3.107 0 5.303-2.197Q19.5 14.107 19.5 11V3.048q0-.098-.02-.195-.018-.096-.056-.187-.038-.091-.093-.173-.054-.082-.124-.152-.07-.07-.151-.124-.082-.055-.173-.092-.091-.038-.188-.057-.096-.02-.195-.02t-.195.02q-.097.019-.188.057-.09.037-.173.092-.081.055-.151.124-.07.07-.124.152-.055.082-.093.173-.038.09-.057.187-.019.097-.019.195V11q0 2.278-1.61 3.89Q14.277 16.5 12 16.5t-3.89-1.61Q6.5 13.277 6.5 11V7.024Z"/></g></svg>