<svg viewBox="0 0 24 24" fill="none" xmlns="http://www.w3.org/2000/svg"><defs><clipPath id="a"><rect rx="0" height="24" width="24"/></clipPath></defs><g clip-path="url(#a)"><path fill="#333" d="M1 18V6q0-1.243.879-2.121Q2.757 3 4 3h16q1.243 0 2.121.879Q23 4.757 23 6v12q0 1.243-.879 2.121Q21.243 21 20 21H4q-1.243 0-2.121-.879Q1 19.243 1 18Zm2 0q0 .414.293.707T4 19h16q.414 0 .707-.293T21 18V6q0-.414-.293-.707T20 5H4q-.414 0-.707.293T3 6v12Z" data-follow-fill="#333"/><path fill="#333" d="M1 8V5q0-.828.586-1.414T3 3h18q.828 0 1.414.586T23 5v3q0 .098-.02.195-.018.097-.056.188-.038.09-.093.173-.054.081-.124.151-.07.07-.151.124-.082.055-.173.093-.091.038-.188.057Q22.1 9 22 9H2q-.098 0-.195-.02-.097-.018-.188-.056-.09-.038-.173-.093-.081-.054-.151-.124-.07-.07-.124-.151-.055-.082-.093-.173-.038-.091-.057-.188Q1 8.098 1 8Zm2 0H2V7h20v1h-1V5H3v3ZM10.516 16.821l1-5.5q.018-.097.054-.188.036-.092.09-.175.053-.083.121-.153.069-.071.15-.127.08-.056.171-.095.09-.04.187-.06.096-.021.195-.023.098-.001.195.016.097.018.188.054.092.036.175.09.083.053.153.121.071.069.127.15.056.08.095.171.04.09.06.187.021.096.023.195.001.098-.016.195l-1 5.5q-.018.097-.054.188-.036.092-.09.175-.053.083-.121.153-.069.071-.15.127-.08.056-.171.095-.09.04-.187.06-.096.021-.195.023-.098.001-.195-.016-.097-.018-.188-.054-.092-.036-.175-.09-.083-.053-.153-.121-.071-.069-.127-.15-.056-.08-.095-.171-.04-.09-.06-.187-.021-.096-.023-.194-.001-.099.016-.196ZM12.5 17q0 .098-.02.195-.018.097-.056.188-.038.09-.093.173-.054.081-.124.151-.07.07-.151.124-.082.055-.173.093-.091.038-.188.057-.097.019-.195.019t-.195-.02q-.097-.018-.188-.056-.09-.038-.173-.093-.081-.054-.151-.124-.07-.07-.124-.151-.055-.082-.093-.173-.038-.091-.057-.188-.019-.097-.019-.195t.02-.195q.018-.097.056-.188.038-.09.093-.173.054-.081.124-.151.07-.07.151-.124.082-.055.173-.093.091-.038.188-.057.097-.019.195-.019t.195.02q.097.018.188.056.09.038.173.093.081.054.151.124.07.07.124.151.055.082.093.173.038.091.057.188.019.097.019.195Zm1-5.5q0 .098-.02.195-.018.097-.056.188-.038.09-.093.173-.054.081-.124.151-.07.07-.151.124-.082.055-.173.093-.091.038-.188.057-.097.019-.195.019t-.195-.02q-.097-.018-.188-.056-.09-.038-.173-.093-.081-.054-.151-.124-.07-.07-.124-.151-.055-.082-.093-.173-.038-.091-.057-.188-.019-.097-.019-.195t.02-.195q.018-.097.056-.188.038-.09.093-.173.054-.081.124-.151.07-.07.151-.124.082-.055.173-.093.091-.038.188-.057.097-.019.195-.019t.195.02q.097.018.188.056.09.038.173.093.081.054.151.124.07.07.124.151.055.082.093.173.038.091.057.188.019.097.019.195ZM14.793 16.293l3-3L18.5 14l-.64.768-3-2.5q-.076-.063-.138-.14-.062-.076-.107-.163-.046-.087-.074-.182-.028-.094-.037-.192-.009-.099.002-.196.01-.098.04-.192.029-.095.076-.181.047-.087.11-.162.063-.076.14-.138.076-.062.163-.107.087-.046.182-.074.094-.028.192-.037.099-.009.196.002.098.01.192.04.095.029.181.076.087.047.162.11l3 2.5q.035.029.067.06.07.07.124.152.055.082.093.173.038.091.057.188.019.097.019.195t-.02.195q-.018.097-.056.188-.038.09-.093.173-.054.081-.124.151l-3 3q-.07.07-.151.124-.082.055-.173.093-.091.038-.188.057-.097.019-.195.019t-.195-.02q-.097-.018-.188-.056-.09-.038-.173-.093-.081-.054-.151-.124-.07-.07-.124-.151-.055-.082-.093-.173-.038-.091-.057-.188-.019-.097-.019-.195t.02-.195q.018-.097.056-.188.038-.09.093-.173.054-.081.124-.151ZM16.5 17q0 .098-.02.195-.018.097-.056.188-.038.09-.093.173-.054.081-.124.151-.07.07-.151.124-.082.055-.173.093-.091.038-.188.057-.097.019-.195.019t-.195-.02q-.097-.018-.188-.056-.09-.038-.173-.093-.081-.054-.151-.124-.07-.07-.124-.151-.055-.082-.093-.173-.038-.091-.057-.188-.019-.097-.019-.195t.02-.195q.018-.097.056-.188.038-.09.093-.173.054-.081.124-.151.07-.07.151-.124.082-.055.173-.093.091-.038.188-.057.097-.019.195-.019t.195.02q.097.018.188.056.09.038.173.093.081.054.151.124.07.07.124.151.055.082.093.173.038.091.057.188.019.097.019.195Zm0-5.5q0 .098-.02.195-.018.097-.056.188-.038.09-.093.173-.054.081-.124.151-.07.07-.151.124-.082.055-.173.093-.091.038-.188.057-.097.019-.195.019t-.195-.02q-.097-.018-.188-.056-.09-.038-.173-.093-.081-.054-.151-.124-.07-.07-.124-.151-.055-.082-.093-.173-.038-.091-.057-.188-.019-.097-.019-.195t.02-.195q.018-.097.056-.188.038-.09.093-.173.054-.081.124-.151.07-.07.151-.124.082-.055.173-.093.091-.038.188-.057.097-.019.195-.019t.195.02q.097.018.188.056.09.038.173.093.081.054.151.124.07.07.124.151.055.082.093.173.038.091.057.188.019.097.019.195ZM7.793 17.707l-3-3q-.07-.07-.124-.151-.055-.082-.093-.173-.038-.091-.057-.188Q4.5 14.098 4.5 14t.02-.195q.018-.097.056-.188.038-.09.093-.173.054-.081.124-.151.032-.032.067-.061l3-2.5q.075-.063.162-.11.086-.047.18-.077.095-.029.193-.04.097-.01.196 0 .098.008.192.036.095.028.182.074.087.045.164.107.076.062.14.138.062.075.11.162.046.086.076.18.029.095.04.193.01.097 0 .196-.008.098-.036.192-.028.095-.074.182-.045.087-.107.164-.062.076-.138.14l-3 2.5L5.5 14l.707-.707 3 3q.07.07.124.151.055.082.093.173.038.091.057.188.019.097.019.195t-.02.195q-.018.097-.056.188-.038.09-.093.173-.054.081-.124.151-.07.07-.151.124-.082.055-.173.093-.091.038-.188.057Q8.598 18 8.5 18t-.195-.02q-.097-.018-.188-.056-.09-.038-.173-.093-.081-.054-.151-.124ZM9.5 17q0 .098-.02.195-.018.097-.056.188-.038.09-.093.173-.054.081-.124.151-.07.07-.151.124-.082.055-.173.093-.091.038-.188.057Q8.598 18 8.5 18t-.195-.02q-.097-.018-.188-.056-.09-.038-.173-.093-.081-.054-.151-.124-.07-.07-.124-.151-.055-.082-.093-.173-.038-.091-.057-.188Q7.5 17.098 7.5 17t.02-.195q.018-.097.056-.188.038-.09.093-.173.054-.081.124-.151.07-.07.151-.124.082-.055.173-.093.091-.038.188-.057Q8.402 16 8.5 16t.195.02q.097.018.188.056.09.038.173.093.081.054.151.124.07.07.124.151.055.082.093.173.038.091.057.188.019.097.019.195Zm0-5.5q0 .098-.02.195-.018.097-.056.188-.038.09-.093.173-.054.081-.124.151-.07.07-.151.124-.082.055-.173.093-.091.038-.188.057-.097.019-.195.019t-.195-.02q-.097-.018-.188-.056-.09-.038-.173-.093-.081-.054-.151-.124-.07-.07-.124-.151-.055-.082-.093-.173-.038-.091-.057-.188-.019-.097-.019-.195t.02-.195q.018-.097.056-.188.038-.09.093-.173.054-.081.124-.151.07-.07.151-.124.082-.055.173-.093.091-.038.188-.057.097-.019.195-.019t.195.02q.097.018.188.056.09.038.173.093.081.054.151.124.07.07.124.151.055.082.093.173.038.091.057.188.019.097.019.195Z" data-follow-fill="#333"/></g></svg>