<svg viewBox="0 0 24 24" fill="none" xmlns="http://www.w3.org/2000/svg"><defs><clipPath id="a"><rect rx="0" height="24" width="24"/></clipPath></defs><g clip-path="url(#a)"><path fill="currentColor" d="M1.5 20V4q0-.828.586-1.414T3.5 2h6q.11 0 .217.024.108.024.207.07.1.047.187.114t.157.152l2.5 3L12 6V5h8.5q.828 0 1.414.586T22.5 7v13q0 .828-.586 1.414T20.5 22h-17q-.828 0-1.414-.586T1.5 20Zm2 0h17V7H12q-.11 0-.217-.024-.108-.024-.207-.07-.1-.047-.187-.114t-.157-.152l-2.5-3L9.5 3v1h-6v16Z"/><path fill="currentColor" d="m8.293 12.293 3-3q.07-.07.151-.124.082-.055.173-.093.091-.037.188-.057Q11.9 9 11.999 9q.099 0 .195.02.097.018.188.056.09.037.173.092.082.055.151.124l3 2.993q.07.07.125.152.055.082.092.173.038.09.058.187.019.097.019.195 0 .099-.019.195-.02.097-.057.188-.037.091-.092.173-.055.082-.124.152-.07.07-.152.124-.081.055-.172.093-.091.038-.188.057-.096.02-.195.02-.098 0-.195-.02-.097-.019-.188-.056-.09-.038-.173-.093-.082-.054-.151-.124l-3-2.993L12 10l.707.707-3 3q-.07.07-.151.124-.082.055-.173.093-.091.038-.188.057Q9.098 14 9 14t-.195-.02q-.097-.018-.188-.056-.09-.038-.173-.093-.081-.054-.151-.124-.07-.07-.124-.151-.055-.082-.093-.173-.038-.091-.057-.188Q8 13.098 8 13t.02-.195q.018-.097.056-.188.038-.09.093-.173.054-.081.124-.151ZM10 13q0 .098-.02.195-.018.097-.056.188-.038.09-.093.173-.054.081-.124.151-.07.07-.151.124-.082.055-.173.093-.091.038-.188.057Q9.098 14 9 14t-.195-.02q-.097-.018-.188-.056-.09-.038-.173-.093-.081-.054-.151-.124-.07-.07-.124-.151-.055-.082-.093-.173-.038-.091-.057-.188Q8 13.098 8 13t.02-.195q.018-.097.056-.188.038-.09.093-.173.054-.081.124-.151.07-.07.151-.124.082-.055.173-.093.091-.038.188-.057Q8.902 12 9 12t.195.02q.097.018.188.056.09.038.173.093.081.054.151.124.07.07.124.151.055.082.093.173.038.091.057.188.019.097.019.195Zm6-.007q0 .099-.02.195-.018.097-.056.188-.038.091-.093.173-.054.082-.124.151-.07.07-.151.125-.082.055-.173.092-.091.038-.188.057-.097.02-.195.02t-.195-.02q-.097-.02-.188-.057-.09-.037-.173-.092-.081-.055-.151-.125-.07-.07-.124-.151-.055-.082-.093-.173-.038-.091-.057-.188-.019-.096-.019-.195 0-.098.02-.195.018-.096.056-.187.038-.091.093-.173.054-.082.124-.152.07-.07.151-.124.082-.055.173-.093.091-.037.188-.056.097-.02.195-.02t.195.02q.097.019.188.056.09.038.173.093.081.055.151.124.07.07.124.152.055.082.093.173.038.09.057.187.019.097.019.195Z"/><path fill="currentColor" d="M11 17v-7q0-.098.02-.195.018-.097.056-.188.038-.09.093-.173.054-.081.124-.151.07-.07.151-.124.082-.055.173-.093.091-.038.188-.057Q11.902 9 12 9t.195.02q.097.018.188.056.09.038.173.093.081.054.151.124.07.07.124.151.055.082.093.173.038.091.057.188Q13 9.902 13 10v7q0 .098-.02.195-.018.097-.056.188-.038.09-.093.173-.054.081-.124.151-.07.07-.151.124-.082.055-.173.093-.091.038-.188.057Q12.098 18 12 18t-.195-.02q-.097-.018-.188-.056-.09-.038-.173-.093-.081-.054-.151-.124-.07-.07-.124-.151-.055-.082-.093-.173-.038-.091-.057-.188Q11 17.098 11 17Zm2 0q0 .098-.02.195-.018.097-.056.188-.038.09-.093.173-.054.081-.124.151-.07.07-.151.124-.082.055-.173.093-.091.038-.188.057Q12.098 18 12 18t-.195-.02q-.097-.018-.188-.056-.09-.038-.173-.093-.081-.054-.151-.124-.07-.07-.124-.151-.055-.082-.093-.173-.038-.091-.057-.188Q11 17.098 11 17t.02-.195q.018-.097.056-.188.038-.09.093-.173.054-.081.124-.151.07-.07.151-.124.082-.055.173-.093.091-.038.188-.057Q11.902 16 12 16t.195.02q.097.018.188.056.09.038.173.093.081.054.151.124.07.07.124.151.055.082.093.173.038.091.057.188.019.097.019.195Zm0-7q0 .098-.02.195-.018.097-.056.188-.038.09-.093.173-.054.081-.124.151-.07.07-.151.124-.082.055-.173.093-.091.038-.188.057Q12.098 11 12 11t-.195-.02q-.097-.018-.188-.056-.09-.038-.173-.093-.081-.054-.151-.124-.07-.07-.124-.151-.055-.082-.093-.173-.038-.091-.057-.188Q11 10.098 11 10t.02-.195q.018-.097.056-.188.038-.09.093-.173.054-.081.124-.151.07-.07.151-.124.082-.055.173-.093.091-.038.188-.057Q11.902 9 12 9t.195.02q.097.018.188.056.09.038.173.093.081.054.151.124.07.07.124.151.055.082.093.173.038.091.057.188Q13 9.902 13 10Z"/></g></svg>