<svg xmlns="http://www.w3.org/2000/svg" xmlns:xlink="http://www.w3.org/1999/xlink" fill="none" version="1.1" width="36.39990234375" height="36.400390625" viewBox="0 0 36.39990234375 36.400390625"><g><g><g></g></g><g><g><rect x="5.200000286102295" y="2.6000001430511475" width="22.016130447387695" height="28.108108520507812" rx="2.6000001430511475" fill="#1890FF" fill-opacity="1"/></g><g><path d="M10.483871459960938,9.591892099380493L10.483871459960938,32.49999209938049C10.483871459960938,33.935892099380496,11.647931459960937,35.09999209938049,13.083871459960937,35.09999209938049L22.812871459960938,35.09999209938049L29.899971459960938,35.09999209938049C31.335971459960938,35.09999209938049,32.49997145996094,33.935892099380496,32.49997145996094,32.49999209938049L32.49997145996094,9.591892099380493C32.49997145996094,8.155952099380492,31.335971459960938,6.991892099380493,29.899971459960938,6.991892099380493L13.083871459960937,6.991892099380493C11.647931459960937,6.991892099380493,10.483871459960938,8.155952099380492,10.483871459960938,9.591892099380493Z" fill="#DDE1E8" fill-opacity="1"/></g></g><g><path d="M20.88388,25.883879999999998L28.8839,17.883883Q28.9709,17.796829,29.0393,17.694463Q29.1077,17.592097,29.154899999999998,17.478354Q29.201999999999998,17.364612,29.226,17.243863Q29.25,17.123114,29.25,17Q29.25,16.876886,29.226,16.756137Q29.201999999999998,16.635388,29.154899999999998,16.521646Q29.1077,16.407903,29.0393,16.305537Q28.9709,16.203171,28.8839,16.116117Q28.796799999999998,16.029062,28.694499999999998,15.96066Q28.592100000000002,15.89226,28.4784,15.84515Q28.3646,15.79804,28.2439,15.77402Q28.1231,15.75,28,15.75Q27.8769,15.75,27.7561,15.77402Q27.6354,15.79804,27.5216,15.84515Q27.407899999999998,15.89226,27.305500000000002,15.96066Q27.203200000000002,16.029062,27.1161,16.116117L20,23.23223L16.883883,20.11612Q16.796829,20.02906,16.694463,19.96066Q16.592097,19.89226,16.478354,19.84515Q16.364612,19.79804,16.243863,19.77402Q16.123114,19.75,16,19.75Q15.876886,19.75,15.756137,19.77402Q15.635388,19.79804,15.521646,19.84515Q15.407903,19.89226,15.305537,19.96066Q15.203171,20.02906,15.116117,20.11612Q15.029062,20.20317,14.96066,20.30554Q14.89226,20.4079,14.84515,20.52165Q14.79804,20.63539,14.77402,20.75614Q14.75,20.87689,14.75,21Q14.75,21.12311,14.77402,21.243859999999998Q14.79804,21.36461,14.84515,21.47835Q14.89226,21.592100000000002,14.96066,21.69446Q15.029062,21.79683,15.116117,21.88388L19.11612,25.883879999999998Q19.15954,25.92731,19.20701,25.96626Q19.25448,26.00522,19.30554,26.03934Q19.3566,26.07345,19.41075,26.1024Q19.46491,26.131349999999998,19.52165,26.15485Q19.57838,26.178350000000002,19.63714,26.196170000000002Q19.69591,26.214,19.75614,26.22598Q19.81637,26.23796,19.87748,26.24398Q19.93859,26.25,20,26.25Q20.061410000000002,26.25,20.12252,26.24398Q20.18363,26.23796,20.243859999999998,26.22598Q20.304090000000002,26.214,20.36286,26.196170000000002Q20.42162,26.178350000000002,20.47835,26.15485Q20.53509,26.131349999999998,20.58925,26.1024Q20.6434,26.07345,20.69446,26.03934Q20.74552,26.00522,20.79299,25.96626Q20.84046,25.92731,20.88388,25.883879999999998Z" fill-rule="evenodd" fill="#1890FF" fill-opacity="1"/></g></g></svg>