<svg viewBox="0 0 24 24" fill="none" xmlns="http://www.w3.org/2000/svg"><defs><clipPath id="a"><rect rx="0" height="24" width="24"/></clipPath></defs><g clip-path="url(#a)"><path fill="currentColor" d="M1 19V5q0-.828.586-1.414T3 3h18q.828 0 1.414.586T23 5v14q0 .828-.586 1.414T21 21H3q-.828 0-1.414-.586T1 19Zm2 0h18V5H3v14Z"/><path fill="currentColor" d="M6.041 10.704v4.886h-1.36V8.923H6.5l2.65 4.968V8.923h1.35v6.667H8.763l-2.721-4.886Zm8.652-1.78q1 0 1.761.335.89.407 1.25 1.354.28.739.28 1.738 0 1.006-.338 1.748-.433.879-1.322 1.234-.66.257-1.52.257-1.13 0-1.96-.413-.703-.349-1.074-1.088-.368-.742-.368-1.797 0-1.888.95-2.688.802-.67 2.341-.68Zm.01 1.041q-.98 0-1.4.651-.338.508-.338 1.634 0 1.192.42 1.748.42.55 1.328.55.879 0 1.292-.556.417-.56.417-1.729 0-1.068-.339-1.627-.39-.661-1.38-.671Zm5.39 4.375v1.25h-1.207v-1.25h1.208Z" style="mix-blend-mode:passthrough"/></g></svg>