<svg xmlns="http://www.w3.org/2000/svg" xmlns:xlink="http://www.w3.org/1999/xlink" fill="none" version="1.1" width="44" height="44" viewBox="0 0 44 44">
  <defs>
    <clipPath id="master_svg0_3_15182">
      <rect x="10" y="9" width="24" height="24" rx="0"/>
    </clipPath>
  </defs>
  <g>
    <g>
      <rect x="0" y="0" width="44" height="44" rx="8" fill="#1890FF" fill-opacity="1"/>
      <rect x="0.2199999988079071" y="0.2199999988079071" width="43.560000002384186" height="43.560000002384186" rx="7.780000001192093" fill-opacity="0" stroke-opacity="1" stroke="#2B91FF" fill="none" stroke-width="0.4399999976158142"/>
    </g>
    <g clip-path="url(#master_svg0_3_15182)">
      <g>
        <rect x="10" y="9" width="24" height="24" rx="0" fill="#FFFFFF" fill-opacity="0.009999999776482582"/>
      </g>
      <g>
        <rect x="13" y="12" width="7" height="7" rx="2" fill="#FFFFFF" fill-opacity="1"/>
        <path d="M12,17L12,14Q12,12.757359,12.87868,11.87868Q13.757359,11,15,11L18,11Q19.24264,11,20.12132,11.87868Q21,12.75736,21,14L21,17Q21,18.24264,20.12132,19.12132Q19.24264,20,18,20L15,20Q13.75736,20,12.87868,19.12132Q12,18.24264,12,17ZM14,17Q14,17.41421,14.29289,17.70711Q14.58579,18,15,18L18,18Q18.41421,18,18.70711,17.70711Q19,17.41421,19,17L19,14Q19,13.58579,18.70711,13.29289Q18.41421,13,18,13L15,13Q14.58579,13,14.29289,13.29289Q14,13.58579,14,14L14,17Z" fill="#FFFFFF" fill-opacity="1"/>
      </g>
      <g>
        <rect x="13" y="23" width="7" height="7" rx="2" fill="#FFFFFF" fill-opacity="1"/>
        <path d="M12,28L12,25Q12,23.757359,12.87868,22.87868Q13.757359,22,15,22L18,22Q19.24264,22,20.12132,22.87868Q21,23.75736,21,25L21,28Q21,29.24264,20.12132,30.12132Q19.24264,31,18,31L15,31Q13.75736,31,12.87868,30.12132Q12,29.24264,12,28ZM14,28Q14,28.41421,14.29289,28.70711Q14.58579,29,15,29L18,29Q18.41421,29,18.70711,28.70711Q19,28.41421,19,28L19,25Q19,24.58579,18.70711,24.29289Q18.41421,24,18,24L15,24Q14.58579,24,14.29289,24.29289Q14,24.58579,14,25L14,28Z" fill="#FFFFFF" fill-opacity="1"/>
      </g>
      <g>
        <path d="M31,15.5Q31,15.67194,30.983150000000002,15.84306Q30.96629,16.01418,30.93275,16.18282Q30.8992,16.35146,30.84929,16.516Q30.79938,16.68054,30.73358,16.83939Q30.66778,16.99825,30.58672,17.14989Q30.505670000000002,17.30153,30.41014,17.444499999999998Q30.314619999999998,17.58746,30.20554,17.72038Q30.09646,17.85329,29.97487,17.97487Q29.85329,18.09646,29.72038,18.20554Q29.58746,18.314619999999998,29.444499999999998,18.41014Q29.30153,18.505670000000002,29.14989,18.58672Q28.99825,18.66778,28.83939,18.73358Q28.68054,18.79938,28.516,18.84929Q28.35146,18.8992,28.18282,18.93275Q28.01418,18.96629,27.84306,18.983150000000002Q27.67194,19,27.5,19Q27.32806,19,27.15694,18.983150000000002Q26.98582,18.96629,26.81718,18.93275Q26.64854,18.8992,26.484,18.84929Q26.31946,18.79938,26.16061,18.73358Q26.00175,18.66778,25.85011,18.58672Q25.69847,18.505670000000002,25.5555,18.41014Q25.41254,18.314619999999998,25.27962,18.20554Q25.14671,18.09646,25.02513,17.97487Q24.903543,17.85329,24.794463,17.72038Q24.685383,17.58746,24.589856,17.444499999999998Q24.494329,17.30153,24.413276,17.14989Q24.332222,16.99825,24.266422,16.83939Q24.200622,16.68054,24.150709,16.516Q24.100796,16.35146,24.0672515,16.18282Q24.0337069,16.01418,24.0168535,15.84306Q24,15.67194,24,15.5Q24,15.32806,24.0168535,15.15694Q24.0337069,14.98582,24.0672515,14.81718Q24.100796,14.64854,24.150709,14.484Q24.200622,14.31946,24.266422,14.16061Q24.332222,14.00175,24.413276,13.85011Q24.494329,13.69847,24.589856,13.5555Q24.685383,13.41254,24.794463,13.27962Q24.903543,13.14671,25.02513,13.02513Q25.14671,12.903542999999999,25.27962,12.794463Q25.41254,12.685383,25.5555,12.589856Q25.69847,12.494329,25.85011,12.413276Q26.00175,12.332222,26.16061,12.266422Q26.31946,12.200622,26.484,12.150709Q26.64854,12.100796,26.81718,12.0672515Q26.98582,12.0337069,27.15694,12.0168535Q27.32806,12,27.5,12Q27.67194,12,27.84306,12.0168535Q28.01418,12.0337069,28.18282,12.0672515Q28.35146,12.100796,28.516,12.150709Q28.68054,12.200622,28.83939,12.266422Q28.99825,12.332222,29.14989,12.413276Q29.30153,12.494329,29.444499999999998,12.589856Q29.58746,12.685383,29.72038,12.794463Q29.85329,12.903542999999999,29.97487,13.02513Q30.09646,13.14671,30.20554,13.27962Q30.314619999999998,13.41254,30.41014,13.5555Q30.505670000000002,13.69847,30.58672,13.85011Q30.66778,14.00175,30.73358,14.16061Q30.79938,14.31946,30.84929,14.484Q30.8992,14.64854,30.93275,14.81718Q30.96629,14.98582,30.983150000000002,15.15694Q31,15.32806,31,15.5Z" fill="#FFFFFF" fill-opacity="1"/>
        <path d="M24.318018,12.31802Q23,13.63604,23,15.5Q23,17.36396,24.318018,18.68198Q25.63604,20,27.5,20Q29.36396,20,30.68198,18.68198Q32,17.36396,32,15.5Q32,13.63604,30.68198,12.318021Q29.36396,11,27.5,11Q25.63604,11,24.318018,12.31802ZM25.73223,17.26777Q25,16.53554,25,15.5Q25,14.46447,25.73223,13.73223Q26.46446,13,27.5,13Q28.53554,13,29.26777,13.73223Q30,14.46447,30,15.5Q30,16.53554,29.26777,17.26777Q28.53554,18,27.5,18Q26.46446,18,25.73223,17.26777Z" fill-rule="evenodd" fill="#FFFFFF" fill-opacity="1"/>
      </g>
      <g>
        <rect x="24" y="23" width="7" height="7" rx="2" fill="#FFFFFF" fill-opacity="1"/>
        <path d="M23,28L23,25Q23,23.757359,23.87868,22.87868Q24.757359,22,26,22L29,22Q30.24264,22,31.12132,22.87868Q32,23.75736,32,25L32,28Q32,29.24264,31.12132,30.12132Q30.24264,31,29,31L26,31Q24.75736,31,23.87868,30.12132Q23,29.24264,23,28ZM25,28Q25,28.41421,25.29289,28.70711Q25.58579,29,26,29L29,29Q29.41421,29,29.70711,28.70711Q30,28.41421,30,28L30,25Q30,24.58579,29.70711,24.29289Q29.41421,24,29,24L26,24Q25.58579,24,25.29289,24.29289Q25,24.58579,25,25L25,28Z" fill="#FFFFFF" fill-opacity="1"/>
      </g>
    </g>
  </g>
</svg>