<svg viewBox="0 0 24 24" fill="none" xmlns="http://www.w3.org/2000/svg"><defs><clipPath id="a"><rect rx="0" height="24" width="24"/></clipPath></defs><g clip-path="url(#a)"><path fill="currentColor" d="M7 19.5h10v1l-.862-.507 5-8.5L22 12l-.862.507-5-8.5L17 3.5v1H7v-1l.862.507-5 8.5L2 12l.862-.507 5 8.5L7 20.5v-1Zm0 2q-.13 0-.257-.034-.126-.033-.24-.098-.113-.065-.206-.157-.093-.091-.159-.204l-5-8.5q-.068-.115-.103-.244Q1 12.133 1 12q0-.134.035-.263t.103-.244l5-8.5q.066-.113.16-.204.092-.092.206-.157.113-.065.24-.098Q6.868 2.5 7 2.5h10q.13 0 .257.034.126.033.24.098.113.065.206.157.093.091.16.204l4.999 8.5q.068.115.103.244.035.13.035.263 0 .134-.035.263t-.103.244l-5 8.5q-.066.113-.16.204-.092.092-.205.157-.114.065-.24.098-.126.034-.257.034H7Z" data-follow-fill="currentColor"/><path fill="currentColor" d="M10.5 12q0 .621.44 1.06.439.44 1.06.44t1.06-.44q.44-.439.44-1.06t-.44-1.06q-.439-.44-1.06-.44t-1.06.44q-.44.439-.44 1.06Zm-2 0q0-1.45 1.025-2.475Q10.55 8.5 12 8.5q1.45 0 2.475 1.025Q15.5 10.55 15.5 12q0 1.45-1.025 2.475Q13.45 15.5 12 15.5q-1.45 0-2.475-1.025Q8.5 13.45 8.5 12Z" data-follow-fill="currentColor"/></g></svg>
