<svg viewBox="0 0 24 24" fill="none" xmlns="http://www.w3.org/2000/svg">
  <defs>
    <clipPath id="a">
      <rect rx="0" height="24" width="24" />
    </clipPath>
  </defs>
  <g clip-path="url(#a)">
    <path fill="currentColor"
      d="M2 18V6q0-1.657 1.172-2.828Q4.343 2 6 2h12q1.657 0 2.828 1.172Q22 4.343 22 6v12q0 1.657-1.172 2.828Q19.657 22 18 22H6q-1.657 0-2.828-1.172Q2 19.657 2 18Zm2 0q0 .828.586 1.414T6 20h12q.828 0 1.414-.586T20 18V6q0-.828-.586-1.414T18 4H6q-.828 0-1.414.586T4 6v12Z"
      data-follow-fill="currentColor" />
    <path fill="currentColor"
      d="M5.5 10.5v-4q0-.098.02-.195.018-.097.056-.188.038-.09.093-.173.054-.081.124-.151.07-.07.151-.124.082-.055.173-.093.091-.038.188-.057.097-.019.195-.019h4q.098 0 .195.02.097.018.188.056.09.038.173.093.081.054.151.124.07.07.124.151.055.082.093.173.038.091.057.188.019.097.019.195v4q0 .098-.02.195-.018.097-.056.188-.038.09-.093.173-.054.081-.124.151-.07.07-.151.124-.082.055-.173.093-.091.038-.188.057-.097.019-.195.019h-4q-.098 0-.195-.02-.097-.018-.188-.056-.09-.038-.173-.093-.081-.054-.151-.124-.07-.07-.124-.151-.055-.082-.093-.173-.038-.091-.057-.188-.019-.097-.019-.195Zm2-3v2h2v-2h-2ZM5.5 17.5v-4q0-.098.02-.195.018-.097.056-.188.038-.09.093-.173.054-.081.124-.151.07-.07.151-.124.082-.055.173-.093.091-.038.188-.057.097-.019.195-.019h4q.098 0 .195.02.097.018.188.056.09.038.173.093.081.054.151.124.07.07.124.151.055.082.093.173.038.091.057.188.019.097.019.195v4q0 .098-.02.195-.018.097-.056.188-.038.09-.093.173-.054.081-.124.151-.07.07-.151.124-.082.055-.173.093-.091.038-.188.057-.097.019-.195.019h-4q-.098 0-.195-.02-.097-.018-.188-.056-.09-.038-.173-.093-.081-.054-.151-.124-.07-.07-.124-.151-.055-.082-.093-.173-.038-.091-.057-.188-.019-.097-.019-.195Zm2-3v2h2v-2h-2Z"
      data-follow-fill="currentColor" />
    <path fill="currentColor" fill-rule="evenodd"
      d="M13.5 15h4q.098 0 .195-.02.097-.018.188-.056.09-.038.173-.093.081-.054.151-.124.07-.07.124-.151.055-.082.093-.173.038-.091.057-.188.019-.097.019-.195t-.02-.195q-.018-.097-.056-.188-.038-.09-.093-.173-.054-.081-.124-.151-.07-.07-.151-.124-.082-.055-.173-.093-.091-.038-.188-.057Q17.598 13 17.5 13h-4q-.098 0-.195.02-.097.018-.188.056-.09.038-.173.093-.081.054-.151.124-.07.07-.124.151-.055.082-.093.173-.038.091-.057.188-.019.097-.019.195t.02.195q.018.097.056.188.038.09.093.173.054.081.124.151.07.07.151.124.082.055.173.093.091.038.188.057.097.019.195.019ZM13.5 18.5h4q.098 0 .195-.02.097-.018.188-.056.09-.038.173-.093.081-.054.151-.124.07-.07.124-.151.055-.082.093-.173.038-.091.057-.188.019-.097.019-.195t-.02-.195q-.018-.097-.056-.188-.038-.09-.093-.173-.054-.081-.124-.151-.07-.07-.151-.124-.082-.055-.173-.093-.091-.038-.188-.057-.097-.019-.195-.019h-4q-.098 0-.195.02-.097.018-.188.056-.09.038-.173.093-.081.054-.151.124-.07.07-.124.151-.055.082-.093.173-.038.091-.057.188-.019.097-.019.195t.02.195q.018.097.056.188.038.09.093.173.054.081.124.151.07.07.151.124.082.055.173.093.091.038.188.057.097.019.195.019ZM13.5 7.5h4q.098 0 .195-.02.097-.018.188-.056.09-.038.173-.093.081-.054.151-.124.07-.07.124-.151.055-.082.093-.173.038-.091.057-.188.019-.097.019-.195t-.02-.195q-.018-.097-.056-.188-.038-.09-.093-.173-.054-.081-.124-.151-.07-.07-.151-.124-.082-.055-.173-.093-.091-.038-.188-.057-.097-.019-.195-.019h-4q-.098 0-.195.02-.097.018-.188.056-.09.038-.173.093-.081.054-.151.124-.07.07-.124.151-.055.082-.093.173-.038.091-.057.188-.019.097-.019.195t.02.195q.018.097.056.188.038.09.093.173.054.081.124.151.07.07.151.124.082.055.173.093.091.038.188.057.097.019.195.019ZM13.5 11h4q.098 0 .195-.02.097-.018.188-.056.09-.038.173-.093.081-.054.151-.124.07-.07.124-.151.055-.082.093-.173.038-.091.057-.188.019-.097.019-.195t-.02-.195q-.018-.097-.056-.188-.038-.09-.093-.173-.054-.081-.124-.151-.07-.07-.151-.124-.082-.055-.173-.093-.091-.038-.188-.057Q17.598 9 17.5 9h-4q-.098 0-.195.02-.097.018-.188.056-.09.038-.173.093-.081.054-.151.124-.07.07-.124.151-.055.082-.093.173-.038.091-.057.188-.019.097-.019.195t.02.195q.018.097.056.188.038.09.093.173.054.081.124.151.07.07.151.124.082.055.173.093.091.038.188.057.097.019.195.019Z"
      data-follow-fill="currentColor" />
  </g>
</svg>