<svg xmlns="http://www.w3.org/2000/svg" xmlns:xlink="http://www.w3.org/1999/xlink" fill="none" version="1.1" width="24" height="24" viewBox="0 0 24 24"><defs><clipPath id="master_svg0_1_395"><rect x="0" y="0" width="24" height="24" rx="0"/></clipPath></defs><g clip-path="url(#master_svg0_1_395)"><g><path d="M20,4.5Q20,4.29289,19.8536,4.14644Q19.7071,4,19.5,4L4.5,4Q4.29289,4,4.14645,4.14645Q4,4.29289,4,4.5L4,19.5Q4,19.7071,4.14644,19.8536Q4.29289,20,4.5,20L19.5,20Q19.7071,20,19.8536,19.8536Q20,19.7071,20,19.5L20,4.5ZM22,4.5L22,19.5Q22,20.5356,21.2678,21.2678Q20.5356,22,19.5,22L4.5,22Q3.464465,22,2.732238,21.2678Q2,20.5355,2,19.5L2,4.5Q2,3.464468,2.732234,2.732234Q3.464468,2,4.5,2L19.5,2Q20.5355,2,21.2678,2.732238Q22,3.464465,22,4.5Z" fill="currentColor" fill-stroke-opacity="1"/></g><g><path d="M17.70711,9.707107L11.70711,15.70711Q11.63746,15.77675,11.55557,15.83147Q11.47368,15.88619,11.38268,15.92388Q11.29169,15.96157,11.19509,15.98078Q11.09849,16,11,16Q10.90151,16,10.80491,15.98078Q10.70831,15.96157,10.61732,15.92388Q10.52632,15.88619,10.44443,15.83147Q10.36254,15.77675,10.29289,15.70711L7.292893,12.70711Q7.223249,12.63746,7.16853,12.55557Q7.113812,12.47368,7.076121,12.38268Q7.03843,12.29169,7.019215,12.19509Q7,12.09849,7,12Q7,11.90151,7.019215,11.80491Q7.03843,11.70831,7.076121,11.61732Q7.113812,11.52632,7.16853,11.44443Q7.223249,11.36254,7.292893,11.29289Q7.362537,11.22325,7.44443,11.16853Q7.526322,11.11381,7.617317,11.07612Q7.708311,11.03843,7.80491,11.019210000000001Q7.9015086,11,8,11Q8.0984914,11,8.19509,11.019210000000001Q8.291689,11.03843,8.382683,11.07612Q8.473678,11.11381,8.55557,11.16853Q8.637463,11.22325,8.707107,11.29289L11.70711,14.29289L11,15L10.29289,14.29289L16.29289,8.292893Q16.36254,8.223249,16.44443,8.16853Q16.52632,8.113812,16.61732,8.076121Q16.70831,8.03843,16.80491,8.019214999999999Q16.901510000000002,8,17,8Q17.098489999999998,8,17.19509,8.019214999999999Q17.29169,8.03843,17.38268,8.076121Q17.47368,8.113812,17.55557,8.16853Q17.63746,8.223249,17.70711,8.292893Q17.77675,8.362537,17.83147,8.44443Q17.88619,8.526322,17.92388,8.617317Q17.961570000000002,8.708311,17.98078,8.80491Q18,8.9015086,18,9Q18,9.0984914,17.98078,9.19509Q17.961570000000002,9.291689,17.92388,9.382683Q17.88619,9.473678,17.83147,9.55557Q17.77675,9.637463,17.70711,9.707107ZM18,9Q18,9.0984914,17.98078,9.19509Q17.961570000000002,9.291689,17.92388,9.382683Q17.88619,9.473678,17.83147,9.55557Q17.77675,9.637463,17.70711,9.707107Q17.63746,9.776751,17.55557,9.83147Q17.47368,9.886188,17.38268,9.923879Q17.29169,9.96157,17.19509,9.980785000000001Q17.098489999999998,10,17,10Q16.901510000000002,10,16.80491,9.980785000000001Q16.70831,9.96157,16.61732,9.923879Q16.52632,9.886188,16.44443,9.83147Q16.36254,9.776751,16.29289,9.707107Q16.22325,9.637463,16.16853,9.55557Q16.11381,9.473678,16.07612,9.382683Q16.038429999999998,9.291689,16.01921,9.19509Q16,9.0984914,16,9Q16,8.9015086,16.01921,8.80491Q16.038429999999998,8.708311,16.07612,8.617317Q16.11381,8.526322,16.16853,8.44443Q16.22325,8.362537,16.29289,8.292893Q16.36254,8.223249,16.44443,8.16853Q16.52632,8.113812,16.61732,8.076121Q16.70831,8.03843,16.80491,8.019214999999999Q16.901510000000002,8,17,8Q17.098489999999998,8,17.19509,8.019214999999999Q17.29169,8.03843,17.38268,8.076121Q17.47368,8.113812,17.55557,8.16853Q17.63746,8.223249,17.70711,8.292893Q17.77675,8.362537,17.83147,8.44443Q17.88619,8.526322,17.92388,8.617317Q17.961570000000002,8.708311,17.98078,8.80491Q18,8.9015086,18,9ZM9,12Q9,12.09849,8.980785000000001,12.19509Q8.96157,12.29169,8.923879,12.38268Q8.886188,12.47368,8.83147,12.55557Q8.776751,12.63746,8.707107,12.70711Q8.637463,12.77675,8.55557,12.83147Q8.473678,12.88619,8.382683,12.92388Q8.291689,12.96157,8.19509,12.98078Q8.0984914,13,8,13Q7.9015086,13,7.80491,12.98078Q7.708311,12.96157,7.617317,12.92388Q7.526322,12.88619,7.44443,12.83147Q7.362537,12.77675,7.292893,12.70711Q7.223249,12.63746,7.16853,12.55557Q7.113812,12.47368,7.076121,12.38268Q7.03843,12.29169,7.019215,12.19509Q7,12.09849,7,12Q7,11.90151,7.019215,11.80491Q7.03843,11.70831,7.076121,11.61732Q7.113812,11.52632,7.16853,11.44443Q7.223249,11.36254,7.292893,11.29289Q7.362537,11.22325,7.44443,11.16853Q7.526322,11.11381,7.617317,11.07612Q7.708311,11.03843,7.80491,11.019210000000001Q7.9015086,11,8,11Q8.0984914,11,8.19509,11.019210000000001Q8.291689,11.03843,8.382683,11.07612Q8.473678,11.11381,8.55557,11.16853Q8.637463,11.22325,8.707107,11.29289Q8.776751,11.36254,8.83147,11.44443Q8.886188,11.52632,8.923879,11.61732Q8.96157,11.70831,8.980785000000001,11.80491Q9,11.90151,9,12Z" fill="currentColor" fill-stroke-opacity="1"/></g></g></svg>
