<svg viewBox="0 0 90 78" fill="none" xmlns="http://www.w3.org/2000/svg"><path fill="#FFF" d="M18 69.75a3 3 0 0 0 3 3h49.5a3 3 0 0 0 3-3v-48L56.25 5.25H21a3 3 0 0 0-3 3v61.5Z"/><path fill="#C4C9CF" fill-rule="evenodd" d="M18 69.75a3 3 0 0 0 3 3h49.5a3 3 0 0 0 3-3v-48L56.25 5.25H21a3 3 0 0 0-3 3v61.5ZM55.972 5.943l16.835 16.103V69.75q0 .956-.676 1.631-.675.676-1.631.676H21q-.956 0-1.631-.676-.676-.675-.676-1.631V8.25q0-.956.676-1.631.675-.676 1.631-.676h34.972Z"/><rect fill="#EDF1F5" rx="1.5" height="4.5" width="35.25" y="58.5" x="25.5" transform="rotate(-90 25.5 58.5)"/><rect fill="#EDF1F5" rx="1.5" height="4.5" width="46.5" y="58.5" x="37.5" transform="rotate(-90 37.5 58.5)"/><rect fill="#EDF1F5" rx="1.5" height="4.5" width="29.25" y="58.5" x="49.5" transform="rotate(-90 49.5 58.5)"/><rect fill="#EDF1F5" rx="1.5" height="4.5" width="29.25" y="58.5" x="61.5" transform="rotate(-90 61.5 58.5)"/><g fill="#C4C9CF"><path d="M55.5 5.25v13.5c0 1.657 1.313 3 2.97 3H73.5l-18-16.5Z"/><path fill-rule="evenodd" d="M55.5 18.75V5.25l.693.635 16.55 15.172.757.693H58.47c-1.657 0-2.97-1.343-2.97-3Zm.693 0V6.826l15.525 14.23H58.47q-.95 0-1.613-.671-.664-.674-.664-1.635Z"/></g><rect fill="#C4C9CF" rx="1.5" height="4.5" width="42.75" y="63" x="24.75"/><path fill="#C4C9CF" fill-rule="evenodd" d="m61.168 29.284.251.199-.894 1.13-.588-.466 1.057-1.336.299.1-.125.373Zm1.304.81 1.416.472.237-.711-1.416-.472-.237.711Zm2.831.944 1.416.472.237-.711-1.415-.472-.238.711Zm2.832.944 1.416.472.237-.712-1.416-.472-.237.712Zm-9.463.97.927-1.17-.588-.465-.927 1.17.588.465Zm12.295-.026 1.416.472.237-.712-1.416-.472-.237.712Zm2.831.944.708.236.238-.712-.708-.236-.238.712ZM56.82 35.293l.927-1.17-.588-.466-.927 1.17.588.466Zm-1.852 2.34.926-1.17-.588-.466-.926 1.17.588.466Zm-25.699-.436 1.282.764.384-.644-1.282-.764-.384.644Zm-1.777 1.687 1.096-1.012-.508-.551-1.097 1.012.509.551Zm4.342-.159 1.282.764.384-.644-1.283-.764-.383.644Zm21.281 1.248.926-1.17-.588-.465-.926 1.17.588.465Zm-27.816.936 1.096-1.012-.508-.552-1.097 1.013.508.55Zm9.099-.656 1.282.764.384-.645-1.282-.764-.384.645Zm16.864 2.06.927-1.17-.588-.465-.927 1.17.588.465Zm-14.3-.533 1.282.764.384-.644-1.282-.764-.384.644Zm-13.857 1.153 1.097-1.012-.509-.551-1.096 1.012.508.551Zm16.422.375 1.282.764.384-.644-1.283-.764-.383.644Zm9.883 1.346.926-1.17-.588-.466-.926 1.17.588.466Zm-28.498.304 1.097-1.012-.51-.551-1.096 1.012.509.55Zm21.179-.122 1.282.764.384-.645-1.282-.764-.384.645Zm5.466 2.158.926-1.17-.588-.466-.926 1.17.588.466Zm-28.838-.011 1.096-1.013-.508-.55-1.097 1.011.509.552Zm25.936-.62 1.282.764.384-.644-1.282-.764-.384.645Zm-28.13 2.644 1.097-1.012-.509-.551-1.096 1.012.508.551Zm-1.645 1.519.549-.507-.509-.55-.548.505.508.552Z"/><circle fill="#8B949E" cy="51" cx="14.25" r="3.75"/><circle fill="#8B949E" cy="37.5" cx="29.25" r="6"/><circle fill="#8B949E" cy="45" cx="47.25" r="4.5"/><circle fill="#8B949E" cy="29.25" cx="60.75" r="5.25"/><circle fill="#8B949E" cy="34.5" cx="78" r="3"/></svg>