<svg viewBox="0 0 11 14" fill="none" xmlns="http://www.w3.org/2000/svg"><path fill="#1B2129" fill-rule="evenodd" d="M3.056 1.273V.636c0-.351.273-.636.61-.636h3.667c.338 0 .611.285.611.636v.637h2.445c.337 0 .611.285.611.636v8.91a.65.65 0 0 1-.18.45l-2.444 2.544a.599.599 0 0 1-.432.187H.611A.624.624 0 0 1 0 13.364V1.909c0-.351.274-.636.611-.636h2.445ZM7 2V1H4v1h3Zm-3.944.545H1.223v10.182h6.469l2.086-2.173v-8.01H7.945a.624.624 0 0 1-.611.637H3.667a.624.624 0 0 1-.611-.636Zm-.612 3.183c0-.351.274-.636.611-.636h4.89c.337 0 .61.285.61.636a.624.624 0 0 1-.61.637h-4.89a.624.624 0 0 1-.61-.637Zm0 3.182c0-.352.274-.637.611-.637h3.056c.338 0 .611.285.611.637a.624.624 0 0 1-.611.636H3.055a.624.624 0 0 1-.61-.636Z" data-follow-fill="#1B2129"/></svg>