<?xml version="1.0" standalone="no"?><!DOCTYPE svg PUBLIC "-//W3C//DTD SVG 1.1//EN" "http://www.w3.org/Graphics/SVG/1.1/DTD/svg11.dtd"><svg t="1653959252980" class="icon" viewBox="0 0 1024 1024" version="1.1" xmlns="http://www.w3.org/2000/svg" p-id="2392" xmlns:xlink="http://www.w3.org/1999/xlink" width="200" height="200"><defs><style type="text/css">@font-face { font-family: feedback-iconfont; src: url("//at.alicdn.com/t/font_1031158_u69w8yhxdu.woff2?t=1630033759944") format("woff2"), url("//at.alicdn.com/t/font_1031158_u69w8yhxdu.woff?t=1630033759944") format("woff"), url("//at.alicdn.com/t/font_1031158_u69w8yhxdu.ttf?t=1630033759944") format("truetype"); }
</style></defs><path d="M559.866 927.957h-94.794c-24.419 0-44.297-19.882-44.297-44.301v-61.299c0-6.34-5.945-14.568-11.979-16.585l-28.848-11.85c-8.877-4.304-17.142-1.494-21.284 2.666l-43.419 43.416c-16.637 16.64-45.957 16.64-62.593 0l-67.063-67.097c-8.339-8.283-12.967-19.414-12.967-31.297 0-11.887 4.628-23.017 13.022-31.352l43.309-43.312c4.374-4.392 6.015-14.568 3.242-20.148l-11.942-28.959c-2.449-7.166-10.677-13.093-17.017-13.093h-61.369c-24.422 0-44.301-19.86-44.301-44.264v-94.831c0-24.419 19.879-44.297 44.301-44.297h61.369c6.34 0 14.568-5.927 16.585-11.957l11.813-28.833c3.386-6.897 1.748-16.91-2.737-21.428l-43.309-43.312c-8.339-8.283-12.967-19.41-12.967-31.297s4.628-23.013 13.022-31.353l67.008-67.044c16.604-16.674 45.971-16.692 62.612 0.018l43.346 43.346c4.234 4.215 14.874 5.908 20.133 3.279l28.848-11.994c7.277-2.467 13.185-10.662 13.185-16.998v-61.336c0-24.419 19.879-44.301 44.297-44.301h94.794c24.474 0 44.375 19.882 44.375 44.301v61.336c0 6.336 5.886 14.531 11.901 16.548l28.866 11.901c8.737 4.252 17.09 1.497 21.339-2.755l43.346-43.346c16.747-16.711 45.938-16.692 62.652-0.015l67.026 67.115c8.317 8.283 12.945 19.41 12.945 31.297s-4.629 23.013-13.019 31.352l-43.309 43.309c-4.429 4.466-6.07 14.479-3.242 20.151l11.993 28.885c2.449 7.24 10.662 13.129 17.035 13.129h61.373c24.382 0 44.227 19.879 44.227 44.297v94.831c0 24.404-19.845 44.264-44.227 44.264h-61.373c-6.373 0-14.586 5.89-16.567 11.868l-11.923 28.992c-3.312 6.771-1.674 16.947 2.722 21.357l43.346 43.345c8.335 8.284 12.964 19.414 12.964 31.301 0 11.883-4.629 23.013-13.019 31.352l-66.92 67.023c-16.818 16.714-45.953 16.64-62.63 0.074l-43.416-43.416c-4.234-4.234-14.822-5.927-20.133-3.279l-28.87 11.976c-7.184 2.449-13.089 10.677-13.089 17.017v61.299c0.002 24.422-19.899 44.304-44.373 44.304z m-188.02-172.859c8.39 0 16.478 1.818 23.393 5.278l26.454 10.858c19.989 6.664 35.962 28.829 35.962 51.124v61.299c0 4.09 3.33 7.42 7.417 7.42h94.794c4.127 0 7.494-3.33 7.494-7.42v-61.299c0-22.276 15.918-44.426 37.043-51.537l26.506-11.005c15.884-8.103 46.351-4.374 61.498 10.751l43.364 43.364c3.673 3.636 6.79 3.692 10.57-0.055l66.916-67.041c1.91-1.874 2.18-4.072 2.18-5.222 0-1.154-0.269-3.352-2.106-5.171l-43.416-43.416c-15.759-15.792-20.118-42.733-10.157-62.686l10.913-26.547c6.535-19.934 28.704-35.925 51.105-35.925h61.373c3.979 0 7.347-3.386 7.347-7.383v-94.831c0-4.013-3.367-7.417-7.347-7.417h-61.373c-22.401 0-44.57-15.991-51.574-37.187l-10.987-26.436c-9.401-18.713-5.042-45.65 10.644-61.443l43.416-43.419c1.892-1.874 2.161-4.068 2.161-5.222 0-1.151-0.269-3.349-2.106-5.168l-67.063-67.151c-3.673-3.71-6.771-3.729-10.515 0.018l-43.346 43.345c-15.198 15.125-43.434 19.842-62.704 10.191l-26.473-10.913c-19.934-6.609-35.87-28.759-35.87-51.068v-61.336c0-4.016-3.441-7.42-7.494-7.42h-94.794c-4.016 0-7.417 3.404-7.417 7.42v61.336c0 22.327-15.991 44.478-37.187 51.537l-26.421 10.986c-15.918 8.14-46.477 4.356-61.531-10.75l-43.346-43.346c-3.71-3.71-6.753-3.692-10.426-0.018l-67.082 67.115c-1.888 1.874-2.161 4.072-2.161 5.222 0 1.154 0.273 3.349 2.11 5.167l43.416 43.419c15.741 15.848 20.096 42.785 10.157 62.686l-10.824 26.472c-6.679 20.008-28.848 35.963-51.124 35.963h-61.369c-4.016 0-7.42 3.404-7.42 7.417v94.831c0 3.998 3.404 7.383 7.42 7.383h61.369c22.276 0 44.445 15.954 51.559 37.098l10.946 26.598c9.401 18.728 5.045 45.669-10.695 61.443l-43.382 43.383c-1.888 1.87-2.161 4.068-2.161 5.222 0 1.151 0.273 3.349 2.11 5.167l67.115 67.152c3.673 3.673 6.771 3.673 10.445 0l43.364-43.364c9.596-9.671 24.311-15.469 39.31-15.469z m140.625-98.629c-79.038 0-143.343-64.345-143.343-143.417s64.305-143.417 143.343-143.417c79.072 0 143.417 64.345 143.417 143.417s-64.345 143.417-143.417 143.417z m0-249.953c-58.706 0-106.463 47.793-106.463 106.536s47.756 106.537 106.463 106.537c58.743 0 106.537-47.793 106.537-106.537s-47.794-106.536-106.537-106.536z" p-id="2393" fill="currentColor"></path></svg>
