<svg xmlns="http://www.w3.org/2000/svg" xmlns:xlink="http://www.w3.org/1999/xlink" fill="none" version="1.1" width="24" height="24" viewBox="0 0 24 24"><defs><clipPath id="master_svg0_3_495"><rect x="0" y="0" width="24" height="24" rx="0"/></clipPath></defs><g clip-path="url(#master_svg0_3_495)"><g><path d="M3.87868,1.8786800000000001C4.44129,1.31607,5.20435,1,6,1C6,1,14,1,14,1C14.2652,1,14.5196,1.105357,14.7071,1.292893C14.7071,1.292893,20.7071,7.29289,20.7071,7.29289C20.8946,7.48043,21,7.73478,21,8C21,8,21,20,21,20C21,20.7957,20.6839,21.5587,20.1213,22.1213C19.5587,22.6839,18.7957,23,18,23C18,23,6,23,6,23C5.20435,23,4.44129,22.6839,3.87868,22.1213C3.31607,21.5587,3,20.7957,3,20C3,20,3,4,3,4C3,3.20435,3.31607,2.44129,3.87868,1.8786800000000001C3.87868,1.8786800000000001,3.87868,1.8786800000000001,3.87868,1.8786800000000001ZM6,3C5.734780000000001,3,5.48043,3.10536,5.29289,3.29289C5.10536,3.48043,5,3.73478,5,4C5,4,5,20,5,20C5,20.2652,5.10536,20.5196,5.29289,20.7071C5.48043,20.8946,5.734780000000001,21,6,21C6,21,18,21,18,21C18.2652,21,18.5196,20.8946,18.7071,20.7071C18.8946,20.5196,19,20.2652,19,20C19,20,19,9,19,9C19,9,14,9,14,9C13.4477,9,13,8.55228,13,8C13,8,13,3,13,3C13,3,6,3,6,3C6,3,6,3,6,3ZM15,4.414210000000001C15,4.414210000000001,17.5858,7,17.5858,7C17.5858,7,15,7,15,7C15,7,15,4.414210000000001,15,4.414210000000001C15,4.414210000000001,15,4.414210000000001,15,4.414210000000001ZM7,9C7,8.44772,7.44772,8,8,8C8,8,10,8,10,8C10.55228,8,11,8.44772,11,9C11,9.55228,10.55228,10,10,10C10,10,8,10,8,10C7.44772,10,7,9.55228,7,9C7,9,7,9,7,9ZM7,13C7,12.4477,7.44772,12,8,12C8,12,16,12,16,12C16.552300000000002,12,17,12.4477,17,13C17,13.5523,16.552300000000002,14,16,14C16,14,8,14,8,14C7.44772,14,7,13.5523,7,13C7,13,7,13,7,13ZM7,17C7,16.447699999999998,7.44772,16,8,16C8,16,16,16,16,16C16.552300000000002,16,17,16.447699999999998,17,17C17,17.5523,16.552300000000002,18,16,18C16,18,8,18,8,18C7.44772,18,7,17.5523,7,17C7,17,7,17,7,17Z" fill-rule="evenodd" fill="#0256FF" fill-opacity="1"/></g></g></svg>