<svg xmlns="http://www.w3.org/2000/svg" xmlns:xlink="http://www.w3.org/1999/xlink" fill="none" version="1.1" width="24" height="24" viewBox="0 0 24 24"><defs><clipPath id="master_svg0_3_518"><rect x="0" y="0" width="24" height="24" rx="0"/></clipPath></defs><g clip-path="url(#master_svg0_3_518)"><g><path d="M15.662993801116944,3.7734250334739685C13.890193801116943,2.9835350334739683,11.909593801116943,2.7878450334739684,10.016563801116943,3.2155550334739686C8.123503801116943,3.6432750334739685,6.419413801116943,4.671465033473968,5.158443801116944,6.1467950334739685C3.8974838011169433,7.622125033473968,3.147203801116943,9.465535033473968,3.0195038011169433,11.402075033473968C2.8918038011169434,13.338675033473969,3.393533801116943,15.264675033473969,4.449863801116944,16.892775033473967C5.5061838011169435,18.520875033473967,7.060503801116943,19.76397503347397,8.881013801116943,20.436575033473968C10.701523801116943,21.109175033473967,12.690693801116943,21.17517503347397,14.551793801116943,20.62497503347397C16.412993801116944,20.07467503347397,18.046393801116942,18.93747503347397,19.208393801116944,17.38307503347397C20.370493801116943,15.828675033473969,20.998893801116942,13.940175033473968,20.999993801116943,11.999475033473969C20.999993801116943,11.999475033473969,20.999993801116943,11.079975033473968,20.999993801116943,11.079975033473968C20.999993801116943,10.527715033473969,21.447693801116944,10.079995033473969,21.999993801116943,10.079995033473969C22.552293801116942,10.079995033473969,22.999993801116943,10.527715033473969,22.999993801116943,11.079975033473968C22.999993801116943,11.079975033473968,22.999993801116943,11.999975033473968,22.999993801116943,11.999975033473968C22.998593801116943,14.372075033473969,22.230593801116942,16.680675033473968,20.810293801116945,18.58057503347397C19.389993801116944,20.48047503347397,17.393593801116943,21.87027503347397,15.118893801116943,22.54287503347397C12.844193801116944,23.21537503347397,10.412983801116944,23.134675033473968,8.187913801116943,22.31257503347397C5.962843801116944,21.49057503347397,4.063113801116943,19.97127503347397,2.772053801116943,17.98137503347397C1.4809868011169434,15.991375033473968,0.8677638011169434,13.637475033473969,1.0238383011169434,11.270475033473968C1.1799128011169433,8.90359503347397,2.0969238011169433,6.6505250334739685,3.6381038011169435,4.847355033473969C5.179283801116943,3.0441750334739686,7.262053801116943,1.7874920334739683,9.575803801116944,1.2647320334739685C11.889593801116943,0.7419720334739686,14.310293801116943,0.9811418334739685,16.476993801116944,1.9465720334739685C16.981493801116944,2.1713550334739686,17.208193801116945,2.7625250334739686,16.983393801116943,3.2669950334739686C16.75869380111694,3.7714750334739686,16.167493801116944,3.9982050334739685,15.662993801116944,3.7734250334739685C15.662993801116944,3.7734250334739685,15.662993801116944,3.7734250334739685,15.662993801116944,3.7734250334739685ZM22.706793801116945,3.2925350334739685C23.097493801116944,3.6828650334739685,23.097793801116943,4.316035033473968,22.707493801116943,4.706755033473968C22.707493801116943,4.706755033473968,12.707493801116943,14.716775033473969,12.707493801116943,14.716775033473969C12.519993801116943,14.904475033473968,12.265593801116943,15.00997503347397,12.000293801116943,15.00997503347397C11.734993801116943,15.010075033473969,11.480493801116943,14.904675033473968,11.292893801116943,14.717075033473968C11.292893801116943,14.717075033473968,8.292893801116943,11.717075033473968,8.292893801116943,11.717075033473968C7.902373801116943,11.326575033473969,7.902373801116943,10.693415033473968,8.292893801116943,10.302895033473968C8.683413801116943,9.912365033473968,9.316583801116943,9.912365033473968,9.707103801116943,10.302895033473968C9.707103801116943,10.302895033473968,11.999693801116944,12.595475033473969,11.999693801116944,12.595475033473969C11.999693801116944,12.595475033473969,21.292493801116944,3.2932450334739687,21.292493801116944,3.2932450334739687C21.682893801116943,2.9025250334739683,22.315993801116942,2.9022150334739685,22.706793801116945,3.2925350334739685C22.706793801116945,3.2925350334739685,22.706793801116945,3.2925350334739685,22.706793801116945,3.2925350334739685Z" fill-rule="evenodd" fill="#0256FF" fill-opacity="1"/></g></g></svg>