<svg xmlns="http://www.w3.org/2000/svg" xmlns:xlink="http://www.w3.org/1999/xlink" fill="none" version="1.1" width="24" height="24" viewBox="0 0 24 24"><defs><clipPath id="master_svg0_3_504"><rect x="0" y="0" width="24" height="24" rx="0"/></clipPath></defs><g clip-path="url(#master_svg0_3_504)"><g><path d="M10.502140476837159,1.4027388766174316C10.957680476837158,1.1402358766174316,11.474210476837158,1.0020508766174316,12.000000476837158,1.0020508766174316C12.525800476837158,1.0020508766174316,13.042400476837159,1.1402468766174316,13.497900476837158,1.4027708766174316C13.498600476837158,1.4031718766174317,13.499300476837158,1.4035728766174316,13.500000476837158,1.4039748766174316C13.500000476837158,1.4039748766174316,20.500000476837158,5.403960876617432,20.500000476837158,5.403960876617432C20.87000047683716,5.617580876617431,21.189100476837158,5.907150876617432,21.43690047683716,6.2523608766174315C21.497300476837157,6.312730876617431,21.550800476837157,6.381880876617432,21.59560047683716,6.459280876617432C21.634200476837158,6.525940876617431,21.66420047683716,6.595210876617432,21.686000476837158,6.6658108766174315C21.89170047683716,7.079280876617432,21.99950047683716,7.535480876617432,22.000000476837158,7.998970876617432C22.000000476837158,7.998970876617432,22.000000476837158,16.001050876617434,22.000000476837158,16.001050876617434C21.99950047683716,16.527150876617434,21.86060047683716,17.04385087661743,21.59730047683716,17.49925087661743C21.334000476837158,17.95475087661743,20.95560047683716,18.33295087661743,20.500000476837158,18.596050876617433C20.500000476837158,18.596050876617433,20.496100476837157,18.59825087661743,20.496100476837157,18.59825087661743C20.496100476837157,18.59825087661743,13.500000476837158,22.596050876617433,13.500000476837158,22.596050876617433C13.499400476837158,22.596350876617432,13.498800476837157,22.59675087661743,13.498200476837159,22.59705087661743C13.181000476837157,22.77995087661743,12.834200476837157,22.902450876617433,12.475300476837159,22.96005087661743C12.333900476837158,23.036550876617433,12.172000476837159,23.07995087661743,12.000000476837158,23.07995087661743C11.827980476837158,23.07995087661743,11.666100476837158,23.036550876617433,11.524740476837158,22.96005087661743C11.165840476837158,22.902450876617433,10.819050476837159,22.77995087661743,10.501850476837157,22.59705087661743C10.501230476837158,22.59675087661743,10.500620476837158,22.596350876617432,10.500000476837158,22.596050876617433C10.500000476837158,22.596050876617433,3.503860476837158,18.59825087661743,3.503860476837158,18.59825087661743C3.503860476837158,18.59825087661743,3.500000476837158,18.596050876617433,3.500000476837158,18.596050876617433C3.044390476837158,18.33295087661743,2.665970476837158,17.95475087661743,2.4026924768371583,17.49925087661743C2.139414476837158,17.04385087661743,2.000540077837158,16.527150876617434,2.000000476837158,16.001050876617434C2.000000476837158,16.001050876617434,2.000000476837158,7.998970876617432,2.000000476837158,7.998970876617432C2.0004758838371584,7.535480876617432,2.1083244768371583,7.079280876617432,2.3140204768371584,6.6658108766174315C2.3358154768371584,6.595220876617431,2.3658264768371584,6.525950876617432,2.4043924768371583,6.459280876617432C2.449165476837158,6.381880876617432,2.502724476837158,6.312730876617431,2.5630804768371585,6.2523608766174315C2.810936476837158,5.907150876617432,3.1300204768371582,5.617580876617431,3.500000476837158,5.403970876617431C3.500000476837158,5.403970876617431,3.503860476837158,5.401750876617432,3.503860476837158,5.401750876617432C3.503860476837158,5.401750876617432,6.752580476837158,3.5453408766174315,6.752580476837158,3.5453408766174315C6.900170476837158,3.379040876617432,7.096180476837159,3.2704908766174317,7.306320476837159,3.2289208766174315C7.306320476837159,3.2289208766174315,10.502140476837159,1.4027388766174316,10.502140476837159,1.4027388766174316C10.502140476837159,1.4027388766174316,10.502140476837159,1.4027388766174316,10.502140476837159,1.4027388766174316ZM7.549990476837158,5.393190876617432C7.549990476837158,5.393190876617432,5.038990476837158,6.828040876617432,5.038990476837158,6.828040876617432C5.038990476837158,6.828040876617432,12.000000476837158,10.854740876617432,12.000000476837158,10.854740876617432C12.000000476837158,10.854740876617432,14.506500476837159,9.404800876617431,14.506500476837159,9.404800876617431C14.506500476837159,9.404800876617431,7.549990476837158,5.393190876617432,7.549990476837158,5.393190876617432C7.549990476837158,5.393190876617432,7.549990476837158,5.393190876617432,7.549990476837158,5.393190876617432ZM16.50520047683716,8.248640876617433C16.50520047683716,8.248640876617433,9.560900476837158,4.244090876617431,9.560900476837158,4.244090876617431C9.560900476837158,4.244090876617431,11.496140476837159,3.1382408766174317,11.496140476837159,3.1382408766174317C11.496140476837159,3.1382408766174317,11.500000476837158,3.136020876617432,11.500000476837158,3.136020876617432C11.652020476837158,3.0482608766174315,11.824460476837158,3.0020508766174316,12.000000476837158,3.0020508766174316C12.175500476837158,3.0020508766174316,12.348000476837159,3.0482608766174315,12.500000476837158,3.136020876617432C12.500000476837158,3.136020876617432,18.961000476837157,6.828040876617432,18.961000476837157,6.828040876617432C18.961000476837157,6.828040876617432,16.50520047683716,8.248640876617433,16.50520047683716,8.248640876617433C16.50520047683716,8.248640876617433,16.50520047683716,8.248640876617433,16.50520047683716,8.248640876617433ZM20.000000476837158,8.537540876617431C20.000000476837158,8.537540876617431,13.000000476837158,12.586750876617431,13.000000476837158,12.586750876617431C13.000000476837158,12.586750876617431,13.000000476837158,20.57825087661743,13.000000476837158,20.57825087661743C13.000000476837158,20.57825087661743,19.500000476837158,16.86395087661743,19.500000476837158,16.86395087661743C19.500500476837157,16.86365087661743,19.50110047683716,16.86335087661743,19.501600476837158,16.863050876617432C19.652700476837158,16.775450876617434,19.77830047683716,16.649650876617432,19.86580047683716,16.49835087661743C19.953500476837156,16.34655087661743,19.99980047683716,16.17435087661743,20.000000476837158,15.998950876617432C20.000000476837158,15.998950876617432,20.000000476837158,8.537540876617431,20.000000476837158,8.537540876617431C20.000000476837158,8.537540876617431,20.000000476837158,8.537540876617431,20.000000476837158,8.537540876617431ZM11.000000476837158,20.57825087661743C11.000000476837158,20.57825087661743,11.000000476837158,12.586750876617431,11.000000476837158,12.586750876617431C11.000000476837158,12.586750876617431,4.000000476837158,8.537540876617431,4.000000476837158,8.537540876617431C4.000000476837158,8.537540876617431,4.000000476837158,15.999450876617432,4.000000476837158,15.999450876617432C4.000250476837158,16.17465087661743,4.0465404768371585,16.34665087661743,4.134230476837159,16.49835087661743C4.221690476837159,16.649650876617432,4.3472604768371585,16.775450876617434,4.498420476837158,16.863050876617432C4.498950476837158,16.86335087661743,4.499470476837159,16.86365087661743,4.500000476837158,16.86395087661743C4.500000476837158,16.86395087661743,11.000000476837158,20.57825087661743,11.000000476837158,20.57825087661743C11.000000476837158,20.57825087661743,11.000000476837158,20.57825087661743,11.000000476837158,20.57825087661743Z" fill-rule="evenodd" fill="#0256FF" fill-opacity="1"/></g></g></svg>