<svg xmlns="http://www.w3.org/2000/svg" xmlns:xlink="http://www.w3.org/1999/xlink" fill="none" version="1.1" width="24" height="24" viewBox="0 0 24 24"><defs><clipPath id="master_svg0_3_507"><rect x="0" y="0" width="24" height="24" rx="0"/></clipPath></defs><g clip-path="url(#master_svg0_3_507)"><g><path d="M12,3C15.3798,3,18.3387,4.63249,20.8545,7.31606C21.7189,8.238019999999999,22.4695,9.22245,23.1057,10.20747C23.1057,10.20747,23.344,10.58488,23.344,10.58488C23.344,10.58488,23.6342,11.07202,23.6342,11.07202C23.6342,11.07202,23.7825,11.3382,23.7825,11.3382C23.7825,11.3382,23.8944,11.55279,23.8944,11.55279C24.0352,11.83431,24.0352,12.16569,23.8944,12.44721C23.8788,12.47845,23.8617,12.51201,23.843,12.5478C23.843,12.5478,23.7129,12.78869,23.7129,12.78869C23.7129,12.78869,23.5465,13.0792,23.5465,13.0792C23.5465,13.0792,23.344,13.4151,23.344,13.4151C23.344,13.4151,23.1057,13.7925,23.1057,13.7925C22.4695,14.7776,21.7189,15.762,20.8545,16.6839C18.3387,19.3675,15.3798,21,12,21C8.6202,21,5.66131,19.3675,3.14546,16.6839C2.28113,15.762,1.5305,14.7776,0.894336,13.7925C0.894336,13.7925,0.655978,13.4151,0.655978,13.4151C0.655978,13.4151,0.3658,12.92798,0.3658,12.92798C0.3658,12.92798,0.217516,12.6618,0.217516,12.6618C0.217516,12.6618,0.105573,12.44721,0.105573,12.44721C-0.0351909,12.16569,-0.0351909,11.83431,0.105573,11.55279C0.121191,11.52155,0.138332,11.48799,0.15699,11.4522C0.15699,11.4522,0.287126,11.21131,0.287126,11.21131C0.287126,11.21131,0.453515,10.92085,0.453515,10.92085C0.453515,10.92085,0.655978,10.58488,0.655978,10.58488C0.655978,10.58488,0.894336,10.20747,0.894336,10.20747C1.5305,9.22245,2.28113,8.238019999999999,3.14546,7.31606C5.66131,4.63249,8.6202,3,12,3C12,3,12,3,12,3ZM12,5C9.2548,5,6.77619,6.367509999999999,4.60454,8.68394C3.82825,9.511980000000001,3.14919,10.40255,2.57441,11.29253C2.47415,11.44777,2.38085,11.59722,2.29461,11.73989C2.29461,11.73989,2.141,12,2.141,12C2.141,12,2.29461,12.26011,2.29461,12.26011C2.29461,12.26011,2.42925,12.47907,2.42925,12.47907C2.42925,12.47907,2.57441,12.70747,2.57441,12.70747C3.14919,13.5974,3.82825,14.488,4.60454,15.3161C6.77619,17.6325,9.2548,19,12,19C14.7452,19,17.2238,17.6325,19.3955,15.3161C20.1718,14.488,20.8508,13.5974,21.4256,12.70747C21.5259,12.55223,21.6191,12.40278,21.7054,12.26011C21.7054,12.26011,21.858,12,21.858,12C21.858,12,21.7054,11.73989,21.7054,11.73989C21.7054,11.73989,21.5707,11.52093,21.5707,11.52093C21.5707,11.52093,21.4256,11.29253,21.4256,11.29253C20.8508,10.40255,20.1718,9.511980000000001,19.3955,8.68394C17.2238,6.367509999999999,14.7452,5,12,5C12,5,12,5,12,5ZM12,8C14.2092,8,16,9.790849999999999,16,12C16,14.2092,14.2092,16,12,16C9.79082,16,8,14.2092,8,12C8,9.790849999999999,9.79083,8,12,8C12,8,12,8,12,8ZM12,10C10.8954,10,10,10.89541,10,12C10,13.1046,10.8954,14,12,14C13.1046,14,14,13.1046,14,12C14,10.89541,13.1046,10,12,10C12,10,12,10,12,10Z" fill="#0256FF" fill-opacity="1"/></g></g></svg>