<svg xmlns="http://www.w3.org/2000/svg" xmlns:xlink="http://www.w3.org/1999/xlink" fill="none" version="1.1" width="14" height="14" viewBox="0 0 14 14"><defs><clipPath id="master_svg0_965_43846"><rect x="0" y="0" width="14" height="14" rx="0"/></clipPath></defs><g clip-path="url(#master_svg0_965_43846)"><g><path d="M8.71760734375,7.5494825L8.71760734375,8.1328125Q8.71760734375,8.6158125,8.37577734375,8.9576425Q8.03394734375,9.2994825,7.55094734375,9.2994825L2.30094734375,9.2994825Q1.81794434375,9.2994825,1.47611034375,8.9576425Q1.13427734375,8.6158125,1.13427734375,8.1328125L1.13427734375,2.2994825Q1.13427734375,1.8164795,1.47611034375,1.4746455Q1.81794434375,1.1328125,2.30094734375,1.1328125L7.55094734375,1.1328125Q8.03394734375,1.1328125,8.37577734375,1.4746455Q8.71760734375,1.8164795,8.71760734375,2.2994825L8.71760734375,3.0770625000000003C8.71760734375,3.3992325,8.45644734375,3.6603925,8.13427734375,3.6603925C7.81210734375,3.6603925,7.55094734375,3.3992325,7.55094734375,3.0770625000000003L7.55094734375,2.2994825L2.30094734375,2.2994825L2.30094734375,8.1328125L7.55094734375,8.1328125L7.55094734375,7.5494825C7.55094734375,7.2273125,7.81210734375,6.9661425,8.13427734375,6.9661425C8.45644734375,6.9661425,8.71760734375,7.2273125,8.71760734375,7.5494825Z" fill-rule="evenodd" fill="#626C78" fill-opacity="1"/></g><g><path d="M5.1041259765625,6.2890625L5.1041259765625,5.7057325Q5.1041259765625,5.2227295,5.4459599765625,4.8808965Q5.7877929765625,4.53906305631,6.2707959765625,4.5390625L11.5207959765625,4.5390625Q12.0037959765625,4.5390625,12.3456259765625,4.8808965Q12.6874559765625,5.2227295,12.6874559765625,5.7057325L12.6874559765625,11.5390625Q12.6874559765625,12.0220625,12.3456259765625,12.3638925Q12.0037959765625,12.7057325,11.5207959765625,12.7057325L6.2707959765625,12.7057325Q5.7877929765625,12.7057325,5.4459599765625,12.3638925Q5.1041265328725,12.0220625,5.1041259765625,11.5390625L5.1041259765625,10.7614825C5.1041259765625,10.4393125,5.3652929765625,10.1781425,5.6874589765625,10.1781425C6.0096259765625,10.1781425,6.2707959765625,10.4393125,6.2707959765625,10.7614825L6.2707959765625,11.5390625L11.5207959765625,11.5390625L11.5207959765625,5.7057325L6.2707959765625,5.7057325L6.2707959765625,6.2890625C6.2707959765625,6.6112325,6.0096259765625,6.8723925,5.6874589765625,6.8723925C5.3652929765625,6.8723925,5.1041259765625,6.6112325,5.1041259765625,6.2890625Z" fill-rule="evenodd" fill="#626C78" fill-opacity="1"/></g></g></svg>